<svg xmlns="http://www.w3.org/2000/svg" xml:space="preserve" fill-rule="evenodd" stroke-linecap="round" stroke-linejoin="round" style="background-color:transparant" viewBox="0 0 1024 768"><defs><style><![CDATA[g[clip-path]>*{vector-effect:non-scaling-stroke}]]></style></defs><g fill="#ed1f24" stroke="#ed1f24" clip-path="url(#clipId0)"><path d="M427 435V268l167 167z"/><path d="M594 435 427 268h167z"/></g><g fill="none" stroke="currentColor" clip-path="url(#clipId0)"><path d="M69 760h886V8H69z"/></g><g fill="currentColor" stroke="currentColor" clip-path="url(#clipId0)"><text font-family="Arial,'sans-serif'" font-size="1.4" transform="matrix(17 0 0 17 340 204)">DUOTECNO GATEWAY</text><text font-family="Arial,'sans-serif'" font-size="1.4" transform="matrix(25 0 0 25 644 209)">CE</text></g><g fill="none" stroke="currentColor" clip-path="url(#clipId0)"><path d="M328 177v39M328 216h375M703 216v-39M328 177h375M112 414h100V289H112zM923 414H823V289h100z"/></g><g fill="none" stroke="currentColor" clip-path="url(#clipId0)"><path d="M427 435V268M427 268h167M594 268v167M594 435H427M69 133h886M69 568h886M69 635h886"/></g><g fill="none" stroke="currentColor" clip-path="url(#clipId0)"><path d="M446 274v97h10v5h0-10v29l1 5 1 3 2 2 5 2h1v6h-1l-5-1-3-2-3-2-1-4-1-3-1-8v-26l-4-1v-4l1-1h3v-97h5"/></g><g fill="currentColor" stroke="currentColor" clip-path="url(#clipId0)"><path d="M437 376v-5zM437 376v-5h0zM437 376v-5zM438 376l-1-5h1zM438 376v-5zM438 376v-5h0zM438 376v-5zM439 376l-1-5h1zM439 376v-5zM439 376v-5h0zM439 376v-5zM439 376v-5h0zM439 376v-5zM440 376l-1-5h1zM440 376v-5zM440 376v-5h0zM440 376v-5zM441 376l-1-5h1zM441 376v-5zM441 376v-5h0zM441 376v-5zM441 376v-5h0zM441 376v-5zM441 376v-5h0zM441 376v-5zM441 376v-5h0zM441 376v-5zM441 376v-5h0zM441 376v-5zM441 376v-5h0zM441 376v-5zM441 376v-5h0zM441 376v-5zM441 376v-5h0zM441 274zM441 376v-5zM441 376v-5h0zM441 274zM441 274zM441 376v-5zM441 376v-5h0zM441 274zM441 274zM441 376v-5zM441 376v-5h0zM441 274zM441 275v-1h0zM441 274zM441 376v-5zM441 376v-5h0zM441 275v-1zM441 275v-1h0zM441 274zM441 274zM441 376v-5zM441 376v-5h0zM441 275v-1zM441 275v-1h0zM441 274zM441 274zM441 376v-5zM441 376v-5h0zM441 275v-1zM441 276v-2h0zM441 274zM441 274zM441 376v-5zM441 376v-5h0zM441 276v-2zM441 276v-2h0zM441 274zM441 274zM441 376v-5zM441 376v-5h0zM441 276v-2zM441 277v-3h0zM441 274zM441 274zh0zM441 376v-5zM441 376v-5h0zM441 277v-3zM441 277v-3h0zM441 274v-1zM441 274v-1h0zM441 376v-5zM441 376v-5h0zM441 277v-3zM441 278v-4h0zM441 274v-1zM441 274v-1zM441 376v-5zM441 376v-5h0zM441 278v-4zM441 278v-4h0zM441 274zM441 274zM441 376v-5zM441 376v-5h0zM441 278v-4zM441 278v-4h0zM441 274zM441 274zM441 404zM441 376v-5zM441 376v-5h0zM441 278v-4zM441 278v-4h0zM441 274zM441 274zM441 404zM441 404zM441 376v-5zM441 376v-5h0zM441 278v-4zM441 278v-4h0zM441 274zM441 274zM441 404zM441 405v-2h0zM441 376v-5zM441 376v-5h0zM441 286zM441 278v-4zM441 278v-4h0zM441 274zM441 274zM441 405v-2zM441 405v-2h0zM441 376v-5zM441 376v-5h0zM441 286zv1zM441 287v-2zM441 278v-4zM441 279v-5h0zM441 274zM441 274zM441 405v-2zM441 405v-2h0zM441 376v-5zM441 376v-5h0zM441 287v-2zM441 287v-2h0zM441 279v-5zM441 279v-5h0zM441 274zM441 274zM441 405v-2zM441 405v-2h0zM441 376v-5zM441 376v-5h0zM441 287v-2zM441 288v-3h0zM441 279v-5zM441 279v-5h0zM441 274zM441 274zM441 405v-2zM441 405v-2h0zM441 376v-5zM441 376v-5h0zM441 288v-3zM441 288v-3h0zM441 279v-5zM441 279v-5h0zM441 274zM441 274zM441 405v-6zM441 405v-8zM441 376v-5 6zM441 377v-9zM441 298v-13 21zM441 306v-22zM441 279v-5zM441 280v-6h0zM441 274zM441 274zM441 405v-8zM441 405v-9zM441 377v-9zM441 377v-10zM441 306v-22 26zM441 310v-26h0zM441 280v-6zM441 280v-6h0zM441 274zM441 274zM441 405v-9zM441 405v-11zM441 377v-10zM441 378v-12zM441 310v-26 30zM441 314v-30h0zM441 280v-6zM441 280v-6h0zM441 274zM441 274zM441 405v-11zM441 405v-11h0zM441 378v-12zM441 378v-13zM441 314v-30 32zM441 316v-32h0zM441 280v-6zM441 280v-6h0zM441 274zM441 274zM441 405v-11zM441 405v-13zM441 378v-13zM441 378v-14zM441 316v-32 38zM441 322v-39zM441 280v-6zM441 281v-7h0zM441 274zM441 274zM441 405v-13zM441 405v-14zM441 378v-14zM441 379v-16zM441 322v-39 40zM441 323v-40h0zM441 281v-7zM441 281v-7h0zM441 274zM441 274zM441 405v-14zM441 405v-14h0zM441 379v-16zM441 379v-16h0zM441 323v-40 42zM441 325v-42h0zM441 281v-7zM441 281v-7h0zM441 274zM441 274zM441 405v-14zM441 405v-15zM441 379v-16zM441 379v-17zM441 325v-42 45zM441 328v-46zM441 281v-7 8zM441 282v-8h0zM441 274zM441 273zM441 405v-15zM441 405v-16zM441 379v-17zM441 379v-17h0zM441 328v-54 55zM441 329v-55h0zM441 273zM441 273zM441 405v-16zM441 405v-18zM441 379v-17zM441 379v-18zM441 329v-55 63zM441 337v-63h0zM441 273zM441 273zM441 405v-18zM441 405v-19zM441 379v-18zM441 379v-18h0zM441 337v-63 67zM441 341v-67h0zM441 273zM441 273zM441 405v-19zM441 405v-21zM441 379v-18 20zM441 381v-27zM441 341v-67 71zM441 345v-71h0zM441 273zM441 273zM441 405v-21zM441 405v-23zM441 381v-36zM441 382v-37 8zM441 354v-80 79zM441 353v-79h0zM441 273zM441 273zM441 405V274zM441 405V274h0zM441 273zM441 273zM441 405V274zM441 405V274h0zM441 273zM441 405V274zM441 405V274h0zM441 405V274zM441 406V274h0zM441 406V274zM441 407V274h0zM441 407V274zM441 408V274h0zM441 408V274zM441 408V274h0zM441 408V274zM442 409l-1-135h1zM442 409V274zM442 410V274h0zM442 410V274zM442 410V274h0zM442 410V274zM442 411V274h0zM442 411V274zM442 412V274h0zM442 412V274zM442 412V274h0zM442 412V274zM442 412V274h0zM442 412V274zM442 413V274h0zM442 413V274zM442 413V274h0zM442 413V274zM443 414l-1-140h1zM443 414V274zM443 414V274h0zM443 414V274zM443 415V274h0zM443 415V274zM443 415V274h0zM443 415V274zM443 415V274h0zM443 415V274zM443 416V274h0zM443 416V274zM444 416l-1-142h1zM444 416V274zM444 417V274h0zM444 417V274zM444 417V274h0zM444 417V274zM444 417V274h0zM444 417V274zM444 418V274h0zM444 418V274zM445 418l-1-144h1zM445 418V274zM445 418V274h0zM445 418V274zM445 419V274h0zM445 419V274zM446 419l-1-145h1zM446 419V274zM446 419V274h0zM446 419V274zM446 419V274h0zM446 419v-15zM446 419v-15h0zM446 401V286v112zM446 398V286v9zM446 419v-15zM446 419v-15h0zM446 398V295v100zM446 395V295v9zM446 419v-15zM446 419v-15 1zM446 395v-91 89zM446 393v-89 9zM446 419v-14zM446 419v-14h0zM446 393v-80 77zM446 390v-77 9zM446 419v-14zM446 419v-14h0zM446 390v-68 66zM446 388v-66 9zM446 419v-14zM446 419v-14h0zM446 388v-57zM446 388v-57 1zM446 419v-14zM446 419v-14h0zM446 388v-56 53zM446 385v-53 9zM446 419v-14zM446 419v-14h0zM446 385v-44 41zM446 382v-41 9zM446 419v-14zM446 419v-14h0zM446 382v-32 30zM446 380v-30 9zM446 419v-14zM446 419v-14h0zM446 380v-21 17zM446 376v-17 12zM446 419v-14zM446 419v-14 1zM446 376v-5zM446 376v-5h0zM446 419v-13zM446 420v-14 1zM446 376v-5zM446 376v-5h0zM446 420v-13zM446 420v-13 1zM446 376v-5zM446 376v-5h0zM446 420v-12zM446 420v-12 1zM446 376v-5zM446 376v-5h0zM446 420v-11zM446 420v-11h0zM446 376v-5zM446 376v-5h0zM446 420v-11zM447 420l-1-11 1 1zM446 376v-5zM447 376l-1-5h1zM447 420v-10zM447 420v-10 1zM447 376v-5zM447 376v-5h0zM447 420v-9zM447 420v-9h0zM447 376v-5zM447 376v-5h0zM447 420v-9zM447 421v-10h0zM447 376v-5zM447 376v-5h0zM447 421v-10zM447 421v-10 1zM447 376v-5zM447 376v-5h0zM447 421v-9zM447 421v-9h0zM447 376v-5zM447 376v-5h0zM447 421v-9zM448 421l-1-9h1zM447 376v-5zM448 376l-1-5h1zM448 421v-9zM448 421v-9 1zM448 376v-5zM448 376v-5h0zM448 421v-8zM448 421v-8h0zM448 376v-5zM448 376v-5h0zM448 421v-8zM448 421v-8h0zM448 376v-5zM448 376v-5h0zM448 421v-8zM448 421v-8 1zM448 376v-5zM448 376v-5h0zM448 421v-7zM449 422l-1-8h1zM448 376v-5zM449 376l-1-5h1zM449 422v-8zM449 422v-8h0zM449 376v-5zM449 376v-5h0zM449 422v-8zM449 422v-8h0zM449 376v-5zM449 376v-5h0zM449 422v-8zM449 422v-8 1zM449 376v-5zM449 376v-5h0zM449 422v-7zM449 422v-7h0zM449 376v-5zM449 376v-5h0zM449 422v-7zM450 422l-1-7h1zM449 376v-5zM450 376l-1-5h1zM450 422v-7zM450 422v-7h0zM450 376v-5zM450 376v-5h0zM450 422v-7zM450 422v-7h0zM450 376v-5zM450 376v-5h0zM450 422v-7zM450 422v-7h0zM450 376v-5zM450 376v-5h0zM450 422v-7zM451 422l-1-7 1 1zM450 376v-5zM451 376l-1-5h1zM451 422v-6zM451 423v-7h0zM451 376v-5zM451 376v-5h0zM451 423v-7zM451 423v-7h0zM451 376v-5zM451 376v-5h0zM451 423v-7zM451 423v-7h0zM451 376v-5zM451 376v-5h0zM451 423v-7zM452 423l-1-7h1zM451 376v-5zM452 376l-1-5h1zM452 423v-7zM452 423v-7h0zM452 376v-5zM452 376v-5h0zM452 423v-7zM452 423v-7h0zM452 376v-5zM452 376v-5h0zM452 423v-7zM452 423v-7h0zM452 376v-5zM452 376v-5h0zM452 423v-7zM453 423l-1-7h1zM452 376v-5zM453 376l-1-5h1zM453 423v-7zM453 423v-7h0zM453 376v-5zM453 376v-5h0zM453 423v-7zM453 423v-7h0zM453 376v-5zM453 376v-5h0zM453 423v-7zM453 423v-7h0zM453 376v-5zM453 376v-5h0zM453 423v-7zM454 423l-1-7h1zM453 376v-5zM454 376l-1-5h1zM454 423v-7zM454 423v-7 1zM454 376v-5zM454 376v-5h0zM454 423v-6zM454 423v-6h0zM454 376v-5zM454 376v-5h0zM454 423v-6zM454 423v-6h0zM454 376v-5zM454 376v-5h0zM454 423v-6zM454 423v-6h0zM454 376v-5zM454 376v-5h0zM454 423v-6zM455 423l-1-6h1zM454 376v-5zM455 376l-1-5h1zM455 423v-6zM455 423v-6h0zM455 376v-5zM455 376v-5h0zM455 423v-6zM455 423v-6h0zM455 376v-5zM455 376v-5h0zM455 423v-6zM455 423v-6h0zM455 376v-5zM455 376v-5h0zM455 423v-6zM456 423l-1-6h1zM455 376v-5zM456 376l-1-5h1zM456 423v-6zM456 423v-6h0zM456 376v-5zM456 376v-5h0zM456 423v-6zM456 423v-6h0zM456 376v-5zM456 376v-5h0zM456 423v-6zM456 422v-5h0zM456 376v-5zM456 376v-5h0zM456 422v-5zM456 422v-5h0zM456 376v-5zM456 376v-5h0zM456 422v-5zM456 421v-4h0zM456 376v-5zM456 376v-5h0zM456 421v-4zM456 421v-4h0zM456 376v-5zM456 376v-5h0zM456 421v-4 3zM456 420v-3h0zM456 376v-5zM456 376v-5h0zM456 420v-3zM456 419v-2h0zM456 376v-5zM456 376v-5h0zM456 419v-2zM456 419v-2h0zM456 376v-5zM456 376v-5h0zM456 419v-2zM456 418v-1h0zM456 376v-5zM456 376v-5h0zM456 418v-1zM456 417zM456 376v-5zM456 376v-5h0zM456 417zM456 376v-5zM456 376v-5h0zM456 376v-5zM456 376v-5h0z"/></g><g fill="none" stroke="currentColor" clip-path="url(#clipId0)"><path d="M523 306h4v38l1 2 1 2 6 4h4l2-1 1-2 1-6v-37h4v44l-2 4-2 3-2 1h-6l-2-1-3-3-2-2v-1h-1v7h-4v-52"/></g><g fill="currentColor" stroke="currentColor" clip-path="url(#clipId0)"><path d="M523 358v-4zM523 358v-4zM523 358v-8zM523 358v-8zM523 358v-11zM523 358v-11zM523 358v-13zM523 358v-13zM523 358v-16zM523 358v-16zM523 358v-18zM523 358v-18zM523 358v-18h0zM523 331zv-2zM523 358v-18zM523 358v-19zM523 331v-3zM523 332v-5zM523 358v-19zM523 358v-19h0zM523 332v-5zM523 332v-5h0zM523 358v-19zM523 358v-21zM523 332v-5 7zM523 334v-8zM523 358v-21zM523 358v-21h0zM523 334v-8zM523 334v-9zM523 358v-21zM523 358v-24zM523 334v-9zM523 334v-9h0zM523 358v-33zM523 358v-35zM523 358v-35zM523 358v-37zM523 358v-37zM523 358v-40zM523 358v-40zM523 358v-42zM523 358v-42zM523 358v-45zM523 358v-45zM523 358v-47zM523 358v-47zM523 358v-49zM523 358v-49zM523 358v-51zM523 358v-51zM523 358v-52zM523 358v-52zM523 358v-52h0zM523 358v-52zM523 358v-52h0zM523 358v-52zM523 358v-52h0zM523 358v-52zM523 358v-52h0zM523 358v-52zM523 358v-52h0zM523 358v-52zM523 358v-52h0zM523 358v-52zM523 358v-52h0zM523 358v-52zM523 358v-52h0zM523 358v-52zM523 358v-52h0zM523 358v-52zM523 358v-52h0zM523 358v-52zM523 358v-52h0zM523 358v-52zM523 358v-52h0zM523 358v-52zM523 358v-52h0zM523 358v-52zM523 358v-52h0zM523 358v-52zM523 358v-52h0zM523 358v-52zM523 358v-52h0zM523 358v-52zM523 358v-52h0zM523 358v-52zM523 358v-52h0zM523 358v-52zM523 358v-52h0zM523 358v-52zM524 358l-1-52h1zM524 358v-52zM524 358v-52h0zM524 358v-52zM525 358l-1-52h1zM525 358v-52zM525 358v-52h0zM525 358v-52zM526 358l-1-52h1zM526 358v-52zM526 358v-52h0zM526 358v-52zM527 358l-1-52h1zM527 358v-52zM527 358v-52h0zM527 358v-52zM527 358v-52h0zM527 358v-13zM527 358v-13h0zM527 345v-39zM527 345v-39h0zM527 358v-3zM527 358v-3 1zM527 355v-10zM527 355v-10h0zM527 345v-39zM527 345v-39h0zM527 358v-2zM527 358v-2h0zM527 355v-10zM527 354v-9h0zM527 345v-39zM527 345v-39h0zM527 358v-2zM527 358v-2 1zM527 354v-9zM527 354v-9h0zM527 345v-39zM527 345v-39h0zM527 358v-1zM527 358v-1h0zM527 354v-9zM527 354v-9h0zM527 345v-39zM527 345v-39h0zM527 358v-1zM527 358v-1zM527 354v-9 8zM527 353v-8h0zM527 345v-39zM527 345v-39h0zM527 353v-8zM527 353v-8h0zM527 342v-36 35zM527 341v-35h0zM527 353v-8zM527 352v-7h0zM527 341v-35 32zM527 338v-32 1zM527 352v-7zM527 352v-7h0zM527 338v-31 27zM527 334v-27 2zM527 352v-7zM527 352v-7h0zM527 334v-25 24zM527 333v-24h0zM527 352v-7zM527 352v-7h0zM527 333v-24 22zM527 331v-22h0zM527 352v-7zM527 352v-7h0zM527 331v-22 21zM527 330v-21 2zM527 352v-7zM527 352v-7h0zM527 330v-19 16zM527 327v-16 2zM527 352v-7zM527 352v-7h0zM527 327v-14 12zM527 325v-12 2zM527 352v-7zM527 352v-7h0zM527 325v-10 7zM527 322v-7 2zM527 352v-7zM527 352v-7h0zM527 322v-5zM527 352v-7zM527 351v-6h0zM527 351v-6zM527 351v-6h0zM527 351v-6zM527 351v-6h0zM527 351v-6zM528 351l-1-6 1 1zM528 351v-5zM528 351v-5h0zM528 351v-5zM528 351v-5h0zM528 351v-5zM528 351v-5h0zM528 351v-5zM528 351v-5h0zM528 351v-5zM528 351v-5h0zM528 351v-5zM528 352v-6h0zM528 352v-6zM528 352v-6 1zM528 352v-5zM528 352v-5h0zM528 352v-5zM528 352v-5h0zM528 352v-5zM529 353l-1-6h1zM529 353v-6zM529 353v-6h0zM529 353v-6zM529 353v-6h0zM529 353v-6zM529 353v-6 1zM529 353v-5zM529 353v-5h0zM529 353v-5zM529 354v-6h0zM529 354v-6zM530 354l-1-6h1zM530 354v-6zM530 354v-6h0zM530 354v-6zM530 354v-6 1zM530 354v-5zM530 354v-5h0zM530 354v-5zM531 355l-1-6h1zM531 355v-6zM531 355v-6h0zM531 355v-6zM531 355v-6h0zM531 355v-6zM531 355v-6 1zM531 355v-5zM531 356v-6h0zM531 356v-6zM531 356v-6h0zM531 356v-6zM532 356l-1-6h1zM532 356v-6zM532 356v-6h0zM532 356v-6zM532 356v-6 1zM532 356v-5zM532 356v-5h0zM532 356v-5zM533 357l-1-6h1zM533 357v-6zM533 357v-6h0zM533 357v-6zM533 357v-6h0zM533 357v-6zM533 357v-6h0zM533 357v-6zM534 357l-1-6h1zM534 357v-6zM534 357v-6h0zM534 357v-6zM534 357v-6h0zM534 357v-6zM534 357v-6h0zM534 357v-6zM535 358l-1-7 1 1zM535 358v-6zM535 358v-6h0zM535 358v-6zM535 358v-6h0zM535 358v-6zM535 358v-6h0zM535 358v-6zM536 358l-1-6h1zM536 358v-6zM536 358v-6h0zM536 358v-6zM537 358l-1-6h1zM537 358v-6zM537 358v-6h0zM537 358v-6zM537 358v-6h0zM537 358v-6zM537 358v-6h0zM537 358v-6zM537 358v-6h0zM537 358v-6zM538 358l-1-6h1zM538 358v-6zM538 358v-6h0zM538 358v-6zM538 358v-6h0zM538 358v-6zM538 358v-6h0zM538 358v-6zM538 358v-6h0zM538 358v-6zM539 358l-1-6h1zM539 358v-6zM539 358v-6h0zM539 358v-6zM539 358v-6h0zM539 358v-6zM539 358v-6h0zM539 358v-6zM539 358v-6h0zM539 358v-6zM539 358v-6h0zM539 358v-6zM540 358l-1-6h1zM540 358v-6zM540 358v-6h0zM540 358v-6zM540 358v-6h0zM540 358v-6zM540 358v-6h0zM540 358v-6zM540 358v-6h0zM540 358v-6zM540 358v-6h0zM540 358v-6zM541 358l-1-6h1zM541 358v-6zM541 358v-6h0zM541 358v-6zM541 358v-7zM541 358v-7zM541 358v-7h0zM541 358v-7zM541 358v-7h0zM541 358v-7zM541 358v-7h0zM541 358v-7zM541 358v-7h0zM541 358v-7zM541 358v-7h0zM541 358v-7zM542 358l-1-7h1zM542 358v-7zM542 358v-8zM542 358v-8zM542 358v-8h0zM542 358v-8zM542 358v-8h0zM542 358v-8zM542 358v-8h0zM542 358v-8zM542 358v-8h0zM542 358v-8zM542 358v-9zM542 358v-9zM542 358v-9h0zM542 358v-9zM542 358v-9h0zM542 358v-9zM542 358v-10zM542 358v-10zM542 358v-10h0zM542 358v-10zM543 357l-1-9 1-1zM543 357v-10zM543 357v-10h0zM543 357v-10zM543 357v-11zM543 357v-11zM543 357v-11h0zM543 357v-11zM543 357v-11h0zM543 357v-11zM543 357v-11h0zM543 327v-7zM543 357v-11zM543 357v-11h0zM543 327v-7zM543 327v-7h0zM543 357v-11zM543 357v-11h0zM543 327v-7 8zM543 328v-9zM543 357v-11zM543 357v-11h0zM543 342zM543 328v-9 12zM543 331v-15zM543 357v-11zM543 357v-11h0zM543 342zM543 342zM543 331v-15zM543 331v-15h0zM543 357v-11zM543 357v-11h0zM543 342zM543 342zM543 331v-15 18zM543 334v-21zM543 357v-11zM543 357v-11h0zM543 342zM543 342zh0zM543 334v-21zM543 334v-21h0zM543 357v-11zM543 357v-11h0zM543 342v-1zM543 342v-1h0zM543 334v-21zM543 334v-22zM543 357v-11zM543 357v-11h0zM543 342v-1zM543 342v-2zM543 334v-22zM543 335v-23h0zM543 357v-11zM543 357v-11h0zM543 342v-2zM543 342v-4zM543 335v-23 26zM543 338v-29zM543 357v-11zM543 357v-11h0zM543 342v-4zM543 342v-4h0zM543 338v-29zM543 338v-29h0zM543 357v-11zM543 357v-12zM543 342v-33zM543 342v-33h0zM543 357v-12zM543 357v-12h0zM543 342v-33zM543 343v-35zM543 357v-12zM543 357v-12h0zM543 343v-35zM543 343v-36zM543 357v-12zM543 357v-12h0zM543 343v-36zM543 343v-36h0zM543 357v-12zM543 357v-12h0zM543 343v-36zM543 343v-37zM543 357v-12zM543 357v-12h0zM543 343v-37zM543 343v-37h0zM543 357v-12zM543 357v-12h0zM543 343v-37zM543 344v-38h0zM543 357v-12zM543 357v-12h0zM543 344v-38zM543 344v-38h0zM543 357v-12zM543 357v-12h0zM543 344v-38zM543 344v-38h0zM543 357v-12zM543 357v-12h0zM543 344v-38zM543 345v-39h0zM543 357v-51zM543 357v-51h0zM543 357v-51zM543 357v-51h0zM543 357v-51zM543 357v-51h0zM543 357v-51zM544 357l-1-51h1zM544 357v-51zM544 356v-50h0zM544 356v-50zM544 356v-50h0zM544 356v-50zM544 356v-50h0zM544 356v-50zM544 355v-49h0zM544 355v-49zM545 355l-1-49h1zM545 355v-49zM545 355v-49h0zM545 355v-49zM545 354v-48h0zM545 354v-48zM545 354v-48h0zM545 354v-48zM545 354v-48h0zM545 354v-48zM546 353l-1-47h1zM546 353v-47zM546 353v-47h0zM546 353v-47zM546 353v-47h0zM546 353v-47zM546 352v-46h0zM546 352v-46zM546 351v-45h0zM546 351v-45zM546 351v-45h0zM546 351v-45l1 44z"/><path d="m547 350-1-44h1zM547 350v-44 43zM547 349v-43h0zM547 349v-43zM547 349v-43h0zM547 349v-43 42zM547 348v-42h0zM547 348v-42 41zM547 347v-41h0zM547 347v-41 39zM547 345v-39h0zM547 345v-39zM547 345v-39h0zM547 345v-39zM547 345v-39 3zM547 345v-36zM547 345v-36 4zM547 345v-32zM547 345v-32 4zM547 345v-28zM547 345v-28 3zM547 345v-6zM547 345v-6h0zM547 339v-19zM547 339v-19h0zM547 345v-6zM547 345v-6 1zM547 339v-19 16zM547 336v-16 4zM547 345v-5zM547 345v-5h0zM547 336v-12zM547 335v-11h0zM547 345v-5zM547 344v-4h0zM547 335v-11 8zM547 332v-8 4zM547 344v-4zM547 344v-4h0zM547 332v-4h0zM547 344v-4zM547 344v-4 2zM547 344v-2zM547 344v-2 1zM547 344v-1z"/></g><g fill="none" stroke="currentColor" clip-path="url(#clipId0)"><path d="m582 321-2-6-1-4-2-3-4-3-4-1h-4l-3 3-4 6-2 4-1 6-1 7v5l1 7 2 6 4 6 3 3 5 2 4-2 4-3 4-7 1-7 1-10v-5z"/><path d="m578 338-2 7-1 3-1 1-2 2-3 1-4-1-4-6-2-10v-10l2-6 3-7 2-1 2-1 4 1 2 3 2 3 3 10z"/></g><g fill="currentColor" stroke="currentColor" clip-path="url(#clipId0)"><path d="M554 332v-2zM554 332v-2 4zM554 334v-5zM554 334v-5zM554 334v-6zM554 334v-6zM554 335v-8zM554 335v-8zM554 335v-8h0zM554 335v-8zM554 336v-10zM554 336v-10zM555 336l-1-10h1zM555 336v-10 11zM555 337v-13zM555 337v-13zM555 337v-13h0zM555 337v-13 15zM555 339v-16zM555 339v-16zM555 339v-16h0zM555 339v-16zM555 340v-18zM555 340v-18zM555 340v-18h0zM555 340v-18 19zM555 341v-20zM555 341v-20zM555 341v-20h0zM555 341v-20l1 21z"/><path d="m556 342-1-21 1-1zM556 342v-22zM556 343v-23h0zM556 343v-23zM556 343v-24zM556 343v-24zM556 344v-26zM556 344v-26zM556 344v-26h0zM556 344v-26 27zM556 345v-28zM556 345v-28zM556 345v-28h0zM556 345v-28zM557 346l-1-29 1-1zM557 346v-30zM557 347v-31h0zM557 347v-31zM557 347v-31h0zM557 347v-31zM557 347v-32zM557 347v-32zM557 348v-33h0zM557 348v-33zM557 348v-34zM557 348v-34zM558 348l-1-34h1zM558 348v-34 35zM558 349v-36zM558 349v-36zM558 349v-36h0zM558 349v-36zM558 350v-38zM558 350v-38zM558 350v-38h0zM558 350v-38zM559 351l-1-39h1zM559 351v-39zM559 351v-40zM559 351v-40zM559 351v-40h0zM559 351v-40zM559 352v-41h0zM559 352v-41zM559 352v-42zM559 352v-42zM560 352l-1-42h1zM560 352v-42zM560 353v-44zM560 353v-44zM560 353v-44h0zM560 353v-44zM560 354v-45h0zM560 354v-45zM561 354l-1-45 1-1zM561 354v-46zM561 354v-46h0zM561 354v-46zM561 355v-47h0zM561 355v-47zM561 355v-48zM561 355v-48zM562 355l-1-48h1zM562 355v-48zM562 355v-48h0zM562 355v-48zM562 355v-48h0zM562 355v-48zM562 356v-50zM562 356v-50zM563 356l-1-50h1zM563 356v-50zM563 356v-50h0zM563 356v-50zM563 356v-50h0zM563 356v-50zM563 357v-51h0zM563 357v-51zM564 357l-1-51 1-1zM564 357v-52zM564 357v-52h0zM564 357v-52zM564 357v-52h0zM564 357v-52zM564 357v-52h0zM564 357v-52zM565 358l-1-53h1zM565 358v-53zM565 358v-53h0zM565 358v-53zM566 358l-1-53 1-1zM566 358v-54zM566 358v-54h0zM566 358v-54zM566 358v-54h0zM566 358v-54zM566 358v-54h0zM566 358v-54zM567 358l-1-54h1zM567 358v-54zM567 358v-54h0zM567 358v-54zM567 358v-54h0zM567 358v-54zM567 359v-55h0zM567 359v-55zM568 359l-1-55h1zM568 359v-55zM568 359v-55h0zM568 359v-55zM568 359v-55h0zM568 359v-55zM568 359v-55h0zM568 359v-55zM569 359l-1-55h1zM569 359v-55zM569 359v-55h0zM569 359v-55zM569 359v-55h0zM569 359v-55zM570 359l-1-55h1zM570 359v-55zM570 358v-54h0zM570 358v-54zM570 358v-54h0zM570 358v-54zM571 358l-1-54h1zM571 358v-54zM571 358v-54h0zM571 358v-54zM571 358v-54h0zM571 358v-54zM572 358l-1-54h1zM572 358v-54zM572 358v-54h0zM572 358v-54zM572 358v-54h0zM572 358v-54zM572 358v-54h0zM572 358v-54zM573 358l-1-54 1 1zM573 358v-53zM573 357v-52h0zM573 357v-52zM573 357v-52h0zM573 357v-52zM573 357v-52h0zM573 357v-52zM574 357l-1-52h1zM574 357v-52zM574 357v-52h0zM574 357v-52zM574 356v-51 1zM574 356v-50zM574 356v-50h0zM574 356v-50zM575 356l-1-50h1zM575 356v-50zM575 356v-50 1zM575 356v-49zM576 355l-1-48h1zM576 355v-48zM576 355v-48h0zM576 355v-48zM576 355v-48h0zM576 355v-48zM576 354v-47 1zM576 354v-46zM577 354l-1-46h1zM577 354v-46zM577 354v-46 1zM577 354v-45zM577 354v-45h0zM577 354v-45l1 44z"/><path d="m578 353-1-44h1zM578 353v-44zM578 353v-44h0zM578 353v-44zM578 352v-43 1zM578 352v-42zM578 352v-42h0zM578 352v-42zM578 352v-42h0zM578 352v-42zM578 352v-42 1zM578 352v-41zM579 351l-1-40h1zM579 351v-40zM579 351v-40h0zM579 351v-40 39zM579 350v-39 1zM579 350v-38zM579 350v-38 1zM579 350v-37l1 36z"/><path d="m580 349-1-36h1zM580 349v-36zM580 349v-36 1zM580 349v-35 34zM580 348v-34h0zM580 348v-34zM580 347v-33 1zM580 347v-32zM581 347l-1-32h1zM581 347v-32zM581 346v-31 1zM581 346v-30zM581 346v-30h0zM581 346v-30zM581 345v-29 1zM581 345v-28zM581 345v-28 1zM581 345v-27zM581 344v-26h0zM581 344v-26zM582 344l-1-26 1 1zM582 344v-25 24zM582 343v-24h0zM582 343v-24zM582 342v-23 1zM582 342v-22zM582 342v-22h0zM582 342v-22zM582 342v-22 1zM582 342v-21 20zM582 341v-20h0zM582 341v-20zM582 340v-19 1zM582 340v-18zM583 339l-1-17 1 1zM583 339v-16zM583 338v-15 1zM583 338v-14zM583 337v-13 1zM583 337v-12 11zM583 336v-11 1zM583 336v-10 9zM583 335v-9 1zM583 335v-8 7zM583 334v-7 2zM583 334v-5 3zM583 332v-3h0zM583 332v-3z"/></g><g fill="none" stroke="currentColor" clip-path="url(#clipId0)"><path d="M510 282v24h-1l-7 2-5 4-5 7-2 3-1 3v3l-1 4 2 10 3 6 1 2 4 3 4 3 3 1 5 1h4v-75z"/><path d="m510 352-7-2-4-3-3-3-2-4-1-5v-6l1-4 2-4 2-2 2-3 4-2 4-1 1-1 1 1z"/></g><g fill="currentColor" stroke="currentColor" clip-path="url(#clipId0)"><path d="M488 333zv-1zM488 333v-1 3zM488 335v-4zM488 335v-4zM488 335v-5zM488 335v-5zM489 336l-1-6 1-1zM489 336v-7zM489 336v-7h0zM489 336v-7 8zM489 337v-9zM489 337v-9zM489 338v-11zM489 338v-11zM489 339v-13zM489 339v-13zM489 339v-13h0zM489 339v-13zM489 340v-15zM489 340v-15zM489 340v-16zM489 340v-16l1 17z"/><path d="m490 341-1-17 1-1zM490 341v-18zM490 341v-18h0zM490 341v-18zM490 342v-19h0zM490 342v-19zM490 343v-21zM490 343v-21zM491 344l-1-22 1-1zM491 344v-23zM491 344v-24zM491 344v-24l1 25z"/><path d="m492 345-1-25 1-1zM492 345v-26zM492 346v-27h0zM492 346v-27zM492 347v-29zM492 347v-29zM492 347v-29h0zM492 347v-29zM493 348l-1-30 1-1zM493 348v-31zM493 348v-32zM493 348v-32zM493 349v-33h0zM493 349v-33zM494 349l-1-33h1zM494 349v-33zM494 349v-34zM494 349v-34zM495 350l-1-35h1zM495 350v-35zM495 350v-35h0zM495 350v-35zM495 351v-37zM495 351v-37zM496 351l-1-37h1zM496 351v-37zM496 351v-38zM496 351v-38zM496 352v-39h0zM496 352v-39zM497 352l-1-39 1-1zM497 352v-40zM497 353v-41h0zM497 353v-41zM497 353v-41h0zM497 353v-41zM498 354l-1-42 1-1zM498 354v-43zM498 354v-43h0zM498 354v-43zM499 354l-1-43h1zM499 354v-43zM499 355v-45zM499 355v-45zM499 355v-45h0zM499 355v-45zM500 355l-1-45h1zM500 355v-45zM500 355v-46zM500 355v-46zM501 355l-1-46h1zM501 355v-46zM502 356l-1-47h1zM502 356v-47zM502 356v-47h0zM502 356v-47zM503 356l-1-47 1-1zM503 356v-48zM503 357v-49h0zM503 357v-49zM504 357l-1-49h1zM504 357v-49zM504 357v-49h0zM504 357v-49l1 50z"/><path d="m505 358-1-50 1-1zM505 358v-51zM505 358v-51h0zM505 358v-51l1 51z"/><path d="m506 358-1-51h1zM506 358v-51zM506 358v-51h0zM506 358v-51zM507 358l-1-51h1zM507 358v-51zM508 358l-1-51h1zM508 358v-51zM508 358v-51h0zM508 358v-51zM508 358v-52zM508 358v-52zM509 358l-1-52h1zM509 358v-52zM509 358v-52h0zM509 358v-52zM510 358l-1-52h1zM510 358v-52zM510 358v-52h0zM510 292zv-3zM510 358v-52zM510 358v-52h0zM510 292v-3 5zM510 294v-6zM510 358v-52zM510 358v-52h0zM510 294v-6 7zM510 295v-8zM510 358v-52zM510 358v-52h0zM510 295v-8 10zM510 297v-12zM510 358v-52zM510 358v-52h0zM510 297v-12zM510 298v-14zM510 358v-52zM510 358v-52h0zM510 298v-14 15zM510 299v-15h0zM510 358v-52zM510 358v-52h0zM510 299v-15 18zM510 302v-19zM510 358v-52zM510 358v-52h0zM510 302v-19 21zM510 304v-22zM510 358v-76zM510 358v-76h0zM510 358v-76zM510 358v-76h0zM510 358v-76zM510 358v-76h0zM510 358v-76zM511 358l-1-76h1zM511 358v-76zM511 358v-76h0zM511 358v-76zM511 358v-76h0zM511 358v-76zM512 358l-1-76h1zM512 358v-76zM512 358v-76h0zM512 358v-76zM512 358v-76h0zM512 358v-76zM513 358l-1-76h1zM513 358v-76zM513 358v-76h0zM513 358v-76zM513 358v-76h0zM513 358v-76zM513 358v-76h0zM513 358v-76zM514 358l-1-76h1zM514 358v-76zM514 358v-76h0zM514 358v-76zM514 358v-76h0zM514 358v-30zM514 358v-30 1zM514 328v-46 38zM514 320v-38h0zM514 358v-29 28zM514 357v-28 7zM514 320v-38 32zM514 314v-32h0zM514 357v-21zM514 357v-21 1zM514 314v-32 30zM514 312v-30h0zM514 357v-20 18zM514 355v-18 7zM514 312v-30 24zM514 306v-24h0zM514 355v-11zM514 355v-11 1zM514 306v-24 23zM514 305v-23h0zM514 355v-10 7zM514 305v-23 16zM514 298v-16h0zM514 298v-16 15zM514 297v-15h0zM514 297v-15 7zM514 289v-7h0zM514 289v-7h0z"/></g><g fill="none" stroke="currentColor" clip-path="url(#clipId0)"><path d="m502 374 2-1 3-2 6-1h1v7h-4l-4 2-4 3-3 3-2 4-1 7 1 5 1 4 2 5 3 3 6 3 3 1h2v6h-2l-5-1-4-1-4-4-4-5-3-8v-13l1-4 2-5 3-5z"/></g><g fill="currentColor" stroke="currentColor" clip-path="url(#clipId0)"><path d="M492 398v-2zM492 398v-2zM492 398v-3zM492 398v-3zM492 399v-4h0zM492 399v-4zM492 400v-6zM492 400v-6zM492 400v-6h0zM492 400v-6zM492 401v-8zM492 401v-8zM492 401v-9zM492 401v-9 10zM492 402v-11zM492 402v-11zM492 402v-11h0zM492 402v-11 12zM492 403v-13zM492 403v-13zM493 404l-1-14h1zM493 404v-14zM493 404v-15zM493 404v-15 16zM493 405v-17zM493 405v-17zM493 406v-18h0zM493 406v-18zM493 406v-19zM493 406v-19zM493 407v-20h0zM493 407v-20zM493 407v-20h0zM493 407v-20zM493 408v-22zM493 408v-22zM494 408l-1-22h1zM494 408v-22zM494 409v-24zM494 409v-24zM494 409v-24h0zM494 409v-24zM494 409v-25zM494 409v-25zM494 410v-26h0zM494 410v-26zM494 410v-26h0zM494 410v-26zM495 411l-1-27 1-1zM495 411v-28zM495 411v-28h0zM495 411v-28zM495 411v-29zM495 411v-29zM495 412v-30h0zM495 412v-30zM495 412v-31zM495 412v-31zM495 412v-31h0zM495 412v-31zM496 413l-1-32h1zM496 413v-32zM496 413v-33zM496 413v-33zM496 414v-34h0zM496 414v-34zM496 414v-34h0zM496 414v-34zM496 414v-34h0zM496 414v-18zM496 414v-18 1zM496 396v-16zM496 396v-16h0zM496 414v-17zM496 414v-17 1zM496 396v-16 15zM496 395v-15h0zM496 414v-16zM496 414v-16h0zM496 395v-15zM496 395v-15h0zM496 414v-16zM496 414v-16 1zM496 395v-15 14zM496 394v-14h0zM496 414v-15zM496 414v-15h0zM496 394v-14zM496 394v-14h0zM496 414v-15zM497 414l-1-15 1 1zM496 394v-14l1 13z"/><path d="m497 393-1-13 1-1zM497 414v-14zM497 414v-14 1zM497 393v-14zM497 393v-14h0zM497 414v-13zM497 414v-13h0zM497 393v-14zM497 393v-14h0zM497 414v-13zM497 414v-13h0zM497 393v-14zM497 393v-14h0zM497 414v-13zM497 415v-14 1zM497 393v-14zM497 392v-13h0zM497 415v-13zM497 415v-13h0zM497 392v-13zM497 392v-13h0zM497 415v-13zM497 415v-13 1zM497 392v-13zM497 391v-12h0zM497 415v-12zM497 415v-12h0zM497 391v-12zM497 391v-12h0zM497 415v-12zM497 415v-12h0zM497 391v-12zM497 391v-12h0zM497 415v-12zM497 415v-12h0zM497 391v-12zM497 391v-12h0zM497 415v-12zM497 415v-12h0zM497 391v-12zM497 390v-11h0zM497 415v-12zM497 415v-12h0zM497 390v-11zM497 390v-11h0zM497 415v-12zM497 415v-12 1zM497 390v-11zM497 390v-12zM497 415v-11zM497 415v-11h0zM497 390v-12zM497 390v-12h0zM497 415v-11zM498 416l-1-12 1 1zM497 390v-12zM498 389l-1-11h1zM498 416v-11zM498 416v-11h0zM498 389v-11zM498 389v-11h0zM498 416v-11zM498 416v-11h0zM498 389v-11zM498 389v-11h0zM498 416v-11zM498 416v-11h0zM498 389v-11zM498 389v-11h0zM498 416v-11zM498 416v-11h0zM498 389v-11zM498 388v-10h0zM498 416v-11zM498 416v-11 1zM498 388v-10zM498 388v-11zM498 416v-10zM498 416v-10h0zM498 388v-11zM498 388v-11h0zM498 416v-10zM498 416v-10h0zM498 388v-11zM498 388v-11h0zM498 416v-10zM498 416v-10h0zM498 388v-11zM498 387v-10h0zM498 416v-10zM498 417v-11h0zM498 387v-10zM498 387v-10h0zM498 417v-11zM498 417v-11h0zM498 387v-10zM498 387v-10h0zM498 417v-11zM499 417l-1-11 1 1zM498 387v-10zM499 387l-1-10h1zM499 417v-10zM499 417v-10h0zM499 387v-10zM499 386v-9h0zM499 417v-10zM499 417v-10h0zM499 386v-9zM499 386v-9h0zM499 417v-10zM499 417v-10h0zM499 386v-9zM499 386v-9h0zM499 417v-10zM499 417v-10 1zM499 386v-9zM499 386v-9h0zM499 417v-9zM499 417v-9h0zM499 386v-9zM499 386v-10zM499 417v-9zM499 417v-9h0zM499 386v-10zM499 386v-10h0zM499 417v-9zM499 417v-9h0zM499 386v-10zM499 386v-10h0zM499 417v-9zM499 418v-10h0zM499 386v-10zM499 385v-9h0zM499 418v-10zM499 418v-10h0zM499 385v-9zM499 385v-9h0zM499 418v-10zM499 418v-10 1zM499 385v-9zM499 385v-9h0zM499 418v-9zM500 418l-1-9h1zM499 385v-9zM500 385l-1-9h1zM500 418v-9zM500 418v-9h0zM500 385v-9zM500 384v-8h0zM500 418v-9zM500 418v-9h0zM500 384v-8zM500 384v-8h0zM500 418v-9zM500 418v-9h0zM500 384v-8zM500 384v-9zM500 418v-9zM500 418v-9 1zM500 384v-9zM500 384v-9h0zM500 418v-8zM500 418v-8h0zM500 384v-9zM500 384v-9h0zM500 418v-8zM500 419v-9h0zM500 384v-9zM500 384v-9h0zM500 419v-9zM500 419v-9h0zM500 384v-9zM500 383v-8h0zM500 419v-9zM501 419l-1-9h1zM500 383v-8zM501 383l-1-8h1zM501 419v-9zM501 419v-9h0zM501 383v-8zM501 383v-8h0zM501 419v-9zM501 419v-9 1zM501 383v-8zM501 383v-8h0zM501 419v-8zM501 419v-8h0zM501 383v-8zM501 383v-9zM501 419v-8zM501 419v-8h0zM501 383v-9zM501 382v-8h0zM501 419v-8zM501 419v-8h0zM501 382v-8zM501 382v-8h0zM501 419v-8zM501 419v-8h0zM501 382v-8zM501 382v-8h0zM501 419v-8zM501 420v-9 1zM501 382v-8zM501 382v-8h0zM501 420v-8zM502 420l-1-8h1zM501 382v-8zM502 382l-1-8h1zM502 420v-8zM502 420v-8h0zM502 382v-8zM502 382v-8h0zM502 420v-8zM502 420v-8h0zM502 382v-8zM502 382v-8h0zM502 420v-8zM502 420v-8h0zM502 382v-8zM502 382v-8h0zM502 420v-8zM502 420v-8h0zM502 382v-8zM502 382v-8h0zM502 420v-8zM502 420v-8h0zM502 382v-8zM502 382v-8h0zM502 420v-8zM502 420v-8h0zM502 382v-8zM502 382v-8h0zM502 420v-8zM502 420v-8h0zM502 382v-8zM502 381v-7h0zM502 420v-8zM502 420v-8h0zM502 381v-7zM502 381v-7h0zM502 420v-8zM502 420v-8h0zM502 381v-7zM502 381v-7h0zM502 420v-8zM502 420v-8h0zM502 381v-7zM502 381v-7h0zM502 420v-8zM502 420v-8h0zM502 381v-7zM502 381v-7h0zM502 420v-8zM502 420v-8h0zM502 381v-7zM502 381v-7h0zM502 420v-8zM502 420v-8h0zM502 381v-7zM502 381v-7h0zM502 420v-8zM502 420v-8h0zM502 381v-7zM502 381v-7h0zM502 420v-8zM502 420v-8h0zM502 381v-7zM502 381v-7h0zM502 420v-8zM502 420v-8h0zM502 381v-7zM502 381v-7h0zM502 420v-8zM502 420v-8h0zM502 381v-7zM502 381v-7h0zM502 420v-8zM502 420v-8h0zM502 381v-7zM502 381v-7h0zM502 420v-8zM502 420v-8h0zM502 381v-7zM502 381v-7h0zM502 420v-8zM502 420v-8h0zM502 381v-7zM502 381v-7h0zM502 420v-8zM502 420v-8h0zM502 381v-7zM502 381v-7h0zM502 420v-8zM502 420v-8h0zM502 381v-7zM502 381v-7h0zM502 420v-8zM502 420v-8h0zM502 381v-7zM502 381v-7h0zM502 420v-8zM502 420v-8 1zM502 381v-7zM502 381v-8zM502 420v-7zM502 420v-7h0zM502 381v-8zM502 381v-8h0zM502 420v-7zM502 420v-7h0zM502 381v-8zM502 381v-8h0zM502 420v-7zM502 420v-7h0zM502 381v-8zM502 381v-8h0zM502 420v-7zM502 420v-7h0zM502 381v-8zM502 381v-8h0zM502 420v-7zM502 420v-7h0zM502 381v-8zM502 381v-8h0zM502 420v-7zM503 420l-1-7h1zM502 381v-8zM503 381l-1-8h1zM503 420v-7zM503 420v-7h0zM503 381v-8zM503 381v-8h0zM503 420v-7zM503 420v-7h0zM503 381v-8zM503 381v-8h0zM503 420v-7zM503 421v-8h0zM503 381v-8zM503 381v-8h0zM503 421v-8zM503 421v-8h0zM503 381v-8zM503 381v-8h0zM503 421v-8zM503 421v-8h0zM503 381v-8zM503 380v-7h0zM503 421v-8zM503 421v-8h0zM503 380v-7zM503 380v-7h0zM503 421v-8zM503 421v-8h0zM503 380v-7zM503 380v-7h0zM503 421v-8zM503 421v-8h0zM503 380v-7zM503 380v-7h0zM503 421v-8zM504 421l-1-8h1zM503 380v-7zM504 380l-1-7h1zM504 421v-8zM504 421v-8 1zM504 380v-7zM504 380v-7h0zM504 421v-7zM504 421v-7h0zM504 380v-7zM504 380v-7h0zM504 421v-7zM504 421v-7h0zM504 380v-7zM504 380v-7h0zM504 421v-7zM504 421v-7h0zM504 380v-7zM504 380v-8zM504 421v-7zM504 421v-7h0zM504 380v-8zM504 380v-8h0zM504 421v-7zM504 421v-7h0zM504 380v-8zM504 380v-8h0zM504 421v-7zM505 421l-1-7h1zM504 380v-8zM505 379l-1-7h1zM505 421v-7zM505 422v-8h0zM505 379v-7zM505 379v-7h0zM505 422v-8zM505 422v-8h0zM505 379v-7zM505 379v-7h0zM505 422v-8zM505 422v-8h0zM505 379v-7zM505 379v-7h0zM505 422v-8zM505 422v-8 1zM505 379v-7zM505 379v-7h0zM505 422v-7zM505 422v-7h0zM505 379v-7zM505 379v-7h0zM505 422v-7zM505 422v-7h0zM505 379v-7zM505 379v-7h0zM505 422v-7zM506 422l-1-7h1zM505 379v-7zM506 379l-1-7h1zM506 422v-7zM506 422v-7h0zM506 379v-7zM506 379v-7h0zM506 422v-7zM506 422v-7h0zM506 379v-7zM506 379v-7h0zM506 422v-7zM506 422v-7h0zM506 379v-7zM506 378v-7zM506 422v-7zM506 422v-7h0zM506 378v-7zM506 378v-7h0zM506 422v-7zM506 422v-7h0zM506 378v-7zM506 378v-7h0zM506 422v-7zM507 422l-1-7h1zM506 378v-7zM507 378l-1-7h1zM507 422v-7zM507 422v-7 1zM507 378v-7zM507 378v-7h0zM507 422v-6zM507 422v-6h0zM507 378v-7zM507 378v-7h0zM507 422v-6zM507 422v-6h0zM507 378v-7zM507 378v-7h0zM507 422v-6zM507 422v-6h0zM507 378v-7zM507 378v-7h0zM507 422v-6zM508 423l-1-7h1zM507 378v-7zM508 378l-1-7h1zM508 423v-7zM508 423v-7h0zM508 378v-7zM508 378v-7h0zM508 423v-7zM508 423v-7h0zM508 378v-7zM508 378v-7h0zM508 423v-7zM509 423l-1-7h1zM508 378v-7zM509 378l-1-7h1zM509 423v-7zM509 423v-7h0zM509 378v-7zM509 378v-7h0zM509 423v-7zM509 423v-7h0zM509 378v-7zM509 378v-7h0zM509 423v-7zM509 423v-7h0zM509 378v-7zM509 378v-7h0zM509 423v-7zM510 423l-1-7h1zM509 378v-7zM510 377l-1-6h1zM510 423v-7zM510 423v-7h0zM510 377v-6zM510 377v-6h0zM510 423v-7zM510 423v-7h0zM510 377v-6zM510 377v-6h0zM510 423v-7zM510 423v-7h0zM510 377v-6zM510 377v-6h0zM510 423v-7zM510 423v-7h0zM510 377v-6zM510 377v-6h0zM510 423v-7zM510 423v-7h0zM510 377v-6zM510 377v-6h0zM510 423v-7zM510 423v-7h0zM510 377v-6zM510 377v-6h0zM510 423v-7zM511 423l-1-7h1zM510 377v-6zM511 377l-1-6 1-1zM511 423v-7zM511 423v-7h0zM511 377v-7zM511 377v-7h0zM511 423v-7zM511 423v-7h0zM511 377v-7zM511 377v-7h0zM511 423v-7zM511 423v-7 1zM511 377v-7zM511 377v-7h0zM511 423v-6zM511 423v-6h0zM511 377v-7zM511 377v-7h0zM511 423v-6zM512 423l-1-6h1zM511 377v-7zM512 377l-1-7h1zM512 423v-6zM512 423v-6h0zM512 377v-7zM512 377v-7h0zM512 423v-6zM512 423v-6h0zM512 377v-7zM512 377v-7h0zM512 423v-6zM512 423v-6h0zM512 377v-7zM512 377v-7h0zM512 423v-6zM512 423v-6h0zM512 377v-7zM512 377v-7h0zM512 423v-6zM513 423l-1-6h1zM512 377v-7zM513 377l-1-7h1zM513 423v-6zM513 423v-6h0zM513 377v-7zM513 377v-7h0zM513 423v-6zM513 423v-6h0zM513 377v-7zM513 377v-7h0zM513 423v-6zM513 423v-6h0zM513 377v-7zM513 377v-7h0zM513 423v-6zM514 423l-1-6h1zM513 377v-7zM514 377l-1-7h1zM514 423v-6zM514 423v-6h0zM514 377v-7zM514 377v-7h0zM514 423v-6zM514 423v-6h0zM514 377v-7zM514 377v-7h0zM514 423v-6zM514 423v-6h0zM514 377v-7zM514 377v-7h0zM514 423v-6zM514 423v-6h0zM514 377v-4zM514 377v-4h0zM514 373v-3zM514 372v-2h0zM514 423v-6zM514 423v-6h0zM514 377v-4zM514 377v-4 1zM514 372v-2zM514 372v-2h0zM514 423v-6zM514 423v-6h0zM514 377v-3zM514 377v-3h0zM514 372v-2zM514 372v-2h0zM514 423v-6zM514 423v-6h0zM514 377v-3zM514 377v-3h0zM514 372v-2zM514 371zM514 423v-6zM514 423v-6h0zM514 377v-3zM514 377v-3 1zM514 371zM514 371zM514 423v-6zM514 423v-6h0zM514 377v-2zM514 377v-2h0zM514 371zM514 371zM514 423v-6zM514 423v-6h0zM514 377v-2zM514 377v-2 1zM514 371zM514 371zM514 423v-6zM514 423v-6h0zM514 377v-1zM514 377v-1zM514 371z"/></g><g fill="none" stroke="currentColor" clip-path="url(#clipId0)"><path d="m534 372 4-2 3 1 2 1 2 2 1 2 1 5v42h-4v-35l-1-7-2-4h-4l-3 1-4 3-1 2-1 2v38h-4v-52h4v7l1-1 1-2z"/></g><g fill="currentColor" stroke="currentColor" clip-path="url(#clipId0)"><path d="M523 423v-52zM523 423v-52h0zM523 423v-52zM524 423l-1-52h1zM524 423v-52zM524 423v-52h0zM524 423v-52zM525 423l-1-52h1zM525 423v-52zM525 423v-52h0zM525 423v-52zM526 423l-1-52h1zM526 423v-52zM526 423v-52h0zM526 423v-52zM527 423l-1-52h1zM527 423v-52zM527 423v-52h0zM527 423v-52zM527 423v-52h0zM527 423v-39zM527 423v-39h0zM527 384v-13zM527 384v-13h0zM527 423v-39zM527 423v-39h0zM527 384v-10zM527 384v-10 1zM527 374v-3zM527 373v-2h0zM527 423v-39zM527 423v-39h0zM527 384v-9zM527 384v-9h0zM527 373v-2zM527 373v-2h0zM527 423v-39zM527 423v-39h0zM527 384v-9zM527 384v-9h0zM527 373v-2zM527 372v-1h0zM527 423v-39zM527 423v-39h0zM527 384v-9zM527 384v-9h0zM527 372v-1zM527 372v-1h0zM527 423v-39zM527 423v-39h0zM527 384v-9zM527 384v-9 1zM527 372v-1zM527 372v-1h0zM527 423v-39zM527 423v-39h0zM527 384v-8zM527 384v-8h0zM527 372v-1zM527 371zM527 384v-8zM527 384v-8 1zM527 384v-7zM527 384v-7 1zM527 384v-6zM527 384v-6h0zM527 384v-6zM527 384v-6h0zM527 384v-6zM528 383l-1-5h1zM528 383v-5zM528 383v-5h0zM528 383v-5zM528 383v-5h0zM528 383v-5zM528 383v-5h0zM528 383v-5zM528 383v-5h0zM528 383v-5zM528 383v-5h0zM528 383v-5zM528 383v-5h0zM528 383v-5zM528 383v-6zM528 383v-6zM528 383v-6h0zM528 383v-6zM528 382v-5h0zM528 382v-5zM528 382v-5h0zM528 382v-5zM528 382v-5h0zM528 382v-5zM529 382l-1-5 1-1zM529 382v-6zM529 382v-6h0zM529 382v-6zM529 381v-5h0zM529 381v-5zM529 381v-6zM529 381v-6zM529 381v-6h0zM529 381v-6zM530 381l-1-6h1zM530 381v-6zM530 380v-5h0zM530 380v-5zM530 380v-5h0zM530 380v-5zM530 380v-6zM530 380v-6zM531 380l-1-6h1zM531 380v-6zM531 380v-6h0zM531 380v-6zM531 379v-5h0zM531 379v-5zM531 379v-6zM531 379v-6zM531 379v-6h0zM531 379v-6zM532 379l-1-6h1zM532 379v-6zM532 379v-6h0zM532 379v-6zM532 379v-6h0zM532 379v-6zM532 379v-6h0zM532 379v-6zM532 378v-6zM532 378v-6zM533 378l-1-6h1zM533 378v-6zM533 378v-6h0zM533 378v-6zM533 378v-6h0zM533 378v-6zM533 378v-6h0zM533 378v-6zM533 378v-6h0zM533 378v-6zM533 378v-6h0zM533 378v-6zM533 378v-6h0zM533 378v-6zM533 378v-6h0zM533 378v-6zM534 378l-1-6h1zM534 378v-6zM534 378v-6h0zM534 378v-6zM534 378v-6h0zM534 378v-6zM534 378v-6h0zM534 378v-6zM534 378v-6h0zM534 378v-6zM534 378v-6h0zM534 378v-6zM534 378v-6h0zM534 378v-6zM534 378v-6h0zM534 378v-6zM534 378v-6h0zM534 378v-6zM534 378v-6h0zM534 378v-6zM534 378v-6h0zM534 378v-6zM534 378v-6h0zM534 378v-6zM534 378v-6h0zM534 378v-6zM534 378v-6h0zM534 378v-6zM534 378v-6h0zM534 378v-6zM534 378v-6h0zM534 378v-6zM534 378v-6h0zM534 378v-6zM534 378v-6h0zM534 378v-6zM534 378v-6h0zM534 378v-6zM534 378v-6h0zM534 378v-6zM534 378v-6h0zM534 378v-6zM534 377v-6zM534 377v-6zM535 377l-1-6h1zM535 377v-6zM535 377v-6h0zM535 377v-6zM535 377v-6h0zM535 377v-6zM535 377v-6h0zM535 377v-6zM536 377l-1-6h1zM536 377v-6zM536 377v-6h0zM536 377v-6zM536 377v-6h0zM536 377v-6zM537 377l-1-6h1zM537 377v-6zM537 377v-6h0zM537 377v-6zM537 377v-6h0zM537 377v-6zM538 377l-1-6h1zM538 377v-6zM538 377v-6h0zM538 377v-6zM538 377v-7zM538 377v-7zM539 377l-1-7h1zM539 377v-7zM539 377v-7h0zM539 377v-7zM539 377v-7h0zM539 377v-7zM539 377v-7h0zM539 377v-7zM539 377v-7h0zM539 377v-7zM540 377l-1-7h1zM540 377v-7zM540 377v-7 1zM540 377v-6zM540 377v-6h0zM540 377v-6zM540 377v-6h0zM540 377v-6zM541 377l-1-6h1zM541 377v-6zM541 377v-6h0zM541 377v-6zM541 377v-6h0zM541 377v-6zM541 378v-7h0zM541 378v-7zM541 378v-7h0zM541 378v-7zM541 378v-7h0zM541 378v-7zM541 378v-7h0zM541 378v-7zM541 378v-7h0zM541 378v-7zM542 378l-1-7h1zM542 378v-7zM542 378v-7h0zM542 378v-7zM542 378v-7h0zM542 378v-7zM542 379v-8h0zM542 379v-8zM542 379v-8h0zM542 379v-8zM542 379v-8h0zM542 379v-8zM542 380v-9h0zM542 380v-9zM542 380v-9h0zM542 380v-9zM542 380v-9h0zM542 380v-9zM542 381v-10h0zM542 381v-10zM542 381v-10h0zM542 381v-10zM543 381l-1-10h1zM543 381v-10 11zM543 382v-11 1zM543 382v-10zM543 383v-11h0zM543 383v-11zM543 383v-11h0zM543 383v-11zM543 383v-11h0zM543 400zv-4zM543 383v-11zM543 383v-11h0zM543 400v-5 8zM543 403v-10zM543 383v-11zM543 383v-11h0zM543 403v-10 12zM543 405v-14zM543 383v-11zM543 384v-12h0zM543 405v-14 16zM543 407v-18zM543 384v-12zM543 384v-12h0zM543 407v-18 20zM543 409v-22zM543 384v-12zM543 384v-12h0zM543 409v-37 39zM543 411v-39h0zM543 411v-39zM543 411v-39h0zM543 411v-39 44zM543 416v-44h0zM543 416v-44 48zM543 420v-48h0zM543 420v-48 51zM543 423v-51h0zM543 423v-51zM543 423v-51h0zM543 423v-51zM543 423v-51h0zM543 423v-51zM543 423v-51h0zM543 423v-51zM544 423l-1-51h1zM544 423v-51zM544 423v-51h0zM544 423v-51zM544 423v-51h0zM544 423v-51zM544 423v-51 1zM544 423v-50zM544 423v-50h0zM544 423v-50zM544 423v-50h0zM544 423v-50zM544 423v-50h0zM544 423v-50zM545 423l-1-50 1 1zM545 423v-49zM545 423v-49h0zM545 423v-49zM545 423v-49h0zM545 423v-49zM545 423v-49h0zM545 423v-49zM545 423v-49 1zM545 423v-48zM545 423v-48h0zM545 423v-48zM546 423l-1-48h1zM546 423v-48zM546 423v-48 1zM546 423v-47zM546 423v-47h0zM546 423v-47zM546 423v-47 2zM546 423v-45zM546 423v-45h0zM546 423v-45zM546 423v-45 1zM546 423v-44zM547 423l-1-44 1 1zM547 423v-43zM547 423v-43h0zM547 423v-43zM547 423v-43 1zM547 423v-42zM547 423v-42 1zM547 423v-41zM547 423v-41 1zM547 423v-40zM547 423v-40 1zM547 423v-39 36zM547 420v-36h0zM547 420v-36zM547 420v-36h0zM547 420v-36 32zM547 416v-32h0zM547 416v-32 28zM547 412v-28 1zM547 412v-24zM547 412v-24h0zM547 388v-3zM547 388v-3h0zM547 412v-24 20zM547 408v-20 4zM547 388v-3 2zM547 387v-2h0zM547 408v-16zM547 408v-16h0zM547 387v-2zM547 387v-2h0zM547 408v-16 12zM547 404v-12 4zM547 387v-2zM547 386v-1h0zM547 404v-8zM547 404v-8h0zM547 386v-1zM547 386v-1h0zM547 404v-8 4zM547 386v-1zM547 386v-1h0zM547 386v-1h0z"/></g><g fill="none" stroke="currentColor" clip-path="url(#clipId0)"><path d="m474 414-4-5-2-4-2-9 1-2h21v-2l-1-8-1-5-4-5-4-4-3-1-3 1-4 3-2 3-3 9-1 8v7l1 3 2 8 3 5 5 4 5 3h6v-6l-3-1-4-1z"/><path d="m469 380 3-4 4-1 3 2 2 4 2 5 1 3h-18l1-3z"/></g><g fill="currentColor" stroke="currentColor" clip-path="url(#clipId0)"><path d="M462 397v-3zM462 397v-3zM462 397v-3h0zM462 397v-3zM462 398v-5zM462 398v-5zM462 398v-5h0zM462 398v-5zM462 399v-8zM462 399v-8zM462 399v-8h0zM462 399v-8zM462 400v-10zM462 400v-10zM462 400v-10h0zM462 400v-10zM462 400v-10h0zM462 400v-10zM462 401v-12zM462 401v-12zM462 401v-12h0zM462 401v-12zM462 402v-14zM462 402v-14zM462 402v-14h0zM462 402v-14zM462 402v-15zM462 402v-15zM463 403l-1-16h1zM463 403v-16zM463 403v-16h0zM463 403v-16zM463 404v-18zM463 404v-18zM463 404v-18h0zM463 404v-18zM463 404v-19zM463 404v-19 20zM463 405v-20h0zM463 405v-20zM463 405v-20h0zM463 405v-20 21zM463 406v-22zM463 406v-22zM463 406v-22h0zM463 406v-22zM463 407v-24zM463 407v-24zM464 407l-1-24h1zM464 407v-24zM464 408v-26zM464 408v-26zM464 408v-27zM464 408v-27zM464 409v-28h0zM464 409v-28zM464 409v-29zM464 409v-29zM465 410l-1-30h1zM465 410v-30zM465 410v-31zM465 410v-31 32zM465 411v-33zM465 411v-33zM465 411v-33h0zM465 411v-33zM465 412v-35zM465 412v-35zM466 412l-1-35h1zM466 412v-35zM466 413v-37zM466 413v-37zM466 413v-37h0zM466 413v-37zM466 414v-38h0zM466 414v-38zM466 414v-39zM466 414v-19zM466 414v-19h0zM466 395v-20zM466 394v-19h0zM466 414v-19zM466 414v-19 1zM466 394v-19zM466 394v-19h0zM466 414v-18zM466 414v-18 1zM466 394v-19zM466 394v-19h0zM466 414v-17zM467 414l-1-17 1 1zM466 394v-19zM467 394l-1-19h1zM467 414v-16zM467 414v-16 1zM467 394v-19zM467 394v-19h0zM467 414v-15zM467 414v-15h0zM467 394v-19zM467 394v-19h0zM467 414v-15zM467 415v-16 1zM467 394v-19zM467 394v-19h0zM467 415v-15zM467 415v-15h0zM467 394v-19zM467 394v-19h0zM467 415v-15zM467 415v-15 1zM467 394v-19zM467 394v-19h0zM467 415v-14zM467 415v-14 1zM467 394v-19zM467 394v-20zM467 415v-13zM467 415v-13 1zM467 394v-20zM467 394v-20h0zM467 415v-12zM467 415v-12h0zM467 394v-20zM467 394v-20h0zM467 415v-12zM468 416l-1-13 1 1zM467 394v-20zM468 394l-1-20h1zM468 416v-12zM468 416v-12h0zM468 394v-20zM468 394v-20h0zM468 416v-12zM468 416v-12h0zM468 394v-20zM468 394v-20h0zM468 416v-12zM468 416v-12 1zM468 394v-20zM468 394v-21zM468 416v-11zM468 416v-11 1zM468 394v-21zM468 394v-21h0zM468 416v-10zM468 416v-10h0zM468 394v-21zM468 394v-21h0zM468 416v-10zM468 416v-10h0zM468 394v-21zM468 394v-21h0zM468 416v-10zM468 417v-11 1zM468 394v-21zM468 394v-21h0zM468 417v-10zM468 417v-10h0zM468 394v-21zM468 394v-21h0zM468 417v-10zM469 417l-1-10h1zM468 394v-21zM469 394l-1-21h1zM469 417v-10zM469 417v-10 1zM469 394v-21zM469 394v-22zM469 417v-9zM469 417v-9h0zM469 394v-22zM469 394v-22h0zM469 417v-9zM469 417v-9h0zM469 394v-22zM469 394v-22h0zM469 417v-9zM469 418v-10 1zM469 394v-22zM469 394v-22h0zM469 418v-9zM470 418l-1-9h1zM469 394v-22zM470 394l-1-22 1-1zM470 418v-9zM470 418v-9h0zM470 394v-23zM470 394v-23h0zM470 418v-9zM470 418v-9 1zM470 394v-23zM470 394v-23h0zM470 418v-8zM470 418v-8h0zM470 394v-23zM470 394v-23h0zM470 418v-8zM470 419v-9h0zM470 394v-23zM470 394v-23h0zM470 419v-9zM470 419v-9h0zM470 394v-23zM470 394v-23h0zM470 419v-9zM471 419l-1-9h1zM470 394v-23zM471 394l-1-23h1zM471 419v-9zM471 419v-9 1zM471 394v-23zM471 394v-23h0zM471 419v-8zM471 419v-8h0zM471 394v-23zM471 394v-23h0zM471 419v-8zM471 419v-8h0zM471 394v-23zM471 394v-24zM471 419v-8zM471 419v-8 1zM471 394v-24zM471 394v-24h0zM471 419v-7zM472 420l-1-8h1zM471 394v-24zM472 394l-1-24h1zM472 420v-8zM472 420v-8h0zM472 394v-24zM472 394v-24h0zM472 420v-8zM472 420v-8h0zM472 394v-24zM472 394v-24h0zM472 420v-8zM472 420v-8 1zM472 394v-24zM472 394v-24h0zM472 420v-7zM473 420l-1-7h1zM472 394v-24zM473 394l-1-24h1zM473 420v-7zM473 420v-7h0zM473 394v-24zM473 394v-24h0zM473 420v-7zM473 421v-8h0zM473 394v-24zM473 394v-24h0zM473 421v-8zM473 421v-8h0zM473 394v-24zM473 394v-25zM473 421v-8zM473 421v-8 1zM473 394v-25zM473 394v-25h0zM473 421v-7zM474 421l-1-7h1zM473 394v-25zM474 394l-1-25h1zM474 421v-7zM474 421v-7h0zM474 394v-25zM474 394v-25h0zM474 421v-7zM474 421v-7h0zM474 394v-25zM474 394v-25h0zM474 421v-7zM474 421v-7h0zM474 394v-25zM474 394v-25h0zM474 421v-7zM474 421v-7h0zM474 394v-25zM474 394v-25h0zM474 421v-7zM474 421v-7h0zM474 394v-25zM474 394v-25h0zM474 421v-7zM475 422l-1-8 1 1zM474 394v-25zM475 394l-1-25h1zM475 422v-7zM475 422v-7h0zM475 394v-25zM475 394v-25h0zM475 422v-7zM475 422v-7h0zM475 394v-25zM475 394v-25h0zM475 422v-7zM475 422v-7h0zM475 394v-25zM475 394v-25h0zM475 422v-7zM475 422v-7h0zM475 394v-25zM475 394v-25h0zM475 422v-7zM476 422l-1-7h1zM475 394v-25zM476 394l-1-25h1zM476 422v-7zM476 422v-7h0zM476 394v-25zM476 394v-25h0zM476 422v-7zM476 422v-7h0zM476 394v-25zM476 394v-25h0zM476 422v-7zM477 422l-1-7h1zM476 394v-25zM477 394l-1-25h1zM477 422v-7zM477 422v-7h0zM477 394v-25zM477 394v-25h0zM477 422v-7zM477 422v-7 1zM477 394v-25zM477 394v-25h0zM477 422v-6zM477 422v-6h0zM477 394v-25zM477 394v-25 1zM477 422v-6zM477 422v-6h0zM477 394v-24zM477 394v-24h0zM477 422v-6zM477 422v-6h0zM477 394v-24zM477 394v-24h0zM477 422v-6zM478 423l-1-7h1zM477 394v-24zM478 394l-1-24h1zM478 423v-7zM478 423v-7h0zM478 394v-24zM478 394v-24h0zM478 423v-7zM478 423v-7h0zM478 394v-24zM478 394v-24h0zM478 423v-7zM479 423l-1-7h1zM478 394v-24zM479 394l-1-24h1zM479 423v-7zM479 423v-7h0zM479 394v-24zM479 394v-24h0zM479 423v-7zM479 423v-7h0zM479 394v-24zM479 394v-24h0zM479 423v-7zM479 423v-7h0zM479 394v-24zM479 394v-24h0zM479 423v-7zM479 423v-7h0zM479 394v-24zM479 394v-24h0zM479 423v-7zM480 423l-1-7h1zM479 394v-24zM480 394l-1-24 1 1zM480 423v-7zM480 423v-7h0zM480 394v-23zM480 394v-23h0zM480 423v-7zM480 423v-7h0zM480 394v-23zM480 394v-23h0zM480 423v-7zM480 423v-7h0zM480 394v-23zM480 394v-23h0zM480 423v-7zM480 423v-7h0zM480 394v-23zM480 394v-23h0zM480 423v-7zM480 423v-7h0zM480 394v-23zM480 394v-23h0zM480 423v-7zM481 423l-1-7h1zM480 394v-23zM481 394l-1-23 1 1zM481 423v-7zM481 423v-7h0zM481 394v-22zM481 394v-22h0zM481 423v-7zM481 423v-7 1zM481 394v-22zM481 394v-22h0zM481 423v-6zM481 423v-6h0zM481 394v-22zM481 394v-22h0zM481 423v-6zM481 423v-6h0zM481 394v-22zM481 394v-22h0zM481 423v-6zM482 423l-1-6h1zM481 394v-22zM482 394l-1-22h1zM482 423v-6zM482 423v-6h0zM482 394v-22zM482 394v-22 1zM482 423v-6zM482 423v-6h0zM482 394v-21zM482 394v-21h0zM482 423v-6zM482 423v-6h0zM482 394v-21zM482 394v-21h0zM482 423v-6zM482 423v-6h0zM482 394v-21zM482 394v-21h0zM482 423v-6zM482 423v-6h0zM482 394v-21zM482 394v-21 1zM482 423v-6zM483 423l-1-6h1zM482 394v-20zM483 394l-1-20h1zM483 423v-6zM483 423v-6h0zM483 394v-20zM483 394v-20h0zM483 423v-6zM483 423v-6h0zM483 394v-20zM483 394v-20 1zM483 423v-6zM484 423l-1-6h1zM483 394v-19zM484 394l-1-19h1zM484 423v-6zM484 423v-6h0zM484 394v-19zM484 394v-19h0zM484 423v-6zM484 423v-6h0zM484 394v-19zM484 394v-19 1zM484 423v-6zM484 423v-6h0zM484 394v-18zM484 394v-18h0zM484 423v-6zM484 423v-6h0zM484 394v-18zM484 394v-18h0zM484 423v-6zM484 423v-6h0zM484 394v-18zM484 394v-18h0zM484 423v-6zM484 423v-6 1zM484 394v-18zM484 394v-18h0zM484 423v-5zM484 423v-5h0zM484 394v-18zM484 394v-18h0zM484 423v-5zM484 423v-5 1zM484 394v-18zM484 394v-18h0zM484 423v-4zM484 422v-3h0zM484 394v-18zM484 394v-18h0zM484 422v-3zM484 422v-3 1zM484 394v-18zM484 394v-18h0zM484 422v-2zM484 422v-2h0zM484 394v-18zM484 394v-18h0zM484 422v-2zM484 421v-1zM484 394v-18zM484 394v-18 1zM484 421zM484 394v-17zM484 394v-17h0zM484 394v-17zM485 394l-1-17h1zM485 394v-17zM485 394v-17 1zM485 394v-16zM486 394l-1-16 1 2zM486 394v-14zM486 394v-14 1zM486 394v-13zM486 394v-13h0zM486 394v-13zM486 394v-13 1zM486 394v-12zM487 394l-1-12h1zM487 394v-12zM487 394v-12 2zM487 394v-10zM487 394v-10 1zM487 394v-9zM488 394l-1-9 1 1zM488 394v-8zM488 394v-8 2zM488 394v-6zM488 394v-6 1zM488 394v-5zM488 394v-5 1zM488 394v-4zM488 394v-4 2zM488 394v-2zM488 394v-2zM488 394z"/></g><g fill="none" stroke="currentColor" clip-path="url(#clipId0)"><path d="m583 390-1-5-2-5-2-4-3-4-4-2h-5l-4 3-2 3-3 6-2 4-1 5v10l1 7 3 7 2 4 3 3 5 2 5-1 3-2 2-3 3-7 2-7z"/><path d="m577 408-2 6-4 4h-4l-3-3-3-5-2-11 1-11 1-5 1-2 1-2 2-2 4-1 4 1 2 3 1 3 2 8 1 7z"/></g><g fill="currentColor" stroke="currentColor" clip-path="url(#clipId0)"><path d="M554 400v-5zM554 400v-5zM554 400v-5h0zM554 400v-5zM554 401v-7zM554 401v-7zM554 401v-8zM554 401v-8zM554 401v-8h0zM554 401v-8l1 10z"/><path d="m555 403-1-10 1-2zM555 403v-12zM555 403v-12h0zM555 403v-12 14zM555 405v-15zM555 405v-15zM555 405v-16zM555 405v-16 17zM555 406v-18zM555 406v-18 19zM555 407v-20zM555 407v-20zM555 408v-22zM555 408v-22l1 23z"/><path d="m556 409-1-23 1-1zM556 409v-24zM556 409v-25zM556 409v-25 27zM556 411v-28zM556 411v-28zM556 411v-29zM556 411v-29l1 30z"/><path d="m557 412-1-30h1zM557 412v-30zM557 412v-31zM557 412v-31zM557 413v-32h0zM557 413v-32zM557 414v-34zM557 414v-34zM557 414v-34h0zM557 414v-34zM558 414l-1-34 1-1zM558 414v-35zM558 415v-36h0zM558 415v-36zM558 415v-36h0zM558 415v-36zM558 416v-38zM558 416v-38zM558 416v-38h0zM558 416v-38zM559 416l-1-38 1-1zM559 416v-39zM559 417v-40h0zM559 417v-40zM559 417v-41zM559 417v-41zM559 418v-42h0zM559 418v-42zM560 418l-1-42h1zM560 418v-42zM560 418v-43zM560 418v-43zM560 419v-44h0zM560 419v-44zM560 419v-45zM560 419v-45zM561 419l-1-45h1zM561 419v-45 46zM561 420v-46h0zM561 420v-46zM561 420v-47zM561 420v-47zM561 420v-47h0zM561 420v-47zM562 421l-1-48h1zM562 421v-48zM562 421v-48h0zM562 421v-48zM562 422v-50zM562 422v-50zM563 422l-1-50h1zM563 422v-50zM563 422v-50h0zM563 422v-50zM563 422v-50h0zM563 422v-50zM563 422v-50h0zM563 422v-50zM564 423l-1-51 1-1zM564 423v-52zM564 423v-52h0zM564 423v-52zM564 423v-52h0zM564 423v-52zM564 423v-52h0zM564 423v-52zM565 423l-1-52 1-1zM565 423v-53zM565 423v-53h0zM565 423v-53zM566 424l-1-54h1zM566 424v-54zM566 424v-54h0zM566 424v-54zM566 424v-54h0zM566 424v-54zM567 424l-1-54h1zM567 424v-54zM567 424v-54h0zM567 424v-54zM567 424v-54h0zM567 424v-54zM567 424v-55zM567 424v-55zM568 424l-1-55h1zM568 424v-55zM568 424v-55h0zM568 424v-55zM568 424v-55h0zM568 424v-55zM569 424l-1-55h1zM569 424v-55zM569 424v-55h0zM569 424v-55zM569 424v-55h0zM569 424v-55zM569 424v-55h0zM569 424v-55zM570 424l-1-55h1zM570 424v-55zM570 424v-55h0zM570 424v-55zM571 424l-1-55 1 1zM571 424v-54zM571 424v-54h0zM571 424v-54zM571 424v-54h0zM571 424v-54zM571 424v-54h0zM571 424v-54zM572 424l-1-54h1zM572 424v-54zM572 424v-54h0zM572 424v-54zM573 423l-1-53h1zM573 423v-53zM573 423v-53h0zM573 423v-53zM573 423v-53 1zM573 423v-52zM573 423v-52h0zM573 423v-52zM574 423l-1-52h1zM574 423v-52zM574 423v-52h0zM574 423v-52zM574 422v-51h0zM574 422v-51zM574 422v-51 1zM574 422v-50zM575 422l-1-50h1zM575 422v-50zM575 422v-50h0zM575 422v-50zM575 421v-49h0zM575 421v-49zM576 421l-1-49 1 1zM576 421v-48zM576 421v-48h0zM576 421v-48zM576 420v-47h0zM576 420v-47zM576 420v-47h0zM576 420v-47zM577 420l-1-47 1 1zM577 420v-46zM577 420v-46h0zM577 420v-46zM577 419v-45h0zM577 419v-45zM577 419v-45 1zM577 419v-44zM578 419l-1-44h1zM578 419v-44zM578 418v-43 1zM578 418v-42zM578 418v-42h0zM578 418v-42zM578 417v-41h0zM578 417v-41zM578 417v-41h0zM578 417v-41zM579 417l-1-41 1 1zM579 417v-40zM579 417v-40h0zM579 417v-40zM579 416v-39 1zM579 416v-38zM579 416v-38h0zM579 416v-38zM579 415v-37h0zM579 415v-37zM580 415l-1-37 1 1zM580 415v-36zM580 414v-35h0zM580 414v-35zM580 413v-34 1zM580 413v-33zM580 413v-33 1zM580 413v-32zM581 412l-1-31 1 1zM581 412v-30zM581 412v-30h0zM581 412v-30zM581 411v-29 1zM581 411v-28zM581 410v-27h0zM581 410v-27zM581 410v-27 1zM581 410v-26zM582 409l-1-25 1 1zM582 409v-24zM582 409v-24h0zM582 409v-24 23zM582 408v-23 1zM582 408v-22zM582 408v-22h0zM582 408v-22 21zM582 407v-21 1zM582 407v-20zM582 406v-19 1zM582 406v-18zM582 406v-18h0zM582 406v-18l1 17z"/><path d="m583 405-1-17 1 1zM583 405v-16zM583 404v-15h0zM583 404v-15zM583 404v-15 1zM583 404v-14zM583 403v-13h0zM583 403v-13zM583 402v-12 1zM583 402v-11zM583 401v-10 1zM583 401v-9zM583 400v-8 1zM583 400v-7zM583 400v-7 1zM583 400v-6 5zM583 399v-5h0zM583 399v-5 4zM583 398v-4 2zM583 398v-2h0z"/></g><g fill="none" stroke="currentColor" clip-path="url(#clipId0)"><path d="M427 435V268h167v167z"/></g></svg>