<svg xmlns="http://www.w3.org/2000/svg" xml:space="preserve" fill-rule="evenodd" stroke-linecap="round" stroke-linejoin="round" style="background-color:transparent" viewBox="0 0 1024 768"><defs><style><![CDATA[g[clip-path]>*{vector-effect:non-scaling-stroke}]]></style></defs><g fill="#ed1f24" stroke="#ed1f24" clip-path="url(#clipId0)"><path d="M454 411V253l158 158z"/><path d="M612 411 454 253h158z"/></g><g fill="none" stroke="currentColor" clip-path="url(#clipId0)"><path d="M235 8h554M789 126H235M235 126v63M235 8v709M235 717h554M789 599H235M235 536h554M235 8h554M789 126H235M235 126v63M235 8v709M235 717h554M789 599H235M235 536h554"/><circle cx="326.9" cy="658" r="15.8"/><circle cx="279.6" cy="658" r="15.8"/><circle cx="279.6" cy="504.2" r="11.8"/></g><g fill="currentColor" stroke="currentColor" clip-path="url(#clipId0)"><text font-family="Arial,'sans-serif'" font-size="1.4" transform="matrix(16 0 0 16 308 460)">DMX</text></g><g fill="none" stroke="currentColor" clip-path="url(#clipId0)"><path d="M454 411V253M454 253h158M612 253v158M612 411H454"/></g><g fill="currentColor" stroke="currentColor" clip-path="url(#clipId0)"><text font-family="Arial,'sans-serif'" font-size="1.4" transform="matrix(16 0 0 16 347 167)">DALI/DMX INTERFACE</text><text font-family="Arial,'sans-serif'" font-size="1.4" transform="matrix(16 0 0 16 347 192)">DALI POWER SUPPLY</text><text font-family="Arial,'sans-serif'" font-size="1.4" transform="matrix(24 0 0 24 633 194)">CE</text></g><g fill="none" stroke="currentColor" clip-path="url(#clipId0)"><path d="M335 141v63M335 204h354M689 204v-63M335 141h354M280 658v102M327 658v102"/><circle cx="374.2" cy="658" r="15.8"/><path d="M374 658v102"/><circle cx="326.9" cy="504.2" r="11.8"/><circle cx="374.2" cy="504.2" r="11.8"/><circle cx="652.8" cy="658" r="15.8"/><circle cx="605.5" cy="658" r="15.8"/><circle cx="700.1" cy="504.2" r="11.8"/><path d="m690 511 20-14M605 658v102M653 658v102"/><circle cx="700.1" cy="658" r="15.8"/><path d="M700 658v102"/><circle cx="747.4" cy="658" r="15.8"/><path d="M747 658v102"/><circle cx="747.4" cy="504.2" r="11.8"/></g><g fill="currentColor" stroke="currentColor" clip-path="url(#clipId0)"><text font-family="Arial,'sans-serif'" font-size="1.4" transform="matrix(16 0 0 16 320 487)">+</text><text font-family="Arial,'sans-serif'" font-size="1.4" transform="matrix(16 0 0 16 274 487)">-</text><text font-family="Arial,'sans-serif'" font-size="1.4" transform="matrix(16 0 0 16 361 487)">0V</text><text font-family="Arial,'sans-serif'" font-size="1.4" transform="matrix(16 0 0 16 741 487)">+</text><text font-family="Arial,'sans-serif'" font-size="1.4" transform="matrix(16 0 0 16 694 487)">-</text></g><g fill="none" stroke="currentColor" clip-path="url(#clipId0)"><path d="M377 391h-95V273h95zM765 391h-95V273h95z"/><circle cx="415.5" cy="363" r="11.8"/><circle cx="415.5" cy="299.6" r="11.8"/><circle cx="605.5" cy="504.2" r="11.8"/><circle cx="652.8" cy="504.2" r="11.8"/></g><g fill="currentColor" stroke="currentColor" clip-path="url(#clipId0)"><text font-family="Arial,'sans-serif'" font-size="1.4" transform="matrix(16 0 0 16 646 487)">+</text><text font-family="Arial,'sans-serif'" font-size="1.4" transform="matrix(16 0 0 16 600 487)">-</text><text font-family="Arial,'sans-serif'" font-size="1.4" transform="matrix(16 0 0 16 649 460)">DALI</text></g><g fill="none" stroke="currentColor" clip-path="url(#clipId0)"><path d="M789 8v709M789 8v709"/></g><g fill="currentColor" stroke="currentColor" clip-path="url(#clipId0)"><text font-family="Arial,'sans-serif'" font-size="1.4" transform="matrix(16 0 0 16 551 487)">ON</text><text font-family="Arial,'sans-serif'" font-size="1.4" transform="matrix(16 0 0 16 504 487)">PS</text></g><g fill="none" stroke="currentColor" clip-path="url(#clipId0)"><circle cx="520" cy="498.7" r="3.6"/><circle cx="520" cy="509.5" r="3.6"/><path d="M526 496v17"/><circle cx="556.2" cy="498.7" r="3.6"/><circle cx="556.2" cy="509.5" r="3.6"/><path d="M562 496v17M531 643h-10v30h10zM567 643h-9v30h9z"/><circle cx="526.3" cy="652.5" r="3.6"/><circle cx="526.3" cy="663.3" r="3.6"/><circle cx="562.6" cy="652.5" r="3.6"/><circle cx="562.6" cy="663.3" r="3.6"/></g><g fill="none" stroke="currentColor" clip-path="url(#clipId0)"><path d="M472 258v92h9l1 1v3l-1 1h-9v27l1 5 2 3 1 2 5 1 1 1v5h-1l-4-1-4-2-2-2-2-4v-2l-1-7v-26l-4-1v-4h4v-92h4"/></g><g fill="currentColor" stroke="currentColor" clip-path="url(#clipId0)"><path d="M464 355v-5zM464 355v-5h0zM464 355v-5zM465 355l-1-5h1zM465 355v-5zM465 355v-5h0zM465 355v-5zM465 355v-5h0zM465 355v-5zM466 355l-1-5h1zM466 355v-5zM466 355v-5h0zM466 355v-5zM467 355l-1-5h1zM467 355v-5zM467 355v-5h0zM467 355v-5zM467 355v-5h0zM467 355v-5zM468 355l-1-5h1zM468 355v-5zM468 355v-5h0zM468 355v-5zM468 355v-5h0zM468 355v-5zM468 355v-5h0zM468 355v-5zM468 355v-5h0zM468 355v-5zM468 355v-5h0zM468 355v-5zM468 355v-5h0zM468 355v-5zM468 355v-5h0zM468 259zM468 355v-5zM468 355v-5h0zM468 259zM468 259zM468 355v-5zM468 355v-5h0zM468 259zM468 259zM468 355v-5zM468 355v-5h0zM468 259zM468 259zM468 258zM468 355v-5zM468 355v-5h0zM468 259zM468 260v-2h0zM468 258zM468 258zM468 355v-5zM468 355v-5h0zM468 260v-2zM468 260v-2h0zM468 258zM468 258zM468 355v-5zM468 355v-5h0zM468 260v-2zM468 260v-2h0zM468 258zM468 258zM468 355v-5zM468 355v-5h0zM468 260v-2zM468 260v-2h0zM468 258zM468 258zM468 355v-5zM468 355v-5h0zM468 260v-2 3zM468 261v-3h0zM468 258zM468 258zM468 355v-5zM468 355v-5h0zM468 261v-3zM468 262v-4h0zM468 258zM468 258zM468 355v-5zM468 355v-5h0zM468 262v-4zM468 262v-4h0zM468 258zM468 258zM468 355v-5zM468 355v-5h0zM468 262v-4zM468 262v-4h0zM468 258zM468 258zM468 355v-5zM468 355v-5h0zM468 262v-4zM468 262v-4h0zM468 258zM468 258zM468 381zM468 355v-5zM468 355v-5h0zM468 262v-4zM468 262v-4h0zM468 258zM468 258zM468 381zM468 381zM468 355v-5zM468 355v-5h0zM468 262v-4zM468 263v-5h0zM468 258zM468 258zM468 381zM468 382v-2h0zM468 355v-5zM468 355v-5h0zM468 270zM468 263v-5zM468 263v-5h0zM468 258zM468 258zM468 382v-2zM468 382v-2h0zM468 355v-5zM468 355v-5h0zM468 270zv1zM468 271v-2zM468 263v-5zM468 263v-5h0zM468 258zM468 258zM468 382v-2zM468 382v-2h0zM468 355v-5zM468 355v-5h0zM468 271v-2zM468 271v-2h0zM468 263v-5zM468 263v-5h0zM468 258zM468 258zM468 382v-2zM468 382v-2h0zM468 355v-5zM468 355v-5h0zM468 271v-2zM468 272v-3h0zM468 263v-5zM468 264v-6h0zM468 258zM468 258zM468 382v-2zM468 382v-2h0zM468 355v-5zM468 355v-5h0zM468 272v-3zM468 272v-3h0zM468 264v-6zM468 264v-6h0zM468 258zM468 258zM468 382v-5zM468 382v-8zM468 355v-5zM468 356v-9zM468 281v-12 20zM468 289v-21zM468 264v-6zM468 264v-6h0zM468 258zM468 258zM468 382v-8zM468 382v-9zM468 356v-9zM468 356v-10zM468 289v-21 25zM468 293v-25h0zM468 264v-6zM468 264v-6h0zM468 258zM468 258zM468 382v-9zM468 382v-10zM468 356v-10zM468 357v-12zM468 293v-25 28zM468 296v-28h0zM468 264v-6zM468 265v-7h0zM468 258zM468 258zM468 382v-10zM468 382v-11zM468 357v-12zM468 357v-13zM468 296v-28 30zM468 298v-30h0zM468 265v-7zM468 265v-7h0zM468 258zM468 258zM468 382v-11zM468 382v-12zM468 357v-13zM468 357v-14zM468 298v-30 36zM468 304v-37zM468 265v-7zM468 265v-7h0zM468 258zM468 258zM468 382v-12zM468 382v-13zM468 357v-14zM468 357v-14h0zM468 304v-37 38zM468 305v-38h0zM468 265v-7zM468 265v-7h0zM468 258zM468 258zM468 382v-13zM468 382v-13h0zM468 357v-14zM468 357v-15zM468 305v-38 40zM468 307v-40h0zM468 265v-7zM468 265v-7h0zM468 258zM468 258zM468 382v-13zM468 382v-14zM468 357v-15zM468 358v-16h0zM468 307v-40 43zM468 310v-44zM468 265v-7 8zM468 266v-8h0zM468 258zM468 258zM468 382v-14zM468 382v-15zM468 358v-16zM468 358v-16h0zM468 310v-52zM468 311v-53h0zM468 258zM468 258zM468 382v-15zM468 382v-17zM468 358v-16zM468 358v-17zM468 311v-53 60zM468 318v-60h0zM468 258zM468 258zM468 382v-17zM468 382v-18zM468 358v-17zM468 358v-18zM468 318v-60 63zM468 321v-63h0zM468 258zM468 258zM468 382v-18zM468 382v-19zM468 358v-18 20zM468 360v-26zM468 321v-63 68zM468 326v-68h0zM468 258zM468 258zM468 382v-19zM468 382v-22zM468 360v-34zM468 360v-34 7zM468 334v-76 75zM468 333v-75h0zM468 258zM468 258zM468 382V258zM468 382V258h0zM468 258zM468 258zM468 382V258zM468 382V258h0zM468 258zM468 382V258zM468 383V258h0zM468 383V258zM468 383V258h0zM468 383V258zM468 384V258h0zM468 384V258zM468 385V258h0zM468 385V258zM468 385V258h0zM468 385V258zM468 386V258h0zM468 386V258zM468 386V258h0zM468 386V258zM468 387V258h0zM468 387V258zM468 387V258h0zM468 387V258l1 130z"/><path d="m469 388-1-130h1zM469 388V258zM469 388V258h0zM469 388V258v131zM469 389V258h0zM469 389V258zM469 389V258h0zM469 389V258zM469 390V258h0zM469 390V258zM469 390V258h0zM469 390V258zM469 391V258h0zM469 391V258zM470 391l-1-133h1zM470 391V258zM470 392V258h0zM470 392V258zM470 392V258h0zM470 392V258zM470 392V258h0zM470 392V258zM470 393V258h0zM470 393V258zM471 393l-1-135h1zM471 393V258zM471 393V258h0zM471 393V258zM471 394V258h0zM471 394V258zM471 394V258h0zM471 394V258zM471 394V258h0zM471 394V258zM472 395l-1-137h1zM472 395V258zM472 395V258h0zM472 395V258zM472 395V258h0zM472 395V258zM472 396V258h0zM472 396V258zM472 396V258h0zM472 396v-15zM472 396v-15h0zM472 378V270v106zM472 376V270v8zM472 396v-15zM472 396v-15 1zM472 376v-98 95zM472 373v-95 9zM472 396v-14zM472 396v-14h0zM472 373v-86 84zM472 371v-84 9zM472 396v-14zM472 396v-14h0zM472 371v-75 72zM472 368v-72 8zM472 396v-14zM472 396v-14h0zM472 368v-64 62zM472 366v-62 8zM472 396v-14zM472 396v-14h0zM472 366v-54zM472 366v-54 1zM472 396v-14zM472 396v-14h0zM472 366v-53 50zM472 363v-50 8zM472 396v-14zM472 396v-14h0zM472 363v-42 40zM472 361v-40 9zM472 396v-14zM472 396v-14h0zM472 361v-31 28zM472 358v-28 9zM472 396v-14zM472 396v-14h0zM472 358v-19 16zM472 355v-16 11zM472 396v-14zM472 396v-14 1zM472 355v-5zM472 355v-5h0zM472 396v-13zM472 396v-13 1zM472 355v-5zM472 355v-5h0zM472 396v-12zM473 396l-1-12 1 1zM472 355v-5zM473 355l-1-5h1zM473 396v-11zM473 396v-11h0zM473 355v-5zM473 355v-5h0zM473 396v-11zM473 396v-11 1zM473 355v-5zM473 355v-5h0zM473 396v-10zM473 396v-10 1zM473 355v-5zM473 355v-5h0zM473 396v-9zM473 397v-10h0zM473 355v-5zM473 355v-5h0zM473 397v-10zM473 397v-10 1zM473 355v-5zM473 355v-5h0zM473 397v-9zM474 397l-1-9h1zM473 355v-5zM474 355l-1-5h1zM474 397v-9zM474 397v-9h0zM474 355v-5zM474 355v-5h0zM474 397v-9zM474 397v-9 1zM474 355v-5zM474 355v-5h0zM474 397v-8zM474 397v-8h0zM474 355v-5zM474 355v-5h0zM474 397v-8zM474 397v-8 1zM474 355v-5zM474 355v-5h0zM474 397v-7zM474 397v-7h0zM474 355v-5zM474 355v-5h0zM474 397v-7zM475 397l-1-7h1zM474 355v-5zM475 355l-1-5h1zM475 397v-7zM475 397v-7h0zM475 355v-5zM475 355v-5h0zM475 397v-7zM475 398v-8 1zM475 355v-5zM475 355v-5h0zM475 398v-7zM475 398v-7h0zM475 355v-5zM475 355v-5h0zM475 398v-7zM475 398v-7h0zM475 355v-5zM475 355v-5h0zM475 398v-7zM476 398l-1-7h1zM475 355v-5zM476 355l-1-5h1zM476 398v-7zM476 398v-7h0zM476 355v-5zM476 355v-5h0zM476 398v-7zM476 398v-7 1zM476 355v-5zM476 355v-5h0zM476 398v-6zM476 398v-6h0zM476 355v-5zM476 355v-5h0zM476 398v-6zM476 398v-6h0zM476 355v-5zM476 355v-5h0zM476 398v-6zM477 398l-1-6h1zM476 355v-5zM477 355l-1-5h1zM477 398v-6zM477 399v-7h0zM477 355v-5zM477 355v-5h0zM477 399v-7zM477 399v-7h0zM477 355v-5zM477 355v-5h0zM477 399v-7zM477 399v-7h0zM477 355v-5zM477 355v-5h0zM477 399v-7zM478 399l-1-7h1zM477 355v-5zM478 355l-1-5h1zM478 399v-7zM478 399v-7 1zM478 355v-5zM478 355v-5h0zM478 399v-6zM478 399v-6h0zM478 355v-5zM478 355v-5h0zM478 399v-6zM478 399v-6h0zM478 355v-5zM478 355v-5h0zM478 399v-6zM479 399l-1-6h1zM478 355v-5zM479 355l-1-5h1zM479 399v-6zM479 399v-6h0zM479 355v-5zM479 355v-5h0zM479 399v-6zM479 399v-6h0zM479 355v-5zM479 355v-5h0zM479 399v-6zM479 399v-6h0zM479 355v-5zM479 355v-5h0zM479 399v-6zM479 399v-6h0zM479 355v-5zM479 355v-5h0zM479 399v-6zM480 399l-1-6h1zM479 355v-5zM480 355l-1-5h1zM480 399v-6zM480 399v-6h0zM480 355v-5zM480 355v-5h0zM480 399v-6zM480 399v-6h0zM480 355v-5zM480 355v-5h0zM480 399v-6zM480 399v-6h0zM480 355v-5zM480 355v-5h0zM480 399v-6zM480 399v-6h0zM480 355v-5zM480 355v-5h0zM480 399v-6zM481 399l-1-6h1zM480 355v-5zM481 355l-1-5h1zM481 399v-6zM481 399v-6h0zM481 355v-5zM481 355v-5h0zM481 399v-6zM481 399v-6h0zM481 355v-5zM481 355v-5h0zM481 399v-6zM481 399v-6h0zM481 355v-5zM481 355v-5h0zM481 399v-6zM481 399v-6h0zM481 355v-5zM481 355v-5h0zM481 399v-6zM482 399l-1-6h1zM481 355v-5zM482 355l-1-5h1zM482 399v-6zM482 399v-6h0zM482 355v-5zM482 355v-5h0zM482 399v-6zM482 399v-6h0zM482 355v-5zM482 355v-5h0zM482 399v-6 5zM482 398v-5h0zM482 355v-5zM482 355v-5h0zM482 398v-5zM482 397v-4h0zM482 355v-5zM482 355v-5h0zM482 397v-4zM482 397v-4h0zM482 355v-5zM482 355v-5h0zM482 397v-4zM482 396v-3h0zM482 355v-5zM482 355v-5h0zM482 396v-3zM482 396v-3h0zM482 355v-5zM482 355v-5h0zM482 396v-3 2zM482 395v-2h0zM482 355v-5zM482 355v-5h0zM482 395v-2zM482 394v-1h0zM482 355v-5zM482 355v-5h0zM482 394v-1zM482 394v-1h0zM482 355v-5zM482 355v-5h0zM482 394v-1h0zM482 355v-5zM482 355v-5h0zM482 355v-5zM482 355v-5h0z"/></g><g fill="none" stroke="currentColor" clip-path="url(#clipId0)"><path d="M545 289h4v36l2 3 5 4h4l2-1 1-2 1-5v-35h4v37l-1 4-1 4-2 3-2 1h-6l-2-2-2-2-2-2-1-1h0v7h-4v-49"/></g><g fill="currentColor" stroke="currentColor" clip-path="url(#clipId0)"><path d="M545 338v-4zM545 338v-4zM545 338v-7zM545 338v-7zM545 338v-10zM545 338v-10zM545 338v-13zM545 338v-13zM545 338v-15zM545 338v-15zM545 338v-17zM545 338v-17zM545 338v-17h0zM545 312zv-3zM545 338v-17zM545 338v-18zM545 312v-3 4zM545 313v-4h0zM545 338v-18zM545 338v-18h0zM545 313v-4zM545 314v-6zM545 338v-18zM545 338v-20zM545 314v-6 7zM545 315v-8zM545 338v-20zM545 338v-20h0zM545 315v-8zM545 315v-8h0zM545 338v-20zM545 338v-22zM545 315v-8zM545 316v-9h0zM545 338v-31zM545 338v-33zM545 338v-33zM545 338v-35zM545 338v-35zM545 338v-37zM545 338v-37zM545 338v-40zM545 338v-40zM545 338v-42zM545 338v-42zM545 338v-45zM545 338v-45zM545 338v-46zM545 338v-46zM545 338v-48zM545 338v-48zM545 338v-49zM545 338v-49zM545 338v-49h0zM545 338v-49zM545 338v-49h0zM545 338v-49zM545 338v-49h0zM545 338v-49zM545 338v-49h0zM545 338v-49zM545 338v-49h0zM545 338v-49zM545 338v-49h0zM545 338v-49zM545 338v-49h0zM545 338v-49zM545 338v-49h0zM545 338v-49zM545 338v-49h0zM545 338v-49zM545 338v-49h0zM545 338v-49zM545 338v-49h0zM545 338v-49zM545 338v-49h0zM545 338v-49zM545 338v-49h0zM545 338v-49zM545 338v-49h0zM545 338v-49zM545 338v-49h0zM545 338v-49zM545 338v-49h0zM545 338v-49zM545 338v-49h0zM545 338v-49zM545 338v-49h0zM545 338v-49zM545 338v-49h0zM545 338v-49zM546 338l-1-49h1zM546 338v-49zM546 338v-49h0zM546 338v-49zM547 338l-1-49h1zM547 338v-49zM547 338v-49h0zM547 338v-49zM548 338l-1-49h1zM548 338v-49zM548 338v-49h0zM548 338v-49zM548 338v-49h0zM548 338v-49zM549 338l-1-49h1zM549 338v-49zM549 338v-49h0zM549 338v-12zM549 338v-12h0zM549 326v-37zM549 326v-37h0zM549 338v-3zM549 338v-3 1zM549 335v-9zM549 335v-9h0zM549 326v-37zM549 326v-37h0zM549 338v-2zM549 338v-2h0zM549 335v-9zM549 334v-8h0zM549 326v-37zM549 326v-37h0zM549 338v-2zM549 338v-2 1zM549 334v-8zM549 334v-8h0zM549 326v-37zM549 326v-37h0zM549 338v-1zM549 338v-1h0zM549 334v-8zM549 334v-8h0zM549 326v-37zM549 326v-37h0zM549 338v-1zM549 338v-1zM549 334v-8zM549 333v-7h0zM549 326v-37zM549 326v-37h0zM549 333v-7zM549 333v-7h0zM549 322v-33zM549 321v-32h0zM549 333v-7zM549 333v-7h0zM549 321v-32 30zM549 319v-30 1zM549 333v-7zM549 332v-6h0zM549 319v-29 25zM549 315v-25 1zM549 332v-6zM549 332v-6h0zM549 315v-24 23zM549 314v-23h0zM549 332v-6zM549 332v-6h0zM549 314v-23 21zM549 312v-21 1zM549 332v-6zM549 332v-6h0zM549 312v-20zM549 311v-19 2zM549 332v-6zM549 332v-6h0zM549 311v-17 14zM549 308v-14 2zM549 332v-6zM549 332v-6h0zM549 308v-12zM549 307v-11 2zM549 332v-6zM549 332v-6h0zM549 307v-9 6zM549 304v-6 2zM549 332v-6zM549 332v-6h0zM549 304v-4zM549 332v-6zM549 331v-5h0zM549 331v-5zM549 331v-5h0zM549 331v-5zM549 331v-5h0zM549 331v-5zM549 331v-5h0zM549 331v-5zM549 331v-5h0zM549 331v-5zM549 331v-5h0zM549 331v-5zM550 331l-1-5h1zM550 331v-5zM550 332v-6 1zM550 332v-5zM550 332v-5h0zM550 332v-5zM550 332v-5h0zM550 332v-5zM550 332v-5h0zM550 332v-5zM550 332v-5h0zM550 332v-5zM550 332v-5h0zM550 332v-5zM550 333v-6 1zM550 333v-5zM550 333v-5h0zM550 333v-5zM551 333l-1-5h1zM551 333v-5zM551 333v-5h0zM551 333v-5zM551 333v-5h0zM551 333v-5zM551 334v-6h0zM551 334v-6zM551 334v-6 1zM551 334v-5zM551 334v-5h0zM551 334v-5zM552 334l-1-5h1zM552 334v-5zM552 334v-5h0zM552 334v-5zM552 335v-6h0zM552 335v-6zM552 335v-6h0zM552 335v-6zM552 335v-6 1zM552 335v-5zM553 335l-1-5h1zM553 335v-5zM553 335v-5h0zM553 335v-5zM553 336v-6h0zM553 336v-6zM553 336v-6h0zM553 336v-6zM553 336v-6 1zM553 336v-5zM554 336l-1-5h1zM554 336v-5zM554 336v-5h0zM554 336v-5zM554 336v-5h0zM554 336v-5zM554 336v-5h0zM554 336v-5zM555 337l-1-6h1zM555 337v-6zM555 337v-6h0zM555 337v-6zM555 337v-6h0zM555 337v-6zM555 337v-6 1zM555 337v-5zM556 337l-1-5h1zM556 337v-5zM556 337v-5h0zM556 337v-5zM556 337v-5h0zM556 337v-5zM556 338v-6h0zM556 338v-6zM557 338l-1-6h1zM557 338v-6zM557 338v-6h0zM557 338v-6zM557 338v-6h0zM557 338v-6zM557 338v-6h0zM557 338v-6zM558 338l-1-6h1zM558 338v-6zM558 338v-6h0zM558 338v-6zM558 338v-6h0zM558 338v-6zM558 338v-6h0zM558 338v-6zM559 338l-1-6h1zM559 338v-6zM559 338v-6h0zM559 338v-6zM559 338v-6h0zM559 338v-6zM559 338v-6h0zM559 338v-6zM559 338v-6h0zM559 338v-6zM560 338l-1-6h1zM560 338v-6zM560 338v-6h0zM560 338v-6zM560 338v-6h0zM560 338v-6zM560 338v-6h0zM560 338v-6zM560 338v-6h0zM560 338v-6zM560 338v-6h0zM560 338v-6zM561 338l-1-6h1zM561 338v-6zM561 338v-6h0zM561 338v-6zM561 338v-6h0zM561 338v-6zM561 338v-6h0zM561 338v-6zM561 338v-6h0zM561 338v-6zM561 338v-6h0zM561 338v-6zM561 338v-6h0zM561 338v-6zM562 338l-1-6h1zM562 338v-6zM562 338v-6h0zM562 338v-6zM562 338v-6h0zM562 338v-6zM562 338v-6h0zM562 338v-6zM562 338v-7zM562 338v-7zM562 338v-7h0zM562 338v-7zM562 338v-7h0zM562 338v-7zM562 338v-7h0zM562 338v-7zM562 338v-7h0zM562 338v-7zM563 338l-1-7h1zM563 338v-7zM563 338v-7h0zM563 338v-7zM563 338v-8zM563 338v-8zM563 338v-8h0zM563 338v-8zM563 338v-8h0zM563 338v-8zM563 338v-8h0zM563 338v-8zM563 337v-8zM563 337v-8zM563 337v-8h0zM563 337v-8zM563 337v-8h0zM563 337v-8zM563 337v-9zM563 337v-9zM563 337v-9h0zM563 337v-9zM563 337v-10zM563 337v-10zM564 337l-1-10h1zM564 337v-10zM564 337v-11zM564 337v-11zM564 337v-11h0zM564 337v-11zM564 337v-11h0zM564 308v-6zM564 337v-11zM564 337v-11h0zM564 308v-6zM564 309v-7h0zM564 337v-11zM564 337v-11h0zM564 309v-7zM564 310v-9zM564 337v-11zM564 337v-11h0zM564 322zM564 310v-9 11zM564 312v-14zM564 337v-11zM564 337v-11h0zM564 322zM564 322zM564 312v-14zM564 312v-14h0zM564 337v-11zM564 337v-11h0zM564 322zM564 323zh0zM564 312v-14 17zM564 315v-19zM564 337v-11zM564 337v-11h0zM564 323v-1zM564 323v-1h0zM564 315v-19zM564 315v-20zM564 337v-11zM564 337v-11h0zM564 323v-1zM564 323v-2zM564 315v-20zM564 316v-21h0zM564 337v-11zM564 337v-11h0zM564 323v-2zM564 323v-2h0zM564 316v-21zM564 316v-21h0zM564 337v-11zM564 337v-11h0zM564 323v-2zM564 323v-4zM564 316v-21 24zM564 319v-27zM564 337v-11zM564 337v-11h0zM564 323v-4zM564 323v-4h0zM564 319v-27zM564 319v-28zM564 337v-11zM564 337v-11h0zM564 323v-32zM564 323v-32h0zM564 337v-11zM564 337v-11h0zM564 323v-32zM564 323v-33zM564 337v-11zM564 337v-11h0zM564 323v-33zM564 324v-34h0zM564 337v-11zM564 337v-11h0zM564 324v-34zM564 324v-34h0zM564 337v-11zM564 337v-11h0zM564 324v-34zM564 324v-35zM564 337v-11zM564 337v-11h0zM564 324v-35zM564 324v-35h0zM564 337v-11zM564 337v-11h0zM564 324v-35zM564 324v-35h0zM564 337v-11zM564 337v-11h0zM564 324v-35zM564 325v-36h0zM564 337v-11zM564 337v-11h0zM564 325v-36zM564 325v-36h0zM564 337v-11zM564 337v-12zM564 325v-36zM564 325v-36h0zM564 337v-48zM564 337v-48h0zM564 337v-48zM564 337v-48h0zM564 337v-48zM564 337v-48h0zM564 337v-48zM564 336v-47h0zM564 336v-47zM565 336l-1-47h1zM565 336v-47zM565 336v-47h0zM565 336v-47zM565 336v-47h0zM565 336v-47zM565 335v-46h0zM565 335v-46zM566 335l-1-46h1zM566 335v-46zM566 335v-46h0zM566 335v-46zM566 334v-45h0zM566 334v-45zM566 334v-45h0zM566 334v-45zM566 334v-45h0zM566 334v-45zM566 333v-44h0zM566 333v-44zM567 333l-1-44h1zM567 333v-44zM567 333v-44h0zM567 333v-44zM567 332v-43h0zM567 332v-43zM567 331v-42h0zM567 331v-42zM567 331v-42h0zM567 331v-42zM567 330v-41h0zM567 330v-41zM567 329v-40h0zM567 329v-40zM567 329v-40h0zM567 329v-40zM568 328l-1-39h1zM568 328v-39zM568 327v-38h0zM568 327v-38 37zM568 326v-37h0zM568 326v-37zM568 325v-36h0zM568 325v-36zM568 325v-36 3zM568 325v-33zM568 325v-33 3zM568 325v-30zM568 325v-30 4zM568 325v-26zM568 325v-26 3zM568 325v-5zM568 325v-5h0zM568 320v-18zM568 320v-18h0zM568 325v-5zM568 325v-5 1zM568 320v-18 15zM568 317v-15 4zM568 325v-4zM568 325v-4h0zM568 317v-11zM568 316v-10h0zM568 325v-4zM568 325v-4h0zM568 316v-10 7zM568 313v-7 3zM568 325v-4zM568 325v-4h0zM568 313v-4 1zM568 325v-4zM568 325v-4 2zM568 325v-2zM568 325v-2h0zM568 325v-2 1z"/></g><g fill="none" stroke="currentColor" clip-path="url(#clipId0)"><path d="m601 303-2-6-1-3-3-3-3-3-3-1h-4l-4 3-3 6-2 3-1 6v11l1 6 1 7 4 5 3 3 4 1 5-1 3-3 3-7 2-6 1-9-1-5z"/><path d="m597 319-2 6-1 3-3 3-3 1-3-1-4-5-2-10v-10l2-5 3-6 2-2h5l4 6 2 10z"/></g><g fill="currentColor" stroke="currentColor" clip-path="url(#clipId0)"><path d="M575 313v-1zM575 313v-1 3zM575 315v-5zM575 315v-5zM575 315v-5h0zM575 315v-5zM575 316v-7zM575 316v-7zM575 316v-7h0zM575 316v-7zM575 317v-9zM575 317v-9zM575 317v-10zM575 317v-10 11zM575 318v-12zM575 318v-12zM575 318v-12h0zM575 318v-12 13zM575 319v-14zM575 319v-14zM575 320v-15h0zM575 320v-15zM575 321v-17zM575 321v-17zM575 321v-17h0zM575 321v-17zM575 322v-19zM575 322v-19zM576 322l-1-19h1zM576 322v-19zM576 323v-21zM576 323v-21zM576 323v-21h0zM576 323v-21zM576 324v-23zM576 324v-23zM576 325v-25zM576 325v-25zM576 325v-25h0zM576 325v-25zM576 326v-27zM576 326v-27zM576 326v-27h0zM576 326v-27zM577 326l-1-27h1zM577 326v-27 28zM577 327v-29zM577 327v-29zM577 327v-29h0zM577 327v-29zM577 328v-31zM577 328v-31zM577 328v-31h0zM577 328v-31zM577 329v-33zM577 329v-33zM578 329l-1-33h1zM578 329v-33zM578 329v-33h0zM578 329v-33zM578 329v-34zM578 329v-34 35zM578 330v-35h0zM578 330v-35zM578 330v-35h0zM578 330v-35zM579 331l-1-36 1-1zM579 331v-37zM579 331v-37h0zM579 331v-37zM579 332v-39zM579 332v-39zM579 332v-39h0zM579 332v-39zM579 332v-39h0zM579 332v-39zM580 332l-1-39 1-1zM580 332v-40zM580 333v-41h0zM580 333v-41zM580 333v-41h0zM580 333v-41zM580 334v-43zM580 334v-43zM581 334l-1-43h1zM581 334v-43zM581 334v-43h0zM581 334v-43zM581 335v-45zM581 335v-45zM581 335v-45h0zM581 335v-45zM582 335l-1-45h1zM582 335v-45zM582 335v-45h0zM582 335v-45zM582 335v-45h0zM582 335v-45zM582 336v-47zM582 336v-47zM582 336v-47h0zM582 336v-47zM583 336l-1-47h1zM583 336v-47zM583 336v-47h0zM583 336v-47zM583 336v-48zM583 336v-48zM583 337v-49h0zM583 337v-49zM584 337l-1-49h1zM584 337v-49zM584 337v-49h0zM584 337v-49zM584 337v-49h0zM584 337v-49zM585 337l-1-49h1zM585 337v-49zM585 337v-50zM585 337v-50zM585 338v-51h0zM585 338v-51zM585 338v-51h0zM585 338v-51zM586 338l-1-51h1zM586 338v-51zM586 338v-51h0zM586 338v-51zM586 338v-51h0zM586 338v-51zM586 338v-51h0zM586 338v-51zM587 338l-1-51h1zM587 338v-51zM587 338v-51h0zM587 338v-51zM587 338v-51h0zM587 338v-51zM587 338v-51h0zM587 338v-51zM588 338l-1-51h1zM588 338v-51zM588 338v-51h0zM588 338v-51zM588 338v-51h0zM588 338v-51zM588 338v-51h0zM588 338v-51zM589 338l-1-51h1zM589 338v-51zM589 338v-51h0zM589 338v-51zM589 338v-51h0zM589 338v-51zM590 338l-1-51h1zM590 338v-51zM590 338v-51h0zM590 338v-51zM590 338v-51h0zM590 338v-51zM590 338v-51h0zM590 338v-51zM591 338l-1-51h1zM591 338v-51zM591 338v-51h0zM591 338v-51zM591 338v-51h0zM591 338v-51zM592 338l-1-51h1zM592 338v-51zM592 337v-50h0zM592 337v-50zM592 337v-50 1zM592 337v-49zM592 337v-49h0zM592 337v-49zM592 337v-49h0zM592 337v-49zM593 337l-1-49h1zM593 337v-49zM593 337v-49h0zM593 337v-49zM593 336v-48 1zM593 336v-47zM594 336l-1-47h1zM594 336v-47zM594 336v-47h0zM594 336v-47zM594 336v-47h0zM594 336v-47zM595 335l-1-46 1 1zM595 335v-45zM595 335v-45h0zM595 335v-45zM595 335v-45h0zM595 335v-45zM595 334v-44 1zM595 334v-43zM596 334l-1-43h1zM596 334v-43zM596 334v-43h0zM596 334v-43zM596 334v-43h0zM596 334v-43 42zM596 333v-42 1zM596 333v-41zM597 333l-1-41h1zM597 333v-41zM597 332v-40 1zM597 332v-39zM597 332v-39h0zM597 332v-39zM597 332v-39h0zM597 332v-39zM597 332v-39h0zM597 332v-39zM598 331l-1-38 1 1zM598 331v-37zM598 331v-37h0zM598 331v-37zM598 330v-36 1zM598 330v-35zM598 330v-35h0zM598 330v-35zM598 329v-34 1zM598 329v-33zM599 329l-1-33h1zM599 329v-33zM599 328v-32 1zM599 328v-31zM599 328v-31h0zM599 328v-31zM599 327v-30 1zM599 327v-29zM599 327v-29h0zM599 327v-29zM600 326l-1-28 1 1zM600 326v-27zM600 326v-27h0zM600 326v-27zM600 325v-26 1zM600 325v-25zM600 325v-25h0zM600 325v-25zM600 324v-24 1zM600 324v-23zM600 324v-23h0zM600 324v-23zM601 323l-1-22 1 1zM601 323v-21zM601 323v-21h0zM601 323v-21zM601 322v-20 1zM601 322v-19zM601 322v-19h0zM601 322v-19zM601 321v-18 1zM601 321v-17zM601 320v-16h0zM601 320v-16zM601 319v-15 2zM601 319v-13zM601 318v-12 1zM601 318v-11l1 10z"/><path d="m602 317-1-10 1 1zM602 317v-9zM602 316v-8 1zM602 316v-7 6zM602 315v-6 1zM602 315v-5 4zM602 314v-4 1zM602 314v-3 2z"/></g><g fill="none" stroke="currentColor" clip-path="url(#clipId0)"><path d="M532 266v23h0l-7 2-4 3-6 7-1 3-1 3-1 7 2 8 3 6 1 2 3 3 4 3 3 1 5 1h3l1-1v-70z"/><path d="m532 332-6-1-4-4-2-3-2-4-1-3v-6l1-4 2-4 1-2 2-2 4-3 4-1h1v37"/></g><g fill="currentColor" stroke="currentColor" clip-path="url(#clipId0)"><path d="M512 315zv-1zM512 315v-2zM512 316v-4zM512 316v-4zM513 316l-1-4h1zM513 316v-4zM513 317v-6zM513 317v-6zM513 317v-7zM513 317v-7 8zM513 318v-9zM513 318v-9zM513 319v-10h0zM513 319v-10zM513 320v-12zM513 320v-12zM513 320v-13zM513 320v-13zM513 321v-15zM513 321v-15zM513 321v-15h0zM513 321v-15zM514 322l-1-16 1-1zM514 322v-17zM514 322v-17h0zM514 322v-17zM514 323v-19zM514 323v-19zM514 323v-19h0zM514 323v-19l1 20z"/><path d="m515 324-1-20 1-1zM515 324v-21zM515 325v-23zM515 325v-23zM515 326v-25zM515 326v-25zM515 326v-25h0zM515 326v-25l1 26z"/><path d="m516 327-1-26 1-1zM516 327v-27zM516 328v-28h0zM516 328v-28zM517 328l-1-28 1-1zM517 328v-29zM517 329v-30h0zM517 329v-30zM517 329v-31zM517 329v-31zM517 329v-31h0zM517 329v-31zM518 330l-1-32h1zM518 330v-32zM518 330v-33zM518 330v-33zM518 330v-33h0zM518 330v-33zM519 331l-1-34h1zM519 331v-34zM519 331v-35zM519 331v-35zM519 332v-36h0zM519 332v-36zM520 332l-1-36 1-1zM520 332v-37zM520 332v-37h0zM520 332v-37zM521 333l-1-38 1-1zM521 333v-39zM521 333v-39h0zM521 333v-39zM521 334v-40h0zM521 334v-40zM522 334l-1-40 1-1zM522 334v-41zM522 334v-41h0zM522 334v-41zM523 335l-1-42h1zM523 335v-42zM523 335v-42h0zM523 335v-42zM523 335v-43zM523 335v-43zM524 335l-1-43h1zM524 335v-43zM524 335v-43h0zM524 335v-43zM525 336l-1-44 1-1zM525 336v-45zM525 336v-45h0zM525 336v-45zM526 336l-1-45h1zM526 336v-45zM526 336v-45h0zM526 336v-45l1 46z"/><path d="m527 337-1-46 1-1zM527 337v-47zM527 337v-47h0zM527 337v-47l1 47z"/><path d="m528 337-1-47h1zM528 337v-47zM528 337v-47h0zM528 337v-47l1 48z"/><path d="m529 338-1-48h1zM529 338v-48zM529 338v-48h0zM529 338v-48zM530 338l-1-48h1zM530 338v-48zM531 338l-1-48 1-1zM531 338v-49zM531 338v-49h0zM531 338v-49zM531 338v-49h0zM531 338v-49zM532 338l-1-49h1zM532 338v-49zM532 338v-49h0zM532 338v-49zM532 338v-49h0zM532 338v-49zM532 338v-49h0zM532 276zv-2zM532 338v-49zM532 338v-49h0zM532 276v-3 5zM532 278v-6zM532 338v-49zM532 338v-49h0zM532 278v-6zM532 278v-7zM532 338v-49zM532 338v-49h0zM532 278v-7 9zM532 280v-11zM532 338v-49zM532 338v-49h0zM532 280v-11zM532 281v-13zM532 338v-49zM532 338v-49h0zM532 281v-13 14zM532 282v-14h0zM532 338v-49zM532 338v-49h0zM532 282v-14 17zM532 285v-18zM532 338v-49zM532 338v-49h0zM532 285v-18 20zM532 287v-21zM532 338v-72zM533 338l-1-72h1zM533 338v-72zM533 338v-72h0zM533 338v-72zM533 338v-72h0zM533 338v-72zM534 338l-1-72h1zM534 338v-72zM534 338v-72h0zM534 338v-72zM534 338v-72h0zM534 338v-72zM534 338v-72h0zM534 338v-72zM535 338l-1-72h1zM535 338v-72zM535 338v-72h0zM535 338v-72zM535 338v-72h0zM535 338v-72zM535 338v-72h0zM535 338v-72zM536 338l-1-72h1zM536 338v-72zM536 338v-72h0zM536 338v-72zM536 338v-72h0zM536 338v-72zM537 338l-1-72 1 1zM537 338v-71zM537 338v-71h0zM537 338v-28zM537 338v-28h0zM537 310v-43 35zM537 302v-35h0zM537 338v-28 27zM537 337v-27 7zM537 302v-35 29zM537 296v-29h0zM537 337v-20zM537 337v-20 1zM537 296v-29 28zM537 295v-28h0zM537 337v-19 17zM537 335v-17 7zM537 295v-28 21zM537 288v-21h0zM537 335v-10zM537 335v-10h0zM537 288v-21zM537 287v-20h0zM537 335v-10 7zM537 287v-20 14zM537 281v-14h0zM537 281v-14 13zM537 280v-13h0zM537 280v-13 5zM537 272v-5h0zM537 272v-5h0z"/></g><g fill="none" stroke="currentColor" clip-path="url(#clipId0)"><path d="m525 353 2-1 3-2h7v5l-2 1h-2l-4 1-4 3-3 4-1 3-1 6v6l1 3 2 4 3 3 5 4h5l1 1v5h-7l-4-2-3-3-4-5-3-8v-12l1-4 2-4 3-5z"/></g><g fill="currentColor" stroke="currentColor" clip-path="url(#clipId0)"><path d="M516 375zh0zM516 375v-1zM516 376v-3zM516 376v-3zM516 376v-3h0zM516 376v-3zM516 377v-5zM516 377v-5zM516 377v-6zM516 377v-6 7zM516 378v-8zM516 378v-8zM516 378v-8h0zM516 378v-8 10zM516 380v-11zM516 380v-11zM516 380v-11h0zM516 380v-11zM516 381v-13zM516 381v-13zM516 381v-13h0zM516 381v-13zM516 382v-15zM516 382v-15zM517 382l-1-15 1-1zM517 382v-16zM517 383v-17h0zM517 383v-17zM517 383v-17h0zM517 383v-17zM517 384v-19zM517 384v-19zM517 384v-19h0zM517 384v-19zM517 385v-21zM517 385v-21zM517 385v-21h0zM517 385v-21zM518 385l-1-21 1-1zM518 385v-22zM518 386v-23h0zM518 386v-23zM518 386v-23h0zM518 386v-23zM518 387v-25zM518 387v-25zM518 387v-25h0zM518 387v-25zM518 387v-26zM518 387v-26zM518 388v-27h0zM518 388v-27zM519 388l-1-27 1-1zM519 388v-28zM519 388v-28h0zM519 388v-28zM519 389v-29h0zM519 389v-29zM519 389v-29h0zM519 389v-29zM519 390v-31zM519 390v-31zM519 390v-31h0zM519 390v-31zM520 390l-1-31h1zM520 390v-31zM520 390v-32zM520 390v-32zM520 390v-32h0zM520 390v-17zM520 390v-17 1zM520 373v-15zM520 373v-15h0zM520 390v-16zM520 390v-16 1zM520 373v-15zM520 372v-14h0zM520 390v-15zM520 390v-15h0zM520 372v-14zM520 372v-14h0zM520 390v-15zM520 391v-16 2zM520 372v-14zM520 371v-13h0zM520 391v-14zM520 391v-14h0zM520 371v-13zM520 371v-13h0zM520 391v-14zM520 391v-14 1zM520 371v-13zM520 371v-13h0zM520 391v-13zM520 391v-13h0zM520 371v-13zM520 371v-13h0zM520 391v-13zM520 391v-13h0zM520 371v-13zM520 371v-13h0zM520 391v-13zM520 391v-13h0zM520 371v-13zM520 370v-12h0zM520 391v-13zM520 391v-13 1zM520 370v-12zM520 370v-12h0zM520 391v-12zM520 391v-12h0zM520 370v-12zM520 370v-12h0zM520 391v-12zM521 391l-1-12 1 1zM520 370v-12zM521 369l-1-11 1-1zM521 391v-11zM521 391v-11h0zM521 369v-12zM521 369v-12h0zM521 391v-11zM521 392v-12h0zM521 369v-12zM521 369v-12h0zM521 392v-12zM521 392v-12h0zM521 369v-12zM521 369v-12h0zM521 392v-12zM521 392v-12 1zM521 369v-12zM521 368v-11h0zM521 392v-11zM521 392v-11h0zM521 368v-11zM521 368v-11h0zM521 392v-11zM521 392v-11h0zM521 368v-11zM521 368v-11h0zM521 392v-11zM521 392v-11h0zM521 368v-11zM521 368v-11h0zM521 392v-11zM521 392v-11 1zM521 368v-11zM521 367v-10h0zM521 392v-10zM521 392v-10h0zM521 367v-10zM521 367v-10h0zM521 392v-10zM521 392v-10h0zM521 367v-10zM521 367v-10h0zM521 392v-10zM521 392v-10h0zM521 367v-10zM521 367v-10h0zM521 392v-10zM521 392v-10h0zM521 367v-10zM521 366v-10zM521 392v-10zM521 393v-11 1zM521 366v-10zM521 366v-10h0zM521 393v-10zM522 393l-1-10h1zM521 366v-10zM522 366l-1-10h1zM522 393v-10zM522 393v-10h0zM522 366v-10zM522 366v-10h0zM522 393v-10zM522 393v-10h0zM522 366v-10zM522 366v-10h0zM522 393v-10zM522 393v-10h0zM522 366v-10zM522 365v-9h0zM522 393v-10zM522 393v-10 1zM522 365v-9zM522 365v-9h0zM522 393v-9zM522 393v-9h0zM522 365v-9zM522 365v-9h0zM522 393v-9zM522 393v-9h0zM522 365v-9zM522 365v-9h0zM522 393v-9zM522 393v-9h0zM522 365v-9zM522 365v-10zM522 393v-9zM522 394v-10h0zM522 365v-10zM522 364v-9h0zM522 394v-10zM522 394v-10h0zM522 364v-9zM522 364v-9h0zM522 394v-10zM522 394v-10 1zM522 364v-9zM522 364v-9h0zM522 394v-9zM522 394v-9h0zM522 364v-9zM522 364v-9h0zM522 394v-9zM522 394v-9h0zM522 364v-9zM522 364v-9h0zM522 394v-9zM523 394l-1-9h1zM522 364v-9zM523 363l-1-8h1zM523 394v-9zM523 394v-9h0zM523 363v-8zM523 363v-8h0zM523 394v-9zM523 394v-9 1zM523 363v-8zM523 363v-8h0zM523 394v-8zM523 394v-8h0zM523 363v-8zM523 363v-8h0zM523 394v-8zM523 394v-8h0zM523 363v-8zM523 363v-9zM523 394v-8zM523 394v-8h0zM523 363v-9zM523 363v-9h0zM523 394v-8zM523 395v-9h0zM523 363v-9zM523 362v-8h0zM523 395v-9zM524 395l-1-9 1 1zM523 362v-8zM524 362l-1-8h1zM524 395v-8zM524 395v-8h0zM524 362v-8zM524 362v-8h0zM524 395v-8zM524 395v-8h0zM524 362v-8zM524 362v-8h0zM524 395v-8zM524 395v-8h0zM524 362v-8zM524 362v-8h0zM524 395v-8zM524 395v-8h0zM524 362v-8zM524 361v-7h0zM524 395v-8zM524 395v-8h0zM524 361v-7zM524 361v-7h0zM524 395v-8zM524 395v-8 1zM524 361v-7zM524 361v-8zM524 395v-7zM524 395v-7h0zM524 361v-8zM524 361v-8h0zM524 395v-7zM524 395v-7h0zM524 361v-8zM524 361v-8h0zM524 395v-7zM524 395v-7h0zM524 361v-8zM524 361v-8h0zM524 395v-7zM525 396l-1-8h1zM524 361v-8zM525 361l-1-8h1zM525 396v-8zM525 396v-8h0zM525 361v-8zM525 360v-7h0zM525 396v-8zM525 396v-8 1zM525 360v-7zM525 360v-7h0zM525 396v-7zM525 396v-7h0zM525 360v-7zM525 360v-7h0zM525 396v-7zM525 396v-7h0zM525 360v-7zM525 360v-7h0zM525 396v-7zM525 396v-7h0zM525 360v-7zM525 360v-7h0zM525 396v-7zM525 396v-7h0zM525 360v-7zM525 360v-7h0zM525 396v-7zM525 396v-7h0zM525 360v-7zM525 360v-7h0zM525 396v-7zM525 396v-7h0zM525 360v-7zM525 360v-7h0zM525 396v-7zM525 396v-7h0zM525 360v-7zM525 360v-7h0zM525 396v-7zM525 396v-7h0zM525 360v-7zM525 360v-7h0zM525 396v-7zM525 396v-7h0zM525 360v-7zM525 360v-7h0zM525 396v-7zM525 396v-7h0zM525 360v-7zM525 360v-7h0zM525 396v-7zM525 396v-7h0zM525 360v-7zM525 360v-7h0zM525 396v-7zM525 396v-7h0zM525 360v-7zM525 360v-7h0zM525 396v-7zM525 396v-7h0zM525 360v-7zM525 360v-7h0zM525 396v-7zM525 396v-7h0zM525 360v-7zM525 360v-7h0zM525 396v-7zM525 396v-7h0zM525 360v-7zM525 360v-7h0zM525 396v-7zM525 396v-7h0zM525 360v-7zM525 360v-7h0zM525 396v-7zM525 396v-7h0zM525 360v-7zM525 360v-7h0zM525 396v-7zM525 396v-7h0zM525 360v-7zM525 360v-7h0zM525 396v-7zM525 396v-7h0zM525 360v-7zM525 360v-7h0zM525 396v-7zM525 396v-7h0zM525 360v-7zM525 360v-7h0zM525 396v-7zM525 396v-7h0zM525 360v-7zM525 360v-8zM525 396v-7zM525 396v-7h0zM525 360v-8zM525 360v-8h0zM525 396v-7zM526 396l-1-7h1zM525 360v-8zM526 360l-1-8h1zM526 396v-7zM526 396v-7h0zM526 360v-8zM526 360v-8h0zM526 396v-7zM526 396v-7h0zM526 360v-8zM526 360v-8h0zM526 396v-7zM526 396v-7h0zM526 360v-8zM526 360v-8h0zM526 396v-7zM526 396v-7h0zM526 360v-8zM526 360v-8h0zM526 396v-7zM526 396v-7h0zM526 360v-8zM526 360v-8h0zM526 396v-7zM526 397v-8h0zM526 360v-8zM526 359v-7h0zM526 397v-8zM526 397v-8h0zM526 359v-7zM526 359v-7h0zM526 397v-8zM526 397v-8 1zM526 359v-7zM526 359v-7h0zM526 397v-7zM526 397v-7h0zM526 359v-7zM526 359v-7h0zM526 397v-7zM526 397v-7h0zM526 359v-7zM526 359v-7h0zM526 397v-7zM526 397v-7h0zM526 359v-7zM526 359v-7h0zM526 397v-7zM526 397v-7h0zM526 359v-7zM526 359v-7h0zM526 397v-7zM527 397l-1-7h1zM526 359v-7zM527 359l-1-7h1zM527 397v-7zM527 397v-7h0zM527 359v-7zM527 359v-7h0zM527 397v-7zM527 397v-7h0zM527 359v-7zM527 359v-7h0zM527 397v-7zM527 397v-7h0zM527 359v-7zM527 359v-7h0zM527 397v-7zM527 397v-7h0zM527 359v-7zM527 358v-6h0zM527 397v-7zM527 397v-7h0zM527 358v-6zM527 358v-6h0zM527 397v-7zM527 397v-7h0zM527 358v-6zM527 358v-7zM527 397v-7zM527 397v-7 1zM527 358v-7zM527 358v-7h0zM527 397v-6zM527 397v-6h0zM527 358v-7zM527 358v-7h0zM527 397v-6zM527 398v-7h0zM527 358v-7zM527 358v-7h0zM527 398v-7zM528 398l-1-7h1zM527 358v-7zM528 358l-1-7h1zM528 398v-7zM528 398v-7h0zM528 358v-7zM528 358v-7h0zM528 398v-7zM528 398v-7h0zM528 358v-7zM528 358v-7h0zM528 398v-7zM528 398v-7h0zM528 358v-7zM528 358v-7h0zM528 398v-7zM528 398v-7h0zM528 358v-7zM528 358v-7h0zM528 398v-7zM528 398v-7h0zM528 358v-7zM528 358v-7h0zM528 398v-7zM528 398v-7h0zM528 358v-7zM528 357v-6h0zM528 398v-7zM529 398l-1-7h1zM528 357v-6zM529 357l-1-6h1zM529 398v-7zM529 398v-7h0zM529 357v-6zM529 357v-6h0zM529 398v-7zM529 398v-7 1zM529 357v-6zM529 357v-6h0zM529 398v-6zM529 398v-6h0zM529 357v-6zM529 357v-6h0zM529 398v-6zM529 398v-6h0zM529 357v-6zM529 357v-6h0zM529 398v-6zM529 398v-6h0zM529 357v-6zM529 357v-7zM529 398v-6zM530 398l-1-6h1zM529 357v-7zM530 357l-1-7h1zM530 398v-6zM530 398v-6h0zM530 357v-7zM530 357v-7h0zM530 398v-6zM530 398v-6h0zM530 357v-7zM530 357v-7h0zM530 398v-6zM530 399v-7h0zM530 357v-7zM530 357v-7h0zM530 399v-7zM530 399v-7h0zM530 357v-7zM530 357v-7h0zM530 399v-7zM531 399l-1-7h1zM530 357v-7zM531 357l-1-7h1zM531 399v-7zM531 399v-7h0zM531 357v-7zM531 356v-6h0zM531 399v-7zM531 399v-7h0zM531 356v-6zM531 356v-6h0zM531 399v-7zM531 399v-7 1zM531 356v-6zM531 356v-6h0zM531 399v-6zM532 399l-1-6h1zM531 356v-6zM532 356l-1-6h1zM532 399v-6zM532 399v-6h0zM532 356v-6zM532 356v-6h0zM532 399v-6zM532 399v-6h0zM532 356v-6zM532 356v-6h0zM532 399v-6zM532 399v-6h0zM532 356v-6zM532 356v-6h0zM532 399v-6zM532 399v-6h0zM532 356v-6zM532 356v-6h0zM532 399v-6zM533 399l-1-6h1zM532 356v-6zM533 356l-1-6h1zM533 399v-6zM533 399v-6h0zM533 356v-6zM533 356v-6h0zM533 399v-6zM533 399v-6h0zM533 356v-6zM533 356v-6h0zM533 399v-6zM533 399v-6h0zM533 356v-6zM533 356v-6h0zM533 399v-6zM533 399v-6h0zM533 356v-6zM533 356v-6h0zM533 399v-6zM534 399l-1-6h1zM533 356v-6zM534 356l-1-6h1zM534 399v-6zM534 399v-6h0zM534 356v-6zM534 356v-6h0zM534 399v-6zM534 399v-6h0zM534 356v-6zM534 356v-6h0zM534 399v-6zM534 399v-6h0zM534 356v-6zM534 356v-6h0zM534 399v-6zM534 399v-6h0zM534 356v-6zM534 356v-6h0zM534 399v-6zM534 399v-6h0zM534 356v-6zM534 356v-6h0zM534 399v-6zM535 399l-1-6h1zM534 356v-6zM535 356l-1-6h1zM535 399v-6zM535 399v-6h0zM535 356v-6zM535 356v-6h0zM535 399v-6zM535 399v-6h0zM535 356v-6zM535 356v-6h0zM535 399v-6zM535 399v-6h0zM535 356v-6zM535 356v-6h0zM535 399v-6zM535 399v-6h0zM535 356v-6zM535 356v-6h0zM535 399v-6zM535 399v-6h0zM535 356v-6zM535 356v-6h0zM535 399v-6zM536 399l-1-6h1zM535 356v-6zM536 356l-1-6h1zM536 399v-6zM536 399v-6h0zM536 356v-6zM536 356v-6h0zM536 399v-6zM536 399v-6h0zM536 356v-6zM536 356v-6h0zM536 399v-6zM536 399v-6h0zM536 356v-6zM536 356v-6h0zM536 399v-6zM536 399v-6h0zM536 356v-6zM536 356v-6h0zM536 399v-6zM537 399l-1-6h1zM536 356v-6zM537 356l-1-6h1zM537 399v-6zM537 399v-6h0zM537 356v-4zM537 356v-4h0zM537 352v-2zM537 351v-1h0zM537 399v-6zM537 399v-6h0zM537 356v-4zM537 356v-4 1zM537 351v-1zM537 351v-1h0zM537 399v-6zM537 399v-6h0zM537 356v-3zM537 356v-3h0zM537 351v-1zM537 351v-1h0zM537 399v-6zM537 399v-6h0zM537 356v-3zM537 356v-3h0zM537 351v-1zM537 350zM537 399v-6zM537 399v-6h0zM537 356v-3zM537 356v-3 1zM537 350zM537 350zM537 399v-6zM537 399v-6h0zM537 356v-2zM537 356v-2h0zM537 350zM537 350zM537 399v-6zM537 399v-6h0zM537 356v-2zM537 356v-2 1zM537 350zM537 350zM537 399v-6zM537 399v-6h0zM537 356v-1zM537 356v-1zM537 350z"/></g><g fill="none" stroke="currentColor" clip-path="url(#clipId0)"><path d="m555 351 4-1h3l2 1 2 2v2l2 4v39l-1 1h-3v-33l-1-7-2-3-3-1-4 2-3 3-2 2v37h-4v-49h4v7l1-1 1-2z"/></g><g fill="currentColor" stroke="currentColor" clip-path="url(#clipId0)"><path d="M545 399v-49zM545 399v-49h0zM545 399v-49zM546 399l-1-49h1zM546 399v-49zM546 399v-49h0zM546 399v-49zM547 399l-1-49h1zM547 399v-49zM547 399v-49h0zM547 399v-49zM548 399l-1-49h1zM548 399v-49zM548 399v-49h0zM548 399v-49zM548 399v-49h0zM548 399v-49zM549 399l-1-49h1zM549 399v-49zM549 399v-49h0zM549 399v-37zM549 399v-37h0zM549 362v-12zM549 362v-12h0zM549 399v-37zM549 399v-37h0zM549 362v-9zM549 362v-9h0zM549 353v-3zM549 352v-2h0zM549 399v-37zM549 399v-37h0zM549 362v-9zM549 362v-9h0zM549 352v-2zM549 352v-2h0zM549 399v-37zM549 399v-37h0zM549 362v-9zM549 362v-9 1zM549 352v-2zM549 351v-1h0zM549 399v-37zM549 399v-37h0zM549 362v-8zM549 362v-8h0zM549 351v-1zM549 351v-1h0zM549 399v-37zM549 399v-37h0zM549 362v-8zM549 362v-8 1zM549 351v-1zM549 351v-1h0zM549 399v-37zM549 399v-37h0zM549 362v-7zM549 362v-7h0zM549 351v-1zM549 351v-1h0zM549 362v-7zM549 362v-7 1zM549 362v-6zM549 362v-6h0zM549 362v-6zM549 362v-6 1zM549 362v-5zM549 362v-5h0zM549 362v-5zM549 362v-5h0zM549 362v-5zM549 362v-5h0zM549 362v-5zM549 362v-5h0zM549 362v-5zM549 361v-4h0zM549 361v-4zM549 361v-5zM549 361v-5zM550 361l-1-5h1zM550 361v-5zM550 361v-5h0zM550 361v-5zM550 361v-5h0zM550 361v-5zM550 361v-5h0zM550 361v-5zM550 361v-5h0zM550 361v-5zM550 361v-5h0zM550 361v-5zM550 360v-5zM550 360v-5zM551 360l-1-5h1zM551 360v-5zM551 360v-5h0zM551 360v-5zM551 360v-6zM551 360v-6zM551 359v-5h0zM551 359v-5zM551 359v-5h0zM551 359v-5zM551 359v-5h0zM551 359v-5zM552 359l-1-5 1-1zM552 359v-6zM552 359v-6h0zM552 359v-6zM552 359v-6h0zM552 359v-6zM552 358v-5h0zM552 358v-5zM552 358v-5h0zM552 358v-5zM553 358l-1-5h1zM553 358v-5zM553 358v-6zM553 358v-6zM553 358v-6h0zM553 358v-6zM553 358v-6h0zM553 358v-6zM553 357v-5h0zM553 357v-5zM554 357l-1-5h1zM554 357v-5zM554 357v-5h0zM554 357v-5zM554 357v-6zM554 357v-6zM554 357v-6h0zM554 357v-6zM554 357v-6h0zM554 357v-6zM555 357l-1-6h1zM555 357v-6zM555 357v-6h0zM555 357v-6zM555 356v-5h0zM555 356v-5zM555 356v-5h0zM555 356v-5zM555 356v-5h0zM555 356v-5zM555 356v-5h0zM555 356v-5zM555 356v-5h0zM555 356v-5zM555 356v-5h0zM555 356v-5zM555 356v-5h0zM555 356v-5zM555 356v-5h0zM555 356v-5zM555 356v-5h0zM555 356v-5zM555 356v-5h0zM555 356v-5zM555 356v-5h0zM555 356v-5zM555 356v-5h0zM555 356v-5zM555 356v-5h0zM555 356v-5zM555 356v-5h0zM555 356v-5zM555 356v-5h0zM555 356v-5zM555 356v-5h0zM555 356v-5zM555 356v-5h0zM555 356v-5zM555 356v-5h0zM555 356v-5zM555 356v-5h0zM555 356v-5zM555 356v-5h0zM555 356v-5zM555 356v-5h0zM555 356v-5zM555 356v-5h0zM555 356v-5zM555 356v-5h0zM555 356v-5zM555 356v-5h0zM555 356v-5zM555 356v-5h0zM555 356v-5zM556 356l-1-5h1zM556 356v-5zM556 356v-6zM556 356v-6zM556 356v-6h0zM556 356v-6zM556 356v-6h0zM556 356v-6zM557 356l-1-6h1zM557 356v-6zM557 356v-6h0zM557 356v-6zM557 356v-6h0zM557 356v-6zM557 356v-6h0zM557 356v-6zM558 355l-1-5h1zM558 355v-5zM558 355v-5h0zM558 355v-5zM558 355v-5h0zM558 355v-5zM559 355l-1-5h1zM559 355v-5zM559 355v-5h0zM559 355v-5zM559 355v-5h0zM559 355v-5zM560 355l-1-5h1zM560 355v-5zM560 355v-5h0zM560 355v-5zM560 355v-5h0zM560 355v-5zM560 355v-5h0zM560 355v-5zM561 355l-1-5h1zM561 355v-5zM561 355v-5h0zM561 355v-5zM561 356v-6h0zM561 356v-6zM561 356v-6h0zM561 356v-6zM561 356v-6h0zM561 356v-6zM562 356l-1-6h1zM562 356v-6zM562 356v-6h0zM562 356v-6zM562 356v-6h0zM562 356v-6zM562 356v-6h0zM562 356v-6zM562 356v-6h0zM562 356v-6zM562 356v-6h0zM562 356v-6zM562 357v-7h0zM562 357v-7zM562 357v-7h0zM562 357v-7zM563 357l-1-7h1zM563 357v-7zM563 357v-7h0zM563 357v-7zM563 357v-7h0zM563 357v-7zM563 357v-7h0zM563 357v-7zM563 358v-8h0zM563 358v-8zM563 358v-8h0zM563 358v-8zM563 358v-8h0zM563 358v-8zM563 358v-8h0zM563 358v-8zM563 359v-9h0zM563 359v-9zM563 359v-9h0zM563 359v-9zM563 360v-10h0zM563 360v-10zM563 360v-10 1zM563 360v-9zM563 360v-9h0zM563 360v-9zM564 361l-1-10h1zM564 361v-10zM564 361v-10h0zM564 361v-10zM564 362v-11h0zM564 378v-5zM564 362v-11zM564 362v-11h0zM564 378v-5 7zM564 380v-9zM564 362v-11zM564 362v-11h0zM564 380v-9 11zM564 382v-13zM564 362v-11zM564 362v-11h0zM564 382v-13 15zM564 384v-17zM564 362v-11zM564 362v-11h0zM564 384v-17 19zM564 386v-21zM564 362v-11zM564 362v-11h0zM564 386v-35 37zM564 388v-37h0zM564 388v-37zM564 388v-37h0zM564 388v-37 41zM564 392v-41h0zM564 392v-41 45zM564 396v-45h0zM564 396v-45 48zM564 399v-48h0zM564 399v-48zM564 399v-48h0zM564 399v-48zM564 399v-48h0zM564 399v-48zM564 399v-48h0zM564 399v-48zM564 399v-48h0zM564 399v-48zM564 399v-48h0zM564 399v-48zM565 399l-1-48h1zM565 399v-48zM565 399v-48 1zM565 399v-47zM565 399v-47h0zM565 399v-47zM565 399v-47h0zM565 399v-47zM565 399v-47h0zM565 399v-47zM565 399v-47h0zM565 399v-47zM566 399l-1-47 1 1zM566 399v-46zM566 399v-46h0zM566 399v-46zM566 399v-46h0zM566 399v-46zM566 399v-46 1zM566 399v-45zM566 399v-45h0zM566 399v-45zM566 399v-45h0zM566 399v-45zM567 399l-1-45 1 1zM567 399v-44zM567 399v-44h0zM567 399v-44zM567 399v-44 1zM567 399v-43zM567 399v-43 1zM567 399v-42zM567 399v-42h0zM567 399v-42zM567 399v-42 1zM567 399v-41zM567 399v-41 1zM567 399v-40zM568 399l-1-40h1zM568 399v-40zM568 399v-40 1zM568 399v-39zM568 399v-39 1zM568 399v-38zM568 399v-38 1zM568 399v-37 34zM568 396v-34h0zM568 396v-34zM568 396v-34 1zM568 396v-33 29zM568 392v-29h0zM568 392v-29 26zM568 389v-26h0zM568 389v-23zM568 389v-23h0zM568 366v-3zM568 366v-3h0zM568 389v-23 19zM568 385v-19 4zM568 366v-3zM568 365v-2h0zM568 385v-15zM568 385v-15h0zM568 365v-2zM568 365v-2h0zM568 385v-15 11zM568 381v-11 4zM568 365v-2zM568 365v-2h0zM568 381v-7zM568 381v-7h0zM568 365v-2zM568 365v-2h0zM568 381v-7 3zM568 365v-2zM568 364v-1h0zM568 364v-1z"/></g><g fill="none" stroke="currentColor" clip-path="url(#clipId0)"><path d="m499 390-4-4-2-4-1-8v-2h20v-2l-1-8-1-4-3-6-4-3-3-1-3 1-3 3-3 3-3 8-1 8 1 4v5l2 8 3 4 5 5 4 2h6l1-4v-2h-4l-4-1z"/><path d="m494 359 3-4 4-1 3 2 2 3 2 6v2h-16v-3z"/></g><g fill="currentColor" stroke="currentColor" clip-path="url(#clipId0)"><path d="M487 374v-2zM487 374v-2zM487 374v-2h0zM487 374v-2l1 3z"/><path d="m488 375-1-3 1-1zM488 375v-4zM488 375v-4h0zM488 375v-4 5zM488 376v-7zM488 376v-7zM488 376v-7h0zM488 376v-7 8zM488 377v-9zM488 377v-9zM488 377v-9h0zM488 377v-9zM488 378v-10h0zM488 378v-10zM488 378v-11zM488 378v-11zM488 378v-11h0zM488 378v-11zM488 379v-13zM488 379v-13zM488 379v-13h0zM488 379v-13zM488 379v-14zM488 379v-14 15zM488 380v-15h0zM488 380v-15zM488 380v-15h0zM488 380v-15zM488 381v-17zM488 381v-17zM488 381v-17h0zM488 381v-17zM488 382v-19zM488 382v-19zM488 382v-19h0zM488 382v-19zM488 382v-19h0zM488 382v-19l1 20z"/><path d="m489 383-1-20 1-1zM489 383v-21zM489 383v-21h0zM489 383v-21zM489 384v-23zM489 384v-23zM489 384v-23h0zM489 384v-23zM489 385v-25zM489 385v-25zM489 385v-25h0zM489 385v-25zM490 386l-1-26 1-1zM490 386v-27zM490 386v-27h0zM490 386v-27zM490 387v-29zM490 387v-29zM490 387v-29h0zM490 387v-29zM490 388v-31zM490 388v-31zM490 388v-31h0zM490 388v-31zM491 389l-1-32 1-1zM491 389v-33zM491 389v-33h0zM491 389v-33zM491 389v-34zM491 389v-34zM491 390v-35h0zM491 390v-35zM492 390l-1-35h1zM492 390v-35zM492 390v-36zM492 390v-17zM492 390v-17h0zM492 373v-19 18zM492 372v-18h0zM492 390v-17zM492 390v-17 1zM492 372v-18zM492 372v-18h0zM492 390v-16zM492 391v-17h0zM492 372v-18zM492 372v-18h0zM492 391v-17zM492 391v-17 1zM492 372v-18zM492 372v-18h0zM492 391v-16zM492 391v-16 1zM492 372v-18zM492 372v-18h0zM492 391v-15zM492 391v-15h0zM492 372v-18zM492 372v-18h0zM492 391v-15zM492 391v-15 2zM492 372v-18zM492 372v-18h0zM492 391v-13zM492 391v-13h0zM492 372v-18zM492 372v-18h0zM492 391v-13zM492 391v-13 1zM492 372v-18zM492 372v-19zM492 391v-12zM492 391v-12h0zM492 372v-19zM492 372v-19h0zM492 391v-12zM493 392l-1-13 1 1zM492 372v-19zM493 372l-1-19h1zM493 392v-12zM493 392v-12h0zM493 372v-19zM493 372v-19h0zM493 392v-12zM493 392v-12 1zM493 372v-19zM493 372v-19h0zM493 392v-11zM493 392v-11h0zM493 372v-19zM493 372v-19h0zM493 392v-11zM493 392v-11h0zM493 372v-19zM493 372v-19h0zM493 392v-11zM493 393v-12 1zM493 372v-19zM493 372v-20zM493 393v-11zM493 393v-11 1zM493 372v-20zM493 372v-20h0zM493 393v-10zM493 393v-10h0zM493 372v-20zM493 372v-20h0zM493 393v-10zM493 393v-10h0zM493 372v-20zM493 372v-20h0zM493 393v-10zM494 393l-1-10 1 1zM493 372v-20zM494 372l-1-20h1zM494 393v-9zM494 393v-9h0zM494 372v-20zM494 372v-20h0zM494 393v-9zM494 393v-9h0zM494 372v-20zM494 372v-21zM494 393v-9zM494 393v-9 1zM494 372v-21zM494 372v-21h0zM494 393v-8zM494 394v-9h0zM494 372v-21zM494 372v-21h0zM494 394v-9zM494 394v-9h0zM494 372v-21zM494 372v-21h0zM494 394v-9zM494 394v-9h0zM494 372v-21zM494 372v-21h0zM494 394v-9zM495 394l-1-9 1 1zM494 372v-21zM495 372l-1-21h1zM495 394v-8zM495 394v-8h0zM495 372v-21zM495 372v-22zM495 394v-8zM495 395v-9h0zM495 372v-22zM495 372v-22h0zM495 395v-9zM495 395v-9 1zM495 372v-22zM495 372v-22h0zM495 395v-8zM495 395v-8h0zM495 372v-22zM495 372v-22h0zM495 395v-8zM495 395v-8h0zM495 372v-22zM495 372v-22h0zM495 395v-8zM496 395l-1-8h1zM495 372v-22zM496 372l-1-22h1zM496 395v-8zM496 395v-8 1zM496 372v-22zM496 372v-22h0zM496 395v-7zM496 395v-7h0zM496 372v-22zM496 372v-22h0zM496 395v-7zM496 395v-7h0zM496 372v-22zM496 372v-23zM496 395v-7zM496 396v-8h0zM496 372v-23zM496 372v-23h0zM496 396v-8zM497 396l-1-8 1 1zM496 372v-23zM497 372l-1-23h1zM497 396v-7zM497 396v-7h0zM497 372v-23zM497 372v-23h0zM497 396v-7zM497 396v-7h0zM497 372v-23zM497 372v-23h0zM497 396v-7zM497 396v-7h0zM497 372v-23zM497 372v-23h0zM497 396v-7zM497 397v-8 1zM497 372v-23zM497 372v-23h0zM497 397v-7zM497 397v-7h0zM497 372v-23zM497 372v-23h0zM497 397v-7zM498 397l-1-7h1zM497 372v-23zM498 372l-1-23h1zM498 397v-7zM498 397v-7h0zM498 372v-23zM498 372v-23h0zM498 397v-7zM498 397v-7h0zM498 372v-23zM498 372v-23h0zM498 397v-7zM498 397v-7h0zM498 372v-23zM498 372v-23h0zM498 397v-7zM499 397l-1-7h1zM498 372v-23zM499 372l-1-23 1-1zM499 397v-7zM499 397v-7 1zM499 372v-24zM499 372v-24h0zM499 397v-6zM499 397v-6h0zM499 372v-24zM499 372v-24h0zM499 397v-6zM499 397v-6h0zM499 372v-24zM499 372v-24h0zM499 397v-6zM499 398v-7h0zM499 372v-24zM499 372v-24h0zM499 398v-7zM499 398v-7h0zM499 372v-24zM499 372v-24h0zM499 398v-7zM500 398l-1-7h1zM499 372v-24zM500 372l-1-24h1zM500 398v-7zM500 398v-7h0zM500 372v-24zM500 372v-24h0zM500 398v-7zM500 398v-7h0zM500 372v-24zM500 372v-24h0zM500 398v-7zM500 398v-7h0zM500 372v-24zM500 372v-24h0zM500 398v-7zM501 398l-1-7 1 1zM500 372v-24zM501 372l-1-24h1zM501 398v-6zM501 398v-6h0zM501 372v-24zM501 372v-24h0zM501 398v-6zM501 398v-6h0zM501 372v-24zM501 372v-24h0zM501 398v-6zM501 398v-6h0zM501 372v-24zM501 372v-24h0zM501 398v-6zM501 398v-6h0zM501 372v-24zM501 372v-24h0zM501 398v-6zM502 398l-1-6h1zM501 372v-24zM502 372l-1-24 1 1zM502 398v-6zM502 399v-7h0zM502 372v-23zM502 372v-23h0zM502 399v-7zM502 399v-7h0zM502 372v-23zM502 372v-23h0zM502 399v-7zM502 399v-7h0zM502 372v-23zM502 372v-23h0zM502 399v-7zM503 399l-1-7h1zM502 372v-23zM503 372l-1-23h1zM503 399v-7zM503 399v-7h0zM503 372v-23zM503 372v-23h0zM503 399v-7zM503 399v-7h0zM503 372v-23zM503 372v-23h0zM503 399v-7zM503 399v-7 1zM503 372v-23zM503 372v-23h0zM503 399v-6zM503 399v-6h0zM503 372v-23zM503 372v-23h0zM503 399v-6zM504 399l-1-6h1zM503 372v-23zM504 372l-1-23h1zM504 399v-6zM504 399v-6h0zM504 372v-23zM504 372v-23 1zM504 399v-6zM504 399v-6h0zM504 372v-22zM504 372v-22h0zM504 399v-6zM504 399v-6h0zM504 372v-22zM504 372v-22h0zM504 399v-6zM504 399v-6h0zM504 372v-22zM504 372v-22h0zM504 399v-6zM504 399v-6h0zM504 372v-22zM504 372v-22h0zM504 399v-6zM505 399l-1-6h1zM504 372v-22zM505 372l-1-22h1zM505 399v-6zM505 399v-6h0zM505 372v-22zM505 372v-22h0zM505 399v-6zM505 399v-6h0zM505 372v-22zM505 372v-22h0zM505 399v-6zM505 399v-6h0zM505 372v-22zM505 372v-22 1zM505 399v-6zM505 399v-6h0zM505 372v-21zM505 372v-21h0zM505 399v-6zM506 399l-1-6h1zM505 372v-21zM506 372l-1-21h1zM506 399v-6zM506 399v-6h0zM506 372v-21zM506 372v-21h0zM506 399v-6zM506 399v-6h0zM506 372v-21zM506 372v-21h0zM506 399v-6zM506 399v-6h0zM506 372v-21zM506 372v-21h0zM506 399v-6zM506 399v-6h0zM506 372v-21zM506 372v-21 1zM506 399v-6zM506 399v-6h0zM506 372v-20zM506 372v-20h0zM506 399v-6zM507 399l-1-6h1zM506 372v-20zM507 372l-1-20h1zM507 399v-6zM507 399v-6h0zM507 372v-20zM507 372v-20h0zM507 399v-6zM507 399v-6h0zM507 372v-20zM507 372v-20 1zM507 399v-6zM507 399v-6h0zM507 372v-19zM507 372v-19h0zM507 399v-6zM507 399v-6h0zM507 372v-19zM507 372v-19h0zM507 399v-6zM508 399l-1-6h1zM507 372v-19zM508 372l-1-19 1 1zM508 399v-6zM508 399v-6h0zM508 372v-18zM508 372v-18h0zM508 399v-6zM508 399v-6h0zM508 372v-18zM508 372v-18h0zM508 399v-6zM508 399v-6h0zM508 372v-18zM508 372v-18h0zM508 399v-6zM508 399v-6h0zM508 372v-18zM508 372v-18 1zM508 399v-6zM509 399l-1-6h1zM508 372v-17zM509 372l-1-17h1zM509 399v-6zM509 399v-6h0zM509 372v-17zM509 372v-17h0zM509 399v-5zM509 399v-5h0zM509 372v-17zM509 372v-17h0zM509 399v-5zM509 399v-5 1zM509 372v-17zM509 372v-17h0zM509 399v-4zM509 399v-4h0zM509 372v-17zM509 372v-17h0zM509 399v-4zM509 398v-3h0zM509 372v-17zM509 372v-17h0zM509 398v-3zM509 398v-3 1zM509 372v-17zM509 372v-17h0zM509 398v-2zM509 398v-2h0zM509 372v-17zM509 372v-17h0zM509 398v-2zM509 397zM509 372v-17zM509 372v-17h0zM509 397zM509 372v-17zM509 372v-17h0zM509 372v-17zM509 372v-17 1zM509 372v-16zM509 372v-16 1zM509 372v-15zM510 372l-1-15 1 1zM510 372v-14zM510 372v-14 1zM510 372v-13zM510 372v-13 1zM510 372v-12zM511 372l-1-12h1zM511 372v-12zM511 372v-12 1zM511 372v-11zM511 372v-11 1zM511 372v-10zM511 372v-10 1zM511 372v-9zM512 372l-1-9 1 1zM512 372v-8zM512 372v-8 2zM512 372v-6zM512 372v-6 1zM512 372v-5zM512 372v-5 1zM512 372v-4zM512 372v-4 2zM512 372v-2zM512 372v-2 1zM512 372v-1h0z"/></g><g fill="none" stroke="currentColor" clip-path="url(#clipId0)"><path d="M601 368v-4l-2-5-2-4-3-4-3-2h-5l-4 3-2 2-3 6-2 9v9l1 7 2 6 2 4 3 3 4 2 5-1 3-2 2-3 3-6 1-7z"/><path d="m596 385-2 5-4 4h-4l-3-2-2-5-2-10 1-11 1-5 1-2 1-1 2-2 3-2 4 2 2 3 1 3 2 7 1 6z"/></g><g fill="currentColor" stroke="currentColor" clip-path="url(#clipId0)"><path d="M575 377v-4zM575 377v-4zM575 377v-4h0zM575 377v-4zM575 378v-6zM575 378v-6zM575 379v-8zM575 379v-8zM575 379v-8h0zM575 379v-8 9zM575 380v-11zM575 380v-11zM575 380v-11h0zM575 380v-11 13zM575 382v-14zM575 382v-14zM575 382v-15zM575 382v-15 16zM575 383v-17zM575 383v-17l1 18z"/><path d="m576 384-1-18 1-1zM576 384v-19zM576 385v-21zM576 385v-21zM576 386v-23zM576 386v-23zM576 386v-23h0zM576 386v-23 24zM576 387v-26zM576 387v-26zM577 388l-1-27h1zM577 388v-27zM577 389v-29zM577 389v-29zM577 389v-29h0zM577 389v-29zM577 389v-30zM577 389v-30 31zM577 390v-31h0zM577 390v-31zM577 390v-32zM577 390v-32zM578 391l-1-33h1zM578 391v-33zM578 391v-33h0zM578 391v-33zM578 391v-34zM578 391v-34 35zM578 392v-35h0zM578 392v-35zM578 392v-35h0zM578 392v-35zM579 393l-1-36 1-1zM579 393v-37zM579 393v-37h0zM579 393v-37zM579 394v-39zM579 394v-39zM579 394v-39h0zM579 394v-39zM579 394v-40zM579 394v-40zM580 395l-1-41h1zM580 395v-41zM580 395v-41h0zM580 395v-41zM580 396v-43zM580 396v-43zM580 396v-43h0zM580 396v-43zM581 396l-1-43 1-1zM581 396v-44zM581 396v-44h0zM581 396v-44zM581 397v-45h0zM581 397v-45zM581 397v-45h0zM581 397v-45zM582 397l-1-45h1zM582 397v-45zM582 398v-47zM582 398v-47zM582 398v-47h0zM582 398v-47zM583 398l-1-47h1zM583 398v-47zM583 398v-47h0zM583 398v-47zM583 398v-47h0zM583 398v-47zM583 399v-49zM583 399v-49zM583 399v-49h0zM583 399v-49zM584 399l-1-49h1zM584 399v-49zM584 399v-49h0zM584 399v-49zM585 399l-1-49 1-1zM585 399v-50zM585 399v-50h0zM585 399v-50zM585 400v-51h0zM585 400v-51zM585 400v-51h0zM585 400v-51zM586 400l-1-51h1zM586 400v-51zM586 400v-51h0zM586 400v-51zM586 400v-51h0zM586 400v-51zM587 400l-1-51h1zM587 400v-51zM587 400v-51h0zM587 400v-51zM587 400v-51h0zM587 400v-51zM588 400l-1-51h1zM588 400v-51zM588 400v-51h0zM588 400v-51zM588 400v-51h0zM588 400v-51zM588 400v-51h0zM588 400v-51zM589 400l-1-51h1zM589 400v-51zM589 400v-51h0zM589 400v-51zM589 400v-51h0zM589 400v-51zM589 400v-51h0zM589 400v-51zM590 400l-1-51h1zM590 400v-51zM590 400v-51h0zM590 400v-51zM591 400l-1-51h1zM591 400v-51zM591 400v-51h0zM591 400v-51zM591 400v-51h0zM591 400v-51zM591 400v-51h0zM591 400v-51zM592 399l-1-50h1zM592 399v-50zM592 399v-50h0zM592 399v-50zM592 399v-50 1zM592 399v-49zM592 399v-49h0zM592 399v-49zM593 399l-1-49h1zM593 399v-49zM593 399v-49h0zM593 399v-49zM593 398v-48h0zM593 398v-48zM594 398l-1-48 1 1zM594 398v-47zM594 398v-47h0zM594 398v-47zM594 398v-47h0zM594 398v-47zM594 398v-47h0zM594 398v-47zM595 397l-1-46 1 1zM595 397v-45zM595 397v-45h0zM595 397v-45zM595 397v-45h0zM595 397v-45zM595 397v-45h0zM595 397v-45l1 44z"/><path d="m596 396-1-44 1 1zM596 396v-43zM596 396v-43h0zM596 396v-43zM596 395v-42h0zM596 395v-42zM596 395v-42 1zM596 395v-41zM596 395v-41h0zM596 395v-41zM597 394l-1-40h1zM597 394v-40zM597 394v-40 1zM597 394v-39zM597 394v-39h0zM597 394v-39zM597 394v-39h0zM597 394v-39zM597 393v-38h0zM597 393v-38zM598 393l-1-38 1 1zM598 393v-37zM598 393v-37h0zM598 393v-37zM598 393v-37h0zM598 393v-37 36zM598 392v-36 1zM598 392v-35zM598 391v-34 1zM598 391v-33zM599 391l-1-33h1zM599 391v-33 32zM599 390v-32 1zM599 390v-31zM599 390v-31h0zM599 390v-31 30zM599 389v-30 1zM599 389v-29zM599 389v-29h0zM599 389v-29l1 28z"/><path d="m600 388-1-28 1 1zM600 388v-27zM600 387v-26 1zM600 387v-25zM600 387v-25h0zM600 387v-25 24zM600 386v-24 1zM600 386v-23zM600 386v-23h0zM600 386v-23l1 22z"/><path d="m601 385-1-22 1 1zM601 385v-21zM601 385v-21h0zM601 385v-21 20zM601 384v-20 1zM601 384v-19zM601 383v-18 1zM601 383v-17zM601 383v-17h0zM601 383v-17zM601 382v-16 1zM601 382v-15zM601 382v-15h0zM601 382v-15 14zM601 381v-14 1zM601 381v-13zM601 380v-12h0zM601 380v-12zM601 380v-12 1zM601 380v-11l1 10z"/><path d="m602 379-1-10 1 1zM602 379v-9 8zM602 378v-8h0zM602 378v-8zM602 377v-7 1zM602 377v-6zM602 376v-5 1zM602 376v-4zM602 375v-3 1zM602 375v-2 1z"/></g><g fill="none" stroke="currentColor" clip-path="url(#clipId0)"><path d="M454 411V253h158v158z"/></g></svg>