<svg xmlns="http://www.w3.org/2000/svg" viewBox="0 0 800 600"><desc>Produce by Acme CAD Converter</desc><path fill="none" stroke="currentColor" stroke-width=".5" d="M100 600h298M402 600h298M700 600V302ZM700 298V0ZM700 0H402M398 0H100M100 0v298ZM100 302v298ZM398 200H249M249 200h-37M212 200h-4M208 200h-1M207 200h-1M206 200h-1M205 200l-1 1M204 201h-1M203 201v1M203 202h-1M202 202v1M202 203h-1M201 203v1M201 204l-1 1M200 205v1M200 206v1M200 207ZM200 207zM200 208zM200 209v18ZM200 227v38ZM200 265v18ZM200 283v10ZM200 293v4ZM200 297zM200 298ZM200 298ZM200 298ZM200 298ZM200 298h-1M199 298h-3M196 298h-74M122 298h-19M103 298h-2M101 298h-1M100 298ZM100 298ZM100 298v-1ZM100 297v-5ZM100 292v-9ZM100 283v-37ZM100 246V97ZM100 97V23ZM100 23V4ZM100 4V2ZM100 2V1ZM100 1zM100 0ZM100 0ZM100 0ZM100 0ZM100 0ZM100 0h1M101 0h4M105 0h10M115 0h37M152 0h149M301 0h74M375 0h19M394 0h2M396 0h1M397 0h1M398 0ZM398 0ZM398 0ZM398 0v5ZM398 5v9ZM398 14v37ZM398 51v149ZM600 298h74M674 298h19M693 298h5M698 298h2M700 298ZM700 298ZM700 298ZM700 298ZM700 298ZM700 298ZM700 298zM700 297v-1ZM700 296v-9ZM700 287v-38ZM700 249V101ZM700 101V26ZM700 26V8ZM700 8V3ZM700 3V1ZM700 1zM700 0ZM700 0ZM700 0h-1M699 0h-1M698 0h-9M689 0h-37M652 0H503M503 0h-74M429 0h-19M410 0h-5M405 0h-2M403 0h-1M402 0ZM402 0ZM402 0ZM402 0ZM402 0ZM402 0ZM402 0v1ZM402 1v9ZM402 10v38ZM402 48v148ZM402 196v3ZM402 199zM402 200ZM402 200ZM402 200ZM402 200ZM402 200ZM402 200h1M403 200h4M407 200h10M417 200h18M435 200h38M473 200h74M547 200h37M584 200h5M589 200h2M591 200h1M592 200h1M593 200h1M594 200h1M595 200l1 1M596 201h1M597 201v1M597 202h1M598 202v1M598 203h1M599 203v1M599 204l1 1M600 205v1M600 206v1M600 207zM600 208v2ZM600 210v5ZM600 215v9ZM600 224v74ZM402 400h149M551 400h37M588 400h4M592 400h1M593 400h1M594 400h1M595 400l1-1M596 399h1M597 399v-1M597 398h1M598 398v-1M598 397h1M599 397v-1M599 396l1-1M600 395v-1M600 394v-1M600 393ZM600 393zM600 392zM600 391v-18ZM600 373v-38ZM600 335v-18ZM600 317v-10ZM600 307v-4ZM600 303zM600 302ZM600 302ZM600 302ZM600 302ZM600 302h1M601 302h3M604 302h74M678 302h19M697 302h2M699 302h1M700 302ZM700 302ZM700 302v1ZM700 303v5ZM700 308v9ZM700 317v37ZM700 354v149ZM700 503v74ZM700 577v19ZM700 596v2ZM700 598v2ZM700 600ZM700 600ZM700 600ZM700 600ZM700 600ZM700 600ZM700 600h-1M699 600h-4M695 600h-10M685 600h-37M648 600H499M499 600h-74M425 600h-19M406 600h-2M404 600h-1M403 600h-1M402 600ZM402 600ZM402 600ZM402 600v-5ZM402 595v-9ZM402 586v-37ZM402 549V400ZM200 302h-74M126 302h-19M107 302h-5M102 302h-2M100 302ZM100 302ZM100 302ZM100 302ZM100 302ZM100 302ZM100 302zM100 303v1ZM100 304v9ZM100 313v38ZM100 351v148ZM100 499v75ZM100 574v18ZM100 592v5ZM100 597v2ZM100 599zM100 600ZM100 600ZM100 600h1M101 600h1M102 600h9M111 600h37M148 600h149M297 600h74M371 600h19M390 600h5M395 600h2M397 600h1M398 600ZM398 600ZM398 600ZM398 600ZM398 600ZM398 600ZM398 600v-1ZM398 599v-9ZM398 590v-38ZM398 552V404ZM398 404v-3ZM398 401zM398 400ZM398 400ZM398 400ZM398 400ZM398 400ZM398 400h-1M397 400h-4M393 400h-10M383 400h-18M365 400h-38M327 400h-74M253 400h-37M216 400h-5M211 400h-2M209 400h-1M208 400h-1M207 400h-1M206 400h-1M205 400l-1-1M204 399h-1M203 399v-1M203 398h-1M202 398v-1M202 397h-1M201 397v-1M201 396l-1-1M200 395v-1M200 394v-1M200 393zM200 392v-2ZM200 390v-5ZM200 385v-9ZM200 376v-74ZM207 204h292M499 204h73M572 204h18M590 204h2M592 204h1M593 204h1M594 204h1M595 204v1M595 205h1M596 205v1M596 206v1M596 207ZM596 207v10ZM596 217v36ZM596 253v73ZM596 326v36ZM596 362v19ZM596 381v9ZM596 390v2ZM596 392zM596 393ZM596 393ZM596 393v1M596 394v1M596 395h-1M595 395v1M595 396h-1M594 396h-1M593 396H301M301 396h-73M228 396h-18M210 396h-2M208 396h-1M207 396h-1M206 396h-1M205 396v-1M205 395h-1M204 395v-1M204 394v-1M204 393ZM204 393v-9ZM204 384v-37ZM204 347v-73ZM204 274v-36ZM204 238v-19ZM204 219v-9ZM204 210v-2ZM204 208zM204 207ZM204 207ZM204 207v-1M204 206v-1M204 205h1M205 205v-1M205 204h1M206 204h1M241 138h8M249 138h1M250 138h1M251 138h1M252 138v1M252 139h1M253 139v1M253 140v1M253 141ZM253 141ZM253 141ZM253 141ZM253 141ZM253 141ZM253 141zM254 141ZM254 141ZM254 141ZM254 141ZM254 141ZM254 141ZM254 141v8ZM254 149ZM254 149zM254 150ZM254 150ZM254 150ZM254 150ZM254 150ZM254 150ZM254 150zM253 150ZM253 150ZM253 150ZM253 150zM253 151ZM253 151ZM253 151v1M253 152h-1M252 152v1M252 153h-1M251 153h-1M250 153v1M250 154h-7M243 154h-1M242 154h-1M241 154v-1M241 153h-1M240 153h-1M239 153v-1M239 152h-1M238 152v-1M238 151ZM238 151ZM238 151zM238 150ZM238 150ZM238 150ZM238 150ZM238 150ZM238 150ZM238 150ZM238 150ZM238 150ZM238 150ZM238 150v-7ZM238 143v-1ZM238 142zM238 141ZM238 141ZM238 141ZM238 141ZM238 141ZM238 141ZM238 141ZM238 141ZM238 141ZM238 141ZM238 141ZM238 141ZM238 141ZM238 141v-1M238 140v-1M238 139h1M239 139v-1M239 138h1M240 138h1M550 138h7M557 138h1M558 138h1M559 138h1M560 138l1 1M561 139v1M561 140h1M562 140v1M562 141ZM562 141ZM562 141ZM562 141ZM562 141ZM562 141ZM562 141ZM562 141ZM562 141ZM562 141ZM562 141ZM562 141ZM562 141ZM562 141v8ZM562 149ZM562 149zM562 150ZM562 150ZM562 150ZM562 150ZM562 150ZM562 150ZM562 150ZM562 150ZM562 150ZM562 150ZM562 150zM562 151ZM562 151ZM562 151h-1M561 151v1M561 152v1M561 153h-1M560 153h-1M559 153v1M559 154h-1M558 154h-7M551 154h-1M550 154h-1M549 154v-1M549 153h-1M548 153h-1M547 153v-1M547 152h-1M546 152v-1M546 151ZM546 151ZM546 151zM546 150ZM546 150ZM546 150ZM546 150ZM546 150ZM546 150ZM546 150ZM546 150ZM546 150ZM546 150ZM546 150v-7ZM546 143v-1ZM546 142zM546 141ZM546 141ZM546 141ZM546 141ZM546 141ZM546 141ZM546 141ZM546 141ZM546 141ZM546 141ZM546 141ZM546 141ZM546 141ZM546 141v-1M546 140v-1M546 139h1M547 139v-1M547 138h1M548 138h1M549 138h1M550 446h7M557 446h1M558 446h1M559 446h1M560 446v1M560 447h1M561 447v1M561 448h1M562 448v1M562 449ZM562 449ZM562 449ZM562 449ZM562 449ZM562 449ZM562 449ZM562 449ZM562 449ZM562 449ZM562 449ZM562 449ZM562 449zM562 450v7ZM562 457zM562 458ZM562 458ZM562 458ZM562 458ZM562 458ZM562 458ZM562 458zM562 459ZM562 459ZM562 459ZM562 459ZM562 459ZM562 459ZM562 459ZM562 459v1M562 460h-1M561 460v1M561 461h-1M560 461v1M560 462h-1M559 462h-1M558 462h-7M551 462h-1M550 462h-1M549 462h-1M548 462v-1M548 461h-1M547 461v-1M547 460h-1M546 460v-1M546 459ZM546 459ZM546 459ZM546 459ZM546 459ZM546 459ZM546 459ZM546 459ZM546 459zM546 458ZM546 458ZM546 458ZM546 458ZM546 458v-7ZM546 451v-1ZM546 450ZM546 450zM546 449ZM546 449ZM546 449ZM546 449ZM546 449ZM546 449ZM546 449ZM546 449ZM546 449ZM546 449ZM546 449ZM546 449ZM546 449v-1M546 448h1M547 448v-1M547 447h1M548 447v-1M548 446h1M549 446h1M241 446h8M249 446h1M250 446h1M251 446h1M252 446v1M252 447h1M253 447v1M253 448v1M253 449ZM253 449ZM253 449ZM253 449ZM253 449ZM253 449ZM253 449zM254 449ZM254 449ZM254 449ZM254 449ZM254 449ZM254 449zM254 450v7ZM254 457zM254 458ZM254 458ZM254 458ZM254 458ZM254 458ZM254 458ZM254 458zM254 459zM253 459ZM253 459ZM253 459ZM253 459ZM253 459ZM253 459ZM253 459v1M253 460v1M253 461h-1M252 461h-1M251 461v1M251 462h-1M250 462h-7M243 462h-1M242 462h-1M241 462h-1M240 462v-1M240 461h-1M239 461h-1M238 461v-1M238 460v-1M238 459ZM238 459ZM238 459ZM238 459ZM238 459ZM238 459ZM238 459ZM238 459ZM238 459zM238 458ZM238 458ZM238 458ZM238 458ZM238 458v-7ZM238 451v-1ZM238 450ZM238 450zM238 449ZM238 449ZM238 449ZM238 449ZM238 449ZM238 449ZM238 449ZM238 449ZM238 449ZM238 449ZM238 449ZM238 449ZM238 449v-1M238 448v-1M238 447h1M239 447v-1M239 446h1M240 446h1M241 446"/></svg>