<?xml version="1.0" standalone="no"?>
<svg viewBox="0 0 1024 768" version="1.1" xmlns="http://www.w3.org/2000/svg" xmlns:xlink="http://www.w3.org/1999/xlink" stroke-linecap="round" stroke-linejoin="round" fill-rule="evenodd" xml:space="preserve" style="background-color:transparent;" >
<defs >
<style >g[clip-path] > * {vector-effect: non-scaling-stroke;}</style>
<clipPath id="clipId0" >
<path d="M0,768 1024,768 1024,0 0,0 z" />
</clipPath>
</defs>
<g clip-path="url(#clipId0)" fill="none" stroke="rgb(255,255,255)" stroke-width="1px" />
<g clip-path="url(#clipId0)" fill="none" stroke="rgb(255,255,255)" stroke-width="1px" >
<polyline points="1013.96,245.961 10.0392,245.961 10.0392,195.765 1013.96,195.765 1013.96,101.647 10.0392,101.647 10.0392,666.353 1013.96,666.353 1013.96,195.765 " />
<polyline points="1013.96,666.353 1013.96,572.235 10.0392,572.235 " />
<polyline points="10.0392,522.039 1013.96,522.039 " />
<polyline points="344.68,101.647 344.68,195.765 " />
<polyline points="679.32,101.647 679.32,195.765 " />
<polyline points="344.68,572.235 344.68,666.353 " />
<polyline points="679.32,572.235 679.32,666.353 " />
<polyline points="46.2265,270.147 61.6951,259.421 " />
<polyline points="83.8735,270.147 99.3422,259.421 " />
<polyline points="715.508,502.304 730.976,491.578 " />
<polyline points="753.155,502.304 768.623,491.578 " />
<polyline points="924.658,502.304 940.126,491.578 " />
<polyline points="962.305,502.304 977.774,491.578 " />
<polyline points="72.0622,406.813 72.0622,359.754 72.0622,312.695 147.356,312.695 147.356,406.813 72.0622,406.813 " />
<polyline points="323.043,410.348 197.552,410.348 197.552,284.857 323.043,284.857 323.043,410.348 " />
<polyline points="982.588,406.813 982.588,359.754 982.588,312.695 907.294,312.695 907.294,406.813 982.588,406.813 " />
<polyline points="641.673,310.433 641.673,319.938 641.673,381.72 383.799,381.72 383.799,310.433 641.673,310.433 " />
<polyline points="887.011,502.304 902.479,491.578 " />
<polyline points="53.9608,148.706 53.9608,67.1373 " />
<polyline points="91.6078,148.706 91.6078,67.1373 " />
<polyline points="723.242,619.294 723.242,700.863 " />
<polyline points="760.889,619.294 760.889,700.863 " />
<polyline points="894.745,619.294 894.745,700.863 " />
<polyline points="932.392,619.294 932.392,700.863 " />
<polyline points="970.039,619.294 970.039,700.863 " />
<polyline points="197.552,410.348 197.552,284.857 323.043,284.857 323.043,410.348 197.552,410.348 " />
<circle cx="53.9608" cy="148.706" r="12.549" />
<circle cx="91.6078" cy="148.706" r="12.549" />
<circle cx="970.039" cy="619.294" r="12.549" />
<circle cx="932.392" cy="619.294" r="12.549" />
<circle cx="760.889" cy="619.294" r="12.549" />
<circle cx="723.242" cy="619.294" r="12.549" />
<circle cx="53.9608" cy="264.784" r="9.41176" />
<circle cx="91.6078" cy="264.784" r="9.41176" />
<circle cx="723.242" cy="496.941" r="9.41176" />
<circle cx="760.889" cy="496.941" r="9.41176" />
<circle cx="932.392" cy="496.941" r="9.41176" />
<circle cx="970.039" cy="496.941" r="9.41176" />
</g>
<g clip-path="url(#clipId0)" fill="rgb(255,255,255)" stroke="rgb(255,255,255)" stroke-width="1px" >
<text transform="matrix(22.409 0 -0 22.409 44.549 276.75)" font-family=",&apos;sans-serif&apos;" font-size="1.39636" style="font-family: arial.ttf" >N</text>
<text transform="matrix(22.409 0 -0 22.409 82.1961 276.75)" font-family=",&apos;sans-serif&apos;" font-size="1.39636" style="font-family: arial.ttf" >L</text>
<text transform="matrix(11.2045 0 -0 11.2045 113.515 257.642)" font-family=",&apos;sans-serif&apos;" font-size="1.39636" style="font-family: arial.ttf" >230 V AC</text>
</g>
<g clip-path="url(#clipId0)" fill="none" stroke="rgb(255,255,255)" stroke-width="1px" >
<circle cx="843.874" cy="359.754" r="9.41176" />
</g>
<g clip-path="url(#clipId0)" fill="rgb(255,255,255)" stroke="rgb(255,255,255)" stroke-width="1px" >
<text transform="matrix(11.2045 0 -0 11.2045 394.321 318.626)" font-family=",&apos;sans-serif&apos;" font-size="1.39636" style="font-family: arial.ttf" >POWER SUPPLY</text>
<text transform="matrix(11.2045 0 -0 11.2045 394.321 338.742)" font-family=",&apos;sans-serif&apos;" font-size="1.39636" style="font-family: arial.ttf" >INPUT 200-240 VAC 50 Hz</text>
<text transform="matrix(11.2045 0 -0 11.2045 394.321 358.858)" font-family=",&apos;sans-serif&apos;" font-size="1.39636" style="font-family: arial.ttf" >OUTPUT 24VAC / 1.85 A</text>
<text transform="matrix(16.8067 0 -0 16.8067 595.998 355.292)" font-family=",&apos;sans-serif&apos;" font-size="1.39636" style="font-family: arial.ttf" >CE</text>
</g>
<g clip-path="url(#clipId0)" fill="none" stroke="rgb(255,255,255)" stroke-width="1px" >
<circle cx="894.745" cy="619.294" r="12.549" />
<circle cx="894.745" cy="496.941" r="9.41176" />
</g>
<g clip-path="url(#clipId0)" fill="rgb(255,255,255)" stroke="rgb(255,255,255)" stroke-width="1px" >
<text transform="matrix(11.2045 0 -0 11.2045 782.796 490.406)" font-family=",&apos;sans-serif&apos;" font-size="1.39636" style="font-family: arial.ttf" >OUT</text>
<text transform="matrix(11.2045 0 -0 11.2045 846.949 490.406)" font-family=",&apos;sans-serif&apos;" font-size="1.39636" style="font-family: arial.ttf" >CAN</text>
<text transform="matrix(16.8067 0 -0 16.8067 714.798 449.937)" font-family=",&apos;sans-serif&apos;" font-size="1.39636" style="font-family: arial.ttf" >24V AC</text>
<text transform="matrix(16.8067 0 -0 16.8067 890.079 449.937)" font-family=",&apos;sans-serif&apos;" font-size="1.39636" style="font-family: arial.ttf" >0</text>
<text transform="matrix(16.8067 0 -0 16.8067 926.108 449.937)" font-family=",&apos;sans-serif&apos;" font-size="1.39636" style="font-family: arial.ttf" >1</text>
<text transform="matrix(16.8067 0 -0 16.8067 964.931 449.937)" font-family=",&apos;sans-serif&apos;" font-size="1.39636" style="font-family: arial.ttf" >2</text>
</g>
<g clip-path="url(#clipId0)" fill="none" stroke="rgb(255,255,255)" stroke-width="1px" >
<polyline points="211.76,289.06 211.656,289.059 211.449,289.057 211.241,289.056 211.032,289.055 210.824,289.054 210.615,289.053 210.407,289.053 210.198,289.054 209.989,289.055 209.78,289.055 209.571,289.055 209.363,289.055 209.155,289.054 208.948,289.053 208.741,289.051 208.534,289.049 208.43,289.048 208.428,289.048 208.422,289.048 208.417,289.048 208.411,289.048 208.406,289.048 208.401,289.048 208.395,289.048 208.39,289.048 208.387,289.048 208.394,289.381 208.404,290.048 208.413,290.714 208.419,291.38 208.424,292.046 208.426,292.712 208.426,293.378 208.424,294.044 208.42,294.709 208.416,295.375 208.414,296.041 208.412,296.706 208.412,297.373 208.412,298.039 208.412,298.705 208.414,299.372 208.415,299.705 208.415,301.658 208.416,305.562 208.416,309.467 208.416,313.371 208.417,317.275 208.418,321.178 208.419,325.082 208.42,328.985 208.422,332.888 208.423,336.791 208.423,340.693 208.423,344.596 208.422,348.498 208.421,352.401 208.419,356.303 208.417,360.205 208.415,362.156 208.31,362.158 208.1,362.16 207.89,362.162 207.679,362.163 207.468,362.164 207.257,362.164 207.046,362.164 206.834,362.164 206.622,362.163 206.41,362.162 206.198,362.162 205.985,362.163 205.773,362.164 205.561,362.165 205.348,362.167 205.136,362.169 205.03,362.17 205.03,362.404 205.03,362.872 205.03,363.34 205.03,363.807 205.03,364.275 205.03,364.743 205.03,365.211 205.03,365.678 205.03,365.912 205.241,365.912 205.664,365.912 206.088,365.912 206.511,365.912 206.934,365.912 207.357,365.912 207.781,365.912 208.204,365.912 208.415,365.912 208.417,366.534 208.419,367.779 208.421,369.025 208.422,370.27 208.423,371.515 208.423,372.761 208.423,374.007 208.422,375.253 208.42,376.5 208.419,377.746 208.418,378.993 208.417,380.239 208.416,381.486 208.416,382.732 208.416,383.979 208.415,385.226 208.415,385.849 208.414,385.965 208.412,386.209 208.411,386.469 208.41,386.742 208.411,387.031 208.412,387.334 208.413,387.651 208.416,387.984 208.419,388.33 208.428,388.676 208.443,389.022 208.464,389.367 208.491,389.711 208.524,390.055 208.563,390.398 208.608,390.741 208.658,391.083 208.71,391.411 208.764,391.723 208.818,392.021 208.874,392.304 208.931,392.573 208.989,392.826 209.049,393.065 209.079,393.177 209.106,393.281 209.169,393.503 209.239,393.737 209.318,393.983 209.405,394.241 209.5,394.512 209.603,394.796 209.714,395.092 209.833,395.4 209.963,395.702 210.105,395.998 210.257,396.288 210.421,396.571 210.595,396.849 210.781,397.12 210.978,397.385 211.185,397.644 211.389,397.889 211.588,398.119 211.782,398.335 211.972,398.536 212.158,398.722 212.339,398.895 212.516,399.052 212.602,399.124 212.647,399.161 212.743,399.239 212.846,399.32 212.957,399.403 213.074,399.489 213.199,399.577 213.331,399.668 213.469,399.761 213.615,399.858 213.77,399.953 213.933,400.046 214.106,400.139 214.287,400.231 214.478,400.321 214.677,400.41 214.886,400.498 215.103,400.585 215.322,400.667 215.543,400.744 215.766,400.816 215.99,400.884 216.216,400.947 216.443,401.005 216.673,401.058 216.904,401.106 217.128,401.15 217.345,401.189 217.556,401.223 217.759,401.253 217.956,401.277 218.146,401.297 218.329,401.312 218.506,401.322 218.675,401.331 218.836,401.338 218.99,401.344 219.136,401.348 219.275,401.351 219.407,401.353 219.531,401.353 219.589,401.352 219.591,401.193 219.593,400.874 219.595,400.556 219.596,400.237 219.597,399.919 219.598,399.6 219.598,399.282 219.597,398.963 219.596,398.645 219.596,398.326 219.596,398.007 219.596,397.689 219.597,397.37 219.598,397.052 219.6,396.734 219.603,396.415 219.604,396.256 219.515,396.26 219.336,396.266 219.157,396.27 218.978,396.273 218.799,396.274 218.62,396.273 218.441,396.271 218.262,396.267 218.083,396.261 217.905,396.25 217.728,396.234 217.552,396.212 217.377,396.184 217.203,396.151 217.03,396.112 216.858,396.068 216.773,396.043 216.643,396.011 216.389,395.935 216.141,395.847 215.898,395.748 215.66,395.638 215.429,395.516 215.202,395.383 214.982,395.239 214.767,395.083 214.561,394.92 214.364,394.749 214.176,394.572 213.997,394.387 213.827,394.195 213.667,393.995 213.515,393.788 213.444,393.681 213.413,393.635 213.35,393.537 213.285,393.432 213.218,393.321 213.15,393.203 213.08,393.078 213.009,392.947 212.935,392.808 212.86,392.664 212.787,392.511 212.716,392.35 212.646,392.182 212.578,392.006 212.512,391.822 212.447,391.63 212.385,391.43 212.324,391.223 212.267,391.014 212.213,390.805 212.164,390.594 212.118,390.383 212.076,390.171 212.038,389.957 212.004,389.743 211.973,389.528 211.946,389.32 211.921,389.118 211.9,388.923 211.882,388.735 211.866,388.553 211.854,388.378 211.844,388.21 211.838,388.048 211.832,387.893 211.827,387.745 211.823,387.605 211.819,387.471 211.816,387.343 211.814,387.223 211.813,387.11 211.812,387.057 211.812,386.396 211.812,385.075 211.813,383.753 211.813,382.432 211.813,381.11 211.813,379.789 211.814,378.467 211.814,377.146 211.814,375.824 211.815,374.503 211.816,373.181 211.817,371.86 211.819,370.538 211.821,369.217 211.823,367.895 211.825,366.573 211.827,365.912 212.071,365.911 212.561,365.909 213.051,365.908 213.541,365.907 214.031,365.906 214.522,365.906 215.013,365.906 215.505,365.906 215.997,365.907 216.489,365.907 216.98,365.907 217.472,365.907 217.964,365.906 218.456,365.905 218.948,365.903 219.44,365.902 219.686,365.901 219.686,365.667 219.686,365.201 219.686,364.735 219.686,364.269 219.686,363.802 219.686,363.336 219.686,362.87 219.686,362.403 219.686,362.17 219.44,362.169 218.948,362.167 218.456,362.165 217.964,362.163 217.472,362.162 216.98,362.161 216.489,362.16 215.997,362.16 215.505,362.16 215.013,362.16 214.522,362.161 214.031,362.162 213.541,362.163 213.051,362.165 212.561,362.167 212.071,362.169 211.827,362.17 211.825,359.887 211.823,355.32 211.821,350.753 211.819,346.186 211.817,341.619 211.816,337.053 211.815,332.486 211.814,327.919 211.814,323.352 211.814,318.785 211.813,314.218 211.813,309.651 211.813,305.084 211.813,300.517 211.812,295.95 211.812,291.383 211.812,289.1 " />
<polyline points="269.679,313.325 269.677,315.764 269.673,320.643 269.671,325.522 269.671,330.403 269.673,335.284 269.673,340.164 269.671,345.044 269.668,349.924 269.666,352.363 269.877,352.36 270.301,352.357 270.723,352.355 271.144,352.355 271.565,352.357 271.985,352.357 272.405,352.355 272.825,352.352 273.035,352.349 273.035,352.003 273.034,351.312 273.033,350.621 273.032,349.932 273.03,349.242 273.031,348.553 273.035,347.862 273.042,347.171 273.048,346.826 273.108,346.934 273.249,347.176 273.41,347.443 273.592,347.736 273.794,348.054 274.028,348.389 274.293,348.741 274.591,349.109 274.92,349.494 275.264,349.863 275.625,350.215 276,350.551 276.391,350.871 276.77,351.155 277.137,351.401 277.492,351.61 277.834,351.782 278.152,351.933 278.445,352.063 278.715,352.171 278.837,352.215 278.913,352.24 279.086,352.295 279.28,352.353 279.496,352.414 279.732,352.479 279.992,352.538 280.275,352.59 280.58,352.636 280.908,352.676 281.236,352.7 281.563,352.709 281.889,352.702 282.215,352.679 282.516,352.643 282.795,352.593 283.049,352.53 283.28,352.453 283.489,352.377 283.678,352.301 283.845,352.226 283.918,352.188 283.988,352.152 284.14,352.065 284.305,351.963 284.481,351.846 284.669,351.713 284.86,351.557 285.054,351.377 285.251,351.173 285.45,350.946 285.639,350.71 285.816,350.466 285.982,350.214 286.136,349.954 286.274,349.707 286.396,349.473 286.5,349.253 286.588,349.046 286.667,348.857 286.736,348.684 286.796,348.529 286.821,348.46 286.902,348.228 287.063,347.698 287.222,347.105 287.379,346.449 287.533,345.728 287.656,345.003 287.745,344.274 287.802,343.541 287.827,342.804 287.843,342.129 287.85,341.516 287.849,340.965 287.844,340.721 287.841,339.009 287.838,335.584 287.838,332.16 287.84,328.735 287.844,325.311 287.845,321.887 287.842,318.462 287.835,315.038 287.83,313.325 287.62,313.325 287.201,313.326 286.783,313.327 286.366,313.328 285.95,313.331 285.533,313.331 285.115,313.33 284.696,313.327 284.486,313.325 284.478,314.97 284.468,318.261 284.463,321.553 284.465,324.845 284.472,328.139 284.476,331.431 284.477,334.722 284.475,338.013 284.472,339.657 284.471,339.75 284.471,339.959 284.472,340.191 284.475,340.447 284.478,340.726 284.481,341.028 284.484,341.354 284.486,341.703 284.488,342.075 284.484,342.446 284.474,342.817 284.458,343.187 284.437,343.557 284.408,343.902 284.373,344.224 284.33,344.521 284.281,344.795 284.232,345.045 284.184,345.272 284.135,345.476 284.111,345.566 284.091,345.646 284.038,345.825 283.973,346.024 283.896,346.243 283.807,346.482 283.699,346.709 283.57,346.923 283.421,347.125 283.253,347.314 283.089,347.479 282.931,347.619 282.779,347.736 282.705,347.782 282.64,347.824 282.488,347.901 282.313,347.97 282.116,348.031 281.897,348.084 281.674,348.119 281.448,348.135 281.219,348.132 280.986,348.111 280.775,348.091 280.585,348.073 280.416,348.056 280.342,348.049 280.214,348.033 279.929,347.984 279.615,347.92 279.273,347.84 278.902,347.744 278.512,347.613 278.102,347.447 277.672,347.247 277.223,347.013 276.788,346.757 276.366,346.481 275.958,346.185 275.563,345.867 275.205,345.559 274.884,345.259 274.599,344.968 274.351,344.685 274.129,344.424 273.931,344.184 273.758,343.965 273.684,343.866 273.66,343.828 273.601,343.745 273.531,343.653 273.451,343.553 273.36,343.443 273.28,343.33 273.21,343.213 273.15,343.093 273.1,342.969 273.064,342.852 273.041,342.742 273.032,342.64 273.035,342.593 273.035,340.764 273.035,337.106 273.037,333.447 273.038,329.789 273.041,326.13 273.041,322.472 273.04,318.813 273.037,315.154 273.035,313.325 272.615,313.325 271.776,313.325 270.937,313.325 270.099,313.325 269.679,313.325 " />
<polyline points="314.171,324.844 314.538,326.725 315.073,332.456 314.457,338.172 314.058,340.043 313.614,342.036 312.229,345.917 311.172,347.69 310.815,348.282 309.599,350.001 308.018,351.398 307.417,351.776 306.93,352.085 305.295,352.79 303.52,352.845 302.939,352.72 302.318,352.595 300.582,351.87 299.156,350.659 298.742,350.21 297.591,348.986 295.941,346.094 295.331,344.57 294.418,342.241 293.431,337.35 293.243,334.881 293.184,333.885 293.134,330.882 293.461,326.886 294.237,322.957 295.2,320.107 295.591,319.179 296.203,317.744 297.841,315.057 298.95,313.923 299.359,313.509 300.747,312.393 302.406,311.734 302.996,311.625 303.981,311.455 305.98,311.784 306.85,312.262 307.575,312.641 309.454,314.159 310.852,316.125 311.257,316.803 312.343,318.673 313.747,322.755 314.171,324.844 " />
<polyline points="311.131,337.069 311.453,334.881 311.506,330.441 311.257,328.229 311.018,326.348 310.081,322.622 309.252,320.89 308.994,320.348 308.08,318.749 306.791,317.426 306.283,317.068 305.962,316.843 304.868,316.35 303.673,316.312 303.285,316.391 302.993,316.458 302.174,316.774 301.226,317.437 300.412,318.266 299.895,318.957 299.738,319.19 299.245,319.932 298.083,322.313 297.38,324.857 297.193,325.708 296.707,328.038 296.463,332.79 296.668,335.159 296.867,337.219 297.788,341.304 298.66,343.217 298.913,343.764 299.79,345.378 301.027,346.741 301.52,347.12 301.856,347.373 303.009,347.985 304.297,348.059 304.723,347.954 305.033,347.887 305.902,347.554 306.899,346.835 307.747,345.934 308.278,345.191 308.439,344.942 308.998,344.046 310.277,341.168 310.965,338.096 311.131,337.069 " />
<polyline points="259.677,295.552 260.103,295.561 260.952,295.559 261.801,295.536 262.649,295.564 263.073,295.604 263.064,302.732 263.059,316.987 263.067,331.241 263.067,345.491 263.062,352.614 262.311,352.669 260.802,352.688 259.287,352.616 257.804,352.371 257.078,352.161 256.685,352.055 255.726,351.728 254.594,351.288 253.35,350.637 251.995,349.776 250.73,348.802 249.555,347.716 248.605,346.701 247.881,345.757 247.306,344.955 247.094,344.624 246.768,344.12 246.047,342.811 245.26,341.2 244.595,339.238 244.054,336.922 243.766,334.577 243.732,332.202 243.892,330.142 244.247,328.398 244.606,326.962 244.787,326.398 244.903,326.036 245.235,325.142 245.666,324.078 246.273,322.884 247.057,321.559 247.941,320.301 248.925,319.111 249.859,318.134 250.742,317.373 251.5,316.764 251.818,316.536 252.245,316.225 253.375,315.532 254.78,314.77 256.264,314.2 257.828,313.822 259.144,313.578 259.677,313.524 259.677,311.279 259.674,306.788 259.669,302.296 259.672,297.801 259.677,295.552 " />
<polyline points="259.648,348.074 259.669,347.158 259.685,345.322 259.672,343.483 259.672,341.642 259.677,340.721 259.672,337.894 259.671,332.235 259.68,326.572 259.673,320.908 259.662,318.074 259.35,318.116 258.579,318.26 257.66,318.467 256.625,318.811 255.474,319.292 254.376,319.868 253.331,320.537 252.47,321.187 251.793,321.816 251.249,322.359 251.044,322.588 250.793,322.86 250.21,323.576 249.547,324.463 248.898,325.567 248.263,326.89 247.757,328.259 247.38,329.672 247.15,330.924 247.067,332.015 247.032,332.924 247.039,333.287 247.041,333.69 247.112,334.698 247.248,335.906 247.572,337.284 248.082,338.832 248.75,340.314 249.574,341.729 250.407,342.891 251.247,343.8 251.984,344.524 252.299,344.795 252.68,345.128 253.709,345.872 255.004,346.691 256.395,347.311 257.884,347.73 259.138,348.007 259.648,348.074 " />
<polyline points="253.959,364.135 253.631,364.365 252.859,364.989 251.97,365.777 251.054,366.798 250.11,368.053 249.279,369.38 248.562,370.777 248.015,372.029 247.637,373.136 247.347,374.061 247.247,374.433 247.118,374.919 246.851,376.146 246.573,377.628 246.393,379.375 246.312,381.385 246.378,383.39 246.592,385.391 246.89,387.123 247.274,388.585 247.631,389.792 247.797,390.269 247.92,390.615 248.265,391.472 248.709,392.495 249.33,393.642 250.127,394.913 251.029,396.105 252.035,397.218 252.997,398.11 253.913,398.78 254.703,399.304 255.036,399.493 255.487,399.752 256.675,400.286 258.15,400.836 259.679,401.163 261.263,401.268 262.579,401.283 263.102,401.246 263.102,399.998 263.102,397.504 263.102,396.256 262.662,396.281 261.78,396.287 260.896,396.251 260.024,396.138 259.594,396.043 258.833,395.894 257.383,395.383 256.008,394.66 254.77,393.77 254.22,393.242 253.832,392.874 252.974,391.863 252.034,390.577 251.295,389.186 250.756,387.691 250.365,386.436 250.244,385.928 250.156,385.546 249.98,384.582 249.805,383.416 249.724,382.047 249.738,380.475 249.88,378.913 250.149,377.363 250.484,376.03 250.884,374.915 251.251,373.997 251.418,373.637 251.63,373.187 252.259,372.101 253.093,370.828 254.115,369.719 255.326,368.774 256.395,368.071 256.858,367.839 257.213,367.657 258.143,367.289 259.291,366.917 260.473,366.704 261.69,366.65 262.7,366.653 263.102,366.684 263.102,366.061 263.099,364.815 263.094,363.569 263.097,362.318 263.102,361.69 262.8,361.667 262.043,361.646 261.133,361.653 260.08,361.762 258.885,361.972 257.719,362.281 256.581,362.688 255.621,363.116 254.839,363.565 254.204,363.962 253.959,364.135 " />
<polyline points="277.605,362.702 277.418,362.805 277.014,363.061 276.581,363.366 276.119,363.721 275.629,364.125 275.171,364.558 274.746,365.02 274.353,365.511 273.993,366.031 273.672,366.511 273.39,366.952 273.149,367.353 273.048,367.533 273.042,367.189 273.035,366.501 273.031,365.812 273.03,365.122 273.032,364.43 273.033,363.739 273.034,363.047 273.035,362.356 273.035,362.01 272.825,362.008 272.405,362.005 271.985,362.004 271.565,362.005 271.144,362.007 270.723,362.008 270.301,362.009 269.877,362.01 269.666,362.01 269.666,366.888 269.666,376.644 269.666,386.399 269.666,396.155 269.666,401.033 270.087,401.033 270.929,401.033 271.771,401.033 272.614,401.033 273.035,401.033 273.035,397.376 273.035,390.063 273.035,382.749 273.035,375.436 273.035,371.779 273.031,371.743 273.033,371.665 273.044,371.58 273.065,371.489 273.095,371.391 273.133,371.297 273.179,371.206 273.234,371.118 273.297,371.034 273.353,370.957 273.402,370.887 273.445,370.825 273.463,370.798 273.573,370.644 273.834,370.305 274.138,369.936 274.482,369.536 274.869,369.106 275.282,368.706 275.72,368.335 276.185,367.993 276.677,367.681 277.135,367.409 277.561,367.177 277.954,366.985 278.134,366.909 278.349,366.819 278.788,366.662 279.236,366.529 279.694,366.419 280.162,366.332 280.631,366.276 281.1,366.25 281.57,366.254 281.806,366.272 281.886,366.279 282.06,366.315 282.248,366.371 282.449,366.447 282.664,366.544 282.861,366.664 283.04,366.805 283.202,366.97 283.347,367.156 283.472,367.33 283.577,367.49 283.664,367.638 283.697,367.705 283.753,367.815 283.863,368.069 283.971,368.356 284.077,368.676 284.182,369.029 284.267,369.386 284.334,369.746 284.381,370.11 284.409,370.479 284.433,370.815 284.452,371.12 284.467,371.394 284.472,371.515 284.472,373.361 284.472,377.054 284.471,380.746 284.469,384.436 284.468,388.126 284.469,391.817 284.473,395.508 284.481,399.2 284.486,401.047 284.696,401.044 285.115,401.04 285.533,401.037 285.95,401.035 286.366,401.034 286.783,401.034 287.201,401.033 287.62,401.033 287.83,401.033 287.835,399.246 287.842,395.673 287.845,392.099 287.844,388.526 287.84,384.952 287.838,381.378 287.838,377.804 287.841,374.231 287.844,372.444 287.84,372.205 287.821,371.666 287.791,371.065 287.751,370.403 287.7,369.68 287.611,368.963 287.485,368.253 287.322,367.551 287.121,366.855 286.919,366.223 286.715,365.655 286.509,365.151 286.406,364.931 286.375,364.865 286.3,364.716 286.213,364.551 286.114,364.371 286.002,364.175 285.869,363.97 285.715,363.755 285.54,363.532 285.343,363.298 285.135,363.078 284.916,362.869 284.685,362.674 284.442,362.49 284.207,362.332 283.978,362.198 283.757,362.089 283.542,362.005 283.342,361.933 283.158,361.874 282.989,361.828 282.912,361.811 282.742,361.774 282.358,361.719 281.929,361.682 281.455,361.666 280.935,361.668 280.424,361.714 279.92,361.804 279.424,361.938 278.935,362.116 278.494,362.29 278.101,362.458 277.755,362.622 277.605,362.702 " />
<polyline points="232.726,394.251 232.831,394.329 233.075,394.494 233.35,394.669 233.658,394.854 233.997,395.048 234.376,395.234 234.795,395.412 235.253,395.582 235.75,395.745 236.254,395.886 236.763,396.005 237.279,396.103 237.801,396.179 238.291,396.236 238.749,396.273 239.176,396.292 239.571,396.292 239.932,396.287 240.26,396.278 240.554,396.265 240.684,396.256 240.684,396.57 240.685,397.197 240.686,397.824 240.688,398.45 240.691,399.076 240.691,399.701 240.69,400.325 240.687,400.948 240.684,401.259 240.438,401.273 239.883,401.284 239.265,401.278 238.584,401.256 237.839,401.217 237.105,401.131 236.38,400.998 235.666,400.817 234.962,400.589 234.324,400.362 233.753,400.137 233.249,399.911 233.03,399.799 232.81,399.689 232.331,399.415 231.814,399.089 231.258,398.71 230.665,398.279 230.106,397.813 229.584,397.312 229.097,396.776 228.645,396.205 228.243,395.674 227.892,395.184 227.591,394.735 227.465,394.531 227.364,394.367 227.145,393.993 226.912,393.572 226.664,393.106 226.401,392.595 226.141,392.03 225.884,391.414 225.631,390.745 225.38,390.024 225.151,389.297 224.943,388.564 224.757,387.825 224.592,387.08 224.45,386.38 224.332,385.724 224.238,385.113 224.167,384.547 224.106,384.028 224.054,383.557 224.012,383.133 223.996,382.944 223.949,382.374 223.891,381.233 223.868,380.093 223.881,378.952 223.928,377.811 224.012,376.675 224.131,375.542 224.287,374.413 224.382,373.85 224.468,373.355 224.67,372.371 224.904,371.393 225.169,370.421 225.465,369.455 225.804,368.506 226.184,367.572 226.608,366.654 226.841,366.203 226.989,365.922 227.306,365.371 227.644,364.829 228.004,364.298 228.384,363.777 228.794,363.283 229.233,362.817 229.701,362.377 229.949,362.17 230.056,362.086 230.305,361.905 230.591,361.713 230.914,361.51 231.273,361.295 231.645,361.115 232.03,360.97 232.427,360.858 232.837,360.782 233.214,360.728 233.559,360.697 233.871,360.689 234.011,360.696 234.169,360.703 234.518,360.746 234.901,360.82 235.317,360.924 235.766,361.059 236.195,361.232 236.605,361.443 236.996,361.693 237.367,361.981 237.699,362.251 237.991,362.503 238.244,362.738 238.35,362.846 238.526,363.028 238.897,363.455 239.287,363.945 239.696,364.5 240.125,365.117 240.516,365.755 240.871,366.413 241.189,367.091 241.47,367.788 241.72,368.43 241.938,369.014 242.126,369.541 242.203,369.776 242.387,370.366 242.708,371.556 242.982,372.758 243.21,373.971 243.391,375.196 243.526,376.422 243.614,377.649 243.655,378.877 243.652,379.491 242.629,379.494 240.583,379.497 238.535,379.498 236.486,379.498 234.436,379.495 232.387,379.493 230.339,379.492 228.292,379.491 227.269,379.491 227.264,380.057 227.294,381.186 227.364,382.315 227.472,383.443 227.621,384.57 227.828,385.684 228.094,386.785 228.419,387.873 228.611,388.41 228.686,388.621 228.873,389.089 229.098,389.605 229.361,390.169 229.661,390.781 230.003,391.365 230.386,391.922 230.812,392.451 231.279,392.952 231.723,393.397 232.143,393.784 232.539,394.115 232.726,394.251 " />
<polyline points="229.204,369.033 229.107,369.229 228.922,369.623 228.747,370.021 228.581,370.423 228.425,370.829 228.278,371.238 228.14,371.651 228.012,372.068 227.894,372.489 227.783,372.911 227.681,373.333 227.587,373.758 227.502,374.183 227.425,374.61 227.356,375.037 227.295,375.466 227.269,375.681 227.677,375.68 228.494,375.678 229.309,375.676 230.125,375.675 230.94,375.674 231.755,375.674 232.569,375.674 233.384,375.674 234.198,375.675 235.012,375.675 235.826,375.675 236.641,375.675 237.456,375.674 238.271,375.673 239.086,375.671 239.902,375.669 240.31,375.668 240.281,375.464 240.218,375.057 240.148,374.65 240.072,374.245 239.989,373.839 239.9,373.435 239.804,373.031 239.702,372.627 239.594,372.224 239.477,371.825 239.351,371.428 239.216,371.036 239.072,370.646 238.92,370.26 238.759,369.877 238.589,369.498 238.5,369.31 238.469,369.246 238.402,369.112 238.33,368.971 238.252,368.822 238.167,368.666 238.077,368.502 237.982,368.331 237.88,368.153 237.772,367.967 237.659,367.785 237.54,367.608 237.416,367.435 237.285,367.267 237.149,367.103 237.008,366.944 236.86,366.789 236.707,366.638 236.558,366.496 236.412,366.363 236.271,366.239 236.133,366.124 236,366.018 235.87,365.92 235.744,365.831 235.684,365.792 235.64,365.763 235.545,365.706 235.442,365.65 235.331,365.594 235.212,365.538 235.085,365.483 234.949,365.428 234.806,365.374 234.655,365.319 234.502,365.275 234.349,365.24 234.195,365.214 234.04,365.199 233.884,365.192 233.727,365.195 233.569,365.208 233.41,365.23 233.259,365.256 233.115,365.283 232.979,365.314 232.851,365.348 232.731,365.384 232.619,365.423 232.514,365.465 232.465,365.487 232.429,365.504 232.353,365.54 232.274,365.579 232.191,365.622 232.105,365.669 232.016,365.72 231.924,365.774 231.828,365.832 231.729,365.893 231.629,365.96 231.527,366.033 231.424,366.112 231.32,366.196 231.215,366.286 231.108,366.383 231,366.485 230.891,366.592 230.784,366.702 230.68,366.814 230.578,366.929 230.478,367.045 230.381,367.164 230.286,367.284 230.194,367.407 230.104,367.532 230.018,367.654 229.937,367.772 229.859,367.888 229.786,368 229.718,368.109 229.653,368.215 229.593,368.318 229.537,368.418 229.484,368.513 229.433,368.605 229.385,368.692 229.34,368.775 229.298,368.854 229.258,368.929 229.221,369 229.204,369.033 " />
<polyline points="314.53,376.292 314.934,379.27 314.806,385.295 314.268,388.252 313.904,390.222 312.699,394.095 311.767,395.896 311.145,397.102 309.556,399.332 308.521,400.238 308.066,400.641 306.503,401.678 304.677,402.109 304.045,402.109 303.414,402.114 301.574,401.697 299.998,400.667 299.542,400.265 298.884,399.692 297.214,397.719 296.016,395.44 295.673,394.664 294.598,392.185 293.456,386.921 293.258,384.244 293.144,382.442 293.235,377.003 294.398,371.692 294.999,369.975 295.569,368.363 297.163,365.295 298.272,363.96 298.702,363.454 300.185,362.027 302.042,361.128 302.721,360.974 303.3,360.825 305.095,360.808 306.775,361.478 307.278,361.787 307.962,362.2 309.732,363.772 311.051,365.739 311.435,366.416 312.072,367.562 313.558,371.182 314.353,375.008 314.53,376.292 " />
<polyline points="310.247,390.217 310.972,387.877 311.536,382.993 311.464,380.554 311.433,379.229 311.032,375.246 309.831,371.42 309.267,370.201 309.013,369.673 308.136,368.117 306.909,366.816 306.422,366.457 306.076,366.198 304.868,365.612 303.536,365.594 303.107,365.714 302.791,365.805 301.913,366.207 300.914,367.003 300.073,367.973 299.55,368.767 299.392,369.033 298.519,370.506 297.443,373.739 297.111,375.39 296.501,378.605 296.576,385.189 297.29,388.386 297.664,389.988 298.829,393.093 299.748,394.476 300.045,394.905 301.061,396.135 302.409,396.984 302.927,397.157 303.284,397.282 304.417,397.38 305.502,397.02 305.829,396.839 306.584,396.441 307.769,395.218 308.245,394.531 308.917,393.546 309.886,391.352 310.247,390.217 " />
<polyline points="211.812,289.1 211.812,298.234 211.813,305.084 211.813,311.934 211.814,318.785 211.815,325.635 211.816,332.486 211.817,339.336 211.819,346.186 211.821,353.037 211.827,362.17 212.805,362.165 213.541,362.163 214.278,362.162 215.015,362.161 215.752,362.161 216.489,362.161 217.226,362.162 217.964,362.163 218.702,362.165 219.686,362.17 219.686,365.901 218.702,365.905 217.964,365.905 217.226,365.906 216.489,365.906 215.752,365.906 215.015,365.907 214.278,365.907 213.541,365.907 212.805,365.908 211.827,365.912 211.821,368.556 211.819,370.538 211.817,372.52 211.816,374.503 211.815,376.485 211.814,378.467 211.813,380.45 211.813,382.432 211.812,384.414 211.812,387.057 211.816,387.624 211.858,388.351 211.935,389.069 212.046,389.778 212.191,390.479 212.371,391.17 212.585,391.854 212.833,392.528 213.116,393.193 213.444,393.681 213.634,393.967 213.927,394.289 214.235,394.59 214.56,394.87 214.902,395.129 215.259,395.367 215.632,395.585 216.021,395.781 216.427,395.957 216.773,396.043 217.114,396.143 217.378,396.177 217.643,396.207 217.908,396.231 218.174,396.25 218.441,396.263 218.709,396.271 218.977,396.274 219.246,396.271 219.604,396.256 219.598,396.893 219.598,397.371 219.598,397.848 219.597,398.326 219.597,398.804 219.596,399.282 219.596,399.76 219.595,400.237 219.595,400.715 219.589,401.352 219.123,401.357 218.289,401.292 217.474,401.176 216.676,401.01 215.897,400.793 215.135,400.526 214.392,400.209 213.667,399.842 212.959,399.425 212.602,399.124 212.142,398.742 211.663,398.178 211.217,397.597 210.803,396.997 210.422,396.38 210.074,395.745 209.758,395.093 209.475,394.422 209.224,393.734 209.079,393.177 208.917,392.579 208.793,391.821 208.686,391.06 208.597,390.298 208.525,389.534 208.47,388.769 208.432,388.002 208.412,387.233 208.408,386.463 208.415,385.849 208.415,383.356 208.417,381.486 208.418,379.616 208.419,377.746 208.42,375.877 208.421,374.008 208.421,372.139 208.421,370.27 208.421,368.402 208.415,365.912 205.03,365.912 205.03,362.17 205.455,362.165 205.773,362.165 206.091,362.164 206.409,362.164 206.727,362.163 207.045,362.163 207.362,362.162 207.679,362.162 207.996,362.162 208.415,362.156 208.421,354.352 208.421,348.498 208.421,342.644 208.421,336.79 208.42,330.936 208.419,325.081 208.418,319.226 208.417,313.37 208.415,307.515 208.415,299.705 208.41,298.372 208.415,297.424 208.419,296.495 208.42,295.586 208.42,294.695 208.418,293.824 208.414,292.972 208.408,292.138 208.401,291.324 208.393,290.578 208.389,289.95 208.387,289.44 208.387,289.048 208.39,288.773 208.395,288.617 208.403,288.578 208.414,288.657 208.422,288.785 208.424,288.893 208.42,288.981 208.409,289.048 208.391,289.095 208.367,289.122 208.337,289.128 208.3,289.114 208.278,289.092 208.293,289.074 208.343,289.059 208.43,289.048 208.554,289.04 208.713,289.036 208.909,289.036 209.142,289.039 209.395,289.044 209.655,289.048 209.921,289.051 210.193,289.054 210.472,289.055 210.757,289.056 211.048,289.056 211.345,289.056 211.76,289.06 " />
<polyline points="269.679,313.325 273.035,313.325 273.038,315.764 273.039,318.813 273.039,321.862 273.039,324.911 273.039,327.96 273.038,331.008 273.037,334.057 273.036,337.106 273.035,340.154 273.035,342.593 273.028,342.719 273.077,342.859 273.134,342.997 273.197,343.132 273.267,343.264 273.345,343.394 273.429,343.52 273.521,343.645 273.619,343.766 273.684,343.866 273.92,344.183 274.121,344.414 274.336,344.652 274.565,344.895 274.807,345.145 275.063,345.401 275.332,345.663 275.616,345.932 275.913,346.206 276.242,346.477 276.62,346.734 277.048,346.978 277.526,347.209 278.053,347.426 278.629,347.63 279.256,347.82 279.932,347.997 280.342,348.049 280.539,348.069 280.797,348.097 281.053,348.111 281.306,348.11 281.557,348.096 281.804,348.067 282.05,348.024 282.292,347.966 282.532,347.895 282.705,347.782 282.902,347.659 283.097,347.455 283.278,347.243 283.444,347.021 283.596,346.79 283.733,346.551 283.856,346.302 283.963,346.045 284.057,345.778 284.111,345.566 284.207,345.205 284.278,344.759 284.339,344.336 284.389,343.935 284.43,343.556 284.462,343.199 284.483,342.864 284.494,342.552 284.496,342.262 284.493,341.982 284.49,341.703 284.486,341.424 284.483,341.145 284.48,340.866 284.476,340.586 284.473,340.307 284.469,340.028 284.472,339.657 284.476,337.464 284.473,334.721 284.47,331.978 284.469,329.235 284.469,326.492 284.469,323.748 284.47,321.005 284.472,318.262 284.475,315.518 284.486,313.325 284.766,313.328 285.114,313.329 285.462,313.329 285.81,313.329 286.158,313.329 286.506,313.328 286.854,313.328 287.202,313.326 287.55,313.325 287.83,313.325 287.837,315.608 287.838,318.462 287.839,321.316 287.84,324.17 287.841,327.023 287.841,329.877 287.841,332.731 287.841,335.584 287.84,338.438 287.844,340.721 287.854,341.209 287.847,342.072 287.811,342.931 287.746,343.785 287.652,344.635 287.529,345.481 287.376,346.323 287.195,347.161 286.984,347.995 286.821,348.46 286.72,348.736 286.509,349.23 286.269,349.701 285.998,350.149 285.698,350.574 285.368,350.976 285.008,351.355 284.618,351.711 284.198,352.044 283.918,352.188 283.684,352.308 283.497,352.372 283.299,352.433 283.091,352.488 282.874,352.539 282.646,352.586 282.409,352.628 282.161,352.666 281.904,352.699 281.631,352.719 281.334,352.72 281.015,352.7 280.674,352.66 280.309,352.599 279.922,352.519 279.512,352.418 279.08,352.297 278.837,352.215 278.445,352.076 278.164,351.937 277.877,351.785 277.584,351.618 277.284,351.437 276.979,351.242 276.667,351.033 276.348,350.81 276.024,350.572 275.694,350.305 275.359,349.993 275.018,349.636 274.673,349.233 274.323,348.786 273.967,348.293 273.606,347.755 273.24,347.172 273.048,346.826 273.041,347.287 273.038,347.862 273.035,348.437 273.033,349.012 273.032,349.587 273.032,350.162 273.032,350.737 273.033,351.313 273.035,351.888 273.035,352.349 272.755,352.353 272.405,352.353 272.055,352.354 271.705,352.355 271.354,352.356 271.003,352.357 270.652,352.358 270.3,352.359 269.948,352.36 269.666,352.363 269.669,349.111 269.67,346.709 269.671,344.418 269.671,342.238 269.672,340.17 269.672,338.212 269.672,336.366 269.672,334.63 269.672,333.006 269.672,331.412 269.672,329.769 269.672,328.077 269.673,326.336 269.673,324.545 269.674,322.705 269.675,320.816 269.676,318.878 269.677,317.058 269.678,315.526 269.678,314.282 269.679,313.325 269.679,312.656 269.68,312.274 269.68,312.179 269.68,312.373 269.679,312.685 269.679,312.948 269.679,313.161 269.679,313.325 269.679,313.44 269.679,313.505 269.679,313.521 269.679,313.488 269.679,313.434 269.679,313.39 269.679,313.356 269.679,313.331 269.679,313.315 269.679,313.309 269.679,313.312 " />
<polyline points="314.171,324.844 314.03,324.148 313.809,323.28 313.566,322.421 313.299,321.569 313.009,320.725 312.697,319.888 312.36,319.06 312.001,318.239 311.619,317.426 311.257,316.803 311.055,316.464 310.666,315.876 310.252,315.313 309.811,314.774 309.344,314.26 308.851,313.771 308.331,313.306 307.785,312.867 307.212,312.452 306.85,312.262 306.56,312.103 306.169,311.957 305.774,311.834 305.375,311.733 304.972,311.655 304.566,311.6 304.156,311.567 303.742,311.556 303.324,311.568 302.996,311.625 302.701,311.679 302.206,311.847 301.725,312.039 301.26,312.257 300.809,312.499 300.373,312.766 299.952,313.058 299.546,313.374 299.155,313.716 298.95,313.923 298.58,314.301 298.172,314.815 297.781,315.339 297.407,315.874 297.051,316.419 296.711,316.974 296.389,317.539 296.083,318.115 295.795,318.7 295.591,319.179 295.278,319.921 295.079,320.502 294.882,321.11 294.687,321.745 294.496,322.408 294.307,323.097 294.12,323.813 293.936,324.557 293.755,325.327 293.588,326.15 293.45,327.05 293.338,328.028 293.255,329.084 293.199,330.218 293.17,331.429 293.169,332.718 293.196,334.084 293.243,334.881 293.306,335.704 293.432,336.733 293.584,337.756 293.761,338.775 293.963,339.789 294.191,340.798 294.444,341.801 294.723,342.8 295.027,343.794 295.331,344.57 295.535,345.078 295.821,345.705 296.127,346.322 296.452,346.929 296.795,347.525 297.158,348.11 297.539,348.685 297.939,349.249 298.359,349.802 298.742,350.21 298.949,350.435 299.35,350.808 299.768,351.155 300.203,351.474 300.655,351.765 301.123,352.029 301.608,352.266 302.11,352.475 302.629,352.657 302.939,352.72 303.23,352.782 303.752,352.798 304.266,352.778 304.772,352.724 305.269,352.635 305.758,352.511 306.238,352.352 306.71,352.159 307.173,351.931 307.417,351.776 307.717,351.587 308.196,351.196 308.655,350.788 309.094,350.363 309.513,349.921 309.913,349.463 310.293,348.987 310.653,348.495 310.993,347.986 311.172,347.69 311.524,347.099 311.896,346.326 312.247,345.546 312.577,344.758 312.886,343.963 313.174,343.16 313.44,342.35 313.686,341.532 313.91,340.707 314.058,340.043 314.258,339.107 314.49,337.442 314.659,335.777 314.765,334.112 314.809,332.447 314.789,330.782 314.707,329.116 314.563,327.45 314.355,325.784 " />
<polyline points="259.677,295.552 259.673,297.051 259.673,298.924 259.672,300.797 259.672,302.669 259.672,304.542 259.673,306.413 259.674,308.285 259.675,310.156 259.677,312.027 259.677,313.524 259.144,313.578 258.22,313.762 257.314,313.988 256.425,314.255 255.554,314.565 254.701,314.917 253.865,315.311 253.046,315.747 252.245,316.225 251.818,316.536 251.31,316.9 250.265,317.846 249.292,318.84 248.391,319.882 247.563,320.973 246.807,322.112 246.124,323.299 245.512,324.535 244.973,325.819 244.787,326.398 244.58,327.042 244.315,328.193 244.102,329.326 243.94,330.441 243.831,331.54 243.773,332.62 243.767,333.684 243.812,334.73 243.91,335.758 244.061,336.78 244.27,337.806 244.536,338.836 244.859,339.87 245.239,340.908 245.676,341.951 246.17,342.997 246.721,344.048 247.094,344.624 247.434,345.153 247.727,345.54 248.041,345.937 248.376,346.345 248.733,346.763 249.11,347.192 249.508,347.631 249.927,348.081 250.367,348.541 250.856,349.002 251.422,349.454 252.066,349.898 252.788,350.334 253.587,350.761 254.463,351.179 255.417,351.589 256.449,351.991 257.078,352.161 257.562,352.301 258.181,352.408 258.802,352.497 259.424,352.568 260.048,352.621 260.674,352.655 261.301,352.672 261.93,352.67 262.561,352.651 263.062,352.614 263.065,347.865 263.064,341.928 263.063,335.99 263.063,330.052 263.063,324.113 263.063,318.175 263.064,312.235 263.065,306.296 263.067,300.356 263.073,295.604 262.791,295.577 262.437,295.568 262.084,295.561 261.73,295.556 261.377,295.552 261.023,295.551 260.669,295.551 260.315,295.554 259.961,295.558 " />
<polyline points="253.959,364.135 254.35,363.858 254.668,363.673 255.004,363.488 255.357,363.302 255.729,363.116 256.118,362.93 256.525,362.744 256.949,362.557 257.392,362.371 257.868,362.196 258.395,362.046 258.973,361.92 259.601,361.818 260.28,361.74 261.009,361.687 261.789,361.657 262.619,361.653 263.102,361.69 263.098,362.109 263.098,362.63 263.097,363.151 263.097,363.671 263.098,364.191 263.098,364.711 263.099,365.231 263.1,365.75 263.102,366.269 263.102,366.684 262.7,366.653 261.986,366.656 261.279,366.694 260.581,366.767 259.891,366.875 259.209,367.018 258.535,367.196 257.87,367.409 257.213,367.657 256.858,367.839 256.487,368.024 256.22,368.19 255.947,368.37 255.668,368.562 255.383,368.768 255.091,368.987 254.794,369.22 254.49,369.466 254.179,369.725 253.865,370.013 253.547,370.345 253.227,370.722 252.905,371.144 252.58,371.611 252.252,372.122 251.921,372.677 251.588,373.277 251.418,373.637 251.151,374.213 250.985,374.667 250.822,375.144 250.664,375.643 250.509,376.164 250.358,376.707 250.21,377.272 250.067,377.86 249.927,378.469 249.81,379.119 249.732,379.828 249.694,380.596 249.696,381.422 249.738,382.308 249.819,383.252 249.941,384.255 250.103,385.317 250.244,385.928 250.365,386.436 250.644,387.325 250.967,388.189 251.334,389.03 251.745,389.847 252.2,390.64 252.7,391.408 253.244,392.153 253.832,392.874 254.22,393.242 254.495,393.506 255.026,393.924 255.573,394.31 256.138,394.665 256.719,394.989 257.317,395.281 257.933,395.542 258.565,395.771 259.213,395.969 259.594,396.043 259.881,396.107 260.244,396.156 260.608,396.197 260.973,396.23 261.339,396.255 261.705,396.272 262.072,396.28 262.44,396.28 262.808,396.272 263.102,396.256 263.102,401.246 262.579,401.283 261.647,401.262 260.728,401.193 259.822,401.074 258.929,400.907 258.049,400.692 257.182,400.427 256.328,400.114 255.487,399.752 255.036,399.493 254.593,399.241 253.884,398.734 253.223,398.225 252.611,397.713 252.048,397.199 251.532,396.683 251.065,396.164 250.647,395.643 250.276,395.12 249.937,394.592 249.613,394.059 249.302,393.519 249.005,392.973 248.723,392.421 248.455,391.864 248.201,391.3 247.961,390.73 247.797,390.269 247.576,389.633 247.353,388.823 247.15,388.009 246.968,387.191 246.806,386.369 246.666,385.544 246.546,384.714 246.447,383.88 246.369,383.042 246.321,382.183 246.311,381.285 246.341,380.348 246.41,379.372 246.518,378.358 246.665,377.304 246.85,376.212 247.075,375.081 247.247,374.433 247.381,373.937 247.654,373.091 247.931,372.301 248.211,371.565 248.496,370.885 248.785,370.26 249.077,369.69 249.374,369.176 249.674,368.717 249.968,368.3 250.246,367.914 250.508,367.558 250.753,367.232 250.982,366.936 251.194,366.671 251.39,366.435 251.57,366.231 251.749,366.038 251.944,365.84 252.155,365.637 252.382,365.428 252.624,365.214 252.881,364.995 253.155,364.77 253.444,364.54 253.715,364.326 253.938,364.152 254.11,364.016 254.233,363.92 254.306,363.863 254.33,363.844 254.303,363.865 254.227,363.925 254.134,363.998 254.056,364.059 253.993,364.109 253.945,364.146 253.912,364.172 253.894,364.186 253.891,364.188 253.904,364.179 253.922,364.164 253.937,364.153 253.949,364.143 253.957,364.137 253.963,364.132 253.965,364.131 253.964,364.132 " />
<polyline points="277.605,362.702 277.904,362.543 278.467,362.305 279.035,362.106 279.61,361.946 280.191,361.826 280.777,361.745 281.37,361.703 281.968,361.7 282.572,361.737 282.912,361.811 283.158,361.865 283.334,361.932 283.514,362.008 283.698,362.094 283.886,362.189 284.078,362.294 284.274,362.409 284.473,362.533 284.676,362.666 284.881,362.819 285.086,363.002 285.29,363.214 285.494,363.456 285.698,363.727 285.901,364.028 286.104,364.358 286.306,364.718 286.406,364.931 286.613,365.372 286.877,366.177 287.108,366.987 287.309,367.803 287.477,368.625 287.614,369.452 287.72,370.284 287.794,371.122 287.836,371.966 287.844,372.444 287.84,374.826 287.841,377.804 287.842,380.783 287.842,383.761 287.842,386.739 287.841,389.717 287.84,392.695 287.839,395.673 287.837,398.651 287.83,401.033 287.55,401.033 287.202,401.033 286.854,401.033 286.506,401.034 286.158,401.035 285.81,401.037 285.462,401.039 285.114,401.041 284.766,401.043 284.486,401.047 284.479,398.585 284.476,395.509 284.473,392.433 284.471,389.357 284.47,386.281 284.469,383.205 284.47,380.129 284.47,377.053 284.472,373.977 284.472,371.515 284.459,371.192 284.432,370.783 284.392,370.376 284.337,369.972 284.267,369.572 284.184,369.174 284.086,368.78 283.973,368.388 283.846,368 283.697,367.705 283.608,367.526 283.455,367.312 283.288,367.116 283.109,366.936 282.917,366.773 282.712,366.627 282.494,366.499 282.264,366.387 282.02,366.292 281.806,366.272 281.492,366.249 281.097,366.264 280.706,366.295 280.318,366.34 279.932,366.4 279.55,366.475 279.17,366.565 278.794,366.67 278.42,366.789 278.134,366.909 277.774,367.061 277.182,367.402 276.613,367.768 276.067,368.159 275.544,368.575 275.044,369.017 274.567,369.483 274.113,369.973 273.683,370.489 273.463,370.798 273.415,370.871 273.344,370.964 273.279,371.059 273.221,371.157 273.169,371.257 273.124,371.36 273.084,371.465 273.051,371.573 273.025,371.683 273.035,371.779 273.035,401.033 269.666,401.033 269.666,362.01 269.948,362.01 270.3,362.008 270.652,362.007 271.003,362.007 271.354,362.006 271.705,362.006 272.055,362.006 272.405,362.006 272.755,362.007 273.035,362.01 273.035,362.471 273.033,363.048 273.032,363.624 273.031,364.2 273.032,364.775 273.033,365.351 273.035,365.926 273.037,366.501 273.041,367.075 273.048,367.533 273.25,367.172 273.526,366.737 273.795,366.331 274.057,365.954 274.311,365.606 274.558,365.288 274.797,364.999 275.029,364.738 275.253,364.508 275.475,364.296 275.697,364.093 275.92,363.898 276.144,363.713 276.369,363.536 276.595,363.368 276.822,363.209 277.049,363.058 277.26,362.923 277.436,362.811 277.576,362.721 277.682,362.653 277.752,362.608 277.787,362.586 277.786,362.586 277.751,362.609 277.702,362.64 277.661,362.667 277.627,362.688 277.602,362.704 277.584,362.716 277.574,362.722 277.572,362.723 277.578,362.72 277.587,362.714 277.594,362.709 277.6,362.705 277.604,362.703 277.607,362.701 277.608,362.7 277.608,362.701 " />
<polyline points="232.726,394.251 232.353,393.978 231.776,393.419 231.235,392.835 230.732,392.228 230.264,391.597 229.834,390.941 229.44,390.262 229.082,389.558 228.761,388.831 228.611,388.41 228.419,387.873 228.164,386.91 227.94,385.944 227.748,384.973 227.588,383.998 227.46,383.019 227.363,382.036 227.298,381.048 227.264,380.057 227.269,379.491 228.633,379.491 230.34,379.493 232.047,379.494 233.754,379.495 235.461,379.496 237.168,379.496 238.875,379.496 240.582,379.496 242.289,379.495 243.652,379.491 243.656,378.672 243.596,377.645 243.509,376.623 243.397,375.604 243.259,374.588 243.095,373.576 242.905,372.568 242.69,371.563 242.448,370.562 242.203,369.776 242.048,369.306 241.742,368.482 241.405,367.676 241.035,366.887 240.633,366.116 240.199,365.363 239.732,364.627 239.233,363.91 238.702,363.209 238.35,362.846 238.137,362.629 237.719,362.268 237.284,361.941 236.833,361.649 236.365,361.392 235.88,361.169 235.379,360.981 234.861,360.828 234.327,360.709 234.011,360.696 233.731,360.681 233.246,360.741 232.772,360.831 232.31,360.951 231.858,361.101 231.417,361.281 230.988,361.491 230.569,361.731 230.162,362.001 229.949,362.17 229.618,362.446 229.247,362.833 228.89,363.23 228.547,363.638 228.217,364.056 227.902,364.484 227.6,364.922 227.312,365.37 227.038,365.829 226.841,366.203 226.53,366.805 226.205,367.582 225.9,368.365 225.615,369.154 225.351,369.949 225.107,370.75 224.883,371.557 224.68,372.371 224.496,373.19 224.382,373.85 224.255,374.6 224.145,375.545 224.056,376.49 223.986,377.436 223.936,378.384 223.906,379.332 223.895,380.282 223.905,381.232 223.934,382.184 223.996,382.944 224.048,383.547 224.105,384.01 224.168,384.491 224.239,384.991 224.316,385.51 224.401,386.048 224.493,386.605 224.591,387.181 224.697,387.775 224.831,388.401 225.014,389.071 225.245,389.784 225.526,390.541 225.856,391.342 226.235,392.186 226.663,393.074 227.14,394.006 227.465,394.531 227.716,394.94 228.217,395.63 228.749,396.288 229.312,396.915 229.905,397.511 230.53,398.075 231.185,398.608 231.872,399.109 232.589,399.578 233.03,399.799 233.468,400.024 234.278,400.326 235.097,400.587 235.924,400.807 236.76,400.985 237.605,401.122 238.459,401.219 239.321,401.273 240.192,401.287 240.684,401.259 240.688,400.845 240.688,400.325 240.689,399.804 240.689,399.283 240.689,398.762 240.688,398.241 240.687,397.719 240.686,397.197 240.684,396.674 240.684,396.256 240.268,396.284 239.945,396.286 239.609,396.282 239.259,396.273 238.895,396.259 238.517,396.239 238.125,396.214 237.72,396.184 237.3,396.148 236.861,396.088 236.395,395.987 235.905,395.844 235.388,395.659 234.845,395.432 234.277,395.163 233.683,394.853 233.064,394.5 " />
<polyline points="314.53,376.292 314.441,375.65 314.24,374.526 314,373.413 313.721,372.313 313.404,371.224 313.049,370.148 312.656,369.083 312.224,368.03 311.754,366.989 311.435,366.416 311.243,366.077 310.878,365.488 310.488,364.92 310.072,364.376 309.632,363.854 309.167,363.355 308.676,362.878 308.161,362.425 307.62,361.993 307.278,361.787 307.027,361.632 306.546,361.409 306.06,361.223 305.567,361.075 305.068,360.964 304.563,360.892 304.052,360.857 303.534,360.859 303.01,360.899 302.721,360.974 302.381,361.051 301.823,361.287 301.285,361.549 300.767,361.84 300.27,362.158 299.794,362.504 299.338,362.877 298.902,363.278 298.487,363.707 298.272,363.96 297.903,364.405 297.498,365.001 297.113,365.607 296.745,366.221 296.397,366.846 296.067,367.479 295.756,368.123 295.463,368.775 295.189,369.437 294.999,369.975 294.758,370.662 294.34,372.242 293.986,373.831 293.696,375.427 293.47,377.031 293.309,378.643 293.212,380.262 293.18,381.889 293.212,383.523 293.258,384.244 293.307,384.913 293.443,386.083 293.615,387.245 293.824,388.399 294.068,389.544 294.348,390.682 294.664,391.811 295.016,392.932 295.405,394.044 295.673,394.664 295.845,395.052 296.174,395.729 296.529,396.388 296.91,397.03 297.318,397.655 297.752,398.262 298.213,398.852 298.7,399.424 299.213,399.979 299.542,400.265 299.77,400.466 300.216,400.792 300.677,401.084 301.151,401.341 301.639,401.564 302.141,401.753 302.657,401.907 303.186,402.026 303.729,402.112 304.045,402.109 304.361,402.109 304.903,402.016 305.431,401.889 305.945,401.73 306.443,401.538 306.928,401.313 307.397,401.055 307.853,400.764 308.293,400.44 308.521,400.238 308.866,399.936 309.253,399.517 309.625,399.088 309.983,398.649 310.327,398.199 310.657,397.739 310.972,397.269 311.273,396.789 311.56,396.298 311.767,395.896 312.077,395.296 312.405,394.517 312.712,393.734 313,392.944 313.269,392.148 313.518,391.347 313.747,390.54 313.957,389.728 314.147,388.909 314.268,388.252 314.403,387.513 314.566,386.206 314.691,384.899 314.778,383.59 314.825,382.281 314.835,380.971 314.805,379.66 314.737,378.349 314.631,377.036 " />
<polyline points="197.552,410.348 197.552,284.857 323.043,284.857 323.043,410.348 " />
</g>
</svg>
