<svg xmlns="http://www.w3.org/2000/svg" xml:space="preserve" fill-rule="evenodd" stroke-linecap="round" stroke-linejoin="round" style="background-color:transparent" viewBox="0 0 1024 768"><defs><style><![CDATA[g[clip-path]>*{vector-effect:non-scaling-stroke}]]></style></defs><g fill="#ed1f24" stroke="#ed1f24" clip-path="url(#clipId0)"><path d="M666 403V277l126 126z"/><path d="M792 403 666 277h126z"/></g><g fill="none" stroke="currentColor" clip-path="url(#clipId0)"><path d="M10 102h1004M1014 102v94M1014 196H10M10 196v50M10 246h1004M10 102v564M10 666h1004M1014 666V196M1014 572H10M10 522h1004M10 102h1004M1014 102v94M1014 196H10M10 196v50M10 246h1004M10 102v564M10 666h1004M1014 666V196M1014 572H10M10 522h1004M345 102v94M679 102v94M345 572v94M679 572v94"/><circle cx="54" cy="148.7" r="12.5"/><circle cx="91.6" cy="148.7" r="12.5"/><circle cx="263.1" cy="148.7" r="12.5"/><circle cx="300.8" cy="148.7" r="12.5"/><circle cx="970" cy="619.3" r="12.5"/><circle cx="932.4" cy="619.3" r="12.5"/><circle cx="760.9" cy="619.3" r="12.5"/><circle cx="723.2" cy="619.3" r="12.5"/><circle cx="635.4" cy="619.3" r="12.5"/><circle cx="597.8" cy="619.3" r="12.5"/><circle cx="426.2" cy="619.3" r="12.5"/><circle cx="388.6" cy="619.3" r="12.5"/><circle cx="300.8" cy="619.3" r="12.5"/><circle cx="263.1" cy="619.3" r="12.5"/><circle cx="91.6" cy="619.3" r="12.5"/><circle cx="54" cy="619.3" r="12.5"/><circle cx="54" cy="264.8" r="9.4"/><circle cx="91.6" cy="264.8" r="9.4"/><circle cx="263.1" cy="264.8" r="9.4"/><circle cx="300.8" cy="264.8" r="9.4"/><circle cx="54" cy="496.9" r="9.4"/><circle cx="91.6" cy="496.9" r="9.4"/><circle cx="263.1" cy="496.9" r="9.4"/><circle cx="300.8" cy="496.9" r="9.4"/><circle cx="388.6" cy="496.9" r="9.4"/><circle cx="426.2" cy="496.9" r="9.4"/><circle cx="597.8" cy="496.9" r="9.4"/><circle cx="635.4" cy="496.9" r="9.4"/><circle cx="723.2" cy="496.9" r="9.4"/><circle cx="760.9" cy="496.9" r="9.4"/><circle cx="932.4" cy="496.9" r="9.4"/><circle cx="970" cy="496.9" r="9.4"/></g><g fill="currentColor" stroke="currentColor" clip-path="url(#clipId0)"><text font-family="Arial,'sans-serif'" font-size="1.4" transform="matrix(19 0 0 19 43 302)">C</text><text font-family="Arial,'sans-serif'" font-size="1.4" transform="matrix(19 0 0 19 82 302)">T10</text></g><g fill="none" stroke="currentColor" clip-path="url(#clipId0)"><path d="M72 360v-47M72 313h75M147 313v94M147 407H72M72 407v-47M983 360v-47M983 313h-76M907 313v94M907 407h76M983 407v-47"/></g><g fill="red" stroke="red" clip-path="url(#clipId0)"><path fill="url(#g_0)" d="M101 431v-5z"/><path fill="url(#g_1)" d="M101 431v-5l1 7z"/><path fill="url(#g_2)" d="m102 433-1-7 1-2z"/><path fill="url(#g_3)" d="M102 433v-9l1 10z"/><path fill="url(#g_4)" d="m103 434-1-10 1-1z"/><path fill="url(#g_5)" d="M103 434v-11l2 13z"/><path fill="url(#g_6)" d="m105 436-2-13 2-2z"/><path fill="url(#g_7)" d="M105 436v-15l1 16z"/><path fill="url(#g_8)" d="m106 437-1-16 1-1z"/><path fill="url(#g_9)" d="M106 437v-17l2 18z"/><path fill="url(#g_10)" d="m108 438-2-18 2-1z"/><path fill="url(#g_11)" d="M108 438v-19l2 19z"/><path fill="url(#g_12)" d="m110 438-2-19h2z"/><path fill="url(#g_13)" d="M110 438v-19l3 19z"/><path fill="url(#g_14)" d="m113 438-3-19h3z"/><path fill="url(#g_15)" d="M113 438v-19l2 18z"/><path fill="url(#g_16)" d="m115 437-2-18 2 1z"/><path fill="url(#g_17)" d="M115 437v-17l1 16z"/><path fill="url(#g_18)" d="m116 436-1-16 1 1z"/><path fill="url(#g_19)" d="M116 436v-15l2 13z"/><path fill="url(#g_20)" d="m118 434-2-13 2 2z"/><path fill="url(#g_21)" d="M118 434v-11l1 10z"/><path fill="url(#g_22)" d="m119 433-1-10 1 1z"/><path fill="url(#g_23)" d="M119 433v-9l1 7z"/><path fill="url(#g_24)" d="m120 431-1-7 1 2z"/><path fill="url(#g_25)" d="M120 431v-5 2z"/><path fill="url(#g_26)" d="M155 431v-5z"/><path fill="url(#g_27)" d="M155 431v-5 7z"/><path fill="url(#g_28)" d="M155 433v-9z"/><path fill="url(#g_29)" d="M155 433v-9l2 10z"/><path fill="url(#g_30)" d="m157 434-2-10 2-1z"/><path fill="url(#g_31)" d="M157 434v-11l1 13z"/><path fill="url(#g_32)" d="m158 436-1-13 1-2z"/><path fill="url(#g_33)" d="M158 436v-15l2 16z"/><path fill="url(#g_34)" d="m160 437-2-16 2-1z"/><path fill="url(#g_35)" d="M160 437v-17l2 18z"/><path fill="url(#g_36)" d="m162 438-2-18 2-1z"/><path fill="url(#g_37)" d="M162 438v-19l2 19z"/><path fill="url(#g_38)" d="m164 438-2-19h2z"/><path fill="url(#g_39)" d="M164 438v-19l2 19z"/><path fill="url(#g_40)" d="m166 438-2-19h2z"/><path fill="url(#g_41)" d="M166 438v-19l2 18z"/><path fill="url(#g_42)" d="m168 437-2-18 2 1z"/><path fill="url(#g_43)" d="M168 437v-17l2 16z"/><path fill="url(#g_44)" d="m170 436-2-16 2 1z"/><path fill="url(#g_45)" d="M170 436v-15l1 13z"/><path fill="url(#g_46)" d="m171 434-1-13 1 2z"/><path fill="url(#g_47)" d="M171 434v-11l1 10z"/><path fill="url(#g_48)" d="m172 433-1-10 1 1z"/><path fill="url(#g_49)" d="M172 433v-9l1 7z"/><path fill="url(#g_50)" d="m173 431-1-7 1 2z"/><path fill="url(#g_51)" d="M173 431v-5 2z"/><path fill="url(#g_52)" d="M208 431v-5z"/><path fill="url(#g_53)" d="M208 431v-5l1 7z"/><path fill="url(#g_54)" d="m209 433-1-7 1-2z"/><path fill="url(#g_55)" d="M209 433v-9l1 10z"/><path fill="url(#g_56)" d="m210 434-1-10 1-1z"/><path fill="url(#g_57)" d="M210 434v-11l2 13z"/><path fill="url(#g_58)" d="m212 436-2-13 2-2z"/><path fill="url(#g_59)" d="M212 436v-15l1 16z"/><path fill="url(#g_60)" d="m213 437-1-16 1-1z"/><path fill="url(#g_61)" d="M213 437v-17l2 18z"/><path fill="url(#g_62)" d="m215 438-2-18 2-1z"/><path fill="url(#g_63)" d="M215 438v-19l2 19z"/><path fill="url(#g_64)" d="m217 438-2-19h2z"/><path fill="url(#g_65)" d="M217 438v-19l3 19z"/><path fill="url(#g_66)" d="m220 438-3-19h3z"/><path fill="url(#g_67)" d="M220 438v-19l2 18z"/><path fill="url(#g_68)" d="m222 437-2-18 2 1z"/><path fill="url(#g_69)" d="M222 437v-17l1 16z"/><path fill="url(#g_70)" d="m223 436-1-16 1 1z"/><path fill="url(#g_71)" d="M223 436v-15l2 13z"/><path fill="url(#g_72)" d="m225 434-2-13 2 2z"/><path fill="url(#g_73)" d="M225 434v-11l1 10z"/><path fill="url(#g_74)" d="m226 433-1-10 1 1z"/><path fill="url(#g_75)" d="M226 433v-9l1 7z"/><path fill="url(#g_76)" d="m227 431-1-7 1 2z"/><path fill="url(#g_77)" d="M227 431v-5 2z"/><path fill="url(#g_78)" d="M262 431v-5z"/><path fill="url(#g_79)" d="M262 431v-5l1 7z"/><path fill="url(#g_80)" d="m263 433-1-7 1-2z"/><path fill="url(#g_81)" d="M263 433v-9l1 10z"/><path fill="url(#g_82)" d="m264 434-1-10 1-1z"/><path fill="url(#g_83)" d="M264 434v-11l1 13z"/><path fill="url(#g_84)" d="m265 436-1-13 1-2z"/><path fill="url(#g_85)" d="M265 436v-15l2 16z"/><path fill="url(#g_86)" d="m267 437-2-16 2-1z"/><path fill="url(#g_87)" d="M267 437v-17l2 18z"/><path fill="url(#g_88)" d="m269 438-2-18 2-1z"/><path fill="url(#g_89)" d="M269 438v-19l2 19z"/><path fill="url(#g_90)" d="m271 438-2-19h2z"/><path fill="url(#g_91)" d="M271 438v-19l2 19z"/><path fill="url(#g_92)" d="m273 438-2-19h2z"/><path fill="url(#g_93)" d="M273 438v-19l2 18z"/><path fill="url(#g_94)" d="m275 437-2-18 2 1z"/><path fill="url(#g_95)" d="M275 437v-17l2 16z"/><path fill="url(#g_96)" d="m277 436-2-16 2 1z"/><path fill="url(#g_97)" d="M277 436v-15l1 13z"/><path fill="url(#g_98)" d="m278 434-1-13 1 2z"/><path fill="url(#g_99)" d="M278 434v-11l2 10z"/><path fill="url(#g_100)" d="m280 433-2-10 2 1z"/><path fill="url(#g_101)" d="M280 433v-9 7z"/><path fill="url(#g_102)" d="M280 431v-7 2z"/><path fill="url(#g_103)" d="M280 431v-5 2z"/><path fill="url(#g_104)" d="M315 431v-5z"/><path fill="url(#g_105)" d="M315 431v-5l1 7z"/><path fill="url(#g_106)" d="m316 433-1-7 1-2z"/><path fill="url(#g_107)" d="M316 433v-9l1 10z"/><path fill="url(#g_108)" d="m317 434-1-10 1-1z"/><path fill="url(#g_109)" d="M317 434v-11l2 13z"/><path fill="url(#g_110)" d="m319 436-2-13 2-2z"/><path fill="url(#g_111)" d="M319 436v-15l1 16z"/><path fill="url(#g_112)" d="m320 437-1-16 1-1z"/><path fill="url(#g_113)" d="M320 437v-17l2 18z"/><path fill="url(#g_114)" d="m322 438-2-18 2-1z"/><path fill="url(#g_115)" d="M322 438v-19l3 19z"/><path fill="url(#g_116)" d="m325 438-3-19h3z"/><path fill="url(#g_117)" d="M325 438v-19l2 19z"/><path fill="url(#g_118)" d="m327 438-2-19h2z"/><path fill="url(#g_119)" d="M327 438v-19l2 18z"/><path fill="url(#g_120)" d="m329 437-2-18 2 1z"/><path fill="url(#g_121)" d="M329 437v-17l1 16z"/><path fill="url(#g_122)" d="m330 436-1-16 1 1z"/><path fill="url(#g_123)" d="M330 436v-15l2 13z"/><path fill="url(#g_124)" d="m332 434-2-13 2 2z"/><path fill="url(#g_125)" d="M332 434v-11l1 10z"/><path fill="url(#g_126)" d="m333 433-1-10 1 1z"/><path fill="url(#g_127)" d="M333 433v-9l1 7z"/><path fill="url(#g_128)" d="m334 431-1-7 1 2z"/><path fill="url(#g_129)" d="M334 431v-5 2z"/><path fill="url(#g_130)" d="M369 431v-5z"/><path fill="url(#g_131)" d="M369 431v-5l1 7z"/><path fill="url(#g_132)" d="m370 433-1-7 1-2z"/><path fill="url(#g_133)" d="M370 433v-9l1 10z"/><path fill="url(#g_134)" d="m371 434-1-10 1-1z"/><path fill="url(#g_135)" d="M371 434v-11l1 13z"/><path fill="url(#g_136)" d="m372 436-1-13 1-2z"/><path fill="url(#g_137)" d="M372 436v-15l2 16z"/><path fill="url(#g_138)" d="m374 437-2-16 2-1z"/><path fill="url(#g_139)" d="M374 437v-17l2 18z"/><path fill="url(#g_140)" d="m376 438-2-18 2-1z"/><path fill="url(#g_141)" d="M376 438v-19l2 19z"/><path fill="url(#g_142)" d="m378 438-2-19h2z"/><path fill="url(#g_143)" d="M378 438v-19l2 19z"/><path fill="url(#g_144)" d="m380 438-2-19h2z"/><path fill="url(#g_145)" d="M380 438v-19l2 18z"/><path fill="url(#g_146)" d="m382 437-2-18 2 1z"/><path fill="url(#g_147)" d="M382 437v-17l2 16z"/><path fill="url(#g_148)" d="m384 436-2-16 2 1z"/><path fill="url(#g_149)" d="M384 436v-15l1 13z"/><path fill="url(#g_150)" d="m385 434-1-13 1 2z"/><path fill="url(#g_151)" d="M385 434v-11l2 10z"/><path fill="url(#g_152)" d="m387 433-2-10 2 1z"/><path fill="url(#g_153)" d="M387 433v-9 7z"/><path fill="url(#g_154)" d="M387 431v-7 2z"/><path fill="url(#g_155)" d="M387 431v-5l1 2z"/><path fill="url(#g_156)" d="M422 431v-5z"/><path fill="url(#g_157)" d="M422 431v-5l1 7z"/><path fill="url(#g_158)" d="m423 433-1-7 1-2z"/><path fill="url(#g_159)" d="M423 433v-9l1 10z"/><path fill="url(#g_160)" d="m424 434-1-10 1-1z"/><path fill="url(#g_161)" d="M424 434v-11l2 13z"/><path fill="url(#g_162)" d="m426 436-2-13 2-2z"/><path fill="url(#g_163)" d="M426 436v-15l2 16z"/><path fill="url(#g_164)" d="m428 437-2-16 2-1z"/><path fill="url(#g_165)" d="M428 437v-17l2 18z"/><path fill="url(#g_166)" d="m430 438-2-18 2-1z"/><path fill="url(#g_167)" d="M430 438v-19l2 19z"/><path fill="url(#g_168)" d="m432 438-2-19h2z"/><path fill="url(#g_169)" d="M432 438v-19l2 19z"/><path fill="url(#g_170)" d="m434 438-2-19h2z"/><path fill="url(#g_171)" d="M434 438v-19l2 18z"/><path fill="url(#g_172)" d="m436 437-2-18 2 1z"/><path fill="url(#g_173)" d="M436 437v-17l1 16z"/><path fill="url(#g_174)" d="m437 436-1-16 1 1z"/><path fill="url(#g_175)" d="M437 436v-15l2 13z"/><path fill="url(#g_176)" d="m439 434-2-13 2 2z"/><path fill="url(#g_177)" d="M439 434v-11l1 10z"/><path fill="url(#g_178)" d="m440 433-1-10 1 1z"/><path fill="url(#g_179)" d="M440 433v-9l1 7z"/><path fill="url(#g_180)" d="m441 431-1-7 1 2z"/><path fill="url(#g_181)" d="M441 431v-5 2z"/><path fill="url(#g_182)" d="M476 431v-5z"/><path fill="url(#g_183)" d="M476 431v-5l1 7z"/><path fill="url(#g_184)" d="m477 433-1-7 1-2z"/><path fill="url(#g_185)" d="M477 433v-9l1 10z"/><path fill="url(#g_186)" d="m478 434-1-10 1-1z"/><path fill="url(#g_187)" d="M478 434v-11l1 13z"/><path fill="url(#g_188)" d="m479 436-1-13 1-2z"/><path fill="url(#g_189)" d="M479 436v-15l2 16z"/><path fill="url(#g_190)" d="m481 437-2-16 2-1z"/><path fill="url(#g_191)" d="M481 437v-17l2 18z"/><path fill="url(#g_192)" d="m483 438-2-18 2-1z"/><path fill="url(#g_193)" d="M483 438v-19l2 19z"/><path fill="url(#g_194)" d="m485 438-2-19h2z"/><path fill="url(#g_195)" d="M485 438v-19l2 19z"/><path fill="url(#g_196)" d="m487 438-2-19h2z"/><path fill="url(#g_197)" d="M487 438v-19l2 18z"/><path fill="url(#g_198)" d="m489 437-2-18 2 1z"/><path fill="url(#g_199)" d="M489 437v-17l2 16z"/><path fill="url(#g_200)" d="m491 436-2-16 2 1z"/><path fill="url(#g_201)" d="M491 436v-15l2 13z"/><path fill="url(#g_202)" d="m493 434-2-13 2 2z"/><path fill="url(#g_203)" d="M493 434v-11l1 10z"/><path fill="url(#g_204)" d="m494 433-1-10 1 1z"/><path fill="url(#g_205)" d="M494 433v-9 7z"/><path fill="url(#g_206)" d="M494 431v-7 2z"/><path fill="url(#g_207)" d="M494 431v-5l1 2z"/><path fill="url(#g_208)" d="m530 431-1-3 1-2z"/><path fill="url(#g_209)" d="M530 431v-5 7z"/><path fill="url(#g_210)" d="M530 433v-9z"/><path fill="url(#g_211)" d="M530 433v-9l1 10z"/><path fill="url(#g_212)" d="m531 434-1-10 1-1z"/><path fill="url(#g_213)" d="M531 434v-11l2 13z"/><path fill="url(#g_214)" d="m533 436-2-13 2-2z"/><path fill="url(#g_215)" d="M533 436v-15l2 16z"/><path fill="url(#g_216)" d="m535 437-2-16 2-1z"/><path fill="url(#g_217)" d="M535 437v-17l2 18z"/><path fill="url(#g_218)" d="m537 438-2-18 2-1z"/><path fill="url(#g_219)" d="M537 438v-19l2 19z"/><path fill="url(#g_220)" d="m539 438-2-19h2z"/><path fill="url(#g_221)" d="M539 438v-19l2 19z"/><path fill="url(#g_222)" d="m541 438-2-19h2z"/><path fill="url(#g_223)" d="M541 438v-19l2 18z"/><path fill="url(#g_224)" d="m543 437-2-18 2 1z"/><path fill="url(#g_225)" d="M543 437v-17l2 16z"/><path fill="url(#g_226)" d="m545 436-2-16 2 1z"/><path fill="url(#g_227)" d="M545 436v-15l1 13z"/><path fill="url(#g_228)" d="m546 434-1-13 1 2z"/><path fill="url(#g_229)" d="M546 434v-11l1 10z"/><path fill="url(#g_230)" d="m547 433-1-10 1 1z"/><path fill="url(#g_231)" d="M547 433v-9l1 7z"/><path fill="url(#g_232)" d="m548 431-1-7 1 2z"/><path fill="url(#g_233)" d="M548 431v-5 2z"/><path fill="url(#g_234)" d="M583 431v-5z"/><path fill="url(#g_235)" d="M583 431v-5l1 7z"/><path fill="url(#g_236)" d="m584 433-1-7 1-2z"/><path fill="url(#g_237)" d="M584 433v-9l1 10z"/><path fill="url(#g_238)" d="m585 434-1-10 1-1z"/><path fill="url(#g_239)" d="M585 434v-11l1 13z"/><path fill="url(#g_240)" d="m586 436-1-13 1-2z"/><path fill="url(#g_241)" d="M586 436v-15l2 16z"/><path fill="url(#g_242)" d="m588 437-2-16 2-1z"/><path fill="url(#g_243)" d="M588 437v-17l2 18z"/><path fill="url(#g_244)" d="m590 438-2-18 2-1z"/><path fill="url(#g_245)" d="M590 438v-19l2 19z"/><path fill="url(#g_246)" d="m592 438-2-19h2z"/><path fill="url(#g_247)" d="M592 438v-19l2 19z"/><path fill="url(#g_248)" d="m594 438-2-19h2z"/><path fill="url(#g_249)" d="M594 438v-19l2 18z"/><path fill="url(#g_250)" d="m596 437-2-18 2 1z"/><path fill="url(#g_251)" d="M596 437v-17l2 16z"/><path fill="url(#g_252)" d="m598 436-2-16 2 1z"/><path fill="url(#g_253)" d="M598 436v-15l2 13z"/><path fill="url(#g_254)" d="m600 434-2-13 2 2z"/><path fill="url(#g_255)" d="M600 434v-11l1 10z"/><path fill="url(#g_256)" d="m601 433-1-10 1 1z"/><path fill="url(#g_257)" d="M601 433v-9 7z"/><path fill="url(#g_258)" d="M601 431v-7 2z"/><path fill="url(#g_259)" d="M601 431v-5l1 2z"/><path fill="url(#g_260)" d="m637 431-1-3 1-2z"/><path fill="url(#g_261)" d="M637 431v-5 7z"/><path fill="url(#g_262)" d="M637 433v-9z"/><path fill="url(#g_263)" d="M637 433v-9l1 10z"/><path fill="url(#g_264)" d="m638 434-1-10 1-1z"/><path fill="url(#g_265)" d="M638 434v-11l2 13z"/><path fill="url(#g_266)" d="m640 436-2-13 2-2z"/><path fill="url(#g_267)" d="M640 436v-15l2 16z"/><path fill="url(#g_268)" d="m642 437-2-16 2-1z"/><path fill="url(#g_269)" d="M642 437v-17l2 18z"/><path fill="url(#g_270)" d="m644 438-2-18 2-1z"/><path fill="url(#g_271)" d="M644 438v-19l2 19z"/><path fill="url(#g_272)" d="m646 438-2-19h2z"/><path fill="url(#g_273)" d="M646 438v-19l2 19z"/><path fill="url(#g_274)" d="m648 438-2-19h2z"/><path fill="url(#g_275)" d="M648 438v-19l2 18z"/><path fill="url(#g_276)" d="m650 437-2-18 2 1z"/><path fill="url(#g_277)" d="M650 437v-17l2 16z"/><path fill="url(#g_278)" d="m652 436-2-16 2 1z"/><path fill="url(#g_279)" d="M652 436v-15l1 13z"/><path fill="url(#g_280)" d="m653 434-1-13 1 2z"/><path fill="url(#g_281)" d="M653 434v-11l1 10z"/><path fill="url(#g_282)" d="m654 433-1-10 1 1z"/><path fill="url(#g_283)" d="M654 433v-9l1 7z"/><path fill="url(#g_284)" d="m655 431-1-7 1 2z"/><path fill="url(#g_285)" d="M655 431v-5 2z"/><path fill="url(#g_286)" d="M690 431v-5z"/><path fill="url(#g_287)" d="M690 431v-5l1 7z"/><path fill="url(#g_288)" d="m691 433-1-7 1-2z"/><path fill="url(#g_289)" d="M691 433v-9l1 10z"/><path fill="url(#g_290)" d="m692 434-1-10 1-1z"/><path fill="url(#g_291)" d="M692 434v-11l1 13z"/><path fill="url(#g_292)" d="m693 436-1-13 1-2z"/><path fill="url(#g_293)" d="M693 436v-15l2 16z"/><path fill="url(#g_294)" d="m695 437-2-16 2-1z"/><path fill="url(#g_295)" d="M695 437v-17l2 18z"/><path fill="url(#g_296)" d="m697 438-2-18 2-1z"/><path fill="url(#g_297)" d="M697 438v-19l2 19z"/><path fill="url(#g_298)" d="m699 438-2-19h2z"/><path fill="url(#g_299)" d="M699 438v-19l2 19z"/><path fill="url(#g_300)" d="m701 438-2-19h2z"/><path fill="url(#g_301)" d="M701 438v-19l2 18z"/><path fill="url(#g_302)" d="m703 437-2-18 2 1z"/><path fill="url(#g_303)" d="M703 437v-17l2 16z"/><path fill="url(#g_304)" d="m705 436-2-16 2 1z"/><path fill="url(#g_305)" d="M705 436v-15l2 13z"/><path fill="url(#g_306)" d="m707 434-2-13 2 2z"/><path fill="url(#g_307)" d="M707 434v-11l1 10z"/><path fill="url(#g_308)" d="m708 433-1-10 1 1z"/><path fill="url(#g_309)" d="M708 433v-9 7z"/><path fill="url(#g_310)" d="M708 431v-7 2z"/><path fill="url(#g_311)" d="M708 431v-5l1 2z"/><path fill="url(#g_312)" d="m744 431-1-3 1-2z"/><path fill="url(#g_313)" d="M744 431v-5 7z"/><path fill="url(#g_314)" d="M744 433v-9z"/><path fill="url(#g_315)" d="M744 433v-9l1 10z"/><path fill="url(#g_316)" d="m745 434-1-10 1-1z"/><path fill="url(#g_317)" d="M745 434v-11l2 13z"/><path fill="url(#g_318)" d="m747 436-2-13 2-2z"/><path fill="url(#g_319)" d="M747 436v-15l2 16z"/><path fill="url(#g_320)" d="m749 437-2-16 2-1z"/><path fill="url(#g_321)" d="M749 437v-17l2 18z"/><path fill="url(#g_322)" d="m751 438-2-18 2-1z"/><path fill="url(#g_323)" d="M751 438v-19l2 19z"/><path fill="url(#g_324)" d="m753 438-2-19h2z"/><path fill="url(#g_325)" d="M753 438v-19l2 19z"/><path fill="url(#g_326)" d="m755 438-2-19h2z"/><path fill="url(#g_327)" d="M755 438v-19l2 18z"/><path fill="url(#g_328)" d="m757 437-2-18 2 1z"/><path fill="url(#g_329)" d="M757 437v-17l2 16z"/><path fill="url(#g_330)" d="m759 436-2-16 2 1z"/><path fill="url(#g_331)" d="M759 436v-15l1 13z"/><path fill="url(#g_332)" d="m760 434-1-13 1 2z"/><path fill="url(#g_333)" d="M760 434v-11l1 10z"/><path fill="url(#g_334)" d="m761 433-1-10 1 1z"/><path fill="url(#g_335)" d="M761 433v-9l1 7z"/><path fill="url(#g_336)" d="m762 431-1-7 1 2z"/><path fill="url(#g_337)" d="M762 431v-5 2z"/><path fill="url(#g_338)" d="M797 431v-5z"/><path fill="url(#g_339)" d="M797 431v-5l1 7z"/><path fill="url(#g_340)" d="m798 433-1-7 1-2z"/><path fill="url(#g_341)" d="M798 433v-9l1 10z"/><path fill="url(#g_342)" d="m799 434-1-10 1-1z"/><path fill="url(#g_343)" d="M799 434v-11l1 13z"/><path fill="url(#g_344)" d="m800 436-1-13 1-2z"/><path fill="url(#g_345)" d="M800 436v-15l2 16z"/><path fill="url(#g_346)" d="m802 437-2-16 2-1z"/><path fill="url(#g_347)" d="M802 437v-17l2 18z"/><path fill="url(#g_348)" d="m804 438-2-18 2-1z"/><path fill="url(#g_349)" d="M804 438v-19l2 19z"/><path fill="url(#g_350)" d="m806 438-2-19h2z"/><path fill="url(#g_351)" d="M806 438v-19l2 19z"/><path fill="url(#g_352)" d="m808 438-2-19h2z"/><path fill="url(#g_353)" d="M808 438v-19l2 18z"/><path fill="url(#g_354)" d="m810 437-2-18 2 1z"/><path fill="url(#g_355)" d="M810 437v-17l2 16z"/><path fill="url(#g_356)" d="m812 436-2-16 2 1z"/><path fill="url(#g_357)" d="M812 436v-15l2 13z"/><path fill="url(#g_358)" d="m814 434-2-13 2 2z"/><path fill="url(#g_359)" d="M814 434v-11l1 10z"/><path fill="url(#g_360)" d="m815 433-1-10 1 1z"/><path fill="url(#g_361)" d="M815 433v-9l1 7z"/><path fill="url(#g_362)" d="m816 431-1-7 1 2z"/><path fill="url(#g_363)" d="M816 431v-5 2z"/><path fill="url(#g_364)" d="m851 431-1-3 1-2z"/><path fill="url(#g_365)" d="M851 431v-5 7z"/><path fill="url(#g_366)" d="M851 433v-9z"/><path fill="url(#g_367)" d="M851 433v-9l2 10z"/><path fill="url(#g_368)" d="m853 434-2-10 2-1z"/><path fill="url(#g_369)" d="M853 434v-11l1 13z"/><path fill="url(#g_370)" d="m854 436-1-13 1-2z"/><path fill="url(#g_371)" d="M854 436v-15l2 16z"/><path fill="url(#g_372)" d="m856 437-2-16 2-1z"/><path fill="url(#g_373)" d="M856 437v-17l2 18z"/><path fill="url(#g_374)" d="m858 438-2-18 2-1z"/><path fill="url(#g_375)" d="M858 438v-19l2 19z"/><path fill="url(#g_376)" d="m860 438-2-19h2z"/><path fill="url(#g_377)" d="M860 438v-19l2 19z"/><path fill="url(#g_378)" d="m862 438-2-19h2z"/><path fill="url(#g_379)" d="M862 438v-19l2 18z"/><path fill="url(#g_380)" d="m864 437-2-18 2 1z"/><path fill="url(#g_381)" d="M864 437v-17l2 16z"/><path fill="url(#g_382)" d="m866 436-2-16 2 1z"/><path fill="url(#g_383)" d="M866 436v-15l1 13z"/><path fill="url(#g_384)" d="m867 434-1-13 1 2z"/><path fill="url(#g_385)" d="M867 434v-11l1 10z"/><path fill="url(#g_386)" d="m868 433-1-10 1 1z"/><path fill="url(#g_387)" d="M868 433v-9l1 7z"/><path fill="url(#g_388)" d="m869 431-1-7 1 2z"/><path fill="url(#g_389)" d="M869 431v-5 2z"/><path fill="url(#g_390)" d="M904 431v-5z"/><path fill="url(#g_391)" d="M904 431v-5l1 7z"/><path fill="url(#g_392)" d="m905 433-1-7 1-2z"/><path fill="url(#g_393)" d="M905 433v-9l1 10z"/><path fill="url(#g_394)" d="m906 434-1-10 1-1z"/><path fill="url(#g_395)" d="M906 434v-11l2 13z"/><path fill="url(#g_396)" d="m908 436-2-13 2-2z"/><path fill="url(#g_397)" d="M908 436v-15l1 16z"/><path fill="url(#g_398)" d="m909 437-1-16 1-1z"/><path fill="url(#g_399)" d="M909 437v-17l2 18z"/><path fill="url(#g_400)" d="m911 438-2-18 2-1z"/><path fill="url(#g_401)" d="M911 438v-19l3 19z"/><path fill="url(#g_402)" d="m914 438-3-19h3z"/><path fill="url(#g_403)" d="M914 438v-19l2 19z"/><path fill="url(#g_404)" d="m916 438-2-19h2z"/><path fill="url(#g_405)" d="M916 438v-19l2 18z"/><path fill="url(#g_406)" d="m918 437-2-18 2 1z"/><path fill="url(#g_407)" d="M918 437v-17l1 16z"/><path fill="url(#g_408)" d="m919 436-1-16 1 1z"/><path fill="url(#g_409)" d="M919 436v-15l2 13z"/><path fill="url(#g_410)" d="m921 434-2-13 2 2z"/><path fill="url(#g_411)" d="M921 434v-11l1 10z"/><path fill="url(#g_412)" d="m922 433-1-10 1 1z"/><path fill="url(#g_413)" d="M922 433v-9l1 7z"/><path fill="url(#g_414)" d="m923 431-1-7 1 2z"/><path fill="url(#g_415)" d="M923 431v-5 3z"/></g><g fill="none" stroke="currentColor" clip-path="url(#clipId0)"><circle cx="110.4" cy="428.5" r="9.4"/><circle cx="431.6" cy="428.5" r="9.4"/><circle cx="592.2" cy="428.5" r="9.4"/><circle cx="752.8" cy="428.5" r="9.4"/><circle cx="913.6" cy="428.5" r="9.4"/></g><g fill="currentColor" stroke="currentColor" clip-path="url(#clipId0)"><text font-family="Arial,'sans-serif'" font-size="1.4" transform="matrix(19 0 0 19 103 461)">0</text><text font-family="Arial,'sans-serif'" font-size="1.4" transform="matrix(19 0 0 19 154 461)">1</text><text font-family="Arial,'sans-serif'" font-size="1.4" transform="matrix(19 0 0 19 211 461)">2</text><text font-family="Arial,'sans-serif'" font-size="1.4" transform="matrix(19 0 0 19 264 461)">3</text><text font-family="Arial,'sans-serif'" font-size="1.4" transform="matrix(19 0 0 19 318 461)">4</text><text font-family="Arial,'sans-serif'" font-size="1.4" transform="matrix(19 0 0 19 372 461)">5</text></g><g fill="none" stroke="currentColor" clip-path="url(#clipId0)"><circle cx="843.9" cy="359.8" r="9.4"/></g><g fill="currentColor" stroke="currentColor" clip-path="url(#clipId0)"><text font-family="Arial,'sans-serif'" font-size="1.4" transform="matrix(13 0 0 13 393 331)">INPUT MODULE</text><text font-family="Arial,'sans-serif'" font-size="1.4" transform="matrix(13 0 0 13 392 352)">16 X NO/NC CONTACT</text><text font-family="Arial,'sans-serif'" font-size="1.4" transform="matrix(13 0 0 13 394 372)">2 X TEMP. SENSOR</text><text font-family="Arial,'sans-serif'" font-size="1.4" transform="matrix(19 0 0 19 595 374)">CE</text></g><g fill="none" stroke="currentColor" clip-path="url(#clipId0)"><path d="M384 310v72M384 382h258M642 382v-62M384 310h258M642 310v10"/></g><g fill="currentColor" stroke="currentColor" clip-path="url(#clipId0)"><text font-family="Arial,'sans-serif'" font-size="1.4" transform="matrix(19 0 0 19 252 302)">C</text><text font-family="Arial,'sans-serif'" font-size="1.4" transform="matrix(19 0 0 19 291 302)">T11</text></g><g fill="none" stroke="currentColor" clip-path="url(#clipId0)"><circle cx="196.2" cy="619.3" r="12.5"/><circle cx="158.5" cy="619.3" r="12.5"/><circle cx="635.4" cy="619.3" r="12.5"/><circle cx="597.8" cy="619.3" r="12.5"/><circle cx="426.2" cy="619.3" r="12.5"/><circle cx="388.6" cy="619.3" r="12.5"/><circle cx="530.8" cy="619.3" r="12.5"/><circle cx="493.2" cy="619.3" r="12.5"/><circle cx="970" cy="619.3" r="12.5"/><circle cx="932.4" cy="619.3" r="12.5"/><circle cx="760.9" cy="619.3" r="12.5"/><circle cx="723.2" cy="619.3" r="12.5"/><circle cx="865.5" cy="619.3" r="12.5"/><circle cx="827.8" cy="619.3" r="12.5"/><circle cx="158.5" cy="496.9" r="9.4"/><circle cx="196.2" cy="496.9" r="9.4"/><circle cx="388.6" cy="496.9" r="9.4"/><circle cx="426.2" cy="496.9" r="9.4"/><circle cx="597.8" cy="496.9" r="9.4"/><circle cx="635.4" cy="496.9" r="9.4"/><circle cx="493.2" cy="496.9" r="9.4"/><circle cx="530.8" cy="496.9" r="9.4"/><circle cx="723.2" cy="496.9" r="9.4"/><circle cx="760.9" cy="496.9" r="9.4"/><circle cx="932.4" cy="496.9" r="9.4"/><circle cx="970" cy="496.9" r="9.4"/><circle cx="827.8" cy="496.9" r="9.4"/><circle cx="865.5" cy="496.9" r="9.4"/><circle cx="164" cy="428.5" r="9.4"/><circle cx="217.5" cy="428.5" r="9.4"/><circle cx="271" cy="428.5" r="9.4"/><circle cx="324.6" cy="428.5" r="9.4"/><circle cx="378.1" cy="428.5" r="9.4"/><circle cx="485.2" cy="428.5" r="9.4"/><circle cx="538.7" cy="428.5" r="9.4"/><circle cx="645.8" cy="428.5" r="9.4"/><circle cx="699.3" cy="428.5" r="9.4"/><circle cx="806.3" cy="428.5" r="9.4"/><circle cx="859.9" cy="428.5" r="9.4"/></g><g fill="currentColor" stroke="currentColor" clip-path="url(#clipId0)"><text font-family="Arial,'sans-serif'" font-size="1.4" transform="matrix(19 0 0 19 424 461)">6</text><text font-family="Arial,'sans-serif'" font-size="1.4" transform="matrix(19 0 0 19 479 461)">7</text><text font-family="Arial,'sans-serif'" font-size="1.4" transform="matrix(19 0 0 19 532 461)">8</text><text font-family="Arial,'sans-serif'" font-size="1.4" transform="matrix(19 0 0 19 585 461)">9</text><text font-family="Arial,'sans-serif'" font-size="1.4" transform="matrix(19 0 0 19 640 461)">A</text><text font-family="Arial,'sans-serif'" font-size="1.4" transform="matrix(19 0 0 19 691 461)">B</text><text font-family="Arial,'sans-serif'" font-size="1.4" transform="matrix(19 0 0 19 746 461)">C</text><text font-family="Arial,'sans-serif'" font-size="1.4" transform="matrix(19 0 0 19 799 461)">D</text><text font-family="Arial,'sans-serif'" font-size="1.4" transform="matrix(19 0 0 19 852 461)">E</text><text font-family="Arial,'sans-serif'" font-size="1.4" transform="matrix(19 0 0 19 906 461)">F</text><text font-family="Arial,'sans-serif'" font-size="1.4" transform="matrix(19 0 0 19 43 482)">C</text><text font-family="Arial,'sans-serif'" font-size="1.4" transform="matrix(19 0 0 19 959 482)">C</text></g><g fill="none" stroke="currentColor" clip-path="url(#clipId0)"><path d="M54 149V67M92 149V67M263 149V67M301 149V67M54 619v82M92 619v82M159 619v82M196 619v82M263 619v82M301 619v82M389 619v82M426 619v82M493 619v82M531 619v82M598 619v82M635 619v82M723 619v82M761 619v82M828 619v82M865 619v82M932 619v82M970 619v82"/></g><g fill="none" stroke="currentColor" clip-path="url(#clipId0)"><path d="M681 281v73h4l3 1v3h0l-7 1v25l1 2 2 1 4 1v6l-4-1-3-2-2-2-1-5-1-5v-21h-3v-4h3v-72l1-1h3"/></g><g fill="currentColor" stroke="currentColor" clip-path="url(#clipId0)"><path d="M674 358v-4zM674 358v-4h0zM674 358v-4zM675 358l-1-4h1zM675 358v-4zM675 358v-4h0zM675 358v-4zM675 358v-4h0zM675 358v-4zM676 358l-1-4h1zM676 358v-4zM676 358v-4h0zM676 358v-4zM676 358v-4h0zM676 358v-4zM676 358v-4h0zM676 358v-4zM677 358l-1-4h1zM677 358v-4zM677 358v-4h0zM677 358v-4zM677 358v-4h0zM677 358v-4zM677 358v-4h0zM677 358v-4zM677 358v-4h0zM677 358v-4zM677 358v-4h0zM677 358v-4zM677 358v-4h0zM677 358v-4zM677 358v-4h0zM677 358v-4zM677 358v-4h0zM677 282zM677 358v-4zM677 358v-4h0zM677 282zM677 282zM677 358v-4zM677 358v-4h0zM677 282zM677 282zM677 358v-4zM677 358v-4h0zM677 282zM677 282zM677 281zM677 358v-4zM677 358v-4h0zM677 282zM677 282zM677 281zM677 281zM677 358v-4zM677 358v-4h0zM677 282zM677 282zM677 281zM677 281zM677 358v-4zM677 358v-4h0zM677 282zM677 283v-2h0zM677 281zM677 281zM677 358v-4zM677 358v-4h0zM677 283v-2zM677 283v-2h0zM677 281zM677 281zM677 358v-4zM677 358v-4h0zM677 283v-2zM677 284v-3h0zM677 281zM677 281zM677 358v-4zM677 358v-4h0zM677 284v-3zM677 284v-3h0zM677 281zM677 281zM677 358v-4zM677 358v-4h0zM677 284v-3zM677 284v-3h0zM677 281zM677 281zM677 358v-4zM677 358v-4h0zM677 284v-3zM677 284v-3h0zM677 281zM677 281zM677 358v-4zM677 358v-4h0zM677 284v-3zM677 284v-3h0zM677 281zM677 281zM677 379zM677 358v-4zM677 358v-4h0zM677 284v-3zM677 284v-3h0zM677 281zM677 281zM677 379zM677 379zM677 358v-4zM677 358v-4h0zM677 284v-3zM677 285v-4h0zM677 281zM677 281zM677 379zM677 379zM677 358v-4zM677 358v-4h0zM677 291zM677 285v-4zM677 285v-4h0zM677 281zM677 281zM677 379zM677 380v-2h0zM677 358v-4zM677 358v-4h0zM677 291zM677 291zh0zM677 285v-4zM677 285v-4h0zM677 281zM677 281zM677 380v-2zM677 380v-2h0zM677 358v-4zM677 358v-4h0zM677 291v-1zM677 291v-1h0zM677 285v-4zM677 285v-4h0zM677 281zM677 281zM677 380v-2zM677 380v-2h0zM677 358v-4zM677 358v-4h0zM677 291v-1zM677 292v-2h0zM677 285v-4zM677 286v-5h0zM677 281zM677 281zM677 380v-2zM677 380v-2h0zM677 358v-4zM677 358v-4h0zM677 292v-2zM677 292v-2h0zM677 286v-5zM677 286v-5h0zM677 281zM677 281zM677 380v-4zM677 380v-6zM677 358v-4zM677 359v-7zM677 300v-10 16zM677 306v-17zM677 286v-5zM677 286v-5h0zM677 281zM677 281zM677 380v-6zM677 380v-7zM677 359v-7zM677 359v-8zM677 306v-17 20zM677 309v-20h0zM677 286v-5zM677 286v-5h0zM677 281zM677 281zM677 380v-7zM677 380v-8zM677 359v-8zM677 359v-9zM677 309v-20 22zM677 311v-22h0zM677 286v-5zM677 286v-5h0zM677 281zM677 281zM677 380v-8zM677 380v-9zM677 359v-9zM677 360v-10h0zM677 311v-22 24zM677 313v-24h0zM677 286v-5zM677 286v-5h0zM677 281zM677 281zM677 380v-9zM677 380v-10zM677 360v-10zM677 360v-11zM677 313v-24 28zM677 317v-29zM677 286v-5zM677 287v-6h0zM677 281zM677 281zM677 380v-10zM677 380v-10h0zM677 360v-11zM677 360v-12zM677 317v-29 31zM677 319v-31h0zM677 287v-6zM677 287v-6h0zM677 281zM677 281zM677 380v-10zM677 380v-11zM677 360v-12zM677 360v-12h0zM677 319v-31zM677 320v-32h0zM677 287v-6zM677 287v-6h0zM677 281zM677 281zM677 380v-11zM677 380v-12zM677 360v-12zM677 360v-12h0zM677 320v-32 34zM677 322v-34h0zM677 287v-6zM677 288v-7h0zM677 281zM677 281zM677 380v-12zM677 380v-12h0zM677 360v-12zM677 360v-12h0zM677 322v-41 42zM677 323v-42h0zM677 281zM677 281zM677 380v-12zM677 380v-14zM677 360v-12zM677 361v-14zM677 323v-42 48zM677 329v-48h0zM677 281zM677 281zM677 380v-14zM677 380v-15zM677 361v-14zM677 361v-14h0zM677 329v-48 51zM677 332v-51h0zM677 281zM677 281zM677 380v-15zM677 380v-16zM677 361v-14 15zM677 362v-20zM677 332v-51 54zM677 335v-54h0zM677 281zM677 281zM677 380v-16zM677 380v-18zM677 362v-27zM677 362v-27 6zM677 342v-61 60zM677 341v-60h0zM677 281zM677 281zM677 380v-99zM677 380v-99h0zM677 281zM677 281zM677 380v-99zM677 380v-99h0zM677 281zM677 380v-99zM677 380v-99h0zM677 380v-99zM677 380v-99h0zM677 380v-99zM677 381V281h0zM677 381V281zM677 382V281h0zM677 382V281zM677 382V281h0zM677 382V281zM677 383V281h0zM677 383V281zM677 383V281h0zM677 383V281zM677 383V281h0zM677 383V281l1 103z"/><path d="m678 384-1-103h1zM678 384V281zM678 385V281h0zM678 385V281zM678 385V281h0zM678 385V281zM678 385V281h0zM678 385V281zM678 386V281h0zM678 386V281zM678 386V281h0zM678 386V281zM678 386V281h0zM678 386V281zM678 387V281h0zM678 387V281zM678 387V281h0zM678 387V281zM679 387l-1-106h1zM679 387V281zM679 388V281h0zM679 388V281zM679 388V281h0zM679 388V281zM679 388V281h0zM679 388V281zM679 389V281h0zM679 389V281zM679 389V281h0zM679 389V281zM680 389l-1-108h1zM680 389V281zM680 389V281h0zM680 389V281zM680 390V281h0zM680 390V281zM680 390V281h0zM680 390V281zM680 390V281h0zM680 390V281zM680 390V281h0zM680 390V281zM681 391l-1-110h1zM681 391V281zM681 391V281h0zM681 391v-12zM681 391v-12h0zM681 377v-87 85zM681 375v-85 7zM681 391v-12zM681 391v-12h0zM681 375v-78 76zM681 373v-76 7zM681 391v-12zM681 391v-12h0zM681 373v-69 67zM681 371v-67 7zM681 391v-12zM681 391v-12 1zM681 371v-60 58zM681 369v-58 7zM681 391v-11zM681 391v-11h0zM681 369v-51 49zM681 367v-49 6zM681 391v-11zM681 391v-11h0zM681 367v-43zM681 367v-43 1zM681 391v-11zM681 391v-11h0zM681 367v-42 40zM681 365v-40 7zM681 391v-11zM681 391v-11h0zM681 365v-33 31zM681 363v-31 6zM681 391v-11zM681 391v-11h0zM681 363v-25 23zM681 361v-23 7zM681 391v-11zM681 391v-11h0zM681 361v-16 13zM681 358v-13 9zM681 391v-11zM681 391v-11 1zM681 358v-4zM681 358v-4h0zM681 391v-10zM681 391v-10h0zM681 358v-4zM681 358v-4h0zM681 391v-10zM681 391v-10 1zM681 358v-4zM681 358v-4h0zM681 391v-9zM681 391v-9h0zM681 358v-4zM681 358v-4h0zM681 391v-9zM681 391v-9 1zM681 358v-4zM681 358v-4h0zM681 391v-8zM681 391v-8h0zM681 358v-4zM681 358v-4h0zM681 391v-8zM681 391v-8 1zM681 358v-4zM681 358v-4h0zM681 391v-7zM681 391v-7h0zM681 358v-4zM681 358v-4h0zM681 391v-7zM682 392l-1-8 1 1zM681 358v-4zM682 358l-1-4h1zM682 392v-7zM682 392v-7h0zM682 358v-4zM682 358v-4h0zM682 392v-7zM682 392v-7h0zM682 358v-4zM682 358v-4h0zM682 392v-7zM682 392v-7h0zM682 358v-4zM682 358v-4h0zM682 392v-7zM682 392v-7 1zM682 358v-4zM682 358v-4h0zM682 392v-6zM682 392v-6h0zM682 358v-4zM682 358v-4h0zM682 392v-6zM682 392v-6h0zM682 358v-4zM682 358v-4h0zM682 392v-6zM682 392v-6h0zM682 358v-4zM682 358v-4h0zM682 392v-6zM683 392l-1-6h1zM682 358v-4zM683 358l-1-4h1zM683 392v-6zM683 392v-6 1zM683 358v-4zM683 358v-4h0zM683 392v-5zM683 392v-5h0zM683 358v-4zM683 358v-4h0zM683 392v-5zM683 392v-5h0zM683 358v-4zM683 358v-4h0zM683 392v-5zM683 392v-5h0zM683 358v-4zM683 358v-4h0zM683 392v-5zM684 393l-1-6h1zM683 358v-4zM684 358l-1-4h1zM684 393v-6zM684 393v-6h0zM684 358v-4zM684 358v-4h0zM684 393v-6zM684 393v-6h0zM684 358v-4zM684 358v-4h0zM684 393v-6zM684 393v-6 1zM684 358v-4zM684 358v-4h0zM684 393v-5zM684 393v-5h0zM684 358v-4zM684 358v-4h0zM684 393v-5zM685 393l-1-5h1zM684 358v-4zM685 358l-1-4h1zM685 393v-5zM685 393v-5h0zM685 358v-4zM685 358v-4h0zM685 393v-5zM685 393v-5h0zM685 358v-4zM685 358v-4h0zM685 393v-5zM685 393v-5h0zM685 358v-4zM685 358v-4h0zM685 393v-5zM685 393v-5h0zM685 358v-4zM685 358v-4h0zM685 393v-5zM685 393v-5h0zM685 358v-4zM685 358v-4h0zM685 393v-5zM686 393l-1-5h1zM685 358v-4zM686 358l-1-4h1zM686 393v-5zM686 393v-5h0zM686 358v-4zM686 358v-4h0zM686 393v-5zM686 393v-5h0zM686 358v-4zM686 358v-4h0zM686 393v-5zM686 393v-5h0zM686 358v-4zM686 358v-4h0zM686 393v-5zM686 393v-5h0zM686 358v-4zM686 358v-4h0zM686 393v-5zM686 393v-5h0zM686 358v-4zM686 358v-4h0zM686 393v-5zM687 393l-1-5h1zM686 358v-4zM687 358l-1-4h1zM687 393v-5zM687 393v-5h0zM687 358v-4zM687 358v-4h0zM687 393v-5zM687 393v-5h0zM687 358v-4zM687 358v-4h0zM687 393v-5zM687 394v-6h0zM687 358v-4zM687 358v-4h0zM687 394v-6zM687 394v-6h0zM687 358v-4zM687 358v-4h0zM687 394v-6zM687 394v-6h0zM687 358v-4zM687 358v-4h0zM687 394v-6zM687 394v-6h0zM687 358v-4zM687 358v-4h0zM687 394v-6zM688 394l-1-6h1zM687 358v-4zM688 358l-1-4h1zM688 394v-6zM688 394v-6h0zM688 358v-4zM688 358v-4h0zM688 394v-6zM688 394v-6h0zM688 358v-4zM688 358v-4h0zM688 394v-6zM688 394v-6h0zM688 358v-4zM688 358v-4h0zM688 394v-6 5zM688 393v-5h0zM688 358v-4zM688 358v-4h0zM688 393v-5zM688 392v-4h0zM688 358v-4zM688 358v-4h0zM688 392v-4zM688 392v-4h0zM688 358v-4zM688 358v-4h0zM688 392v-4zM688 391v-3h0zM688 358v-4zM688 358v-4h0zM688 391v-3zM688 391v-3h0zM688 358v-4zM688 358v-4h0zM688 391v-3zM688 391v-3h0zM688 358v-4zM688 358v-4h0zM688 391v-3zM688 390v-2h0zM688 358v-4zM688 358v-4h0zM688 390v-2zM688 390v-2h0zM688 358v-4zM688 358v-4h0zM688 390v-2zM688 389zM688 358v-4zM688 358v-4h0zM688 389zM688 358v-4zM688 358v-4h0zM688 358v-4zM688 358v-4h0z"/></g><g fill="none" stroke="currentColor" clip-path="url(#clipId0)"><path d="M738 306h4v28l1 3 4 3h4l1-1 1-1v-32h4v29l-2 7-2 2-1 1-5-1-3-2-2-2v-1h0v6h-3l-1-1v-38"/></g><g fill="currentColor" stroke="currentColor" clip-path="url(#clipId0)"><path d="M738 345v-4zM738 345v-4zM738 345v-6zM738 345v-6zM738 345v-8zM738 345v-8zM738 345v-11zM738 345v-11zM738 345v-13zM738 345v-13zM738 345v-14zM738 345v-14zM738 345v-14h0zM738 324zv-2zM738 345v-14zM738 345v-15zM738 324v-2zM738 325v-4zM738 345v-15zM738 345v-15h0zM738 325v-4zM738 325v-4h0zM738 345v-15zM738 345v-16zM738 325v-4 5zM738 326v-6zM738 345v-16zM738 345v-16h0zM738 326v-6zM738 327v-7h0zM738 345v-16zM738 345v-18zM738 327v-7zM738 327v-7h0zM738 345v-25zM738 345v-26zM738 345v-26zM738 345v-28zM738 345v-28zM738 345v-30zM738 345v-30zM738 345v-32zM738 345v-32zM738 345v-34zM738 345v-34zM738 345v-36zM738 345v-36zM738 345v-37zM738 345v-37zM738 345v-39zM738 345v-39zM738 345v-39h0zM738 345v-39zM738 345v-39h0zM738 345v-39zM738 345v-39h0zM738 345v-39zM738 345v-39h0zM738 345v-39zM738 345v-39h0zM738 345v-39zM738 345v-39h0zM738 345v-39zM738 345v-39h0zM738 345v-39zM738 345v-39h0zM738 345v-39zM738 345v-39h0zM738 345v-39zM738 345v-39h0zM738 345v-39zM738 345v-39h0zM738 345v-39zM738 345v-39h0zM738 345v-39zM738 345v-39h0zM738 345v-39zM738 345v-39h0zM738 345v-39zM738 345v-39h0zM738 345v-39zM738 345v-39h0zM738 345v-39zM738 345v-39h0zM738 345v-39zM738 345v-39h0zM738 345v-39zM738 345v-39h0zM738 345v-39zM739 345l-1-39h1zM739 345v-39zM739 345v-39h0zM739 345v-39zM739 345v-39h0zM739 345v-39zM740 345l-1-39h1zM740 345v-39zM740 345v-39h0zM740 345v-39zM740 345v-39h0zM740 345v-39zM741 345l-1-39h1zM741 345v-39zM741 345v-39h0zM741 345v-39zM742 345l-1-39h1zM742 345v-39zM742 345v-39h0zM742 345v-10zM742 345v-10h0zM742 335v-29zM742 335v-29h0zM742 345v-3zM742 345v-3 1zM742 342v-7zM742 342v-7h0zM742 335v-29zM742 335v-29h0zM742 345v-2zM742 345v-2h0zM742 342v-7zM742 342v-7h0zM742 335v-29zM742 335v-29h0zM742 345v-2zM742 345v-2 1zM742 342v-7zM742 341v-6h0zM742 335v-29zM742 335v-29h0zM742 345v-1zM742 345v-1h0zM742 341v-6zM742 341v-6h0zM742 335v-29zM742 335v-29h0zM742 345v-1zM742 345v-1zM742 341v-6zM742 341v-6h0zM742 335v-29zM742 335v-29h0zM742 341v-6zM742 341v-6h0zM742 332v-26zM742 332v-26h0zM742 341v-6zM742 340v-5h0zM742 332v-26 23zM742 329v-23 1zM742 340v-5zM742 340v-5h0zM742 329v-22 19zM742 326v-19 1zM742 340v-5zM742 340v-5h0zM742 326v-18zM742 326v-18h0zM742 340v-5zM742 340v-5h0zM742 326v-18 16zM742 324v-16h0zM742 340v-5zM742 340v-5h0zM742 324v-16zM742 323v-15 1zM742 340v-5zM742 340v-5h0zM742 323v-14 12zM742 321v-12 2zM742 340v-5zM742 340v-5h0zM742 321v-10zM742 320v-9 1zM742 340v-5zM742 340v-5h0zM742 320v-8 6zM742 318v-6 2zM742 340v-5zM742 340v-5h0zM742 318v-4zM742 340v-5zM742 339v-4h0zM742 339v-4zM742 339v-4h0zM742 339v-4zM742 339v-4h0zM742 339v-4zM742 339v-4h0zM742 339v-4zM742 339v-4h0zM742 339v-4zM742 339v-4h0zM742 339v-4zM742 339v-4h0zM742 339v-4zM742 340v-5 1zM742 340v-4zM742 340v-4h0zM742 340v-4zM742 340v-4h0zM742 340v-4zM742 340v-4h0zM742 340v-4zM742 340v-4h0zM742 340v-4zM742 340v-4h0zM742 340v-4zM743 340l-1-4h1zM743 340v-4zM743 341v-5h0zM743 341v-5zM743 341v-5 1zM743 341v-4zM743 341v-4h0zM743 341v-4zM743 341v-4h0zM743 341v-4zM743 341v-4h0zM743 341v-4zM743 341v-4h0zM743 341v-4zM744 342l-1-5h1zM744 342v-5zM744 342v-5 1zM744 342v-4zM744 342v-4h0zM744 342v-4zM744 342v-4h0zM744 342v-4zM744 342v-4h0zM744 342v-4zM744 342v-4h0zM744 342v-4zM744 343v-5h0zM744 343v-5zM745 343l-1-5h1zM745 343v-5zM745 343v-5 1zM745 343v-4zM745 343v-4h0zM745 343v-4zM745 343v-4h0zM745 343v-4zM745 343v-4h0zM745 343v-4zM745 343v-4h0zM745 343v-4zM746 343l-1-4h1zM746 343v-4zM746 343v-4h0zM746 343v-4zM746 344v-5h0zM746 344v-5zM746 344v-5h0zM746 344v-5zM746 344v-5h0zM746 344v-5zM747 344l-1-5 1 1zM747 344v-4zM747 344v-4h0zM747 344v-4zM747 344v-4h0zM747 344v-4zM747 344v-4h0zM747 344v-4zM747 344v-4h0zM747 344v-4zM748 344l-1-4h1zM748 344v-4zM748 345v-5h0zM748 345v-5zM748 345v-5h0zM748 345v-5zM748 345v-5h0zM748 345v-5zM749 345l-1-5h1zM749 345v-5zM749 345v-5h0zM749 345v-5zM749 345v-5h0zM749 345v-5zM749 345v-5h0zM749 345v-5zM749 345v-5h0zM749 345v-5zM749 345v-5h0zM749 345v-5zM750 345l-1-5h1zM750 345v-5zM750 345v-5h0zM750 345v-5zM750 345v-5h0zM750 345v-5zM750 345v-5h0zM750 345v-5zM750 345v-5h0zM750 345v-5zM750 345v-5h0zM750 345v-5zM750 345v-5h0zM750 345v-5zM751 345l-1-5h1zM751 345v-5zM751 345v-5h0zM751 345v-5zM751 345v-5h0zM751 345v-5zM751 345v-5h0zM751 345v-5zM751 345v-5h0zM751 345v-5zM751 345v-5h0zM751 345v-5zM751 345v-5h0zM751 345v-5zM751 345v-5h0zM751 345v-5zM751 345v-5h0zM751 345v-5zM752 345l-1-5h1zM752 345v-5zM752 345v-5h0zM752 345v-5zM752 345v-5h0zM752 345v-5zM752 345v-5h0zM752 345v-5zM752 345v-6zM752 345v-6zM752 345v-6h0zM752 345v-6zM752 345v-6h0zM752 345v-6zM752 345v-6h0zM752 345v-6zM752 345v-6h0zM752 345v-6zM752 345v-6h0zM752 345v-6zM753 344l-1-5h1zM753 344v-5zM753 344v-5h0zM753 344v-5zM753 344v-6zM753 344v-6zM753 344v-6h0zM753 344v-6zM753 344v-6h0zM753 344v-6zM753 344v-6h0zM753 344v-6zM753 344v-7zM753 344v-7zM753 344v-7h0zM753 344v-7zM753 344v-7h0zM753 344v-7zM753 344v-7h0zM753 344v-7zM753 344v-8zM753 344v-8zM753 344v-8h0zM753 344v-8zM753 344v-9zM753 344v-9zM753 344v-9h0zM753 344v-9zM753 344v-9h0zM753 321v-5zM753 344v-9zM753 344v-9h0zM753 321v-5zM753 321v-5h0zM753 344v-9zM753 344v-9h0zM753 321v-5 6zM753 322v-7zM753 344v-9zM753 344v-9h0zM753 332zM753 322v-7 9zM753 324v-11zM753 344v-9zM753 344v-9h0zM753 332zM753 332zM753 324v-11zM753 324v-11h0zM753 344v-9zM753 344v-9h0zM753 332zM753 332zM753 324v-11 13zM753 326v-15zM753 344v-9zM753 344v-9h0zM753 332zM753 332zM753 326v-15zM753 327v-17zM753 344v-9zM753 344v-9h0zM753 332zM753 332zM753 327v-17zM753 327v-17h0zM753 344v-9zM753 344v-9h0zM753 332zM753 333v-2zM753 327v-17zM753 327v-17h0zM753 344v-9zM753 344v-9h0zM753 333v-2zM753 333v-3zM753 327v-17 20zM753 330v-22zM753 344v-9zM753 344v-9h0zM753 333v-3zM753 333v-3h0zM753 330v-22zM753 330v-22h0zM753 344v-9zM753 344v-9h0zM753 333v-25zM753 333v-25h0zM753 344v-9zM753 344v-9h0zM753 333v-25zM753 333v-26zM753 344v-9zM753 344v-9h0zM753 333v-26zM753 333v-27zM753 344v-9zM753 344v-9h0zM753 333v-27zM753 333v-27h0zM753 344v-9zM753 344v-9h0zM753 333v-27zM753 334v-28h0zM753 344v-9zM753 344v-9h0zM753 334v-28zM753 334v-28h0zM753 344v-9zM753 344v-9h0zM753 334v-28zM753 334v-28h0zM753 344v-9zM753 344v-9h0zM753 334v-28zM753 334v-28h0zM753 344v-9zM753 344v-9h0zM753 334v-28zM753 334v-28h0zM753 344v-9zM753 344v-10zM753 334v-28zM753 334v-28h0zM753 344v-38zM753 344v-38h0zM753 344v-38zM754 344l-1-38h1zM754 344v-38zM754 344v-38h0zM754 344v-38zM754 343v-37h0zM754 343v-37zM754 343v-37h0zM754 343v-37zM754 343v-37h0zM754 343v-37zM754 343v-37h0zM754 343v-37zM755 343l-1-37h1zM755 343v-37zM755 342v-36h0zM755 342v-36zM755 342v-36h0zM755 342v-36zM755 342v-36h0zM755 342v-36zM755 341v-35h0zM755 341v-35zM755 341v-35h0zM755 341v-35zM755 341v-35h0zM755 341v-35zM756 341l-1-35h1zM756 341v-35zM756 341v-35h0zM756 341v-35zM756 340v-34h0zM756 340v-34zM756 339v-33h0zM756 339v-33zM756 339v-33h0zM756 339v-33zM756 339v-33h0zM756 339v-33 32zM756 338v-32h0zM756 338v-32zM756 338v-32h0zM756 338v-32 31zM756 337v-31h0zM756 337v-31l1 30z"/><path d="m757 336-1-30h1zM757 336v-30zM757 335v-29h0zM757 335v-29zM757 335v-29h0zM757 335v-29zM757 335v-29 2zM757 335v-27zM757 334v-26 3zM757 334v-23zM757 334v-23 3zM757 334v-20zM757 334v-20 2zM757 334v-3zM757 334v-3h0zM757 331v-15zM757 330v-14h0zM757 334v-3zM757 334v-3h0zM757 330v-14 12zM757 328v-12 3zM757 334v-3zM757 334v-3h0zM757 328v-9zM757 328v-9h0zM757 334v-3zM757 334v-3h0zM757 328v-9 6zM757 325v-6 3zM757 334v-3zM757 334v-3h0zM757 325v-3h0zM757 334v-3zM757 334v-3 2zM757 334v-1zM757 334v-1zM757 334z"/></g><g fill="none" stroke="currentColor" clip-path="url(#clipId0)"><path d="m783 317-2-5-2-5-3-2-3-1h-3l-3 2-2 5-2 3-1 5v8l1 5 1 5 3 5 2 2 4 1 3-1 3-3 3-5 1-5 1-7z"/><path d="m780 329-1 5-2 3-2 2-2 1-3-1-3-4-2-8 1-8 1-4 2-5 3-1h3l3 4 2 8z"/></g><g fill="currentColor" stroke="currentColor" clip-path="url(#clipId0)"><path d="M762 325v-1zM762 325v-1 2zM762 326v-3zM762 326v-3zM762 326v-4zM762 326v-4 5zM762 327v-5h0zM762 327v-5zM762 327v-6zM762 327v-6zM762 328v-7h0zM762 328v-7zM762 328v-8zM762 328v-8zM762 329v-10zM762 329v-10zM762 329v-10h0zM762 329v-10zM762 330v-12zM762 330v-12zM762 330v-12h0zM762 330v-12zM763 331l-1-13h1zM763 331v-13zM763 331v-13h0zM763 331v-13zM763 332v-15zM763 332v-15zM763 332v-15h0zM763 332v-15zM763 333v-17zM763 333v-17zM763 333v-17h0zM763 333v-17zM763 333v-18zM763 333v-18 19zM763 334v-19h0zM763 334v-19zM763 334v-19h0zM763 334v-19zM763 335v-21zM763 335v-21zM764 335l-1-21h1zM764 335v-21zM764 336v-23zM764 336v-23zM764 336v-23h0zM764 336v-23zM764 336v-23h0zM764 336v-23zM764 337v-25zM764 337v-25zM764 337v-25h0zM764 337v-25zM764 337v-25h0zM764 337v-25zM764 337v-26zM764 337v-26zM765 338l-1-27h1zM765 338v-27zM765 338v-27h0zM765 338v-27zM765 338v-28zM765 338v-28zM765 339v-29h0zM765 339v-29zM765 339v-29h0zM765 339v-29zM765 339v-29h0zM765 339v-29zM765 340v-31zM765 340v-31zM766 340l-1-31h1zM766 340v-31zM766 340v-31h0zM766 340v-31zM766 340v-32zM766 340v-32zM766 341v-33h0zM766 341v-33zM766 341v-33h0zM766 341v-33zM767 341l-1-33h1zM767 341v-33zM767 341v-34zM767 341v-34zM767 342v-35h0zM767 342v-35zM767 342v-35h0zM767 342v-35zM767 342v-35h0zM767 342v-35zM768 342l-1-35 1-1zM768 342v-36zM768 343v-37h0zM768 343v-37zM768 343v-37h0zM768 343v-37zM768 343v-37h0zM768 343v-37zM768 343v-37h0zM768 343v-37zM768 343v-37h0zM768 343v-37zM769 343l-1-37 1-1zM769 343v-38zM769 343v-38h0zM769 343v-38zM769 344v-39h0zM769 344v-39zM769 344v-39h0zM769 344v-39zM769 344v-39h0zM769 344v-39zM770 344l-1-39h1zM770 344v-39zM770 344v-39h0zM770 344v-39zM770 344v-40zM770 344v-40zM770 344v-40h0zM770 344v-40zM771 345l-1-41h1zM771 345v-41zM771 345v-41h0zM771 345v-41zM771 345v-41h0zM771 345v-41zM771 345v-41h0zM771 345v-41zM771 345v-41h0zM771 345v-41zM772 345l-1-41h1zM772 345v-41zM772 345v-41h0zM772 345v-41zM772 345v-41h0zM772 345v-41zM772 345v-41h0zM772 345v-41zM773 345l-1-41h1zM773 345v-41zM773 345v-41h0zM773 345v-41zM773 345v-41h0zM773 345v-41zM773 345v-41h0zM773 345v-41zM773 345v-41h0zM773 345v-41zM774 345l-1-41h1zM774 345v-41zM774 345v-41h0zM774 345v-41zM774 345v-41h0zM774 345v-41zM774 345v-41h0zM774 345v-41zM775 345l-1-41h1zM775 345v-41zM775 345v-41h0zM775 345v-41zM775 345v-41h0zM775 345v-41zM775 345v-41h0zM775 345v-41zM775 344v-40h0zM775 344v-40zM775 344v-40h0zM775 344v-40zM776 344l-1-40h1zM776 344v-40zM776 344v-40 1zM776 344v-39zM776 344v-39h0zM776 344v-39zM776 344v-39h0zM776 344v-39zM776 344v-39h0zM776 344v-39zM777 344l-1-39h1zM777 344v-39zM777 343v-38h0zM777 343v-38zM777 343v-38 1zM777 343v-37zM777 343v-37h0zM777 343v-37zM778 343l-1-37h1zM778 343v-37zM778 343v-37h0zM778 343v-37zM778 342v-36h0zM778 342v-36zM778 342v-36 1zM778 342v-35zM779 342l-1-35h1zM779 342v-35zM779 342v-35h0zM779 342v-35zM779 341v-34 1zM779 341v-33zM779 341v-33h0zM779 341v-33zM779 341v-33h0zM779 341v-33zM779 341v-33h0zM779 341v-33zM780 340l-1-32 1 1zM780 340v-31zM780 340v-31h0zM780 340v-31zM780 340v-31h0zM780 340v-31zM780 340v-31h0zM780 340v-31zM780 339v-30h0zM780 339v-30zM780 339v-30 1zM780 339v-29zM781 339l-1-29h1zM781 339v-29zM781 338v-28h0zM781 338v-28zM781 338v-28 1zM781 338v-27zM781 337v-26h0zM781 337v-26zM781 337v-26 1zM781 337v-25zM781 337v-25h0zM781 337v-25zM782 336l-1-24 1 1zM782 336v-23zM782 336v-23h0zM782 336v-23zM782 335v-22h0zM782 335v-22zM782 335v-22 1zM782 335v-21zM782 335v-21h0zM782 335v-21zM782 334v-20 1zM782 334v-19zM782 334v-19h0zM782 334v-19zM783 333l-1-18h1zM783 333v-18zM783 333v-18 1zM783 333v-17zM783 332v-16h0zM783 332v-16zM783 332v-16h0zM783 332v-16zM783 332v-16 1zM783 332v-15zM783 331v-14h0zM783 331v-14zM783 331v-14 1zM783 331v-13 12zM783 330v-12 1zM783 330v-11 10zM783 329v-10 1zM783 329v-9 8zM783 328v-8 1zM783 328v-7zM783 327v-6h0zM783 327v-6zM784 326l-1-5 1 1zM784 326v-4zM784 325v-3 1zM784 325v-2z"/></g><g fill="none" stroke="currentColor" clip-path="url(#clipId0)"><path d="M728 288v18l-5 1-4 3-4 5-2 5v5l1 7 2 5 1 2 2 2 3 2 3 1 4 1h3v-57z"/><path d="m728 340-4-1-4-3-3-5-1-3v-5l1-3 1-3 2-2 1-2 3-1 3-1 1-1v30"/></g><g fill="currentColor" stroke="currentColor" clip-path="url(#clipId0)"><path d="M713 326zv-1zM713 326v-1zM713 327v-3zM713 327v-3zM713 327v-3h0zM713 327v-3zM713 328v-5zM713 328v-5zM713 328v-5h0zM713 328v-5zM713 329v-7zM713 329v-7zM713 329v-7h0zM713 329v-7 8zM713 330v-9zM713 330v-9zM713 330v-10zM713 330v-10 11zM713 331v-12zM713 331v-12zM713 331v-12h0zM713 331v-12zM714 332l-1-13h1zM714 332v-13zM714 332v-14zM714 332v-14zM714 332v-14h0zM714 332v-14 15zM714 333v-16zM714 333v-16zM714 334v-17h0zM714 334v-17zM714 334v-18zM714 334v-18l1 19z"/><path d="m715 335-1-19h1zM715 335v-19zM715 335v-20zM715 335v-20 21zM715 336v-22zM715 336v-22zM716 336l-1-22h1zM716 336v-22zM716 337v-23h0zM716 337v-23zM716 337v-24zM716 337v-24zM716 338v-25h0zM716 338v-25zM717 338l-1-25h1zM717 338v-25zM717 338v-25h0zM717 338v-25zM717 339v-27zM717 339v-27zM717 339v-27h0zM717 339v-27zM718 339l-1-27h1zM718 339v-27zM718 339v-28zM718 339v-28zM718 340v-29h0zM718 340v-29zM718 340v-29h0zM718 340v-29zM719 340l-1-29 1-1zM719 340v-30zM719 341v-31h0zM719 341v-31zM719 341v-31h0zM719 341v-31zM720 341l-1-31h1zM720 341v-31zM720 342v-33zM720 342v-33zM720 342v-33h0zM720 342v-33zM721 342l-1-33h1zM721 342v-33zM721 342v-33h0zM721 342v-33zM721 342v-34zM721 342v-34zM722 343l-1-35h1zM722 343v-35zM722 343v-35h0zM722 343v-35zM722 343v-35h0zM722 343v-35zM723 343l-1-35h1zM723 343v-35zM723 343v-36zM723 343v-36zM723 343v-36h0zM723 343v-36l1 37z"/><path d="m724 344-1-37h1zM724 344v-37zM724 344v-37h0zM724 344v-37l1 37z"/><path d="m725 344-1-37 1-1zM725 344v-38zM725 344v-38h0zM725 344v-38zM726 344l-1-38h1zM726 344v-38zM726 344v-38h0zM726 344v-38zM726 345v-39h0zM726 345v-39zM727 345l-1-39h1zM727 345v-39zM727 345v-39h0zM727 345v-39zM728 345l-1-39h1zM728 345v-39zM728 345v-39h0zM728 345v-39zM728 345v-39h0zM728 345v-39zM728 345v-39h0zM728 345v-39zM728 345v-39h0zM728 295zv-2zM728 345v-39zM728 345v-39h0zM728 295v-2 4zM728 297v-5zM728 345v-39zM728 345v-39h0zM728 297v-5zM728 297v-6zM728 345v-39zM728 345v-39h0zM728 297v-6 8zM728 299v-9zM728 345v-39zM728 345v-39h0zM728 299v-9zM728 299v-10zM728 345v-39zM728 345v-39h0zM728 299v-10 11zM728 300v-11h0zM728 345v-39zM728 345v-39h0zM728 300v-11 13zM728 302v-14zM728 345v-39zM728 345v-39h0zM728 302v-14 16zM728 304v-16h0zM728 345v-57zM729 345l-1-57h1zM729 345v-57zM729 345v-57h0zM729 345v-57zM729 345v-57h0zM729 345v-57zM729 345v-57h0zM729 345v-57zM729 345v-57h0zM729 345v-57zM730 345l-1-57h1zM730 345v-57zM730 345v-57h0zM730 345v-57zM730 345v-57h0zM730 345v-57zM731 345l-1-57h1zM731 345v-57zM731 345v-57h0zM731 345v-57zM731 345v-57h0zM731 345v-57zM731 345v-57h0zM731 345v-57zM731 345v-57h0zM731 345v-57zM732 345l-1-57h1zM732 345v-57zM732 345v-57h0zM732 345v-57zM732 344v-56h0zM732 344v-22zM732 344v-22 1zM732 322v-34 28zM732 316v-28h0zM732 344v-21zM732 344v-21 5zM732 316v-28 23zM732 311v-23h0zM732 344v-16zM732 344v-16 1zM732 311v-23zM732 310v-22h0zM732 344v-15 13zM732 342v-13 5zM732 310v-22 17zM732 305v-17h0zM732 342v-8zM732 342v-8 1zM732 305v-17zM732 304v-16h0zM732 342v-7 5zM732 304v-16 11zM732 299v-11h0zM732 299v-11zM732 299v-11h0zM732 299v-11 5zM732 293v-5h0zM732 293v-5h0z"/></g><g fill="none" stroke="currentColor" clip-path="url(#clipId0)"><path d="m723 356 3-1 5-1 1 1v4l-7 1-2 2-2 3-2 3v9l1 3 1 3 2 3 5 2h4v5h-5l-3-1-3-3-3-4-2-6-1-10 2-6 3-4z"/></g><g fill="currentColor" stroke="currentColor" clip-path="url(#clipId0)"><path d="M715 374zM715 374zM715 375v-2h0zM715 375v-2zM715 375v-3zM715 375v-3zM715 376v-4h0zM715 376v-4zM715 376v-5zM715 376v-5zM715 377v-6h0zM715 377v-6zM715 377v-7zM715 377v-7zM715 378v-8h0zM715 378v-8zM715 378v-8h0zM715 378v-8zM716 379l-1-9 1-1zM716 379v-10zM716 379v-11zM716 379v-11zM716 379v-11h0zM716 379v-11zM716 380v-13zM716 380v-13zM716 380v-13h0zM716 380v-13zM716 381v-14h0zM716 381v-14zM716 381v-15zM716 381v-15zM716 381v-15h0zM716 381v-15zM716 382v-16h0zM716 382v-16zM716 382v-17zM716 382v-17zM717 382l-1-17h1zM717 382v-17zM717 383v-18h0zM717 383v-18zM717 383v-19zM717 383v-19zM717 384v-20h0zM717 384v-20zM717 384v-20h0zM717 384v-20zM717 384v-21zM717 384v-21zM717 384v-21h0zM717 384v-21zM718 385l-1-22h1zM718 385v-22zM718 385v-23zM718 385v-23zM718 385v-23h0zM718 385v-23zM718 385v-23h0zM718 385v-23zM718 386v-24h0zM718 386v-24zM718 386v-25zM718 386v-25zM718 386v-25h0zM718 386v-25zM718 386v-25h0zM718 386v-25zM718 386v-25h0zM718 386v-13zM718 386v-13 1zM718 373v-12zM718 373v-12h0zM718 386v-12zM719 386l-1-12h1zM718 373v-12zM719 372l-1-11h1zM719 386v-12zM719 386v-12 1zM719 372v-11zM719 372v-11h0zM719 386v-11zM719 387v-12h0zM719 372v-11zM719 371v-10h0zM719 387v-12zM719 387v-12h0zM719 371v-10zM719 371v-10h0zM719 387v-12zM719 387v-12 1zM719 371v-10zM719 371v-10h0zM719 387v-11zM719 387v-11h0zM719 371v-10zM719 371v-10h0zM719 387v-11zM719 387v-11h0zM719 371v-10zM719 371v-10h0zM719 387v-11zM719 387v-11 1zM719 371v-10zM719 370v-9h0zM719 387v-10zM719 387v-10h0zM719 370v-9zM719 370v-10zM719 387v-10zM719 387v-10 1zM719 370v-10zM719 370v-10h0zM719 387v-9zM719 387v-9h0zM719 370v-10zM719 369v-9h0zM719 387v-9zM719 387v-9h0zM719 369v-9zM719 369v-9h0zM719 387v-9zM719 387v-9h0zM719 369v-9zM719 369v-9h0zM719 387v-9zM719 387v-9h0zM719 369v-9zM719 369v-9h0zM719 387v-9zM719 387v-9 1zM719 369v-9zM719 369v-9h0zM719 387v-8zM719 387v-8h0zM719 369v-9zM719 369v-9h0zM719 387v-8zM719 388v-9h0zM719 369v-9zM719 368v-8h0zM719 388v-9zM719 388v-9h0zM719 368v-8zM719 368v-8h0zM719 388v-9zM719 388v-9 1zM719 368v-8zM719 368v-8h0zM719 388v-8zM719 388v-8h0zM719 368v-8zM719 368v-8h0zM719 388v-8zM719 388v-8h0zM719 368v-8zM719 368v-8h0zM719 388v-8zM720 388l-1-8h1zM719 368v-8zM720 368l-1-8 1-1zM720 388v-8zM720 388v-8h0zM720 368v-9zM720 367v-8h0zM720 388v-8zM720 388v-8h0zM720 367v-8zM720 367v-8h0zM720 388v-8zM720 388v-8h0zM720 367v-8zM720 367v-8h0zM720 388v-8zM720 388v-8h0zM720 367v-8zM720 367v-8h0zM720 388v-8zM720 388v-8 1zM720 367v-8zM720 367v-8h0zM720 388v-7zM720 388v-7h0zM720 367v-8zM720 366v-7h0zM720 388v-7zM720 389v-8h0zM720 366v-7zM720 366v-7h0zM720 389v-8zM720 389v-8h0zM720 366v-7zM720 366v-7h0zM720 389v-8zM720 389v-8h0zM720 366v-7zM720 366v-7h0zM720 389v-8zM720 389v-8h0zM720 366v-7zM720 366v-7h0zM720 389v-8zM720 389v-8 1zM720 366v-7zM720 366v-8zM720 389v-7zM720 389v-7h0zM720 366v-8zM720 366v-8h0zM720 389v-7zM720 389v-7h0zM720 366v-8zM720 365v-7h0zM720 389v-7zM721 389l-1-7h1zM720 365v-7zM721 365l-1-7h1zM721 389v-7zM721 389v-7h0zM721 365v-7zM721 365v-7h0zM721 389v-7zM721 389v-7h0zM721 365v-7zM721 365v-7h0zM721 389v-7zM721 389v-7h0zM721 365v-7zM721 365v-7h0zM721 389v-7zM721 389v-7 1zM721 365v-7zM721 365v-7h0zM721 389v-6zM721 390v-7h0zM721 365v-7zM721 364v-6h0zM721 390v-7zM721 390v-7h0zM721 364v-6zM721 364v-6h0zM721 390v-7zM721 390v-7h0zM721 364v-6zM721 364v-6h0zM721 390v-7zM721 390v-7h0zM721 364v-6zM721 364v-6h0zM721 390v-7zM721 390v-7h0zM721 364v-6zM721 364v-7zM721 390v-7zM721 390v-7h0zM721 364v-7zM721 364v-7h0zM721 390v-7zM721 390v-7h0zM721 364v-7zM721 364v-7h0zM721 390v-7zM721 390v-7 1zM721 364v-7zM721 364v-7h0zM721 390v-6zM722 390l-1-6h1zM721 364v-7zM722 363l-1-6h1zM722 390v-6zM722 390v-6h0zM722 363v-6zM722 363v-6h0zM722 390v-6zM722 390v-6h0zM722 363v-6zM722 363v-6h0zM722 390v-6zM722 390v-6h0zM722 363v-6zM722 363v-6h0zM722 390v-6zM722 390v-6h0zM722 363v-6zM722 363v-6h0zM722 390v-6zM722 390v-6h0zM722 363v-6zM722 363v-6h0zM722 390v-6zM722 391v-7 1zM722 363v-6zM722 363v-6h0zM722 391v-6zM722 391v-6h0zM722 363v-6zM722 363v-6h0zM722 391v-6zM722 391v-6h0zM722 363v-6zM722 362v-5h0zM722 391v-6zM723 391l-1-6h1zM722 362v-5zM723 362l-1-5 1-1zM723 391v-6zM723 391v-6h0zM723 362v-6zM723 362v-6h0zM723 391v-6zM723 391v-6h0zM723 362v-6zM723 362v-6h0zM723 391v-6zM723 391v-6h0zM723 362v-6zM723 362v-6h0zM723 391v-6zM723 391v-6h0zM723 362v-6zM723 362v-6h0zM723 391v-6zM723 391v-6h0zM723 362v-6zM723 362v-6h0zM723 391v-6zM723 391v-6h0zM723 362v-6zM723 362v-6h0zM723 391v-6zM723 391v-6h0zM723 362v-6zM723 362v-6h0zM723 391v-6zM723 391v-6h0zM723 362v-6zM723 362v-6h0zM723 391v-6zM723 391v-6h0zM723 362v-6zM723 362v-6h0zM723 391v-6zM723 391v-6h0zM723 362v-6zM723 362v-6h0zM723 391v-6zM723 391v-6h0zM723 362v-6zM723 362v-6h0zM723 391v-6zM723 391v-6h0zM723 362v-6zM723 362v-6h0zM723 391v-6zM723 391v-6h0zM723 362v-6zM723 362v-6h0zM723 391v-6zM723 391v-6h0zM723 362v-6zM723 362v-6h0zM723 391v-6zM723 391v-6h0zM723 362v-6zM723 362v-6h0zM723 391v-6zM723 391v-6h0zM723 362v-6zM723 362v-6h0zM723 391v-6zM723 391v-6h0zM723 362v-6zM723 362v-6h0zM723 391v-6zM723 391v-6h0zM723 362v-6zM723 362v-6h0zM723 391v-6zM723 391v-6h0zM723 362v-6zM723 362v-6h0zM723 391v-6zM723 391v-6h0zM723 362v-6zM723 362v-6h0zM723 391v-6zM723 391v-6h0zM723 362v-6zM723 362v-6h0zM723 391v-6zM723 391v-6h0zM723 362v-6zM723 362v-6h0zM723 391v-6zM723 391v-6h0zM723 362v-6zM723 362v-6h0zM723 391v-6zM723 391v-6h0zM723 362v-6zM723 362v-6h0zM723 391v-6zM723 391v-6h0zM723 362v-6zM723 362v-6h0zM723 391v-6zM723 391v-6 1zM723 362v-6zM723 362v-6h0zM723 391v-5zM723 391v-5h0zM723 362v-6zM723 362v-6h0zM723 391v-5zM723 391v-5h0zM723 362v-6zM723 362v-6h0zM723 391v-5zM723 391v-5h0zM723 362v-6zM723 362v-6h0zM723 391v-5zM723 391v-5h0zM723 362v-6zM723 362v-6h0zM723 391v-5zM723 391v-5h0zM723 362v-6zM723 362v-6h0zM723 391v-5zM723 391v-5h0zM723 362v-6zM723 362v-6h0zM723 391v-5zM723 391v-5h0zM723 362v-6zM723 362v-6h0zM723 391v-5zM724 392l-1-6h1zM723 362v-6zM724 361l-1-5h1zM724 392v-6zM724 392v-6h0zM724 361v-5zM724 361v-5h0zM724 392v-6zM724 392v-6h0zM724 361v-5zM724 361v-5h0zM724 392v-6zM724 392v-6h0zM724 361v-5zM724 361v-5h0zM724 392v-6zM724 392v-6h0zM724 361v-5zM724 361v-5h0zM724 392v-6zM724 392v-6h0zM724 361v-5zM724 361v-5h0zM724 392v-6zM724 392v-6h0zM724 361v-5zM724 361v-6zM724 392v-6zM724 392v-6h0zM724 361v-6zM724 361v-6h0zM724 392v-6zM724 392v-6 1zM724 361v-6zM724 361v-6h0zM724 392v-5zM724 392v-5h0zM724 361v-6zM724 361v-6h0zM724 392v-5zM725 392l-1-5h1zM724 361v-6zM725 361l-1-6h1zM725 392v-5zM725 392v-5h0zM725 361v-6zM725 361v-6h0zM725 392v-5zM725 392v-5h0zM725 361v-6zM725 360v-5h0zM725 392v-5zM725 392v-5h0zM725 360v-5zM725 360v-5h0zM725 392v-5zM725 392v-5h0zM725 360v-5zM725 360v-5h0zM725 392v-5zM725 392v-5h0zM725 360v-5zM725 360v-5h0zM725 392v-5zM725 392v-5h0zM725 360v-5zM725 360v-5h0zM725 392v-5zM725 392v-5h0zM725 360v-5zM725 360v-5h0zM725 392v-5zM725 392v-5h0zM725 360v-5zM725 360v-5h0zM725 392v-5zM726 393l-1-6h1zM725 360v-5zM726 360l-1-5h1zM726 393v-6zM726 393v-6h0zM726 360v-5zM726 360v-5h0zM726 393v-6zM726 393v-6h0zM726 360v-5zM726 360v-5h0zM726 393v-6zM726 393v-6h0zM726 360v-5zM726 360v-5h0zM726 393v-6zM726 393v-6h0zM726 360v-5zM726 360v-5h0zM726 393v-6zM726 393v-6 1zM726 360v-5zM726 360v-5h0zM726 393v-5zM727 393l-1-5h1zM726 360v-5zM727 360l-1-5 1-1zM727 393v-5zM727 393v-5h0zM727 360v-6zM727 360v-6h0zM727 393v-5zM727 393v-5h0zM727 360v-6zM727 360v-6h0zM727 393v-5zM727 393v-5h0zM727 360v-6zM727 360v-6h0zM727 393v-5zM727 393v-5h0zM727 360v-6zM727 359v-5h0zM727 393v-5zM727 393v-5h0zM727 359v-5zM727 359v-5h0zM727 393v-5zM727 393v-5h0zM727 359v-5zM727 359v-5h0zM727 393v-5zM728 393l-1-5h1zM727 359v-5zM728 359l-1-5h1zM728 393v-5zM728 393v-5h0zM728 359v-5zM728 359v-5h0zM728 393v-5zM728 393v-5h0zM728 359v-5zM728 359v-5h0zM728 393v-5zM728 393v-5h0zM728 359v-5zM728 359v-5h0zM728 393v-5zM728 393v-5h0zM728 359v-5zM728 359v-5h0zM728 393v-5zM728 393v-5h0zM728 359v-5zM728 359v-5h0zM728 393v-5zM729 393l-1-5h1zM728 359v-5zM729 359l-1-5h1zM729 393v-5zM729 393v-5h0zM729 359v-5zM729 359v-5h0zM729 393v-5zM729 393v-5h0zM729 359v-5zM729 359v-5h0zM729 393v-5zM729 393v-5h0zM729 359v-5zM729 359v-5h0zM729 393v-5zM729 393v-5h0zM729 359v-5zM729 359v-5h0zM729 393v-5zM729 393v-5h0zM729 359v-5zM729 359v-5h0zM729 393v-5zM729 393v-5h0zM729 359v-5zM729 359v-5h0zM729 393v-5zM730 393l-1-5h1zM729 359v-5zM730 359l-1-5h1zM730 393v-5zM730 393v-5h0zM730 359v-5zM730 359v-5h0zM730 393v-5zM730 393v-5h0zM730 359v-5zM730 359v-5h0zM730 393v-5zM730 393v-5h0zM730 359v-5zM730 359v-5h0zM730 393v-5zM730 393v-5h0zM730 359v-5zM730 359v-5h0zM730 393v-5zM730 393v-5h0zM730 359v-5zM730 359v-5h0zM730 393v-5zM730 393v-5h0zM730 359v-5zM730 359v-5h0zM730 393v-5zM731 393l-1-5h1zM730 359v-5zM731 359l-1-5h1zM731 393v-5zM731 393v-5h0zM731 359v-5zM731 359v-5h0zM731 393v-5zM731 393v-5h0zM731 359v-5zM731 359v-5h0zM731 393v-5zM731 393v-5h0zM731 359v-5zM731 359v-5h0zM731 393v-5zM731 393v-5h0zM731 359v-5zM731 359v-5h0zM731 393v-5zM731 393v-5h0zM731 359v-5zM731 359v-5h0zM731 393v-5zM731 393v-5h0zM731 359v-5zM731 359v-5h0zM731 393v-5zM732 393l-1-5h1zM731 359v-5zM732 359l-1-5h1zM732 393v-5zM732 393v-5h0zM732 359v-5zM732 359v-5h0zM732 393v-5zM732 393v-5h0zM732 359v-3zM732 359v-3h0zM732 356v-2zM732 355v-1h0zM732 393v-5zM732 393v-5h0zM732 359v-3zM732 359v-3h0zM732 355v-1zM732 355v-1h0zM732 393v-5zM732 393v-5h0zM732 359v-3zM732 359v-3 1zM732 355v-1zM732 355v-1h0zM732 393v-5zM732 393v-5h0zM732 359v-2zM732 359v-2h0zM732 355v-1zM732 355v-1h0zM732 393v-5zM732 393v-5h0zM732 359v-2zM732 359v-2h0zM732 355v-1zM732 354zM732 393v-5zM732 393v-5h0zM732 359v-2zM732 359v-2h0zM732 354zM732 354zM732 393v-5zM732 393v-5h0zM732 359v-2zM732 359v-2 1zM732 354zM732 354zM732 393v-5zM732 393v-5h0zM732 359v-1zM732 359v-1zM732 354z"/></g><g fill="none" stroke="currentColor" clip-path="url(#clipId0)"><path d="m746 355 4-1 3 1 2 2 1 1v4l1 5v25l-1 1h-2l-1-1v-30l-2-3h-2l-3 1-3 2-1 3v28h-4v-38l1-1h2l1 1v5-1l1-2z"/></g><g fill="currentColor" stroke="currentColor" clip-path="url(#clipId0)"><path d="M738 393v-39zM739 393l-1-39h1zM739 393v-39zM739 393v-39h0zM739 393v-39zM739 393v-39h0zM739 393v-39zM740 393l-1-39h1zM740 393v-39zM740 393v-39h0zM740 393v-39zM740 393v-39h0zM740 393v-39zM741 393l-1-39h1zM741 393v-39zM741 393v-39h0zM741 393v-39zM742 393l-1-39h1zM742 393v-39zM742 393v-39h0zM742 393v-29zM742 393v-29h0zM742 364v-10zM742 364v-10h0zM742 393v-29zM742 393v-29h0zM742 364v-8zM742 364v-8 1zM742 356v-2zM742 356v-2h0zM742 393v-29zM742 393v-29h0zM742 364v-7zM742 364v-7h0zM742 356v-2zM742 356v-2h0zM742 393v-29zM742 393v-29h0zM742 364v-7zM742 364v-7 1zM742 356v-2zM742 355zM742 393v-29zM742 393v-29h0zM742 364v-6zM742 364v-6h0zM742 355zM742 355zM742 393v-29zM742 393v-29h0zM742 364v-6zM742 364v-6h0zM742 355zM742 355zM742 393v-29zM742 393v-29h0zM742 364v-6zM742 364v-6h0zM742 355zM742 355zM742 364v-6zM742 364v-6 1zM742 364v-5zM742 364v-5h0zM742 364v-5zM742 364v-5 1zM742 364v-4zM742 364v-4h0zM742 364v-4zM742 364v-4h0zM742 364v-4zM742 364v-4h0zM742 364v-4zM742 363v-3h0zM742 363v-3zM742 363v-4zM742 363v-4zM742 363v-4h0zM742 363v-4zM742 363v-4h0zM742 363v-4zM742 363v-4h0zM742 363v-4zM742 363v-4h0zM742 363v-4zM742 363v-4h0zM742 363v-4zM742 363v-4h0zM742 363v-4zM742 363v-4h0zM742 363v-4zM743 363l-1-4h1zM743 363v-4zM743 362v-4zM743 362v-4zM743 362v-4h0zM743 362v-4zM743 362v-4h0zM743 362v-4zM743 362v-5zM743 362v-5zM743 362v-5h0zM743 362v-5zM744 361l-1-4h1zM744 361v-4zM744 361v-4h0zM744 361v-4zM744 361v-4h0zM744 361v-4zM744 361v-4h0zM744 361v-4zM744 361v-4h0zM744 361v-4zM744 361v-5zM744 361v-5zM744 361v-5h0zM744 361v-5zM745 360l-1-4h1zM745 360v-4zM745 360v-4h0zM745 360v-4zM745 360v-4h0zM745 360v-4zM745 360v-4h0zM745 360v-4zM745 360v-4h0zM745 360v-4zM745 360v-4h0zM745 360v-4zM746 360l-1-4 1-1zM746 360v-5zM746 360v-5h0zM746 360v-5zM746 360v-5h0zM746 360v-5zM746 360v-5h0zM746 360v-5zM746 359v-4h0zM746 359v-4zM746 359v-4h0zM746 359v-4zM746 359v-4h0zM746 359v-4zM746 359v-4h0zM746 359v-4zM746 359v-4h0zM746 359v-4zM746 359v-4h0zM746 359v-4zM746 359v-4h0zM746 359v-4zM746 359v-4h0zM746 359v-4zM746 359v-4h0zM746 359v-4zM746 359v-4h0zM746 359v-4zM746 359v-4h0zM746 359v-4zM746 359v-4h0zM746 359v-4zM746 359v-4h0zM746 359v-4zM746 359v-4h0zM746 359v-4zM746 359v-4h0zM746 359v-4zM746 359v-4h0zM746 359v-4zM746 359v-4h0zM746 359v-4zM746 359v-4h0zM746 359v-4zM746 359v-4h0zM746 359v-4zM746 359v-4h0zM746 359v-4zM747 359l-1-4h1zM747 359v-4zM747 359v-4h0zM747 359v-4zM747 359v-4h0zM747 359v-4zM747 359v-4h0zM747 359v-4zM747 359v-4h0zM747 359v-4zM747 359v-4h0zM747 359v-4zM747 359v-4h0zM747 359v-4zM747 359v-4h0zM747 359v-4zM747 359v-4h0zM747 359v-4zM748 359l-1-4 1-1zM748 359v-5zM748 359v-5h0zM748 359v-5zM748 359v-5h0zM748 359v-5zM748 359v-5h0zM748 359v-5zM748 359v-5h0zM748 359v-5zM749 359l-1-5h1zM749 359v-5zM749 359v-5h0zM749 359v-5zM749 359v-5h0zM749 359v-5zM749 359v-5h0zM749 359v-5zM750 358l-1-4h1zM750 358v-4zM750 358v-4h0zM750 358v-4zM750 358v-4h0zM750 358v-4zM750 358v-4h0zM750 358v-4zM751 358l-1-4h1zM751 358v-4zM751 358v-4h0zM751 358v-4zM751 359v-5h0zM751 359v-5zM751 359v-5h0zM751 359v-5zM751 359v-5h0zM751 359v-5zM751 359v-5h0zM751 359v-5zM751 359v-5h0zM751 359v-5zM752 359l-1-5h1zM752 359v-5zM752 359v-5h0zM752 359v-5zM752 359v-5h0zM752 359v-5zM752 359v-5h0zM752 359v-5zM752 359v-5h0zM752 359v-5zM752 359v-5h0zM752 359v-5zM752 360v-6h0zM752 360v-6zM752 360v-6h0zM752 360v-6zM752 360v-6h0zM752 360v-6zM752 360v-6h0zM752 360v-6zM752 360v-6h0zM752 360v-6zM753 360l-1-6h1zM753 360v-6zM753 360v-6h0zM753 360v-6zM753 361v-7h0zM753 361v-7zM753 361v-7 1zM753 361v-6zM753 361v-6h0zM753 361v-6zM753 361v-6h0zM753 361v-6zM753 362v-7h0zM753 362v-7zM753 362v-7h0zM753 362v-7zM753 362v-7h0zM753 362v-7zM753 363v-8h0zM753 363v-8zM753 363v-8h0zM753 363v-8zM753 363v-8h0zM753 363v-8zM753 364v-9h0zM753 376zv-3zM753 364v-9zM753 364v-9h0zM753 376v-4 6zM753 378v-7zM753 364v-9zM753 364v-9h0zM753 378v-7 9zM753 380v-11zM753 364v-9zM753 364v-9h0zM753 380v-11 13zM753 382v-14zM753 364v-9zM753 364v-9h0zM753 382v-14zM753 383v-17zM753 364v-9zM753 364v-9h0zM753 383v-28 29zM753 384v-29h0zM753 384v-29zM753 385v-30h0zM753 385v-30 33zM753 388v-33h0zM753 388v-33 36zM753 391v-36h0zM753 391v-36 38zM753 393v-38h0zM753 393v-38zM753 393v-38h0zM753 393v-38zM754 393l-1-38h1zM754 393v-38zM754 393v-38h0zM754 393v-38zM754 393v-38h0zM754 393v-38zM754 393v-38h0zM754 393v-38zM754 393v-38h0zM754 393v-38zM754 393v-38 1zM754 393v-37zM754 393v-37h0zM754 393v-37zM754 393v-37h0zM754 393v-37zM755 393l-1-37h1zM755 393v-37zM755 393v-37h0zM755 393v-37zM755 393v-37 1zM755 393v-36zM755 393v-36h0zM755 393v-36zM755 393v-36h0zM755 393v-36zM755 393v-36h0zM755 393v-36zM755 393v-36h0zM755 393v-36zM755 393v-36 1zM755 393v-35zM756 393l-1-35h1zM756 393v-35zM756 393v-35h0zM756 393v-35zM756 393v-35 1zM756 393v-34zM756 393v-34 1zM756 393v-33zM756 393v-33h0zM756 393v-33zM756 393v-33 1zM756 393v-32zM756 393v-32h0zM756 393v-32zM756 393v-32 1zM756 393v-31zM756 393v-31h0zM756 393v-31zM757 393l-1-31 1 1zM757 393v-30zM757 393v-30 1zM757 393v-29 27zM757 391v-27h0zM757 391v-27zM757 391v-27h0zM757 391v-27 24zM757 388v-24h0zM757 388v-24 21zM757 385v-21h0zM757 385v-18zM757 385v-18h0zM757 367v-3zM757 367v-3h0zM757 385v-18 15zM757 382v-15 3zM757 367v-3zM757 366v-2 1zM757 382v-12zM757 382v-12h0zM757 366v-1zM757 366v-1h0zM757 382v-12 9zM757 379v-9 3zM757 366v-1zM757 366v-1h0zM757 379v-6zM757 379v-6h0zM757 366v-1zM757 366v-1h0zM757 379v-6 3zM757 366v-1zM757 366v-1h0zM757 366v-1h0z"/></g><g fill="none" stroke="currentColor" clip-path="url(#clipId0)"><path d="m702 386-3-3-2-3-1-7v-1h16v-2l-1-6-1-4-2-4-3-3h-4l-4 3-1 2-3 7v13l2 6 2 4 4 3 4 2h4v-5h-5z"/><path d="m698 361 2-3 3-1 3 2 1 3 2 4v2h-13v-3z"/></g><g fill="currentColor" stroke="currentColor" clip-path="url(#clipId0)"><path d="M693 373zh0zM693 373v-1zM693 373v-1h0zM693 373v-1 2zM693 374v-3zM693 374v-3zM693 374v-3h0zM693 374v-3 4zM693 375v-5zM693 375v-5zM693 375v-5h0zM693 375v-5zM693 376v-7zM693 376v-7zM693 376v-7h0zM693 376v-7zM693 376v-8zM693 376v-8zM693 377v-9h0zM693 377v-9zM693 377v-9h0zM693 377v-9zM693 377v-10zM693 377v-10zM693 377v-10h0zM693 377v-10zM693 378v-12zM693 378v-12zM693 378v-12h0zM693 378v-12zM693 378v-12h0zM693 378v-12zM693 379v-14zM693 379v-14zM693 379v-14h0zM693 379v-14zM693 379v-14h0zM693 379v-14zM693 380v-15h0zM693 380v-15zM693 380v-15h0zM693 380v-15zM694 381l-1-16 1-1zM694 381v-17zM694 381v-17h0zM694 381v-17zM694 381v-18zM694 381v-18zM694 382v-19h0zM694 382v-19zM694 382v-19h0zM694 382v-19zM694 382v-20zM694 382v-20zM694 383v-21h0zM694 383v-21zM694 383v-22zM694 383v-22zM695 384l-1-23h1zM695 384v-23zM695 384v-23h0zM695 384v-23zM695 384v-24zM695 384v-24zM695 384v-24h0zM695 384v-24 25zM695 385v-26zM695 385v-26zM695 385v-26h0zM695 385v-26zM696 386l-1-27 1-1zM696 386v-28zM696 386v-28h0zM696 386v-28zM696 386v-28h0zM696 386v-28zM696 386v-28h0zM696 386v-14zM696 386v-14h0zM696 372v-14zM696 372v-14h0zM696 386v-14zM696 386v-14 1zM696 372v-14zM696 372v-14h0zM696 386v-13zM696 386v-13h0zM696 372v-14zM696 372v-14h0zM696 386v-13zM696 387v-14 1zM696 372v-14zM696 372v-15zM696 387v-13zM696 387v-13 1zM696 372v-15zM696 372v-15h0zM696 387v-12zM696 387v-12h0zM696 372v-15zM696 372v-15h0zM696 387v-12zM696 387v-12 1zM696 372v-15zM696 372v-15h0zM696 387v-11zM696 387v-11h0zM696 372v-15zM696 372v-15h0zM696 387v-11zM696 387v-11 1zM696 372v-15zM696 372v-15h0zM696 387v-10zM697 387l-1-10h1zM696 372v-15zM697 372l-1-15h1zM697 387v-10zM697 387v-10 1zM697 372v-15zM697 372v-15h0zM697 387v-9zM697 387v-9h0zM697 372v-15zM697 372v-15h0zM697 387v-9zM697 388v-10 1zM697 372v-15zM697 372v-16zM697 388v-9zM697 388v-9h0zM697 372v-16zM697 372v-16h0zM697 388v-9zM697 388v-9h0zM697 372v-16zM697 372v-16h0zM697 388v-9zM697 388v-9 1zM697 372v-16zM697 372v-16h0zM697 388v-8zM697 388v-8h0zM697 372v-16zM697 372v-16h0zM697 388v-8zM697 388v-8 1zM697 372v-16zM697 372v-16h0zM697 388v-7zM697 388v-7h0zM697 372v-16zM697 372v-16h0zM697 388v-7zM698 388l-1-7h1zM697 372v-16zM698 372l-1-16h1zM698 388v-7zM698 389v-8h0zM698 372v-16zM698 372v-16h0zM698 389v-8zM698 389v-8h0zM698 372v-16zM698 372v-17zM698 389v-8zM698 389v-8 1zM698 372v-17zM698 372v-17h0zM698 389v-7zM698 389v-7h0zM698 372v-17zM698 372v-17h0zM698 389v-7zM698 389v-7h0zM698 372v-17zM698 372v-17h0zM698 389v-7zM698 389v-7h0zM698 372v-17zM698 372v-17h0zM698 389v-7zM698 389v-7 1zM698 372v-17zM698 372v-17h0zM698 389v-6zM699 390l-1-7h1zM698 372v-17zM699 372l-1-17 1-1zM699 390v-7zM699 390v-7h0zM699 372v-18zM699 372v-18h0zM699 390v-7zM699 390v-7h0zM699 372v-18zM699 372v-18h0zM699 390v-7zM699 390v-7 1zM699 372v-18zM699 372v-18h0zM699 390v-6zM699 390v-6h0zM699 372v-18zM699 372v-18h0zM699 390v-6zM699 390v-6h0zM699 372v-18zM699 372v-18h0zM699 390v-6zM699 390v-6h0zM699 372v-18zM699 372v-18h0zM699 390v-6zM699 390v-6h0zM699 372v-18zM699 372v-18h0zM699 390v-6zM700 390l-1-6h1zM699 372v-18zM700 372l-1-18h1zM700 390v-6zM700 391v-7 1zM700 372v-18zM700 372v-18h0zM700 391v-6zM700 391v-6h0zM700 372v-18zM700 372v-18h0zM700 391v-6zM700 391v-6h0zM700 372v-18zM700 372v-18h0zM700 391v-6zM700 391v-6h0zM700 372v-18zM700 372v-19zM700 391v-6zM701 391l-1-6 1 1zM700 372v-19zM701 372l-1-19h1zM701 391v-5zM701 391v-5h0zM701 372v-19zM701 372v-19h0zM701 391v-5zM701 391v-5h0zM701 372v-19zM701 372v-19h0zM701 391v-5zM701 391v-5h0zM701 372v-19zM701 372v-19h0zM701 391v-5zM701 392v-6h0zM701 372v-19zM701 372v-19h0zM701 392v-6zM701 392v-6h0zM701 372v-19zM701 372v-19h0zM701 392v-6zM701 392v-6h0zM701 372v-19zM701 372v-19h0zM701 392v-6zM702 392l-1-6h1zM701 372v-19zM702 372l-1-19h1zM702 392v-6zM702 392v-6h0zM702 372v-19zM702 372v-19h0zM702 392v-6zM702 392v-6 1zM702 372v-19zM702 372v-19h0zM702 392v-5zM702 392v-5h0zM702 372v-19zM702 372v-19h0zM702 392v-5zM702 392v-5h0zM702 372v-19zM702 372v-19h0zM702 392v-5zM702 392v-5h0zM702 372v-19zM702 372v-19h0zM702 392v-5zM702 392v-5h0zM702 372v-19zM702 372v-19h0zM702 392v-5zM703 392l-1-5h1zM702 372v-19zM703 372l-1-19h1zM703 392v-5zM703 392v-5h0zM703 372v-19zM703 372v-19h0zM703 392v-5zM703 392v-5h0zM703 372v-19zM703 372v-19h0zM703 392v-5zM703 393v-6h0zM703 372v-19zM703 372v-19h0zM703 393v-6zM703 393v-6h0zM703 372v-19zM703 372v-19h0zM703 393v-6zM703 393v-6h0zM703 372v-19zM703 372v-19h0zM703 393v-6zM704 393l-1-6 1 1zM703 372v-19zM704 372l-1-19h1zM704 393v-5zM704 393v-5h0zM704 372v-19zM704 372v-19h0zM704 393v-5zM704 393v-5h0zM704 372v-19zM704 372v-19h0zM704 393v-5zM704 393v-5h0zM704 372v-19zM704 372v-19h0zM704 393v-5zM704 393v-5h0zM704 372v-19zM704 372v-19h0zM704 393v-5zM704 393v-5h0zM704 372v-19zM704 372v-19h0zM704 393v-5zM705 393l-1-5h1zM704 372v-19zM705 372l-1-19h1zM705 393v-5zM705 393v-5h0zM705 372v-19zM705 372v-19h0zM705 393v-5zM705 393v-5h0zM705 372v-19zM705 372v-19h0zM705 393v-5zM705 393v-5h0zM705 372v-19zM705 372v-19 1zM705 393v-5zM705 393v-5h0zM705 372v-18zM705 372v-18h0zM705 393v-5zM706 393l-1-5h1zM705 372v-18zM706 372l-1-18h1zM706 393v-5zM706 393v-5h0zM706 372v-18zM706 372v-18h0zM706 393v-5zM706 393v-5h0zM706 372v-18zM706 372v-18h0zM706 393v-5zM706 393v-5h0zM706 372v-18zM706 372v-18h0zM706 393v-5zM706 393v-5h0zM706 372v-18zM706 372v-18h0zM706 393v-5zM706 393v-5h0zM706 372v-18zM706 372v-18h0zM706 393v-5zM706 393v-5h0zM706 372v-18zM706 372v-18h0zM706 393v-5zM706 393v-5h0zM706 372v-18zM706 372v-18h0zM706 393v-5zM706 393v-5h0zM706 372v-18zM706 372v-18h0zM706 393v-5zM707 393l-1-5h1zM706 372v-18zM707 372l-1-18 1 1zM707 393v-5zM707 393v-5h0zM707 372v-17zM707 372v-17h0zM707 393v-5zM707 393v-5h0zM707 372v-17zM707 372v-17h0zM707 393v-5zM707 393v-5h0zM707 372v-17zM707 372v-17h0zM707 393v-5zM707 393v-5h0zM707 372v-17zM707 372v-17h0zM707 393v-5zM707 393v-5h0zM707 372v-17zM707 372v-17h0zM707 393v-5zM708 393l-1-5h1zM707 372v-17zM708 372l-1-17 1 1zM708 393v-5zM708 393v-5h0zM708 372v-16zM708 372v-16h0zM708 393v-5zM708 393v-5h0zM708 372v-16zM708 372v-16h0zM708 393v-5zM708 393v-5h0zM708 372v-16zM708 372v-16h0zM708 393v-5zM708 393v-5h0zM708 372v-16zM708 372v-16h0zM708 393v-5zM708 393v-5h0zM708 372v-16zM708 372v-16 1zM708 393v-5zM709 393l-1-5h1zM708 372v-15zM709 372l-1-15h1zM709 393v-5zM709 393v-5h0zM709 372v-15zM709 372v-15h0zM709 393v-5zM709 393v-5h0zM709 372v-15zM709 372v-15 1zM709 393v-5zM709 393v-5h0zM709 372v-14zM709 372v-14h0zM709 393v-5zM709 393v-5h0zM709 372v-14zM709 372v-14h0zM709 393v-5zM709 393v-5h0zM709 372v-14zM709 372v-14h0zM709 393v-5zM709 393v-5h0zM709 372v-14zM709 372v-14h0zM709 393v-5zM709 393v-5h0zM709 372v-14zM709 372v-14h0zM709 393v-4zM709 393v-4h0zM709 372v-14zM709 372v-14h0zM709 393v-4zM709 393v-4 1zM709 372v-14zM709 372v-14h0zM709 393v-3zM709 393v-3h0zM709 372v-14zM709 372v-14h0zM709 393v-3zM709 393v-3h0zM709 372v-14zM709 372v-14h0zM709 393v-3zM709 393v-3 1zM709 372v-14zM709 372v-14h0zM709 393v-2zM709 392v-1h0zM709 372v-14zM709 372v-14h0zM709 392v-1zM709 392v-1zM709 372v-14zM709 372v-14h0zM709 392zM709 372v-14zM709 372v-14h0zM709 372v-14zM710 372l-1-14 1 1zM710 372v-13zM710 372v-13 1zM710 372v-12zM711 372l-1-12 1 1zM711 372v-11zM711 372v-11 1zM711 372v-10zM711 372v-10h0zM711 372v-10zM711 372v-10h0zM711 372v-10zM711 372v-10 1zM711 372v-9zM711 372v-9 1zM711 372v-8zM712 372l-1-8 1 1zM712 372v-7zM712 372v-7 1zM712 372v-6zM712 372v-6 1zM712 372v-5zM712 372v-5 1zM712 372v-4zM712 372v-4 1zM712 372v-3zM712 372v-3 1zM712 372v-2zM712 372v-2 1zM712 372v-1h0z"/></g><g fill="none" stroke="currentColor" clip-path="url(#clipId0)"><path d="m783 369-2-8-3-6-3-2h-4l-3 2-2 3-2 5-2 7v7l1 5 1 5 5 6 3 1h4l4-5 2-5 1-5z"/><path d="m779 382-2 4-3 3h-3l-2-2-2-3-2-8 1-9 1-4 1-2 2-2 3-1 3 1 3 5 1 5v5z"/></g><g fill="currentColor" stroke="currentColor" clip-path="url(#clipId0)"><path d="M762 376v-4zM762 376v-4zM762 376v-4h0zM762 376v-4zM762 376v-4h0zM762 376v-4 5zM762 377v-6zM762 377v-6zM762 377v-6h0zM762 377v-6 7zM762 378v-8zM762 378v-8zM762 378v-9zM762 378v-9 10zM762 379v-11zM762 379v-11zM762 380v-12h0zM762 380v-12zM763 381l-1-13 1-1zM763 381v-14zM763 381v-15zM763 381v-15zM763 382v-16h0zM763 382v-16zM763 383v-19zM763 383v-19zM763 383v-19h0zM763 383v-19 20zM763 384v-21zM763 384v-21zM764 384l-1-21h1zM764 384v-21 22zM764 385v-23zM764 385v-23zM764 385v-23h0zM764 385v-23zM764 386v-24h0zM764 386v-24zM764 386v-25zM764 386v-25zM764 386v-25h0zM764 386v-25zM764 387v-26h0zM764 387v-26zM765 387l-1-26 1-1zM765 387v-27zM765 387v-27h0zM765 387v-27zM765 388v-28h0zM765 388v-28zM765 388v-29zM765 388v-29zM765 388v-29h0zM765 388v-29zM765 389v-30h0zM765 389v-30zM766 389l-1-30 1-1zM766 389v-31zM766 389v-31h0zM766 389v-31zM766 390v-32h0zM766 390v-32zM766 390v-33zM766 390v-33zM766 390v-33h0zM766 390v-33zM767 390l-1-33h1zM767 390v-33zM767 391v-34h0zM767 391v-34zM767 391v-35zM767 391v-35zM767 391v-35h0zM767 391v-35zM767 391v-35h0zM767 391v-35zM767 392v-36h0zM767 392v-36zM768 392l-1-36 1-1zM768 392v-37zM768 392v-37h0zM768 392v-37zM768 392v-37h0zM768 392v-37zM768 392v-37h0zM768 392v-37zM769 393l-1-38h1zM769 393v-38zM769 393v-38h0zM769 393v-38zM769 393v-39zM769 393v-39zM769 393v-39h0zM769 393v-39zM769 393v-39h0zM769 393v-39zM770 393l-1-39h1zM770 393v-39zM770 394v-40h0zM770 394v-40zM770 394v-40h0zM770 394v-40zM770 394v-40h0zM770 394v-40zM771 394l-1-40 1-1zM771 394v-41zM771 394v-41h0zM771 394v-41zM771 394v-41h0zM771 394v-41zM771 394v-41h0zM771 394v-41zM771 394v-41h0zM771 394v-41zM772 394l-1-41h1zM772 394v-41zM772 394v-41h0zM772 394v-41zM772 394v-41h0zM772 394v-41zM773 394l-1-41h1zM773 394v-41zM773 394v-41h0zM773 394v-41zM773 394v-41h0zM773 394v-41zM773 394v-41h0zM773 394v-41zM773 394v-41h0zM773 394v-41zM774 394l-1-41h1zM774 394v-41zM774 394v-41h0zM774 394v-41zM774 394v-41h0zM774 394v-41zM774 394v-41h0zM774 394v-41zM775 394l-1-41h1zM775 394v-41zM775 394v-41h0zM775 394v-41zM775 394v-41 1zM775 394v-40zM775 394v-40h0zM775 394v-40zM776 394l-1-40h1zM776 394v-40zM776 393v-39h0zM776 393v-39zM776 393v-39h0zM776 393v-39zM776 393v-39h0zM776 393v-39zM776 393v-39h0zM776 393v-39zM777 393l-1-39h1zM777 393v-39zM777 393v-39 1zM777 393v-38zM777 393v-38h0zM777 393v-38zM777 392v-37h0zM777 392v-37zM777 392v-37h0zM777 392v-37zM778 392l-1-37h1zM778 392v-37zM778 392v-37 1zM778 392v-36zM778 392v-36h0zM778 392v-36zM778 391v-35h0zM778 391v-35zM778 391v-35h0zM778 391v-35zM779 391l-1-35h1zM779 391v-35zM779 391v-35 1zM779 391v-34zM779 390v-33h0zM779 390v-33zM779 390v-33h0zM779 390v-33zM779 390v-33h0zM779 390v-33zM780 390l-1-33 1 1zM780 390v-32zM780 389v-31h0zM780 389v-31zM780 389v-31h0zM780 389v-31zM780 389v-31h0zM780 389v-31zM780 389v-31 1zM780 389v-30zM780 389v-30h0zM780 389v-30zM781 388l-1-29h1zM781 388v-29zM781 388v-29h0zM781 388v-29zM781 388v-29 1zM781 388v-28zM781 387v-27h0zM781 387v-27zM781 387v-27 1zM781 387v-26zM781 386v-25h0zM781 386v-25zM781 386v-25h0zM781 386v-25zM782 385l-1-24 1 1zM782 385v-23zM782 385v-23h0zM782 385v-23zM782 384v-22 1zM782 384v-21zM782 384v-21h0zM782 384v-21zM782 384v-21 1zM782 384v-20 19zM782 383v-19 1zM782 383v-18zM783 383l-1-18h1zM783 383v-18 17zM783 382v-17h0zM783 382v-17zM783 382v-17 1zM783 382v-16zM783 381v-15h0zM783 381v-15zM783 381v-15 1zM783 381v-14zM783 380v-13h0zM783 380v-13zM783 380v-13 1zM783 380v-12zM783 379v-11h0zM783 379v-11zM783 379v-11 1zM783 379v-10zM783 378v-9h0zM783 378v-9zM783 378v-9h0zM783 378v-9zM783 377v-8 1zM783 377v-7zM784 376l-1-6 1 1zM784 376v-5zM784 376v-5h0zM784 376v-5zM784 375v-4 1zM784 375v-3zM784 374v-2 1zM784 374v-1z"/></g><g fill="none" stroke="currentColor" clip-path="url(#clipId0)"><path d="M666 403V277h126v126z"/></g></svg>