<svg xmlns="http://www.w3.org/2000/svg" xml:space="preserve" fill-rule="evenodd" stroke-linecap="round" stroke-linejoin="round" style="background-color:transparent" viewBox="0 0 1024 768"><defs><clipPath id="clipId0"><path d="M0 768h1024V0H0z"/></clipPath><style><![CDATA[g[clip-path]>*{vector-effect:non-scaling-stroke}]]></style></defs><g fill="none" stroke="currentColor" clip-path="url(#clipId0)"><path d="M19 548h-8 0-1 1l8 1h52v16-16h18v16-8l1-8h17v8l1 8v-16h63v16-16h18l1 2v3-5h48v18-18h14v18-18M327 210v9h-36v-9l-1-9v18h-17l-1-9v-9 18h-18v-18 18H113v-17 17H96v-17l-1 8v9H78v-17 17H61v-17 17H44v-9l-1-8v17H10h33v20H33v17h90v14h89v7h-30 0-1 266-32v-15h0v-7h0v-8h0v-8h0v-20h34v17h-9v21h147v-21h-10v-17h31v59h-60 0-1 344l123 1v28H886h128v159H512h0-192 0-162 0H11h0-1 148l162 1h192l502-1v16h0v9h0l-1 4h0v1h0v1h0l-2-1h0H11h0-1 0l1 1h206l-1 8h0v8h0v35h-26v-17l4-1h5v-21h-17 0-6 0-6 0-5 0-3l-1 11v10h10v18h-63v-3h0v-1h0v-2h0v-3h0v-8h9v-22H61v10h0v4h0l-1 4h0v2h0v1h1v1h10v17H41h0-12 0-10"/><path d="M252 549h28v18-18h14v18-18h14v18-18h14v18-18h13l1 9v9-18h13v9l1 9v-18h13v18l1-9v-9h13v18-18h14v18-18h42v18-18h14v18-18h13l1 9v9-18h13v9l1 9v-18h13v18l1-9v-9h13v18-9l1-9h13v18-18h14v18-18h14v18-18h28v18-18h14v18-18h135v8l1 8v-16h18v16-16h18v1h0v-1h18v16-8l1-8h66v16-16h18v14-7l1-7h17v16l1-8v-8h17v8l1 8v-16h18v16-16h18v16-16h37v16-16h43V219h-59l-1-9v-9 18h-18v-18 18h-18v-18 9l-1 9h-17v-18l-1 9v9h-17l-1-9v-9 18h-18v-18 18h-18v-18 18h-93v-18 9l-1 9h-17v-18l-1 9v9h-18v-18 18h-18v-18 18h-18v-18 18h-19v-18 18h-18v-18 18h-65v-18 18h-18v-18 18h-18v-18 18h-18v-9l-1-9v18h-18v-18 9"/><path d="M504 210v9h-36v-18 9l-1 9h-17v-9l-1-9v18h-67v-18 18h-18v-18 18h-19v-18 18h-18v-18 9M61 229v10H44v-20h17zM78 229v10H61v-20h17zM95 229v10H78v-20h17zM113 229v10H96v-20h17zM212 222v3h-89v14h-10v-20h99zM254 227v9h-9v21h146v-21h-9v-17h33v14h0v6h0v8h0v8h0v22H212v-58h42z"/><path d="M272 227v9h-18v-4h0v-1h0v-3h0v-2h0v-7h18zM290 227v9h-17v-17h17zM309 224v2h0l-1 2h0v3h0v5h-17v-17h18zM327 227v9h-18v-17h18zM345 227v9h-18v-17h18zM364 227v9h-19v-17h19zM382 227v9h-18v-17h18zM467 227v9h-17v-17h17zM486 227v9h-18v-17h18zM504 227v9h-18v-8h0v-3h0v-3h0v-2h0v-1h18zM522 227v9h-18v-17h18zM541 224v2h0l-1 2h0v3h0v5h-17v-17h18zM559 227v9h-18v-17h18zM577 227v9h-18v-17h18zM642 227v9h-9v21h146v-21h-8l-1-8h0v-3h0v-3h0v-2h0v-1h31v59H608v-59h34z"/><path d="M660 227v9h-18v-17h18zM678 227v9h-18v-17h18zM697 227v9h-18v-17h18zM715 227v9h-18v-17h18zM733 227v9h-18v-17h18zM751 227v9h-17v-17h17zM770 227v9h-18v-17h18zM845 227v9h-10v21h147v-21h-9v-17h41v59h-59 0-26 0-30 0-28 0-69v-59h43z"/><path d="M863 227v9h-18v-17h18zM881 227v9h-18v-17h18zM899 227v9h-17v-17h17zM917 227v9h-17v-17h17zM936 227v9h-18v-17h18zM954 227v9h-18v-17h18zM972 227v9h-17v-17h17zM212 248v22h-89v-44h89zM254 237v1h0l-1 1h0-1 0l-1 1h-1 0l-2 2h0l-1 3h0v3h0l1 2 1 1h0l1 1 2 1h4l2-1 1-1h0l1-2h0l1-2h0v-2h0l-1-2h0v-1h0l-2-1h0l-1-1h0l-1-1h0-1 0l-1-1h0zv-1h18v1h0v1h0v1h0-1 0-1 0l-2 1-1 2h0l-1 1-1 3h0v2l1 2h0l1 1 2 2h5l2-1h1l1-2h0l1-1v-2h0v-2h0l-1-3h0l-2-2h0l-2-1h0-1 0v-1h0v-2h17v1h0v1h0v1h0-1 0l-1 1h-2 0l-1 2-1 1h0v1l-1 2h0v2l1 1h0l1 1h0v1h0l1 1h0l1 1h5l2-1h0l1-1 1-1h0l1-1 1-2h0l-1-3h0l-1-2h0l-1-2h0l-3-1h0-1 0v-1h0v-2h17v1h0v1h0v1h0-1 0l-1 1h0l-2 1h0l-1 2h0l-1 1h0v3h0v2l1 1h0l1 1 1 1h0l1 1h5l2-1h0l1-1h0l1-2h0l1-2h0v-2h0l-1-2h0l-1-1h0l-1-1h0l-1-1h0l-2-1h0-1 0v-1h0v-2h18v1h0v1h0v1h0-1 0-1 0l-2 1h0l-2 2h0l-1 2h0v3h0l1 2 1 2h0l1 1 2 1h5l1-1 2-2h0l1-1h0v-2h0v-2h0v-1h0l-1-1h0l-1-2h0l-2-1h0l-1-1h0-1 0l-1-1h0v-2h18v1h0v1h0v1h0-1 0-1 0l-1 1h0l-2 1h0l-1 2h0l-1 1h0v1h0v2h0l1 2h0v1h0l2 2 1 1h6l1-1h0l2-1 1-2h0v-2h0v-2h0l-1-3h0l-1-1h0l-1-1h0-1 0l-1-1h0-1 0v-1h0l-1-1v-1h16"/><path d="M361 236h2v1h1-1 0v1h0v1h0-1 0l-1 1h-1 0l-1 1-1 1h0l-1 2v1h0l-1 2 1 1h0v1h0l1 2h0l2 1h0l1 1h5l2-1h0l1-1h0l1-1h0l1-2h0v-1h0l-1-3h0l-1-2h0l-2-2h0l-2-1h0-1 0v-1h0v-2h18v1h0v1h0v1h0-1 0-1 0l-1 1-2 1h0l-1 2-1 2h0v4h0l1 2 2 1h0l2 1h5l2-2h0l1-1 1-2h0v-4h0l-1-2-1-1h0l-2-1-2-1h0-1 0v-1h0v-2h9v7h0v3h0v3h0v3h0v4H245v-20h9v1M449 237v1h0v1h0-1 0l-3 1-1 2h0l-1 2-1 3h0l1 2 1 2h0l2 2h6l2-1 1-1h0l1-2v-2h0l1-1-1-2h0v-1h0l-2-2h0l-1-1h0l-2-1h0-1 0v-1h0v-2h17v1h0v1h0v1h0-1 0l-2 1h0l-2 2h0l-1 2h0v3h0v2h0l1 1h0l1 2h0l1 1h6l1-1h0l2-1 1-1h0l1-2v-2h0l-1-2h0l-1-2h0l-1-2h0l-3-1h0-1 0v-1h0v-2h18v1h0v1h0l-1 1h0-1 0l-2 1h0l-2 2h0l-1 2h0v2h0v1h0v2h0l1 1h0l1 1h0l1 1 2 1h5l1-1 1-1h0l1-2h0l1-2h0v-2h0l-1-2h0l-1-1h0l-1-1h0l-1-1h0l-1-1h0-1 0l-1-1h0v-2h18v1h0v1h0v1h0-1 0-1 0l-2 1-1 2h0l-1 1-1 3h0v2l1 2h0l1 1 2 2h5l2-1h1l1-2h0l1-1v-2h0v-2h0l-1-3h0l-2-2h0l-2-1h0-1 0v-1h0l-1-1v-1h18v1h0v1h0v1h0-1 0l-1 1h-2 0l-1 2-1 1h0v1l-1 2h0v2l1 1h0l1 1h0v1h0l1 1h0l1 1h5l2-1h0l1-1 1-1h0l1-1v-2h0v-3h0l-1-2h0l-1-2h0l-3-1h0-1 0v-1h0v-2h17v1h0v1h0v1h0-1 0l-1 1h0-1 0l-1 1h0l-1 1h0l-1 2h0v3h0v2h0l1 2h0l2 1 1 1h6l1-1 1-1h0l1-2h0l1-2h0v-2h0l-1-2h0l-1-1h0l-1-1h0l-1-1h0l-2-1h0-1 0v-1h0v-2h18v1h0v1h0v1h0-1 0-1 0l-2 1"/><path d="m555 240-2 2h0l-1 2h0v3h0v2h0l1 1h0l1 2h0l2 1h4l3-1h0l1-1h0l1-1 1-2h0v-4h0l-1-2-1-1h0l-2-1-1-1h0-1 0-1 0v-1h0v-2h18v1h0v1h0v1h0-1 0-1 0l-1 1-1 1h0l-2 1v2h0l-1 1v2h0l1 2v1h0l2 2h0l1 1h6l2-2h0l2-2v-2h0v-3l-1-2h0l-2-2-2-1h0-1 0l-1-1h0v-2h9v20H440v-20h9v1M642 237v1h0v1h0-1 0-1 0l-1 1h0l-1 1h0l-1 1h0l-1 1h0l-1 2v2h0v1l1 2h0l1 1 2 1h0l1 1h4l2-1h0l1-1 1-1h0l1-2v-1h0v-2l-1-2h0v-1h0l-2-1h0l-1-1h0l-1-1h0-1 0-1 0v-1h0zv-1h18v1h0v1h0v1h0-1 0-1 0l-2 1h0l-1 2h0l-2 2h0v2h0v2h0l1 2h0l2 2h0l1 1h6l2-1h0l1-1 1-2h0v-1h0v-2h0v-2h0v-1h0l-1-1h0l-1-1h0l-1-1h0l-2-1h0-1 0l-1-1h0v-2h18l1 1h0l-1 1h0v1h0-1 0l-3 1h0l-1 2h0l-1 2h0l-1 2h0l1 2v2h0l1 1 2 1h0l1 1h6l2-2h0l1-2h0l1-2h0v-3h0l-1-1h0l-1-2h0l-2-1h0l-1-1h0-1 0-1 0v-1h0v-2h18v1h0v1h0l-1 1h0-1 0l-1 1h0l-2 1h0l-1 1h0l-1 1h0v4h0v2l1 1h0l1 2 1 1h6l1-1h0l2-1 1-1h0l1-2v-1h0v-2l-1-2h0l-1-1h0l-1-1h0l-1-1h0l-1-1h0-1 0-1 0v-1h0v-2h18v1h0v1h0v1h0-1 0-1 0l-1 1h0l-1 1h0l-2 1h0l-1 2h0v2h0v3h0l2 2h0l2 2h5l2-1h0l1-1 1-1h0l1-2v-1h0v-2h0v-1h0l-1-1h0v-1h0l-1-1h0l-1-1h0l-2-1h0-1 0l-1-1h0v-1h0v-1h18v1h0v1h0v1h0-1 0l-3 1h0l-1 2h0l-1 2h0l-1 2h0l1 2h0v1h0l1 1h0l1 1h0l2 2h4l2-1h0l2-1 1-3h0l1-2-1-2h0l-1-2"/><path d="m739 242-1-1h0l-1-1h0l-2-1h0-1 0v-1h0v-2h17v1h0v1h0v1h0-1 0l-1 1h-2 0l-1 2-1 1h0v3h0v3h0l1 2h0l2 1h0l2 1h4l2-1 1-1h0l1-1v-1h0l1-1v-2h0l-1-2h0l-1-2h0l-2-2h0l-2-1h0-1 0v-1h0v-2h18v1h0v1h0l-1 1h0-1 0l-1 1h0l-2 1h0l-1 2h0l-1 1h0v2h0v1h0v1h0l1 1h0l1 2 1 1h0l1 1h5l2-1 1-1h0l1-1 1-2h0v-3h0v-1l-1-1h0l-1-2-1-1h0-1 0l-1-1h0-1 0l-1-1h0v-2h9v20H633v-20h9v1M845 237l-1 1h0v1h0-1 0l-1 1h0l-2 1h0l-1 1h0l-1 1h0v4h0v2l1 1h0l1 2 2 1h5l2-1h0l1-1h0l1-2h0l1-1v-2h0v-1l-1-2h0l-1-1-1-1h0l-1-1-2-1h0-1 0v-1h0zv-1h18v1h0v1h0l-1 1h0-1 0l-1 1h0l-2 1h0l-1 1h0l-1 2h0v2h0v3h0l2 2h0l2 2h6l2-1h0l1-2 1-2h0v-4h0l-1-2h0l-1-1h0l-2-1h0l-1-1h0-1 0-1 0v-1h0v-2h18v1h0v1h0v1h0-1 0-1 0l-1 1h0l-1 1h0l-1 1h0l-1 2h0l-1 2h0l1 3h0l1 2h0l2 1 2 1h2l3-1h0l2-1 1-2h0v-5h0l-1-1h0l-1-2h0l-2-1h0l-1-1h0-1 0v-1h0v-2h17v1h0v1h0v1h0-1 0l-2 1h0l-2 2h0l-1 2h0l-1 2h0l1 1h0v2h0l1 1h0v1h0l2 1h0l2 1h5l1-1h0l1-2h0l1-1h0l1-2h0l-1-3h0l-1-2h0l-1-2h0l-3-1h0-1 0v-1h0v-2h17v1h0v1h0v1h0-1 0l-1 1h0l-2 1h0l-1 2h0l-1 1h0v3h0v2l1 1h0l1 1 1 1h0l2 1h4l2-1h0l1-1h0l1-2h0l1-2h0v-2h0l-1-3h0l-1-1h0l-1-1h0-2 0l-1-1h0-1 0v-1h0v-2h18v1h0v1h0v1h0-1 0-1 0l-2 1h0l-2 2h0l-1 2h0v2h0v2l1 2h0l1 1 1 1h0l2 1h5l2-2h0l2-2h0v-3h0v-2h0l-1-1h0l-1-2h0l-1-1h0l-2-1"/><path d="M938 239h-1 0l-1-1h0v-2h18v1h0v1h0v1h0-1 0l-2 1-1 1h0l-1 1-1 2h0l-1 1v2h0l1 2v1h0l2 1 1 1h0l1 1h5l2-1 1-1h0l1-1v-1h0v-3h0v-3h0l-1-1-1-1h0l-1-1h0-1 0l-1-1h0-1 0v-1h0v-2h17v1h0v1h0v1h0-1 0-1 0v1h0-1 0l-2 1-1 2h0v2h0v3h0v2l1 1h0l1 1 2 1h6l1-1 1-1h0l1-2h0l1-2h0v-2h0l-1-2h0l-1-1h0l-1-1h0l-1-1h0l-2-1h0-1 0v-1h0v-2h9v20H836v-20h9v1M43 240h-1 0v1h0-2 0l-1 1h0l-2 2h0v1h0l-1 2h0v1h0l1 2h0v2h0l1 1h0l2 1h0l2 1h2l2-1h1l1-1h0l1-1 1-2h0v-1l1-1h0l-1-3h0l-1-2h0l-2-1h0l-2-1h0l-1-1h0l3-1h11l2 1h0l-1 1h0-1 0l-2 1h0l-1 1h0l-1 2h0v1h0v1h0v2h0v1h0l1 2h0l2 1h0l2 2h4l2-2h0l1-1h0l2-2h0v-3h0v-1l-1-2h0l-1-1-1-1h0l-1-1h-1 0l-1-1h0-1 1l2-1h9l3 1h2l-1 1h0-1 0-1 0l-1 1h0l-1 1h0l-1 2h0l-1 1h0v2h0l1 2h0v2h0l2 1h0l1 1h0l2 1h3l1-1h0l2-1h0l1-1h0l1-2h0v-2h0v-1h0v-2h0l-1-1h0l-1-2h0l-2-1h0-1 0l-1-1h0l2-1h10l3 1h1l-1 1h0l-2 1h0l-2 1h0l-1 2h0l-1 3h0l1 2h0l1 2h0l2 1h0l2 2h2l2-1h0l2-1h0l2-2h0v-1l1-2h0v-2l-1-1h0l-1-2-1-1h0l-1-1h-2 0l-1-1h1l3-1h9l2 1h2-1 0v1h0-1 0l-2 1h0l-2 1h0l-1 2h0v3h0v2h0l1 2h0l2 1h0l2 2h2l3-1h0l2-1h0l1-2h0l1-2v-1h0v-2l-1-1h0v-2l-2-1h0l-1-1h-1 0-1 0v-1h0-1 1l1-1h8v17H33v-17h7"/><path d="m40 239 2 1h1M254 243v1h0v1h0v1h0v-1h0v-1h0zv-2h0v-1h3l1 1h0l1 2h0l1 1h0v1h0v2h0v2h0l-1 1h0l-1 2-2 1h0-4 0l-2-1-1-2h0l-1-2-1-2h0l1-2h0l1-2h0l2-2h0l2-1h0v1h1v1h0zM272 243v4zl1-4 1 1h0l2 1h0l1 1h0l1 2h0l1 2h0v2h0l-1 1h0l-1 2h0l-1 1h0l-2 1h0-2 0l-2-1h0l-2-1h0l-1-1-1-2h0v-3h0v-2l1-1h0l1-1 2-1h2v-1h0v1h0v1h0v1h0zM290 243v4l1-4h0v-3h2l2 1 1 1h0l1 2v1h0v4h0l-1 1-1 1h0l-2 1h0l-2 1h0-2 0l-2-1h0l-1-1h0l-1-2h0l-1-1h0v-1h0v-3h0l2-2h0l2-2h0l2-1h0v1h0v1h0v1h0zM308 243v1h0l1 1h0v1h0v-1h0v-1h0v-5l1 1h2l1 1h0l1 1h0l1 1h0v2h0v2h0v2h0l-1 1h0l-1 1h0l-1 1h0l-2 1h0-1 0-2l-2-1h0l-1-2-1-1h0l-1-2v-2h0l1-2 1-2h1l1-1h1l1-1h0v1h0v1h0zM327 243v4zv-1h0v-2h1v-1h0v1h2l1 1h1v1h0l1 2h0l1 1h0v1h0l-1 2h0l-1 3h0l-2 1h0l-2 1h0-2 0l-1-1h0-2 0l-1-1h0l-1-2v-1h0l-1-2 1-1h0v-2l1-1h0l1-1 2-1h1l1-1h0v1h0v1h0v1h0zM345 243v4zl1-1h0v-2h2l2 1h0l1 1h0v2h0l1 2v2h0l-1 1-1 2h0l-2 1-2 1h0-2l-2-1h0l-1-1-2-2h0v-4h0l1-2 1-2h0l2-1 2-1h0v1h0v1h0v1h0zM364 243v3zv-4l1 1h1l2 1h0l1 1h0l1 1h0v4h0v1l-1 2h0l-1 1-1 1h0l-2 1h-2 0l-2-1-2-1h0l-1-2-1-2h0v-2l1-2h0l2-2 2-1h1l1 1h0v1h0zM382 243v4zv-4l1 1h1l1 1h1l1 1h0l1 2 1 2h0l-1 3-1 2h0l-2 1-2 1h0-2l-2-1h0l-1-1-1-1h0l-1-1-1-2h0v-1l1-2h0v-1l1-1h0l1-1h0l1-1h1l1-1h1v1h0v1h0v1h0zM449 243v4l1-4v-4l1 1h2l1 2h0l1 1 1 2h0v2l-1 2h0l-1 2-2 1h0l-1 1h-2 0-2l-1-1h0l-1-1-1-1h0l-1-2v-2h0v-2h0l1-1h0l1-2h0l2-1h2zM468 243v4zv-3h2l2 1 1 1h0l1 1v2h0v3h0l-1 1v2h0l-2 1h0l-1 1h0-2 0-1 0-2 0l-1-1h0l-1-1h0l-1-1h0l-1-2h0v-2h0v-2h0l2-2h0l1-1h0l1-1h1l1-1h0v1h0v1h0v1h0zM486 243v1h0v1h0v1h0v-1h0v-1h0zv-4l1 1h2l1 1h0l1 1h0l1 1h0v2h0v2h0v2h0l-1 1h0l-1 1h0l-1 1h0l-2 1h0-1 0-2 0l-1-1h0l-1-1h0l-1-1h0l-1-1h0l-1-2h0v-2h0l1-2h0l1-1h0l1-1h0l2-1h0l1-1h0v1h0l1 1h0zM504 243v4zl1-4 1 1h1l1 1h0l1 1 1 1h0l1 2v1h0v1l-1 2h0v1l-2 1h0l-1 1-1 1h0-3 0l-2-1-1-1h0l-2-1h0v-2h0v-2h0v-2h0l1-1h0v-1h0l1-1h0l2-1h1l1-1h0v1h0v1h0v1h0zM522 243v4l1-4h0v-3h2l2 1 1 1h0l1 2v1h0v4h0l-1 1-1 1h0l-1 1-2 1h0-3 0l-1-1h-2 0l-1-1v-2h0l-1-1h0v-2h0v-2h0l1-1h0l1-1h0l1-1h0l1-1h0l2-1h0v1h0v1h0v1h0zM540 243v1h0v1h0l1 1h0v-1h0v-1h0v-5l1 1h2l2 2h0l1 2v2h0v4h0l-2 1-1 1h0l-2 1h0-1 0-2 0l-1-1h0l-2-1-1-1h0v-1l-1-2h0v-1l1-2h0v-1l1-2h1l2-1h1l1 1h0v1h0zM559 243v4zv-4l1 1h2l2 2h0l1 1h0l1 2h0v2h0l-1 3h0l-2 2h0l-2 1h0-4 0l-2-1-1-2h0l-1-2v-2h0v-2l1-2h0l1-1h0l1-1h2l1-1h0v1h0v1h0v1h0zM577 243v4zl1-1h0v-2h2l2 1h0l1 1h0v2h0l1 2v2h0l-1 1-1 2h0l-2 1-2 1h0-2l-2-1h0l-1-1-1-2h0l-1-1v-2h0v-2l1-2h0l2-1 1-1h2v-1h0v1h0v1h0v1h0zM642 243v4zv-4l1 1h2l1 1h0l1 1 1 1h0v1l1 1h0v2l-1 1h0v2l-1 1h0l-2 1-1 1h0-4 0l-2-1-1-1h0l-1-2v-1h0l-1-2 1-1h0v-2l1-1h0l1-1 1-1h3zM660 243v4zv-1h0v-1h0l1-1h2l1 1h1l1 2 1 1h0v3h0l-1 2v1h0l-1 1-2 1h0l-1 1h-2 0-1l-1-1h0-2l-1-1h0l-1-2v-1h0v-3h0v-1l1-2h0l1-1 1-1h1l2-1h0v1h0v1h0v1h0zM679 243v4zv-4l1 1h0l2 1h0l2 1h0l1 2h0v2h0v2l-1 2h0l-1 1-1 1h0l-1 1h-2 0-2l-1-1h0l-2-1-1-1h0l-1-1v-2h0v-3h0l1-1 1-2h1l1-1h2v1h0l1 1h0zM697 243v4zv-4l1 1h0l3 1h0l1 2h0l1 2h0v3h0v1h0l-1 2h0l-2 1h0l-1 1h0-4 0l-2-1-2-2h0l-1-2v-2h0l1-2 1-2h0l1-1h0l1-1h1l1-1h0l1 1h0v1h0v1h0zM715 243v1h0v1h0v1h0v-1h0v-1h0zv-1h0v-1h0v-1h3l2 2h0l1 1h0l1 3h0l-1 2h0l-1 2h0l-2 2h0l-1 1h-2 0-2l-1-1h0l-1-1-1-1h0l-1-2v-1h0v-3h0l1-1h0l1-2h0l2-1h1l1-1h0v1h0v1h0zM733 243l1 4v-8l1 1h2l1 2h0l1 1h0l1 2h0v3h0l-1 2-1 1h0l-2 1-1 1h0-4 0l-1-1-2-1h0v-2l-1-1h0v-4h0l1-1 1-2h1l1-1h2v1h0v1h0zM752 243v4zv-2h0v-1h0v-1h0l1 1h2l1 1h0l1 1h0l1 2v2h0v2l-1 2h0l-2 2-2 1h0-2l-2-1h0l-2-1-1-1h0v-1l-1-2h0v-3h0l1-1 1-1h0l1-1h0l1-1h1l1-1h0v1h0v1h0l1 1h0zM770 243v1h0v1h0v1h0v-1h0v-1h0zv-4l1 1h0l3 1h0l1 1h0l1 2h0l1 3h0l-1 2h0l-1 1h0l-1 1h0l-1 1h0l-2 1h-1 0-2l-1-1h0l-2-1-1-1h0v-2l-1-2h0l1-1h0v-1h0l1-2h0l1-1h0l1-1h2v-1h0v1h1v1h0zM845 243v4zv-4l1 1h2l1 1h0l1 2h0l1 2h0v2h0v2h0l-1 2h0l-2 1h0l-2 1h-3 0l-2-1-2-2h0l-1-2v-2h0l1-3 1-2h1l1-1h1l1-1h0v1h0v1h0l1 1h0zM863 243v4zv-1h0v-1h0v-1h2l1 1h1l2 2v2h0v3l-1 2h0l-1 2-2 1h0-3l-2-1h0l-2-1-1-2h0l-1-2v-2h0l1-2 1-2h0l2-1 2-1h0v1h0l1 1h0v1h0zM881 243v4zl1-4 1 1h0l2 1h0l2 1h0v2h0l1 3h0l-1 1v2h0l-1 1-2 1h0l-1 1h-2 0-1l-2-1h0l-1-1h-1 0l-1-3h0v-2h0v-3h0l1-1h0l2-1h0l1-1h2v1h0v1h0zM899 243v4l1-4v-4l1 1h2l1 1h0l1 2 1 1h0v4h0l-1 2-1 1h0l-1 1-2 1h0-2 0-2l-1-1h0l-1-1-1-1h0l-1-1v-2h0v-3h0l1-1 1-1h0l1-1 1-1h2v-1h0v1h0v1h0v1h0zM917 243v1h0l1 1h0v1h0v-1h0v-1h0v-1h0v-1h0v-1h0v-1h2l1 1h1l2 2h0v2h0v3h0l-1 2h0l-1 1-1 1h0l-1 1h-2 0-2l-1-1h0l-2-1-1-1h0l-1-2v-1h0v-2l1-2h0l1-1 1-1h0l2-1 1-1h0v1h0v1h0zM936 243v4zv-4l1 1h0l3 1h0l1 1h0l1 2h0l1 2h0l-1 3-1 1h0l-1 2-2 1h0-3l-2-1h0l-1-1-2-1h0v-4h0v-3h0l1-1 1-1h0l2-1 2-1h0v1h0v1h0zM954 243v4zl1-4 1 1h0l2 1h0l2 2h0l1 2h0v3h0l-1 1h0l-1 2h0l-1 1h0l-1 1h0-3 0l-2-1h0l-2-1h0l-2-2h0v-1h0v-2h0v-1h0v-1h0l1-1h0l1-1h0v-1h0l2-1h2zM972 243v1h0v1h0l1 1h0v-1h0v-1h0v-5l1 1h1l1 1h0l2 1h0l1 1h0v2h0v2h0v2h0l-1 1h0l-1 1h0l-1 1h0l-2 1h0-1 0-2 0l-1-1h0l-2-1h0l-1-1h0l-1-1h0v-2h0v-2h0l1-2h0l1-1h0l1-1h0l1-1h0l2-1h0v1h0v1h0zM43 244v4l1-4h0v-2h0v-1h1l1 1h0l2 1h0l1 2h0l1 2h0v2h0l-1 2h0l-1 1h0l-1 1h0l-1 1h0-2 0-1 0-2 0l-2-1h0l-1-1h0l-1-1h0v-2h0v-1h0v-3h0l1-2h0l2-1h0l2-1h1v1h0zM61 244v4zv-2h0v-1h2l2 1h0l1 2h0l1 2h0v2h0v2h0l-1 2h0l-2 1h0l-2 1h0-2 0-2 0l-1-1h0l-2-1h0v-2h0l-1-2h0v-1h0l1-2h0l1-2h0l2-2h2l1 1h0zM78 244v4zv-2h0l1-1h1l2 1h0l1 1h0l1 1h0v1l1 2h0v2l-1 2h0l-1 1-1 1h0l-2 1h-2 0-2 0l-1-1h0-1 0l-1-2h0l-1-2h0v-3h0v-1l1-1h0l1-1 1-1h0l1-1h2v1h0zM95 244v4l1-4v-3h1l2 1h0l2 2h0l1 2h0v2h0l-1 3h0l-1 1h0l-2 2h0-2 0-2l-1-1h0-2l-1-1h0l-1-2v-1h0v-3h0l1-2h0l1-1h0l2-2h2v1h0zM113 244v4zv-3h1l2 1 2 1h0l1 1v2h0l1 2-1 2h0l-1 2-1 1h0l-1 1h0-2 0-2 0-1 0l-1-1h0-1 0v-1h0l-2-2h0l-1-2h0l1-2h0l1-2h0l1-1h0l1-1h0l1-1h2v1h0zM412 523v25h-21v-7h0v-2h0v-3h0l1-2h0v-2h7v-21H229v21h8l1 1h0v1h0v2h0v3h0v9h-21v-9h0v-5h0v-6h0v-8h0v-23h195zM608 523v25h-22v-16h11v-21H422v21h10v2h0l1 1h0v2h0v3h0v8h-20v-51h195zM803 497v1h0l1 7h0v8h0v35h-27v-18h9v-21h-13 0-6 0-10 0-10 0-36v11l1 10h4l5 1v17H608v-51h195M934 497h80v51h-43v-18h9v-21h-16 0-9 0-19 0-22 0-23l-57-1v22h9v18h-39v-11h0v-6h0v-7h0v-7h0v-20h130"/><path d="m934 509 46 1v9h0v4h0v3h0v3h0v1h0-1 0-2 0-6v-2h0v-1h1l2-1h1l1-1h0l1-2h0l1-1v-1h0v-3h0l-1-1v-2h0l-3-2h0-1 0-2 0-3 0l-1 1h0l-2 2h0l-1 2h0v2h0v2h0l1 2h0l1 1h0l2 1h0l1 1h1l1 1h0v2h-18v-2h0v-1h2l2-1h0l1-2h0l2-2h0v-2h0v-2h0l-1-1h0l-1-2h0l-1-1h0l-1-1h-2 0-4 0l-2 1-1 2h0l-1 2v2h0v2h0l1 2h0l2 2h0l3 1h0l1 1h0l-1 2h-17v-1h0v-1h0v-1h1l1-1h1l2-2h0l1-1h0v-4h0v-2l-1-2h0l-2-1-2-1h0l-2-1-2 1h0l-2 1-1 1h0l-1 1v2h0l-1 1v2h0l1 2 1 1h0l1 1h0l1 1h1l1 1h1v3h-18v-2h0v-1h1l1-1h2l2-2h0l1-2h0v-3h0v-1l-1-2h0l-1-1-1-2h0-2l-1-1h0l-2 1h-2 0l-1 1-1 1h0l-1 1-1 2h0v3h0l1 2 1 1h0v1h0l2 1h1l1 1h1v3h-18v-2h0v-1h1l1-1h1l2-1h0l1-1h0l1-2h0v-2h0v-3h0l-2-2h0l-2-2h0l-3-1h0-1l-1 1h0-2l-1 1h0l-2 2h0v2h0v2h0v2h0l1 2h0l1 1h0l1 1h2l1 1h1v2l-1 1h-17v-2h0v-1h0l1-1h2l1-1h0l1-1h0l1-2h0l1-3h0l-1-2h0l-1-2h0l-1-1"/><path d="m884 514-1-1h0l-2-1h0-1 0l-3 1-2 1h0l-2 2v2h0v3l1 2h0l1 2 2 1h0l2 1h0v3h-5 0l-2-1h0-2 0-3 0-5v-1h0v-1h0l1-1h1l2-1h0l1-1h0l1-1h0v-3h0v-3h0l-1-2h0l-2-2h0l-2-1h0-2 0-1 0l-2 1h0l-2 1h0l-1 3h0l-1 3h0l1 2h0v1h0l2 2h0l1 1h2v1h1v2h-18v-1h0v-1h1v-1h1l2-1h0l2-1h0l1-2h0v-3h0v-3h0l-1-1-1-1h0l-2-1-1-1h0-3 0l-2 1-1 1h0l-1 1-1 1h0l-1 2v2h0v1l1 2h0l1 1h0l1 1h0l2 1h1v1h1v2h-9v-10h0v-3h0v-4h0v-3h100M769 510h16v9h0v4h0v3h0v3h0v1h0-1 0-1 0-6v-2h0v-1h1l2-1h0l2-2h0l1-2h0l1-2h0l-1-2h0v-1h0l-1-1h0l-1-2h0l-1-1h0-1 0-2 0-1 0-2l-1 1h0l-2 1-1 1h0v2l-1 1h0v2l1 2h0l1 1h0l1 1h0l1 1h0l2 1h1v1h0v2h-18v-2h0l1-1h1l1-1h1l1-1h0l1-2 1-2h0v-3l-1-2h0l-2-2-2-1h0-5 0l-1 1h0l-1 1h0l-1 2h0l-1 1h0v3h0l1 1v2h0l1 1 1 1h0l3 1h1v1h0v2h-18v-1h0v-1h0v-1h1l2-1 2-1h0l1-2 1-1h0v-4h0l-1-2-1-1h0l-1-1-2-1h0-1l-2-1h0l-1 1h-1 0l-2 1-1 1h0l-1 2h0v3h0v2h0l1 2h0l1 1h0l1 1h2l1 1h1v3h-18v-2h0v-1h0l1-1h2l1-1h0l1-1h0l1-2h0l1-2h0l-1-2h0l-1-3h0l-1-1h0l-2-1h0l-2-1h0l-2 1h0-2 0l-1 1-1 2h0l-1 1v1h0v3h0v2l1 1h0l1 1h0l1 1h2l1 1h0v3h-9v-21h29l11 1h17M103 510h14v20h-5 0-2 0-1 0-1 0v-1h0v-1h0l1-1h1l1-1h1l1-1h0l1-2 1-2h0v-2l-1-2h0l-2-2-2-1h0l-2-1h-2 0l-1 1h-2 0l-1 1v2h0l-1 1v1h0v3h0v2h0l2 1h0l1 1h0l2 1h1v1h0v2H90v-1h0v-1h0v-1h2l1-1h0l1-1 2-2h0v-4h0v-2l-1-2h0l-2-1-2-1h0-4 0l-2 1-1 1h0l-1 2-1 2h0v2l1 2h0l1 1h0l1 2h1l2 1h1v1h0v2H71v-1h0v-1h0l1-1h1l2-1h0l2-2h0l1-2h0v-2h0v-2h0l-1-3h0l-2-1h0l-3-1h0-1 0-1 0-2 0l-1 1h0l-1 1h0l-1 2h0l-1 1h0v2h0v2h0l1 2h0l2 2h0l2 1h1l1 1h0v1h0v1H61v-20h42M198 520v10h-8v-1h0v-1h0v-1h2l1-1 2-1h0l1-1v-1h0l1-2v-1h0v-2l-1-1h0v-1h0l-1-1h0l-1-1h0l-2-1h0-2 0-2 0-2 0l-1 2-2 2h0v4h0v2l2 2h0l1 1 2 1h1v1h0v2h-17v-2h0v-1h0l2-1h1l1-1h0l2-2v-1h0l1-2-1-1h0v-2l-1-1h0l-1-2-2-1h0-4 0-2l-1 2h0l-2 1-1 2h0v3h0l1 2h0l2 2h0l2 2h2v1h0v2h-9v-20h36zM398 521v11h-7v-3h0v-1h0l1-1h0l2-1h1l1-1v-1h0l1-1v-2h0v-1l-1-1h0l-1-1h0l-1-1h0l-1-1h0-2 0l-2 1h0l-2 1h0l-1 1h0v3h0v1h0l1 1h0v1h1v1h1l1 1h1v1h0v4h-14v-3h0l1-1h0v-1h1l1-1h0l2-1h0l1-2h0v-2h0v-1h0l-1-1h0l-1-1h0l-1-1h0l-1-1h0-2 0-1 0l-2 1h0l-1 1h0v1h0l-1 1h0v2h0v1h0l1 1h0v1h1v1h1l1 1h1v1h0v4h-13v-5l1-1h2l1-1h0v-1l1-2h0v-2h0l-1-2-1-1h0-1 0l-1-1h0-2 0-1 0-1 0v1h0l-1 1h0l-1 1h0l-1 1h0v1h0v1h0v2h0l1 1h0l1 1h1l2 1v5h-13v-5l2-1h1v-1h1v-1h0l1-2h0v-1h0l-1-2h0l-1-1h0v-1h0-1 0l-1-1h0-1 0-2 0l-1 1h0-1 0l-1 1-1 2h0v3h0l1 1 1 1h0l1 1 1 1h1v1h0v4h-13v-3h0v-1h0v-1h1l1-1 2-1h0v-1l1-1h0v-3h0l-1-2-1-1h0-1 0v-1h0-1 0-1 0-2 0l-1 1h0l-1 1h0l-1 1-1 1h0v3h0l1 1v1h0l1 1h2l1 1v5h-13v-3h0v-1h0v-1h1l1-1 2-1h0v-1l1-1h0v-3h0l-1-1-1-2h0-1 0v-1h0-1 0-1 0-1 0-1 0l-1 1h0-1 0l-1 2h0v1h0l-1 1h0v2h0l1 1"/><path d="m317 524 1 1h0l1 1h0l1 1h1v1h0l1 1v3h-14v-3h0v-1h0v-1h1l1-1h1v-1h1v-1h0l1-1h0v-1h0v-3h0l-1-1h0l-2-1h0l-2-1h0-1 0-1 0l-1 1h0-1 0l-1 2h0v1h0l-1 1h0v2h0l1 1h0l1 1h0l1 1h0l1 1h1l1 1h0v4h-14v-3h0v-1h0v-1h1l2-1 1-1h0l1-1v-2h0v-3h0l-1-1-1-1h0l-2-1h0-1 0-2 0l-1 1h0l-1 1h0l-1 1h0l-1 2h0v1h0l1 2h0v1h0l1 1h0l2 1h1l1 1h0v1h0l-1 1v2h-13v-5l2-1h0l1-1 2-1h0v-4h0l-1-1-1-2h0-1l-2-1h0l-2 1h0l-2 1h0l-1 2h0v2h0v2h0l1 1h0l1 1h1l1 1v5h-13v-5l2-1h0l2-1 1-1h0v-4h0v-1l-2-2h0-1l-2-1h0-2 0l-1 1h0l-1 1h0l-1 1h0v2h0v2h0l1 2h0l2 1 2 1v5h-14v-4l2-1h0l1-1h0l1-1h0l1-1h0v-2h0v-2h0l-2-2h0l-1-1h0-3 0-2l-1 1h0l-1 2-1 1h0l1 2v2h0l2 1 1 1 2 1v4h-14v-2h0v-2h0l1-1h1l1-1h0l1-1h0l1-1h0v-1h0v-1h0v-2h0l-1-2h0l-2-1h0-3 0-1 0-1 0v1h0-1 0v1h0l-1 1h0v1h0l-1 2h0l1 2h0l2 1h0l1 1 2 1v4h-9v-21h169v10M596 521v11h-10v-5l2-1h0l1-1 2-1h0v-4h0v-1l-2-2h0-1l-2-1h0l-2 1h0l-2 1h0l-1 2h0v2h0v2h0l1 1h0l1 1h1l2 1v5h-14v-5l2-1h0l2-1 1-1h0v-4h0v-1l-2-2h0-1l-2-1h0l-2 1h-1 0l-2 2v1h0v4h0l1 1 2 1 2 1v5h-13v-5l1-1h0l2-1 1-1h0v-4h0v-1l-1-2h0l-2-1h-2 0l-2 1h-1 0l-2 2v1h0v4h0l2 1 1 1 2 1v5h-13v-5l1-1h2l1-1h0v-1h0l1-2h0l-1-2h0l-1-2h0l-2-1h0l-2-1h0l-2 1h-1 0l-1 2-1 1h0v4h0l2 1 1 1 2 1v5h-14v-3h0v-1h0v-1h1l2-1 2-1h0v-2l1-2h0l-1-2-1-1h0l-2-1-2-1h0-1 0l-1 1h0-1 0l-1 2h0-1 0v1h0v1h0v1h0v2h0l1 1h0l1 1h0l2 1h1v1h0v4h-14v-3h0v-1h0l1-1h0l2-1h0l2-1h0l1-2h0v-2h0v-1h0l-1-1h0l-1-1h0l-1-1h0l-1-1h0-2 0-1 0l-1 1h0l-1 1h0l-1 1h0l-1 1h0v2h0v1h0l1 1h0v1h1v1h1l1 1h1v1h0v4h-13v-3h0v-1h0v-1h1l1-1h1l1-1h0v-1h0l1-1h0v-2h0v-1h0l-1-1h0l-1-1h0l-1-1h0l-1-1h0-2 0l-2 1-1 1h0l-2 1v2h0v2l1 1h0l1 2 2 1h1v1h0v4h-13v-5l2-1h1v-1h1v-1h0l1-2h0v-1h0l-1-2h0l-1-1h0l-1-1h0v-1h0-1 0-1 0-2 0l-1 1h0-1"/><path d="m485 517-1 1-1 2h0v3h0l1 1 1 1h0l1 1 1 1h1v1h0v4h-13v-3h0v-1h0v-1h1l1-1 1-1h0l1-1 1-1h0v-3h0l-1-1-1-1h0v-1h0-1 0l-1-1h0-1 0-2 0l-1 1h0l-1 1h0l-1 1h0l-1 1h0v2h0l1 2h0v1h1v1h1l2 1v5h-13v-3h0v-1h0v-1h1l1-1 1-1h0l1-1 1-1h0v-3h0l-1-1-1-1h0v-1h0-1 0l-1-1h0-1 0-1 0-1 0l-1 1h0-1 0l-1 2h0l-1 2h0l1 2h0l1 2h0v1h1l1 1h1v1h0v4h-13v-3h0v-1h0v-1h1l1-1h1v-1h1v-1h0l1-1h0v-1h0v-2h0l-1-1h0l-1-2h0-1 0l-1-1h0-1 0-2 0l-1 1h0l-1 1h0l-1 1h0l-1 1h0v1h0l1 2h0v2h0l2 1h0l2 1h0l1 1h0v4h-14v-3h0v-1h0v-1h1l2-1 1-1h0l1-1v-2h0v-3h0l-1-1-1-1h0l-2-1h0-1 0-2 0l-1 1h0l-1 1h0l-1 1h0l-1 1h0v1h0l1 2h0l1 2h0l1 1h0l2 1h1v1h0v4h-10v-21h173v10M725 514h1l1 1h0v1h0l1 1h0v3h0v3h0l-1 1-1 1h0l-2 1h-2v-7l-1 4v3h-1 0-1l-1-1h0l-2-2h0l-1-3h0v-2h0l1-2 1-1h0l1-1 1-1h4zM847 514l1 1h0l1 1h0v2h0l1 1h0l-1 1h0v1h0v1h0v1h0l-1 1h0l-1 1h0l-2 1h0-1 0l-1-1h0v-3h0v-1h0v-1h0v1h0v1h0v1h0v1h0v1h0v1h0-1 0-1 0l-1-1h0l-2-1h0l-1-1h0v-1h0v-1h0l-1-2h0l1-1h0v-2h0l1-1h0l1-1h0l1-1h5zM864 513l1 1 2 1h0v2l1 2h0v2l-1 1h0l-1 2-1 1h0-1 0v1h0-1 0-1l-1-3v-4 7h-1 0l-2-1h0l-2-1h0l-1-3h0v-2h0v-3h0l1-1 2-1h0l1-1h5M883 514l2 1h0l1 2h0v3h0v2h0l-1 1h0l-1 1h0l-1 2h0-1 0-1 0-1 0v-1h0v-2l-1-4v7h-1 0-1 0l-1-1h0l-1-1h0l-1-1h0l-1-1v-1h0v-3h0l1-2v-1h0l1-1 2-1h4zM901 514l2 1 1 1h0v2l1 2h0l-1 2-1 1h0l-1 2-1 1h0-2 0-1 0v-1h0v-6 7h-1 0-2 0l-1-1h0l-1-1h0l-1-1h0l-1-2h0v-1h0v-2h0l1-1h0v-1h0l2-2h1l1-1h4zM919 514l2 1h0l1 2h0l1 3h0l-1 2h0v1h0l-1 1h0l-1 1h0l-1 1h0-2 0l-1-1h0v-6 4h0v2h0v1h0-1 0-1 0l-2-1h0l-1-2h0l-1-2h0l-1-2h0l1-1h0v-1h0l1-2h0l1-1h0l2-1h4zM75 514l1 2h0l1 2h0l1 3h0l-1 2h0l-1 1h0l-1 1h0l-1 1h0-1l-2 1v-7 3h0v2h0v1h0l-1 1h0l-1-1h0-1 0l-2-2h0l-1-1h0v-2h0v-2h0v-2h0l1-2h0l2-1h0l2-1h0l2 1h3M93 515l1 1h0l1 1h0l1 2h0v1h0v2h0l-2 2h0l-2 2h0-1l-1 1h0v-1h0v-1h0l-1-2v-3 3h0v2h0v1h0l-1 1h0l-1-1h0-1 0l-2-1-1-2h0v-4h0v-2l1-2h0l2-1h2l1-1h0l2 1h1zM175 514l2 2h0v1h0l1 2h0v1h0v1h0v1h0l-1 1h0l-1 1h0l-1 1h0l-1 1h0-1 0-1 0v-1h0v-2h0v-1h0v-1h0v-1h0-1 0v1h0v1h0v1h0v2h0v1h0-1 0-1 0l-1-1h0l-1-1h0l-1-1h0l-1-1h0v-2h0v-2h0v-1h0l1-2h0l2-1h0l2-1h3l1 1h1M192 514l2 1 1 2h0l1 1v3h0v2l-1 1h0l-2 2h-2l-1 1v-8 4h0l-1 3h0v1h0l-2-1h0l-1-1-1-1h0l-1-1-1-1h0v-3h0v-1l1-1h0l1-2h0l3-2h2zM743 514l2 1h0l1 1h0v2h0v2h0v1h0v1h0v1h0-1 0v1h0l-1 1h0l-1 1h0-3v-3h0v-2h0v-1h0v1h0v1h0v4h-2 0l-2-1h0l-1-1h0l-1-2h0l-1-2h0l1-2h0v-2h0l1-1h0l1-1h0l2-1h4zM762 514l1 1h0l1 1h0v1h0l1 2h0v2h0l-1 2h0l-2 2h0l-2 1-2 1v-8 7h-1 0-2 0l-2-2h0l-1-2h0v-2h0v-4h0l2-1 1-1h0l2-1h3zM780 514l1 1 1 1h0l1 1v2h0v3h0l-1 1-1 1h0v1h0l-2 1h0-1 0l-1 1h0v-1h0v-1h0v-2l-1-4v8l-1-1h0-1l-1-1h0l-2-1v-1h0l-1-1v-2h0v-2h0l1-2 1-1h0l1-1h1l1-1h3zM938 514h1v1h0l1 1h0l1 1h0v1h0v1h0v1h0l-1 2h0l-1 2h0l-1 1h0l-2 1h-2l1-3h0v-2h0v-1h0-1 0v1h0v1h0v1h0v2h0v1h0-1 0-1 0l-2-1h0l-1-2h0l-1-2h0v-2h0v-2h0l1-2h0l2-1h0l2-1h3zM956 514l1 1h0l1 1h0l1 1h0v2h0v2h0l-1 2h0l-1 2h0l-2 1-2 1v-8 7h-2 0-1 0l-2-2h0l-2-2h0v-2h0v-2h0l1-1h0l1-2h0l1-1h0l2-1h4zM974 514l1 1 1 1h0l1 1 1 2h0v1l-1 2h0v1l-1 1h0l-1 1h0l-1 1h0-2 0v1h0-1v-1h0v-1h0v-6 8l-1-1h0l-3-1h0l-1-1-1-1h0v-1l-1-1h0v-2l1-1h0v-1l1-2h0l1-1h1l2-1h3zM111 514l1 1h0l1 1h0l1 2h0v2h0v1h0v2h0l-1 1h0l-1 1h0l-1 1h0-1 0l-1 1h0-1 0v-1h0v-1h0v-1h0v-2h0v-1h0v-1h0l-1 1h0v1h0v5h-1 0l-2-1h0l-2-2h0l-1-2h0v-2h0v-2h0l1-2h0l1-1h0l2-1h6M269 518l1 1h0l1 1h0v2h0v1h0l-1 1h0l-1 1h0l-1 1h0-1 0-1 0v-1h0v-1h0v-1h0v-1h0v1h0v1h0v1h0l-1 1h0-1 0l-1-1h0l-1-1h0-1 0v-2h0v-1h0v-1h0l1-1h0l1-1h0l1-1h4zM283 517l1 1h0v1h0l1 1h0v1h0v2h0l-1 2h0l-2 1h0-1 0-1 0v-1h0v-1h0v-1h0v-1h0v1h0v2h0l-1 1h0-1 0l-1-1h0l-1-1h0l-1-1h0v-2h0v-1h0l1-1v-1h0l2-1h5M297 518l1 1h0v1h0l1 1h0v2h0l-1 1h0l-1 1h0l-1 1h0-1 0-1 0v-1h0v-4 3h0v1h0v1h0-1 0-1 0l-2-1h0l-1-1h0v-2h0v-2h0l1-2h0l2-1h4zM311 518l1 2h0l1 2h0l-1 2h0l-1 1-1 1h0-1 0-1 0v-5 3h0v1h0l-1 1h0-1 0-1 0v-1h0l-1-1-1-1h0v-3h0l1-2 1-1h5zM325 518l1 1h0v1h0v1h0v1h0v2h0l-1 1h0l-1 1h0-1 0-1 0v-1h0v-4 3h0v1h0l-1 1h0-1 0l-1-1h0l-1-1h0l-1-1h0v-2h0v-2l1-1h0l1-1h5zM338 517l1 1 1 1h0v3h0v2h0l-1 1-1 1h0-1 0-1 0v-5 3h0l-1 2h0-1 0l-1-1h0-1l-1-1h0v-3h0v-2h0l1-1 1-1h5M352 517l1 1h0l1 1h0v1h0v1h0v2h0v1h0l-1 1h0l-1 1h0-1 0-1 0v-5l-1 3h0v1h0v1h0-1 0-1 0l-1-1h0l-1-2h0v-2h0v-2h0l1-1h0l1-1h5M366 517l1 1h0l1 1h0v2h0v2h0l-1 1h0l-1 2h0-1 0-1 0v-2l-1-3v3h0v2h0-1 0-1 0l-1-1-1-1h0v-2h0v-3h0l1-1 1-1h5M380 517l1 1h0l1 1h0v2h0v2h0v1h0l-1 1h0l-1 1h0-2 0l-1-1h0v-4 3h0v2h0-1 0-1 0l-1-1h0l-1-1h0v-2h0l-1-1h0l1-1h0v-1h0l1-1h0l1-1h5M395 518v1h0l1 1h0v1h0v2h0l-1 1h0l-1 1h0l-1 1h0-1 0l-1-1h0v-4 3h0v1h0v1h0-1 0-1 0l-1-1h0l-1-1h0v-1h0l-1-1h0v-1h0l1-1h0v-1h0l1-1h0l1-1h5z"/><path d="m436 518 1 1h0v1h0l1 1h0v2h0l-1 1h0l-1 1h0l-1 1h0-1 0-1 0v-1h0v-4 3h0v1h0v1h0-1 0-1 0l-2-1h0l-1-1h0v-2h0v-2h0l1-2h0l2-1h4zM449 517l1 1h0l1 1h0v1h0l1 1h0l-1 2h0v1h0l-1 1h0l-1 1h0-1 0-1 0v-5 3h0v1h0l-1 1h0-2 0l-1-1h0l-1-1h0v-1h0v-2h0v-2h0l1-1h0l1-1h5M463 517l1 1 1 1h0v2h0v3h0l-1 1-1 1h0-1 0-1 0v-1h0v-4 3h0l-1 1h0v1h0-2 0l-1-1h0l-1-1h0v-2h0v-2h0l1-2h0l1-1h5M477 517l1 1h0l1 1h0v1h0v1h0v2h0v1h0l-1 1h0l-1 1h0-1 0-1 0v-5l-1 3h0v2h0-1 0-1 0l-1-1-1-1h0v-3h0v-2h0l1-1 1-1h5M491 517l1 1h0l1 1h0v2h0v2h0l-1 1h0l-1 2h0-1 0-1 0v-5l-1 3h0v2h0-1 0-1 0l-1-1-1-1h0v-3h0v-2h0l1-1 1-1h5M505 517l1 1 1 1h0v2h0v3h0l-1 1-1 1h0-1 0-1 0l-1-2v-3 3h0v2h0-1 0-1 0l-1-1-1-1h0v-2h0v-3h0l1-1 1-1h5M519 517l1 1h0l1 2h0v1h0v2h0v1h0l-1 1h0l-2 1h0-1 0l-1-1h0v-4 3h0v2h0-1 0-1 0l-2-2h0v-1h0l-1-2h0l1-2h0l1-2h6M533 517l2 2h0v2h0v2h0l-2 2h0v1h0-1 0-1 0-1 0v-1h0v-4 3h0v2h0-1 0-1 0l-1-1h0l-1-1h0l-1-2h0v-1h0l1-1v-2h1l1-1h5M547 517l1 2h0l1 2h0v2h0l-1 2h0l-2 1h0-1 0l-1-1h0v-2h0v-1h0v1h0v1h0v1h0v1h0-1 0-1 0l-1-1h0l-1-1h0l-1-1h0v-2h0v-1h0l1-1h0l1-1h0l1-1h5M561 518l1 1h0l1 1h0v1h0v2h0l-1 1h0l-1 1h0l-1 1h0-1 0v-1h0v-1h0l-1-1h0v-1h0v1h0v1h0v1h0v1h0-1 0-1 0l-1-1h0l-1-1h0l-1-1h0v-1h0v-2h0l1-1h0l1-1h0l1-1h5zM574 517l1 1h0l1 1h0l1 1h0v1h0v2h0l-1 2h0l-2 1h0-1 0l-1-1h0v-1h0v-1h0v-1h0v1h0v1h0v1h0v1h0-1 0-1 0l-1-1h0l-1-1h0l-1-1h0v-2h0l1-2h0l1-1h0l1-1h4M589 518l1 1h1v1h0v1h0v2h0l-1 1h0l-1 1h0l-1 1h0-1 0-1 0v-1h0v-1h0v-1h0v-1h0v1h0v2h0l-1 1h0-1 0l-1-1h0l-1-1-1-1h0v-3h0l1-2 1-1h5zM240 517l1 1h0l1 1h0l1 2h0v1h0v1h0l-1 1h0l-1 1h0l-1 1h0l-1 1h0l-1-1h0v-4 2h0v2h0-1v1h0l-1-1h0l-2-1h0l-1-1h0v-1h0v-3h0l1-1 1-1h0l1-1h4M255 518l1 2h0l1 1h0v2h0l-1 1h0v1h0l-1 1h0-1 0l-1 1h0-1 0v-1h0v-4 2h0v2h0-1v1h0l-2-1h0l-1-1h0l-1-2h0v-2h0l1-2h0l1-1h0l1-1h4zM861 536v2h0v3h0v2h0v5h-18v-5h0v-2h0v-2h0v-3h0v-6h18zM879 539v9h-17v-18h17zM896 530l1 1v17h-17v-3h0v-2h0v-2h0v-3h0v-8h16M189 535v13h-18l1-5h0v-3h0v-2h0v-2h0v-6h17zM740 539v9h-18v-18h18zM758 539v3h0v3h0v3h0-3 0-3 0-12v-3h0v-1h0v-2h0v-3h0v-9h18zM776 539v9h-18v-18h18zM916 539v9h-9 0-3 0-3 0-3 0v-3h0v-3h0v-12h18zM934 539v9h-18v-18h18zM952 539v3h0v3h0v3h0-2 0-3 0-13v-3h0v-1h0l1-2h0v-3h0v-9h17zM971 539v9h-18v-18h18zM89 540v8h-9 0-3 0-3 0-3 0v-3h0v-3h0v-3l1-8h17zM107 540v8H90v-17h17zM251 533l1 1h0v2h0v3h0v9h-14v-16h13zM266 540v8h-14v-16h14zM280 540v3h0v2h0v3h0-1 0-1 0-3 0-9v-16h13zM293 536l1 1h0v2h0v3h0v6h-14v-16h13zM307 533v1h0l1 2h0v3h0v9h-14v-16h13zM321 533v1h0v2h0v2h0l1 3v7h-14v-16h13zM335 540v8h-13v-16h13zM349 540v8h-13v-16h13zM363 540v8h-13v-16h13zM377 540v8h-13v-7h0v-3h0v-2h0v-2h0v-1h0v-1h13zM391 540v8h-14v-7h0l1-2h0v-3h0v-2h0v-2h13zM446 533v1h0l1 2h0v3h0v9h-14v-16h13zM460 533v1h0v2h0v2h0v10h-13v-16h13zM474 540v8h-13v-16h13zM488 540v8h-13v-16h13zM502 540v8h-13v-16h13zM516 540v8h-13v-7h0v-3h0v-2h0v-2h0v-1h0v-1h13zM530 540v8h-14v-7h0v-2h0l1-3h0v-2h0v-2h13zM544 540v8h-14v-7h0v-2h0v-3h0v-2h0l1-1v-1h13zM558 540v8h-14v-5h0v-3h0l1-2h0v-2h0v-4h13zM572 540v3h0v2h0v3h0-2 0-2 0-3 0-3 0-2 0-1 0-1 0v-3h0v-2h0v-3l1-8h13zM586 535v1h0v2h0v2h0v8h-14v-16h14zM10 277h93-1 0-5 0-14 0-19 0-21 0-17 0zM708 308h116-22 0-40 0-39 0-22 7M467 308h116-22 0-40 0-39 0-22 7M226 308h116-22 0-39 0-39 0-22 6M10 309h121-3 0-18 0-26 0-28 0-45 0zM41 318l-1 1h0l-1 1h0v1h0v1h0v2h0l1 2h0l2 1h0l2 1h0l1-1h1l1-1h0l1-1h0l1-2v-1h0l-1-2-1-1h0l-1-1-2-1h0l-1 1z"/><path d="m47 319 1 1-3 1h0l-1 1h0l-1 1h0l-1 1h0-1l-1 1v-2h0l-1-1 1-1h0l1-1 1-1h0l1-1h2zM48 323v1h0l-1 1h0l-1 1h0l-2 1h0-1 0l-1-1h0-1 0v-1h0l1-1h1l1-1h0l1-1h0l2-1h1zM58 318l-1 1h0l-1 1h0v1h0v2h0v1h0v1h0l1 1h0l1 1h6l1-1 1-2h0v-3h0l-1-1-1-2h0-2l-1-1h0-1 0l-1 1h0z"/><path d="M63 319h1v1h0l-2 1h0l-4 3h0-1 0-1 0v-2h0v-1h1v-1h1v-1h0l1-1h3zM65 321v3h0l-1 1v1h0-1l-1 1h0-2 0l-2-1h0v-1h0l1-1h0l3-2h0l2-2h1zM75 318l-1 1h0l-1 1h0v1h0v2h0v2h0l1 1h0l1 1h5l2-1 1-2h0v-2l-1-1h0l-1-2h0l-2-1h0l-2-1h0z"/><path d="M81 319v1h0l-1 1h0-1 0l-2 1h0l-2 2h0-1 0-1 0v-2h0l1-1h0v-1h0l2-1h0l1-1h2l1 1h1"/><path d="M82 322v2h0l-1 1-1 1h0l-1 1h-1 0-2l-1-1-1-1h1l2-2h0l2-1h0l2-2h1v1h0zM91 319l-1 1h0v1h0v1h0v2h0l1 2h0l2 1h4l1-1h0l1-2h0l1-2h0v-1h0l-1-1h0l-1-1h0l-1-1h0l-1-1h0-1 0-2 0v1h0-1 0z"/><path d="M97 319h1v1h0-1 0v1h0-1 0l-3 2h0l-1 1h0-1 0l-1-1h0v-1h0l1-2h0l1-1h0l1-1h3z"/><path d="M99 321v2h0v1h0l-1 1h0l-1 1h0l-1 1h0-1 0-2 0l-1-1-1-1 1-1h0l2-1h0l2-1h0l2-2h1zM109 318l-1 1h0l-1 1h0l-1 2h0v1h0l1 2 1 1h0l2 1h3l2-1h0l1-1v-2h0v-2h0l-1-2h0l-1-1h0l-3-1h0l-1 1h0z"/><path d="M114 319h1v1h0-1 0l-2 2h0l-3 2h0-1 0l-1-1h0v-1h0v-1h0l1-1h0l1-1h0l1-1h3z"/><path d="M116 322v1h0l-1 1h0v1h0l-1 1h0l-1 1h0-2 0l-2-1-1-1 1-1h0l2-1h0l2-2h0l2-1h0l1 1h0zM262 318l-1 1h0l-1 1h0v1h0l-1 1h0l1 3h0l1 1h0l2 1h4l1-1 1-1h0v-3h0v-2h0l-2-2h0-1 0l-3-1h0z"/><path d="m267 319 1 1-2 1h0l-2 2h0l-2 1h0l-1 1h0-1 0v-1h0v-1h0v-1h0v-1h0l1-1h0v-1h2l1-1h2z"/><path d="M269 322v2l-1 1h0-1v1h0l-1 1h-1 0-3 0v-1h0-1 0v-1h0l1-1h0l1-1h0l3-1h0v-1h2v-1h0v1h1zM278 318v1h0-1 0v1h0l-1 1h0v1h1v-1h0l1-2h0l2-1h2l2 1 1 1-4 2h0l-1 1h0l-1 1h0-1 0l-1 1h0v-1h0v-1h0-1 0l1 2h0l1 1h0l1 1h0l1 1h2l1-1h1l1-1h0l1-1v-2h0v-2h0l-1-2h0l-2-1h0l-2-1h0z"/><path d="m285 321 1 2-1 1h0v1l-1 1h0-1l-1 1h0-2 0l-2-1h0v-1h1l2-2h0l1-1h0l2-1h1M296 318l-1 1h0-1 0l-1 2h0v2-1h0l1-1h0v-1h0l1-1h1l1-1h3l1 1 1 1-3 1h0l-1 1h0l-1 1h0l-1 1h0l-1 1h0-1 0v-1h0-1 0l1 1h0l1 1h0l1 1h1l1 1 2-1h1l1-1h0l1-1v-2h0v-2h0l-1-2h0l-2-1h0l-2-1h0z"/><path d="M302 322v1h0v1h0l-1 2h0-1 0l-1 1h0-1 0-1 0l-2-1h0v-1h0l3-2h0l1-1h0l2-1h1zM311 319v1h0-1 0v1h0v1h0v2h0l1 2h0l2 1h0l2 1h0l2-1h0l2-1h0l1-2h0v-2h0v-1h0v-1h0-1 0l-1-1h0v-1h0-1 0l-1-1h0-1 0-1 0l-1 1h0-1 0z"/><path d="m318 319-1 2h0l-1 1h0l-2 1h0l-3 2h0l-1-2h0v-1h0l1-1h0v-1h1v-1h1l2-1h1z"/><path d="M319 322v2h0l-1 1v1h0l-1 1h-2 0-1l-1-1h0-1 0l-1-1h1l1-1h1l1-1h0v-1h1l2-1h1zM329 318l-1 1-1 1h0v3h0l1 2 1 1h0l1 1h1l1 1h0l1-1h1l1-1h0l1-1h0l1-1h0v-1h0v-2h0l-1-2h0l-2-1h0l-2-1h0-1 0l-1 1h0z"/><path d="M334 319h1v1h0-1 0v1h0-1 0l-1 1h0l-1 1h0-1 0l-1 1h0-1 0v1h0v-1h0l-1-1h0l1-2h0v-1h0l1-1h0l1-1h3zM336 322v2h0l-1 1h0l-1 1h0l-2 1h0-1 0-1 0l-1-1h0l-1-1h1l3-2h0l3-2h1zM346 318l-1 1h0l-1 1h0v1h0v1h0v3h0l1 1h0l2 1h4l2-1h0l1-2h0v-2h0v-1l-1-1h0l-1-1-1-1h0-1l-1-1h0l-2 1z"/><path d="M351 319h1v1h0-1 0l-1 1h0l-2 2h0l-3 2h0v-1h0-1 0v-1h0v-1h0l1-1h0v-1h1v-1h0l1-1h3z"/><path d="M353 323v2h0l-2 1h0l-2 1h0-2 0l-1-1h0-1 0v-1h1l1-1h1v-1h1v-1h1l1-1h2zM363 318l-1 1h0l-1 1h0v1h0v1h0v1h0v1h0l1 1 1 2h1l2 1h0l1-1h2l1-2 1-1h0v-3h0l-1-1-1-2h0-2l-1-1h0l-2 1z"/><path d="m368 319 1 1-3 2h0l-2 1h0l-1 1h0-1 0v1h0v-1h0-1 0v-1h0v-1h0v-1h0l1-1h0l1-1h0l1-1h3zM370 321v3h0l-1 1v1h0-1l-2 1h0-2 0l-1-1h0-1v-1h1l3-2h0l1-1h0l1-1h2M380 318h-1l-1 1h0v3h0v3h0l1 1 1 1h5l1-1 1-1h0v-1l1-1h0l-1-2v-1h0l-1-1-1-1h0-1 0l-1-1h0l-2 1h0z"/><path d="m385 319 1 1-2 1h0l-4 3h0l-1 1h0l-1-1h0v-2h0v-1h0l1-1h0l1-1h0l1-1h3zM387 322v2h0l-1 1-1 1h0l-1 1h-1 0-2 0l-1-1h0-1 0v-1h0l3-2h0l3-2h2zM653 318h-1l-1 1h0l-1 2h0l-1 2h0v1l1 1h0l1 1h0l1 1h5l1-2 1-1h0v-3h0l-1-1-1-1h0l-1-1h0-1 0-1 0z"/><path d="M656 319h1v1h0l-3 3h0l-3 2h0-1 0v-1h0v-1h0v-1h0v-1h0l1-2h0l2-1h2z"/><path d="M658 323v2h0l-2 1h0l-1 1h0-2 0l-2-1h0v-1h0l2-1h0l1-1h0l1-1h1l1-1h1v1h0zM669 318l-1 1h0-1 0l-1 2h0v1h0l-1 1h0l1 1h0l1 1h0v1h0l2 1h4l2-2h0v-2h0v-2h0v-1h0l-2-2h0-1 0-1 0-1 0z"/><path d="M673 319v1h0v1h0-1 0l-1 1h0l-1 1-3 2-1-1h0v-3h0l1-1 1-1h0l1-1h3zM675 323v1l-1 1h0l-1 1h0l-2 1h-1 0-1l-1-1h0v-1h0l1-1h0l4-3h2zM686 318l-1 1-1 1h0v2h0v3h0l1 1 1 1h5l1-1h0l1-1h0v-2h0v-1h0v-1h0l-1-2h0l-2-1h0-2 0z"/><path d="M690 319h2v1h0-1 0v1h0l-2 1h0l-1 1h0l-1 1h0-1 0l-1 1h0v-1h0-1 0v-1h0v-1h0v-1h0l1-1h0l1-1h0l1-1h2z"/><path d="m693 323-1 2h0l-1 1h0l-2 1h0-2 0v-1h0-1 0l-1-1h1l1-1h0l3-2h0l2-1h1v1h0zM703 318l-1 1-1 1h0l-1 2v2h0l1 1 1 1h0l1 1h4l1-1h0l1-1h0l1-2h0v-2h0l-1-1h0l-1-1h0v-1h0-1 0-2 0-1 0z"/><path d="M707 319h1v1h0l-1 1h0l-1 1h0l-2 1h0l-2 1h0-1 0v-2h0v-1h0v-1h1l1-1h0l1-1h1z"/><path d="M709 323v1h0l-1 1h0l-1 1h0l-1 1h0-1 0-1 0l-1-1h0-1 0v-1h0l1-1h1l1-1h0v-1h1l1-1h2v1h0zM720 318h-1l-1 1h0l-1 1-1 2h0v1l1 2h0l1 1 1 1h5l1-2 1-1h0v-3h0l-1-1-1-1h0l-1-1h0-1 0-1 0z"/><path d="M723 319h1v1h0v1h0l-3 2h0l-3 2h0-1 0v-1h0v-1h0v-2h0l1-1h0l1-1h0l1-1h2z"/><path d="m725 322 1 1-1 1h0v1l-1 1h0-1l-1 1h0-2 0l-1-1h0-1v-1h1l2-2h0l2-1h0l1-1h1zM736 318l-1 1h0-1 0l-1 2h0v1h0v1h0v1h0l1 1h0l1 1h0l1 1h5l1-2h0l1-2h0l-1-2h0v-1h0l-1-2h0-2 0-1 0-1 0z"/><path d="m740 319 1 1-3 2h0l-3 2h0-1 0l-1-1h0l1-1v-2h0l1-1h1l1-1h2zM742 323v1h0l-1 1h0l-1 1h0l-2 1h0-1 0l-2-1h0v-1h0l2-1h0l2-2h0l2-1h1v1h0zM754 318h-1l-1 1h0l-1 1v2h0v3h0l1 1 1 1h5l1-1h0l1-1h0l1-2h0v-1h0l-1-1h0l-1-2h0l-1-1h0-2 0z"/><path d="m758 319 1 1h0l-1 1h0l-3 2h0l-3 2h0v-1h0l-1-1h0v-1h0l1-1h0l1-2h0l1-1h2z"/><path d="m760 323-1 2h0l-1 1h0l-2 1h0-2 0v-1h0-1 0v-1h0l1-1h1v-1h1v-1h1l1-1h2v1h0zM770 318l-1 1h0-1 0l-1 2h0v1h0v1h0v1h0l1 1h0l1 1h0l2 1h4l1-2h0l1-2h0v-2h0l-1-1h0l-1-2h0-1 0-1 0-2 0z"/><path d="M774 319h1v1h0l-1 1h0l-1 1h0l-1 1-4 2v-1h0v-3h0l1-1v-1h2l1-1h1z"/><path d="M776 323v2h0l-1 1h-1 0l-1 1h-1 0-1l-1-1h0-1 0v-1h0l1-1h0l3-2h0l2-1h1v1h0zM848 318h-1l-1 1h0l-1 1-1 1h0v3h0l1 1 1 1h0l1 1h4l2-1h0l1-1h0v-2h0v-3h0l-1-1h-1 0l-1-1h-1 0z"/><path d="M851 319h1v1h0l-1 1h0l-1 1h0-1 0v1h0-1 0v1h0-1l-2 1v-2h0v-2h0l1-1 1-1h0l1-1h2z"/><path d="M853 323v2h0l-1 1h-1 0l-1 1h-1 0-1l-1-1-1-1h1l1-1h0l2-2h0l3-1h0v1h0zM864 318l-1 1h0l-1 1h0l-1 1h0v2h0v2h0l1 1h0l2 1h4l1-1h0l1-1h0l1-1h0v-2h0l-1-1h0l-1-2h0l-2-1h0-1 0z"/><path d="M868 319h1v1h0-1 0l-1 1h0l-2 2h0l-3 2h0v-1h0v-1h0v-2h0v-1h0l1-1h0l2-1h2zM870 322v2h0l-1 1-1 1h0l-1 1h-1 0-2l-1-1-1-1h1l2-1h0l2-2h0l2-1h1zM882 318l-2 2h0l-1 1v1h0v2h0l1 2h0l1 1h4l2-1h0l1-1h0l1-2h0l-1-2v-1h0l-1-1-1-1h0-2 0-2"/><path d="m886 319 1 1h0-1 0v1h0-1 0l-1 1h0l-1 1h0l-2 1h0-1 0l-1-1v-2h0l1-1 1-1h0l1-1h3zM888 323v1l-1 1h0l-1 1h0l-1 1h-2 0-1l-1-1h0v-1h0l1-1h0l3-2h0l2-1h1v1h0zM898 318l-1 1h-1 0l-1 2v1h0v1l1 2h0v1l1 1h6v-1h0l1-1h0l1-1h0v-2h0l-1-1h0l-1-2h0l-1-1h0-2 0z"/><path d="M902 319h1v1h0l-1 1h0l-3 2h0l-2 2h0-1 0v-1h0v-1h0v-2h0v-1h0l2-1h0l1-1h2z"/><path d="M904 322v2h0l-1 1-1 1h0l-1 1h-1 0-1l-1-1-1-1 1-1h0l1-1h2v-1h0l1-1h2zM915 318l-1 1h0-1 0l-1 2h0l-1 1h0v1h0l1 1h0v1h0l1 1h0l1 1h5l1-1 1-1h0v-2h0v-3h0l-1-1h-1 0l-1-1h0-1 0-1 0z"/><path d="m919 319 1 1h0l-1 1h0-1 0l-2 1-3 3-1-1h0v-3h0l1-1 1-1h1l1-1h1z"/><path d="M920 323v1h0v1h0l-1 1h0-1 0l-1 1h0-2 0l-1-1-1-1 2-1h0l1-1h0l2-1h0l2-1h0v1h0zM931 318l-1 1-1 1h0l-1 1v1h0v3h0l1 1 1 1h5l1-1h0l1-1 1-1h0v-3h0l-1-1h0l-1-1h0-1 0l-1-1h0-1 0l-1-1h0v1h0z"/><path d="M936 319v1h0l1 2h0v1h0v1h0l-1 2h0l-2 1h0-2 0l-2-1-1-1h1l1-1h1l1-1h0l1-1h0l1-1h1v-1h0l-1 1h0-1 0l-1 1h0l-1 1h0-1 0v1h0-1 0-1 0v1-1h0v-1h0v-1h0v-1h0v-1h0l1-1h1l2-1h1zM950 318l-2 1-1 1h0l-1 1v2h0v2l1 1h0l2 1h4l1-1h0l1-1h0l1-2h0l-1-3h0v-1h-1 0l-1-1h-1 0z"/><path d="M953 319h1v1h0l-1 1h0l-1 1h0-1 0l-1 1h0l-1 1-2 1v-1h0v-1h0v-1h0v-2h0l2-1h0l2-1h0zM955 323v1h0l-1 1h0v1h0-1 0l-2 1h0-1 0l-2-1h0v-1h0l2-1h0l2-2h0l2-1h1v1h0zM965 318l-1 1h0l-1 1h0l-1 1h0v2h0l1 2h0l1 1h0l1 1h5l1-1h0l1-1h0v-1h0v-2h0v-1h0l-1-2h0l-2-1h0-2 0z"/><path d="m970 319 1 1h-1 0l-1 1h0-1 0v1h0-1 0v1h0-1 0l-1 1h0-1 0v1h0-1v-1h0v-1h0v-1h0v-1h0l1-1h0v-1h2l1-1h1z"/><path d="M971 321v3h0v1l-1 1h0-2l-1 1h0-1l-1-1-1-1h1l1-1h0l2-2h0l2-1h1M457 318l-1 1-1 1h0l-1 2v2h0v1l1 2h0l2 1h4l1-1h0l1-2h0l1-2h0l-1-1h0v-2h0l-1-1h0-1 0l-1-1h0-1 0-1 0z"/><path d="m461 319 1 1-1 1h0l-2 2h0l-2 1h0l-2 1h0v-1h0l-1-1h0l1-1h0v-1h0v-1h0l2-1h4"/><path d="M463 323v2h0l-1 1h0l-2 1h0-1 0-2 0-1 0v-1h0v-1h1v-1h1l1-1h1v-1h1l1-1h1v1h0zM474 318l-2 1-1 1h0v1l-1 1h0v2l1 1h0v1l1 1h0l2 1h3l1-1h0l1-1h0l1-2h0v-2h0l-1-1h0l-1-2h0l-1-1h0-2 0z"/><path d="m477 319 1 1h0v1h0-1 0v1h0-1 0l-3 2h0l-1 1h0-1 0v-2h0v-1h0l1-1h0v-1h0l1-1h4"/><path d="M479 323v1h0l-1 2h0l-1 1h0-1 0-1 0-1 0-1 0l-1-1h0v-1h1l2-1h0l1-1h0l1-1h0l1-1h1v1h0zM492 318l-2 1-1 1h0l-1 2v2h0l1 1 1 2h0l1 1h2l2-1h0l2-1h0l1-1h0v-2h0l-1-2h0l-1-2h0l-2-1h0z"/><path d="m495 319 1 1-1 1h0l-1 1h0l-1 1h0l-1 1h0l-2 1h0-1 0v-2h0v-1h0l1-2h0l1-1h4"/><path d="M497 323v1h0l-1 1h0v1h0l-2 1h0-1 0-1 0-1 0l-1-1h0l1-1h0l2-2h0l3-2h1v1h0zM507 319l-1 1h0l-1 1h0v2h0v2h0l1 1h0l1 1h0l1 1h3l2-1h0l1-2v-1h0v-4h0l-2-1-1-1h0-1 0-1 0z"/><path d="M511 319h1v1h1-1 0v1h0l-1 1h0-1 0v1h0-1 0l-1 1h0l-1 1h0-1 0-1v-1h0v-1h0v-1h0l1-1h0v-1h0l1-1h4"/><path d="m514 323-1 2h0l-1 1h0l-2 1h0-2 0l-1-1h0-1 0l1-1h0l2-1h0l3-2h0l1-1h0l1 1h0zM524 318l-1 1-1 1h0l-1 1v1h0v3h0l1 1 1 1h0l2 1h2l2-1h0l1-1h0l1-2h0l-1-2h0v-2h0l-1-1h0l-1-1h0-2 0-1 0z"/><path d="M528 319v1h1v1h0l-2 1h0l-2 1h0l-2 1-1 1v-1h0v-1h0v-1h0v-1h0l1-1h0l1-1h4M530 323v1h0l-1 1h0l-1 1h0l-1 1h0-1 0-1 0-1 0v-1h0-1 0v-1h0l1-1h1l3-2h0l1-1h1v1h0zM541 318l-1 1-1 1h0l-1 1-1 1h0v2l1 1h0l1 1 1 1h0l1 1h3l1-1h1l1-2h0v-1h0v-2h0v-1h0l-1-1h0l-2-2h0-1 0z"/><path d="M544 319h1v1h0v1h0l-3 2h0l-3 2h0-1 0v-1h0v-1h0v-1h0v-1h0l1-1h0l1-1h4"/><path d="m546 322 1 1h0l-1 1h0l-1 2h0l-1 1h0-1 0-1 0-1 0-1l-1-1 1-1h0l1-1h0l2-2h0l2-1h1zM559 318l-1 1-1 1h0l-1 1-1 1h0v1l1 2h0v1l1 1h0l2 1h2l2-1h0l1-1h0l1-3h0v-2h0l-1-2h0l-2-1h0-1 0-1 0z"/><path d="m562 319 1 1h0v1h0l-2 1h0l-1 1h0-1 0v1h0l-2 1h0l-1-1h0v-2h0v-1h0l1-1h0l1-1h4"/><path d="M564 323v1h0v1h0l-1 1h0l-2 1h0-1 0-1 0l-1-1h0-1 0v-1h1l1-1h0l1-1h0l3-1h0l1-1h0v1h0zM574 319h-1 0l-1 1h0v2h0v1h0v2l1 1h0l1 1 1 1h2l2-1h0l1-1 1-1h0l1-1h0v-1h0l-1-1h0v-1h0l-1-2h0l-2-1h0-2 0z"/><path d="M578 319h1v1h1v1h-1 0l-3 2h0l-3 2h0-1v-1h0v-1h0l1-2h0l1-1h0l1-1h3M581 322v1h0v1h0l-1 2h0l-1 1h0-1 0-2 0-1 0-1 0v-1h0-1 0l1-1h1l2-2h0l3-2h1zM661 331h-2 0l-1 1h0-2 0-1 0-2 0-1 0v1h5l2-1h0zh1l1-1h2l-1-1h0v1h0-1 0zM48 332v2h0-1 0v1h2-1 0v-1h0v-1h0zv-1h0v-1h0v1h0zM82 332l-1 1h0v1h0v1h0v1h1v-1h0l1-1h0-1 0v-1h0zv-2zM694 331l-2 1h0l-1 1h0-2 0-2 0-1 0-1 0v1h1l2-1h4l2-1h0l3-1h0l1-1h0-1 0l-1 1h0zM765 330v1h0-1 0-1 0-1 0v1h0-1 0-1 0l-2 1h0-1 0-1 0-1 0-1 0-1 6l2-1h2l2-1h0l1-1h1-1 0zM262 330l-1 1h0v3h0v2h0v1h6l1-1h0-1 0v-1h0v-2h0v-1h0v-1h0l-1 1h0v1h0v1h0v1h0v1h0-1 0-2v-3h0v-1h0v-1h0v-1h0zM279 330l-1 1h0v1h0v1h0v4h5v-1h0-1 0-2v-3h0v-1h0v-1h0v-1h0zM296 330l-1 1h0v1h0v1h0v4h6v-1h0v-1h0v-1h0v-1l-1-2v2h0v1h0v1h0v1h0-1 0-2v-3h0v-1h0v-1h0v-1h0zM313 330l-1 1h0v1h0v1h0v4h5l-1-1h0-2v-3h0v-1h0v-1h0v-1h0zM329 331v1h0v1h0v4h5l1-1h0v-1h0v-2h0v-1h0l-1-1h0v1h0v1h0v2h0v1h0-1 0-2v-3h0v-1h0l-1-1h0v-1h0-1 0zM346 331v1h0v1h0v4h4v-1h0-3v-3h0v-1h0v-1h0v-1h0-1 0zM363 330v1h0v1h0v1h0v4h6v-1h0-1 0v-1h0v-1h0v-3 5h-4v-3h0v-1h0v-1h0v-1h0zM380 330v1h0v1h0v1h0v4h4v-1h0-3v-3h0v-1h0v-1h0v-1h0zM730 331l-2 1h0l-2 1h0-1 0-2 0-1 0-1 0-1 7l1-1h2l1-1h1l1-1h0-1 0zM858 332l-2 1h0-2 0-1 0l-2 1h-3 7l2-1h1l2-1h1v-1h1-1 0-1 0zM76 332h-1 0v1h0v1h0v1h0v1h0l1 1h4v-1h0-1 0-1 0-1 0l-1-1h0v-1h0l1-1h2l1-1h0l-1-1h0-1 0-1 0zM109 331v1h0l2 2h0l1 3h1l1-3h0l1-2h0v-1h0-1 0-1 0-1 0-1 0-1 0z"/><path d="M113 334v1h0-1 0v1h0l-1-2h0l-1-2h4zM283 331v1h0v1h0v-1h0l1 1h0v4-2h0v-1h0v-1h1v-1h0l-1-1h0zM317 332v1h0zh1v1h0v4-2h0v-1h0v-1h1v-1h0-1 0v-1h0-1 0zM351 332l-1 1h1zv1h0v1h0v2h0v1h1v-1h0v-1h0v-1h0v-1h1v-1h0-1 0v-1h0-1 0zM385 332h-1 0v1h0zv1h0v4-2h0l1-1h0v-1h1l-1-1h0v-1h0-1 0zM891 333h-2 0l-2 1h0-1 0-2 0-1 0-1 0v1h5l2-1h0zl2-1h1l1-1h0l-1 1h0-1 0zM926 332l-2 1h0l-2 1h0-1 0-2 0-1 0-1 0v1h4l1-1h2l2-1h2l1-1h0l1-1h0-1 0l-2 1h0zM42 334v2h0v1h1v-1h0v-1h0v-1h1-1v1h0l1 1h0l1 1h1v-1h0v-2h0v-1h0v-1h0v-1h0-1 0v1h0v3l-1-2h0v-1h0-1 0v-1h0-1 0v1h0v1h0zM58 334v3h5-1 0v-1h0-3l1-2h0v-2h0-1 0v-1h0l-1 1h0v1h0zM93 334l-1 2h0v1h5v-1h0l-1-2h0l-1-2h0v-1h-1 0v1h0l-1 1h0z"/><path d="m96 334 1 2h-2 0-1 0-1 0l1-2h0v-1h0l1-1h0v1h0zM959 333h-2 0l-1 1h0-2 0-1 0-1 0-1 0-1 0v1h5l2-1h0l3-1h0l3-1h0v-1h0l-2 1h0zM467 333h-1 0l-2 1h0-1 0-5 8zh2l1-1h0-1 0-1 0zM502 332h-1 0l-1 1h0-1 0-1 0l-1 1h0-1 0-1 0-4 7l2-1h0zh1zM534 333h-1 0l-1 1h0-2 0-4 6zh1l1-1h1-1 0zM569 333h-2 0l-1 1h0-2 0-4 7zh1l1-1h1-1 0-1 0zM665 332v1h5v-1h0-1 0-1 0-1 0-1 0zM698 333h5-1 0-1 0-1 0-1 0zM733 333h5-1 0-1 0-1 0-1 0zM766 333h6-1 0-1 0-1 0-1 0-1 0zM863 334h3-1 0-1 0zM80 334l1 1h0v-1h0zM471 334h3-1 0-1 0zM503 334v1h2l2-1h1-1 0-1 0-1 0-1 0zM537 334l1 1h2l2-1h0-2 0-1 0-1 0zM573 334h3-1 0-1 0zM895 334v1h5v-1h0-1 0-1 0-1 0-1 0zM930 334v1h5v-1h0-1 0-1 0-2 0zM963 334v1h5v-1h0-1 0-1 0-1 0-1 0zM659 341l-1 1h0v2h0v1h0l1 1h1l1-1h0l1-1h0l-1-1h0l1-1h0v-1h0-1 0-1 0z"/><path d="M660 342v1h0zh-1 1M660 345h-1 0v-1h1zM693 341v1h0v1h0v1h1l1 1h-1 0-1 0v1h1l1-1h0l1-1h0l1-1h0l-1-1h0v-1h0-1 0-1 0z"/><path d="M695 343h-1 0v-1h1zM728 341l-1 2h0v2h0v1h0l1-1h1l1 1h1v-1h0l-1-2h0v-2h0-1 0zM761 343v2h0l1 1h2v-1h1v-1h0v-1h0-1 1v-1h0l-1-1h0-3z"/><path d="M763 342v1h0-1 0v-1h1M763 344v1h0-1 0v-1h1M858 341h-1 0v1h0-1 0v2h0v1h0l1 1h3v-1h0-1 0-1 0-1 0v-1h0v-1h0l1-1h2v-1h0-1 0zM48 341l-1 1h0v1h2l-1 1h0v1h0-1 0v1h9v-1h1v1h1l1-1h0v-1h0v-1h1v-1h0v-1h0-1 0l-1 1h0v2l-1-1h0v-1h0l-1-1h0-1 0l-1 1h0-1 0l-1-1h0-1 0v1h0-1 0l-1-1h0z"/><path d="M52 343h-1 0v1h0l1 1h0-1 0-1 0-1 0v-1h1v-1h2M55 344v1h0-1 0v-1h0v-1h1zM269 342l-1 1h0v1h0v1h0v2h0l1 1h3l1-1h0v-1h0v-2h0v-2h0-1v-1h0-2 0z"/><path d="M272 343v1h0l-1-1h0v1h0v2h0v1h0-1 0v-1h0l-1-1h0v-1h0l1-1h2"/><path d="m272 346-1 1h0zv-1h0v-1h0v1h0zM304 341l-1 1h0l-1 1h1v1h0v1h0v1h0v1h0v1h4v-1h0-1 0-1 0v-1h0v-2h0v-2h0v-1h0zM336 342v1h3v1-1h0v1h0-1 0v1h0l-1 1h0l-1 1h0l-1 1h5v-1h0-1 0-1 0l1-1h0l1-1h0v-1h0v-1h0v-1h0l-1-1h0-2 0zM370 342v1h3v1h0l-1-1h0v1h0-1 0-1 0v1h2v1h0v1h0-1 0-1 0-1 0l1 1h3l1-1h0v-1h0v-1h0v-1h0v-1h0v-1h0l-1-1h0-1 0-1 0zM373 346v1h0zv-1h0zM890 341h-1 0v1h0v1h0v1h0v1h0v1h4l1-1h0v-1h0v-1h0v-1h0l-1-1h0-1 0-1 0z"/><path d="M892 343h1v1h0-1 0v1h0-1 0l-1-1h0v-1h0l1-1h1zM924 343v3h3v-1h0-1 0-1 0v-1h2v-1h0-1 0-1 0v-1h2v-1h0-1 0-2zM956 344v1h0l1 1h1v-1h0v-1h1l1-1h0-1 0-1 0v-1h2v-1h0-1 0-3zM80 343v1h0v1h1v1h4v-1h0l1-1h1v-1h0v-1h0v-1h0-1 0-3v2h0v2h0-1 0v-2h0v-1h0-1 0v-1h0l-1 1h0z"/><path d="M86 343v1h0-1 0v-1h0v-1h1zM88 344l-1 1h0v1h0v1h1v-1h0v-1h0l1-1h0v1h0v1h4v-1h0v1h3l1-1h1v1h1v-1l1 1h3v-3l1 2h0l1 1h1v-2h0v-1h0v-1h0l-1-1h0v1h0v2l-1-1h0v-1h0-1 0v-1h0-1 0-1 0v1h0-1 0v-1h0-1 0v1h0v1h0-1 0v-1h0l-1-1h0-1 0-1 0l-1 1h0-1 0l-1-1h0-4z"/><path d="M96 344v1h0-1 0l-1-1h0v-1h0l1-1h0v1h0zM92 344v1h0-1 0-1 0v-1h0v-1h2zM467 342h-1 0l-1 2h0l-1 2h2l1 1h0v1h0l1-1h0v-1h1v-1h0-1 0v-1h0v-1h0v-1h0v-1h0-1 0z"/><path d="M466 345v-1h1v1h0zM498 343v1h0v1h2v1h0v1h0-1 0l-1-1h0v1h0v1h2l1-1h0l1-1h0v-2h0-2 0v-1h-1 2l1-1h0l-1-1h0-1 0-1 0v1h0-1 0z"/><path d="M501 345h-1 0v-1h0zM534 342h-1 0l-1 2h0v2h0v1h4v-1h0v-1h0v-1h0-1l-2-1h2l1-1h0l-1-1h0-1 0z"/><path d="M535 346v-1h0zh-1 0-1 0l1-1h1zM565 342v1h2v1h0v1h0-1 0v1h0v1h0l-1 1h2v-1h0l1-1h0v-1h0l1-1h0v-1h0v-1h0v-1h0-2 0-1 0zM278 347l-2 1h0l-4 1h0l-4 1h0-4 0l-1 1h0-1 0-1 0v1h20v-3h0v-2h0v-1h0-1 0l-1 1h0z"/><path d="M281 349v2h-9 0-3 0-2 0-2 0-1 1l7-2h0l7-2h1v1h1zM304 349l-4 1h0l-3 1h0-2 0l-1 1h21v-3h0v-1h0v-1h0l-1-1h0v1h0-3 0l-3 1h0z"/><path d="M314 349v2h-8 0-3 0-3 0-2 1l7-2h0l7-2h1v1h0zM347 347l-5 1h0l-4 1h0l-3 1h0l-6 1h0l1 1h19v-3h0v-2h0v-1h0-1 0-1 0z"/><path d="M348 349v2h-8 0-3 0-3 0-2 1l6-2h0l7-2h2v1h0zM380 347h-1 0l-1 1h0-1 0-1 0-2 0l-1 1h0-1 0-1 0l-1 1h0-2 0-2 0l-2 1h0-1 0l-2 1h22v-3h0l-1-2h0v-1h0z"/><path d="M382 349v1h0v1h0-1 0-2 0-3 0-11l8-2h0l3-1h3l2-1h1v1h0zM499 351v1h0v1h0v2h0v1h1v-1h1v1h0l1-1h0v-2l1 1h0v1h0v1h0l1-1h0v-1l1 1h0l1 1h0l1-1h1v-1 1h1v1h1l1-1h2v1h4v-3 1h0l1 1h1v-1h0v-1h0v1h0v1h1v1h0v-1h1v-2h0l-1-1h0v-1h0v-1h0-1v1h0v1l-1 1v-1h0l-1-1h0v-1h0-1 0l-1 1h0-1 0-1 0-1 0-1 0-1 0-1 0-1 0l-1-1h0-1 0l-1 1h0-1 0v1h0v-1h0-1v-1h0l-1 1h0v1h0-1 0l-1-1h0v-1h0z"/><path d="M507 353v1h0-1 0-1 0v-1h0v-1h2zM511 353v1h0-1 0l-1-1h0l1-1h1zM515 352v1h0-1 0v-1h1M516 354h-1 0-1 0v-1h2zM487 384v28h45v-56h-45z"/><path d="M532 384v28h-45v-55h45zM778 360l-1 1h0v1h0v1h0l1 1h5v-1h0v1h4v1h0v-1h1v-1h0l1-1h1v3h2l1-1h1v-1h1v1h1v1h0v-1h1l-1-1h0v-2h0l-1-1h0-1 0l-1 2h0v1h0-1 0-1 0v-3h-3 0-2 0-1 0-1 0-1 0v1h0l1 1h0l1 1h0-1 0-1 0v-1h0v-2h-3 0-1 0z"/><path d="M787 361v1h-1 0l-1-1h0-1 2v-1h1zM780 361v1h0v1h0-1 0v-1h0v-1h1M789 361h-1 0v1h0v-1h1M796 360v1h0l1 1h0v1h0v1h1v1-1h0v-1h0v-1h1v-1h0l1-1h0v-1h0l-1 1h0-1 0v1h0l-1-1h0zM254 378v15h128v-31H254z"/><path d="M381 378v15H254v-30h127zM116 384v22h44v-43h-44z"/><path d="M159 384v21h-42v-42h42zM927 384v21h56v-1h0v-3h0v-5h0v-33h-56z"/><path d="M983 384v20h-55v-41h55zM43 363v7h0v6h0v29h57v-42H71h0-10 0-9 0z"/><path d="M99 384v21H44v-41h55zM709 386v9h0v6h0v4h152v-39H709z"/><path d="M860 386v18H710v-18h0v-7h0v-6h0v-6h150zM109 380l-1 1h0l-1 1h0v2h0v1h0l1 1h1l1 1h1v-1h2v-2h0v-2h0l-1-1-1-1h0-2"/><path d="m112 382 1 1h0v1h0v1h0l-1 1h-1 0-2 0l-1-1h0l-1-1v-1h0v-1h1l1-1h2zM685 385h1v1h0v-1h0zM254 408v12h128v-1h0v-1h0v-3h0v-4h0v-14H254z"/><path d="M381 408v11H254v-22h127zM109 401l-1 1h0v1h0v2h0l1 1h0l1 1h1l2-1h0l1-1h0v-2h0v-1h0l-1-1h0-1 0-2 0z"/><path d="m113 402 1 1h0v1h0l-1 1h0l-1 1h0l-2 1h0l-1-1h0l-1-1v-1h0v-1l1-1h0l1-1h2zM162 419l-1 1h0v1h0l1 1h0v1h2l1-1h1v1h2v-1h1v-1h0v-1h0v-1h0l1 2h0v1h0v1h1v-1h0v-1h0v-1h0v-1h1v-1h0-1 0-3v2h0l-1 1h0v1h0l-1-2h0v-1h0v-1h0-1 0-1 0-1 0z"/><path d="M164 420v1h0v1h-1 0l-1-1h0v-1h1v-1h0zM738 419h-1v3h0v1h0l1 1h4v-1h2v1h5v-2h0v-2h0v-1h0l-1 1h0v1h0v1h0v1h0-1 0v-1h0l-1-1h0v-2h0v1h0l-1 1h0v2h0v-1h0l-1-2h0l-1-1h0l-1 1h0v1h0l-1-1h0l-1-1h0-1 0z"/><path d="M740 421v1h0v1h0-1 0-1 0v-1h0v-1h1v-1h0v1h1M669 422v3h3v-1h0-1 0-1 0l1-1h1v-1h0-1 0-1 3v2h0v1h1v-1h0v-1h0v-1h1v1h0v1h0v1h2v-1h1v1h2v-1h0v1h4v-1h1v1h3v-2l1 1h0l1 1h0v1-1h1v-2h0v-1h0v-1h0-1v-1h0v1h0v2l-1-1-1-1-5-1h-5v1h0v1h0-1 0v-2h-8zM679 422v-1h0z"/><path d="M683 422h-1 0-1 1v-1h1zM685 422h-1 1M683 424h-1 0-1 1l1-1h0zM679 424v1h0zv-1h0zM691 423v2h4-1 0l-1-1h0-1 1l1-1h1l-1-1h0-1 0-1 4v2h0v1h1v-1h0v-1h0v-1h0l1-1h0l-1-1h0-6zM88 423h-1 0v1h0v1h0v1h1l1 1h2l1-1h0v-1h0v1h1v1h2v-2l1 1h0l1 1h1v-1h0v-1h0v-2h0v-1h0-1 0v1h0v2l-1-2h0l-1-1h0l-1 1h0v1h0v1h0l-1-2h0v-1h0-1 0v1h0l-1 1h0v1h0l-1 1h0-1 0l-1-1h0v-1h0l1-1h2v-1h0-1 0-1 0-1 0zM566 422l-1 1h1v1h1v1h0v1h0v1h1v-1h0v-1h0v-1h0v-1h1v4h4v-2l1 1h0v1h1v-1l1-1v1h0v1h2v-1h0l1-1h0l1-1h0v-1h0l-1-1h0-1 0v1h0l-1 1v2-2h0v-2h0-1 0l-1 1-1 2v-3h-4 0-2 0-1 0z"/><path d="M572 423v1h0-1 0-1 0v-1h2M579 424h-1 0v-1h1zM572 425v1h0-1 0-1 0v-1h2M502 423v1h0v1h0v2h0v1h1v-1h0v-2l1 1h0v1h1v1h2v-1h0v-1h2l1 1h0l1 1h1v-1h1v-1h0v-1h0v-1h1v2h0v1h1v1h0v-1h1v-1h0v-1h0v-1h0l1-1h0v1h0v1h0l1 1h0-1 0v1h0v1h1l1-1h1v-1h0v-1h0-1 0l-1-1h1v-1h0-3 0-3 0-1 0v1h0v1h0v1h0v1h0-1 0v-1h0l-1-1h0v-1h0v-1h0-1 0-1 0-1 0-1 0v1h0v3-2h0l-1-2h0l-1 1v1-1h0l-1-1h0l-1-1h0z"/><path d="M508 424v1h0-1 0v-1h1M500 425v2h0l1 1h0v-1h0v-2h0v-1h0v-1h0-1 0v1h0zM175 424v1h0-1 0-1 0v-1h0-1 0-2v3h0v1h0v1h3l1-1h0l1 1h3v-1h0-1 0-1 0l-1-1h0v-1h0l1-1h2l-1-1h0-1 0z"/><path d="M172 426h1v1h0v1h0-1 0-1 0v-1h0v-1h0l1-1h0zM308 424v1h0v1h0v1h0v1h0v1h1v-1h0v-2l1 2h0l1 1h2v-1h1v-1h1v1h1v1h3v-1h0l1-2h0v-1h0v1h0v1h0v1h0v1h2v-1h0v-1h0v-1h0v-1h0v1h0l1 1h0l1 1h0-1 0-1 0v1h4v-1h0v-1h0l-1-1h0-1 0l1-1h1l-1-1h0-1 0-6v2h0v1h0v1h0-1 0v-1h0v-1h0l-1-1h0v-1h0-1 0-1 0-2v5-2h0v-2h0l-1-1h0v3l-1-2h0l-1-1h0z"/><path d="M314 426h-1 1v-1h0zM858 425l-1 1h0v2h0l1 1h0v1h2l1-1h0v-1h0v-1h0v-2h0l-1-1h0-1 0z"/><path d="M860 427v1h0-1 0v1h0v-1h0-1 0v-1h0v-1h2zM926 425h-1 0v1h2l-1 1h0v1h0l-1 1h0-1 0v-1h0v-1h0v-1h0v-1h0l-1-1h0-1 0v1h0v1h0v1h0v1h0v1h0v1h3l3-1h0-1l1-2h0v-1h0v-1h0l-1-1h0-1 0zM306 427v1h1v1h0l1-1h0v-1h0v-2h0l-1-1h0v1h0-1 0zM855 425h-1 0v1h1v1h0v1h0v1h0v1h1l1-1h0v-1h0l-1-1h0v-2h0v-1h0-1 0zM887 425v1h1v1h0v1h0v1h-1 0l1 1h1v-1h1l-1-1h0v-2h0v-1h0v-1h0-1 0-1 0zM890 425v1h1v1h0v2h0v1h1l1-1h0v-1h0-1 0v-2h0v-1h0v-1h0-1 0-1 0zM948 425v1h0v1h0v1h0v1h0v1h5v-1h1v-1h0v-1h0v-1h0v-1h0-1 0v-1h0-1 0l-1 1h0v1h2-1 0v1h0-1 0v1h1v1h0-2v-2h0l-1-2h0v-1h0zM156 426v1h0v1h0-1 0l-1-1h0v-1l-1 1h0v1h0-1 0v1h1v1h1l1-1h1v1h5v-1h0-1 1v-1h1v1h0v1h1l1-2h0l1-2h0l-1-1h0v1h0-1 0v1h0v1h0l-1-1h0v-1h0-1 0-1 0-1 0-1 0v1h2l-1 2h0l-1 1h0v-1h0v-1h0-1 0v-2h0v-1h0zM674 432v4h3v2h-3 0l1 1h8v1h0l-1 1h0-2v6h6v-6h-1 0-1 0l-1-1h0v-1h7l1-1h0-2v-1h0v-1h3v-7h-7v7h3v2h-11v-1h0v-1h3v-7h-6z"/><path d="M691 432v3h-6v-6h6zM680 432v3h-6v-5h6zM686 444v3h-6v-6h6zM78 431l-1 1h0v2h0v2h0l1 1h2l1-1h0v-1h0v-2h0v-1h0v-1h0-1 0-1 0z"/><path d="m80 434-1 2h0v-1h0l-1-1h0v-1h0v-1h1v1h0zM81 434h-1 0v-1h1zM91 431v1h0v1h1v1h0v1h0v1h-1 0l1 1h2l1-1h0-1 0v-1h0l-1-1h0v-1h0v-1h0v-1h0-1 0z"/><path d="M93 433h-1 0v-1h1zM104 431v1h2v1h0v1h0l-1 1h0l-1 1h0v1h4v-1h0-2l1-2h0l1-1h0v-1h0v-1h-1 0-1 0-1 0z"/><path d="M107 432v1h0zh-1 0v-1h0v1h1M717 431l-1 2h0v1h0l-1 1h0v1h1v-1h2v1h2v-1h0-1 0v-1h0v-1h0l-1-1h0v-1h0zM733 434v2h2l1-1h0v-2h0v-1h0v-1h0-1 0-2zM734 432v1h0z"/><path d="M735 435h-1 0v-1h0v1h1M735 435v-1h0zM754 431v1h0l-1 2h0v2h1v-1h2v1h1v-1h0v-1h0l-1-1h0v-1h0l-1-1h0zM770 431v1h0v1h0v3h3l1-1h0v-1h0v-1h0v-1h0v-1h0-1 0-1 0-1 0z"/><path d="M772 432v1h0-1 0v-1h1M772 435h-1 0v-1h1zM387 432h-1 0v1h0l-1 2h0l1 1h0l2 1h1v-1h1-1 0-2 0v-1h0v-1h0v-1h3v-1h0-1 0l-1-1h0zM246 432l-1 2h0v1h0l1 1v1h3v-1h0-1 0-1 0l-1-1h0v-1h0l1-1h2v-1h0-1 0-1 0zM258 432v2h0l-1 1 1 1h0l1 1h2l1-1h0-1 0-1 0l-1-1h0v-1h0v-1h3v-1h0-1 0-1 0-1 0zM271 432v1h0l-1 2h0l1 1h0v1h2l1-1h0v-2h0v-1h0l-1-1h0-1 0z"/><path d="m273 434-1 1h0v1h0v-1h0v-1h0v-1h0v1h1M284 432l-1 1h1v1h0v1h0v1h0v1h2l1-1h0-1 0v-1h0v-1h0v-1h0l-1-1h0zM296 432v1h2v1h0-1 0v1h0l-1 1h0v1h3v-1h0-1 0v-1h0l1-1h0v-1h0v-1h0-1 0-1 0zM311 432h-1 0v1h1v1h0-1 1v1h1v1h0-1 0-1 0v1h3l1-1h0v-1h0v-1h0l-1-1h0v-1h0-1 0zM324 434l-2 1h1l1 1h1v1h0l1-1h0v-1h0v-1h0v-1h0v-1h0-1 0z"/><path d="M325 434v1h0-1 0v-1h1M336 432v1h0v1h0-1 0l1 1h1v1h0-1 0-1 0l1 1h2l1-1h0v-1h0v-1h0-1 0v-1h0l1-1h0-1 0-1 0zM349 433l-1 1h0v1h0v1h1l1 1h1v-1l1-1h0l-1-1h0v-1h0l1-1h0-1 0-1 0-1 0z"/><path d="M350 433v1h0zh-1 1M350 435v1h0-1 0v-1h1M361 432v1h1v1h0v1h0l-1 1h0v1h1l1-1h0v-1h0l1-1h0v-1h0v-1h0-1 0zM374 432l-1 1v1h0v1l1 1h0l1 1h2v-1h0-1 0-1 0v-1h0-1 0l1-1h0v-1h2v-1h0-1 0-1 0zM440 432l-1 1h0v1h0v1h0v1h0l1 1h1l1-1h1-1 0-1 0l-1-1h0v-1h0v-1h3v-1h0-1 0-1 0zM452 432h-1 0v1h0v1h0v1h0v1h1l1 1h0l1-1h0l1-1h0l-1-1h0l1-1h0-1 0v-1h0-1 0z"/><path d="M453 436h-1 0v-1h1zM460 433v1h0v1h1v1h0-1 0v1h2l1-1h0v-1h0l1-1h0l-1-1h0l-1-1h0-1 0z"/><path d="M462 434h-1 0v-1h1zM478 432l-1 3h0v1h0v1h1v-1h2v1h1v-1h0l-1-2h0v-1h0l-1-1h0zM491 432h-1 0v1h0l1 1h0v2h0v1h2l1-1h0v-2h0v-1h0v-1h0-1 0-1 0z"/><path d="M492 433v1h0zh-1 1M492 435v1h0zh-1 1M502 433l-1 1h0v1h0l1 1h1l1 1h0l1-1h0-1 0-1 0v-1h0-1 0v-1h0l1-1h2v-1h0-1 0-1 0-1 0zM515 432h-1 0v1h0v1h0v3h3l1-1h0l1-1h0v-1h0l-1-1h0l-1-1h0-1 0z"/><path d="M517 434v1h0v1h0-1 0-1 0v-1h0v-2h1zM528 432h-1 0v1h0v1h0v3h3l1-1h0-1 0-1 0-1v-1h2v-1h1-1 0-1 0v-1h0-1 2v-1h1-1 0-1 0zM540 434v1h0v1h0v1h0l1-1h0v-1h1v-1h0l-1-1h1l1-1h0-1 0-2zM554 432l-1 1h0v1h0v1h0l1 1h0v1h2l1-1h0-1 0-1 0v-1h0l-1-1h1v-1h2v-1h0-1 0-1 0zM565 432v1h1v1h0v1h0v1h0l1 1h1v-1h0v-1h0v-1h0v-1h0v1h1v1h0v1h0l1 1h0l1-1h1v-1h0v-1h0v-1h0v-1h0-1 0-1 0-1 0-1 0-2 0zM570 435v1h0zv-1h0v-1h0v1h0zM577 432v1h1l1 1h0v1h0v1h0v1h0l1-1h0v-1h0v-2h0l1 1h1v1h0l-1 1h0l1 1h2v-1h0-1 0v-1h0v-3h-3 0-1 0-1 0zM858 434l-2 1h0-1 0l-2 1h0-5 7l1-1h1l2-1h2v-1h1-1 0-1 0l-1 1h0zM891 435l-2 1h0-1 0-2 0-1 0-2 0-1 0v1h3l3-1h3l2-1h0l1-1h1-1 0-1 0-1 0zM926 435l-2 1h0-1 0-2 0-1 0-1 0-1 0l-1 1h5l2-1h0zh2l1-1h1-1 0-1 0zM959 435l-2 1h0-1 0-1 0-2 0-1 0-1 0l-1 1h5l2-1h2l2-1h0l2-1h0-1 0-2 0zM175 434v1h0-1 0v1h0-1 0v1h1l1 1h1v-1h1v-1h1-1 0-1 0v-1h0v-1h0zM157 436h1v1h1v-1h0-1 0zM863 436h3-1 0-1 0zM895 437h5l-1-1h0-1 0-1 0-1 0-1 0zM930 437h5v-1h0-1 0-1 0-1 0-1 0zM963 437h5v-1h0-1 0-1 0-1 0-1 0v1h0zM91 440h-2l-1 1h0v2l-1 1h0v1l1 2h0l1 1 1 1h4l2-1h0l1-2h0v-2h0v-2h0l-1-2h0l-2-1h0-1 0-1 0-1 0z"/><path d="M95 441h1l-1 1h0l-1 1h0-1 0v1h0l-3 2h0-1 0-1 0v-1h0v-2h0l1-2h0l2-1h3z"/><path d="M97 445v1h0l-1 1h0l-1 1h0l-2 1h0-1 0l-1-1h0-1 0l-1-1h0l2-1h0l1-2h0l3-1h0l1-1h0l1 1h0v1h0zM104 439l-1 1h0l-1 2h0l-1 2h0v2h0l1 1 1 1h0l1 1h4l1-1 1-1h0l1-2h0v-2h0l-1-2h0l-2-1h0l-1-1h0-1 0z"/><path d="M109 441h1l-1 1h0l-1 1h0-1 0v1h0-1 0l-1 1h0l-1 1h0-1l-1 1v-1h0v-1h0v-1h0v-1h0v-1h0l1-1h0l2-1h2z"/><path d="M110 444v3h0l-1 1h-1 0l-1 1h-1 0-1l-1-1h0-1 0v-1h0v-1h1l1-1h0l4-2h0l1-1h0v1h0zM78 440l-1 1-1 2h0l-1 1v2h0l1 2 2 1h0l1 1h3l1-1h0l1-1h0l1-1v-2h0v-3h0l-2-1-1-1h0-4"/><path d="m83 441 1 1-1 1h0-1 0l-1 1h0l-1 1h0-1 0l-2 2h0l-1-1h0v-1h0v-2h0l1-1h0v-1h2l1-1h1z"/><path d="m85 445-1 1h0l-1 2h0l-1 1h0-2 0-1 0-1 0l-1-1h0v-1h1l1-1h0l2-1h0l2-2h2zM157 440h-1l-1 1h0l-1 2v1h0v3h0l1 1 1 1h0l1 1h3l1-1h0l1-1 1-1h0v-1l1-1h0l-1-2h0v-1h0l-1-1h0l-1-1h0-1 0l-1-1h0l-1 1h0z"/><path d="m161 441 1 1-1 1h0-1 0v1h0l-2 1h0-1 0l-1 1h0l-1 1h0l-1-1h0v-2h0v-1l1-1h0l1-1h1l1-1h2v1h1"/><path d="M163 445v1h0l-1 1h0v1h0-1 0l-1 1h0-1 0-2 0l-1-1h0-1 0v-1h1l1-1h0l1-1h1l1-1h1v-1h2v1h0zM174 440l-1 1h0l-2 1h0v1h0l-1 2h0v1h0l1 1h0l1 1h0l1 1h0l1 1h2l2-1 1-1h0l1-1 1-2h0l-1-1v-2h0l-1-1h0l-2-1h0-1 0z"/><path d="M177 441h1l1 1h0l-1 1h0l-2 1h0l-2 1-2 2-1-1h0v-1h0v-1h0l1-1h0v-1h0l2-1h0l1-1h1z"/><path d="m180 445-1 2h0l-1 1h0l-1 1h0-1 0-2 0-1 0l-1-1h0v-1h1l1-1h0l1-1h1v-1h1l1-1h2v1h0zM715 441h-1v1h0l-1 2v1h0v1l1 1h0l1 1 1 1h0l1 1h2l1-1h1l1-1h0v-1l1-1h0v-3h0l-1-1-1-1h0l-1-1h0-1 0-2 0z"/><path d="m720 441 1 1-1 1h0l-1 1h0l-2 1h0l-2 2h0-1 0v-1h0v-1h0v-1h0v-1h0l1-1h0l1-1h4M722 445v2h0l-1 1h-1 0l-1 1h-1 0-1l-1-1h0-1 0v-1h1l1-1h0l1-1h0l3-2h1zM732 441h-1 0l-1 1h0v1h0v2h0v1h0v1h0l1 1h0l2 1h0l2 1h0l2-1h0l2-2h0v-1h0v-1h0v-2h0v-1h0l-2-1h0l-2-1h0-2 0z"/><path d="M737 441v1h0l-1 1h0l-2 2h0l-3 2h0-1v-1h0v-2h0v-1h1v-1h0l1-1h5M739 444v1l-1 1h0v1l-1 1h0l-1 1h-1 0-2 0l-1-1h0v-1h0l1-1h0l1-1h1l1-1h0l1-1h1zM751 441l-1 1h0l-1 2h0v2h0l1 2h0l2 1h0l2 1h0l2-1h0l2-1h0v-1h1v-1h0v-1h0v-1h0v-1h0-1 0v-1h0l-1-1h0l-2-1h0-2 0z"/><path d="M756 441h1v1h0v1h0l-3 2h0l-3 2h0-1 0v-1h0v-1h0v-1h0v-1h0l1-1h0l1-1h4"/><path d="M758 445v2h0l-1 1h-1 0l-1 1h-1 0-2 0v-1h0-1 0v-1h0l1-1h1l1-1h0l1-1h0l2-1h1zM767 441l-1 1h0v1h0l-1 1h0l1 2h0v2h0l1 1h2l1 1h1l1-1h0l2-1h0l1-1v-1h0v-3h0l-1-1-1-1h0l-1-1h-2 0-1 0-1 0z"/><path d="M773 441v1h0v1h0-1 0l-1 1h0l-1 1h0-1 0v1h0-1 0-1 0-1 0v-1h0v-1h0v-1h0l1-1h0l1-1h5"/><path d="M775 445v1h0-1 0v1h0v1h0-1 0l-1 1h0-2 0-1 0l-1-1h0-1 0v-1h1v-1h1l1-1h0l1-1h0l2-1h2zM847 441l-1 1h0l-1 2h0l1 3h0l1 1h0l1 1h0l1 1h1l2-1h1l1-1h0l1-2h0v-2h0v-1h0l-1-1h0l-1-1h0v-1h0-1 0-1 0-1 0-1 0-1 0z"/><path d="m852 441 1 1h0l-1 1h0-1 0l-1 1h0l-1 1h0l-2 1h0l-1 1h0v-1h0v-1h0v-1h0v-2h0l1-1h5M854 445v2h0l-1 1h-1 0l-1 1h-1 0-2 0v-1h0-1 0v-1h0l2-1h0l2-2h0l1-1h2zM864 440l-1 1-1 1h0v3h0v2l1 1h0l1 1h1l1 1h1l2-1h0l1-1h0l1-1h0v-1h0v-2h0v-1h0l-1-2h0l-2-1h0-2 0z"/><path d="M869 441v1h0l-1 2h0l-2 1h0l-3 2h0v-1h0-1 0v-1h0l1-2h0v-1h0l2-1h4"/><path d="M871 443v2h0l-1 2h0l-2 2h0-2 0l-2-1h0v-1h0l1-1h0l1-1h1l1-1h0l1-1h2M882 440l-1 1h0v1h0-1 0v1h0v2h0v1h0v1h0l1 1h0l1 1h0l2 1h1l1-1h1l1-1h0l1-1v-2h0v-3h0l-1-1-1-1h0-1 0-1 0-2 0z"/><path d="m887 441 1 1-2 1h0l-4 3h0l-1 1h0-1v-1h0v-1h0v-2h0l1-1h0v-1h6M889 445l-1 2h0l-1 1h0l-1 1h-1 0-3 0v-1h0-1 0v-1h0l3-2h0l3-2h1v1h0zM897 441v1h0l-1 1h0v1h0v2h0l1 2h0l1 1h1l2 1h1l1-1h0l1-1h0l1-1 1-1h0v-2l-1-1h0v-1l-2-1h0l-1-1h-1 0-1 0-1 0-1 0z"/><path d="m903 441 1 1h0l-1 1h0l-2 1h0l-3 2h0l-1 1h0v-1h0l-1-1h0v-1h0l1-1h0v-1h1v-1h5M905 445v1h0l-1 1h0l-1 1h0l-1 1h0-1 0-1 0-1 0l-1-1h0v-1h0l1-1h0l2-1h0l2-2h2zM914 441l-1 1h0v1h0l-1 1h0v2h0l1 1h0l1 1h0l1 1h0l1 1h2l2-1h0l2-2h0v-3h0v-1h0l-1-1h0v-1h0l-1-1h0-1 0-1 0-1 0-1 0-1 0z"/><path d="m920 441 1 1-2 1h0l-1 1h0-1 0l-1 1h0v1h0-2 0v1h0l-1-1h0v-1h0v-1h0l1-2h0l2-1h4"/><path d="M921 445v2h0l-1 1h-1 0l-1 1h-1 0-2 0v-1h0-1 0v-1h1v-1h1l1-1h1l1-1h0l1-1h1zM931 440l-1 1-1 1h0v2h0v3h0v1h1l2 1 1 1h0l2-1h1l2-1v-2h0l1-2-1-1h0l-1-2h0l-2-1h0-2 0z"/><path d="m936 441 1 1-1 1h0l-2 1h0l-2 1h0l-1 1h0-1 0v-1h0l-1-1h0l1-1h0v-1h1v-1h5"/><path d="M938 444v2h0l-1 1h0l-2 2h0-2 0-1 0l-1-1h0v-1h0v-1h0l3-1h0l2-2h2zM949 441l-2 1h0v2h0v2h0l1 2h0l1 1h0l1 1h2l1-1h1l1-1h0l1-1v-2h0v-3h0l-1-1-1-1h0-1 0-2 0-1 0z"/><path d="m954 441 1 1-3 2h0l-3 2h0-1 0l-1-1h0v-1h0v-1h1l1-1h0l1-1h4"/><path d="m956 445-1 2h0v1h-1 0l-1 1h-1 0-2 0l-1-1h0-1 0v-1h1l1-1h1v-1h0l1-1h2l1-1h1zM965 441l-1 1h0l-1 1h0v1h0l1 3h0l1 2h0l2 1h2l1-1h0l1-1h0l1-1h0l1-1h0v-2h0l-1-2h0l-2-2h0-2 0-1 0-1 0-1 0z"/><path d="m970 441 1 1h0l-2 2h0l-2 1h0l-2 2h0-1 0v-1h0v-1h0v-2h0l1-1h0l1-1h4"/><path d="M972 445v1h0l-1 1h0v1h0l-1 1h0-2 0-1 0-1 0l-1-1h0v-1h0l2-1h0l2-2h0l2-1h1zM244 442l-1 1h0v1h0-1 0v1h0l1 2h0v1h0l1 1h0l2 1h4l1-1h0l1-1v-2h0v-3h0l-1-1-1-1h0-3 0-1 0-1 0z"/><path d="M250 442v1h0l-1 1h0l-1 1h0l-1 1h0-1 0l-1 1h0-1 0-1 0v-2h0v-1h0l1-1h0v-1h2l1-1h1z"/><path d="m251 444 1 2h0l-1 2h0l-2 1h0l-2 1h0-1 0l-1-1h0l-1-1h1v-1h1l1-1h0l1-1h1l1-1h1M258 441l-1 1h0l-1 2h0v2h0v2h0l2 2h4l2-1h0l1-1v-2h0v-3h0l-2-1-1-1h0-4"/><path d="M263 442v1h0v1h0-1 0v1h0-1 0-1 0v1h0-1 0l-1 1h0-1 0v1-1h0-1 0v-1h0l1-2h0v-2h2l2-1h0l1 1h1"/><path d="m265 447-1 1h0l-1 1h0l-1 1h0-2 0-1 0l-1-1h0l-1-1h1l1-1h0l2-2h0l2-1h2v1h0v1h0zM270 441l-1 1h0l-1 1h0l-1 1h0v2h0l1 1h0l1 2h0l1 1h0l2 1h0l2-1h0l2-1h0l1-2h0v-2h0v-1l-1-1h0v-1l-1-1h0-3 0-2"/><path d="m274 442 1 1h0l-2 2h0l-2 1h0l-2 1h0-1 0v-1h0v-2h0l1-1h0l1-1h0l2-1h1v1h1"/><path d="M276 446v1h0l-1 2h0-1 0l-1 1h0-2 0l-1-1h0-1 0v-1h0l1-1h0l1-1h0l2-1h0l2-1h1zM283 441l-1 1-1 1h0l-1 1v2h0l1 1v1h0l1 1 1 1h1l1 1h0l1-1h1l2-1h0l1-2h0v-2h0l-1-2h0l-1-2h0-2 0-2 0z"/><path d="M287 442h1v1h0l-1 1h0-1 0l-1 1h0l-1 1h0l-2 1h0-1 0v-2h0v-1h0l1-1h0l2-1h0l1-1h1zM289 445v2h0l-1 2h0-1 0l-2 1h0-1 0l-1-1h0-1 0v-1h0l1-1h0l1-1h2l2-2h1zM296 441l-2 2h0l-1 2h0l1 2h0l1 2h0l2 1h4l2-2h0v-1h0v-2h0v-2h0l-1-1h0l-1-1h0-2 0-2 0z"/><path d="m301 442 1 1h0-1 0l-1 1h0l-2 2h0l-3 1h0-1 0v-1h0v-1h0l1-2h0l2-1h0l2-1h0z"/><path d="M303 445v1h0l-1 1h0l-1 2h0l-2 1h0-1 0l-2-1h0-1 0v-1h1l1-1h0l2-2h0l2-1h1v1h1M309 441l-1 1h0l-1 2h0v1h0v2h0v1h1v1h0l1 1h4l2-1h0l1-1h0v-1h0l1-2h0l-1-1h0v-1h0l-1-1h0l-1-1h0-1 0-1 0-1 0-1 0z"/><path d="m314 442 1 1-3 2h0l-2 2h0-2 0l-1-1h0v-1h0l1-1h0v-1h0l1-1h1l2-1h1z"/><path d="M316 445v1h0l-1 1h0v1h0-1 0v1h0l-1 1h0-1 0-1 0l-2-1h0-1v-1h1v-1h1l1-1h1v-1h1l2-1h1zM322 441l-1 1h0l-1 2h0v2h0l1 2h0l1 2h4l2-1h0l1-1h0v-1h1v-1h0l-1-2h0v-1h0l-1-1h0l-1-1h0-1 0-1 0-2 0z"/><path d="m327 442 1 1h-1 0l-2 2h0l-2 2h0l-2 1h0v-1h0l-1-1h0l1-1h0v-2h0l1-1h0l1-1h3zM329 445v1h0l-1 2h0l-2 1h0l-1 1h0-1 0l-1-1h0-1 0v-1h0l3-2h0l3-2h1zM334 441l-2 2h0l-1 2h0l1 2h0l1 2h0l1 1h4l2-1h0l1-1h0v-1h0v-1h0v-1h0v-1h0v-1h0l-2-2h0-2 0-2 0z"/><path d="M339 442v1h0l-3 2h0l-3 2h0-1 0v-1h0v-1h0v-1h0l1-1h0l1-1h0l1-1h3zM340 446v1h0v1h0l-1 1h0-1 0v1h0-1 0-1 0-1 0l-1-1h0-1 0v-1h0l3-2h0l3-2h1v1h0zM347 441l-1 1h0l-1 2h0v2h0v2h0l1 1h0l1 1h5l1-1 1-1h0v-2h0v-3h0l-1-1h0l-2-1h0-2 0z"/><path d="M352 442h1v1h0-1 0l-1 1h0l-2 2h0l-3 1h0l-1-1h0v-1h0v-1h1v-1h0v-1h2l1-1h2z"/><path d="M354 444v2h0l-1 2h0l-2 1h0l-1 1h0-1 0l-2-1h0-1 0v-1h1v-1h1l1-1h0l1-1h1l2-1h1M360 441l-1 1h0l-1 1h0v1h0v2h0v1h0v1h0l1 1h0l2 1h4l2-2h0v-1h0l1-1h0l-1-2h0v-1h0l-1-2h0-2 0-2 0z"/><path d="m365 442 1 1h0-1 0v1h0l-3 2h0l-2 1h0-1 0l-1-1h0v-1h0l1-1h0v-1h0l1-1h1l2-1h1z"/><path d="M367 445v2h0l-1 1h0l-2 1h0l-2 1h0-1 0l-1-1h0-1v-1h1l3-2h0l2-2h2zM372 442l-1 1h0l-1 1h0v1h0v2l1 1h0l1 1 1 1h4l2-1h0v-1l1-2h0v-2h0l-1-2-1-1h0-3 0-1 0-1 0z"/><path d="M377 442h1v1h0l-1 1h0l-1 1h0-1 0v1h0-1 0-1 0l-1 1h0l-1 1h0v-1h0v-1h0v-1h0v-1h0v-1h1l1-1h0l1-1h2z"/><path d="M379 447v1h0l-1 1h0l-2 1h0-1 0-1 0l-1-1h0-1 0v-1h0l2-1h0l2-2h0l2-1h1v1h0v1h0zM386 441l-1 1h0l-1 2h0l-1 2h0l1 2h0l1 1h0l1 1h1l1 1h0l2-1h0l2-1h0l1-2h0v-1h0v-3h0l-1-1-1-1h0-2 0-3"/><path d="M391 442v1l-1 1h0l-1 1h0l-1 1h0-1 0l-1 1h0-1 0v1h1v-1h1v-1h1l1-1h1l1-1h1l1 1h0l-1 2v1h0l-1 1h-1 0l-1 1h-1 0-2l-1-1h0l-1-1h0v-1h0v-2h0v-1h0l1-1h0v-1h1l1-1h1l2 1h1M439 441l-1 1h0l-1 1h0v1h0v2h0v1h0v1h0l1 1h0l2 1h4l2-2h0v-2h0v-2h0l-1-2h0l-1-1h0-1 0-2 0-1 0z"/><path d="M444 442v1h0v1h0l-2 1h0l-1 1h0-1 0l-1 1h0-1 0-1 0v-2h0l1-1h0v-2h2l1-1h2v1h1"/><path d="M446 445v1h0l-1 1h0v1h0l-1 1h0l-1 1h0-1 0-2 0l-1-1h0-1 0v-1h0l2-1h0l1-1h1l1-1h0l1-1h2zM451 442l-1 1h0v1h0v1h0v3h0l1 1 2 1h4l1-1h0l1-1h0l1-2h0v-1h0l-1-1h0v-2h0l-2-1h0-1 0-2 0-1 0-1 0z"/><path d="m457 442 1 1h-1 0l-2 2h0l-2 1h0l-2 2h0v-1h0l-1-1h0v-1h0l1-1h0v-1h1v-1h1l1-1h1l1 1h1"/><path d="m459 447-1 1h0l-1 1h0-1 0l-1 1h0-2 0l-1-1h0l-1-1h1l1-1h0l1-1h0l1-1h1l2-2 1 1h0v1h0v1h0zM466 441l-2 1h0l-1 1h0v2h0v2h0v1h0l1 1h0l2 1h4l2-2h0l1-2h0v-1l-1-1h0v-1l-1-1h0l-1-1h-2 0-2"/><path d="M470 442h1v1h0-1 0v1h0-1 0l-1 1h0l-1 1h0-1 0l-1 1h0l-1 1h1l1-1h0l1-1h1l2-2h2v1h0v2h0l-1 1h0l-1 1h0l-2 1h0-1l-1-1h0-1l-1-1h0v-2h0v-1h0v-2h1l1-1h0l1-1h1l1 1h1M479 441l-1 1h0l-1 1h0l-1 1h0v1h0v1h0v-1h1l1-2h0l2-1h0l1-1h0l2 1h1v1h0-1 0v1h0-1 0l-1 1h0l-1 1h0l-2 1h0l-1 1h0v-1h0-1 0l1 1h0l1 1h0l1 1h4l2-1h0v-2l1-1h0v-2l-1-1h0l-1-1h0l-2-1h0-2 0z"/><path d="M485 445v2h0l-1 2h0-2 0l-1 1h0-1 0l-2-1h0-1 0v-1h1l1-1h1l1-1h0l3-2h1zM491 441l-1 1h0v2h0l-1 1h0l1 2h0v1h0l1 1h0l2 1h0l1 1h0l1-1h2l1-1 1-2h0v-2h0l-1-2v-1h0l-2-1h0-1 0-2 0z"/><path d="M496 442h1v1h0l-3 2h0l-3 3h0-1 0v-1h0v-1h0v-1h0v-1h0v-1h1l1-1h0l2-1h1z"/><path d="M498 446v2h0l-1 1h-1 0l-1 1h-1 0-1l-1-1h0-1 0v-1h0l1-1h1l1-1h0l1-1h1v-1h2zM503 441l-2 2h0v2h0v2h0l2 2h0l1 1h4l1-1 1-1h0v-1l1-1h0l-1-2h0v-1h0l-1-1h0l-1-1h0-1 0-2 0-1 0z"/><path d="m508 442 1 1h0-1 0v1h0-1 0l-1 1h0l-1 1h0l-1 1h0-1 0l-1 1h1l1-1h0l1-1h0l1-1h1l1-1h2v2h0v1h0l-1 1h0l-1 1h0-1l-1 1h0-2 0l-1-1-1-1h0v-1l-1-2h0l1-1h0l1-1h0l1-1h0l2-1h1v1h1M515 441l-2 2h0l-1 1h0v2h0l1 2h0v1l1 1h6l1-1 1-1h0v-3h0v-2l-1-1h0l-2-1h-1 0-3"/><path d="M519 442h1v1h0l-1 1h0-1 0l-1 1h0l-1 1h0l-2 1h0-1 0v-2h0v-1h0l1-1h0l2-1h0l1-1h1zM521 445v2h0l-1 2h0-1 0l-2 1h0-1 0l-1-1h0-1 0v-1h0l1-1h0l1-1h1l3-2h1zM528 441l-2 2h0l-1 2h0l1 2h0l1 2h0l2 1h4l2-2h0v-1h0v-2h0v-2h0l-1-1h0l-1-1h0-2 0-2 0z"/><path d="M532 442h1v1h0l-1 1h0l-3 2h0l-1 1h0-1 0-1 0v-2h0l1-2h0l1-1h0l2-1h1zM535 445l-1 2h0v1h0l-1 1h0l-2 1h0-1 0-1 0l-1-1-1-1 3-2h0l3-2h1zM540 441l-1 2h0l-1 2h0v2h0l1 2h0l2 1h5l1-1h0v-2l1-1h0v-1l-1-2h0l-1-1-1-1h0-1 0-1 0-2 0z"/><path d="M545 442h1v1h0-1 0l-1 1h0l-2 2h0l-2 1h0-1 0v-1h0l-1-1h1v-1h0l1-1h0v-1h1l1-1h2zM547 446v1h0l-1 1h0v1h0-1 0l-1 1h0-1 0-1 0l-1-1h0-1 0v-1h0l3-2h0l3-2h1v1h0zM553 441l-1 1h0l-1 2h0v2h0l1 2h0l2 2h4l2-1h0v-1h0l1-1h0v-1h0v-2h0l-1-1h0l-1-1h0l-1-1h0-1 0-1 0-1 0z"/><path d="m558 442 1 1-1 1h0l-2 1h0l-1 1h0l-2 1h0-1 0v-1h0v-1h0v-1h0l1-1h0v-1h1l2-1h1z"/><path d="M560 445v1h0v1h0v1h0l-1 1h0-1 0v1h0-1 0-1 0-1 0l-1-1h0-1 0v-1h0l1-1h1v-1h1v-1h2l1-1h1zM566 441l-1 2h0l-1 1h0v2h0l1 2h0l1 1h0l1 1h1l1 1h0l2-1h0l2-1h0l1-2h0v-1h0v-2l-1-1h0v-1l-2-1h0-2 0-3"/><path d="M572 442v1h0l-1 1h0l-1 1h0-1 0l-1 1h0l-1 1-2 1v-1h0v-1h0v-2h0l1-1h0v-1h2l1-1h1z"/><path d="M573 445v2h0l-1 1h0l-1 1h0l-2 1h0-1 0l-1-1h0l-1-1h0l1-1h0l3-2h0l2-1h1zM580 441l-1 1h0l-1 1h0v1h0l-1 2h0v1h1v1h0l1 1h0l2 1h3l2-1h0l1-2h0v-1h0v-1h0v-1h0l-1-2h0l-2-1h0-2 0z"/><path d="m585 442 1 1h-1 0l-1 1h0l-1 1h0-1 0l-1 1-2 2-1-1h0v-1h0v-2h0l1-1h0l1-1h1l1-1h2zM587 445l-1 1h0v2h0l-2 1h0l-2 1h0-1 0l-1-1h0-1 0v-1h0l3-2h0l3-2h1zM49 443l-1 1h1v1h0v3h4l2-1h2v-1h0l1-1h0l-1-1h0l-1-1h0-1 0-1 0v1h0v-1h0-1 0-1 0-1 0v1h2v1h0l-1 1h0-1 0v1h0-1 0v-1h0v-1h0v-1h0v-1h0z"/><path d="M56 445v1h0l-1 1v-1h0v-1h0v-1h1zM54 446v1h0-1 0v-1h0l1-1h0zM60 444v1h0v1h0l-1 1h0l1 1h4v-2h0l-1-2h0l-1-1h0-1 0z"/><path d="M62 445v1h0v1h0-1 0v-1h0v-1h0v-1h1zM952 560v2h0v1h0v-1h0l1-1h0v-2h0v-1h0l-1-1h0v1h0zM758 562v1h0v1h0v-1h0zv-1h0v-1h0zM189 563v1h0zM150 237v1h0v3h0v3h0v14h35v-21h-17 0-9 0-5 0z"/><path d="M185 248v10h-34v-20h34zM120 376v7h0v4h0v2h0-1 0v1h0v1h1v1h0v1h0v2h0v3h0l1 2h0v2h0l2 1h1l1-1h0v-1h0-1 0v-1h0-1 0l-1-1h0v-1h0v-7h2l1-1h0v-1h0-1 0-2v-25h-2z"/><path d="M121 377v13h3-1 0-2v4h0v3h0l1 2h0v1h0l1 1h1v1h0-1 0-1 0l-1-1h0v-1h0v-2h0l-1-3h0v-3h0v-1h0v-1h0-1 1v-1h0v-2h0v-3h0v-7h0v-5h0l1-4h0v-3h0v3h0v4h0zM137 369v2h0v1h0v1h0-1 0l-1 1h0l-1 1h0l-1 1h0l-1 1h0v2h0v1h0l1 2h0v1h0l2 2h0l1 1h2l1 1v-21h-1 0l-1 1h0z"/><path d="M139 376v10h-2 0l-2-1h0l-1-2h0l-1-1h0v-3h0v-2h0l1-2h0l1-1h0l2-1h1v-1h0v-2h0v-3h0l1 3h0zM152 372l-1 1-1 1h0l-1 2h0v3h0l1 3h0v2h0l1 1h0l1 1h2l2-1h0v-2l1-2h0v-5h0l-1-2-1-2h0-1 0-1 0z"/><path d="m155 373 1 2h0v3h0v3h0l-1 2h0v1h0v1h0-1 0l-1 1-1-1h0-1l-1-1h0v-4h0v-3h0l1-3h0l1-1h0l1-1h1zM141 379v7h2v-1h0v1h4v-1h0l1-1h0v-2h0v-10h-2v6h0v2h0v2h0v2h0-1 0-1 0v-1h0-1 0v-2h0v-2h0v-7h-2z"/><path d="M143 384h1l1 1h0l1-1h0v-2h0l1-2h0v-8 6h0v3h0v2h0v1h0v1h0l-1 1h0-1 0l-1-1h0-1l-1-2v2h0v1h0l-1-1h0v-3h0v-3h0l1-3v-4 6h0v3h0v1h0l1 1h0zM127 390l-1 1h0v1h0v1h0v2h0l-1 1h0l1 2h0v1h0v1h0l1 1h0l1 1h1l1 1h2v-1h0v-1h0-1 0v-1h0-1 0-1 0l-1-1h0l-1-1h0v-2h0l1-1h5v-1h0l-1-3h0l-1-1-1-1h0-2 0z"/><path d="M130 390h1v2h0l1 1h0v1h0v1h0-1 0-4v1h0v2h0l1 2h0l1 1h2v1h0-1 0-1 0l-1-1h0l-1-1-1-1h0v-4h0v-3h0l1-1 1-1h0v-1h1zM151 390l-1 1-1 1h0v4h0v3h0l1 2 1 1h0l1 1h2l1-1h0l1-2h0l1-1h0v-1h0v-3h0l-1-3h0v-2l-1-1h0-2 0-1z"/><path d="m155 390 1 1h0v2h0v2h0v2h0v3h0l-1 2h0-2 0-1 0l-1-1h0l-1-1h0v-2h0v-2h0v-4h0v-1l1-1h0l1-1h1l1 1zM135 390l-1 1h0v1h0l-1 1h0v3h0v2h0l1 1h0v1h0l1 2h1l1 1h2v-1h0v-1h0v-1h0-1 0-1 0l-1-1h0l-1-1h0v-2h0v-3h0l2-1h0v-1h2v-1h0v-1h0-1 0-1 0-1 0z"/><path d="m139 390-1 1h0-2 0l-1 1h0v2h0l-1 1h0v2h0l1 2h0l1 1h0l1 1h1l1 1h0-1 0-1 0l-1-1h0l-2-2h0v-2h0v-2h0v-3h0l1-1h0l2-1h0l1-1h1zM141 396v7h2v-6h0v-3h0v-2h0l1-1h2v12h2v-6h0v-4h0l-1-3h0v-1h0-1 0-1 0-1 0-1 0-1 0-1z"/><path d="m146 390 1 1h0v1h0v2h0v9-6h0v-3h0l-1-1h0v-2h0l-1-1h0v1h0-1 0l-1 1h0-1 0v1h0v2h0v2h0v3h0v1h0v1h0-1 0v-2h0v-2h0v-2h0v-3h0v-2h0v-1h1v2l1-1h0v-1h1l1-1h1zM715 370v5h0v5h0v23h87v-33h-43 0-17 0-14 0z"/><path d="M801 386v17h-85v-17l-1-16h86zM262 403l-1 2h0v1h0l1 2h0l2 1h0l1 1h0v1h1-1 0v1h0-1 0-1 0-1 0-1 0v1h0l1 1h5l1-1h1-1 0v1h2l1-1h0v-1h0v-2h0v-1h0v-1h0v1h0l1 1h0v1h0l1 2h0v1h1l1-1h0v-1h0l1-2h0l1-2h0v-1h0v1h0v1h0v1h0v1h0v1h0l1 1h0v1h1v-12h-1 0l-1 1h0l-1 1h0l-1 3-1 3-1-3h0v-1h0l-1-1h0v-1h0v-1h0-1 0v-1h0-2v2h0v2h0v1h0v1h-1 0-1 0l-1-1h0-1 0l-2-1h0v-1h4v-1h1v1h0l1-1h0l-1-1h0l-1-1h0-2 0-1 0l-1 1h0zM266 404h-1 0-1 2M278 408v-1h0v-1h0v-1h0v1h0v1h0z"/><path d="m272 409 1 1h0l1 1h0v1h0l1-1h0v1h0l-1 1h0-1 0v-1h0v-1h0v-1h0zl-1-2h0v-1h0v-1h0l1 1h0v1h0zM266 409l1 1h0v1h0v1h0-1 0v-1h0v-1h0l-1-1h0-1 2M269 413v-1h0v-1h0v1h0zM284 403l-1 1h0l-2 4h0l-1 5h0v1h2v-1h0v-1h0l1-1h3v1l1 2h5v-2h0v-2h0v-1h1l1 1h0v1h0l1 2h0l1 1h1l2-1-1-2h0v-1h0-1 0v-1h0-1 0v-1h1v-1h0l1-1h0v-1h2v4h0v3h0v1h0v1h2v-1h0l1-1h0v-7h2v-1h0v1h0v2h0l1 2h0v3h0v1h0v1h4l2-1h1l1-1h0l1 1h0l2 1h2l2-1h0l2-1h0l1-2h0v-3h0l-1-2h0l-1-2h0l-2-1h0-2 0l-2 1h0l-1 1h0l-1 1h0l-1-1h0v-1h0-1 0l-2-1h0-6 0-6 0-1v1h0-1 0l-2-1h0-2 0-1 0l-1 1h0v2h0v1h0v7l-1-2h0v-1h0l-1-2h0l-1-1h0v-1h0l-1-2h0v-1h0v-1h0-1 0z"/><path d="M321 405h1v1h0v1h0v1h0v1h0v1h0v1h0-1l-1 2 1-2h0v-2h0v-2h0v-1l-1-1h0l-1-1h-1 0-1 3zM295 404l1 1h0v1h0v1h0-1 0v-1h0v-1h0-1 0v-1h-2 3M301 409v4zl-1-5h-3 4zM304 404h-1 1M311 404v1h0v1h0v1h0v-1h0v-1h0-1 0v-1h0-1 0-1 3M286 408v1h1-1 0zl-1-1h0v-2h0l1 1h0z"/><path d="M294 406v1h0v1h0-1 0-1v-1h0v-1h0v-1h2zM310 406v1h0-1 0-1 0v-1h0v-1h2zM319 405l1 1h0l1 2h0v2h0l-1 1h0l-1 1h-1 0-1 0l-1-1v-1h0l-1-2h0v-1h0l1-1h0l1-1h2M285 407v1h0v1h0-1 0-1 0l1-2h0v-1h1zM311 409h1v1h0v1h0v1h-1 0-1 0-2v-1h0v-2h1l1 1h1v1h0l-1 1h1v-1h0v-1h0l-1-1h0l-1-1h0-1 2v1h1M295 409v1h0l1 1h0v2h0-1 0v-1h0v-1h0v-1h0-1 0v-1h1M288 411v1h0v1h0l-1-1h0v-1h1M297 413h-1 0v-1h1zM324 403h-1 0v1h0l1 1h0v1l2 2-2 3h0v1h0l-1 1h0v1h2v-1h0l1-1h0v-1h1v-1h0l1 1h0v1h0l1 1h0l1 1h2v-1h1-1 0v-1h0v-1h0-1 0l-1-1h0v-1l-1-1 2-3h0v-1h0l1-1h0v-1h0-1 0l-1 1h0-1 0v1h0l-1 1h0v1h-1 0v-1h0l-1-1h0l-1-1h0v-1h0-1 0z"/><path d="M326 406v1h0l1 1h0l-2-2h0l-1-2h1v1h0zM329 406h-1 0v-1h1zM330 413l-1-2h0l-1-1h0v-1h0v1h0l1 1h0zM336 403l-1 2h0v1h0v2h0v2h0l1 1h0v1h0l1 1h0l1 1h4l1-1h0l1-1h0v-2h0v-3h0v-3h0v-1h0v-1h0-1 0v1h0-1 0v1h0v1h0v1h0l-1 4h0v2h0-1 0-2 0v-1h0l-1-1h0v-1h0v-2h0v-3h0v-1h0v-1h0-1 0z"/><path d="M343 408v1h0l-1 1h0v1h0v1h0-1 0l1-1h0v-1h0v-1h0v-2h0v-1h0v-1h0l1-1h0v1h0v1h0zM345 403v2h0v2h0v7h10v-1h0v-1h0v-7h2l1-1h0v1h0v2h0v7h2v-1h0v-1h0l1-2h0v-1h1v1h0l1 1h0v1h0v1h0l1 1h4v-3h4v1h0l1 1h0v1h2l1-1-1-2h0l-1-1h0v-2h0l-1-1h0v-1h0l-1-2h0v-1h0-1 0v-1h0l-1 1h0-1 0v1h0l-1 3h0l-1 2h0v1h0-1 0l-1-1h0v-1h0l1-1h0v-1h0v-1h0v-1h0-1v-1h0-1 0l-3-1h0-11v1h0v1h0v1h3v1h0v2h0v3h0l-1 1h0-5v-10h-1 0v1h0z"/><path d="M354 405h-1 0v-1h0-1 0-2 4zM357 404h-1 1M364 404v1h0v1h0v-1h0-1 0l-1-1h0-1 3"/><path d="M363 406v1h0l-1 1h0-1 0v-1h0v-1h0v-1h2zM372 407v1h0v1h0v-1h0l-1-1h0v-1h0v-1h0l1 1h0zM371 409h-1 0-1 0v-1h0l1-1v-1l1 1h0v1h0zM364 410v1h0v1h1v1h0-1 0v-1h0l-1-1h0v-1h0v-1h0-1 1zM374 412v1h0-1 0v-1h0v-1h0zM354 412v1h0zM135 375l-1 1h0v2h0l-1 1h0l1 2h0v1h0l1 1h0l1 1h0l1 1h1v-1h0v-1h0v-9h-1 0-1 0v1h0z"/><path d="M137 379v5l-1-1h0l-1-1h0l-1-1h0v-1h0v-1h0v-1h0v-1h0l1-1h0l1-1h1v1h0v1h0zM151 374v3h0l-1 2h0l1 3h0l1 2h2l1-1h0v-2h0l1-2h0v-2h0l-1-1h0l-1-2h0-1 0-1 0z"/><path d="M154 374v1h0l1 1h0v1h0v2h0v3h0l-1 1v1h0-2 0v-1l-1-1h0v-2h0v-2h0v-2h0l1-1h0v-1h2M128 390v1h0l-1 1h0v1h0v1h4v-1h0v-1h0l-1-1h0v-1h0-1 0z"/><path d="m130 392 1 1h0-1 0-1 0-1 0-1 0v-1h1v-1h2zM152 391l-1 1h0l-1 2h0v2h0v1h0l1 2h0v1h0l1 1h2v-1h1v-2h0l1-2h0l-1-2h0v-2h0l-1-1h0l-1-1h0-1 0z"/><path d="m154 392 1 3h0v2h0l-1 3h0l-1 1h0l-1-1h0l-1-1h0v-1h0v-1h0v-2h0v-1h0v-1h0v-1h1v-1h2z"/></g><g fill="none" stroke="currentColor" clip-path="url(#clipId0)"><path d="M10 548V219"/></g></svg>