<svg id="svg" version="1.1" xmlns="http://www.w3.org/2000/svg" xmlns:xlink="http://www.w3.org/1999/xlink" width="400" height="213" viewBox="0, 0, 400,213.53383458646618"><g id="svgg"><path id="path0" d="M191.991 5.565 C 191.991 5.690,191.902 5.736,191.793 5.668 C 191.477 5.473,191.289 5.968,191.556 6.290 C 191.723 6.491,191.729 6.626,191.575 6.721 C 191.452 6.797,191.339 6.805,191.324 6.740 C 191.309 6.674,191.273 6.524,191.244 6.407 C 191.215 6.289,191.179 6.133,191.164 6.060 C 191.149 5.987,191.008 6.034,190.851 6.165 C 190.693 6.296,190.501 6.340,190.423 6.263 C 190.296 6.135,190.198 6.496,190.255 6.880 C 190.268 6.964,190.118 6.971,189.923 6.896 C 189.652 6.792,189.601 6.847,189.710 7.128 C 189.798 7.358,189.767 7.445,189.629 7.359 C 189.506 7.284,189.443 7.112,189.487 6.978 C 189.585 6.686,188.618 6.141,188.324 6.323 C 188.211 6.393,188.169 6.581,188.230 6.742 C 188.292 6.902,188.250 7.091,188.138 7.160 C 188.026 7.229,187.934 7.190,187.934 7.073 C 187.934 6.956,187.742 6.875,187.507 6.893 C 187.272 6.910,187.080 7.060,187.080 7.226 C 187.080 7.454,187.010 7.469,186.793 7.289 C 186.635 7.158,186.443 7.114,186.366 7.192 C 186.128 7.429,186.210 8.074,186.492 8.187 C 186.698 8.270,186.695 8.299,186.480 8.312 C 186.314 8.322,186.266 8.438,186.360 8.596 C 186.488 8.808,186.454 8.809,186.197 8.601 C 185.949 8.400,185.815 8.398,185.622 8.590 C 185.430 8.783,185.371 8.732,185.371 8.372 C 185.371 7.888,185.559 7.781,185.917 8.062 C 186.030 8.150,186.010 8.091,185.874 7.930 C 185.586 7.591,185.158 7.781,185.158 8.247 C 185.158 8.423,185.061 8.508,184.944 8.436 C 184.826 8.363,184.730 8.405,184.730 8.530 C 184.730 8.654,184.842 8.756,184.980 8.756 C 185.117 8.756,185.167 8.818,185.091 8.893 C 185.016 8.969,184.789 8.897,184.588 8.733 C 184.280 8.484,184.250 8.483,184.399 8.730 C 184.518 8.929,184.486 8.995,184.300 8.933 C 184.000 8.833,183.022 9.703,183.022 10.070 C 183.022 10.195,183.171 10.239,183.353 10.169 C 183.555 10.092,183.630 10.131,183.545 10.268 C 183.469 10.392,183.276 10.444,183.118 10.383 C 182.956 10.321,182.773 10.453,182.699 10.685 C 182.628 10.911,182.454 11.074,182.315 11.047 C 182.175 11.020,182.074 11.163,182.089 11.364 C 182.105 11.565,182.057 11.722,181.982 11.712 C 181.256 11.621,181.085 12.066,181.680 12.501 C 181.995 12.731,181.943 12.757,181.306 12.691 C 180.589 12.616,180.582 12.622,181.075 12.896 C 181.635 13.208,181.387 13.534,180.745 13.332 C 180.395 13.222,180.391 13.234,180.707 13.438 C 181.240 13.783,181.050 14.404,180.387 14.483 C 180.021 14.526,179.820 14.679,179.822 14.910 C 179.825 15.220,179.853 15.226,180.032 14.949 C 180.216 14.665,180.240 14.665,180.246 14.949 C 180.250 15.165,180.303 15.190,180.409 15.026 C 180.523 14.849,180.638 14.860,180.831 15.068 C 181.137 15.398,180.861 15.649,180.392 15.469 C 180.145 15.374,180.080 15.506,180.106 16.055 C 180.134 16.664,180.074 16.756,179.685 16.702 C 179.080 16.619,178.888 17.184,179.277 17.901 C 179.448 18.215,179.592 18.356,179.596 18.213 C 179.601 18.070,179.749 18.008,179.924 18.075 C 180.100 18.142,180.195 18.275,180.136 18.370 C 180.077 18.466,180.150 18.599,180.298 18.666 C 180.445 18.734,180.344 18.734,180.072 18.666 C 179.616 18.552,179.600 18.577,179.858 18.991 C 180.024 19.256,180.269 19.389,180.459 19.317 C 180.710 19.222,180.723 19.252,180.522 19.455 C 180.319 19.659,180.193 19.656,179.934 19.442 C 179.693 19.241,179.605 19.236,179.605 19.421 C 179.605 19.559,179.507 19.612,179.388 19.539 C 179.268 19.465,179.226 19.315,179.294 19.206 C 179.361 19.096,179.315 19.007,179.190 19.007 C 178.789 19.007,178.916 21.163,179.338 21.509 C 179.544 21.677,179.592 21.754,179.445 21.680 C 179.298 21.605,179.178 21.646,179.178 21.771 C 179.178 21.980,179.533 22.079,180.192 22.054 C 180.645 22.037,180.486 22.545,180.027 22.579 C 179.784 22.597,179.654 22.517,179.729 22.395 C 179.803 22.276,179.661 22.305,179.414 22.460 C 178.940 22.755,178.814 23.374,179.181 23.601 C 179.301 23.674,179.343 23.824,179.275 23.934 C 179.208 24.043,179.244 24.132,179.355 24.132 C 179.466 24.132,179.620 24.467,179.697 24.877 C 179.830 25.588,180.171 25.768,180.509 25.307 C 180.610 25.170,180.667 25.180,180.669 25.334 C 180.671 25.467,180.534 25.690,180.365 25.830 C 180.196 25.971,180.110 26.223,180.174 26.390 C 180.329 26.793,180.673 26.782,180.673 26.375 C 180.673 26.199,180.774 26.054,180.899 26.054 C 181.023 26.054,181.066 26.151,180.993 26.268 C 180.920 26.385,180.955 26.482,181.069 26.482 C 181.184 26.482,181.318 26.410,181.367 26.321 C 181.417 26.233,181.424 26.292,181.383 26.452 C 181.337 26.633,181.426 26.697,181.620 26.623 C 181.832 26.542,181.893 26.605,181.811 26.818 C 181.723 27.050,181.617 27.072,181.414 26.904 C 181.219 26.742,181.097 26.741,180.997 26.902 C 180.920 27.027,180.768 27.075,180.660 27.008 C 180.434 26.868,180.638 27.526,180.944 27.921 C 181.056 28.066,181.227 28.137,181.323 28.077 C 181.419 28.018,181.554 28.061,181.622 28.172 C 181.691 28.283,181.648 28.435,181.527 28.510 C 181.406 28.585,181.363 28.738,181.431 28.849 C 181.500 28.960,181.646 28.996,181.755 28.928 C 181.865 28.861,181.962 28.979,181.971 29.192 C 181.981 29.428,182.031 29.472,182.098 29.304 C 182.158 29.153,182.091 28.889,181.948 28.717 C 181.771 28.503,181.763 28.404,181.924 28.404 C 182.053 28.404,182.220 28.643,182.293 28.936 C 182.367 29.229,182.504 29.421,182.597 29.363 C 182.691 29.305,182.718 29.065,182.657 28.831 C 182.525 28.329,182.912 28.263,183.359 28.710 C 183.540 28.891,183.581 29.069,183.460 29.144 C 183.347 29.214,183.282 29.389,183.317 29.532 C 183.351 29.675,183.339 29.720,183.289 29.632 C 183.136 29.356,182.880 29.456,182.880 29.792 C 182.880 29.968,182.976 30.112,183.093 30.112 C 183.211 30.112,183.248 30.171,183.175 30.243 C 183.103 30.316,183.441 30.798,183.926 31.315 C 184.410 31.832,184.862 32.173,184.929 32.073 C 185.147 31.745,185.992 31.624,185.871 31.938 C 185.812 32.094,185.627 32.168,185.460 32.105 C 185.041 31.944,185.080 32.346,185.519 32.702 C 185.725 32.869,185.815 32.887,185.729 32.743 C 185.627 32.572,185.769 32.495,186.168 32.503 C 187.194 32.524,187.343 32.473,187.216 32.141 C 187.148 31.965,187.180 31.821,187.287 31.821 C 187.593 31.821,187.751 32.204,187.507 32.355 C 187.385 32.429,187.335 32.569,187.394 32.665 C 187.453 32.761,187.360 32.958,187.187 33.102 C 186.932 33.313,186.845 33.297,186.739 33.019 C 186.666 32.830,186.521 32.675,186.416 32.675 C 186.020 32.675,186.250 33.024,186.898 33.407 C 187.267 33.625,187.502 33.694,187.419 33.560 C 187.336 33.425,187.370 33.316,187.494 33.316 C 187.618 33.316,187.720 33.418,187.720 33.543 C 187.720 33.679,187.905 33.713,188.174 33.627 C 188.464 33.535,188.578 33.563,188.491 33.705 C 188.349 33.935,188.662 34.210,189.215 34.340 C 189.984 34.520,190.353 34.469,190.438 34.170 C 190.519 33.885,190.501 33.885,190.279 34.170 C 190.064 34.445,190.046 34.437,190.149 34.116 C 190.215 33.911,190.176 33.743,190.063 33.743 C 189.949 33.743,189.856 33.635,189.856 33.503 C 189.856 33.332,189.935 33.329,190.130 33.491 C 190.538 33.830,191.234 33.653,191.318 33.189 C 191.359 32.965,191.477 32.692,191.581 32.582 C 191.689 32.469,191.688 32.670,191.579 33.052 C 191.435 33.554,191.463 33.784,191.694 33.976 C 191.863 34.116,191.954 34.279,191.895 34.337 C 191.836 34.396,191.642 34.323,191.463 34.174 C 191.194 33.951,191.137 33.964,191.137 34.250 C 191.137 34.549,191.462 34.597,193.486 34.597 C 195.784 34.597,195.962 34.545,195.861 33.903 C 195.847 33.815,195.942 33.743,196.072 33.743 C 196.202 33.743,196.256 33.878,196.193 34.043 C 196.036 34.452,197.116 34.728,197.360 34.342 C 197.458 34.189,197.539 34.142,197.541 34.239 C 197.543 34.335,197.790 34.221,198.092 33.984 C 198.393 33.747,198.759 33.599,198.906 33.655 C 199.052 33.712,199.303 33.514,199.462 33.216 C 199.621 32.918,199.834 32.675,199.934 32.675 C 200.035 32.675,199.959 32.915,199.767 33.209 C 199.346 33.851,199.634 33.902,200.379 33.316 C 200.677 33.081,201.016 32.888,201.132 32.888 C 201.248 32.888,201.398 32.744,201.465 32.568 C 201.533 32.392,201.735 32.248,201.915 32.248 C 202.095 32.248,202.242 32.146,202.242 32.022 C 202.242 31.897,202.328 31.848,202.432 31.912 C 202.536 31.977,202.671 31.838,202.732 31.605 C 202.801 31.342,202.737 31.180,202.566 31.180 C 202.413 31.180,202.237 31.047,202.174 30.884 C 202.050 30.559,202.796 30.652,203.003 30.988 C 203.183 31.279,203.951 30.691,203.951 30.262 C 203.951 30.048,203.853 29.934,203.734 30.007 C 203.614 30.081,203.566 30.221,203.626 30.318 C 203.686 30.415,203.615 30.540,203.469 30.596 C 203.303 30.660,203.203 30.508,203.203 30.189 C 203.203 29.870,203.303 29.718,203.470 29.783 C 203.617 29.839,203.741 29.768,203.745 29.625 C 203.749 29.482,203.886 29.605,204.049 29.899 C 204.334 30.410,204.342 30.394,204.258 29.513 C 204.171 28.593,204.487 28.574,204.872 29.475 C 204.946 29.649,204.970 29.479,204.925 29.098 C 204.879 28.716,204.933 28.404,205.045 28.404 C 205.164 28.404,205.153 28.227,205.019 27.977 C 204.890 27.736,204.877 27.549,204.988 27.549 C 205.264 27.549,205.441 28.085,205.340 28.613 C 205.292 28.861,205.345 29.000,205.460 28.928 C 205.574 28.858,205.615 28.718,205.553 28.617 C 205.490 28.516,205.537 28.373,205.656 28.299 C 205.775 28.225,205.871 28.002,205.870 27.804 C 205.867 27.490,205.837 27.485,205.640 27.763 C 205.438 28.048,205.424 28.048,205.510 27.763 C 205.563 27.587,205.703 27.463,205.821 27.488 C 205.939 27.512,206.215 27.328,206.435 27.077 C 206.654 26.827,206.725 26.685,206.591 26.763 C 206.453 26.843,206.301 26.721,206.237 26.479 C 206.176 26.245,206.213 26.108,206.320 26.174 C 206.426 26.239,206.514 26.203,206.514 26.093 C 206.514 25.860,206.060 25.450,205.802 25.450 C 205.704 25.450,205.560 25.378,205.481 25.291 C 205.403 25.203,205.453 25.197,205.591 25.276 C 205.730 25.356,205.904 25.323,205.978 25.204 C 206.051 25.084,206.208 24.987,206.325 24.987 C 206.443 24.987,206.470 25.098,206.386 25.234 C 206.280 25.405,206.384 25.442,206.725 25.353 C 207.093 25.256,207.155 25.285,206.972 25.468 C 206.670 25.770,206.655 26.054,206.941 26.054 C 207.058 26.054,207.139 25.982,207.120 25.894 C 207.101 25.806,207.197 25.464,207.333 25.133 C 207.654 24.356,207.646 24.203,207.278 24.062 C 207.111 23.998,206.994 23.819,207.017 23.665 C 207.091 23.177,207.389 22.839,207.620 22.982 C 207.895 23.151,208.216 22.678,208.216 22.104 C 208.216 21.761,208.177 21.738,208.019 21.987 C 207.911 22.157,207.862 22.360,207.909 22.436 C 207.957 22.513,207.744 22.528,207.436 22.469 C 207.016 22.388,206.920 22.431,207.049 22.640 C 207.162 22.823,207.136 22.865,206.973 22.764 C 206.651 22.565,207.046 21.783,207.468 21.783 C 207.877 21.783,208.009 21.200,207.831 20.182 C 207.663 19.226,207.261 19.113,207.261 20.021 C 207.261 20.344,207.165 20.689,207.048 20.787 C 206.925 20.890,207.033 20.923,207.298 20.865 C 207.632 20.792,207.731 20.848,207.649 21.060 C 207.353 21.831,206.650 20.976,206.766 19.986 C 206.813 19.581,206.782 19.293,206.697 19.346 C 206.613 19.398,206.474 19.329,206.389 19.191 C 206.285 19.023,206.327 18.999,206.517 19.116 C 206.712 19.236,206.765 19.197,206.688 18.989 C 206.626 18.822,206.754 18.502,206.972 18.276 C 207.190 18.049,207.368 17.958,207.368 18.073 C 207.368 18.187,207.254 18.395,207.115 18.534 C 206.756 18.892,207.076 19.124,207.474 18.794 C 207.753 18.563,207.784 18.575,207.670 18.870 C 207.596 19.063,207.640 19.221,207.768 19.221 C 208.070 19.221,208.298 18.301,208.129 17.768 C 208.045 17.504,207.804 17.352,207.473 17.352 C 207.184 17.352,206.995 17.427,207.052 17.519 C 207.108 17.611,206.918 17.574,206.628 17.439 C 206.338 17.303,206.193 17.160,206.307 17.120 C 206.421 17.081,206.514 16.956,206.514 16.841 C 206.514 16.726,206.424 16.688,206.315 16.755 C 206.205 16.823,206.064 16.795,206.001 16.692 C 205.938 16.590,206.135 16.393,206.439 16.255 C 206.931 16.031,206.976 16.044,206.848 16.377 C 206.769 16.583,206.774 16.682,206.859 16.597 C 206.943 16.513,207.211 16.612,207.454 16.817 C 207.802 17.114,207.839 17.119,207.627 16.845 C 207.481 16.654,207.410 16.366,207.470 16.204 C 207.530 16.043,207.492 15.622,207.385 15.270 C 207.278 14.917,207.183 14.746,207.173 14.889 C 207.127 15.537,206.608 14.866,206.630 14.188 C 206.654 13.460,206.082 12.462,205.802 12.742 C 205.728 12.817,205.872 13.055,206.123 13.272 C 206.727 13.797,206.416 13.779,205.668 13.247 C 205.343 13.016,205.016 12.888,204.941 12.962 C 204.866 13.037,204.805 13.032,204.805 12.951 C 204.805 12.870,205.051 12.710,205.352 12.595 C 206.003 12.348,205.866 11.956,205.179 12.100 C 204.724 12.195,204.726 12.183,205.232 11.874 C 205.663 11.611,205.691 11.546,205.380 11.540 C 205.143 11.535,205.053 11.437,205.146 11.286 C 205.240 11.133,205.204 11.097,205.052 11.192 C 204.916 11.275,204.805 11.235,204.805 11.101 C 204.805 10.942,204.584 10.906,204.164 10.998 C 203.745 11.090,203.524 11.055,203.524 10.896 C 203.524 10.762,203.621 10.713,203.739 10.786 C 204.276 11.118,204.188 10.179,203.632 9.645 C 203.306 9.332,203.115 9.211,203.207 9.376 C 203.326 9.587,203.296 9.626,203.106 9.509 C 202.948 9.412,202.760 9.464,202.655 9.634 C 202.502 9.882,202.431 9.881,202.198 9.631 C 202.046 9.467,202.031 9.395,202.165 9.470 C 202.415 9.610,203.029 9.044,202.836 8.851 C 202.776 8.791,202.498 8.701,202.218 8.651 C 201.737 8.564,201.731 8.576,202.107 8.860 C 202.491 9.149,202.489 9.159,202.054 9.126 C 201.805 9.108,201.602 9.000,201.602 8.888 C 201.602 8.775,201.434 8.491,201.228 8.256 C 201.022 8.021,200.974 7.899,201.121 7.984 C 201.268 8.070,201.388 8.049,201.388 7.937 C 201.388 7.825,201.244 7.679,201.068 7.611 C 200.876 7.538,200.747 7.609,200.747 7.789 C 200.747 7.955,200.656 8.146,200.545 8.215 C 200.433 8.284,200.382 8.138,200.430 7.888 C 200.502 7.513,200.464 7.480,200.205 7.695 C 199.948 7.909,199.893 7.872,199.893 7.488 C 199.893 7.176,199.981 7.073,200.160 7.176 C 200.307 7.260,200.353 7.248,200.263 7.149 C 200.018 6.880,199.270 6.871,199.318 7.137 C 199.341 7.264,199.249 7.347,199.114 7.322 C 198.964 7.293,198.915 7.451,198.988 7.729 C 199.070 8.042,199.029 8.134,198.856 8.027 C 198.718 7.942,198.649 7.801,198.702 7.714 C 198.756 7.628,198.559 7.274,198.263 6.928 C 197.968 6.583,197.787 6.420,197.862 6.567 C 197.936 6.714,197.905 6.834,197.793 6.834 C 197.477 6.834,197.323 6.234,197.609 6.117 C 197.752 6.059,197.706 6.006,197.503 5.997 C 197.016 5.974,196.810 6.358,197.114 6.724 C 197.323 6.976,197.277 6.983,196.814 6.768 C 196.513 6.628,196.265 6.393,196.264 6.247 C 196.263 6.100,196.161 5.980,196.037 5.980 C 195.912 5.980,195.879 6.100,195.964 6.247 C 196.053 6.402,196.036 6.439,195.923 6.336 C 195.816 6.238,195.729 6.046,195.729 5.909 C 195.729 5.367,195.085 5.693,194.955 6.300 C 194.880 6.652,194.807 6.767,194.793 6.554 C 194.779 6.342,194.672 6.227,194.554 6.300 C 194.437 6.373,194.341 6.336,194.341 6.218 C 194.341 6.101,194.437 5.946,194.554 5.873 C 194.837 5.698,194.828 5.339,194.542 5.339 C 194.417 5.339,194.375 5.435,194.447 5.553 C 194.527 5.681,194.240 5.766,193.725 5.766 C 193.255 5.766,192.812 5.670,192.739 5.553 C 192.563 5.269,191.991 5.278,191.991 5.565 M192.846 6.155 C 192.846 6.332,192.716 6.403,192.525 6.330 C 192.318 6.250,192.203 6.336,192.199 6.574 C 192.192 6.915,192.177 6.915,191.973 6.565 C 191.853 6.359,191.810 6.101,191.877 5.992 C 192.066 5.687,192.846 5.818,192.846 6.155 M189.548 6.283 C 189.995 6.610,190.198 6.574,189.971 6.207 C 189.894 6.082,189.674 5.980,189.482 5.980 C 189.191 5.980,189.201 6.029,189.548 6.283 M194.127 6.526 C 194.127 6.709,194.223 6.800,194.341 6.727 C 194.458 6.655,194.554 6.697,194.554 6.821 C 194.554 6.946,194.179 7.048,193.720 7.048 C 192.991 7.048,192.900 6.994,192.997 6.620 C 193.134 6.097,194.127 6.014,194.127 6.526 M198.546 6.554 C 198.480 6.661,198.504 6.873,198.599 7.027 C 198.694 7.181,198.826 7.220,198.891 7.114 C 198.957 7.007,198.933 6.795,198.838 6.641 C 198.743 6.487,198.612 6.448,198.546 6.554 M186.150 9.116 C 185.937 9.329,185.157 9.357,185.287 9.147 C 185.347 9.049,185.599 8.970,185.846 8.970 C 186.094 8.970,186.230 9.036,186.150 9.116 M184.224 9.721 C 184.082 10.093,183.661 9.959,183.666 9.544 C 183.668 9.391,183.752 9.418,183.876 9.610 C 184.049 9.878,184.084 9.864,184.086 9.521 C 184.088 9.296,184.150 9.172,184.223 9.245 C 184.296 9.318,184.297 9.533,184.224 9.721 M184.987 10.021 C 184.896 10.257,184.833 10.233,184.708 9.915 C 184.459 9.280,184.490 9.141,184.810 9.441 C 184.972 9.591,185.051 9.852,184.987 10.021 M184.730 10.805 C 184.730 10.866,184.618 10.847,184.481 10.762 C 184.311 10.658,184.276 10.726,184.371 10.974 C 184.449 11.176,184.429 11.289,184.327 11.226 C 183.900 10.963,183.897 10.247,184.324 10.476 C 184.548 10.595,184.730 10.743,184.730 10.805 M204.608 11.377 C 204.599 11.463,204.590 11.797,204.588 12.120 L 204.585 12.707 204.305 12.173 C 204.010 11.612,204.075 11.040,204.420 11.155 C 204.532 11.192,204.616 11.292,204.608 11.377 M182.868 12.912 C 182.718 13.182,182.592 13.129,182.132 12.605 L 181.578 11.974 182.193 12.045 C 182.537 12.085,182.821 12.011,182.837 11.878 C 182.853 11.747,182.908 11.853,182.958 12.113 C 183.009 12.374,182.968 12.734,182.868 12.912 M181.857 13.652 C 181.790 13.760,181.905 13.893,182.112 13.947 C 182.398 14.022,182.373 14.051,182.007 14.070 C 181.538 14.094,181.385 13.881,181.669 13.597 C 181.878 13.388,181.999 13.423,181.857 13.652 M205.535 13.584 C 205.721 13.655,205.873 13.844,205.873 14.004 C 205.873 14.366,205.308 14.174,205.149 13.758 C 205.018 13.417,205.056 13.400,205.535 13.584 M206.300 15.287 C 206.300 15.473,206.186 15.588,206.046 15.541 C 205.650 15.409,205.585 14.949,205.962 14.949 C 206.148 14.949,206.300 15.101,206.300 15.287 M207.159 15.488 C 207.307 15.667,207.367 15.876,207.292 15.951 C 207.216 16.027,207.154 15.976,207.154 15.839 C 207.154 15.702,207.010 15.590,206.834 15.590 C 206.658 15.590,206.514 15.494,206.514 15.376 C 206.514 15.059,206.851 15.118,207.159 15.488 M179.454 15.945 C 179.245 16.386,179.253 16.461,179.496 16.368 C 179.658 16.306,179.838 16.369,179.895 16.510 C 179.952 16.650,180.004 16.572,180.012 16.337 C 180.036 15.579,179.728 15.363,179.454 15.945 M181.064 16.167 C 180.940 16.317,180.753 16.387,180.649 16.322 C 180.322 16.121,180.442 15.895,180.874 15.895 C 181.187 15.895,181.234 15.963,181.064 16.167 M181.100 20.288 C 181.100 20.715,180.993 20.929,180.779 20.929 C 180.456 20.929,180.322 20.070,180.602 19.790 C 180.908 19.484,181.100 19.676,181.100 20.288 M180.032 23.194 C 180.032 23.358,179.930 23.492,179.806 23.492 C 179.681 23.492,179.635 23.402,179.703 23.293 C 179.770 23.184,179.736 23.039,179.627 22.972 C 179.518 22.904,179.451 23.001,179.479 23.187 C 179.506 23.374,179.664 23.610,179.829 23.712 C 179.995 23.814,180.145 24.190,180.163 24.546 C 180.181 24.903,180.111 25.142,180.007 25.078 C 179.903 25.014,179.818 24.758,179.818 24.510 C 179.818 24.262,179.663 23.887,179.472 23.677 C 179.063 23.225,179.226 22.587,179.704 22.771 C 179.884 22.840,180.032 23.031,180.032 23.194 M180.673 23.625 C 180.673 23.908,180.731 23.923,180.993 23.705 C 181.402 23.366,181.413 23.636,181.007 24.043 C 180.838 24.211,180.661 24.276,180.612 24.187 C 180.353 23.708,180.284 23.278,180.466 23.278 C 180.580 23.278,180.673 23.434,180.673 23.625 M205.080 26.698 C 204.974 27.103,204.592 27.518,204.592 27.228 C 204.592 27.046,205.014 26.268,205.113 26.268 C 205.157 26.268,205.142 26.462,205.080 26.698 M183.823 30.166 C 183.793 30.312,183.889 30.408,184.036 30.379 C 184.183 30.350,184.279 30.446,184.250 30.593 C 184.221 30.739,184.313 30.837,184.456 30.809 C 184.611 30.778,184.663 30.893,184.586 31.094 C 184.478 31.375,184.370 31.338,183.942 30.876 C 183.659 30.570,183.486 30.226,183.557 30.110 C 183.739 29.815,183.887 29.846,183.823 30.166 M186.813 32.159 C 186.609 32.362,186.201 32.033,186.353 31.787 C 186.443 31.641,186.562 31.645,186.716 31.798 C 186.841 31.924,186.885 32.086,186.813 32.159 M198.932 32.313 C 199.167 32.281,199.239 32.310,199.092 32.376 C 198.711 32.549,198.761 32.959,199.146 32.811 C 199.322 32.744,199.466 32.770,199.466 32.869 C 199.466 32.968,199.322 33.169,199.146 33.316 C 198.924 33.499,198.825 33.507,198.825 33.342 C 198.825 33.210,198.705 33.126,198.558 33.155 C 198.412 33.185,198.279 33.065,198.263 32.888 C 198.247 32.712,198.221 32.424,198.206 32.248 C 198.181 31.963,198.155 31.963,197.971 32.248 C 197.857 32.424,197.763 32.464,197.761 32.337 C 197.755 31.933,198.058 31.786,198.286 32.083 C 198.406 32.241,198.697 32.344,198.932 32.313 M200.810 32.279 C 201.069 32.531,201.161 32.670,201.014 32.587 C 200.868 32.504,200.747 32.538,200.747 32.662 C 200.747 32.787,200.635 32.888,200.498 32.888 C 200.361 32.888,200.310 32.828,200.384 32.754 C 200.458 32.679,200.423 32.439,200.305 32.220 C 200.022 31.690,200.229 31.715,200.810 32.279 M188.477 32.659 C 188.341 32.880,189.113 33.190,189.382 33.024 C 189.477 32.966,189.567 33.102,189.584 33.326 C 189.601 33.551,189.526 33.789,189.418 33.856 C 189.309 33.923,189.271 33.846,189.333 33.684 C 189.409 33.485,189.157 33.294,188.559 33.097 C 187.841 32.860,187.748 32.774,188.070 32.648 C 188.612 32.435,188.616 32.435,188.477 32.659 M195.601 32.757 C 195.790 32.984,195.775 33.080,195.536 33.171 C 195.366 33.237,195.109 33.150,194.967 32.978 C 194.752 32.718,194.773 32.690,195.093 32.813 C 195.358 32.915,195.430 32.883,195.324 32.711 C 195.110 32.365,195.303 32.397,195.601 32.757 M197.858 33.052 C 197.737 33.138,197.651 33.403,197.666 33.639 C 197.689 33.981,197.557 34.074,197.032 34.091 C 196.668 34.103,196.490 34.069,196.638 34.016 C 196.785 33.963,196.842 33.816,196.763 33.688 C 196.670 33.537,196.754 33.508,197.005 33.604 C 197.322 33.726,197.346 33.698,197.136 33.445 C 196.931 33.199,196.957 33.118,197.266 33.038 C 197.897 32.874,198.100 32.879,197.858 33.052 M194.414 34.223 C 194.360 34.311,193.894 34.383,193.380 34.383 C 192.865 34.383,192.399 34.311,192.345 34.223 C 192.290 34.135,192.756 34.063,193.379 34.063 C 194.002 34.063,194.468 34.135,194.414 34.223 " stroke="none" fill="#acbcac" fill-rule="evenodd"></path><path id="path1" d="M192.657 5.499 C 192.721 5.902,192.602 5.978,192.224 5.776 C 191.868 5.586,191.824 5.627,191.875 6.096 C 191.943 6.714,192.205 7.080,192.205 6.556 C 192.205 6.333,192.321 6.251,192.525 6.330 C 192.728 6.407,192.846 6.327,192.846 6.109 C 192.846 5.850,193.059 5.766,193.713 5.766 C 194.236 5.766,194.527 5.682,194.447 5.553 C 194.296 5.307,192.619 5.257,192.657 5.499 M194.597 5.809 C 194.296 6.110,194.251 6.487,194.538 6.310 C 194.647 6.243,194.780 6.357,194.834 6.564 C 194.893 6.794,194.941 6.707,194.957 6.341 C 194.973 5.946,195.065 5.793,195.228 5.893 C 195.381 5.988,195.416 5.952,195.322 5.799 C 195.127 5.484,194.919 5.487,194.597 5.809 M188.480 6.521 C 188.142 6.812,187.911 7.096,187.968 7.153 C 188.025 7.210,188.257 7.087,188.483 6.879 C 188.946 6.455,189.678 6.493,189.509 6.933 C 189.449 7.089,189.501 7.281,189.625 7.357 C 189.768 7.445,189.799 7.361,189.710 7.128 C 189.601 6.847,189.652 6.792,189.923 6.896 C 190.118 6.971,190.268 6.964,190.255 6.880 C 190.194 6.467,190.304 6.181,190.482 6.291 C 190.591 6.359,190.741 6.316,190.815 6.197 C 190.892 6.072,190.720 5.980,190.409 5.980 C 189.999 5.980,189.901 6.063,190.002 6.327 C 190.125 6.645,190.093 6.646,189.616 6.333 C 189.124 6.011,189.061 6.021,188.480 6.521 M191.228 6.342 C 191.259 6.554,191.356 6.711,191.442 6.692 C 191.767 6.618,191.779 6.460,191.480 6.212 C 191.229 6.004,191.182 6.028,191.228 6.342 M196.264 6.247 C 196.265 6.393,196.513 6.628,196.814 6.768 C 197.277 6.983,197.323 6.976,197.114 6.724 C 196.978 6.560,196.929 6.325,197.004 6.203 C 197.083 6.075,196.953 5.980,196.702 5.980 C 196.461 5.980,196.263 6.100,196.264 6.247 M192.997 6.620 C 192.900 6.994,192.991 7.048,193.720 7.048 C 194.179 7.048,194.554 6.946,194.554 6.821 C 194.554 6.697,194.458 6.655,194.341 6.727 C 194.223 6.800,194.127 6.709,194.127 6.526 C 194.127 6.014,193.134 6.097,192.997 6.620 M197.466 6.511 C 197.534 6.688,197.681 6.834,197.793 6.834 C 197.905 6.834,197.936 6.714,197.862 6.567 C 197.787 6.420,197.968 6.583,198.263 6.928 C 198.559 7.274,198.756 7.628,198.702 7.714 C 198.649 7.801,198.718 7.942,198.856 8.027 C 199.029 8.134,199.069 8.040,198.986 7.721 C 198.919 7.468,198.946 7.310,199.044 7.371 C 199.143 7.432,199.283 7.384,199.357 7.265 C 199.587 6.892,199.893 7.027,199.893 7.501 C 199.893 7.874,199.948 7.908,200.205 7.695 C 200.464 7.480,200.502 7.513,200.430 7.888 C 200.382 8.138,200.433 8.284,200.545 8.215 C 200.910 7.990,200.758 7.530,200.195 7.162 C 199.891 6.963,199.588 6.855,199.521 6.922 C 199.454 6.989,199.251 6.925,199.071 6.779 C 198.842 6.593,198.789 6.589,198.895 6.766 C 198.978 6.905,198.948 7.078,198.829 7.152 C 198.626 7.278,198.529 7.020,198.585 6.506 C 198.599 6.384,198.324 6.262,197.976 6.236 C 197.486 6.198,197.370 6.261,197.466 6.511 M185.956 7.602 C 185.871 7.686,185.917 7.909,186.057 8.096 C 186.270 8.380,186.263 8.392,186.012 8.169 C 185.577 7.780,185.371 7.840,185.371 8.355 C 185.371 8.707,185.434 8.756,185.654 8.574 C 185.861 8.402,186.012 8.409,186.219 8.601 C 186.443 8.808,186.470 8.807,186.351 8.596 C 186.264 8.442,186.318 8.328,186.480 8.326 C 186.670 8.323,186.684 8.272,186.524 8.165 C 186.395 8.079,186.249 7.882,186.199 7.728 C 186.150 7.574,186.040 7.517,185.956 7.602 M201.388 7.881 C 201.388 8.030,201.274 8.074,201.121 7.984 C 200.974 7.899,201.022 8.021,201.228 8.256 C 201.434 8.491,201.602 8.775,201.602 8.888 C 201.602 9.000,201.805 9.108,202.054 9.126 C 202.491 9.159,202.493 9.149,202.107 8.836 C 201.888 8.657,201.829 8.572,201.975 8.646 C 202.394 8.858,202.288 8.436,201.815 8.009 C 201.550 7.769,201.388 7.720,201.388 7.881 M185.287 9.147 C 185.157 9.357,185.937 9.329,186.150 9.116 C 186.230 9.036,186.094 8.970,185.846 8.970 C 185.599 8.970,185.347 9.049,185.287 9.147 M184.086 9.521 C 184.084 9.864,184.049 9.878,183.876 9.610 C 183.752 9.418,183.668 9.391,183.666 9.544 C 183.661 9.959,184.082 10.093,184.224 9.721 C 184.297 9.533,184.296 9.318,184.223 9.245 C 184.150 9.172,184.088 9.296,184.086 9.521 M184.532 9.335 C 184.579 9.863,184.875 10.310,184.987 10.021 C 185.051 9.852,184.972 9.591,184.810 9.441 C 184.649 9.290,184.524 9.242,184.532 9.335 M202.561 9.400 C 202.487 9.520,202.313 9.554,202.174 9.476 C 202.017 9.388,202.026 9.446,202.198 9.631 C 202.431 9.881,202.502 9.882,202.655 9.634 C 202.760 9.464,202.948 9.412,203.106 9.509 C 203.282 9.618,203.323 9.590,203.224 9.430 C 203.036 9.125,202.739 9.112,202.561 9.400 M182.466 10.489 C 182.267 10.709,182.223 10.900,182.352 10.980 C 182.469 11.052,182.624 10.923,182.697 10.692 C 182.772 10.455,182.955 10.321,183.118 10.383 C 183.276 10.444,183.457 10.412,183.519 10.311 C 183.730 9.969,182.793 10.128,182.466 10.489 M184.030 10.685 C 184.091 10.920,184.225 11.163,184.327 11.226 C 184.429 11.289,184.449 11.176,184.371 10.974 C 184.276 10.726,184.311 10.658,184.481 10.762 C 184.618 10.847,184.730 10.866,184.730 10.805 C 184.730 10.743,184.548 10.595,184.324 10.476 C 183.978 10.291,183.935 10.321,184.030 10.685 M204.084 10.580 C 204.012 10.766,203.857 10.859,203.739 10.786 C 203.621 10.713,203.524 10.762,203.524 10.896 C 203.524 11.055,203.745 11.090,204.164 10.998 C 204.558 10.912,204.805 10.944,204.805 11.082 C 204.805 11.205,204.673 11.255,204.512 11.193 C 204.096 11.033,203.977 11.548,204.291 12.152 L 204.557 12.666 204.628 12.046 C 204.668 11.690,204.812 11.448,204.965 11.479 C 205.349 11.556,205.299 11.412,204.723 10.791 C 204.297 10.331,204.192 10.297,204.084 10.580 M182.837 11.878 C 182.821 12.011,182.537 12.085,182.193 12.045 L 181.578 11.974 182.132 12.605 C 182.743 13.301,183.142 13.063,182.958 12.113 C 182.908 11.853,182.853 11.747,182.837 11.878 M205.054 11.933 C 204.840 12.068,204.894 12.151,205.268 12.261 L 205.766 12.408 205.286 12.604 C 205.021 12.712,204.805 12.867,204.805 12.949 C 204.805 13.031,204.866 13.037,204.941 12.962 C 205.080 12.823,206.281 13.575,206.564 13.978 C 206.654 14.106,206.722 14.113,206.724 13.995 C 206.726 13.881,206.511 13.593,206.247 13.354 C 205.982 13.116,205.765 12.688,205.764 12.404 C 205.762 11.834,205.492 11.656,205.054 11.933 M180.962 12.533 C 181.175 12.746,181.955 12.774,181.825 12.564 C 181.765 12.466,181.513 12.387,181.265 12.387 C 181.018 12.387,180.881 12.453,180.962 12.533 M180.673 13.015 C 180.673 13.312,181.065 13.501,181.336 13.333 C 181.501 13.232,181.485 13.132,181.283 13.004 C 180.902 12.762,180.673 12.766,180.673 13.015 M180.538 13.623 C 180.614 13.746,180.516 14.008,180.320 14.204 C 179.986 14.538,179.996 14.556,180.478 14.488 C 181.047 14.408,181.210 13.669,180.696 13.498 C 180.528 13.442,180.459 13.496,180.538 13.623 M181.669 13.597 C 181.385 13.881,181.538 14.094,182.007 14.070 C 182.373 14.051,182.398 14.022,182.112 13.947 C 181.905 13.893,181.790 13.760,181.857 13.652 C 181.999 13.423,181.878 13.388,181.669 13.597 M205.149 13.758 C 205.308 14.174,205.873 14.366,205.873 14.004 C 205.873 13.844,205.721 13.655,205.535 13.584 C 205.056 13.400,205.018 13.417,205.149 13.758 M206.634 14.713 C 206.569 14.818,206.660 14.960,206.835 15.027 C 207.029 15.101,207.154 15.026,207.154 14.836 C 207.154 14.490,206.821 14.412,206.634 14.713 M179.961 15.040 C 179.889 15.228,179.884 15.692,179.949 16.073 C 180.020 16.485,179.994 16.661,179.884 16.509 C 179.778 16.361,179.583 16.326,179.421 16.426 C 179.214 16.554,179.257 16.629,179.587 16.715 C 180.139 16.859,180.327 16.582,180.151 15.881 C 180.034 15.418,180.074 15.361,180.433 15.475 C 180.959 15.642,181.150 15.358,180.757 14.994 C 180.514 14.769,180.459 14.769,180.456 14.994 C 180.453 15.212,180.415 15.210,180.272 14.985 C 180.127 14.756,180.066 14.767,179.961 15.040 M205.708 15.203 C 205.840 15.599,206.300 15.665,206.300 15.287 C 206.300 15.101,206.148 14.949,205.962 14.949 C 205.776 14.949,205.662 15.063,205.708 15.203 M206.514 15.376 C 206.514 15.494,206.650 15.590,206.816 15.590 C 206.983 15.590,207.157 15.705,207.204 15.846 C 207.257 16.004,207.345 15.958,207.433 15.728 C 207.513 15.520,207.490 15.408,207.380 15.476 C 207.272 15.542,207.123 15.499,207.050 15.380 C 206.877 15.101,206.514 15.098,206.514 15.376 M180.459 16.050 C 180.459 16.359,180.843 16.433,181.064 16.167 C 181.234 15.963,181.187 15.895,180.874 15.895 C 180.646 15.895,180.459 15.965,180.459 16.050 M206.300 16.337 C 205.833 16.604,205.858 16.761,206.353 16.683 C 206.590 16.646,206.548 17.037,206.307 17.120 C 206.193 17.160,206.338 17.303,206.628 17.439 C 206.918 17.574,207.097 17.592,207.026 17.478 C 206.956 17.363,207.028 17.288,207.186 17.309 C 207.870 17.403,208.130 17.294,207.750 17.073 C 207.534 16.946,207.434 16.711,207.504 16.492 C 207.573 16.277,207.547 16.213,207.441 16.337 C 207.147 16.686,206.731 16.684,206.864 16.335 C 207.012 15.950,206.978 15.950,206.300 16.337 M179.221 17.341 C 178.904 17.658,178.880 19.007,179.190 19.007 C 179.315 19.007,179.361 19.096,179.294 19.206 C 179.226 19.315,179.268 19.465,179.388 19.539 C 179.507 19.612,179.605 19.559,179.605 19.421 C 179.605 19.236,179.693 19.241,179.934 19.442 C 180.193 19.656,180.319 19.659,180.522 19.455 C 180.723 19.252,180.710 19.222,180.459 19.317 C 180.269 19.389,180.024 19.256,179.858 18.991 C 179.600 18.577,179.616 18.552,180.072 18.666 C 180.344 18.734,180.445 18.734,180.298 18.666 C 180.150 18.599,180.077 18.466,180.136 18.370 C 180.195 18.275,180.100 18.142,179.924 18.075 C 179.749 18.008,179.602 18.070,179.598 18.213 C 179.595 18.356,179.494 18.304,179.373 18.098 C 179.134 17.686,179.303 17.218,179.620 17.414 C 179.729 17.482,179.818 17.435,179.818 17.311 C 179.818 17.010,179.537 17.024,179.221 17.341 M206.915 18.330 C 206.737 18.537,206.635 18.836,206.687 18.994 C 206.750 19.182,206.689 19.222,206.508 19.110 C 206.327 18.998,206.287 19.026,206.389 19.191 C 206.474 19.329,206.610 19.399,206.692 19.349 C 206.775 19.298,206.808 19.614,206.766 20.051 C 206.668 21.080,207.210 21.646,207.688 21.014 C 207.857 20.791,207.998 20.721,208.002 20.858 C 208.015 21.330,207.749 21.783,207.459 21.783 C 207.044 21.783,206.655 22.568,206.973 22.764 C 207.136 22.865,207.162 22.823,207.049 22.640 C 206.921 22.432,207.012 22.388,207.407 22.463 C 207.699 22.519,207.960 22.461,207.988 22.334 C 208.104 21.804,208.198 18.709,208.091 18.954 C 207.914 19.354,207.515 19.275,207.670 18.870 C 207.784 18.575,207.753 18.563,207.474 18.794 C 207.045 19.150,206.798 18.902,207.154 18.473 C 207.305 18.291,207.386 18.100,207.333 18.047 C 207.281 17.995,207.093 18.122,206.915 18.330 M207.758 20.207 C 207.710 20.630,207.557 20.834,207.261 20.870 C 207.026 20.898,206.944 20.870,207.078 20.808 C 207.213 20.746,207.274 20.509,207.214 20.281 C 207.155 20.054,207.168 19.706,207.244 19.508 C 207.456 18.957,207.841 19.481,207.758 20.207 M180.602 19.790 C 180.322 20.070,180.456 20.929,180.779 20.929 C 180.993 20.929,181.100 20.715,181.100 20.288 C 181.100 19.676,180.908 19.484,180.602 19.790 M178.964 21.997 C 178.964 22.688,179.140 22.792,179.594 22.371 C 179.792 22.186,179.837 22.182,179.738 22.358 C 179.647 22.521,179.751 22.600,180.027 22.579 C 180.486 22.545,180.645 22.037,180.192 22.054 C 179.533 22.079,179.178 21.980,179.178 21.771 C 179.178 21.646,179.289 21.613,179.424 21.697 C 179.577 21.791,179.613 21.755,179.519 21.603 C 179.240 21.152,178.964 21.348,178.964 21.997 M179.294 22.908 C 179.148 23.386,179.245 23.896,179.475 23.854 C 179.600 23.831,179.736 24.052,179.778 24.346 C 179.894 25.155,180.202 25.332,180.164 24.568 C 180.145 24.199,179.995 23.814,179.829 23.712 C 179.664 23.610,179.506 23.374,179.479 23.187 C 179.451 23.001,179.518 22.904,179.627 22.972 C 179.736 23.039,179.770 23.184,179.703 23.293 C 179.635 23.402,179.681 23.492,179.806 23.492 C 179.930 23.492,180.032 23.358,180.032 23.194 C 180.032 22.809,179.400 22.563,179.294 22.908 M207.210 23.131 C 206.963 23.463,206.991 23.972,207.261 24.059 C 207.608 24.172,208.018 23.114,207.678 22.983 C 207.524 22.925,207.314 22.991,207.210 23.131 M180.392 23.652 C 180.627 24.312,180.694 24.355,181.007 24.043 C 181.413 23.636,181.402 23.366,180.993 23.705 C 180.731 23.923,180.673 23.908,180.673 23.625 C 180.673 23.434,180.580 23.278,180.466 23.278 C 180.352 23.278,180.319 23.446,180.392 23.652 M205.978 25.204 C 205.904 25.323,205.739 25.356,205.612 25.277 C 205.469 25.189,205.442 25.234,205.541 25.395 C 205.630 25.538,205.756 25.602,205.821 25.537 C 205.971 25.387,206.514 25.824,206.514 26.093 C 206.514 26.203,206.426 26.239,206.320 26.174 C 206.213 26.108,206.176 26.245,206.237 26.479 C 206.384 27.041,206.727 26.810,206.727 26.149 C 206.727 25.862,206.814 25.651,206.919 25.681 C 207.025 25.710,207.097 25.640,207.080 25.524 C 207.062 25.409,206.869 25.344,206.650 25.381 C 206.409 25.422,206.309 25.358,206.396 25.218 C 206.475 25.091,206.443 24.987,206.325 24.987 C 206.208 24.987,206.051 25.084,205.978 25.204 M180.459 25.391 C 180.459 25.535,180.370 25.597,180.260 25.530 C 180.151 25.462,180.005 25.498,179.937 25.609 C 179.868 25.720,179.898 25.865,180.004 25.931 C 180.239 26.076,180.789 25.459,180.596 25.266 C 180.521 25.191,180.459 25.247,180.459 25.391 M180.611 26.481 C 180.488 26.952,180.774 27.263,180.997 26.902 C 181.097 26.741,181.219 26.742,181.414 26.904 C 181.617 27.072,181.723 27.050,181.811 26.818 C 181.893 26.605,181.832 26.542,181.620 26.623 C 181.426 26.697,181.337 26.633,181.383 26.452 C 181.424 26.292,181.417 26.233,181.367 26.321 C 181.318 26.410,181.184 26.482,181.069 26.482 C 180.955 26.482,180.920 26.385,180.993 26.268 C 181.066 26.151,181.034 26.054,180.924 26.054 C 180.813 26.054,180.672 26.247,180.611 26.481 M204.813 26.681 C 204.542 27.187,204.530 27.399,204.779 27.245 C 204.968 27.129,205.262 26.268,205.113 26.268 C 205.069 26.268,204.934 26.454,204.813 26.681 M206.191 27.339 C 206.117 27.459,205.973 27.505,205.871 27.442 C 205.769 27.378,205.587 27.497,205.465 27.705 C 205.344 27.913,205.242 27.963,205.239 27.816 C 205.235 27.670,205.133 27.549,205.011 27.549 C 204.861 27.549,204.864 27.687,205.019 27.977 C 205.183 28.283,205.181 28.404,205.014 28.404 C 204.885 28.404,204.835 28.493,204.903 28.602 C 205.104 28.928,204.561 29.125,204.345 28.805 C 204.181 28.561,204.153 28.566,204.181 28.831 C 204.267 29.637,204.165 30.016,203.951 29.685 C 203.820 29.482,203.743 29.460,203.741 29.625 C 203.739 29.768,203.617 29.839,203.470 29.783 C 203.303 29.718,203.203 29.870,203.203 30.189 C 203.203 30.508,203.303 30.660,203.469 30.596 C 203.615 30.540,203.686 30.415,203.626 30.318 C 203.566 30.221,203.607 30.086,203.718 30.017 C 203.828 29.949,203.963 30.063,204.017 30.270 C 204.109 30.625,204.116 30.625,204.140 30.272 C 204.153 30.067,204.309 29.899,204.485 29.899 C 204.666 29.899,204.805 29.707,204.805 29.459 C 204.805 29.217,204.877 29.063,204.965 29.116 C 205.053 29.170,205.310 28.968,205.536 28.667 C 205.761 28.366,205.817 28.199,205.660 28.297 C 205.448 28.428,205.410 28.377,205.516 28.101 C 205.595 27.896,205.659 27.682,205.659 27.626 C 205.659 27.570,205.745 27.577,205.849 27.641 C 205.953 27.706,206.157 27.615,206.302 27.440 C 206.447 27.265,206.512 27.122,206.446 27.122 C 206.379 27.122,206.265 27.220,206.191 27.339 M181.313 28.269 C 181.313 28.633,181.834 29.093,182.027 28.900 C 182.104 28.823,182.168 28.968,182.168 29.222 C 182.168 29.477,182.208 29.685,182.257 29.685 C 182.306 29.685,182.514 29.749,182.719 29.828 C 182.973 29.926,183.043 29.892,182.938 29.721 C 182.853 29.584,182.877 29.471,182.991 29.471 C 183.106 29.471,183.240 29.544,183.289 29.632 C 183.339 29.720,183.351 29.675,183.317 29.532 C 183.282 29.389,183.347 29.214,183.460 29.144 C 183.581 29.069,183.540 28.891,183.359 28.710 C 182.912 28.263,182.525 28.329,182.657 28.831 C 182.718 29.065,182.691 29.305,182.597 29.363 C 182.504 29.421,182.372 29.253,182.305 28.989 C 182.158 28.410,181.313 27.796,181.313 28.269 M183.435 30.351 C 183.257 30.685,183.256 30.765,183.434 30.656 C 183.566 30.574,183.848 30.721,184.060 30.983 C 184.397 31.398,184.463 31.414,184.580 31.109 C 184.663 30.893,184.615 30.778,184.456 30.809 C 184.313 30.837,184.221 30.739,184.250 30.593 C 184.279 30.446,184.183 30.350,184.036 30.379 C 183.889 30.408,183.793 30.312,183.823 30.166 C 183.905 29.753,183.704 29.849,183.435 30.351 M202.169 30.870 C 202.235 31.041,202.428 31.180,202.598 31.180 C 202.769 31.180,202.843 31.285,202.763 31.415 C 202.661 31.580,202.753 31.578,203.071 31.407 C 203.320 31.274,203.524 31.104,203.524 31.030 C 203.524 30.956,203.461 30.958,203.383 31.036 C 203.306 31.113,203.138 31.096,203.010 30.998 C 202.519 30.622,202.047 30.551,202.169 30.870 M185.424 31.758 C 184.832 31.872,184.790 32.156,185.366 32.156 C 185.598 32.156,185.835 32.033,185.893 31.882 C 185.951 31.731,185.977 31.620,185.952 31.636 C 185.926 31.652,185.689 31.707,185.424 31.758 M186.353 31.787 C 186.279 31.907,186.322 32.069,186.450 32.148 C 186.778 32.351,186.990 32.073,186.716 31.798 C 186.562 31.645,186.443 31.641,186.353 31.787 M187.216 32.141 C 187.343 32.473,187.194 32.524,186.168 32.503 C 185.838 32.496,185.634 32.582,185.706 32.698 C 185.776 32.812,186.007 32.851,186.218 32.784 C 186.459 32.707,186.652 32.792,186.736 33.013 C 186.845 33.296,186.932 33.313,187.187 33.102 C 187.360 32.958,187.453 32.761,187.394 32.665 C 187.335 32.569,187.385 32.429,187.507 32.355 C 187.751 32.204,187.593 31.821,187.287 31.821 C 187.180 31.821,187.148 31.965,187.216 32.141 M197.912 31.951 C 197.827 32.036,197.759 32.209,197.761 32.337 C 197.763 32.464,197.857 32.424,197.971 32.248 C 198.155 31.963,198.181 31.963,198.206 32.248 C 198.221 32.424,198.247 32.712,198.263 32.888 C 198.279 33.065,198.423 33.181,198.585 33.147 C 198.783 33.105,198.832 33.204,198.736 33.455 C 198.607 33.790,198.636 33.787,199.030 33.431 C 199.541 32.968,199.603 32.636,199.146 32.811 C 198.761 32.959,198.711 32.549,199.092 32.376 C 199.239 32.310,199.167 32.281,198.932 32.313 C 198.697 32.344,198.406 32.241,198.286 32.083 C 198.165 31.926,197.997 31.866,197.912 31.951 M200.305 32.220 C 200.423 32.439,200.458 32.679,200.384 32.754 C 200.310 32.828,200.361 32.888,200.498 32.888 C 200.635 32.888,200.747 32.787,200.747 32.662 C 200.747 32.538,200.868 32.504,201.014 32.587 C 201.161 32.670,201.069 32.531,200.810 32.279 C 200.229 31.715,200.022 31.690,200.305 32.220 M188.070 32.648 C 187.748 32.774,187.841 32.860,188.559 33.097 C 189.157 33.294,189.409 33.485,189.333 33.684 C 189.271 33.846,189.309 33.923,189.418 33.856 C 189.526 33.789,189.601 33.551,189.584 33.326 C 189.567 33.102,189.477 32.966,189.382 33.024 C 189.113 33.190,188.341 32.880,188.477 32.659 C 188.616 32.435,188.612 32.435,188.070 32.648 M191.468 32.728 C 191.422 32.875,191.348 33.131,191.303 33.297 C 191.200 33.676,190.494 33.793,190.130 33.491 C 189.935 33.329,189.856 33.332,189.856 33.503 C 189.856 33.635,189.941 33.743,190.046 33.743 C 190.150 33.743,190.222 33.911,190.206 34.116 C 190.187 34.353,190.352 34.515,190.657 34.558 C 190.993 34.606,191.137 34.518,191.137 34.265 C 191.137 33.966,191.193 33.950,191.463 34.174 C 191.642 34.323,191.836 34.396,191.895 34.337 C 191.954 34.279,191.863 34.116,191.694 33.976 C 191.469 33.789,191.435 33.552,191.568 33.091 C 191.738 32.496,191.645 32.159,191.468 32.728 M195.324 32.711 C 195.430 32.883,195.358 32.915,195.093 32.813 C 194.773 32.690,194.752 32.718,194.967 32.978 C 195.109 33.150,195.366 33.237,195.536 33.171 C 195.775 33.080,195.790 32.984,195.601 32.757 C 195.303 32.397,195.110 32.365,195.324 32.711 M199.503 33.123 C 199.098 33.771,199.341 33.858,199.762 33.215 C 199.957 32.918,200.041 32.675,199.950 32.675 C 199.858 32.675,199.657 32.876,199.503 33.123 M197.266 33.038 C 196.957 33.118,196.931 33.199,197.136 33.445 C 197.346 33.698,197.322 33.726,197.005 33.604 C 196.754 33.508,196.670 33.537,196.763 33.688 C 196.842 33.816,196.833 33.960,196.745 34.010 C 196.656 34.059,196.694 34.074,196.829 34.043 C 196.964 34.011,197.135 34.046,197.209 34.119 C 197.462 34.372,197.978 34.354,197.818 34.098 C 197.594 33.740,197.616 33.234,197.864 33.052 C 198.102 32.877,197.902 32.873,197.266 33.038 M195.894 34.170 C 195.871 34.483,195.987 34.590,196.329 34.572 C 196.672 34.554,196.700 34.522,196.435 34.452 C 196.224 34.397,196.122 34.228,196.191 34.050 C 196.255 33.881,196.222 33.743,196.117 33.743 C 196.012 33.743,195.912 33.935,195.894 34.170 M192.345 34.223 C 192.399 34.311,192.865 34.383,193.380 34.383 C 193.894 34.383,194.360 34.311,194.414 34.223 C 194.468 34.135,194.002 34.063,193.379 34.063 C 192.756 34.063,192.290 34.135,192.345 34.223 " stroke="none" fill="#a4bcac" fill-rule="evenodd"></path><path id="path2" d="M161.258 5.636 C 161.107 5.818,160.446 5.964,159.539 6.015 C 158.538 6.072,157.937 6.216,157.660 6.466 C 157.417 6.687,156.908 6.834,156.389 6.834 C 155.914 6.834,155.416 6.966,155.282 7.127 C 155.148 7.288,154.635 7.473,154.142 7.540 C 153.649 7.606,153.135 7.810,153.001 7.994 C 152.866 8.178,152.545 8.329,152.287 8.329 C 151.837 8.329,150.158 8.975,149.493 9.404 C 149.317 9.518,148.932 9.710,148.639 9.831 C 147.861 10.150,147.743 10.212,147.037 10.677 C 146.684 10.909,146.200 11.186,145.960 11.293 C 145.721 11.400,145.396 11.642,145.240 11.830 C 145.084 12.019,144.838 12.173,144.694 12.173 C 144.550 12.173,144.202 12.363,143.919 12.596 C 143.166 13.217,143.070 13.288,142.018 13.983 C 141.490 14.333,140.851 14.813,140.599 15.051 C 140.347 15.289,139.779 15.771,139.338 16.124 C 138.344 16.917,135.015 20.247,134.437 21.027 C 134.202 21.343,133.721 21.911,133.369 22.288 C 133.017 22.666,132.440 23.404,132.088 23.928 C 131.736 24.451,131.400 24.928,131.341 24.987 C 131.024 25.302,130.313 26.444,130.187 26.840 C 130.108 27.091,129.902 27.350,129.730 27.416 C 129.559 27.482,129.418 27.716,129.418 27.937 C 129.418 28.158,129.245 28.538,129.033 28.782 C 128.822 29.026,128.471 29.593,128.254 30.043 C 128.038 30.492,127.781 31.004,127.684 31.180 C 126.877 32.647,126.453 33.570,126.331 34.126 C 126.252 34.486,126.049 34.895,125.881 35.035 C 125.712 35.175,125.574 35.498,125.574 35.752 C 125.574 36.007,125.382 36.592,125.147 37.053 C 124.912 37.514,124.720 38.003,124.720 38.141 C 124.720 38.279,124.576 38.667,124.401 39.004 C 124.225 39.340,124.081 39.992,124.080 40.453 C 124.080 40.917,123.928 41.458,123.740 41.665 C 123.547 41.878,123.350 42.600,123.283 43.335 C 123.219 44.048,123.035 44.740,122.875 44.872 C 122.680 45.034,122.584 45.609,122.584 46.619 C 122.584 47.738,122.491 48.228,122.220 48.527 C 121.928 48.849,121.837 49.472,121.766 51.641 C 121.706 53.466,121.581 54.489,121.383 54.773 C 120.947 55.398,120.954 69.149,121.391 70.123 C 121.572 70.525,121.733 71.806,121.791 73.311 C 121.865 75.236,121.969 75.916,122.236 76.210 C 122.481 76.482,122.584 77.000,122.585 77.967 C 122.586 78.721,122.715 79.583,122.871 79.883 C 123.027 80.182,123.216 80.940,123.290 81.567 C 123.364 82.194,123.572 82.869,123.752 83.068 C 123.932 83.267,124.079 83.761,124.079 84.166 C 124.079 84.571,124.211 85.092,124.373 85.324 C 124.534 85.555,124.736 86.160,124.821 86.667 C 124.906 87.175,125.110 87.641,125.275 87.705 C 125.439 87.768,125.574 88.055,125.574 88.342 C 125.574 88.630,125.752 89.268,125.970 89.761 C 126.187 90.254,126.427 90.801,126.502 90.977 C 126.577 91.153,126.725 91.442,126.830 91.618 C 126.935 91.794,127.293 92.515,127.626 93.219 C 127.958 93.924,128.305 94.533,128.397 94.572 C 128.489 94.611,128.564 94.814,128.564 95.024 C 128.564 95.233,128.756 95.649,128.991 95.947 C 129.226 96.246,129.418 96.576,129.418 96.680 C 129.418 96.884,129.934 97.613,130.539 98.263 C 130.745 98.484,130.913 98.794,130.913 98.952 C 130.913 99.110,131.159 99.519,131.460 99.860 C 131.760 100.201,132.361 101.009,132.794 101.654 C 133.788 103.133,139.705 109.038,141.209 110.052 C 141.830 110.470,142.618 111.059,142.959 111.359 C 143.300 111.660,143.694 111.906,143.834 111.906 C 143.974 111.906,144.286 112.074,144.528 112.280 C 145.479 113.087,146.819 113.885,147.998 114.346 C 148.174 114.414,148.799 114.752,149.386 115.096 C 149.973 115.440,150.658 115.728,150.908 115.736 C 151.158 115.744,151.483 115.895,151.630 116.072 C 151.777 116.250,152.268 116.454,152.720 116.526 C 153.172 116.598,153.652 116.790,153.786 116.951 C 153.920 117.113,154.363 117.245,154.771 117.245 C 155.189 117.245,155.749 117.431,156.055 117.672 C 156.381 117.928,156.921 118.099,157.406 118.099 C 157.850 118.099,158.249 118.208,158.294 118.341 C 158.341 118.482,159.253 118.657,160.483 118.760 C 161.801 118.872,162.656 119.041,162.762 119.213 C 163.005 119.607,166.724 119.700,167.432 119.329 C 168.476 118.783,167.884 116.998,166.563 116.708 C 166.238 116.637,165.924 116.452,165.865 116.298 C 165.806 116.145,165.501 115.954,165.188 115.876 C 164.875 115.797,164.362 115.494,164.050 115.202 C 163.737 114.910,163.097 114.411,162.627 114.092 C 161.595 113.392,159.957 111.890,159.957 111.644 C 159.957 111.417,158.264 109.260,158.012 109.165 C 157.907 109.126,157.822 108.917,157.822 108.700 C 157.822 108.483,157.682 108.167,157.512 107.996 C 157.341 107.826,157.137 107.427,157.057 107.109 C 156.978 106.792,156.781 106.482,156.620 106.420 C 156.459 106.358,156.327 106.117,156.327 105.883 C 156.327 105.649,156.188 105.203,156.019 104.891 C 155.850 104.580,155.653 103.959,155.580 103.513 C 155.508 103.066,155.310 102.647,155.140 102.582 C 154.943 102.506,154.832 102.157,154.832 101.611 C 154.832 101.142,154.697 100.456,154.531 100.086 C 154.366 99.716,154.179 98.838,154.115 98.136 C 154.042 97.340,153.874 96.768,153.668 96.618 C 153.406 96.426,153.337 95.913,153.337 94.151 C 153.337 92.621,153.246 91.795,153.046 91.505 C 152.827 91.189,152.717 89.620,152.603 85.211 C 152.486 80.695,152.380 79.229,152.146 78.865 C 151.706 78.181,151.689 46.038,152.128 45.599 C 152.413 45.314,152.696 40.304,152.696 35.548 C 152.696 34.216,152.800 33.380,153.015 32.966 C 153.228 32.558,153.335 31.722,153.336 30.449 C 153.337 29.030,153.421 28.451,153.668 28.179 C 153.870 27.955,154.048 27.204,154.126 26.240 C 154.196 25.374,154.384 24.477,154.543 24.245 C 154.702 24.013,154.832 23.473,154.832 23.043 C 154.832 22.614,154.970 22.148,155.138 22.008 C 155.307 21.868,155.506 21.448,155.581 21.074 C 155.730 20.336,155.976 19.738,157.137 17.298 C 157.557 16.418,158.026 15.620,158.181 15.526 C 158.336 15.432,158.462 15.226,158.462 15.068 C 158.462 14.911,158.607 14.726,158.783 14.658 C 158.959 14.591,159.103 14.389,159.103 14.209 C 159.103 13.745,162.886 10.041,163.713 9.695 C 164.093 9.537,164.436 9.333,164.476 9.242 C 164.516 9.151,164.931 8.884,165.398 8.649 C 165.865 8.414,166.421 8.050,166.634 7.840 C 166.848 7.630,167.258 7.368,167.547 7.258 C 168.309 6.968,168.294 5.840,167.525 5.547 C 166.633 5.208,161.554 5.280,161.258 5.636 M227.005 6.140 C 226.742 6.580,226.480 7.421,226.424 8.009 C 226.368 8.596,226.176 9.244,225.997 9.448 C 225.818 9.652,225.625 10.325,225.567 10.943 C 225.509 11.561,225.331 12.256,225.171 12.487 C 225.011 12.719,224.880 13.203,224.880 13.563 C 224.880 13.924,224.688 14.595,224.453 15.056 C 224.218 15.517,224.026 16.246,224.026 16.677 C 224.026 17.112,223.883 17.578,223.705 17.726 C 223.505 17.891,223.384 18.363,223.384 18.980 C 223.383 19.606,223.227 20.202,222.958 20.609 C 222.385 21.473,222.385 23.036,222.958 23.764 C 223.193 24.062,223.386 24.628,223.386 25.020 C 223.387 25.413,223.521 25.991,223.685 26.304 C 223.848 26.617,224.048 27.261,224.127 27.733 C 224.207 28.206,224.409 28.706,224.576 28.845 C 224.743 28.983,224.880 29.383,224.880 29.732 C 224.880 30.082,225.016 30.671,225.181 31.041 C 225.347 31.411,225.542 32.065,225.614 32.493 C 225.686 32.922,225.887 33.390,226.060 33.534 C 226.233 33.677,226.375 34.098,226.375 34.469 C 226.375 34.839,226.505 35.332,226.664 35.564 C 226.823 35.795,227.009 36.414,227.077 36.939 C 227.145 37.463,227.351 38.002,227.535 38.137 C 227.739 38.286,227.870 38.706,227.871 39.212 C 227.872 39.669,228.016 40.318,228.191 40.654 C 228.367 40.991,228.510 41.427,228.510 41.624 C 228.510 41.820,228.703 42.358,228.938 42.819 C 229.172 43.280,229.365 43.853,229.366 44.092 C 229.367 44.332,229.501 44.784,229.665 45.097 C 229.828 45.411,230.028 46.061,230.110 46.543 C 230.191 47.025,230.393 47.554,230.559 47.720 C 230.724 47.885,230.860 48.325,230.860 48.697 C 230.860 49.069,230.998 49.629,231.167 49.940 C 231.336 50.252,231.531 50.858,231.600 51.287 C 231.669 51.715,231.867 52.184,232.040 52.327 C 232.215 52.472,232.355 52.944,232.355 53.390 C 232.355 53.843,232.494 54.308,232.675 54.458 C 232.851 54.604,232.995 55.028,232.995 55.400 C 232.995 55.772,233.187 56.453,233.422 56.914 C 233.657 57.375,233.850 57.948,233.851 58.187 C 233.851 58.427,233.990 58.886,234.158 59.209 C 234.326 59.531,234.528 60.225,234.607 60.750 C 234.686 61.276,234.884 61.816,235.047 61.952 C 235.211 62.088,235.344 62.485,235.344 62.834 C 235.344 63.184,235.483 63.773,235.652 64.143 C 235.821 64.513,236.064 65.220,236.192 65.714 C 236.319 66.209,236.517 66.671,236.632 66.741 C 236.746 66.812,236.839 67.179,236.839 67.557 C 236.839 67.935,236.980 68.446,237.153 68.692 C 237.325 68.938,237.529 69.560,237.605 70.074 C 237.681 70.588,237.877 71.222,238.039 71.482 C 238.201 71.742,238.337 72.175,238.341 72.443 C 238.345 72.712,238.534 73.316,238.761 73.785 C 238.988 74.255,239.177 74.940,239.181 75.308 C 239.185 75.675,239.333 76.095,239.509 76.241 C 239.685 76.388,239.829 76.761,239.829 77.071 C 239.829 77.382,240.021 77.994,240.256 78.433 C 240.491 78.871,240.683 79.511,240.683 79.856 C 240.683 80.200,240.828 80.626,241.004 80.802 C 241.180 80.979,241.324 81.453,241.324 81.857 C 241.324 82.267,241.512 82.830,241.751 83.134 C 241.992 83.440,242.178 84.000,242.178 84.418 C 242.178 84.825,242.310 85.268,242.472 85.402 C 242.633 85.536,242.812 86.126,242.868 86.712 C 242.924 87.298,243.128 87.953,243.322 88.166 C 243.515 88.380,243.674 88.835,243.675 89.179 C 243.675 89.522,243.810 90.059,243.973 90.372 C 244.137 90.686,244.336 91.329,244.416 91.802 C 244.496 92.274,244.698 92.774,244.865 92.913 C 245.032 93.052,245.168 93.451,245.168 93.800 C 245.168 94.149,245.307 94.690,245.476 95.002 C 245.645 95.314,245.840 95.919,245.908 96.348 C 245.977 96.777,246.175 97.245,246.348 97.389 C 246.525 97.535,246.663 98.007,246.663 98.463 C 246.663 98.910,246.791 99.403,246.947 99.560 C 247.104 99.716,247.297 100.317,247.376 100.896 C 247.455 101.474,247.664 102.167,247.839 102.435 C 248.014 102.702,248.159 103.141,248.159 103.409 C 248.160 103.678,248.294 104.154,248.458 104.467 C 248.621 104.781,248.822 105.431,248.903 105.913 C 248.985 106.395,249.187 106.924,249.352 107.090 C 249.518 107.255,249.654 107.662,249.654 107.993 C 249.655 108.325,249.789 108.852,249.953 109.166 C 250.116 109.479,250.316 110.122,250.395 110.595 C 250.475 111.068,250.677 111.568,250.844 111.706 C 251.011 111.845,251.148 112.324,251.148 112.771 C 251.148 113.218,251.292 113.728,251.468 113.904 C 251.644 114.081,251.789 114.409,251.789 114.635 C 251.789 115.198,252.220 116.391,252.424 116.391 C 252.515 116.391,252.632 116.903,252.684 117.529 C 252.752 118.348,252.946 118.886,253.377 119.451 L 253.975 120.235 267.682 120.235 C 278.057 120.235,281.450 120.173,281.644 119.979 C 281.997 119.626,281.967 117.351,281.599 116.530 C 281.433 116.160,281.237 115.500,281.164 115.063 C 281.090 114.626,280.889 114.129,280.718 113.957 C 280.546 113.785,280.406 113.341,280.406 112.969 C 280.406 112.597,280.267 112.037,280.098 111.725 C 279.929 111.414,279.734 110.808,279.665 110.379 C 279.597 109.951,279.399 109.482,279.226 109.339 C 279.051 109.193,278.911 108.721,278.911 108.275 C 278.911 107.823,278.771 107.358,278.590 107.208 C 278.414 107.061,278.268 106.641,278.265 106.274 C 278.263 105.907,278.071 105.187,277.838 104.675 C 277.606 104.163,277.415 103.538,277.415 103.287 C 277.414 103.035,277.279 102.573,277.116 102.260 C 276.952 101.946,276.752 101.296,276.671 100.814 C 276.589 100.332,276.387 99.803,276.222 99.637 C 276.056 99.472,275.921 99.080,275.921 98.766 C 275.921 98.453,275.785 97.893,275.619 97.523 C 275.454 97.153,275.259 96.499,275.187 96.071 C 275.114 95.642,274.914 95.174,274.741 95.030 C 274.568 94.886,274.425 94.420,274.425 93.994 C 274.424 93.568,274.275 92.935,274.094 92.588 C 273.913 92.241,273.709 91.545,273.640 91.042 C 273.571 90.539,273.383 90.019,273.223 89.885 C 273.062 89.752,272.931 89.391,272.930 89.082 C 272.929 88.774,272.784 88.244,272.607 87.906 C 272.431 87.567,272.226 86.912,272.152 86.450 C 272.078 85.987,271.887 85.479,271.727 85.319 C 271.567 85.159,271.436 84.706,271.436 84.313 C 271.436 83.919,271.295 83.396,271.123 83.150 C 270.950 82.904,270.744 82.297,270.665 81.803 C 270.586 81.308,270.391 80.853,270.231 80.792 C 270.051 80.723,269.941 80.344,269.941 79.792 C 269.941 79.304,269.749 78.546,269.514 78.108 C 269.279 77.669,269.087 77.061,269.087 76.756 C 269.087 76.450,268.949 75.945,268.780 75.634 C 268.610 75.322,268.416 74.716,268.347 74.287 C 268.278 73.859,268.080 73.390,267.907 73.247 C 267.732 73.102,267.592 72.630,267.592 72.184 C 267.592 71.731,267.452 71.266,267.272 71.116 C 267.088 70.963,266.951 70.497,266.951 70.022 C 266.951 69.479,266.805 69.047,266.524 68.767 C 266.255 68.498,266.097 68.055,266.097 67.571 C 266.097 67.148,265.961 66.500,265.796 66.129 C 265.630 65.759,265.434 65.099,265.360 64.662 C 265.286 64.226,265.086 63.728,264.914 63.557 C 264.743 63.385,264.602 62.971,264.602 62.636 C 264.602 62.302,264.472 61.838,264.313 61.607 C 264.154 61.375,263.970 60.769,263.904 60.261 C 263.838 59.753,263.632 59.169,263.446 58.963 C 263.260 58.757,263.107 58.248,263.107 57.831 C 263.107 57.414,262.975 56.963,262.814 56.829 C 262.652 56.696,262.474 56.106,262.418 55.520 C 262.361 54.933,262.157 54.279,261.964 54.065 C 261.771 53.852,261.612 53.396,261.611 53.053 C 261.610 52.710,261.480 52.180,261.321 51.875 C 261.162 51.571,260.962 50.946,260.877 50.487 C 260.792 50.028,260.599 49.509,260.448 49.333 C 260.297 49.156,260.120 48.590,260.055 48.074 C 259.990 47.558,259.847 47.077,259.739 47.006 C 259.630 46.935,259.486 46.461,259.420 45.952 C 259.354 45.444,259.147 44.860,258.961 44.654 C 258.775 44.449,258.623 43.994,258.623 43.644 C 258.623 43.294,258.481 42.821,258.309 42.593 C 258.137 42.365,257.992 41.886,257.989 41.529 C 257.985 41.173,257.790 40.503,257.555 40.043 C 257.320 39.582,257.127 38.961,257.126 38.663 C 257.126 38.365,256.981 37.844,256.804 37.505 C 256.627 37.167,256.422 36.511,256.349 36.049 C 256.275 35.587,256.083 35.078,255.923 34.918 C 255.764 34.758,255.633 34.354,255.633 34.019 C 255.633 33.684,255.502 33.221,255.342 32.989 C 255.182 32.758,254.983 32.106,254.900 31.541 C 254.815 30.963,254.615 30.463,254.443 30.397 C 254.248 30.322,254.135 29.960,254.131 29.395 C 254.127 28.909,253.938 28.126,253.711 27.656 C 253.484 27.186,253.295 26.556,253.291 26.255 C 253.287 25.955,253.142 25.522,252.970 25.294 C 252.798 25.066,252.650 24.640,252.642 24.346 C 252.635 24.052,252.443 23.428,252.216 22.958 C 251.989 22.488,251.800 21.851,251.796 21.542 C 251.792 21.234,251.644 20.862,251.468 20.715 C 251.292 20.569,251.147 20.101,251.146 19.675 C 251.146 19.249,250.954 18.612,250.721 18.259 C 250.487 17.907,250.295 17.330,250.294 16.978 C 250.292 16.626,250.147 16.062,249.972 15.726 C 249.797 15.389,249.653 14.953,249.653 14.756 C 249.653 14.560,249.461 14.022,249.226 13.561 C 248.991 13.100,248.799 12.477,248.799 12.175 C 248.799 11.874,248.669 11.438,248.510 11.206 C 248.351 10.974,248.165 10.356,248.097 9.831 C 248.029 9.307,247.822 8.768,247.638 8.633 C 247.448 8.494,247.304 8.075,247.304 7.661 C 247.304 7.234,247.080 6.604,246.762 6.136 L 246.221 5.339 236.853 5.339 L 227.485 5.339 227.005 6.140 M207.312 74.266 C 207.128 74.471,206.907 75.024,206.822 75.494 C 206.736 75.964,206.536 76.538,206.377 76.769 C 206.217 77.001,206.086 77.570,206.086 78.034 C 206.086 78.504,205.937 79.043,205.748 79.251 C 205.562 79.457,205.357 80.016,205.293 80.493 C 205.229 80.970,205.045 81.470,204.884 81.603 C 204.723 81.737,204.592 82.111,204.592 82.435 C 204.592 82.758,204.450 83.141,204.277 83.284 C 204.104 83.428,203.897 83.894,203.817 84.319 C 203.737 84.745,203.542 85.223,203.384 85.381 C 203.226 85.539,203.097 85.890,203.097 86.161 C 203.097 86.432,202.955 86.771,202.782 86.915 C 202.609 87.058,202.404 87.527,202.328 87.955 C 202.251 88.384,202.080 88.879,201.947 89.055 C 201.709 89.371,200.890 90.994,200.654 91.618 C 200.466 92.114,199.273 94.187,198.590 95.202 C 198.252 95.706,197.916 96.354,197.843 96.644 C 197.771 96.933,197.631 97.170,197.533 97.170 C 197.367 97.170,197.171 97.473,196.433 98.870 C 196.281 99.158,195.892 99.684,195.569 100.039 C 195.246 100.393,194.981 100.788,194.981 100.917 C 194.981 101.046,194.687 101.481,194.327 101.884 C 193.966 102.286,193.350 103.097,192.957 103.684 C 192.564 104.271,191.657 105.355,190.942 106.093 C 190.227 106.831,189.642 107.488,189.642 107.552 C 189.642 107.719,185.241 112.023,183.771 113.294 C 183.091 113.881,182.381 114.511,182.191 114.693 C 182.002 114.875,181.596 115.181,181.290 115.373 C 180.657 115.768,180.345 116.847,180.682 117.476 C 180.948 117.973,181.997 118.028,182.381 117.565 C 182.527 117.389,182.876 117.245,183.156 117.245 C 183.435 117.245,184.023 117.053,184.461 116.818 C 184.899 116.583,185.368 116.391,185.502 116.391 C 185.636 116.391,185.866 116.247,186.012 116.070 C 186.158 115.894,186.530 115.750,186.839 115.749 C 187.147 115.748,187.675 115.604,188.012 115.428 C 188.348 115.253,188.784 115.109,188.981 115.109 C 189.178 115.109,189.715 114.917,190.176 114.682 C 190.637 114.447,191.309 114.255,191.669 114.255 C 192.029 114.255,192.513 114.125,192.745 113.966 C 192.979 113.806,194.065 113.616,195.195 113.539 C 196.624 113.442,197.294 113.306,197.461 113.081 C 197.764 112.671,198.490 112.671,199.115 113.080 C 199.383 113.256,200.219 113.464,200.973 113.543 C 201.727 113.622,202.472 113.814,202.629 113.971 C 202.786 114.127,203.079 114.255,203.282 114.255 C 203.912 114.255,205.423 115.966,206.078 117.420 C 206.832 119.094,208.014 119.826,208.676 119.027 C 209.212 118.382,209.101 74.937,208.563 74.342 C 208.067 73.794,207.753 73.775,207.312 74.266 M22.216 153.548 C 21.808 153.648,21.440 153.833,21.397 153.960 C 21.355 154.087,20.962 154.191,20.525 154.191 C 20.087 154.191,19.543 154.332,19.315 154.505 C 19.087 154.677,18.732 154.821,18.526 154.825 C 18.321 154.829,17.960 155.024,17.726 155.259 C 17.491 155.494,17.105 155.686,16.869 155.686 C 16.633 155.686,16.275 155.878,16.074 156.113 C 15.873 156.348,15.601 156.540,15.469 156.540 C 15.337 156.540,15.055 156.733,14.842 156.967 C 14.630 157.202,14.382 157.395,14.292 157.395 C 13.949 157.395,10.678 160.966,10.678 161.341 C 10.678 161.424,10.486 161.736,10.251 162.035 C 10.016 162.333,9.824 162.747,9.824 162.953 C 9.824 163.160,9.680 163.384,9.503 163.451 C 9.327 163.519,9.180 163.698,9.176 163.848 C 9.172 163.999,8.983 164.506,8.756 164.976 C 8.529 165.446,8.340 166.143,8.336 166.524 C 8.332 166.906,8.242 167.218,8.136 167.218 C 7.822 167.218,7.475 168.483,7.468 169.653 C 7.464 170.270,7.325 170.922,7.148 171.157 C 6.698 171.750,6.681 182.625,7.129 183.073 C 7.311 183.255,7.456 184.001,7.508 185.031 C 7.572 186.292,7.681 186.760,7.960 186.964 C 8.190 187.132,8.329 187.520,8.329 187.995 C 8.329 188.415,8.473 188.902,8.649 189.078 C 8.825 189.254,8.970 189.543,8.970 189.720 C 8.970 190.132,9.289 190.859,9.827 191.671 C 10.061 192.023,10.393 192.615,10.566 192.985 C 11.010 193.937,14.476 197.375,15.721 198.098 C 16.295 198.431,16.892 198.828,17.047 198.978 C 17.202 199.129,17.562 199.253,17.848 199.253 C 18.133 199.253,18.366 199.345,18.366 199.458 C 18.366 199.570,18.775 199.772,19.274 199.906 C 19.773 200.039,20.437 200.284,20.748 200.448 C 21.078 200.622,21.939 200.747,22.804 200.747 C 23.868 200.747,24.370 200.839,24.560 201.068 C 24.770 201.322,25.389 201.388,27.549 201.388 C 29.710 201.388,30.328 201.322,30.539 201.068 C 30.731 200.837,31.239 200.747,32.365 200.747 C 33.379 200.747,34.025 200.648,34.210 200.463 C 34.366 200.307,34.865 200.119,35.319 200.045 C 35.773 199.972,36.309 199.763,36.509 199.582 C 36.709 199.401,37.014 199.253,37.186 199.253 C 37.359 199.253,37.688 199.107,37.917 198.930 C 38.146 198.752,38.778 198.319,39.320 197.968 C 40.962 196.902,43.128 194.587,43.442 193.560 C 43.519 193.306,43.714 193.048,43.875 192.987 C 44.035 192.925,44.230 192.586,44.308 192.234 C 44.385 191.882,44.586 191.479,44.755 191.339 C 45.166 190.998,45.147 189.545,44.726 189.124 C 44.452 188.850,43.825 188.788,41.310 188.788 L 38.231 188.788 37.708 189.375 C 37.420 189.698,36.843 190.347,36.425 190.817 C 36.007 191.287,35.665 191.743,35.665 191.831 C 35.665 191.919,35.545 191.994,35.398 191.997 C 35.251 192.001,34.851 192.289,34.508 192.638 C 34.165 192.987,33.757 193.273,33.600 193.273 C 33.442 193.273,32.955 193.465,32.517 193.700 C 32.079 193.935,31.509 194.127,31.252 194.127 C 30.994 194.127,30.639 194.271,30.463 194.447 C 30.010 194.900,24.663 194.919,24.490 194.469 C 24.427 194.304,23.961 194.100,23.453 194.015 C 22.946 193.930,22.341 193.728,22.109 193.566 C 21.878 193.405,21.514 193.273,21.302 193.273 C 21.089 193.273,20.860 193.129,20.793 192.952 C 20.725 192.776,20.577 192.632,20.463 192.632 C 19.942 192.632,16.444 188.722,16.444 188.139 C 16.444 187.937,16.300 187.653,16.124 187.507 C 15.948 187.360,15.800 186.988,15.796 186.680 C 15.792 186.371,15.603 185.734,15.376 185.264 C 15.149 184.794,14.961 184.013,14.957 183.529 C 14.952 183.013,14.816 182.537,14.629 182.381 C 14.176 182.005,14.153 173.005,14.604 172.283 C 14.766 172.023,14.957 171.203,15.029 170.462 C 15.102 169.703,15.300 168.973,15.481 168.791 C 15.659 168.614,15.804 168.248,15.804 167.977 C 15.804 167.706,15.948 167.365,16.124 167.218 C 16.300 167.072,16.444 166.724,16.444 166.445 C 16.444 166.165,16.539 165.937,16.655 165.937 C 16.771 165.937,16.996 165.624,17.156 165.241 C 17.542 164.319,19.919 161.923,20.823 161.545 C 21.218 161.380,21.601 161.148,21.674 161.028 C 21.748 160.909,22.046 160.812,22.336 160.812 C 22.627 160.812,22.920 160.667,22.987 160.491 C 23.076 160.259,23.442 160.170,24.315 160.170 C 24.978 160.169,25.796 160.025,26.132 159.849 C 26.469 159.674,27.154 159.530,27.656 159.530 C 28.158 159.530,28.844 159.674,29.180 159.849 C 29.517 160.025,30.236 160.169,30.780 160.170 C 31.397 160.170,31.868 160.291,32.034 160.491 C 32.180 160.667,32.469 160.812,32.675 160.812 C 32.881 160.812,33.161 160.946,33.298 161.111 C 33.435 161.276,33.780 161.469,34.065 161.540 C 34.696 161.699,36.739 163.690,37.104 164.503 C 37.489 165.360,38.133 165.510,41.430 165.510 C 44.653 165.510,45.061 165.374,45.061 164.307 C 45.061 163.772,44.111 161.556,43.687 161.102 C 43.562 160.968,43.268 160.584,43.034 160.248 C 42.426 159.375,39.688 156.540,39.453 156.540 C 39.345 156.540,39.011 156.348,38.713 156.113 C 38.414 155.878,38.039 155.686,37.878 155.686 C 37.718 155.686,37.395 155.494,37.160 155.259 C 36.925 155.024,36.581 154.832,36.397 154.832 C 36.212 154.832,35.917 154.688,35.741 154.511 C 35.565 154.335,35.075 154.191,34.652 154.191 C 34.219 154.191,33.703 154.028,33.471 153.817 C 33.009 153.399,23.732 153.177,22.216 153.548 M190.246 154.335 C 189.887 154.430,189.429 155.431,189.429 156.119 C 189.429 156.322,189.285 156.608,189.108 156.754 C 188.932 156.900,188.788 157.285,188.788 157.608 C 188.788 157.932,188.643 158.317,188.466 158.464 C 188.289 158.611,188.084 159.102,188.012 159.554 C 187.940 160.006,187.748 160.486,187.587 160.620 C 187.425 160.754,187.293 161.188,187.293 161.585 C 187.293 162.022,187.125 162.475,186.866 162.734 C 186.631 162.968,186.439 163.389,186.439 163.668 C 186.439 163.948,186.295 164.296,186.119 164.442 C 185.942 164.588,185.798 165.021,185.798 165.403 C 185.798 165.785,185.660 166.213,185.492 166.353 C 185.323 166.493,185.122 166.895,185.044 167.248 C 184.967 167.600,184.769 168.146,184.605 168.461 C 184.440 168.776,184.305 169.154,184.305 169.301 C 184.304 169.449,184.111 169.928,183.876 170.366 C 183.641 170.804,183.449 171.417,183.449 171.727 C 183.449 172.038,183.305 172.411,183.129 172.557 C 182.952 172.704,182.805 172.980,182.801 173.171 C 182.797 173.362,182.608 173.903,182.381 174.373 C 182.154 174.842,181.965 175.443,181.961 175.707 C 181.957 175.972,181.862 176.188,181.749 176.188 C 181.636 176.188,181.441 176.596,181.315 177.096 C 181.190 177.595,180.946 178.258,180.773 178.570 C 180.601 178.882,180.459 179.338,180.459 179.584 C 180.459 179.831,180.367 180.032,180.254 180.032 C 180.141 180.032,179.946 180.440,179.821 180.940 C 179.695 181.439,179.451 182.102,179.278 182.414 C 179.106 182.726,178.964 183.114,178.964 183.277 C 178.964 183.439,178.772 183.949,178.537 184.410 C 178.302 184.871,178.110 185.361,178.110 185.499 C 178.110 185.637,177.966 186.025,177.791 186.361 C 177.615 186.698,177.471 187.227,177.471 187.537 C 177.470 187.848,177.334 188.153,177.169 188.217 C 177.004 188.280,176.803 188.633,176.722 189.002 C 176.641 189.370,176.440 189.929,176.276 190.244 C 176.112 190.559,175.976 191.040,175.976 191.313 C 175.975 191.585,175.830 191.953,175.654 192.129 C 175.478 192.305,175.274 192.825,175.200 193.284 C 175.127 193.743,174.935 194.229,174.773 194.363 C 174.612 194.497,174.479 194.883,174.479 195.221 C 174.479 195.559,174.387 195.836,174.274 195.836 C 174.162 195.836,173.960 196.244,173.826 196.743 C 173.693 197.242,173.439 197.922,173.263 198.253 C 172.287 200.089,173.235 200.747,176.857 200.747 C 179.697 200.747,180.148 200.612,180.348 199.699 C 180.424 199.356,180.624 199.022,180.793 198.957 C 180.962 198.892,181.100 198.643,181.100 198.404 C 181.100 198.165,181.292 197.611,181.527 197.173 C 181.762 196.734,181.954 196.110,181.954 195.785 C 181.954 195.461,182.046 195.195,182.159 195.195 C 182.272 195.195,182.467 194.786,182.593 194.287 C 182.718 193.788,182.962 193.125,183.135 192.813 C 183.308 192.501,183.449 192.113,183.449 191.950 C 183.449 191.788,183.641 191.278,183.876 190.817 C 184.111 190.356,184.303 189.826,184.303 189.640 C 184.303 188.807,184.523 188.788,193.956 188.788 C 202.841 188.788,203.097 188.800,203.097 189.200 C 203.097 189.426,203.224 189.740,203.381 189.896 C 203.537 190.052,203.725 190.551,203.799 191.005 C 203.872 191.459,204.081 191.995,204.262 192.195 C 204.443 192.395,204.592 192.845,204.592 193.195 C 204.592 193.545,204.733 194.018,204.905 194.246 C 205.078 194.474,205.222 194.816,205.225 195.006 C 205.229 195.196,205.424 195.595,205.659 195.894 C 205.894 196.192,206.086 196.692,206.086 197.004 C 206.086 197.317,206.203 197.782,206.346 198.039 C 206.489 198.295,206.753 198.934,206.933 199.459 C 207.339 200.640,207.522 200.698,210.930 200.726 C 214.231 200.753,214.375 200.642,214.215 198.185 C 214.188 197.774,214.030 197.224,213.864 196.964 C 213.697 196.704,213.561 196.309,213.561 196.085 C 213.561 195.862,213.369 195.435,213.134 195.137 C 212.899 194.838,212.707 194.308,212.707 193.959 C 212.707 193.611,212.563 193.205,212.387 193.059 C 212.210 192.913,212.066 192.595,212.066 192.353 C 212.066 191.957,211.887 191.493,210.892 189.322 C 210.731 188.970,210.538 188.376,210.464 188.002 C 210.391 187.628,210.192 187.208,210.024 187.068 C 209.855 186.928,209.717 186.549,209.717 186.225 C 209.717 185.902,209.585 185.527,209.423 185.393 C 209.262 185.259,209.070 184.774,208.996 184.314 C 208.923 183.855,208.718 183.335,208.542 183.159 C 208.366 182.983,208.222 182.616,208.221 182.343 C 208.220 182.070,208.085 181.589,207.921 181.274 C 207.756 180.959,207.556 180.400,207.475 180.032 C 207.394 179.664,207.192 179.311,207.027 179.247 C 206.862 179.184,206.727 178.878,206.726 178.568 C 206.725 178.257,206.581 177.728,206.406 177.391 C 206.230 177.055,206.086 176.660,206.086 176.513 C 206.086 176.366,205.894 176.001,205.659 175.703 C 205.424 175.404,205.232 174.881,205.232 174.540 C 205.232 174.199,205.091 173.734,204.919 173.506 C 204.746 173.278,204.602 172.943,204.598 172.763 C 204.595 172.582,204.399 172.057,204.164 171.596 C 203.930 171.136,203.737 170.608,203.737 170.424 C 203.737 170.240,203.601 169.895,203.435 169.658 C 203.268 169.420,203.066 168.873,202.985 168.443 C 202.904 168.013,202.704 167.549,202.540 167.413 C 202.376 167.277,202.242 166.959,202.242 166.706 C 202.242 166.453,202.106 166.051,201.940 165.813 C 201.773 165.576,201.571 165.029,201.490 164.599 C 201.410 164.169,201.209 163.705,201.045 163.569 C 200.882 163.433,200.744 163.118,200.740 162.868 C 200.736 162.618,200.547 162.029,200.320 161.559 C 200.093 161.089,199.904 160.556,199.900 160.374 C 199.896 160.192,199.778 159.927,199.636 159.786 C 199.495 159.644,199.262 159.120,199.120 158.622 C 198.737 157.282,198.124 155.673,197.696 154.885 L 197.320 154.191 193.961 154.216 C 192.114 154.230,190.443 154.283,190.246 154.335 M374.907 160.955 C 374.554 161.014,374.146 161.162,373.999 161.284 C 373.590 161.622,373.612 193.251,374.022 194.202 C 375.059 196.605,375.599 197.478,376.727 198.577 C 378.032 199.848,379.688 200.745,380.746 200.754 C 381.175 200.758,381.714 200.902,381.942 201.075 C 382.548 201.534,387.872 201.528,388.254 201.068 C 388.400 200.892,388.836 200.747,389.222 200.747 C 391.436 200.747,395.795 196.764,396.234 194.339 C 396.618 192.218,396.052 191.785,392.892 191.781 L 390.375 191.778 388.895 193.273 C 387.696 194.484,387.289 194.768,386.753 194.768 C 386.388 194.768,385.927 194.855,385.727 194.962 C 384.712 195.506,381.209 193.879,381.205 192.862 C 381.205 192.677,381.060 192.250,380.885 191.914 C 380.618 191.401,380.566 189.938,380.566 182.901 L 380.566 174.501 385.816 174.437 C 392.123 174.360,391.671 174.604,391.671 171.278 C 391.671 168.273,392.143 168.500,385.881 168.500 L 380.603 168.500 380.531 165.090 C 380.442 160.863,380.546 161.014,377.657 160.918 C 376.496 160.879,375.259 160.896,374.907 160.955 M194.766 167.185 C 194.767 167.343,194.902 167.728,195.067 168.040 C 195.232 168.351,195.476 169.015,195.610 169.514 C 195.743 170.013,195.945 170.422,196.058 170.422 C 196.170 170.422,196.266 170.686,196.270 171.009 C 196.274 171.332,196.463 171.981,196.690 172.451 C 196.917 172.920,197.106 173.476,197.110 173.685 C 197.114 173.895,197.261 174.121,197.437 174.189 C 197.613 174.256,197.761 174.566,197.765 174.876 C 197.769 175.186,197.958 175.825,198.185 176.295 C 198.412 176.765,198.601 177.299,198.605 177.482 C 198.609 177.665,198.753 178.001,198.925 178.229 C 199.098 178.457,199.242 178.812,199.246 179.018 C 199.249 179.224,199.445 179.752,199.680 180.190 C 199.915 180.628,200.107 181.163,200.107 181.378 C 200.107 181.593,200.206 181.954,200.328 182.182 C 200.544 182.586,200.407 182.595,193.820 182.595 L 187.090 182.595 187.221 181.901 C 187.293 181.519,187.483 181.055,187.643 180.869 C 187.803 180.684,187.934 180.276,187.934 179.962 C 187.934 179.648,188.026 179.391,188.139 179.391 C 188.252 179.391,188.453 178.983,188.587 178.484 C 188.721 177.985,188.965 177.321,189.129 177.009 C 189.294 176.697,189.429 176.253,189.429 176.021 C 189.429 175.789,189.570 175.482,189.743 175.338 C 189.916 175.195,190.122 174.735,190.201 174.318 C 190.279 173.900,190.473 173.309,190.632 173.004 C 190.791 172.700,190.922 172.197,190.922 171.886 C 190.923 171.576,191.059 171.270,191.224 171.207 C 191.389 171.143,191.590 170.790,191.671 170.422 C 191.752 170.054,191.953 169.495,192.117 169.179 C 192.281 168.864,192.417 168.383,192.417 168.111 C 192.418 167.838,192.559 167.475,192.731 167.303 C 192.902 167.131,193.107 166.634,193.186 166.197 C 193.436 164.807,193.711 164.725,194.267 165.873 C 194.540 166.437,194.765 167.027,194.766 167.185 M63.497 166.291 C 63.241 166.345,62.917 166.528,62.776 166.697 C 62.636 166.866,62.299 167.005,62.029 167.005 C 61.758 167.005,61.405 167.136,61.244 167.297 C 61.083 167.458,60.716 167.661,60.428 167.749 C 59.794 167.942,57.234 170.544,57.234 170.995 C 57.234 171.171,57.042 171.560,56.807 171.858 C 56.572 172.157,56.380 172.693,56.380 173.050 C 56.380 173.407,56.212 173.884,56.006 174.111 C 55.664 174.490,55.627 175.360,55.568 184.646 L 55.503 194.768 53.287 194.768 C 50.333 194.768,50.342 194.758,50.436 197.781 C 50.534 200.947,49.415 200.641,60.868 200.641 C 72.541 200.641,71.437 200.956,71.433 197.624 C 71.430 194.614,71.697 194.768,66.483 194.768 L 62.360 194.768 62.360 185.718 C 62.360 178.155,62.410 176.626,62.663 176.415 C 62.831 176.277,63.034 175.765,63.117 175.278 C 63.267 174.389,64.406 172.986,64.980 172.983 C 65.125 172.982,65.531 172.791,65.884 172.557 C 67.049 171.786,70.116 172.828,70.949 174.278 C 71.480 175.204,72.176 175.374,75.128 175.296 C 77.174 175.242,77.797 175.156,77.955 174.907 C 78.262 174.419,78.196 172.731,77.846 172.130 C 77.674 171.837,77.386 171.284,77.205 170.902 C 77.024 170.521,76.781 170.208,76.666 170.208 C 76.550 170.208,76.455 170.097,76.455 169.960 C 76.455 169.617,75.017 168.345,74.067 167.849 C 73.634 167.623,73.220 167.341,73.147 167.221 C 73.073 167.102,72.799 167.005,72.539 167.005 C 72.278 167.005,71.828 166.837,71.537 166.631 C 71.018 166.264,64.847 166.003,63.497 166.291 M96.599 166.299 C 96.343 166.349,96.019 166.528,95.878 166.697 C 95.738 166.866,95.346 167.005,95.008 167.005 C 94.669 167.005,94.034 167.197,93.596 167.432 C 93.157 167.667,92.674 167.859,92.522 167.859 C 92.370 167.859,92.190 168.003,92.122 168.179 C 92.054 168.356,91.887 168.500,91.749 168.500 C 91.612 168.500,91.344 168.668,91.153 168.873 C 90.963 169.079,90.413 169.530,89.931 169.875 C 89.449 170.221,89.055 170.569,89.055 170.648 C 89.055 170.728,88.683 171.262,88.229 171.835 C 87.775 172.409,87.339 173.085,87.260 173.339 C 87.181 173.593,86.976 173.917,86.804 174.059 C 86.633 174.202,86.492 174.535,86.492 174.800 C 86.492 175.065,86.356 175.395,86.189 175.533 C 86.022 175.672,85.820 176.172,85.740 176.645 C 85.660 177.117,85.461 177.761,85.297 178.074 C 84.873 178.888,84.867 188.639,85.290 189.451 C 85.450 189.756,85.646 190.445,85.726 190.982 C 85.807 191.518,86.012 192.072,86.182 192.214 C 86.353 192.355,86.492 192.638,86.492 192.843 C 86.492 193.048,86.684 193.460,86.919 193.758 C 87.154 194.057,87.347 194.387,87.347 194.491 C 87.347 194.849,90.542 198.398,90.864 198.398 C 90.926 198.398,91.169 198.590,91.404 198.825 C 91.639 199.060,92.013 199.253,92.236 199.253 C 92.458 199.253,92.695 199.397,92.763 199.573 C 92.830 199.749,93.010 199.893,93.163 199.893 C 93.315 199.893,93.798 200.085,94.236 200.320 C 94.721 200.580,95.441 200.747,96.076 200.747 C 96.742 200.747,97.214 200.863,97.384 201.068 C 97.597 201.325,98.249 201.388,100.694 201.388 C 103.140 201.388,103.791 201.325,104.004 201.068 C 104.167 200.871,104.636 200.747,105.217 200.747 C 106.059 200.747,107.589 200.246,108.489 199.676 C 108.665 199.564,109.098 199.340,109.450 199.178 C 112.312 197.864,115.347 192.354,113.805 191.273 C 112.560 190.401,107.375 190.883,106.986 191.907 C 106.688 192.690,105.470 193.859,104.768 194.035 C 104.447 194.116,104.133 194.314,104.071 194.475 C 103.932 194.836,97.709 194.908,97.489 194.551 C 97.415 194.432,97.049 194.203,96.675 194.043 C 94.836 193.255,92.654 189.967,92.374 187.560 L 92.244 186.439 103.119 186.439 C 116.442 186.439,115.003 186.949,115.003 182.230 C 115.003 179.359,114.945 178.751,114.629 178.268 C 114.423 177.954,114.255 177.305,114.255 176.824 C 114.255 176.039,113.728 174.472,113.179 173.625 C 113.064 173.449,112.857 173.065,112.717 172.771 C 112.099 171.470,109.653 168.839,108.820 168.578 C 108.579 168.503,108.153 168.262,107.873 168.043 C 107.593 167.824,107.226 167.645,107.057 167.645 C 106.888 167.645,106.606 167.501,106.430 167.325 C 106.254 167.149,105.771 167.005,105.357 167.005 C 104.929 167.005,104.372 166.821,104.063 166.578 C 103.539 166.166,98.290 165.970,96.599 166.299 M133.262 166.296 C 133.086 166.364,132.798 166.540,132.621 166.686 C 132.445 166.833,131.821 166.998,131.233 167.054 C 128.780 167.287,124.720 170.814,124.720 172.711 C 124.720 172.878,124.576 173.159,124.399 173.335 C 123.977 173.757,123.987 175.211,124.415 175.639 C 125.466 176.690,131.554 175.892,131.554 174.703 C 131.554 174.247,133.334 172.985,133.977 172.985 C 134.116 172.985,134.588 172.792,135.026 172.557 C 135.621 172.239,136.231 172.130,137.427 172.130 C 138.622 172.130,139.233 172.239,139.827 172.557 C 140.265 172.792,140.797 172.985,141.009 172.985 C 141.973 172.985,143.727 175.094,143.727 176.253 C 143.727 176.541,143.871 176.896,144.047 177.042 C 144.279 177.235,144.367 177.744,144.367 178.884 C 144.367 180.536,144.305 180.641,143.632 180.132 C 143.404 179.960,143.068 179.815,142.885 179.811 C 142.702 179.807,142.168 179.618,141.698 179.391 C 140.586 178.854,132.707 178.755,131.728 179.266 C 131.413 179.430,130.840 179.634,130.455 179.718 C 129.526 179.923,128.127 180.663,127.988 181.024 C 127.927 181.183,127.674 181.313,127.425 181.313 C 126.952 181.313,124.933 183.301,124.933 183.767 C 124.933 183.908,124.741 184.246,124.506 184.517 C 124.271 184.788,124.079 185.235,124.079 185.511 C 124.079 185.786,123.987 186.012,123.874 186.012 C 123.119 186.012,122.952 193.449,123.689 194.265 C 123.885 194.483,124.114 194.933,124.197 195.266 C 124.280 195.598,124.479 195.921,124.640 195.982 C 124.801 196.044,124.933 196.189,124.933 196.304 C 124.933 197.527,129.981 200.747,131.899 200.747 C 132.663 200.747,133.192 200.860,133.399 201.068 C 133.859 201.528,139.395 201.533,140.002 201.075 C 140.230 200.902,140.820 200.758,141.313 200.754 C 141.847 200.750,142.614 200.532,143.211 200.215 L 144.213 199.682 144.724 200.232 C 145.385 200.945,150.008 200.966,150.714 200.259 C 151.296 199.676,151.303 175.312,150.721 174.424 C 150.515 174.110,150.346 173.586,150.344 173.259 C 150.342 172.932,150.201 172.424,150.029 172.130 C 149.858 171.837,149.570 171.284,149.389 170.902 C 149.208 170.521,148.965 170.208,148.849 170.208 C 148.733 170.208,148.639 170.112,148.639 169.994 C 148.639 169.167,145.121 167.005,143.775 167.005 C 143.349 167.005,142.831 166.840,142.600 166.631 C 142.184 166.254,134.119 165.964,133.262 166.296 M232.851 166.293 C 232.595 166.346,232.271 166.528,232.130 166.697 C 231.990 166.866,231.556 167.005,231.165 167.005 C 230.326 167.005,227.996 168.183,227.054 169.084 C 226.898 169.233,226.702 169.354,226.616 169.354 C 225.640 169.354,221.890 174.920,221.890 176.369 C 221.890 176.684,221.698 177.300,221.463 177.739 C 221.069 178.474,221.036 178.944,221.036 183.825 C 221.036 188.707,221.069 189.176,221.463 189.912 C 221.698 190.350,221.890 190.985,221.890 191.324 C 221.890 191.662,222.034 192.059,222.210 192.205 C 222.387 192.351,222.531 192.651,222.531 192.872 C 222.531 193.092,222.709 193.451,222.927 193.669 C 223.145 193.887,223.381 194.298,223.453 194.582 C 223.673 195.458,227.603 199.253,228.291 199.253 C 228.504 199.253,228.730 199.388,228.793 199.553 C 228.857 199.718,229.227 199.922,229.617 200.007 C 230.007 200.091,230.390 200.262,230.469 200.386 C 230.548 200.510,231.194 200.653,231.905 200.705 C 232.640 200.758,233.304 200.925,233.443 201.093 C 233.792 201.513,239.549 201.516,240.155 201.096 C 240.387 200.936,241.138 200.759,241.824 200.703 C 242.510 200.648,243.135 200.503,243.212 200.381 C 243.290 200.260,243.672 200.091,244.061 200.007 C 244.451 199.922,244.818 199.727,244.878 199.572 C 244.937 199.418,245.243 199.229,245.557 199.152 C 246.198 198.996,248.799 196.412,248.799 195.931 C 248.799 195.761,248.991 195.430,249.226 195.195 C 249.461 194.960,249.653 194.539,249.653 194.260 C 249.653 193.981,249.802 193.629,249.984 193.478 C 250.207 193.292,250.294 192.921,250.251 192.335 C 250.161 191.115,249.688 190.930,246.663 190.930 C 243.538 190.929,243.377 190.980,242.688 192.175 C 241.982 193.398,241.500 193.875,240.679 194.161 C 240.329 194.283,240.043 194.469,240.043 194.575 C 240.043 194.681,238.601 194.768,236.839 194.768 C 235.026 194.768,233.636 194.682,233.636 194.571 C 233.636 194.462,233.319 194.269,232.933 194.142 C 232.068 193.856,229.365 191.237,229.365 190.685 C 229.365 190.464,229.172 190.091,228.938 189.856 C 228.663 189.581,228.510 189.143,228.509 188.628 C 228.508 188.187,228.364 187.552,228.189 187.215 C 227.726 186.327,227.727 180.417,228.190 180.032 C 228.371 179.882,228.510 179.417,228.510 178.964 C 228.510 178.512,228.650 178.046,228.831 177.896 C 229.007 177.750,229.151 177.521,229.151 177.388 C 229.151 176.196,232.481 172.985,233.717 172.985 C 233.969 172.985,234.535 172.792,234.973 172.557 C 235.902 172.059,237.133 172.007,237.946 172.432 C 238.261 172.596,238.804 172.793,239.153 172.870 C 240.532 173.173,241.992 174.178,242.265 175.013 C 242.342 175.248,242.639 175.726,242.924 176.074 L 243.443 176.708 246.244 176.715 C 248.775 176.721,249.075 176.682,249.349 176.307 C 249.747 175.764,249.738 173.676,249.335 172.985 C 249.164 172.691,248.877 172.140,248.697 171.761 C 248.221 170.757,245.941 168.500,245.404 168.500 C 245.157 168.500,244.955 168.413,244.955 168.306 C 244.955 167.921,243.061 167.005,242.264 167.005 C 241.802 167.005,241.290 166.847,241.052 166.631 C 240.648 166.265,234.248 166.001,232.851 166.293 M270.437 166.293 C 270.182 166.346,269.857 166.528,269.717 166.697 C 269.577 166.866,269.142 167.005,268.752 167.005 C 267.026 167.005,263.123 169.840,261.432 172.323 C 260.301 173.983,259.477 175.689,259.477 176.369 C 259.477 176.684,259.285 177.300,259.050 177.739 C 258.656 178.473,258.623 178.944,258.623 183.718 C 258.623 188.493,258.656 188.964,259.050 189.698 C 259.285 190.136,259.477 190.820,259.477 191.217 C 259.477 191.614,259.621 192.059,259.797 192.205 C 259.973 192.351,260.117 192.651,260.117 192.872 C 260.117 193.092,260.310 193.465,260.545 193.700 C 260.779 193.935,260.972 194.252,260.972 194.404 C 260.972 195.156,265.117 199.253,265.878 199.253 C 266.091 199.253,266.317 199.388,266.380 199.553 C 266.444 199.718,266.814 199.922,267.204 200.007 C 267.594 200.091,267.977 200.262,268.056 200.386 C 268.134 200.510,268.781 200.653,269.492 200.705 C 270.227 200.758,270.891 200.925,271.030 201.093 C 271.394 201.531,277.166 201.515,277.749 201.075 C 277.977 200.902,278.596 200.755,279.124 200.747 C 279.653 200.739,280.470 200.547,280.940 200.320 C 281.410 200.093,281.917 199.904,282.068 199.900 C 282.218 199.896,282.397 199.749,282.464 199.573 C 282.532 199.397,282.765 199.253,282.982 199.253 C 283.199 199.253,283.790 198.869,284.294 198.401 C 284.798 197.933,285.283 197.548,285.371 197.547 C 285.459 197.545,285.531 197.448,285.531 197.330 C 285.531 197.213,285.723 196.925,285.958 196.690 C 286.193 196.455,286.385 196.119,286.385 195.942 C 286.385 195.766,286.578 195.430,286.813 195.195 C 287.048 194.960,287.240 194.539,287.240 194.260 C 287.240 193.981,287.389 193.629,287.571 193.478 C 287.794 193.292,287.881 192.921,287.838 192.335 C 287.747 191.113,287.278 190.931,284.210 190.927 C 281.340 190.923,280.733 191.084,280.527 191.903 C 280.340 192.648,279.136 193.857,278.286 194.154 C 277.925 194.279,277.629 194.469,277.629 194.575 C 277.629 194.938,271.286 194.813,271.145 194.447 C 271.078 194.271,270.843 194.127,270.623 194.127 C 270.225 194.127,269.092 193.264,268.039 192.158 C 267.117 191.192,266.951 190.956,266.951 190.612 C 266.951 190.431,266.759 190.091,266.524 189.856 C 266.229 189.561,266.097 189.144,266.097 188.509 C 266.097 188.002,265.956 187.402,265.784 187.174 C 265.321 186.562,265.315 180.415,265.777 180.032 C 265.962 179.879,266.097 179.413,266.097 178.931 C 266.097 178.386,266.208 178.054,266.418 177.974 C 266.594 177.906,266.738 177.739,266.738 177.603 C 266.738 177.277,267.548 175.774,267.931 175.391 C 268.097 175.225,268.233 175.008,268.233 174.909 C 268.233 174.603,270.816 172.985,271.304 172.985 C 271.556 172.985,272.121 172.792,272.560 172.557 C 273.481 172.064,274.994 171.997,275.607 172.423 C 275.838 172.585,276.331 172.782,276.701 172.863 C 278.121 173.172,279.965 174.475,279.986 175.185 C 279.991 175.325,280.227 175.726,280.512 176.074 L 281.030 176.708 283.831 176.715 C 286.362 176.721,286.661 176.682,286.936 176.307 C 287.334 175.764,287.325 173.676,286.922 172.985 C 286.751 172.691,286.460 172.133,286.277 171.745 C 285.351 169.787,281.557 167.005,279.813 167.005 C 279.387 167.005,278.870 166.840,278.639 166.631 C 278.235 166.265,271.835 166.001,270.437 166.293 M307.603 166.355 C 307.351 166.461,307.081 166.651,307.003 166.776 C 306.926 166.902,306.579 167.005,306.233 167.005 C 305.887 167.005,305.246 167.197,304.808 167.432 C 304.369 167.667,303.886 167.859,303.734 167.859 C 303.582 167.859,303.405 167.995,303.341 168.160 C 303.278 168.326,302.999 168.518,302.721 168.588 C 301.815 168.815,299.540 171.322,298.085 173.696 C 297.679 174.360,297.064 176.003,297.064 176.426 C 297.064 176.688,296.895 177.088,296.690 177.315 C 296.352 177.688,296.316 178.320,296.316 183.876 C 296.316 189.432,296.352 190.064,296.690 190.438 C 296.895 190.665,297.064 191.064,297.064 191.326 C 297.064 192.263,298.639 195.062,299.845 196.268 C 300.077 196.500,300.267 196.785,300.267 196.901 C 300.267 197.017,300.627 197.341,301.068 197.622 C 301.508 197.902,302.138 198.384,302.467 198.692 C 302.796 199.000,303.242 199.253,303.459 199.253 C 303.675 199.253,303.904 199.388,303.967 199.553 C 304.030 199.718,304.401 199.922,304.791 200.007 C 305.180 200.091,305.564 200.262,305.642 200.386 C 305.721 200.510,306.368 200.653,307.079 200.705 C 307.814 200.758,308.478 200.925,308.617 201.093 C 308.980 201.530,314.540 201.515,315.122 201.075 C 315.350 200.902,315.990 200.758,316.544 200.754 C 317.430 200.748,318.623 200.334,319.701 199.658 C 319.877 199.548,320.314 199.322,320.671 199.157 C 321.479 198.784,323.118 197.306,323.118 196.952 C 323.118 196.808,323.216 196.690,323.336 196.690 C 323.456 196.690,323.672 196.427,323.817 196.105 C 323.961 195.784,324.247 195.352,324.453 195.144 C 324.658 194.937,324.826 194.587,324.826 194.367 C 324.826 194.146,324.971 193.846,325.147 193.700 C 325.670 193.266,325.568 191.659,324.993 191.256 C 323.778 190.406,318.582 190.896,318.201 191.897 C 317.899 192.691,316.242 194.127,315.627 194.127 C 315.511 194.127,315.361 194.271,315.293 194.447 C 315.192 194.712,314.623 194.768,312.016 194.768 C 309.473 194.768,308.810 194.706,308.596 194.447 C 308.450 194.271,308.163 194.127,307.960 194.127 C 307.397 194.127,304.591 191.222,304.425 190.468 C 304.348 190.115,304.149 189.775,303.984 189.712 C 303.799 189.641,303.684 189.285,303.684 188.780 C 303.684 188.332,303.540 187.820,303.364 187.644 C 302.158 186.439,302.014 186.455,314.248 186.391 C 324.672 186.336,325.479 186.306,325.833 185.951 C 326.371 185.413,326.525 180.650,326.040 179.575 C 325.861 179.180,325.652 178.208,325.574 177.414 C 325.496 176.620,325.296 175.834,325.130 175.667 C 324.963 175.501,324.826 175.178,324.826 174.951 C 324.826 174.723,324.634 174.293,324.399 173.994 C 324.164 173.695,323.972 173.345,323.972 173.216 C 323.972 172.050,319.431 167.645,318.229 167.645 C 318.082 167.645,317.818 167.501,317.642 167.325 C 317.465 167.149,316.975 167.005,316.553 167.005 C 316.120 167.005,315.604 166.841,315.371 166.631 C 314.906 166.209,308.495 165.981,307.603 166.355 M346.355 166.564 C 346.036 166.815,345.479 167.005,345.060 167.005 C 344.632 167.005,344.120 167.183,343.833 167.432 C 343.563 167.667,343.243 167.859,343.123 167.859 C 343.004 167.859,342.730 168.018,342.515 168.212 C 342.147 168.546,342.125 168.536,342.125 168.042 C 342.125 167.753,342.010 167.402,341.869 167.261 C 341.556 166.948,336.203 166.907,335.718 167.214 C 335.181 167.553,335.240 199.720,335.779 200.259 C 336.092 200.573,336.608 200.653,338.698 200.712 C 342.498 200.818,342.124 202.054,342.132 189.375 C 342.137 180.465,342.186 178.794,342.452 178.443 C 342.625 178.215,342.766 177.722,342.766 177.348 C 342.766 176.974,342.910 176.548,343.086 176.401 C 343.262 176.255,343.406 175.996,343.406 175.825 C 343.406 174.840,345.930 173.125,347.683 172.917 C 348.292 172.845,348.924 172.675,349.087 172.540 C 349.314 172.352,349.554 172.375,350.111 172.639 C 350.511 172.829,351.280 172.985,351.819 172.985 C 352.887 172.985,355.579 175.212,355.579 176.095 C 355.579 176.307,355.769 176.872,356.001 177.351 C 356.401 178.177,356.425 178.774,356.481 189.153 C 356.550 201.897,356.221 200.614,359.449 200.713 C 362.380 200.804,362.734 200.720,363.033 199.863 C 363.603 198.226,363.257 174.939,362.660 174.740 C 362.524 174.694,362.413 174.353,362.412 173.981 C 362.411 173.609,362.219 173.017,361.986 172.664 C 361.753 172.312,361.561 171.867,361.560 171.676 C 361.558 171.184,358.249 167.932,357.579 167.764 C 357.273 167.687,356.883 167.485,356.713 167.315 C 356.542 167.144,356.057 167.005,355.634 167.005 C 355.202 167.005,354.685 166.841,354.453 166.631 C 353.765 166.008,347.132 165.953,346.355 166.564 M102.240 172.557 C 102.678 172.792,103.216 172.985,103.436 172.985 C 103.980 172.985,106.781 175.815,106.781 176.364 C 106.781 176.603,106.913 176.931,107.075 177.093 C 107.237 177.255,107.439 178.078,107.524 178.923 L 107.678 180.459 100.022 180.459 L 92.365 180.460 92.438 179.295 C 92.479 178.634,92.640 178.022,92.811 177.881 C 92.977 177.743,93.113 177.501,93.113 177.343 C 93.113 175.964,95.674 173.253,97.319 172.892 C 97.691 172.810,98.110 172.606,98.250 172.437 C 98.655 171.949,101.251 172.027,102.240 172.557 M313.067 172.434 C 313.205 172.601,313.715 172.805,314.200 172.886 C 315.596 173.122,318.206 176.084,318.206 177.431 C 318.206 177.541,318.350 177.750,318.526 177.896 C 318.739 178.072,318.847 178.550,318.847 179.311 L 318.847 180.459 310.933 180.459 L 303.019 180.459 303.351 179.985 C 303.534 179.723,303.684 179.090,303.684 178.577 C 303.684 177.967,303.832 177.455,304.111 177.100 C 304.346 176.802,304.538 176.430,304.538 176.275 C 304.538 175.497,307.998 172.771,308.985 172.771 C 309.095 172.771,309.304 172.627,309.450 172.451 C 309.815 172.011,312.705 171.998,313.067 172.434 M139.989 185.371 C 140.450 185.606,140.955 185.798,141.111 185.798 C 141.646 185.798,143.727 187.850,143.727 188.378 C 143.727 188.575,143.871 188.855,144.047 189.002 C 144.240 189.162,144.367 189.629,144.367 190.176 C 144.367 190.723,144.240 191.191,144.047 191.351 C 143.871 191.497,143.727 191.746,143.727 191.903 C 143.727 192.365,142.405 193.739,141.662 194.049 C 141.287 194.206,140.919 194.432,140.846 194.551 C 140.772 194.670,140.309 194.768,139.817 194.769 C 139.324 194.770,138.646 194.914,138.310 195.089 C 137.534 195.494,136.057 195.490,135.517 195.081 C 135.289 194.909,134.805 194.768,134.441 194.768 C 133.102 194.768,131.147 193.307,130.655 191.938 C 130.539 191.615,130.357 191.351,130.251 191.351 C 130.145 191.351,130.059 190.726,130.059 189.963 C 130.059 189.151,130.150 188.574,130.279 188.574 C 130.400 188.574,130.572 188.406,130.660 188.201 C 131.236 186.857,132.214 186.057,133.956 185.503 C 134.162 185.438,134.330 185.285,134.330 185.164 C 134.330 184.720,139.051 184.893,139.989 185.371 " stroke="none" fill="currentColor" fill-rule="evenodd"></path></g></svg>