<svg xmlns="http://www.w3.org/2000/svg" width="532" height="284" viewBox="0 0 532 284">
<g>
<path d="M 373.40 158.16 C373.12,158.62 365.25,159.00 355.92,159.00 C339.24,159.00 338.94,158.96 338.10,156.75 C337.63,155.51 328.36,126.44 317.50,92.14 L 297.75 29.77 L 300.51 19.39 L 303.26 9.00 L 327.53 9.00 L 331.75 22.75 C334.07,30.31 344.50,63.68 354.94,96.91 C365.38,130.13 373.69,157.69 373.40,158.16 ZM 220.30 157.37 C220.14,157.52 220.03,157.65 219.89,157.74 C219.38,158.05 218.53,157.84 214.05,156.70 L 213.50 156.56 C196.58,152.27 184.35,143.61 174.92,129.24 C167.02,117.20 163.00,101.66 163.00,83.16 C163.00,61.48 167.60,45.85 178.14,31.66 C186.99,19.73 205.79,9.00 217.83,9.00 L 221.30 9.00 L 217.25 11.93 C209.17,17.79 205.21,25.38 202.89,39.50 C201.12,50.30 201.05,115.45 202.81,125.84 C205.25,140.33 209.30,148.31 217.07,153.94 C219.19,155.47 220.65,157.02 220.30,157.37 ZM 241.59 258.25 C238.91,265.35 238.44,266.00 235.89,266.00 C234.37,266.00 232.89,265.63 232.61,265.17 C232.33,264.72 237.10,251.22 243.21,235.17 L 254.32 206.00 L 261.70 206.00 L 272.87 235.25 C279.01,251.34 284.03,264.84 284.02,265.25 C283.99,266.51 278.31,266.09 277.26,264.75 C276.72,264.06 275.21,260.45 273.89,256.72 L 271.50 249.95 L 258.01 250.22 L 244.52 250.50 ZM 188.60 265.41 C183.53,267.14 182.23,267.20 177.12,266.00 C172.56,264.92 168.86,262.06 166.72,257.93 C163.59,251.91 166.45,243.96 172.67,241.36 C176.51,239.76 188.29,239.55 191.07,241.04 C192.86,241.99 193.00,241.70 193.00,237.11 C193.00,232.89 192.59,231.82 190.25,229.97 C186.61,227.10 178.15,227.57 174.68,230.83 C172.10,233.26 167.00,233.79 167.00,231.63 C167.00,229.17 170.96,225.17 174.58,223.97 C179.37,222.39 189.18,222.49 192.57,224.15 C194.08,224.89 196.26,226.77 197.41,228.32 C199.34,230.92 199.50,232.46 199.50,248.32 L 199.50 265.50 L 197.11 265.84 C195.80,266.02 194.40,265.65 194.00,265.00 C193.46,264.12 192.11,264.22 188.60,265.41 ZM 420.48 265.88 C415.44,267.28 413.51,267.20 408.31,265.36 C396.27,261.09 391.36,243.78 398.62,231.25 C402.22,225.05 407.39,222.68 416.27,223.19 C422.90,223.56 423.39,223.76 427.01,227.64 C429.83,230.67 431.10,233.14 431.97,237.36 C432.06,237.77 432.14,238.16 432.22,238.54 C432.91,241.80 433.31,243.73 432.55,244.88 C431.37,246.67 427.37,246.59 417.24,246.78 C400.62,247.08 400.46,247.15 403.40,252.80 C407.50,260.68 415.64,263.14 422.37,258.54 C424.99,256.75 427.27,255.99 429.37,256.20 L 432.50 256.50 L 428.48 260.64 C426.07,263.12 422.86,265.22 420.48,265.88 ZM 143.96 264.14 C133.50,269.57 122.14,266.00 116.81,255.61 C115.16,252.39 114.87,250.19 115.16,243.03 C115.55,233.05 117.75,228.63 124.12,225.05 C128.48,222.60 137.36,222.29 142.44,224.41 C147.38,226.48 151.25,233.56 151.39,240.82 L 151.50 246.50 L 136.24 246.78 L 120.98 247.05 L 121.63 249.78 C123.98,259.63 133.52,263.90 141.29,258.59 C143.38,257.17 146.46,256.00 148.14,256.00 L 151.18 256.00 L 149.34 259.15 C148.33,260.89 145.91,263.13 143.96,264.14 ZM 43.59 265.70 C37.70,267.22 37.10,267.22 30.40,265.59 C16.58,262.24 10.38,251.76 11.20,233.11 C11.55,225.17 12.09,222.60 14.30,218.31 C19.55,208.12 30.85,203.40 43.70,206.02 C48.61,207.03 50.23,207.96 54.25,212.10 C56.86,214.79 59.00,217.44 59.00,218.00 C59.00,218.55 57.47,219.00 55.60,219.00 C53.06,219.00 51.33,218.13 48.79,215.59 C39.77,206.57 23.16,211.75 19.38,224.76 C17.17,232.37 17.86,244.97 20.80,250.67 C26.23,261.17 40.84,263.99 48.48,256.02 C50.72,253.68 52.25,253.00 55.24,253.00 L 59.11 253.00 L 57.31 256.07 C54.72,260.46 49.41,264.19 43.59,265.70 ZM 454.18 250.02 C453.87,265.86 453.84,266.00 451.60,266.00 C450.35,266.00 449.03,265.70 448.67,265.33 C448.30,264.97 448.00,255.52 448.00,244.33 L 448.00 224.00 L 450.92 224.00 C452.52,224.00 454.00,224.51 454.21,225.13 C454.47,225.92 455.56,225.76 457.74,224.63 C461.68,222.60 471.13,222.50 474.90,224.45 C480.81,227.50 481.47,229.82 481.83,248.82 L 482.17 266.15 L 479.33 265.82 L 476.50 265.50 L 476.00 249.77 C475.51,234.32 475.45,234.00 472.80,231.35 C470.62,229.16 469.15,228.63 465.08,228.57 C460.86,228.51 459.60,228.95 457.27,231.27 C454.51,234.03 454.50,234.07 454.18,250.02 ZM 277.00 130.00 C277.00,143.75 276.66,155.00 276.24,155.00 C275.82,155.00 274.93,154.12 274.26,153.04 C271.50,148.63 260.58,148.41 248.88,152.54 C246.61,153.34 244.50,154.00 244.20,154.00 C243.90,154.00 247.02,150.51 251.14,146.25 C255.26,141.99 260.01,136.48 261.69,134.00 C265.72,128.05 272.45,114.57 274.04,109.25 C274.74,106.91 275.70,105.00 276.16,105.00 C276.62,105.00 277.00,116.25 277.00,130.00 ZM 321.77 265.48 C315.57,267.32 313.66,267.32 308.62,265.53 C303.65,263.76 298.37,258.63 296.83,254.07 C293.19,243.26 296.84,229.54 304.50,225.27 C309.26,222.61 319.13,222.19 324.47,224.42 C327.54,225.71 331.00,230.22 331.00,232.95 C331.00,235.14 325.58,234.00 323.48,231.37 C321.85,229.33 320.28,228.65 316.44,228.32 C310.39,227.79 306.12,230.12 303.67,235.28 C301.78,239.27 301.48,247.48 303.06,251.68 C306.43,260.60 317.13,263.87 323.17,257.83 C325.85,255.15 331.00,254.35 331.00,256.62 C331.00,260.04 326.93,263.94 321.77,265.48 ZM 375.09 264.45 C372.39,265.85 364.26,267.20 362.50,266.55 C361.95,266.34 360.25,265.90 358.72,265.56 C354.77,264.69 348.32,258.50 346.91,254.22 C344.80,247.82 345.37,237.69 348.16,232.27 C351.50,225.78 356.42,223.04 364.78,223.02 C372.58,223.00 377.39,224.92 379.43,228.87 C381.61,233.09 381.41,234.00 378.29,234.00 C376.57,234.00 374.82,233.06 373.53,231.44 C370.88,228.11 364.84,227.20 359.68,229.36 C350.69,233.12 349.23,250.42 357.27,257.83 C360.62,260.92 366.73,261.71 370.84,259.58 C372.58,258.68 374.00,257.51 374.00,256.97 C374.00,256.44 375.58,256.00 377.50,256.00 C379.42,256.00 381.00,256.47 381.00,257.04 C381.00,258.97 377.71,263.10 375.09,264.45 ZM 517.19 265.97 C510.73,267.76 505.32,266.36 501.58,261.92 L 499.00 258.85 L 499.00 216.00 L 502.00 216.00 C504.89,216.00 505.00,216.17 505.00,220.50 L 505.00 225.00 L 520.13 225.00 L 519.82 227.75 C519.51,230.44 519.33,230.51 512.25,230.79 L 505.00 231.09 L 505.00 243.59 C505.00,255.53 505.11,256.20 507.45,258.55 C510.47,261.56 515.00,261.76 517.50,259.00 C519.35,256.96 526.00,256.12 526.00,257.92 C526.00,260.08 520.59,265.02 517.19,265.97 ZM 93.81 263.30 C93.51,265.40 92.99,265.51 81.95,265.78 C75.59,265.93 70.08,265.75 69.70,265.36 C67.80,263.47 69.12,261.12 72.25,260.81 L 75.50 260.50 L 76.00 245.50 C76.52,229.95 77.15,227.41 81.23,224.55 C83.83,222.73 93.69,222.45 97.29,224.09 C99.36,225.03 103.00,229.69 103.00,231.40 C103.00,232.89 96.80,231.80 95.00,230.00 C92.47,227.47 87.92,227.43 84.86,229.91 C82.58,231.76 82.50,232.29 82.50,246.16 L 82.50 260.50 L 88.31 260.80 C93.65,261.08 94.10,261.28 93.81,263.30 ZM 250.43 234.75 L 247.04 244.00 L 258.10 244.00 C264.19,244.00 269.02,243.63 268.83,243.18 C268.65,242.74 266.27,236.44 263.55,229.18 C260.83,221.93 258.34,216.00 258.01,216.00 C257.41,216.00 256.26,218.86 250.43,234.75 ZM 175.20 258.52 C178.01,260.88 179.07,261.16 183.69,260.78 C190.39,260.22 193.00,258.02 193.00,252.92 C193.00,247.16 189.32,244.67 181.60,245.23 C176.97,245.56 175.30,246.14 173.85,247.94 C170.98,251.48 171.48,255.38 175.20,258.52 ZM 121.58 238.25 L 120.96 241.00 L 145.26 241.00 L 144.67 237.25 C143.85,232.09 139.22,228.00 134.23,228.01 C127.78,228.04 123.00,231.90 121.58,238.25 ZM 402.00 239.97 C402.00,240.62 406.42,241.00 414.00,241.00 C427.27,241.00 427.28,240.99 424.61,234.60 C423.84,232.76 422.16,230.53 420.88,229.63 C417.51,227.27 410.86,227.53 407.51,230.17 C404.99,232.15 402.00,237.47 402.00,239.97 Z" fill="currentColor"/>
<path d="M 263.15 43.97 C255.40,46.13 249.78,44.63 244.23,38.94 C236.16,30.65 238.26,17.10 248.53,11.28 C256.04,7.03 267.22,9.29 272.03,16.04 C274.49,19.50 275.78,27.76 274.59,32.48 C273.59,36.47 267.26,42.83 263.15,43.97 Z" fill="rgb(179,191,180)"/>
<path d="M 0.00 142.00 L 0.00 0.00 L 266.00 0.00 L 532.00 0.00 L 532.00 142.00 L 532.00 284.00 L 266.00 284.00 L 0.00 284.00 L 0.00 142.00 ZM 43.59 265.70 C49.41,264.19 54.72,260.46 57.31,256.07 L 59.11 253.00 L 55.24 253.00 C52.25,253.00 50.72,253.68 48.48,256.02 C40.84,263.99 26.23,261.17 20.80,250.67 C17.86,244.97 17.17,232.37 19.38,224.76 C23.16,211.75 39.77,206.57 48.79,215.59 C51.33,218.13 53.06,219.00 55.60,219.00 C57.47,219.00 59.00,218.55 59.00,218.00 C59.00,217.44 56.86,214.79 54.25,212.10 C50.23,207.96 48.61,207.03 43.70,206.02 C30.85,203.40 19.55,208.12 14.30,218.31 C12.09,222.60 11.55,225.17 11.20,233.11 C10.38,251.76 16.58,262.24 30.40,265.59 C37.10,267.22 37.70,267.22 43.59,265.70 ZM 143.96 264.14 C145.91,263.13 148.33,260.89 149.34,259.15 L 151.18 256.00 L 148.14 256.00 C146.46,256.00 143.38,257.17 141.29,258.59 C133.52,263.90 123.98,259.63 121.63,249.78 L 120.98 247.05 L 136.24 246.78 L 151.50 246.50 L 151.39 240.82 C151.25,233.56 147.38,226.48 142.44,224.41 C137.36,222.29 128.48,222.60 124.12,225.05 C117.75,228.63 115.55,233.05 115.16,243.03 C114.87,250.19 115.16,252.39 116.81,255.61 C122.14,266.00 133.50,269.57 143.96,264.14 ZM 188.60 265.41 C192.11,264.22 193.46,264.12 194.00,265.00 C194.40,265.65 195.80,266.02 197.11,265.84 L 199.50 265.50 L 199.50 248.32 C199.50,232.46 199.34,230.92 197.41,228.32 C196.26,226.77 194.08,224.89 192.57,224.15 C189.18,222.49 179.37,222.39 174.58,223.97 C170.96,225.17 167.00,229.17 167.00,231.63 C167.00,233.79 172.10,233.26 174.68,230.83 C178.15,227.57 186.61,227.10 190.25,229.97 C192.59,231.82 193.00,232.89 193.00,237.11 C193.00,241.70 192.86,241.99 191.07,241.04 C188.29,239.55 176.51,239.76 172.67,241.36 C166.45,243.96 163.59,251.91 166.72,257.93 C168.86,262.06 172.56,264.92 177.12,266.00 C182.23,267.20 183.53,267.14 188.60,265.41 ZM 321.77 265.48 C326.93,263.94 331.00,260.04 331.00,256.62 C331.00,254.35 325.85,255.15 323.17,257.83 C317.13,263.87 306.43,260.60 303.06,251.68 C301.48,247.48 301.78,239.27 303.67,235.28 C306.12,230.12 310.39,227.79 316.44,228.32 C320.28,228.65 321.85,229.33 323.48,231.37 C325.58,234.00 331.00,235.14 331.00,232.95 C331.00,230.22 327.54,225.71 324.47,224.42 C319.13,222.19 309.26,222.61 304.50,225.27 C296.84,229.54 293.19,243.26 296.83,254.07 C298.37,258.63 303.65,263.76 308.62,265.53 C313.66,267.32 315.57,267.32 321.77,265.48 ZM 375.09 264.45 C377.71,263.10 381.00,258.97 381.00,257.04 C381.00,256.47 379.42,256.00 377.50,256.00 C375.58,256.00 374.00,256.44 374.00,256.97 C374.00,257.51 372.58,258.68 370.84,259.58 C366.73,261.71 360.62,260.92 357.27,257.83 C349.23,250.42 350.69,233.12 359.68,229.36 C364.84,227.20 370.88,228.11 373.53,231.44 C374.82,233.06 376.57,234.00 378.29,234.00 C381.41,234.00 381.61,233.09 379.43,228.87 C377.39,224.92 372.58,223.00 364.78,223.02 C356.42,223.04 351.50,225.78 348.16,232.27 C345.37,237.69 344.80,247.82 346.91,254.22 C348.32,258.50 354.77,264.69 358.72,265.56 C360.25,265.90 361.95,266.34 362.50,266.55 C364.26,267.20 372.39,265.85 375.09,264.45 ZM 420.48 265.88 C422.86,265.22 426.07,263.12 428.48,260.64 L 432.50 256.50 L 429.37 256.20 C427.27,255.99 424.99,256.75 422.37,258.54 C415.64,263.14 407.50,260.68 403.40,252.80 C400.46,247.15 400.62,247.08 417.24,246.78 C434.65,246.46 433.95,246.91 431.97,237.36 C431.10,233.14 429.83,230.67 427.01,227.64 C423.39,223.76 422.90,223.56 416.27,223.19 C407.39,222.68 402.22,225.05 398.62,231.25 C391.36,243.78 396.27,261.09 408.31,265.36 C413.51,267.20 415.44,267.28 420.48,265.88 ZM 517.19 265.97 C520.59,265.02 526.00,260.08 526.00,257.92 C526.00,256.12 519.35,256.96 517.50,259.00 C515.00,261.76 510.47,261.56 507.45,258.55 C505.11,256.20 505.00,255.53 505.00,243.59 L 505.00 231.09 L 512.25 230.79 C519.33,230.51 519.51,230.44 519.82,227.75 L 520.13 225.00 L 512.57 225.00 L 505.00 225.00 L 505.00 220.50 C505.00,216.17 504.89,216.00 502.00,216.00 L 499.00 216.00 L 499.00 237.42 L 499.00 258.85 L 501.58 261.92 C505.32,266.36 510.73,267.76 517.19,265.97 ZM 93.81 263.30 C94.10,261.28 93.65,261.08 88.31,260.80 L 82.50 260.50 L 82.50 246.16 C82.50,232.29 82.58,231.76 84.86,229.91 C87.92,227.43 92.47,227.47 95.00,230.00 C96.80,231.80 103.00,232.89 103.00,231.40 C103.00,229.69 99.36,225.03 97.29,224.09 C93.69,222.45 83.83,222.73 81.23,224.55 C77.15,227.41 76.52,229.95 76.00,245.50 L 75.50 260.50 L 72.25 260.81 C69.12,261.12 67.80,263.47 69.70,265.36 C70.08,265.75 75.59,265.93 81.95,265.78 C92.99,265.51 93.51,265.40 93.81,263.30 ZM 241.59 258.25 L 244.52 250.50 L 258.01 250.22 L 271.50 249.95 L 273.89 256.72 C275.21,260.45 276.72,264.06 277.26,264.75 C278.31,266.09 283.99,266.51 284.02,265.25 C284.03,264.84 279.01,251.34 272.87,235.25 L 261.70 206.00 L 258.01 206.00 L 254.32 206.00 L 243.21 235.17 C237.10,251.22 232.33,264.72 232.61,265.17 C232.89,265.63 234.37,266.00 235.89,266.00 C238.44,266.00 238.91,265.35 241.59,258.25 ZM 454.18 250.02 C454.50,234.07 454.51,234.03 457.27,231.27 C459.60,228.95 460.86,228.51 465.08,228.57 C469.15,228.63 470.62,229.16 472.80,231.35 C475.45,234.00 475.51,234.32 476.00,249.77 L 476.50 265.50 L 479.33 265.82 L 482.17 266.15 L 481.83 248.82 C481.47,229.82 480.81,227.50 474.90,224.45 C471.13,222.50 461.68,222.60 457.74,224.63 C455.56,225.76 454.47,225.92 454.21,225.13 C454.00,224.51 452.52,224.00 450.92,224.00 L 448.00 224.00 L 448.00 244.33 C448.00,255.52 448.30,264.97 448.67,265.33 C449.03,265.70 450.35,266.00 451.60,266.00 C453.84,266.00 453.87,265.86 454.18,250.02 ZM 373.40 158.16 C373.69,157.69 365.38,130.13 354.94,96.91 C344.50,63.68 334.07,30.31 331.75,22.75 L 327.53 9.00 L 315.40 9.00 L 303.26 9.00 L 300.51 19.39 L 297.75 29.77 L 317.50 92.14 C328.36,126.44 337.63,155.51 338.10,156.75 C338.94,158.96 339.24,159.00 355.92,159.00 C365.25,159.00 373.12,158.62 373.40,158.16 ZM 220.30 157.37 C220.65,157.02 219.19,155.47 217.07,153.94 C209.30,148.31 205.25,140.33 202.81,125.84 C201.05,115.45 201.12,50.30 202.89,39.50 C205.21,25.38 209.17,17.79 217.25,11.93 L 221.30 9.00 L 217.83 9.00 C205.79,9.00 186.99,19.73 178.14,31.66 C167.60,45.85 163.00,61.48 163.00,83.16 C163.00,101.66 167.02,117.20 174.92,129.24 C184.35,143.61 196.58,152.27 213.50,156.56 C219.76,158.15 219.54,158.12 220.30,157.37 ZM 277.00 130.00 C277.00,116.25 276.62,105.00 276.16,105.00 C275.70,105.00 274.74,106.91 274.04,109.25 C272.45,114.57 265.72,128.05 261.69,134.00 C260.01,136.48 255.26,141.99 251.14,146.25 C247.02,150.51 243.90,154.00 244.20,154.00 C244.50,154.00 246.61,153.34 248.88,152.54 C260.58,148.41 271.50,148.63 274.26,153.04 C274.93,154.12 275.82,155.00 276.24,155.00 C276.66,155.00 277.00,143.75 277.00,130.00 ZM 263.15 43.97 C267.26,42.83 273.59,36.47 274.59,32.48 C275.78,27.76 274.49,19.50 272.03,16.04 C267.22,9.29 256.04,7.03 248.53,11.28 C238.26,17.10 236.16,30.65 244.23,38.94 C249.78,44.63 255.40,46.13 263.15,43.97 ZM 121.58 238.25 C123.00,231.90 127.78,228.04 134.23,228.01 C139.22,228.00 143.85,232.09 144.67,237.25 L 145.26 241.00 L 133.11 241.00 L 120.96 241.00 L 121.58 238.25 ZM 175.20 258.52 C171.48,255.38 170.98,251.48 173.85,247.94 C175.30,246.14 176.97,245.56 181.60,245.23 C189.32,244.67 193.00,247.16 193.00,252.92 C193.00,258.02 190.39,260.22 183.69,260.78 C179.07,261.16 178.01,260.88 175.20,258.52 ZM 402.00 239.97 C402.00,237.47 404.99,232.15 407.51,230.17 C410.86,227.53 417.51,227.27 420.88,229.63 C422.16,230.53 423.84,232.76 424.61,234.60 C427.28,240.99 427.27,241.00 414.00,241.00 C406.42,241.00 402.00,240.62 402.00,239.97 ZM 250.43 234.75 C256.26,218.86 257.41,216.00 258.01,216.00 C258.34,216.00 260.83,221.93 263.55,229.18 C266.27,236.44 268.65,242.74 268.83,243.18 C269.02,243.63 264.19,244.00 258.10,244.00 L 247.04 244.00 L 250.43 234.75 Z" fill="transparant"/>
</g>
</svg>