<svg xmlns="http://www.w3.org/2000/svg" xml:space="preserve" fill-rule="evenodd" stroke-linecap="round" stroke-linejoin="round" style="background-color:transparent" viewBox="0 0 1024 768"><defs><style><![CDATA[g[clip-path]>*{vector-effect:non-scaling-stroke}]]></style></defs><g fill="none" stroke="currentColor" clip-path="url(#clipId0)"><path d="M10 102h1004M1014 102v94M1014 196H10M10 196v50M10 246h1004M10 102v564M10 666h1004M1014 666V196M1014 572H10M10 522h1004M10 102h1004M1014 102v94M1014 196H10M10 196v50M10 246h1004M10 102v564M10 666h1004M1014 666V196M1014 572H10M10 522h1004M345 102v94M679 102v94M345 572v94M679 572v94"/><circle cx="83.2" cy="619.3" r="12.5"/><circle cx="45.6" cy="619.3" r="12.5"/><circle cx="45.6" cy="496.9" r="9.4"/></g><g fill="currentColor" stroke="currentColor" clip-path="url(#clipId0)"><text font-family="@Malgun Gothic,'sans-serif'" font-size="1.4" transform="matrix(13 0 0 13 22 462)">OUT</text></g><g fill="none" stroke="currentColor" clip-path="url(#clipId0)"><path d="M72 360v-47M72 313h75M147 313v94M147 407H72M72 407v-47"/></g><g fill="none" stroke="currentColor" clip-path="url(#clipId0)"><path d="M198 410V285M198 285h125M323 285v125M323 410H198M983 360v-47M983 313h-76M907 313v94M907 407h76M983 407v-47"/><circle cx="107.8" cy="428.5" r="9.4"/></g><g fill="currentColor" stroke="currentColor" clip-path="url(#clipId0)"><text font-family="@Malgun Gothic,'sans-serif'" font-size="1.4" transform="matrix(19 0 0 19 125 438)">0</text></g><g fill="none" stroke="currentColor" clip-path="url(#clipId0)"><circle cx="843.9" cy="359.8" r="9.4"/></g><g fill="currentColor" stroke="currentColor" clip-path="url(#clipId0)"><text font-family="@Malgun Gothic,'sans-serif'" font-size="1.4" transform="matrix(13 0 0 13 393 329)">RELAY NO UP / DOWN MODULE</text><text font-family="@Malgun Gothic,'sans-serif'" font-size="1.4" transform="matrix(13 0 0 13 393 351)">INPUT 200-240 VAC 50 Hz</text><text font-family="@Malgun Gothic,'sans-serif'" font-size="1.4" transform="matrix(13 0 0 13 393 371)">MAX. LOAD 6 X16 A</text><text font-family="@Malgun Gothic,'sans-serif'" font-size="1.4" transform="matrix(19 0 0 19 675 374)">CE</text></g><g fill="none" stroke="currentColor" clip-path="url(#clipId0)"><path d="M384 310v72M384 382h334M718 382v-62M384 310h334M718 310v10M46 619v82M83 619v82"/><circle cx="120.9" cy="619.3" r="12.5"/><path d="M121 619v82"/><circle cx="158.5" cy="619.3" r="12.5"/><path d="M159 619v82"/><circle cx="196.2" cy="619.3" r="12.5"/><path d="M196 619v82"/><circle cx="233.8" cy="619.3" r="12.5"/><path d="M234 619v82"/><circle cx="271.5" cy="619.3" r="12.5"/><path d="M271 619v82"/><circle cx="309.1" cy="619.3" r="12.5"/><path d="M309 619v82"/><circle cx="83.2" cy="496.9" r="9.4"/><circle cx="120.9" cy="496.9" r="9.4"/><circle cx="158.5" cy="496.9" r="9.4"/><circle cx="196.2" cy="496.9" r="9.4"/><circle cx="233.8" cy="496.9" r="9.4"/><circle cx="271.5" cy="496.9" r="9.4"/><circle cx="309.1" cy="496.9" r="9.4"/><circle cx="417.9" cy="619.3" r="12.5"/><circle cx="380.2" cy="619.3" r="12.5"/><circle cx="380.2" cy="496.9" r="9.4"/><path d="m373 502 15-10M380 619v82M418 619v82"/><circle cx="455.5" cy="619.3" r="12.5"/><path d="M456 619v82"/><circle cx="493.2" cy="619.3" r="12.5"/><path d="M493 619v82"/><circle cx="530.8" cy="619.3" r="12.5"/><path d="M531 619v82"/><circle cx="568.5" cy="619.3" r="12.5"/><path d="M568 619v82"/><circle cx="606.1" cy="619.3" r="12.5"/><path d="M606 619v82"/><circle cx="643.8" cy="619.3" r="12.5"/><path d="M644 619v82"/><circle cx="417.9" cy="496.9" r="9.4"/><circle cx="455.5" cy="496.9" r="9.4"/><circle cx="493.2" cy="496.9" r="9.4"/><circle cx="530.8" cy="496.9" r="9.4"/><circle cx="568.5" cy="496.9" r="9.4"/><circle cx="606.1" cy="496.9" r="9.4"/><circle cx="643.8" cy="496.9" r="9.4"/><circle cx="752.5" cy="619.3" r="12.5"/><circle cx="714.9" cy="619.3" r="12.5"/><circle cx="714.9" cy="496.9" r="9.4"/><path d="m707 502 16-10M715 619v82M753 619v82"/><circle cx="790.2" cy="619.3" r="12.5"/><path d="M790 619v82"/><circle cx="827.8" cy="619.3" r="12.5"/><path d="M828 619v82"/><circle cx="865.5" cy="619.3" r="12.5"/><path d="M865 619v82"/><circle cx="903.1" cy="619.3" r="12.5"/><path d="M903 619v82"/><circle cx="940.8" cy="619.3" r="12.5"/><path d="M941 619v82"/><circle cx="978.4" cy="619.3" r="12.5"/><path d="M978 619v82"/><circle cx="752.5" cy="496.9" r="9.4"/><circle cx="790.2" cy="496.9" r="9.4"/><circle cx="827.8" cy="496.9" r="9.4"/><circle cx="865.5" cy="496.9" r="9.4"/><circle cx="903.1" cy="496.9" r="9.4"/><circle cx="940.8" cy="496.9" r="9.4"/><circle cx="978.4" cy="496.9" r="9.4"/></g><g fill="currentColor" stroke="currentColor" clip-path="url(#clipId0)"><text font-family="@Malgun Gothic,'sans-serif'" font-size="1.4" transform="matrix(13 0 0 13 77 483)">L</text><text font-family="@Malgun Gothic,'sans-serif'" font-size="1.4" transform="matrix(13 0 0 13 40 483)">N</text><text font-family="@Malgun Gothic,'sans-serif'" font-size="1.4" transform="matrix(13 0 0 13 152 483)">L</text><text font-family="@Malgun Gothic,'sans-serif'" font-size="1.4" transform="matrix(13 0 0 13 115 483)">N</text><text font-family="@Malgun Gothic,'sans-serif'" font-size="1.4" transform="matrix(13 0 0 13 228 483)">L</text><text font-family="@Malgun Gothic,'sans-serif'" font-size="1.4" transform="matrix(13 0 0 13 190 483)">N</text><text font-family="@Malgun Gothic,'sans-serif'" font-size="1.4" transform="matrix(13 0 0 13 303 483)">L</text><text font-family="@Malgun Gothic,'sans-serif'" font-size="1.4" transform="matrix(13 0 0 13 266 483)">N</text><text font-family="@Malgun Gothic,'sans-serif'" font-size="1.4" transform="matrix(13 0 0 13 412 483)">L</text><text font-family="@Malgun Gothic,'sans-serif'" font-size="1.4" transform="matrix(13 0 0 13 374 483)">N</text><text font-family="@Malgun Gothic,'sans-serif'" font-size="1.4" transform="matrix(13 0 0 13 487 483)">L</text><text font-family="@Malgun Gothic,'sans-serif'" font-size="1.4" transform="matrix(13 0 0 13 450 483)">N</text><text font-family="@Malgun Gothic,'sans-serif'" font-size="1.4" transform="matrix(13 0 0 13 562 483)">L</text><text font-family="@Malgun Gothic,'sans-serif'" font-size="1.4" transform="matrix(13 0 0 13 525 483)">N</text><text font-family="@Malgun Gothic,'sans-serif'" font-size="1.4" transform="matrix(13 0 0 13 638 483)">L</text><text font-family="@Malgun Gothic,'sans-serif'" font-size="1.4" transform="matrix(13 0 0 13 600 483)">N</text><text font-family="@Malgun Gothic,'sans-serif'" font-size="1.4" transform="matrix(13 0 0 13 746 483)">L</text><text font-family="@Malgun Gothic,'sans-serif'" font-size="1.4" transform="matrix(13 0 0 13 709 483)">N</text><text font-family="@Malgun Gothic,'sans-serif'" font-size="1.4" transform="matrix(13 0 0 13 822 483)">L</text><text font-family="@Malgun Gothic,'sans-serif'" font-size="1.4" transform="matrix(13 0 0 13 784 483)">N</text><text font-family="@Malgun Gothic,'sans-serif'" font-size="1.4" transform="matrix(13 0 0 13 897 483)">L</text><text font-family="@Malgun Gothic,'sans-serif'" font-size="1.4" transform="matrix(13 0 0 13 860 483)">N</text><text font-family="@Malgun Gothic,'sans-serif'" font-size="1.4" transform="matrix(13 0 0 13 972 483)">L</text><text font-family="@Malgun Gothic,'sans-serif'" font-size="1.4" transform="matrix(13 0 0 13 935 483)">N</text></g><g fill="none" stroke="currentColor" clip-path="url(#clipId0)"><circle cx="45.6" cy="271.1" r="9.4"/></g><g fill="currentColor" stroke="currentColor" clip-path="url(#clipId0)"><text font-family="@Malgun Gothic,'sans-serif'" font-size="1.4" transform="matrix(13 0 0 13 21 319)">IN</text></g><g fill="none" stroke="currentColor" clip-path="url(#clipId0)"><circle cx="83.2" cy="271.1" r="9.4"/><circle cx="271.5" cy="271.1" r="9.4"/><circle cx="309.1" cy="271.1" r="9.4"/><circle cx="380.2" cy="271.1" r="9.4"/><circle cx="417.9" cy="271.1" r="9.4"/><circle cx="606.1" cy="271.1" r="9.4"/><circle cx="643.8" cy="271.1" r="9.4"/><circle cx="714.9" cy="271.1" r="9.4"/><circle cx="752.5" cy="271.1" r="9.4"/><circle cx="940.8" cy="271.1" r="9.4"/><circle cx="978.4" cy="271.1" r="9.4"/></g><g fill="currentColor" stroke="currentColor" clip-path="url(#clipId0)"><text font-family="@Malgun Gothic,'sans-serif'" font-size="1.4" transform="matrix(13 0 0 13 77 297)">L</text><text font-family="@Malgun Gothic,'sans-serif'" font-size="1.4" transform="matrix(13 0 0 13 40 297)">N</text><text font-family="@Malgun Gothic,'sans-serif'" font-size="1.4" transform="matrix(13 0 0 13 412 297)">L</text><text font-family="@Malgun Gothic,'sans-serif'" font-size="1.4" transform="matrix(13 0 0 13 374 297)">N</text><text font-family="@Malgun Gothic,'sans-serif'" font-size="1.4" transform="matrix(13 0 0 13 638 297)">L</text><text font-family="@Malgun Gothic,'sans-serif'" font-size="1.4" transform="matrix(13 0 0 13 600 297)">N</text><text font-family="@Malgun Gothic,'sans-serif'" font-size="1.4" transform="matrix(13 0 0 13 746 297)">L</text><text font-family="@Malgun Gothic,'sans-serif'" font-size="1.4" transform="matrix(13 0 0 13 709 297)">N</text><text font-family="@Malgun Gothic,'sans-serif'" font-size="1.4" transform="matrix(13 0 0 13 972 297)">L</text><text font-family="@Malgun Gothic,'sans-serif'" font-size="1.4" transform="matrix(13 0 0 13 935 297)">N</text></g><g fill="none" stroke="currentColor" clip-path="url(#clipId0)"><circle cx="83.2" cy="148.7" r="12.5"/><circle cx="45.6" cy="148.7" r="12.5"/><path d="M46 149V67M83 149V67"/><circle cx="271.5" cy="148.7" r="12.5"/><path d="M271 149V67"/><circle cx="309.1" cy="148.7" r="12.5"/><path d="M309 149V67"/><circle cx="417.9" cy="148.7" r="12.5"/><circle cx="380.2" cy="148.7" r="12.5"/><path d="M380 149V67M418 149V67"/><circle cx="606.1" cy="148.7" r="12.5"/><path d="M606 149V67"/><circle cx="643.8" cy="148.7" r="12.5"/><path d="M644 149V67"/><circle cx="752.5" cy="148.7" r="12.5"/><circle cx="714.9" cy="148.7" r="12.5"/><path d="M715 149V67M753 149V67"/><circle cx="940.8" cy="148.7" r="12.5"/><path d="M941 149V67"/><circle cx="978.4" cy="148.7" r="12.5"/><path d="M978 149V67M84 438l7-19H76z"/></g><g fill="currentColor" stroke="currentColor" clip-path="url(#clipId0)"><path fill="url(#g_18)" d="m84 438-8-19h8z"/><path fill="url(#g_19)" d="M84 438v-19h7z"/></g><g fill="none" stroke="currentColor" clip-path="url(#clipId0)"><path d="M91 419H76M84 438l7-19M84 438l-8-19"/><circle cx="263.9" cy="428.5" r="9.4"/></g><g fill="currentColor" stroke="currentColor" clip-path="url(#clipId0)"><text font-family="@Malgun Gothic,'sans-serif'" font-size="1.4" transform="matrix(19 0 0 19 234 438)">1</text></g><g fill="none" stroke="currentColor" clip-path="url(#clipId0)"><path d="m288 419-8 19h16z"/></g><g fill="currentColor" stroke="currentColor" clip-path="url(#clipId0)"><path fill="url(#g_20)" d="M288 438h-8l8-19z"/><path fill="url(#g_21)" d="M288 438v-19l8 19z"/></g><g fill="none" stroke="currentColor" clip-path="url(#clipId0)"><path d="M280 438h16M288 419l-8 19M288 419l8 19"/><circle cx="154.3" cy="428.5" r="9.4"/><path d="m178 419-7 19h15z"/></g><g fill="currentColor" stroke="currentColor" clip-path="url(#clipId0)"><path fill="url(#g_22)" d="M178 438h-7l7-19z"/><path fill="url(#g_23)" d="M178 438v-19l8 19z"/></g><g fill="none" stroke="currentColor" clip-path="url(#clipId0)"><path d="M171 438h15M178 419l-7 19M178 419l8 19"/><circle cx="217.4" cy="428.5" r="9.4"/><path d="m193 438 8-19h-16z"/></g><g fill="currentColor" stroke="currentColor" clip-path="url(#clipId0)"><path fill="url(#g_24)" d="m193 438-8-19h8z"/><path fill="url(#g_25)" d="M193 438v-19h8z"/></g><g fill="none" stroke="currentColor" clip-path="url(#clipId0)"><path d="M201 419h-16M193 438l8-19M193 438l-8-19"/><circle cx="442.4" cy="428.5" r="9.4"/></g><g fill="currentColor" stroke="currentColor" clip-path="url(#clipId0)"><text font-family="@Malgun Gothic,'sans-serif'" font-size="1.4" transform="matrix(19 0 0 19 459 438)">2</text></g><g fill="none" stroke="currentColor" clip-path="url(#clipId0)"><path d="m418 438 8-19h-16z"/></g><g fill="currentColor" stroke="currentColor" clip-path="url(#clipId0)"><path fill="url(#g_26)" d="m418 438-8-19h8z"/><path fill="url(#g_27)" d="M418 438v-19h8z"/></g><g fill="none" stroke="currentColor" clip-path="url(#clipId0)"><path d="M426 419h-16M418 438l8-19M418 438l-8-19"/><circle cx="598.5" cy="428.5" r="9.4"/></g><g fill="currentColor" stroke="currentColor" clip-path="url(#clipId0)"><text font-family="@Malgun Gothic,'sans-serif'" font-size="1.4" transform="matrix(19 0 0 19 569 438)">3</text></g><g fill="none" stroke="currentColor" clip-path="url(#clipId0)"><path d="m623 419-8 19h16z"/></g><g fill="currentColor" stroke="currentColor" clip-path="url(#clipId0)"><path fill="url(#g_28)" d="M623 438h-8l8-19z"/><path fill="url(#g_29)" d="M623 438v-19l8 19z"/></g><g fill="none" stroke="currentColor" clip-path="url(#clipId0)"><path d="M615 438h16M623 419l-8 19M623 419l8 19"/><circle cx="488.9" cy="428.5" r="9.4"/><path d="m513 419-8 19h16z"/></g><g fill="currentColor" stroke="currentColor" clip-path="url(#clipId0)"><path fill="url(#g_30)" d="M513 438h-8l8-19z"/><path fill="url(#g_31)" d="M513 438v-19l8 19z"/></g><g fill="none" stroke="currentColor" clip-path="url(#clipId0)"><path d="M505 438h16M513 419l-8 19M513 419l8 19"/><circle cx="552.1" cy="428.5" r="9.4"/><path d="m528 438 8-19h-16z"/></g><g fill="currentColor" stroke="currentColor" clip-path="url(#clipId0)"><path fill="url(#g_32)" d="m528 438-8-19h8z"/><path fill="url(#g_33)" d="M528 438v-19h8z"/></g><g fill="none" stroke="currentColor" clip-path="url(#clipId0)"><path d="M536 419h-16M528 438l8-19M528 438l-8-19"/><circle cx="777" cy="428.5" r="9.4"/></g><g fill="currentColor" stroke="currentColor" clip-path="url(#clipId0)"><text font-family="@Malgun Gothic,'sans-serif'" font-size="1.4" transform="matrix(19 0 0 19 795 438)">4</text></g><g fill="none" stroke="currentColor" clip-path="url(#clipId0)"><path d="m753 438 8-19h-16z"/></g><g fill="currentColor" stroke="currentColor" clip-path="url(#clipId0)"><path fill="url(#g_34)" d="m753 438-8-19h8z"/><path fill="url(#g_35)" d="M753 438v-19h8z"/></g><g fill="none" stroke="currentColor" clip-path="url(#clipId0)"><path d="M761 419h-16M753 438l8-19M753 438l-8-19"/><circle cx="933.2" cy="428.5" r="9.4"/></g><g fill="currentColor" stroke="currentColor" clip-path="url(#clipId0)"><text font-family="@Malgun Gothic,'sans-serif'" font-size="1.4" transform="matrix(19 0 0 19 903 438)">5</text></g><g fill="none" stroke="currentColor" clip-path="url(#clipId0)"><path d="m957 419-7 19h15z"/></g><g fill="currentColor" stroke="currentColor" clip-path="url(#clipId0)"><path fill="url(#g_36)" d="M957 438h-7l7-19z"/><path fill="url(#g_37)" d="M957 438v-19l8 19z"/></g><g fill="none" stroke="currentColor" clip-path="url(#clipId0)"><path d="M950 438h15M957 419l-7 19M957 419l8 19"/><circle cx="823.5" cy="428.5" r="9.4"/><path d="m848 419-8 19h16z"/></g><g fill="currentColor" stroke="currentColor" clip-path="url(#clipId0)"><path fill="url(#g_38)" d="M848 438h-8l8-19z"/><path fill="url(#g_39)" d="M848 438v-19l8 19z"/></g><g fill="none" stroke="currentColor" clip-path="url(#clipId0)"><path d="M840 438h16M848 419l-8 19M848 419l8 19"/><circle cx="886.7" cy="428.5" r="9.4"/><path d="m863 438 7-19h-15z"/></g><g fill="currentColor" stroke="currentColor" clip-path="url(#clipId0)"><path fill="url(#g_40)" d="m863 438-8-19h8z"/><path fill="url(#g_41)" d="M863 438v-19h7z"/></g><g fill="none" stroke="currentColor" clip-path="url(#clipId0)"><path d="M870 419h-15M863 438l7-19M863 438l-8-19M198 285v125h125V285z"/></g><g fill="#ed1f24" stroke="#ed1f24" clip-path="url(#clipId0)"><path d="M198 285v125h125V285z"/></g><g fill="none" stroke="currentColor" clip-path="url(#clipId0)"><path d="M198 410V285h125v125z"/><path d="M212 289v73h8v3l-4 1h-4v24l1 3 4 3h3v5h-1l-4-1-4-2-2-4-1-8v-20h0-2l-1-1v-3h3v-72l1-1h3"/><path d="M212 289v73h8v3l-4 1h-4v24l1 4 4 2h3v5h-1l-4-1-4-2-2-4-1-8v-20h0-2l-1-2v-2h3v-72l1-1h3"/></g><g fill="currentColor" stroke="currentColor" clip-path="url(#clipId0)"><path d="M205 366v-4zM205 366v-4h0zM205 366v-4zM206 366l-1-4h1zM206 366v-4zM206 366v-4h0zM206 366v-4zM206 366v-4h0zM206 366v-4zM207 366l-1-4h1zM207 366v-4zM207 366v-4h0zM207 366v-4zM208 366l-1-4h1zM208 366v-4zM208 366v-4h0zM208 366v-4zM208 366v-4h0zM208 366v-4zM208 366v-4h0zM208 366v-4zM208 366v-4h0zM208 366v-4zM208 366v-4h0zM208 366v-4zM208 366v-4h0zM208 366v-4zM208 366v-4h0zM208 366v-4zM208 366v-4h0zM208 289zM208 289zM208 366v-4zM208 366v-4h0zM208 289zM208 289zM208 366v-4zM208 366v-4h0zM208 289zM208 289zM208 366v-4zM208 366v-4h0zM208 289zM208 289zM208 366v-4zM208 366v-4h0zM208 289zM208 289zM208 366v-4zM208 366v-4h0zM208 289zM208 290zM208 366v-4zM208 366v-4h0zM208 290zM208 290zM208 366v-4zM208 366v-4h0zM208 290zM208 290zM208 366v-4zM208 366v-4h0zM208 290zM208 290zM208 387zM208 366v-4zM208 366v-4h0zM208 290zM208 290zM208 387zM208 387zM208 366v-4zM208 366v-4h0zM208 290zM208 290zM208 387zM208 387zM208 366v-4zM208 366v-4h0zM208 290zM208 290zM208 387zM208 388v-2zM208 366v-4zM208 366v-4h0zM208 290zM208 291v-2h0zM208 388v-2zM208 388v-2h0zM208 366v-4zM208 366v-4h0zM208 291v-2zM208 291v-2h0zM208 388v-2zM208 388v-2h0zM208 366v-4zM208 366v-4h0zM208 291v-2zM208 291v-2h0zM208 388v-2zM208 388v-2h0zM208 366v-4zM208 366v-4h0zM208 291v-2zM208 291v-2h0zM208 388v-2zM208 388v-2h0zM208 366v-4zM208 366v-4h0zM208 291v-2zM208 291v-2h0zM208 388v-2zM208 388v-2h0zM208 366v-4zM208 366v-4h0zM208 300zM208 291v-2zM208 292v-3h0zM208 388v-3zM208 388v-3h0zM208 366v-4zM208 366v-5zM208 302v-3 5zM208 304v-5h0zM208 292v-3zM208 292v-3h0zM208 388v-3zM208 388v-4zM208 366v-5zM208 367v-7zM208 304v-5 8zM208 307v-8h0zM208 292v-3zM208 292v-3h0zM208 388v-4zM208 388v-5zM208 367v-7zM208 367v-9zM208 307v-8 10zM208 309v-10h0zM208 292v-3zM208 292v-3h0zM208 388v-5zM208 388v-5h0zM208 367v-9zM208 367v-10zM208 309v-10zM208 310v-11h0zM208 292v-3zM208 292v-3h0zM208 388v-5zM208 388v-5h0zM208 367v-10zM208 368v-12zM208 310v-11zM208 311v-12h0zM208 292v-3zM208 292v-3h0zM208 388v-5zM208 388v-6zM208 368v-12zM208 368v-15zM208 311v-12 15zM208 314v-16zM208 292v-3zM208 292v-3h0zM208 388v-6zM208 388v-7zM208 368v-15zM208 369v-19zM208 314v-16 18zM208 316v-18h0zM208 292v-3zM208 292v-3h0zM208 388v-7zM208 388v-7h0zM208 369v-19zM208 369v-19h0zM208 316v-18zM208 316v-18h0zM208 292v-3zM208 292v-3h0zM208 388v-7zM208 388v-7h0zM208 369v-19zM208 369v-20zM208 316v-18 20zM208 318v-20h0zM208 292v-3zM208 292v-3h0zM208 388v-7zM208 388v-7h0zM208 369v-20zM208 370v-24zM208 318v-20 23zM208 321v-23h0zM208 292v-3zM208 292v-3h0zM208 388v-7zM208 388v-7h0zM208 370v-24zM208 370v-24h0zM208 321v-23zM208 321v-23h0zM208 292v-3zM208 292v-3h0zM208 388v-7zM208 388v-8zM208 370v-24zM208 370v-24h0zM208 321v-23zM208 322v-24h0zM208 292v-3zM208 292v-3h0zM208 388v-8zM208 388v-8h0zM208 370v-24zM208 371v-28zM208 322v-24 26zM208 324v-26h0zM208 292v-3zM208 292v-3h0zM208 388v-8zM208 388v-9zM208 371v-28zM208 371v-33zM208 324v-26 32zM208 330v-32h0zM208 292v-3zM208 292v-3h0zM208 388v-9zM208 388v-9h0zM208 371v-33zM208 371v-36zM208 330v-32zM208 330v-32h0zM208 292v-3zM208 292v-3h0zM208 388v-9zM208 388v-9h0zM208 371v-36zM208 371v-40zM208 330v-32zM208 331v-33h0zM208 292v-3zM208 292v-3h0zM208 388v-9zM208 388v-10zM208 371v-73 74zM208 372v-74h0zM208 292v-3zM208 292v-3h0zM208 388v-10zM208 388v-12zM208 372v-74 76zM208 374v-76h0zM208 292v-3zM208 292v-3h0zM208 388v-12zM208 388v-12h0zM208 374v-76 78zM208 376v-78h0zM208 292v-3zM208 292v-3h0zM208 388v-90zM208 388v-91zM208 292v-3zM208 293v-4h0zM208 388v-91zM208 388v-91h0zM208 293v-4zM208 293v-4h0zM208 388v-91zM208 388v-92zM208 293v-4zM208 293v-4h0zM208 388v-92zM208 388v-92h0zM208 293v-4zM208 293v-4h0zM208 388v-92zM208 388v-92h0zM208 293v-4zM208 294v-5h0zM208 388v-92zM208 388v-92h0zM208 294v-5zM208 294v-5h0zM208 388v-92zM208 388v-93zM208 294v-5zM208 295v-6h0zM208 388v-99zM208 388v-99h0zM208 388v-99zM208 388v-99h0zM208 388v-99zM208 389V289h0zM208 389V289zM208 389V289h0zM208 389V289zM208 389V289h0zM208 389V289zM208 389V289h0zM208 389V289zM208 389V289h0zM208 389V289zM208 389V289h0zM208 389V289zM208 389V289h0zM208 389V289zM208 389V289h0zM208 389V289zM208 389V289h0zM208 389V289zM208 389V289h0zM208 389V289zM208 389V289h0zM208 389V289zM208 389V289h0zM208 389V289zM208 389V289h0zM208 389V289zM209 389l-1-100h1zM209 389V289zM209 390V289h0zM209 390V289zM209 390V289h0zM209 390V289zM209 390V289h0zM209 390V289v102zM209 391V289h0zM209 391V289zM209 391V289h0zM209 391V289zM209 392V289h0zM209 392V289zM209 392V289h0zM209 392V289zM209 393V289h0zM209 393V289zM209 393V289h0zM209 393V289zM209 393V289h0zM209 393V289zM209 393V289h0zM209 393V289zM209 393V289h0zM209 393V289v105zM209 394V289h0zM209 394V289zM209 394V289h0zM209 394V289zM210 395l-1-106h1zM210 395V289zM210 395V289h0zM210 395V289zM210 395V289h0zM210 395V289zM210 396V289h0zM210 396V289zM210 396V289h0zM210 396V289zM210 396V289h0zM210 396V289zM210 396V289h0zM210 396V289zM210 396V289h0zM210 396V289zM210 397V289h0zM210 397V289zM211 397l-1-108h1zM211 397V289zM211 397V289h0zM211 397V289zM211 397V289h0zM211 397V289zM211 397V289h0zM211 397V289zM211 397V289h0zM211 397V289zM211 398V289h0zM211 398V289zM211 398V289h0zM211 398V289zM211 398V289h0zM211 398V289zM211 398V289h0zM211 398V289zM212 398l-1-109h1zM212 398V289zM212 398V289h0zM212 398V289zM212 398V289h0zM212 398V289zM212 398V289h0zM212 398V289zM212 398V289h0zM212 398V289zM212 398V289h0zM212 398V289zM212 398V289h0zM212 398V289zM212 398V289h0zM212 398V289zM212 398V289h0zM212 398V289zM212 398V289h0zM212 398V289zM212 398V289h0zM212 398V289zM212 398V289h0zM212 398V289zM212 398V289h0zM212 398V289zM212 398V289h0zM212 398V289zM212 398V289h0zM212 398V289zM212 398V289h0zM212 398V289zM212 398V289h0zM212 398V289zM212 398V289h0zM212 398v-98zM212 398v-98 4zM212 300v-11 8zM212 297v-8h0zM212 398v-14zM212 398v-14 1zM212 384v-80 79zM212 383v-79 5zM212 297v-8 5zM212 294v-5h0zM212 398v-13zM212 398v-13 1zM212 383v-74zM212 382v-73 1zM212 294v-5 2zM212 291v-2h0zM212 398v-11zM212 398v-11h0zM212 382v-72zM212 381v-71 1zM212 398v-11zM212 398v-11h0zM212 381v-70 69zM212 380v-69 6zM212 398v-11zM212 398v-11h0zM212 380v-63 62zM212 379v-62 2zM212 398v-11zM212 398v-11h0zM212 379v-60zM212 378v-59 2zM212 398v-11zM212 398v-11h0zM212 378v-57 56zM212 377v-56 5zM212 398v-11zM212 398v-11h0zM212 377v-51zM212 376v-50 1zM212 398v-11zM212 398v-11h0zM212 376v-49 47zM212 374v-47 7zM212 398v-11zM212 398v-11h0zM212 374v-40zM212 374v-40 1zM212 398v-11zM212 398v-11 1zM212 374v-39 37zM212 372v-37 8zM212 398v-10zM212 398v-10h0zM212 372v-29zM212 372v-29h0zM212 398v-10zM212 398v-10h0zM212 372v-29 26zM212 369v-26 8zM212 398v-10zM212 398v-10h0zM212 369v-18zM212 369v-18 1zM212 398v-10zM212 398v-10h0zM212 369v-17 15zM212 367v-15 8zM212 398v-10zM212 398v-10h0zM212 367v-7zM212 366v-6 1zM212 398v-10zM212 398v-10h0zM212 366v-5zM212 366v-5 1zM212 398v-10zM212 398v-10h0zM212 366v-4zM212 366v-4h0zM212 398v-10zM212 398v-10 1zM212 366v-4zM212 366v-4h0zM212 398v-9zM212 399v-10 1zM212 366v-4zM212 366v-4h0zM212 399v-9zM212 399v-9h0zM212 366v-4zM212 366v-4h0zM212 399v-9zM212 399v-9h0zM212 366v-4zM212 366v-4h0zM212 399v-9zM212 399v-9 1zM212 366v-4zM212 366v-4h0zM212 399v-8zM212 399v-8h0zM212 366v-4zM212 366v-4h0zM212 399v-8zM213 399l-1-8 1 1zM212 366v-4zM213 366l-1-4h1zM213 399v-7zM213 399v-7h0zM213 366v-4zM213 366v-4h0zM213 399v-7zM213 399v-7h0zM213 366v-4zM213 366v-4h0zM213 399v-7zM213 399v-7 1zM213 366v-4zM213 366v-4h0zM213 399v-6zM213 399v-6h0zM213 366v-4zM213 366v-4h0zM213 399v-6zM213 399v-6h0zM213 366v-4zM213 366v-4h0zM213 399v-6zM213 400v-7h0zM213 366v-4zM213 366v-4h0zM213 400v-7zM213 400v-7 1zM213 366v-4zM213 366v-4h0zM213 400v-6zM214 400l-1-6h1zM213 366v-4zM214 366l-1-4h1zM214 400v-6zM214 400v-6h0zM214 366v-4zM214 366v-4h0zM214 400v-6zM214 400v-6h0zM214 366v-4zM214 366v-4h0zM214 400v-6zM214 400v-6h0zM214 366v-4zM214 366v-4h0zM214 400v-6zM214 400v-6h0zM214 366v-4zM214 366v-4h0zM214 400v-6zM214 400v-6 1zM214 366v-4zM214 366v-4h0zM214 400v-5zM214 400v-5h0zM214 366v-4zM214 366v-4h0zM214 400v-5zM215 400l-1-5h1zM214 366v-4zM215 366l-1-4h1zM215 400v-5zM215 400v-5h0zM215 366v-4zM215 366v-4h0zM215 400v-5zM215 400v-5h0zM215 366v-4zM215 366v-4h0zM215 400v-5zM215 400v-5h0zM215 366v-4zM215 366v-4h0zM215 400v-5zM215 401v-6h0zM215 366v-4zM215 366v-4h0zM215 401v-6zM215 401v-6h0zM215 366v-4zM215 366v-4h0zM215 401v-6zM216 401l-1-6 1 1zM215 366v-4zM216 366l-1-4h1zM216 401v-5zM216 401v-5h0zM216 366v-4zM216 366v-4h0zM216 401v-5zM216 401v-5h0zM216 366v-4zM216 366v-4h0zM216 401v-5zM216 401v-5h0zM216 366v-4zM216 366v-4h0zM216 401v-5zM216 401v-5h0zM216 366v-4zM216 366v-4h0zM216 401v-5zM217 401l-1-5h1zM216 366v-4zM217 366l-1-4h1zM217 401v-5zM217 401v-5h0zM217 366v-4zM217 366v-4h0zM217 401v-5zM217 401v-5h0zM217 366v-4zM217 366v-4h0zM217 401v-5zM217 401v-5h0zM217 366v-4zM217 366v-4h0zM217 401v-5zM217 401v-5h0zM217 366v-4zM217 366v-4h0zM217 401v-5zM217 401v-5h0zM217 366v-4zM217 366v-4h0zM217 401v-5zM217 401v-5h0zM217 366v-4zM217 366v-4h0zM217 401v-5zM218 401l-1-5h1zM217 366v-4zM218 366l-1-4h1zM218 401v-5zM218 401v-5h0zM218 366v-4zM218 366v-4h0zM218 401v-5zM218 401v-5h0zM218 366v-4zM218 366v-4h0zM218 401v-5zM218 401v-5h0zM218 366v-4zM218 366v-4h0zM218 401v-5zM218 401v-5h0zM218 366v-4zM218 366v-4h0zM218 401v-5zM218 401v-5h0zM218 366v-4zM218 366v-4h0zM218 401v-5zM218 401v-5h0zM218 366v-4zM218 366v-4h0zM218 401v-5zM219 401l-1-5h1zM218 366v-4zM219 366l-1-4h1zM219 401v-5zM219 401v-5h0zM219 366v-4zM219 366v-4h0zM219 401v-5zM219 401v-5h0zM219 366v-4zM219 366v-4h0zM219 401v-5zM219 401v-5h0zM219 366v-4zM219 366v-4h0zM219 401v-5zM219 401v-5h0zM219 366v-4zM219 366v-4h0zM219 401v-5zM219 401v-5h0zM219 366v-4zM219 366v-4h0zM219 401v-5zM219 401v-5h0zM219 366v-4zM219 366v-4h0zM219 401v-5zM220 401l-1-5h1zM219 366v-4zM220 366l-1-4h1zM220 401v-5zM220 401v-5h0zM220 366v-4zM220 366v-4h0zM220 401v-5zM220 401v-5h0zM220 366v-4zM220 366v-4h0zM220 401v-5zM220 401v-5h0zM220 366v-4zM220 366v-4h0zM220 401v-5 4zM220 400v-4h0zM220 366v-4zM220 366v-4h0zM220 400v-4zM220 399v-3h0zM220 366v-4zM220 366v-4h0zM220 399v-3zM220 399v-3h0zM220 366v-4zM220 366v-4h0zM220 399v-3zM220 398v-2h0zM220 366v-4zM220 366v-4h0zM220 398v-2zM220 398v-2h0zM220 366v-4zM220 366v-4h0zM220 398v-2zM220 397zM220 366v-4zM220 366v-4h0zM220 397zM220 396zM220 366v-4zM220 366v-4h0zM220 396zM220 366v-4zM220 366v-4h0zM220 366v-4zM220 366v-4h0z"/></g><g fill="none" stroke="currentColor" clip-path="url(#clipId0)"><path d="M270 313h3v29l1 3 5 3h3l2-2v-32l1-1 3 1v31l-2 5-2 2-3 1-3-1-3-2-1-2-1-1h0v4l-1 1h-2v-39"/><path d="M270 313h3v29l1 3 5 3h3l2-2v-32l1-1 3 1v31l-2 5-2 2-3 1-3-1-3-2-1-2-1-1h0v4l-1 1h-2v-39"/></g><g fill="currentColor" stroke="currentColor" clip-path="url(#clipId0)"><path d="M270 352zM270 352zM270 352zv-3zM270 352v-4zM270 352v-8zM270 352v-8zM270 352v-11zM270 352v-11zM270 352v-14zM270 352v-14zM270 352v-17zM270 352v-17zM270 352v-19zM270 352v-19zM270 352v-21zM270 352v-21zM270 352v-24zM270 352v-24zM270 352v-25zM270 352v-25zM270 352v-27zM270 352v-27zM270 352v-29zM270 352v-29zM270 352v-30zM270 352v-30zM270 352v-31zM270 352v-31zM270 352v-32zM270 352v-32zM270 352v-33zM270 352v-33zM270 352v-33h0zM270 352v-33zM270 352v-34zM270 352v-34zM270 352v-34h0zM270 352v-34zM270 352v-35zM270 352v-35zM270 352v-35h0zM270 352v-35zM270 352v-36zM270 352v-36zM270 352v-36h0zM270 352v-36zM270 352v-37zM270 352v-37zM270 352v-37h0zM270 352v-37zM270 352v-38zM270 352v-38zM270 352v-38h0zM270 352v-38zM270 352v-38h0zM270 352v-38zM270 352v-39zM270 352v-39zM270 352v-39h0zM270 352v-39zM270 352v-39h0zM270 352v-39zM270 352v-39h0zM270 352v-39zM270 352v-39h0zM270 352v-39zM270 352v-39h0zM270 352v-39zM270 352v-39h0zM270 352v-39zM270 352v-39h0zM270 352v-39zM270 352v-39h0zM270 352v-39zM270 352v-39h0zM270 352v-39zM270 352v-39h0zM270 352v-39zM270 352v-39h0zM270 352v-39zM270 352v-39h0zM270 352v-39zM270 352v-39h0zM270 352v-39zM270 352v-39h0zM270 352v-39zM270 352v-39h0zM270 352v-39zM270 352v-39h0zM270 352v-39zM270 352v-39h0zM270 352v-39zM270 352v-39h0zM270 352v-39zM270 352v-39h0zM270 352v-39zM270 352v-39h0zM270 352v-39zM270 352v-39h0zM270 352v-39zM270 352v-39h0zM270 352v-39zM270 352v-39h0zM270 352v-39zM270 352v-39h0zM270 352v-39zM270 352v-39h0zM270 352v-39zM270 352v-39h0zM270 352v-39zM270 352v-39h0zM270 352v-39zM270 352v-39h0zM270 352v-39zM270 352v-39h0zM270 352v-39zM270 352v-39h0zM270 352v-39zM270 352v-39h0zM270 352v-39zM270 352v-39h0zM270 352v-39zM271 352l-1-39h1zM271 352v-39zM271 352v-39h0zM271 352v-39zM271 352v-39h0zM271 352v-39zM272 352l-1-39h1zM272 352v-39zM272 352v-39h0zM272 352v-39zM273 352l-1-39h1zM273 352v-39zM273 352v-39h0zM273 352v-39zM273 352v-39h0zM273 352v-2zM273 352v-2 1zM273 350v-37zM273 350v-37h0zM273 352v-1zM273 352v-1zM273 350v-37zM273 350v-37h0zM273 352zM273 352zM273 350v-37zM273 349v-36h0zM273 352zM273 352zM273 349v-36zM273 349v-36h0zM273 352zM273 352zM273 349v-36zM273 349v-36h0zM273 352zM273 352zM273 349v-6zM273 349v-6h0zM273 343v-30zM273 343v-30h0zM273 349v-6zM273 348v-5h0zM273 342v-29 27zM273 340v-27 1zM273 348v-5zM273 348v-5h0zM273 340v-26zM273 340v-26 1zM273 348v-5zM273 348v-5h0zM273 340v-25 23zM273 338v-23 1zM273 348v-5zM273 348v-5h0zM273 338v-22 21zM273 337v-21 1zM273 348v-5zM273 348v-5h0zM273 337v-20zM273 337v-20 1zM273 348v-5zM273 348v-5h0zM273 337v-19 17zM273 335v-17 2zM273 348v-5zM273 348v-5h0zM273 335v-15 13zM273 333v-13 1zM273 348v-5zM273 348v-5h0zM273 333v-12 10zM273 331v-10 2zM273 348v-5zM273 348v-5h0zM273 331v-8 6zM273 329v-6 1zM273 348v-5zM273 348v-5h0zM273 329v-5 4zM273 348v-5zM273 348v-5h0zM273 348v-5 4zM273 347v-4h0zM273 347v-4zM273 347v-4h0zM273 347v-4zM273 347v-4h0zM273 347v-4zM273 347v-4h0zM273 347v-4zM273 347v-4h0zM273 347v-4zM273 347v-4h0zM273 347v-4zM273 347v-4h0zM273 347v-4zM273 347v-4h0zM273 347v-4zM273 347v-4h0zM273 347v-4zM273 347v-4h0zM273 347v-4zM273 347v-4h0zM273 347v-4zM273 347v-4h0zM273 347v-4zM273 347v-4h0zM273 347v-4zM273 347v-4h0zM273 347v-4zM273 348v-5 1zM273 348v-4zM273 348v-4h0zM273 348v-4zM274 348l-1-4h1zM274 348v-4zM274 348v-4h0zM274 348v-4zM274 348v-4h0zM274 348v-4zM274 348v-4h0zM274 348v-4zM274 348v-4h0zM274 348v-4zM274 348v-4h0zM274 348v-4zM274 348v-4h0zM274 348v-4zM274 349v-5h0zM274 349v-5zM274 349v-5 1zM274 349v-4zM274 349v-4h0zM274 349v-4zM275 349l-1-4h1zM275 349v-4zM275 349v-4h0zM275 349v-4zM275 349v-4h0zM275 349v-4zM275 350v-5h0zM275 350v-5zM275 350v-5 1zM275 350v-4zM275 350v-4h0zM275 350v-4zM276 350l-1-4h1zM276 350v-4zM276 350v-4h0zM276 350v-4zM276 351v-5h0zM276 351v-5zM276 351v-5h0zM276 351v-5zM276 351v-5 1zM276 351v-4zM276 351v-4h0zM276 351v-4zM277 351l-1-4h1zM277 351v-4zM277 351v-4h0zM277 351v-4zM277 351v-4h0zM277 351v-4zM277 351v-4h0zM277 351v-4zM277 351v-4h0zM277 351v-4zM278 352l-1-5h1zM278 352v-5zM278 352v-5h0zM278 352v-5zM278 352v-5h0zM278 352v-5zM278 352v-5 1zM278 352v-4zM278 352v-4h0zM278 352v-4zM279 352l-1-4h1zM279 352v-4zM279 352v-4h0zM279 352v-4zM279 352v-4h0zM279 352v-4zM279 352v-4h0zM279 352v-4zM279 352v-4h0zM279 352v-4zM279 352v-4h0zM279 352v-4zM280 352l-1-4h1zM280 352v-4zM280 353v-5h0zM280 353v-5zM280 353v-5h0zM280 353v-5zM280 353v-5h0zM280 353v-5zM280 353v-5h0zM280 353v-5zM280 353v-5h0zM280 353v-5zM281 353l-1-5h1zM281 353v-5zM281 353v-5h0zM281 353v-5zM281 353v-5h0zM281 353v-5zM281 353v-5h0zM281 353v-5zM281 353v-5h0zM281 353v-5zM281 353v-5h0zM281 353v-5zM281 353v-5h0zM281 353v-5zM281 353v-5h0zM281 353v-5zM281 353v-5h0zM281 353v-5zM281 353v-5h0zM281 353v-5zM281 353v-5h0zM281 353v-5zM282 353l-1-5h1zM282 353v-5zM282 353v-5h0zM282 353v-5zM282 353v-5h0zM282 353v-5zM282 353v-5h0zM282 353v-5zM282 353v-5h0zM282 353v-5zM282 353v-5h0zM282 353v-5zM282 353v-5h0zM282 353v-5zM282 353v-5h0zM282 353v-5zM282 353v-5h0zM282 353v-5zM282 353v-5h0zM282 353v-5zM283 353l-1-5h1zM283 353v-5zM283 353v-5h0zM283 353v-5zM283 353v-5h0zM283 353v-5zM283 353v-5h0zM283 353v-5zM283 353v-5h0zM283 353v-5zM283 353v-5h0zM283 353v-5zM283 352v-5zM283 352v-5zM283 352v-5h0zM283 352v-5zM283 352v-5h0zM283 352v-5zM283 352v-5h0zM283 352v-5zM284 352l-1-5h1zM284 352v-5zM284 352v-5h0zM284 352v-5zM284 352v-5h0zM284 352v-5zM284 352v-6zM284 352v-6zM284 352v-6h0zM284 352v-6zM284 352v-6h0zM284 352v-6zM284 352v-6h0zM284 352v-6zM284 352v-6h0zM284 352v-6zM284 352v-6h0zM284 352v-6zM284 352v-6h0zM284 352v-6zM284 352v-7zM284 352v-7zM284 352v-7h0zM284 352v-7zM284 352v-7h0zM284 352v-7zM284 352v-7h0zM284 352v-7zM284 352v-8zM284 352v-8zM284 352v-8h0zM284 352v-8zM284 352v-8h0zM284 352v-8zM284 352v-8h0zM284 352v-8zM284 352v-9zM284 352v-9zM284 352v-9h0zM284 352v-9zM284 352v-9h0zM284 352v-9zM284 352v-10zM284 352v-10zM284 352v-10h0zM284 352v-10zM284 352v-10h0zM284 333v-5zM284 352v-10zM284 352v-10h0zM284 333v-5zM284 334v-8zM284 352v-10zM284 352v-10h0zM284 334v-8 10zM284 336v-11zM284 352v-10zM284 352v-10h0zM284 336v-11zM284 337v-13zM284 352v-10zM284 352v-10h0zM284 337v-13zM284 337v-14zM284 352v-10zM284 352v-10h0zM284 340zM284 340zM284 337v-14zM284 338v-15h0zM284 352v-10zM284 352v-10h0zM284 340zM284 340zM284 338v-15 16zM284 339v-17zM284 352v-10zM284 352v-10h0zM284 340v-18zM284 340v-20zM284 352v-10zM284 352v-10h0zM284 340v-20zM284 340v-22zM284 352v-10zM284 352v-10h0zM284 340v-22zM284 340v-23zM284 352v-10zM284 352v-10h0zM284 340v-23zM284 340v-24zM284 352v-10zM284 352v-10h0zM284 340v-24zM284 341v-27zM284 352v-10zM284 352v-10h0zM284 341v-27zM284 341v-27h0zM284 352v-10zM284 352v-11zM284 341v-27zM284 341v-27h0zM284 352v-11zM284 352v-11h0zM284 341v-27zM284 341v-28zM284 352v-11zM284 352v-11h0zM284 341v-28zM284 341v-28h0zM284 352v-39zM285 352l-1-39h1zM285 352v-39zM285 352v-39h0zM285 352v-39zM285 351v-38h0zM285 351v-38zM285 351v-38h0zM285 351v-38zM285 351v-38h0zM285 351v-38zM285 351v-38h0zM285 351v-38zM285 351v-38h0zM285 351v-38zM286 351l-1-38h1zM286 351v-38zM286 351v-38h0zM286 351v-38zM286 351v-38h0zM286 351v-38zM286 350v-37h0zM286 350v-37zM286 350v-37h0zM286 350v-37zM286 350v-37h0zM286 350v-37zM286 350v-37h0zM286 350v-37zM286 350v-37h0zM286 350v-37zM286 349v-36h0zM286 349v-36zM287 349l-1-36h1zM287 349v-36zM287 349v-36h0zM287 349v-36zM287 349v-36h0zM287 349v-36zM287 349v-36h0zM287 349v-36zM287 349v-36h0zM287 349v-36zM287 348v-35h0zM287 348v-35zM287 348v-35h0zM287 348v-35zM287 348v-35h0zM287 348v-35zM287 347v-34h0zM287 347v-34zM287 346v-33h0zM287 346v-33zM287 346v-33h0zM287 346v-33zM288 346l-1-33h1zM288 346v-33 32zM288 345v-32h0zM288 345v-32 31zM288 344v-31h0zM288 344v-31zM288 344v-31h0zM288 344v-31 30zM288 343v-30h0zM288 343v-30zM288 343v-30h0zM288 343v-30zM288 343v-30 1zM288 343v-29zM288 343v-29 3zM288 343v-26zM288 342v-25 3zM288 342v-22zM288 342v-22 4zM288 342v-18zM288 342v-18 3zM288 342v-15zM288 342v-15 1zM288 342v-2zM288 342v-2 1zM288 340v-12 9zM288 337v-9 2zM288 342v-1zM288 342v-1h0zM288 337v-7zM288 337v-7 1zM288 342v-1zM288 342v-1h0zM288 337v-6zM288 337v-6 1zM288 342v-1zM288 342v-1h0zM288 337v-5 2zM288 342v-1zM288 342v-1h0zM288 342v-1z"/></g><g fill="none" stroke="currentColor" clip-path="url(#clipId0)"><path d="m314 325-2-6-3-5-3-2h-3l-3 1-2 2-3 6-1 6-1 6 1 6 2 6 3 6 3 1 3 1 3-2 2-2 3-6 2-6v-6z"/><path d="m311 337-1 5-2 4-2 1-2 1-2-1-2-2-2-4-1-4v-9l1-5 2-4 2-2 2-1 2 1 2 2 2 4 1 5z"/><path d="m311 337-1 5-2 4-2 1-2 1-2-1-2-2-2-4-1-4v-9l1-5 2-4 2-2 2-1 2 1 2 2 2 4 1 5z"/><path d="m314 325-2-6-3-5-3-2h-3l-3 1-2 2-3 6-1 6-1 6 1 6 2 6 3 6 3 1 3 1 3-2 2-2 3-6 2-6v-6z"/></g><g fill="currentColor" stroke="currentColor" clip-path="url(#clipId0)"><path d="M293 333v-2zM293 333v-2zM293 333v-2h0zM293 333v-2 3zM293 334v-4zM293 334v-4zM293 335v-6zM293 335v-6zM293 335v-6h0zM293 335v-6zM293 335v-6h0zM293 335v-6zM293 335v-7zM293 335v-7 8zM293 336v-8h0zM293 336v-8zM293 337v-10zM293 337v-10zM294 337l-1-10h1zM294 337v-10zM294 338v-12zM294 338v-12zM294 339v-13h0zM294 339v-13zM294 339v-14zM294 339v-14zM294 340v-15h0zM294 340v-15zM294 340v-15h0zM294 340v-15zM294 341v-17zM294 341v-17zM294 341v-18zM294 341v-18zM294 341v-18h0zM294 341v-18l1 19z"/><path d="m295 342-1-19 1-1zM295 342v-20zM295 342v-20h0zM295 342v-20zM295 343v-22zM295 343v-22zM295 343v-22h0zM295 343v-22zM295 344v-23h0zM295 344v-23zM295 344v-24zM295 344v-24zM295 344v-24h0zM295 344v-24zM295 345v-25h0zM295 345v-25zM295 345v-25h0zM295 345v-25zM295 345v-25h0zM295 345v-25zM296 345l-1-25 1-1zM296 345v-26zM296 345v-26h0zM296 345v-26zM296 345v-26h0zM296 345v-26zM296 346v-28zM296 346v-28zM296 346v-28h0zM296 346v-28zM296 347v-29h0zM296 347v-29zM296 347v-29h0zM296 347v-29zM297 347l-1-29 1-1zM297 347v-30zM297 348v-31h0zM297 348v-31zM297 348v-32zM297 348v-32zM297 348v-32h0zM297 348v-32zM297 349v-33h0zM297 349v-33zM298 349l-1-33h1zM298 349v-33zM298 349v-34zM298 349v-34zM298 349v-34h0zM298 349v-34zM298 350v-35h0zM298 350v-35zM299 350l-1-35 1-1zM299 350v-36zM299 350v-36h0zM299 350v-36zM299 350v-36h0zM299 350v-36zM299 350v-36h0zM299 350v-36zM299 350v-36h0zM299 350v-36zM299 350v-36h0zM299 350v-36zM299 351v-37h0zM299 351v-37zM299 351v-38zM299 351v-38zM300 351l-1-38h1zM300 351v-38zM300 351v-38h0zM300 351v-38zM300 351v-38h0zM300 351v-38zM300 352v-39h0zM300 352v-39zM301 352l-1-39h1zM301 352v-39zM301 352v-40zM301 352v-40zM301 352v-40h0zM301 352v-40zM301 352v-40h0zM301 352v-40zM302 352l-1-40h1zM302 352v-40zM302 352v-40h0zM302 352v-40zM302 353v-41h0zM302 353v-41zM302 353v-41h0zM302 353v-41zM303 353l-1-41h1zM303 353v-41zM303 353v-41h0zM303 353v-41zM303 353v-41h0zM303 353v-41zM303 353v-41h0zM303 353v-41zM303 353v-41h0zM303 353v-41zM303 353v-41h0zM303 353v-41zM303 353v-41h0zM303 353v-41zM303 353v-41h0zM303 353v-41zM304 353l-1-41h1zM304 353v-41zM304 353v-41h0zM304 353v-41zM304 353v-41h0zM304 353v-41zM304 353v-41h0zM304 353v-41zM304 353v-41h0zM304 353v-41zM304 353v-41h0zM304 353v-41zM305 353l-1-41h1zM305 353v-41zM305 353v-41h0zM305 353v-41zM305 353v-41h0zM305 353v-41zM305 353v-41h0zM305 353v-41zM305 353v-41h0zM305 353v-41zM305 353v-41h0zM305 353v-41zM305 353v-41h0zM305 353v-41zM306 353l-1-41h1zM306 353v-41zM306 353v-41h0zM306 353v-41zM306 352v-40h0zM306 352v-40zM306 352v-40h0zM306 352v-40zM306 352v-40h0zM306 352v-40zM307 352l-1-40h1zM307 352v-40zM307 352v-40h0zM307 352v-40zM307 352v-40h0zM307 352v-40zM307 352v-40h0zM307 352v-40zM307 352v-40h0zM307 352v-40zM307 352v-40 1zM307 352v-39zM307 352v-39h0zM307 352v-39zM307 352v-39h0zM307 352v-39zM308 352l-1-39h1zM308 352v-39zM308 351v-38h0zM308 351v-38zM308 351v-38h0zM308 351v-38zM308 351v-38h0zM308 351v-38zM309 351l-1-38h1zM309 351v-38zM309 351v-38h0zM309 351v-38zM309 351v-38 1zM309 351v-37zM309 350v-36h0zM309 350v-36zM309 350v-36h0zM309 350v-36zM310 350l-1-36h1zM310 350v-36zM310 350v-36h0zM310 350v-36zM310 350v-36 1zM310 350v-35zM310 349v-34h0zM310 349v-34zM310 349v-34h0zM310 349v-34zM310 349v-34h0zM310 349v-34zM310 349v-34h0zM310 349v-34zM310 349v-34h0zM310 349v-34zM311 349l-1-34 1 1zM311 349v-33zM311 348v-32h0zM311 348v-32zM311 348v-32h0zM311 348v-32zM311 348v-32h0zM311 348v-32zM311 348v-32h0zM311 348v-32zM311 348v-32 1zM311 348v-31zM311 348v-31h0zM311 348v-31zM311 348v-31h0zM311 348v-31zM311 348v-31h0zM311 348v-31zM311 348v-31h0zM311 348v-31zM311 347v-30h0zM311 347v-30zM312 347l-1-30 1 1zM312 347v-29zM312 346v-28h0zM312 346v-28zM312 346v-28 1zM312 346v-27zM312 346v-27h0zM312 346v-27l1 26z"/><path d="m313 345-1-26h1zM313 345v-26zM313 345v-26 1zM313 345v-25 24zM313 344v-24h0zM313 344v-24zM313 344v-24 1zM313 344v-23zM313 343v-22h0zM313 343v-22zM313 343v-22 1zM313 343v-21zM314 342l-1-20h1zM314 342v-20zM314 342v-20 1zM314 342v-19zM314 341v-18h0zM314 341v-18zM314 341v-18 1zM314 341v-17zM314 340v-16h0zM314 340v-16zM314 340v-16h0zM314 340v-16zM314 340v-16 1zM314 340v-15zM314 340v-15h0zM314 340v-15zM314 339v-14h0zM314 339v-14zM314 339v-14h0zM314 339v-14 13zM314 338v-13 1zM314 338v-12zM315 337l-1-11 1 1zM315 337v-10zM315 336v-9 1zM315 336v-8zM315 335v-7 1zM315 335v-6zM315 334v-5 1zM315 334v-4zM315 333v-3 1zM315 333v-2z"/></g><g fill="none" stroke="currentColor" clip-path="url(#clipId0)"><path d="M260 296v17l-2 1-5 2-5 4-3 6-1 4v5l1 4 2 5 3 4 3 3 5 1 5 1v-57h-3"/><path d="m260 348-5-1-3-3-3-3-2-5v-4l1-4 2-4 3-3 4-2 3-1v30"/><path d="m260 348-5-1-3-3-3-3-2-5v-4l1-4 2-4 3-3 4-2 3-1v30"/><path d="M260 296v17l-2 1-5 2-5 4-3 6-1 4v5l1 4 2 5 3 4 3 3 5 1 5 1v-57h-3"/></g><g fill="currentColor" stroke="currentColor" clip-path="url(#clipId0)"><path d="M244 334zv-2zM244 334v-2zM244 335v-3h0zM244 335v-3zM244 336v-5zM244 336v-5zM244 336v-5h0zM244 336v-5zM244 337v-7zM244 337v-7zM244 337v-8zM244 337v-8zM244 338v-10zM244 338v-10zM244 338v-10h0zM244 338v-10l1 11z"/><path d="m245 339-1-11 1-1zM245 339v-12zM245 339v-12h0zM245 339v-12zM245 340v-14zM245 340v-14zM245 340v-14h0zM245 340v-14zM245 340v-14h0zM245 340v-14zM245 341v-16zM245 341v-16zM245 341v-16h0zM245 341v-16zM246 342l-1-17 1-1zM246 342v-18zM246 342v-18h0zM246 342v-18zM246 343v-19h0zM246 343v-19zM246 343v-20zM246 343v-20zM246 343v-20h0zM246 343v-20zM246 343v-20h0zM246 343v-20l1 21z"/><path d="m247 344-1-21 1-1zM247 344v-22zM247 344v-22h0zM247 344v-22zM247 345v-24zM247 345v-24zM247 345v-24h0zM247 345v-24zM247 345v-24h0zM247 345v-24zM248 345l-1-24h1zM248 345v-24zM248 345v-24h0zM248 345v-24zM248 346v-26zM248 346v-26zM248 346v-26h0zM248 346v-26zM248 346v-26h0zM248 346v-26zM248 346v-26h0zM248 346v-26zM249 347l-1-27 1-1zM249 347v-28zM249 347v-28h0zM249 347v-28zM249 347v-28h0zM249 347v-28zM249 347v-28h0zM249 347v-28zM250 348l-1-29 1-1zM250 348v-30zM250 348v-30h0zM250 348v-30zM250 348v-30h0zM250 348v-30zM250 348v-30h0zM250 348v-30zM251 349l-1-31h1zM251 349v-31zM251 349v-32zM251 349v-32zM251 349v-32h0zM251 349v-32zM251 349v-32h0zM251 349v-32zM252 350l-1-33h1zM252 350v-33zM252 350v-33h0zM252 350v-33zM252 350v-33h0zM252 350v-33zM252 350v-34zM252 350v-34zM252 350v-34h0zM252 350v-34zM253 350l-1-34h1zM253 350v-34zM253 351v-35h0zM253 351v-35zM254 351l-1-35 1-1zM254 351v-36zM254 351v-36h0zM254 351v-36zM255 351l-1-36h1zM255 351v-36zM255 351v-36h0zM255 351v-36zM256 352l-1-37h1zM256 352v-37zM256 352v-38zM256 352v-38zM256 352v-38h0zM256 352v-38zM257 352l-1-38h1zM257 352v-38zM257 352v-38h0zM257 352v-38zM257 352v-38h0zM257 352v-38zM257 352v-38h0zM257 352v-38zM258 352l-1-38h1zM258 352v-38zM258 352v-38h0zM258 352v-38zM259 352l-1-38h1zM259 352v-38zM259 353v-39h0zM259 353v-39zM259 353v-39h0zM259 353v-39zM260 353l-1-39h1zM260 353v-39zM260 353v-39h0zM260 305zv-3zM260 353v-39zM260 353v-39h0zM260 305v-3 5zM260 307v-6zM260 353v-39zM260 353v-39h0zM260 307v-6zM260 307v-7zM260 353v-39zM260 353v-39h0zM260 307v-7 9zM260 309v-10zM260 353v-39zM260 353v-39h0zM260 309v-10zM260 310v-12zM260 353v-39zM260 353v-39h0zM260 310v-12zM260 311v-14zM260 353v-39zM260 353v-39h0zM260 311v-14zM260 312v-16zM260 353v-39zM260 353v-39h0zM260 312v-16 17zM260 313v-17h0zM260 353v-57zM260 353v-57h0zM260 353v-57zM260 353v-57h0zM260 353v-57zM260 353v-57h0zM260 353v-57zM261 353l-1-57h1zM261 353v-57zM261 353v-57h0zM261 353v-57zM261 353v-57h0zM261 353v-57zM261 353v-57h0zM261 353v-57zM261 353v-57h0zM261 353v-57zM262 353l-1-57h1zM262 353v-57zM262 353v-57h0zM262 353v-57zM262 353v-57h0zM262 353v-57zM263 353l-1-57h1zM263 353v-57zM263 353v-57h0zM263 353v-57zM263 353v-57h0zM263 353v-57zM263 353v-57h0zM263 353v-22zM263 353v-22 7zM263 331v-35 33zM263 329v-33h0zM263 353v-15zM263 353v-15 3zM263 329v-33 28zM263 324v-28h0zM263 353v-12zM263 353v-12 3zM263 324v-28 26zM263 322v-26h0zM263 353v-9zM263 353v-9 4zM263 322v-26 21zM263 317v-21h0zM263 353v-5zM263 353v-5h0zM263 317v-21zM263 317v-21h0zM263 353v-5 3zM263 317v-21 19zM263 315v-19h0zM263 315v-19 15zM263 311v-15h0zM263 311v-15 8zM263 304v-8h0zM263 304v-8 1zM263 297v-1h0zM263 297v-1h0z"/></g><g fill="none" stroke="currentColor" clip-path="url(#clipId0)"><path d="m254 364 7-2h2v5h-4l-3 1-5 6-1 7 1 6 3 6 3 2 4 1h2v5l-7-1-5-4-3-7-2-6 1-7 2-7z"/><path d="m254 364 7-2h2v5h-4l-3 1-5 6-1 7 1 6 3 6 3 2 4 1h2v5l-7-1-5-4-3-7-2-6 1-7 2-7z"/></g><g fill="currentColor" stroke="currentColor" clip-path="url(#clipId0)"><path d="M246 382zv-1zM246 382v-1zM246 383v-3zM246 383v-3zM246 383v-3h0zM246 383v-3zM246 384v-5zM246 384v-5zM246 384v-5h0zM246 384v-5zM247 385l-1-6 1-1zM247 385v-7zM247 385v-8zM247 385v-8zM247 386v-9h0zM247 386v-9zM247 386v-10zM247 386v-10zM247 387v-11h0zM247 387v-11zM247 387v-11h0zM247 387v-11zM247 388v-13zM247 388v-13zM247 388v-13h0zM247 388v-13zM247 388v-14zM247 388v-14zM247 389v-15h0zM247 389v-15zM247 389v-15h0zM247 389v-15zM247 389v-15h0zM247 389v-15zM248 389l-1-15h1zM248 389v-15zM248 390v-17zM248 390v-17zM248 390v-17h0zM248 390v-17zM248 390v-17h0zM248 390v-17zM248 391v-19zM248 391v-19zM248 391v-19h0zM248 391v-19zM248 391v-19h0zM248 391v-19zM248 391v-19h0zM248 391v-19zM248 391v-20zM248 391v-20zM248 392v-21h0zM248 392v-21zM248 392v-21h0zM248 392v-21zM249 392l-1-21h1zM249 392v-21zM249 392v-22zM249 392v-22zM249 393v-23h0zM249 393v-23zM249 393v-23h0zM249 393v-23zM249 393v-23h0zM249 393v-23zM249 394v-25zM249 394v-25zM249 394v-25h0zM249 394v-25zM250 394l-1-25h1zM250 394v-25zM250 394v-25h0zM250 394v-25zM250 394v-25h0zM250 394v-13zM250 394v-13 1zM250 381v-12zM250 381v-12h0zM250 394v-12zM250 394v-12h0zM250 381v-12zM250 380v-11h0zM250 394v-12zM250 394v-12 1zM250 380v-11zM250 380v-11h0zM250 394v-11zM250 394v-11h0zM250 380v-11zM250 379v-10h0zM250 394v-11zM250 395v-12 1zM250 379v-10zM250 379v-11zM250 395v-11zM250 395v-11h0zM250 379v-11zM250 379v-11h0zM250 395v-11zM250 395v-11h0zM250 379v-11zM250 379v-11h0zM250 395v-11zM250 395v-11h0zM250 379v-11zM250 379v-11h0zM250 395v-11zM250 395v-11 1zM250 379v-11zM250 378v-10h0zM250 395v-10zM250 395v-10h0zM250 378v-10zM250 378v-10h0zM250 395v-10zM250 395v-10 1zM250 378v-10zM250 377v-9h0zM250 395v-9zM250 395v-9h0zM250 377v-9zM250 377v-9h0zM250 395v-9zM250 395v-9h0zM250 377v-9zM250 377v-9h0zM250 395v-9zM250 395v-9h0zM250 377v-9zM250 377v-9h0zM250 395v-9zM250 395v-9h0zM250 377v-9zM250 377v-9h0zM250 395v-9zM250 395v-9h0zM250 377v-9zM250 377v-9h0zM250 395v-9zM250 395v-9h0zM250 377v-9zM250 377v-9h0zM250 395v-9zM250 395v-9h0zM250 377v-9zM250 377v-9h0zM250 395v-9zM250 395v-9 1zM250 377v-9zM250 376v-8h0zM250 395v-8zM250 396v-9h0zM250 376v-8zM250 376v-8h0zM250 396v-9zM251 396l-1-9h1zM250 376v-8zM251 376l-1-8 1-1zM251 396v-9zM251 396v-9h0zM251 376v-9zM251 376v-9h0zM251 396v-9zM251 396v-9h0zM251 376v-9zM251 376v-9h0zM251 396v-9zM251 396v-9 1zM251 376v-9zM251 375v-8h0zM251 396v-8zM251 396v-8h0zM251 375v-8zM251 375v-8h0zM251 396v-8zM251 396v-8h0zM251 375v-8zM251 375v-8h0zM251 396v-8zM251 396v-8h0zM251 375v-8zM251 375v-8h0zM251 396v-8zM251 396v-8h0zM251 375v-8zM251 375v-8h0zM251 396v-8zM251 396v-8h0zM251 375v-8zM251 375v-8h0zM251 396v-8zM251 396v-8h0zM251 375v-8zM251 375v-8h0zM251 396v-8zM251 396v-8 1zM251 375v-8zM251 374v-7h0zM251 396v-7zM251 396v-7h0zM251 374v-7zM251 374v-7h0zM251 396v-7zM251 396v-7h0zM251 374v-7zM251 374v-7h0zM251 396v-7zM251 396v-7h0zM251 374v-7zM251 374v-7h0zM251 396v-7zM251 397v-8h0zM251 374v-7zM251 374v-7h0zM251 397v-8zM251 397v-8h0zM251 374v-7zM251 374v-8zM251 397v-8zM251 397v-8h0zM251 374v-8zM251 374v-8h0zM251 397v-8zM251 397v-8h0zM251 374v-8zM251 374v-8h0zM251 397v-8zM251 397v-8 1zM251 374v-8zM251 373v-7h0zM251 397v-7zM252 397l-1-7h1zM251 373v-7zM252 373l-1-7h1zM252 397v-7zM252 397v-7h0zM252 373v-7zM252 373v-7h0zM252 397v-7zM252 397v-7h0zM252 373v-7zM252 373v-7h0zM252 397v-7zM252 397v-7h0zM252 373v-7zM252 373v-7h0zM252 397v-7zM252 397v-7h0zM252 373v-7zM252 373v-7h0zM252 397v-7zM252 397v-7h0zM252 373v-7zM252 373v-7h0zM252 397v-7zM252 397v-7 1zM252 373v-7zM252 372v-6h0zM252 397v-6zM252 397v-6h0zM252 372v-6zM252 372v-6h0zM252 397v-6zM252 397v-6h0zM252 372v-6zM252 372v-6h0zM252 397v-6zM252 397v-6h0zM252 372v-6zM252 372v-6h0zM252 397v-6zM252 398v-7h0zM252 372v-6zM252 372v-7zM252 398v-7zM252 398v-7h0zM252 372v-7zM252 372v-7h0zM252 398v-7zM252 398v-7h0zM252 372v-7zM252 372v-7h0zM252 398v-7zM252 398v-7h0zM252 372v-7zM252 372v-7h0zM252 398v-7zM252 398v-7h0zM252 372v-7zM252 372v-7h0zM252 398v-7zM253 398l-1-7h1zM252 372v-7zM253 372l-1-7h1zM253 398v-7zM253 398v-7 1zM253 372v-7zM253 371v-6h0zM253 398v-6zM253 398v-6h0zM253 371v-6zM253 371v-6h0zM253 398v-6zM253 398v-6h0zM253 371v-6zM253 371v-6h0zM253 398v-6zM253 398v-6h0zM253 371v-6zM253 371v-6h0zM253 398v-6zM253 398v-6h0zM253 371v-6zM253 371v-6h0zM253 398v-6zM253 398v-6h0zM253 371v-6zM253 371v-6h0zM253 398v-6zM253 398v-6h0zM253 371v-6zM253 371v-6h0zM253 398v-6zM253 398v-6h0zM253 371v-6zM253 371v-6h0zM253 398v-6zM253 398v-6h0zM253 371v-6zM253 371v-6h0zM253 398v-6zM253 398v-6h0zM253 371v-6zM253 371v-6h0zM253 398v-6zM253 398v-6h0zM253 371v-6zM253 371v-6h0zM253 398v-6zM253 398v-6h0zM253 371v-6zM253 370v-5h0zM253 398v-6zM253 398v-6h0zM253 370v-5zM253 370v-5h0zM253 398v-6zM254 398l-1-6 1 1zM253 370v-5zM254 370l-1-5 1-1zM254 398v-5zM254 399v-6h0zM254 370v-6zM254 370v-6h0zM254 399v-6zM254 399v-6h0zM254 370v-6zM254 370v-6h0zM254 399v-6zM254 399v-6h0zM254 370v-6zM254 370v-6h0zM254 399v-6zM254 399v-6h0zM254 370v-6zM254 370v-6h0zM254 399v-6zM254 399v-6h0zM254 370v-6zM254 370v-6h0zM254 399v-6zM254 399v-6h0zM254 370v-6zM254 370v-6h0zM254 399v-6zM254 399v-6h0zM254 370v-6zM254 370v-6h0zM254 399v-6zM254 399v-6h0zM254 370v-6zM254 370v-6h0zM254 399v-6zM254 399v-6h0zM254 370v-6zM254 370v-6h0zM254 399v-6zM254 399v-6h0zM254 370v-6zM254 370v-6h0zM254 399v-6zM254 399v-6h0zM254 370v-6zM254 370v-6h0zM254 399v-6zM254 399v-6h0zM254 370v-6zM254 370v-6h0zM254 399v-6zM254 399v-6h0zM254 370v-6zM254 370v-6h0zM254 399v-6zM254 399v-6h0zM254 370v-6zM254 370v-6h0zM254 399v-6zM254 399v-6h0zM254 370v-6zM254 370v-6h0zM254 399v-6zM254 399v-6h0zM254 370v-6zM254 370v-6h0zM254 399v-6zM254 399v-6h0zM254 370v-6zM254 370v-6h0zM254 399v-6zM254 399v-6h0zM254 370v-6zM254 370v-6h0zM254 399v-6zM254 399v-6h0zM254 370v-6zM254 370v-6h0zM254 399v-6zM254 399v-6h0zM254 370v-6zM254 370v-6h0zM254 399v-6zM254 399v-6h0zM254 370v-6zM254 370v-6h0zM254 399v-6zM254 399v-6h0zM254 370v-6zM254 370v-6h0zM254 399v-6zM254 399v-6h0zM254 370v-6zM254 370v-6h0zM254 399v-6zM254 399v-6h0zM254 370v-6zM254 370v-6h0zM254 399v-6zM254 399v-6h0zM254 370v-6zM254 370v-6h0zM254 399v-6zM254 399v-6h0zM254 370v-6zM254 370v-6h0zM254 399v-6zM254 399v-6h0zM254 370v-6zM254 370v-6h0zM254 399v-6zM254 399v-6h0zM254 370v-6zM254 370v-6h0zM254 399v-6zM254 399v-6h0zM254 370v-6zM254 370v-6h0zM254 399v-6zM254 399v-6h0zM254 370v-6zM254 370v-6h0zM254 399v-6zM254 399v-6h0zM254 370v-6zM254 370v-6h0zM254 399v-6zM254 399v-6h0zM254 370v-6zM254 370v-6h0zM254 399v-6zM254 399v-6h0zM254 370v-6zM254 369v-5h0zM254 399v-6zM254 399v-6h0zM254 369v-5zM254 369v-5h0zM254 399v-6zM255 399l-1-6 1 1zM254 369v-5zM255 369l-1-5h1zM255 399v-5zM255 399v-5h0zM255 369v-5zM255 369v-5h0zM255 399v-5zM255 399v-5h0zM255 369v-5zM255 369v-5h0zM255 399v-5zM255 399v-5h0zM255 369v-5zM255 369v-5h0zM255 399v-5zM255 399v-5h0zM255 369v-5zM255 369v-6zM255 399v-5zM255 400v-6h0zM255 369v-6zM255 369v-6h0zM255 400v-6zM255 400v-6h0zM255 369v-6zM255 369v-6h0zM255 400v-6zM255 400v-6h0zM255 369v-6zM255 369v-6h0zM255 400v-6zM255 400v-6h0zM255 369v-6zM255 369v-6h0zM255 400v-6zM255 400v-6h0zM255 369v-6zM255 369v-6h0zM255 400v-6zM256 400l-1-6h1zM255 369v-6zM256 369l-1-6h1zM256 400v-6zM256 400v-6h0zM256 369v-6zM256 368v-5h0zM256 400v-6zM256 400v-6h0zM256 368v-5zM256 368v-5h0zM256 400v-6zM256 400v-6 1zM256 368v-5zM256 368v-5h0zM256 400v-5zM256 400v-5h0zM256 368v-5zM256 368v-5h0zM256 400v-5zM256 400v-5h0zM256 368v-5zM256 368v-5h0zM256 400v-5zM256 400v-5h0zM256 368v-5zM256 368v-5h0zM256 400v-5zM256 400v-5h0zM256 368v-5zM256 368v-5h0zM256 400v-5zM256 400v-5h0zM256 368v-5zM256 368v-5h0zM256 400v-5zM257 400l-1-5h1zM256 368v-5zM257 368l-1-5h1zM257 400v-5zM257 400v-5h0zM257 368v-5zM257 368v-5h0zM257 400v-5zM257 400v-5h0zM257 368v-5zM257 368v-5h0zM257 400v-5zM257 400v-5h0zM257 368v-5zM257 368v-5h0zM257 400v-5zM257 400v-5h0zM257 368v-5zM257 368v-5h0zM257 400v-5zM257 400v-5h0zM257 368v-5zM257 368v-5h0zM257 400v-5zM257 401v-6h0zM257 368v-5zM257 368v-6zM257 401v-6zM257 401v-6h0zM257 368v-6zM257 368v-6h0zM257 401v-6zM258 401l-1-6h1zM257 368v-6zM258 368l-1-6h1zM258 401v-6zM258 401v-6h0zM258 368v-6zM258 367v-5h0zM258 401v-6zM258 401v-6 1zM258 367v-5zM258 367v-5h0zM258 401v-5zM258 401v-5h0zM258 367v-5zM258 367v-5h0zM258 401v-5zM258 401v-5h0zM258 367v-5zM258 367v-5h0zM258 401v-5zM258 401v-5h0zM258 367v-5zM258 367v-5h0zM258 401v-5zM259 401l-1-5h1zM258 367v-5zM259 367l-1-5h1zM259 401v-5zM259 401v-5h0zM259 367v-5zM259 367v-5h0zM259 401v-5zM259 401v-5h0zM259 367v-5zM259 367v-5h0zM259 401v-5zM259 401v-5h0zM259 367v-5zM259 367v-5h0zM259 401v-5zM259 401v-5h0zM259 367v-5zM259 367v-5h0zM259 401v-5zM259 401v-5h0zM259 367v-5zM259 367v-5h0zM259 401v-5zM259 401v-5h0zM259 367v-5zM259 367v-5h0zM259 401v-5zM260 401l-1-5h1zM259 367v-5zM260 367l-1-5h1zM260 401v-5zM260 401v-5h0zM260 367v-5zM260 367v-5h0zM260 401v-5zM260 401v-5h0zM260 367v-5zM260 367v-5h0zM260 401v-5zM260 401v-5h0zM260 367v-5zM260 367v-5h0zM260 401v-5zM260 401v-5h0zM260 367v-5zM260 367v-5h0zM260 401v-5zM260 401v-5h0zM260 367v-5zM260 367v-5h0zM260 401v-5zM260 401v-5h0zM260 367v-5zM260 367v-5h0zM260 401v-5zM261 401l-1-5h1zM260 367v-5zM261 367l-1-5h1zM261 401v-5zM261 401v-5h0zM261 367v-5zM261 367v-5h0zM261 401v-5zM261 401v-5h0zM261 367v-5zM261 367v-5h0zM261 401v-5zM261 401v-5h0zM261 367v-5zM261 367v-5h0zM261 401v-5zM261 401v-5h0zM261 367v-5zM261 367v-5h0zM261 401v-5zM261 401v-5h0zM261 367v-5zM261 367v-5h0zM261 401v-5zM261 401v-5h0zM261 367v-5zM261 367v-5h0zM261 401v-5zM261 401v-5h0zM261 367v-5zM261 367v-5h0zM261 401v-5zM261 401v-5h0zM261 367v-5zM261 367v-5h0zM261 401v-5zM261 401v-5h0zM261 367v-5zM261 367v-5h0zM261 401v-5zM262 401l-1-5h1zM261 367v-5zM262 367l-1-5h1zM262 401v-5zM262 401v-5h0zM262 367v-5zM262 367v-5h0zM262 401v-5zM262 401v-5h0zM262 367v-5zM262 367v-5h0zM262 401v-5zM262 401v-5h0zM262 367v-5zM262 367v-5h0zM262 401v-5zM262 401v-5h0zM262 367v-5zM262 367v-5h0zM262 401v-5zM262 401v-5h0zM262 367v-5zM262 367v-5h0zM262 401v-5zM263 401l-1-5h1zM262 367v-5zM263 367l-1-5h1zM263 401v-5zM263 401v-5h0zM263 367v-5zM263 367v-5h0zM263 401v-5zM263 401v-5h0zM263 367v-5zM263 367v-5h0zM263 401v-5zM263 401v-5h0zM263 367v-5zM263 367v-5h0zM263 401v-5zM263 401v-5h0zM263 367v-5zM263 367v-5h0zM263 401v-5zM263 401v-5h0zM263 367v-5zM263 367v-5h0zM263 401v-5zM263 401v-5h0zM263 367v-5zM263 367v-5h0zM263 401v-5zM263 401v-5h0zM263 367v-3zM263 367v-3h0zM263 364v-2zM263 364v-2h0zM263 401v-5zM263 401v-5h0zM263 367v-3zM263 367v-3 1zM263 364v-2zM263 363v-1h0zM263 401v-5zM263 401v-5h0zM263 367v-2zM263 367v-2h0zM263 363v-1zM263 363v-1h0zM263 401v-5zM263 401v-5h0zM263 367v-2zM263 367v-2h0zM263 363v-1zM263 363v-1h0zM263 401v-5zM263 401v-5h0zM263 367v-2zM263 367v-2 1zM263 363v-1zM263 362zM263 401v-5zM263 401v-5h0zM263 367v-1zM263 367v-1h0zM263 362zM263 362zM263 401v-5zM263 401v-5h0zM263 367v-1zM263 367v-1zM263 362zM263 362zM263 401v-5zM263 401v-5h0zM263 367zM263 367zM263 362z"/></g><g fill="none" stroke="currentColor" clip-path="url(#clipId0)"><path d="m278 363 2-1h3l2 1 2 3 1 10v24l-1 1h-2l-1-1v-32l-2-2-6 2-2 2-1 2v28l-1 1h-1l-1-1v-38h3v5h0z"/><path d="m278 363 2-1h3l2 1 2 3 1 10v24l-1 1h-2l-1-1v-32l-2-2-6 2-2 2-1 2v28l-1 1h-1l-1-1v-38h3v5h0z"/></g><g fill="currentColor" stroke="currentColor" clip-path="url(#clipId0)"><path d="M270 401v-39zM270 401v-39h0zM270 401v-39zM270 401v-39h0zM270 401v-39zM271 401l-1-39h1zM271 401v-39zM271 401v-39h0zM271 401v-39zM271 401v-39h0zM271 401v-39zM272 401l-1-39h1zM272 401v-39zM272 401v-39h0zM272 401v-39zM273 401l-1-39h1zM273 401v-39zM273 401v-39h0zM273 401v-39zM273 401v-39h0zM273 401v-37zM273 401v-37h0zM273 364v-2zM273 363zM273 401v-37zM273 401v-37 1zM273 363zM273 363zM273 401v-36zM273 401v-36h0zM273 363zM273 363zM273 401v-29zM273 401v-29h0zM273 372v-7zM273 372v-7h0zM273 363zM273 363zM273 401v-29zM273 401v-29h0zM273 372v-7zM273 372v-7h0zM273 363zM273 362zM273 401v-29zM273 401v-29h0zM273 372v-7zM273 372v-7 1zM273 362zM273 362zM273 372v-6zM273 372v-6h0zM273 372v-6zM273 372v-6 1zM273 372v-5zM273 372v-5h0zM273 372v-5zM273 372v-5 1zM273 372v-4zM273 372v-4h0zM273 372v-4zM273 371v-4zM273 371v-4zM273 371v-4h0zM273 371v-4zM273 371v-4h0zM273 371v-4zM273 371v-4h0zM273 371v-4zM273 371v-4h0zM273 371v-4zM273 371v-4h0zM273 371v-4zM273 371v-4h0zM273 371v-4zM273 371v-4h0zM273 371v-4zM273 371v-4h0zM273 371v-4zM273 371v-4h0zM273 371v-4zM273 371v-4h0zM273 371v-4zM274 371l-1-4h1zM274 371v-4zM274 371v-4h0zM274 371v-4zM274 370v-4zM274 370v-4zM274 370v-4h0zM274 370v-4zM274 370v-4h0zM274 370v-4zM274 370v-4h0zM274 370v-4zM274 370v-5zM274 370v-5zM274 370v-5h0zM274 370v-5zM275 369l-1-4h1zM275 369v-4zM275 369v-4h0zM275 369v-4zM275 369v-4h0zM275 369v-4zM275 369v-4h0zM275 369v-4zM275 369v-5zM275 369v-5zM276 369l-1-5h1zM276 369v-5zM276 369v-5h0zM276 369v-5zM276 368v-4h0zM276 368v-4zM276 368v-4h0zM276 368v-4zM276 368v-4h0zM276 368v-4zM276 368v-4h0zM276 368v-4zM276 368v-4h0zM276 368v-4zM276 368v-5zM276 368v-5zM277 368l-1-5h1zM277 368v-5zM277 368v-5h0zM277 368v-5zM277 368v-5h0zM277 368v-5zM277 368v-5h0zM277 368v-5zM277 367v-4h0zM277 367v-4zM277 367v-4h0zM277 367v-4zM277 367v-4h0zM277 367v-4zM277 367v-4h0zM277 367v-4zM277 367v-4h0zM277 367v-4zM277 367v-4h0zM277 367v-4zM278 367l-1-4h1zM278 367v-4zM278 367v-4h0zM278 367v-4zM278 367v-4h0zM278 367v-4zM278 367v-4h0zM278 367v-4zM278 367v-4h0zM278 367v-4zM278 367v-4h0zM278 367v-4zM278 367v-4h0zM278 367v-4zM278 367v-4h0zM278 367v-4zM278 367v-4h0zM278 367v-4zM278 367v-4h0zM278 367v-4zM278 367v-4h0zM278 367v-4zM278 367v-4h0zM278 367v-4zM278 367v-4h0zM278 367v-4zM278 367v-4h0zM278 367v-4zM278 367v-4h0zM278 367v-4zM278 367v-4h0zM278 367v-4zM278 367v-4h0zM278 367v-4zM278 367v-4h0zM278 367v-4zM278 367v-4h0zM278 367v-4zM278 367v-4h0zM278 367v-4zM278 367v-4h0zM278 367v-4zM278 367v-4h0zM278 367v-4zM278 367v-4h0zM278 367v-4zM278 367v-4h0zM278 367v-4zM278 367v-4h0zM278 367v-4zM278 367v-4h0zM278 367v-4zM278 367v-4h0zM278 367v-4zM278 367v-5zM278 367v-5zM278 367v-5h0zM278 367v-5zM278 367v-5h0zM278 367v-5zM278 367v-5h0zM278 367v-5zM279 367l-1-5h1zM279 367v-5zM279 367v-5h0zM279 367v-5zM279 367v-5h0zM279 367v-5zM279 367v-5h0zM279 367v-5zM279 367v-5h0zM279 367v-5zM279 366v-4h0zM279 366v-4zM279 366v-4h0zM279 366v-4zM280 366l-1-4h1zM280 366v-4zM280 366v-4h0zM280 366v-4zM280 366v-4h0zM280 366v-4zM280 366v-4h0zM280 366v-4zM280 366v-4h0zM280 366v-4zM281 366l-1-4h1zM281 366v-4zM281 366v-4h0zM281 366v-4zM281 366v-4h0zM281 366v-4zM281 366v-4h0zM281 366v-4zM281 366v-4h0zM281 366v-4zM282 366l-1-4h1zM282 366v-4zM282 366v-4h0zM282 366v-4zM282 366v-4h0zM282 366v-4zM282 366v-4h0zM282 366v-4zM282 366v-4h0zM282 366v-4zM282 366v-4h0zM282 366v-4zM282 366v-4h0zM282 366v-4zM282 366v-4h0zM282 366v-4zM283 367l-1-5h1zM283 367v-5zM283 367v-5h0zM283 367v-5zM283 367v-5h0zM283 367v-5zM283 367v-5h0zM283 367v-5zM283 367v-5h0zM283 367v-5zM283 367v-5h0zM283 367v-5zM283 367v-5h0zM283 367v-5zM283 367v-5h0zM283 367v-5zM283 367v-5h0zM283 367v-5zM283 367v-5h0zM283 367v-5zM283 367v-5h0zM283 367v-5zM283 367v-5h0zM283 367v-5zM283 367v-5h0zM283 367v-5zM283 367v-5h0zM283 367v-5zM284 367l-1-5h1zM284 367v-5zM284 367v-5h0zM284 367v-5zM284 368v-6h0zM284 368v-6zM284 368v-6h0zM284 368v-6zM284 368v-6h0zM284 368v-6zM284 368v-6h0zM284 368v-6zM284 368v-6h0zM284 368v-6zM284 368v-6h0zM284 368v-6zM284 368v-6h0zM284 368v-6zM284 369v-7h0zM284 369v-7zM284 369v-7h0zM284 369v-7zM284 369v-7h0zM284 369v-7zM284 369v-7h0zM284 369v-7zM284 370v-8h0zM284 370v-8zM284 370v-8h0zM284 370v-8zM284 370v-8 1zM284 370v-7zM284 371v-8h0zM284 371v-8zM284 371v-8h0zM284 384v-5zM284 371v-8zM284 371v-8h0zM284 384v-5 7zM284 386v-8zM284 371v-8zM284 371v-8h0zM284 386v-8zM284 386v-8h0zM284 371v-8zM284 371v-8h0zM284 386v-8 10zM284 388v-12zM284 371v-8zM284 371v-8h0zM284 388v-12 14zM284 390v-16zM284 371v-8zM284 371v-8h0zM284 390v-16 17zM284 391v-19zM284 371v-8zM284 372v-9h0zM284 391v-28 30zM284 393v-30h0zM284 393v-30 34zM284 397v-34h0zM284 397v-34 35zM284 398v-35h0zM284 398v-35 37zM284 400v-37h0zM284 400v-37 38zM284 401v-38h0zM284 401v-38zM285 401l-1-38h1zM285 401v-38zM285 401v-38h0zM285 401v-38zM285 401v-38h0zM285 401v-38zM285 401v-38h0zM285 401v-38zM285 401v-38h0zM285 401v-38zM285 401v-38h0zM285 401v-38zM285 401v-38h0zM285 401v-38zM286 401l-1-38 1 1zM286 401v-37zM286 401v-37h0zM286 401v-37zM286 401v-37h0zM286 401v-37zM286 401v-37h0zM286 401v-37zM286 401v-37h0zM286 401v-37zM286 401v-37h0zM286 401v-37zM286 401v-37 1zM286 401v-36zM286 401v-36h0zM286 401v-36zM286 401v-36h0zM286 401v-36zM287 401l-1-36h1zM287 401v-36zM287 401v-36h0zM287 401v-36zM287 401v-36 1zM287 401v-35zM287 401v-35h0zM287 401v-35zM287 401v-35h0zM287 401v-35zM287 401v-35h0zM287 401v-35zM287 401v-35 1zM287 401v-34zM287 401v-34h0zM287 401v-34zM287 401v-34 1zM287 401v-33zM287 401v-33h0zM287 401v-33zM287 401v-33h0zM287 401v-33zM287 401v-33h0zM287 401v-33zM288 401l-1-33 1 1zM288 401v-32zM288 401v-32h0zM288 401v-32zM288 401v-32 1zM288 401v-31zM288 401v-31h0zM288 401v-31zM288 401v-31h0zM288 401v-31zM288 401v-31 1zM288 401v-30zM288 401v-30 1zM288 401v-29zM288 401v-29h0zM288 401v-29zM288 400v-28h0zM288 400v-28 25zM288 397v-25h0zM288 397v-25 22zM288 394v-22h0zM288 394v-22 18zM288 390v-18h0zM288 390v-18 15zM288 387v-15h0zM288 387v-15zM288 387v-15h0zM288 387v-15 11zM288 383v-11h0zM288 383v-11 8zM288 380v-8h0zM288 380v-7zM288 380v-7 1zM288 373zM288 373zM288 380v-6 3zM288 373zM288 373zM288 373z"/></g><g fill="none" stroke="currentColor" clip-path="url(#clipId0)"><path d="m233 394-3-3-2-3-1-7v-1l1-1h15l1-1-1-4-2-7-2-3-3-3h-4l-3 2-4 7-1 7v8l2 7 5 6 3 2 4 1h3v-1l-1-4h-4z"/><path d="m229 369 4-4h2l2 2 2 4 1 3v2h-12v-2z"/><path d="m229 369 4-4h2l2 2 2 4 1 3v2h-12v-2z"/><path d="m233 394-3-3-2-3-1-7v-1l1-1h15l1-1-1-4-2-7-2-3-3-3h-4l-3 2-4 7-1 7v8l2 7 5 6 3 2 4 1h3v-1l-1-4h-4z"/></g><g fill="currentColor" stroke="currentColor" clip-path="url(#clipId0)"><path d="M224 381v-2h0zM224 381v-2zM224 382v-4zM224 382v-4zM224 382v-4h0zM224 382v-4zM224 383v-6zM224 383v-6zM224 383v-6h0zM224 383v-6zM224 383v-6h0zM224 383v-6zM224 383v-6h0zM224 383v-6zM224 384v-8zM224 384v-8zM224 384v-8h0zM224 384v-8zM224 384v-8h0zM224 384v-8zM224 385v-10zM224 385v-10zM224 385v-10h0zM224 385v-10zM224 385v-11zM224 385v-11zM224 386v-12h0zM224 386v-12zM224 386v-12h0zM224 386v-12zM224 386v-12h0zM224 386v-12zM224 386v-12h0zM224 386v-12zM224 387v-14zM224 387v-14zM225 387l-1-14h1zM225 387v-14zM225 387v-14h0zM225 387v-14zM225 388v-16zM225 388v-16zM225 388v-16h0zM225 388v-16zM225 389v-17h0zM225 389v-17zM225 389v-18zM225 389v-18zM225 389v-18h0zM225 389v-18 19zM225 390v-20zM225 390v-20zM225 390v-20h0zM225 390v-20zM226 391l-1-21 1-1zM226 391v-22zM226 391v-22h0zM226 391v-22zM226 392v-24zM226 392v-24zM226 392v-24h0zM226 392v-24zM226 392v-25zM226 392v-25zM226 393v-26h0zM226 393v-26zM227 393l-1-26 1-1zM227 393v-27zM227 393v-27h0zM227 393v-27zM227 393v-27h0zM227 393v-27zM227 394v-28h0zM227 394v-28zM227 394v-28h0zM227 394v-28zM227 394v-29zM227 394v-14zM227 394v-14h0zM227 380v-15zM227 379v-14h0zM227 394v-14zM227 394v-14 1zM227 379v-14zM227 379v-14h0zM227 394v-13zM227 394v-13 1zM227 379v-14zM227 379v-14h0zM227 394v-12zM227 394v-12h0zM227 379v-14zM227 379v-14h0zM227 394v-12zM227 394v-12 1zM227 379v-14zM227 379v-14h0zM227 394v-11zM227 395v-12h0zM227 379v-14zM227 379v-14h0zM227 395v-12zM228 395l-1-12 1 1zM227 379v-14zM228 379l-1-14h1zM228 395v-11zM228 395v-11h0zM228 379v-14zM228 379v-14h0zM228 395v-11zM228 395v-11h0zM228 379v-14zM228 379v-14h0zM228 395v-11zM228 395v-11h0zM228 379v-14zM228 379v-14h0zM228 395v-11zM228 395v-11 1zM228 379v-14zM228 379v-14h0zM228 395v-10zM228 395v-10 1zM228 379v-14zM228 379v-14h0zM228 395v-9zM228 395v-9h0zM228 379v-14zM228 379v-15zM228 395v-9zM228 395v-9 1zM228 379v-15zM228 379v-15h0zM228 395v-8zM228 396v-9h0zM228 379v-15zM228 379v-15h0zM228 396v-9zM228 396v-9h0zM228 379v-15zM228 379v-15h0zM228 396v-9zM229 396l-1-9 1 1zM228 379v-15zM229 379l-1-15h1zM229 396v-8zM229 396v-8h0zM229 379v-15zM229 379v-15h0zM229 396v-8zM229 396v-8h0zM229 379v-15zM229 379v-15h0zM229 396v-8zM229 396v-8h0zM229 379v-15zM229 379v-15h0zM229 396v-8zM229 396v-8 1zM229 379v-15zM229 379v-16zM229 396v-7zM229 396v-7h0zM229 379v-16zM229 379v-16h0zM229 396v-7zM229 397v-8h0zM229 379v-16zM229 379v-16h0zM229 397v-8zM229 397v-8 1zM229 379v-16zM229 379v-16h0zM229 397v-7zM229 397v-7h0zM229 379v-16zM229 379v-16h0zM229 397v-7zM229 397v-7h0zM229 379v-16zM229 379v-16h0zM229 397v-7zM229 397v-7h0zM229 379v-16zM229 379v-16h0zM229 397v-7zM230 397l-1-7 1 1zM229 379v-16zM230 379l-1-16h1zM230 397v-6zM230 397v-6h0zM230 379v-16zM230 379v-17zM230 397v-6zM230 397v-6h0zM230 379v-17zM230 379v-17h0zM230 397v-6zM230 397v-6h0zM230 379v-17zM230 379v-17h0zM230 397v-6zM230 398v-7h0zM230 379v-17zM230 379v-17h0zM230 398v-7zM230 398v-7h0zM230 379v-17zM230 379v-17h0zM230 398v-7zM230 398v-7h0zM230 379v-17zM230 379v-17h0zM230 398v-7zM230 398v-7h0zM230 379v-17zM230 379v-17h0zM230 398v-7zM230 398v-7 1zM230 379v-17zM230 379v-17h0zM230 398v-6zM230 398v-6h0zM230 379v-17zM230 379v-17h0zM230 398v-6zM231 398l-1-6h1zM230 379v-17zM231 379l-1-17h1zM231 398v-6zM231 398v-6h0zM231 379v-17zM231 379v-17h0zM231 398v-6zM231 398v-6h0zM231 379v-17zM231 379v-17h0zM231 398v-6zM231 398v-6h0zM231 379v-17zM231 379v-17h0zM231 398v-6zM231 398v-6h0zM231 379v-17zM231 379v-17h0zM231 398v-6zM231 399v-7 1zM231 379v-17zM231 379v-18zM231 399v-6zM231 399v-6h0zM231 379v-18zM231 379v-18h0zM231 399v-6zM231 399v-6h0zM231 379v-18zM231 379v-18h0zM231 399v-6zM231 399v-6h0zM231 379v-18zM231 379v-18h0zM231 399v-6zM231 399v-6h0zM231 379v-18zM231 379v-18h0zM231 399v-6zM232 399l-1-6h1zM231 379v-18zM232 379l-1-18h1zM232 399v-6zM232 399v-6h0zM232 379v-18zM232 379v-18h0zM232 399v-6zM232 399v-6h0zM232 379v-18zM232 379v-18h0zM232 399v-6zM232 399v-6 1zM232 379v-18zM232 379v-18h0zM232 399v-5zM232 399v-5h0zM232 379v-18zM232 379v-18h0zM232 399v-5zM232 399v-5h0zM232 379v-18zM232 379v-18h0zM232 399v-5zM232 399v-5h0zM232 379v-18zM232 379v-18h0zM232 399v-5zM232 399v-5h0zM232 379v-18zM232 379v-18h0zM232 399v-5zM232 399v-5h0zM232 379v-18zM232 379v-18h0zM232 399v-5zM232 399v-5h0zM232 379v-18zM232 379v-18h0zM232 399v-5zM233 400l-1-6h1zM232 379v-18zM233 379l-1-18h1zM233 400v-6zM233 400v-6h0zM233 379v-18zM233 379v-18h0zM233 400v-6zM233 400v-6h0zM233 379v-18zM233 379v-18h0zM233 400v-6zM233 400v-6h0zM233 379v-18zM233 379v-18h0zM233 400v-6zM233 400v-6h0zM233 379v-18zM233 379v-18h0zM233 400v-6zM233 400v-6h0zM233 379v-18zM233 379v-18h0zM233 400v-6zM233 400v-6h0zM233 379v-18zM233 379v-18h0zM233 400v-6zM233 400v-6 1zM233 379v-18zM233 379v-18h0zM233 400v-5zM233 400v-5h0zM233 379v-18zM233 379v-18h0zM233 400v-5zM233 400v-5h0zM233 379v-18zM233 379v-18h0zM233 400v-5zM233 400v-5h0zM233 379v-18zM233 379v-18h0zM233 400v-5zM234 400l-1-5h1zM233 379v-18zM234 379l-1-18h1zM234 400v-5zM234 400v-5h0zM234 379v-18zM234 379v-18h0zM234 400v-5zM234 400v-5h0zM234 379v-18zM234 379v-18h0zM234 400v-5zM234 400v-5h0zM234 379v-18zM234 379v-18h0zM234 400v-5zM234 400v-5h0zM234 379v-18zM234 379v-18h0zM234 400v-5zM234 400v-5h0zM234 379v-18zM234 379v-18h0zM234 400v-5zM234 400v-5h0zM234 379v-18zM234 379v-18h0zM234 400v-5zM234 400v-5h0zM234 379v-18zM234 379v-18h0zM234 400v-5zM235 400l-1-5h1zM234 379v-18zM235 379l-1-18h1zM235 400v-5zM235 400v-5h0zM235 379v-18zM235 379v-18h0zM235 400v-5zM235 401v-6h0zM235 379v-18zM235 379v-18h0zM235 401v-6zM235 401v-6h0zM235 379v-18zM235 379v-18h0zM235 401v-6zM235 401v-6 1zM235 379v-18zM235 379v-18h0zM235 401v-5zM235 401v-5h0zM235 379v-18zM235 379v-18h0zM235 401v-5zM235 401v-5h0zM235 379v-18zM235 379v-18h0zM235 401v-5zM236 401l-1-5h1zM235 379v-18zM236 379l-1-18h1zM236 401v-5zM236 401v-5h0zM236 379v-18zM236 379v-18h0zM236 401v-5zM236 401v-5h0zM236 379v-18zM236 379v-18h0zM236 401v-5zM236 401v-5h0zM236 379v-18zM236 379v-18h0zM236 401v-5zM236 401v-5h0zM236 379v-18zM236 379v-18h0zM236 401v-5zM236 401v-5h0zM236 379v-18zM236 379v-18h0zM236 401v-5zM237 401l-1-5h1zM236 379v-18zM237 379l-1-18h1zM237 401v-5zM237 401v-5h0zM237 379v-18zM237 379v-18 1zM237 401v-5zM237 401v-5h0zM237 379v-17zM237 379v-17h0zM237 401v-5zM237 401v-5h0zM237 379v-17zM237 379v-17h0zM237 401v-5zM237 401v-5h0zM237 379v-17zM237 379v-17h0zM237 401v-5zM237 401v-5h0zM237 379v-17zM237 379v-17h0zM237 401v-5zM237 401v-5h0zM237 379v-17zM237 379v-17h0zM237 401v-5zM237 401v-5h0zM237 379v-17zM237 379v-17h0zM237 401v-5zM237 401v-5h0zM237 379v-17zM237 379v-17h0zM237 401v-5zM238 401l-1-5h1zM237 379v-17zM238 379l-1-17h1zM238 401v-5zM238 401v-5h0zM238 379v-17zM238 379v-17h0zM238 401v-5zM238 401v-5h0zM238 379v-17zM238 379v-17h0zM238 401v-5zM238 401v-5h0zM238 379v-17zM238 379v-17h0zM238 401v-5zM238 401v-5h0zM238 379v-17zM238 379v-17h0zM238 401v-5zM238 401v-5h0zM238 379v-17zM238 379v-17 1zM238 401v-5zM238 401v-5h0zM238 379v-16zM238 379v-16h0zM238 401v-5zM238 401v-5h0zM238 379v-16zM238 379v-16h0zM238 401v-5zM238 401v-5h0zM238 379v-16zM238 379v-16h0zM238 401v-5zM238 401v-5h0zM238 379v-16zM238 379v-16h0zM238 401v-5zM239 401l-1-5h1zM238 379v-16zM239 379l-1-16h1zM239 401v-5zM239 401v-5h0zM239 379v-16zM239 379v-16h0zM239 401v-5zM239 401v-5h0zM239 379v-16zM239 379v-16h0zM239 401v-5zM239 401v-5h0zM239 379v-16zM239 379v-16 1zM239 401v-5zM239 401v-5h0zM239 379v-15zM239 379v-15h0zM239 401v-5zM239 401v-5h0zM239 379v-15zM239 379v-15h0zM239 401v-5zM239 401v-5h0zM239 379v-15zM239 379v-15h0zM239 401v-5zM240 401l-1-5h1zM239 379v-15zM240 379l-1-15h1zM240 401v-5zM240 401v-5h0zM240 379v-15zM240 379v-15h0zM240 401v-5zM240 401v-5h0zM240 379v-15zM240 379v-15 1zM240 401v-5zM240 401v-5h0zM240 379v-14zM240 379v-14h0zM240 401v-5zM240 401v-5h0zM240 379v-14zM240 379v-14h0zM240 401v-5zM240 401v-5h0zM240 379v-14zM240 379v-14h0zM240 401v-5zM240 401v-5h0zM240 379v-14zM240 379v-14 1zM240 401v-5zM241 401l-1-5h1zM240 379v-13zM241 379l-1-13h1zM241 401v-5zM241 401v-5h0zM241 379v-13zM241 379v-13h0zM241 401v-5zM241 401v-5h0zM241 379v-13zM241 379v-13h0zM241 401v-5zM241 401v-5 1zM241 379v-13zM241 379v-13h0zM241 401v-4zM241 401v-4h0zM241 379v-13zM241 379v-13h0zM241 401v-4zM241 401v-4h0zM241 379v-13zM241 379v-13h0zM241 401v-4zM241 400v-3 1zM241 379v-13zM241 379v-13h0zM241 400v-2zM241 400v-2h0zM241 379v-13zM241 379v-13h0zM241 400v-2zM241 400v-2h0zM241 379v-13zM241 379v-13h0zM241 400v-2zM241 399zM241 379v-13zM241 379v-13h0zM241 399zM241 379v-13zM241 379v-13h0zM241 379v-13zM241 379v-13h0zM241 379v-13zM241 379v-13 1zM241 379v-12zM241 379v-12h0zM241 379v-12zM241 379v-12h0zM241 379v-12zM241 379v-12 1zM241 379v-11zM242 379l-1-11h1zM242 379v-11zM242 379v-11h0zM242 379v-11zM242 379v-11 1zM242 379v-10zM242 379v-10h0zM242 379v-10zM242 379v-10h0zM242 379v-10zM242 379v-10 1zM242 379v-9zM242 379v-9h0zM242 379v-9zM242 379v-9h0zM242 379v-9zM243 379l-1-9 1 1zM243 379v-8zM243 379v-8 1zM243 379v-7zM243 379v-7 1zM243 379v-6zM243 379v-6 2zM243 379v-4zM243 379v-4h0zM243 379v-4zM243 379v-4 1zM243 379v-3zM244 379l-1-3 1 1zM244 379v-2zM244 379v-2zM244 379zM244 379zM244 379z"/></g><g fill="none" stroke="currentColor" clip-path="url(#clipId0)"><path d="m315 376-2-6-3-5-2-3-3-1h-3l-3 2-3 5-2 6v13l1 6 3 5 2 3 3 1h3l3-2 3-5 2-6 1-6z"/><path d="m310 390-2 5-2 2h-3l-4-4-2-5v-11l1-5 2-4 4-2 3 1 4 8v7z"/><path d="m310 390-2 5-2 2h-3l-4-4-2-5v-11l1-5 2-4 4-2 3 1 4 8v7z"/><path d="m315 376-2-6-3-5-2-3-3-1h-3l-3 2-3 5-2 6v13l1 6 3 5 2 3 3 1h3l3-2 3-5 2-6 1-6z"/></g><g fill="currentColor" stroke="currentColor" clip-path="url(#clipId0)"><path d="M293 382v-2zM293 382v-2zM293 383v-3h0zM293 383v-3zM293 383v-4zM293 383v-4zM293 384v-5h0zM293 384v-5zM293 384v-6zM293 384v-6zM293 384v-6h0zM293 384v-6zM293 384v-6h0zM293 384v-6 7zM293 385v-8zM293 385v-8zM293 386v-9h0zM293 386v-9zM293 386v-9h0zM293 386v-9l1 10z"/><path d="m294 387-1-10 1-1zM294 387v-11zM294 387v-11h0zM294 387v-11zM294 388v-13zM294 388v-13zM294 388v-13h0zM294 388v-13zM294 389v-15zM294 389v-15zM294 390v-17zM294 390v-17zM294 390v-17h0zM294 390v-17zM294 390v-17h0zM294 390v-17zM294 391v-19zM294 391v-19zM294 391v-19h0zM294 391v-19zM295 391l-1-19 1-1zM295 391v-20 21zM295 392v-21h0zM295 392v-21zM295 392v-21h0zM295 392v-21zM295 393v-23zM295 393v-23zM295 393v-23h0zM295 393v-23zM295 393v-23h0zM295 393v-23zM295 393v-23h0zM295 393v-23zM295 394v-25zM295 394v-25zM296 394l-1-25 1-1zM296 394v-26zM296 395v-27h0zM296 395v-27zM296 395v-27h0zM296 395v-27zM296 395v-27h0zM296 395v-27zM296 395v-27h0zM296 395v-27zM296 396v-29zM296 396v-29zM296 396v-29h0zM296 396v-29zM296 396v-29h0zM296 396v-29zM297 397l-1-30 1-1zM297 397v-31zM297 397v-31h0zM297 397v-31zM297 398v-33zM297 398v-33zM297 398v-33h0zM297 398v-33zM298 398l-1-33h1zM298 398v-33zM298 398v-33h0zM298 398v-33zM298 399v-35zM298 399v-35zM298 399v-35h0zM298 399v-35zM298 399v-35h0zM298 399v-35zM298 399v-35h0zM298 399v-35zM299 399l-1-35h1zM299 399v-35zM299 400v-37zM299 400v-37zM299 400v-37h0zM299 400v-37zM299 400v-37h0zM299 400v-37zM299 400v-37h0zM299 400v-37zM300 400l-1-37h1zM300 400v-37zM300 400v-37h0zM300 400v-37zM300 400v-37h0zM300 400v-37zM300 400v-38zM300 400v-38zM300 400v-38h0zM300 400v-38zM300 401v-39h0zM300 401v-39zM300 401v-39h0zM300 401v-39zM300 401v-39h0zM300 401v-39zM300 401v-39h0zM300 401v-39zM300 401v-39h0zM300 401v-39zM301 401l-1-39h1zM301 401v-39zM301 401v-39h0zM301 401v-39zM301 401v-39h0zM301 401v-39zM301 401v-39h0zM301 401v-39zM301 401v-39h0zM301 401v-39zM301 401v-39h0zM301 401v-39zM301 401v-39h0zM301 401v-39zM301 402v-41zM301 402v-41zM301 402v-41h0zM301 402v-41zM302 402l-1-41h1zM302 402v-41zM302 402v-41h0zM302 402v-41zM302 402v-41h0zM302 402v-41zM302 402v-41h0zM302 402v-41zM302 402v-41h0zM302 402v-41zM302 402v-41h0zM302 402v-41zM302 402v-41h0zM302 402v-41zM303 402l-1-41h1zM303 402v-41zM303 402v-41h0zM303 402v-41zM303 402v-41h0zM303 402v-41zM303 402v-41h0zM303 402v-41zM303 402v-41h0zM303 402v-41zM303 402v-41h0zM303 402v-41zM304 402l-1-41h1zM304 402v-41zM304 402v-41h0zM304 402v-41zM304 402v-41h0zM304 402v-41zM304 402v-41h0zM304 402v-41zM304 402v-41h0zM304 402v-41zM304 402v-41h0zM304 402v-41zM304 402v-41h0zM304 402v-41zM304 402v-41h0zM304 402v-41zM305 402l-1-41h1zM305 402v-41zM305 402v-41h0zM305 402v-41zM305 402v-41h0zM305 402v-41zM305 402v-41h0zM305 402v-41zM305 402v-41h0zM305 402v-41zM305 402v-41h0zM305 402v-41zM305 402v-41h0zM305 402v-41zM305 402v-41h0zM305 402v-41zM306 402l-1-41h1zM306 402v-41zM306 402v-41h0zM306 402v-41zM306 402v-41h0zM306 402v-41zM306 402v-41h0zM306 402v-41zM306 402v-41h0zM306 402v-41zM306 402v-41h0zM306 402v-41zM306 402v-41h0zM306 402v-41zM306 402v-41h0zM306 402v-41zM307 402l-1-41h1zM307 402v-41zM307 402v-41h0zM307 402v-41zM307 401v-40 1zM307 401v-39zM307 401v-39h0zM307 401v-39zM307 401v-39h0zM307 401v-39zM307 401v-39h0zM307 401v-39zM307 401v-39h0zM307 401v-39zM307 401v-39h0zM307 401v-39zM307 401v-39h0zM307 401v-39zM308 401l-1-39h1zM308 401v-39zM308 401v-39h0zM308 401v-39zM308 401v-39h0zM308 401v-39zM308 401v-39h0zM308 401v-39zM308 400v-38h0zM308 400v-38zM308 400v-38 1zM308 400v-37zM309 400l-1-37h1zM309 400v-37zM309 400v-37h0zM309 400v-37zM309 400v-37h0zM309 400v-37zM309 400v-37h0zM309 400v-37zM309 400v-37h0zM309 400v-37zM309 399v-36h0zM309 399v-36zM310 399l-1-36 1 1zM310 399v-35zM310 399v-35h0zM310 399v-35zM310 399v-35h0zM310 399v-35zM310 399v-35h0zM310 399v-35zM310 399v-35h0zM310 399v-35zM310 398v-34 1zM310 398v-33zM310 398v-33h0zM310 398v-33zM310 398v-33h0zM310 398v-33zM311 398l-1-33h1zM311 398v-33zM311 398v-33h0zM311 398v-33zM311 398v-33h0zM311 398v-33zM311 397v-32 1zM311 397v-31zM311 397v-31h0zM311 397v-31zM311 397v-31h0zM311 397v-31zM311 397v-31h0zM311 397v-31zM311 397v-31h0zM311 397v-31zM311 397v-31h0zM311 397v-31zM311 397v-31h0zM311 397v-31zM312 396l-1-30 1 1zM312 396v-29zM312 396v-29h0zM312 396v-29zM312 396v-29h0zM312 396v-29zM312 396v-29h0zM312 396v-29zM312 395v-28 1zM312 395v-27zM312 395v-27h0zM312 395v-27zM313 394l-1-26 1 1zM313 394v-25zM313 394v-25h0zM313 394v-25zM313 393v-24 1zM313 393v-23zM313 393v-23h0zM313 393v-23zM313 392v-22 1zM313 392v-21zM313 392v-21h0zM313 392v-21zM314 391l-1-20 1 1zM314 391v-19zM314 391v-19h0zM314 391v-19zM314 390v-18 1zM314 390v-17zM314 389v-16 1zM314 389v-15zM314 389v-15h0zM314 389v-15zM314 388v-14h0zM314 388v-14zM314 388v-14 1zM314 388v-13zM314 388v-13h0zM314 388v-13zM314 388v-13h0zM314 388v-13 12zM314 387v-12 1zM314 387v-11zM315 387l-1-11h1zM315 387v-11zM315 387v-11h0zM315 387v-11zM315 386v-10 1zM315 386v-9zM315 385v-8 1zM315 385v-7zM315 385v-7h0zM315 385v-7 6zM315 384v-6 1zM315 384v-5zM315 383v-4h0zM315 383v-4zM315 382v-3 2zM315 382v-1h0z"/></g></svg>