<svg xmlns="http://www.w3.org/2000/svg" xml:space="preserve" fill-rule="evenodd" stroke-linecap="round" stroke-linejoin="round" style="background-color:transparent" viewBox="0 0 1024 768"><defs><style><![CDATA[g[clip-path]>*{vector-effect:non-scaling-stroke}]]></style></defs><g fill="#ed1f24" stroke="#ed1f24" clip-path="url(#clipId0)"><path d="M161 420v-95l95 95z"/><path d="m256 420-95-95h95z"/></g><g fill="none" stroke="currentColor" clip-path="url(#clipId0)"><path d="M19 597h995M1014 597V171M1014 171H19M19 171v426M19 171v72M1014 243v38M19 171v71M19 242h987M1006 242h8M1014 242v38M1014 280H19M19 526h987M1014 488H19M1006 526h8M268 171v71M517 171v71M765 171v71M268 526v71M517 597v-71M765 526v71"/><circle cx="38.3" cy="206.8" r="9.5"/><circle cx="62" cy="206.8" r="9.5"/><circle cx="85.7" cy="206.8" r="9.5"/><circle cx="109.4" cy="206.8" r="9.5"/><circle cx="133" cy="206.8" r="9.5"/><path d="M24 207v-12M24 195h119M143 195h3M146 195v12M24 207v11M24 218h120M146 207v11M146 218h-2M146 195v-19M146 176h122M146 218v19M146 237h122M231 207v-14M231 193h-47M184 193v28M184 221h47M231 221v-14M293 221h199M492 221v-29M492 192H293M293 192v29M542 221h198M740 221v-29M740 192H542M542 192v29M790 221h199M989 221v-29M989 192H790M790 192v29"/><circle cx="305.3" cy="206.4" r="9.5"/><circle cx="330.2" cy="206.4" r="9.5"/><circle cx="355" cy="206.4" r="9.5"/><circle cx="379.9" cy="206.4" r="9.5"/><circle cx="404.8" cy="206.4" r="9.5"/><circle cx="429.6" cy="206.4" r="9.5"/><circle cx="454.5" cy="206.4" r="9.5"/><circle cx="479.4" cy="206.4" r="9.5"/><circle cx="554" cy="206.4" r="9.5"/><circle cx="578.8" cy="206.4" r="9.5"/><circle cx="603.7" cy="206.4" r="9.5"/><circle cx="628.6" cy="206.4" r="9.5"/><circle cx="653.4" cy="206.4" r="9.5"/><circle cx="678.3" cy="206.4" r="9.5"/><circle cx="703.2" cy="206.4" r="9.5"/><circle cx="728" cy="206.4" r="9.5"/><circle cx="802.6" cy="206.4" r="9.5"/><circle cx="827.5" cy="206.4" r="9.5"/><circle cx="852.3" cy="206.4" r="9.5"/><circle cx="877.2" cy="206.4" r="9.5"/><circle cx="902.1" cy="206.4" r="9.5"/><circle cx="926.9" cy="206.4" r="9.5"/><circle cx="951.8" cy="206.4" r="9.5"/><circle cx="976.7" cy="206.4" r="9.5"/><circle cx="102.3" cy="561.6" r="11.8"/><circle cx="135.4" cy="561.6" r="11.8"/><circle cx="168.6" cy="561.6" r="11.8"/><circle cx="201.7" cy="561.6" r="11.8"/><circle cx="234.9" cy="561.6" r="11.8"/><path d="M291 547h190M481 547v29M481 576H291M291 576v-29M546 547h190M736 576H546"/><circle cx="300.5" cy="561.6" r="7.1"/><circle cx="319.5" cy="561.6" r="7.1"/><circle cx="338.4" cy="561.6" r="7.1"/><circle cx="357.4" cy="561.6" r="7.1"/><circle cx="376.3" cy="561.6" r="7.1"/><circle cx="395.3" cy="561.6" r="7.1"/><circle cx="414.2" cy="561.6" r="7.1"/><circle cx="433.2" cy="561.6" r="7.1"/><circle cx="452.1" cy="561.6" r="7.1"/><circle cx="471" cy="561.6" r="7.1"/><circle cx="555.7" cy="561.6" r="7.1"/><circle cx="574.7" cy="561.6" r="7.1"/><circle cx="593.6" cy="561.6" r="7.1"/><circle cx="612.6" cy="561.6" r="7.1"/><circle cx="631.5" cy="561.6" r="7.1"/><circle cx="650.5" cy="561.6" r="7.1"/><circle cx="669.4" cy="561.6" r="7.1"/><circle cx="688.4" cy="561.6" r="7.1"/><circle cx="707.3" cy="561.6" r="7.1"/><circle cx="726.2" cy="561.6" r="7.1"/><path d="M67 384v-36M67 348h57M124 348v72M124 420H67M67 420v-36M990 384v-36M990 348h-57M933 348v72M933 420h57M990 420v-36M780 562v-15M780 547h47M827 547v29M827 576h-47M780 576v-14M879 562v-29M879 533h76M955 533v57M955 590h-76M879 590v-28"/><circle cx="791.4" cy="561.6" r="9.5"/><circle cx="815" cy="561.6" r="9.5"/><path d="M862 408v-48M862 360H635M635 360v48M635 408h227"/><circle cx="38.3" cy="294" r="7.1"/><circle cx="62" cy="294" r="7.1"/><circle cx="85.7" cy="294" r="7.1"/><circle cx="109.4" cy="294" r="7.1"/><circle cx="133" cy="294" r="7.1"/><circle cx="305.3" cy="294" r="7.1"/><circle cx="330.2" cy="294" r="7.1"/><circle cx="355" cy="294" r="7.1"/><circle cx="379.9" cy="294" r="7.1"/><circle cx="404.8" cy="294" r="7.1"/><circle cx="429.6" cy="294" r="7.1"/><circle cx="454.5" cy="294" r="7.1"/><circle cx="479.4" cy="294" r="7.1"/><circle cx="554" cy="294" r="7.1"/><circle cx="578.8" cy="294" r="7.1"/><circle cx="603.7" cy="294" r="7.1"/><circle cx="628.6" cy="294" r="7.1"/><circle cx="653.4" cy="294" r="7.1"/><circle cx="678.3" cy="294" r="7.1"/><circle cx="703.2" cy="294" r="7.1"/><circle cx="728" cy="294" r="7.1"/><circle cx="802.6" cy="294" r="7.1"/><circle cx="827.5" cy="294" r="7.1"/><circle cx="852.3" cy="294" r="7.1"/><circle cx="877.2" cy="294" r="7.1"/><circle cx="902.1" cy="294" r="7.1"/><circle cx="926.9" cy="294" r="7.1"/><circle cx="951.8" cy="294" r="7.1"/><circle cx="976.7" cy="294" r="7.1"/><circle cx="102.3" cy="469.3" r="7.1"/><circle cx="135.4" cy="469.3" r="7.1"/><circle cx="168.6" cy="469.3" r="7.1"/><circle cx="201.7" cy="469.3" r="7.1"/><circle cx="234.9" cy="469.3" r="7.1"/><circle cx="300.5" cy="469.3" r="7.1"/><circle cx="319.5" cy="469.3" r="7.1"/><circle cx="338.4" cy="469.3" r="7.1"/><circle cx="357.4" cy="469.3" r="7.1"/><circle cx="376.3" cy="469.3" r="7.1"/><circle cx="395.3" cy="469.3" r="7.1"/><circle cx="414.2" cy="469.3" r="7.1"/><circle cx="433.2" cy="469.3" r="7.1"/><circle cx="452.1" cy="469.3" r="7.1"/><circle cx="471" cy="469.3" r="7.1"/><circle cx="815" cy="469.3" r="7.1"/><circle cx="791.4" cy="469.3" r="7.1"/><circle cx="726.2" cy="469.3" r="7.1"/><circle cx="707.3" cy="469.3" r="7.1"/><circle cx="688.4" cy="469.3" r="7.1"/><circle cx="669.4" cy="469.3" r="7.1"/><circle cx="650.5" cy="469.3" r="7.1"/><circle cx="631.5" cy="469.3" r="7.1"/><circle cx="612.6" cy="469.3" r="7.1"/><circle cx="593.6" cy="469.3" r="7.1"/><circle cx="574.7" cy="469.3" r="7.1"/><circle cx="555.7" cy="469.3" r="7.1"/></g><g fill="currentColor" stroke="currentColor" clip-path="url(#clipId0)"><text font-family="Arial,'sans-serif'" font-size="1.4" transform="matrix(9 0 0 9 292 446)">C</text><text font-family="Arial,'sans-serif'" font-size="1.4" transform="matrix(9 0 0 9 312 446)">0</text><text font-family="Arial,'sans-serif'" font-size="1.4" transform="matrix(9 0 0 9 330 446)">1</text><text font-family="Arial,'sans-serif'" font-size="1.4" transform="matrix(9 0 0 9 350 446)">2</text><text font-family="Arial,'sans-serif'" font-size="1.4" transform="matrix(9 0 0 9 369 446)">3</text><text font-family="Arial,'sans-serif'" font-size="1.4" transform="matrix(9 0 0 9 388 446)">4</text><text font-family="Arial,'sans-serif'" font-size="1.4" transform="matrix(9 0 0 9 407 446)">5</text><text font-family="Arial,'sans-serif'" font-size="1.4" transform="matrix(9 0 0 9 426 446)">6</text><text font-family="Arial,'sans-serif'" font-size="1.4" transform="matrix(9 0 0 9 444 446)">7</text><text font-family="Arial,'sans-serif'" font-size="1.4" transform="matrix(9 0 0 9 463 446)">C</text></g><g fill="none" stroke="currentColor" clip-path="url(#clipId0)"><circle cx="745.2" cy="561.6" r="7.1"/><circle cx="536.8" cy="561.6" r="7.1"/><path d="M546 547h-23M523 547v29M523 576h23M736 547h23M759 547v29M759 576h-23"/><circle cx="745.2" cy="469.3" r="7.1"/><circle cx="536.8" cy="469.3" r="7.1"/></g><g fill="currentColor" stroke="currentColor" clip-path="url(#clipId0)"><text font-family="Arial,'sans-serif'" font-size="1.4" transform="matrix(9 0 0 9 529 446)">C</text><text font-family="Arial,'sans-serif'" font-size="1.4" transform="matrix(9 0 0 9 548 446)">8</text><text font-family="Arial,'sans-serif'" font-size="1.4" transform="matrix(9 0 0 9 567 446)">9</text><text font-family="Arial,'sans-serif'" font-size="1.4" transform="matrix(9 0 0 9 583 446)">A</text><text font-family="Arial,'sans-serif'" font-size="1.4" transform="matrix(9 0 0 9 607 446)">B</text><text font-family="Arial,'sans-serif'" font-size="1.4" transform="matrix(9 0 0 9 624 446)">C</text><text font-family="Arial,'sans-serif'" font-size="1.4" transform="matrix(9 0 0 9 642 446)">D</text><text font-family="Arial,'sans-serif'" font-size="1.4" transform="matrix(9 0 0 9 661 446)">E</text><text font-family="Arial,'sans-serif'" font-size="1.4" transform="matrix(9 0 0 9 680 446)">F</text><text font-family="Arial,'sans-serif'" font-size="1.4" transform="matrix(9 0 0 9 700 446)">C</text><text font-family="Arial,'sans-serif'" font-size="1.4" transform="matrix(9 0 0 9 719 446)">T0</text><text font-family="Arial,'sans-serif'" font-size="1.4" transform="matrix(9 0 0 9 738 446)">T1</text><text font-family="Arial,'sans-serif'" font-size="1.4" transform="matrix(9 0 0 9 297 313)">L</text><text font-family="Arial,'sans-serif'" font-size="1.4" transform="matrix(9 0 0 9 322 313)">L</text><text font-family="Arial,'sans-serif'" font-size="1.4" transform="matrix(9 0 0 9 347 313)">L</text><text font-family="Arial,'sans-serif'" font-size="1.4" transform="matrix(9 0 0 9 372 313)">L</text><text font-family="Arial,'sans-serif'" font-size="1.4" transform="matrix(9 0 0 9 397 313)">L</text><text font-family="Arial,'sans-serif'" font-size="1.4" transform="matrix(9 0 0 9 422 313)">L</text><text font-family="Arial,'sans-serif'" font-size="1.4" transform="matrix(9 0 0 9 446 313)">L</text><text font-family="Arial,'sans-serif'" font-size="1.4" transform="matrix(9 0 0 9 471 313)">L</text><text font-family="Arial,'sans-serif'" font-size="1.4" transform="matrix(9 0 0 9 54 313)">L</text><text font-family="Arial,'sans-serif'" font-size="1.4" transform="matrix(9 0 0 9 78 313)">L</text><text font-family="Arial,'sans-serif'" font-size="1.4" transform="matrix(9 0 0 9 30 313)">N</text></g><g fill="none" stroke="currentColor" clip-path="url(#clipId0)"><path d="M102 313h7M106 306l-4 7M106 306l3 7M126 306h7M129 313l-3-7M129 313l4-7"/></g><g fill="currentColor" stroke="currentColor" clip-path="url(#clipId0)"><text font-family="Arial,'sans-serif'" font-size="1.4" transform="matrix(9 0 0 9 161 446)">0</text><text font-family="Arial,'sans-serif'" font-size="1.4" transform="matrix(9 0 0 9 193 446)">1</text><text font-family="Arial,'sans-serif'" font-size="1.4" transform="matrix(9 0 0 9 227 446)">2</text><text font-family="Arial,'sans-serif'" font-size="1.4" transform="matrix(9 0 0 9 95 446)">24</text><text font-family="Arial,'sans-serif'" font-size="1.4" transform="matrix(9 0 0 9 95 433)">OUT</text></g><g fill="none" stroke="currentColor" clip-path="url(#clipId0)"><path d="M122 440a5 5 0 0 0-9 0M122 440a5 5 0 0 0 10 0M12 313v-8M12 313l-2-2M12 313l1-2M12 320v8M12 320l-2 2M12 320l1 2M42 313v-8M42 313l-2-2M42 313l1-2M63 313v-8M63 313l-1-2M63 313l2-2M332 305v8M332 305l-2 2M332 305l1 2M87 313v-8M87 313l-2-2M87 313l1-2M307 313v-8M307 313l-2-2M307 313l1-2M356 313v-8M356 313l-1-2M356 313l2-2M406 313v-8M406 313l-1-2M406 313l1-2M456 313v-8M456 313l-2-2M456 313l1-2M382 305v8M382 305l-2 2M382 305l1 2M431 305v8M431 305l-1 2M431 305l2 2M481 305v8M481 305l-1 2M481 305l1 2"/></g><g fill="currentColor" stroke="currentColor" clip-path="url(#clipId0)"><text font-family="Arial,'sans-serif'" font-size="1.4" transform="matrix(9 0 0 9 310 322)">0</text><text font-family="Arial,'sans-serif'" font-size="1.4" transform="matrix(9 0 0 9 359 322)">1</text><text font-family="Arial,'sans-serif'" font-size="1.4" transform="matrix(9 0 0 9 410 322)">2</text><text font-family="Arial,'sans-serif'" font-size="1.4" transform="matrix(9 0 0 9 459 322)">3</text></g><g fill="currentColor" stroke="currentColor" clip-path="url(#clipId0)"><path fill="url(#g_0)" d="M334 334h-28l28-7z"/></g><g fill="none" stroke="currentColor" clip-path="url(#clipId0)"><path d="M306 334h28M334 334v-7M334 327l-28 7"/></g><g fill="currentColor" stroke="currentColor" clip-path="url(#clipId0)"><path fill="url(#g_1)" d="M384 334h-28l28-7z"/></g><g fill="none" stroke="currentColor" clip-path="url(#clipId0)"><path d="M356 334h28M384 334v-7M384 327l-28 7"/></g><g fill="currentColor" stroke="currentColor" clip-path="url(#clipId0)"><path fill="url(#g_2)" d="M434 334h-29l29-7z"/></g><g fill="none" stroke="currentColor" clip-path="url(#clipId0)"><path d="M405 334h29M434 334v-7M434 327l-29 7"/></g><g fill="currentColor" stroke="currentColor" clip-path="url(#clipId0)"><path fill="url(#g_3)" d="M484 334h-29l29-7z"/></g><g fill="none" stroke="currentColor" clip-path="url(#clipId0)"><path d="M455 334h29M484 334v-7M484 327l-29 7M554 306h7M579 306h-7M561 306l11-4"/></g><g fill="currentColor" stroke="currentColor" clip-path="url(#clipId0)"><text font-family="Arial,'sans-serif'" font-size="1.4" transform="matrix(9 0 0 9 566 322)">4</text><text font-family="Arial,'sans-serif'" font-size="1.4" transform="matrix(9 0 0 9 616 322)">5</text><text font-family="Arial,'sans-serif'" font-size="1.4" transform="matrix(9 0 0 9 665 322)">6</text><text font-family="Arial,'sans-serif'" font-size="1.4" transform="matrix(9 0 0 9 715 322)">7</text></g><g fill="red" stroke="red" clip-path="url(#clipId0)"><path fill="url(#g_4)" d="m591 338-1-2 1-2z"/><path fill="url(#g_5)" d="M591 338v-4 6z"/><path fill="url(#g_6)" d="M591 340v-8z"/><path fill="url(#g_7)" d="M591 340v-8l2 9z"/><path fill="url(#g_8)" d="m593 341-2-9 2-1z"/><path fill="url(#g_9)" d="M593 341v-10l1 11z"/><path fill="url(#g_10)" d="m594 342-1-11 1-1z"/><path fill="url(#g_11)" d="M594 342v-12l2 13z"/><path fill="url(#g_12)" d="m596 343-2-13 2-1z"/><path fill="url(#g_13)" d="M596 343v-14l2 14z"/><path fill="url(#g_14)" d="m598 343-2-14h2z"/><path fill="url(#g_15)" d="M598 343v-14l1 14z"/><path fill="url(#g_16)" d="m599 343-1-14h1z"/><path fill="url(#g_17)" d="M599 343v-14l2 13z"/><path fill="url(#g_18)" d="m601 342-2-13 2 1z"/><path fill="url(#g_19)" d="M601 342v-12l2 11z"/><path fill="url(#g_20)" d="m603 341-2-11 2 1z"/><path fill="url(#g_21)" d="M603 341v-10l1 9z"/><path fill="url(#g_22)" d="m604 340-1-9 1 1z"/><path fill="url(#g_23)" d="M604 340v-8 6z"/><path fill="url(#g_24)" d="M604 338v-6 2z"/><path fill="url(#g_25)" d="M604 338v-4l1 2z"/><path fill="url(#g_26)" d="m591 386-1-2 1-2z"/><path fill="url(#g_27)" d="M591 386v-4 6z"/><path fill="url(#g_28)" d="M591 388v-8z"/><path fill="url(#g_29)" d="M591 388v-8l2 9z"/><path fill="url(#g_30)" d="m593 389-2-9 2-1z"/><path fill="url(#g_31)" d="M593 389v-10l1 11z"/><path fill="url(#g_32)" d="m594 390-1-11 1-1z"/><path fill="url(#g_33)" d="M594 390v-12l2 13z"/><path fill="url(#g_34)" d="m596 391-2-13 2-1z"/><path fill="url(#g_35)" d="M596 391v-14l2 14z"/><path fill="url(#g_36)" d="m598 391-2-14h2z"/><path fill="url(#g_37)" d="M598 391v-14l1 14z"/><path fill="url(#g_38)" d="m599 391-1-14h1z"/><path fill="url(#g_39)" d="M599 391v-14l2 13z"/><path fill="url(#g_40)" d="m601 390-2-13 2 1z"/><path fill="url(#g_41)" d="M601 390v-12l2 11z"/><path fill="url(#g_42)" d="m603 389-2-11 2 1z"/><path fill="url(#g_43)" d="M603 389v-10l1 9z"/><path fill="url(#g_44)" d="m604 388-1-9 1 1z"/><path fill="url(#g_45)" d="M604 388v-8 6z"/><path fill="url(#g_46)" d="M604 386v-6 2z"/><path fill="url(#g_47)" d="M604 386v-4l1 2z"/><path fill="url(#g_48)" d="m591 434-1-2 1-2z"/><path fill="url(#g_49)" d="M591 434v-4 6z"/><path fill="url(#g_50)" d="M591 436v-8z"/><path fill="url(#g_51)" d="M591 436v-8l2 9z"/><path fill="url(#g_52)" d="m593 437-2-9 2-1z"/><path fill="url(#g_53)" d="M593 437v-10l1 11z"/><path fill="url(#g_54)" d="m594 438-1-11 1-1z"/><path fill="url(#g_55)" d="M594 438v-12l2 13z"/><path fill="url(#g_56)" d="m596 439-2-13 2-1z"/><path fill="url(#g_57)" d="M596 439v-14l2 14z"/><path fill="url(#g_58)" d="m598 439-2-14h2z"/><path fill="url(#g_59)" d="M598 439v-14l1 14z"/><path fill="url(#g_60)" d="m599 439-1-14h1z"/><path fill="url(#g_61)" d="M599 439v-14l2 13z"/><path fill="url(#g_62)" d="m601 438-2-13 2 1z"/><path fill="url(#g_63)" d="M601 438v-12l2 11z"/><path fill="url(#g_64)" d="m603 437-2-11 2 1z"/><path fill="url(#g_65)" d="M603 437v-10l1 9z"/><path fill="url(#g_66)" d="m604 436-1-9 1 1z"/><path fill="url(#g_67)" d="M604 436v-8 6z"/><path fill="url(#g_68)" d="M604 434v-6 2z"/><path fill="url(#g_69)" d="M604 434v-4l1 2z"/></g><g fill="none" stroke="currentColor" clip-path="url(#clipId0)"><circle cx="597.6" cy="384" r="7.1"/><circle cx="597.6" cy="336" r="7.1"/><circle cx="597.6" cy="432" r="7.1"/><path d="M604 306h7M629 306h-8M611 306l10-4M653 306h8M678 306h-7M661 306l10-4M703 306h7M728 306h-7M710 306l11-4M803 306h7M827 306h-7M810 306l10-4M852 306h7M877 306h-7M859 306l11-4M902 306h7M927 306h-7M909 306l11-4M952 306h7M977 306h-7M959 306l11-4"/></g><g fill="currentColor" stroke="currentColor" clip-path="url(#clipId0)"><text font-family="Arial,'sans-serif'" font-size="1.4" transform="matrix(9 0 0 9 815 322)">8</text><text font-family="Arial,'sans-serif'" font-size="1.4" transform="matrix(9 0 0 9 864 322)">9</text><text font-family="Arial,'sans-serif'" font-size="1.4" transform="matrix(9 0 0 9 915 322)">A</text><text font-family="Arial,'sans-serif'" font-size="1.4" transform="matrix(9 0 0 9 963 322)">B</text><text font-family="Arial,'sans-serif'" font-size="1.4" transform="matrix(9 0 0 9 589 355)">UP</text><text font-family="Arial,'sans-serif'" font-size="1.4" transform="matrix(9 0 0 9 541 389)">ENTER</text><text font-family="Arial,'sans-serif'" font-size="1.4" transform="matrix(9 0 0 9 580 423)">DOWN</text><text font-family="Arial,'sans-serif'" font-size="1.4" transform="matrix(9 0 0 9 782 446)">12V DC</text><text font-family="Arial,'sans-serif'" font-size="1.4" transform="matrix(9 0 0 9 775 473)">-</text><text font-family="Arial,'sans-serif'" font-size="1.4" transform="matrix(9 0 0 9 826 474)">+</text><text font-family="Arial,'sans-serif'" font-size="1.4" transform="matrix(9 0 0 9 790 433)">OUT</text><text font-family="Arial,'sans-serif'" font-size="1.4" transform="matrix(9 0 0 9 357 433)">INPUTS</text><text font-family="Arial,'sans-serif'" font-size="1.4" transform="matrix(9 0 0 9 624 433)">INPUTS</text><text font-family="Arial,'sans-serif'" font-size="1.4" transform="matrix(9 0 0 9 24 329)">230V AC</text><text font-family="Arial,'sans-serif'" font-size="1.4" transform="matrix(9 0 0 9 87 329)">UP DOWN</text><text font-family="Arial,'sans-serif'" font-size="1.4" transform="matrix(19 0 0 19 323 384)">SMARTBOX+</text></g><g fill="none" stroke="currentColor" clip-path="url(#clipId0)"><path d="M311 374v-14M311 360h186M497 360v30M497 390H311M311 390v-16M38 207v-62M62 207v-62M86 207v-62M109 207v-62M133 207v-62M305 206v-61M330 206v-61M355 206v-61M380 206v-61M405 206v-61M430 206v-61M455 206v-61M479 206v-61M554 206v-61M579 206v-61M604 206v-61M629 206v-61M653 206v-61M678 206v-61M703 206v-61M728 206v-61M803 206v-61M827 206v-61M852 206v-61M877 206v-61M902 206v-61M927 206v-61M952 206v-61M977 206v-61M102 562v61M135 562v61M169 562v61M202 562v61M235 562v61M301 562v61M319 562v61M338 562v61M357 562v61M376 562v61M395 562v61M414 562v61M433 562v61M452 562v61M471 562v61M537 562v61M556 562v61M575 562v61M594 562v61M613 562v61M632 562v61M650 562v61M669 562v61M688 562v61M707 562v61M726 562v61M745 562v61"/></g><g fill="none" stroke="currentColor" clip-path="url(#clipId0)"><path d="M172 328v53l1 2h5v3h-6v17l1 2 2 3 3 1v4l-3-1-4-3-1-3v-20h-3l1-3h1l1-1v-54z"/></g><g fill="currentColor" stroke="currentColor" clip-path="url(#clipId0)"><path d="M167 386v-3zM167 386v-3h0zM167 386v-3zM168 386l-1-3h1zM168 386v-3zM168 386v-3h0zM168 386v-3zM168 386v-3h0zM168 386v-3zM168 386v-3h0zM168 386v-3zM169 386l-1-3h1zM169 386v-3zM169 386v-3h0zM169 386v-3zM169 386v-3h0zM169 386v-3zM169 386v-3h0zM169 386v-3zM170 386l-1-3h1zM170 386v-3zM170 386v-3h0zM170 386v-3zM170 386v-3h0zM170 386v-3zM170 386v-3h0zM170 386v-3zM170 386v-3h0zM170 386v-3zM170 386v-3h0zM170 386v-3zM170 386v-3h0zM170 386v-3zM170 386v-3h0zM170 328zM170 386v-3zM170 386v-3h0zM170 328zM170 328zM170 386v-3zM170 386v-3h0zM170 328zM170 328zM170 386v-3zM170 386v-3h0zM170 328zM170 329v-1h0zM170 328zM170 386v-3zM170 386v-3h0zM170 329v-1zM170 329v-1h0zM170 328zM170 328zM170 386v-3zM170 386v-3h0zM170 329v-1zM170 329v-1h0zM170 328zM170 328zM170 386v-3zM170 386v-3h0zM170 329v-1zM170 329v-1h0zM170 328zM170 328zM170 386v-3zM170 386v-3h0zM170 329v-1zM170 329v-1h0zM170 328zM170 328zM170 386v-3zM170 386v-3h0zM170 329v-1zM170 330v-2h0zM170 328zM170 328zM170 386v-3zM170 386v-3h0zM170 330v-2zM170 330v-2h0zM170 328zM170 328zM170 386v-3zM170 386v-3h0zM170 330v-2zM170 330v-2h0zM170 328zM170 328zM170 386v-3zM170 386v-3h0zM170 330v-2zM170 330v-2h0zM170 328zM170 328zM170 386v-3zM170 386v-3h0zM170 330v-2zM170 330v-2h0zM170 328zM170 328zM170 386v-3zM170 386v-3h0zM170 330v-2zM170 330v-2h0zM170 328zM170 328zM170 402zM170 402zM170 386v-3zM170 386v-3h0zM170 330v-2zM170 331v-3h0zM170 328zM170 328zM170 402zM170 402zM170 386v-3zM170 386v-3h0zM170 335zM170 331v-3zM170 331v-3h0zM170 328zM170 328zM170 402zM170 402zM170 386v-3zM170 386v-3h0zM170 335zM170 336v-1h0zM170 331v-3zM170 331v-3h0zM170 328zM170 328zM170 402zM170 402zM170 386v-3zM170 386v-3h0zM170 336v-1zM170 336v-1h0zM170 331v-3zM170 331v-3h0zM170 328zM170 328zM170 402zM170 402zM170 386v-3zM170 386v-3h0zM170 336v-1zM170 336v-2zM170 331v-3zM170 331v-3h0zM170 328zM170 328zM170 402zM170 402zM170 386v-3zM170 386v-3h0zM170 336v-2zM170 336v-2h0zM170 331v-3zM170 331v-3h0zM170 328zM170 328zM170 402v-3zM170 402v-4zM170 386v-3zM170 387v-6zM170 342v-8 12zM170 346v-12h0zM170 331v-3zM170 331v-3h0zM170 328zM170 328zM170 402v-4zM170 402v-5zM170 387v-6zM170 387v-6h0zM170 346v-12 15zM170 349v-15h0zM170 331v-3zM170 332v-4h0zM170 328zM170 328zM170 402v-5zM170 402v-6zM170 387v-6zM170 387v-7zM170 349v-15 17zM170 351v-17h0zM170 332v-4zM170 332v-4h0zM170 328zM170 328zM170 402v-6zM170 402v-6h0zM170 387v-7zM170 387v-7h0zM170 351v-17zM170 352v-18h0zM170 332v-4zM170 332v-4h0zM170 328zM170 328zM170 402v-6zM170 402v-7zM170 387v-7zM170 387v-8zM170 352v-18 21zM170 355v-22zM170 332v-4zM170 332v-4h0zM170 328zM170 328zM170 402v-7zM170 402v-7h0zM170 387v-8zM170 387v-8h0zM170 355v-22 23zM170 356v-23h0zM170 332v-4zM170 332v-4h0zM170 328zM170 328zM170 402v-7zM170 402v-8zM170 387v-8zM170 387v-9zM170 356v-23 24zM170 357v-24h0zM170 332v-4zM170 332v-4h0zM170 328zM170 328zM170 402v-8zM170 402v-8h0zM170 387v-9zM170 388v-10h0zM170 357v-24 26zM170 359v-26h0zM170 332v-4zM170 333v-5h0zM170 328zM170 328zM170 402v-8zM170 402v-8h0zM170 388v-10zM170 388v-10h0zM170 359v-31zM170 360v-32h0zM170 328zM170 328zM170 402v-8zM170 402v-10zM170 388v-10zM170 388v-11zM170 360v-32 36zM170 364v-36h0zM170 328zM170 328zM170 402v-10zM170 402v-11zM170 388v-11zM170 388v-11h0zM170 364v-36 38zM170 366v-38h0zM170 328zM170 328zM170 402v-11zM170 402v-11h0zM170 388v-11zM170 389v-15zM170 366v-38 40zM170 368v-40h0zM170 328zM170 328zM170 402v-11zM170 402v-13zM170 389v-21zM170 389v-21 5zM170 374v-46 45zM170 373v-45h0zM170 328zM170 328zM170 402v-74zM170 402v-74h0zM170 328zM170 328zM170 402v-74zM170 402v-74h0zM170 328zM170 402v-74zM170 403v-75h0zM170 403v-75zM170 403v-75h0zM170 403v-75zM170 403v-75h0zM170 403v-75zM170 404v-76h0zM170 404v-76zM170 404v-76h0zM170 404v-76zM170 404v-76h0zM170 404v-76zM170 405v-77h0zM170 405v-77zM170 405v-77h0zM170 405v-77zM170 406v-78h0zM170 406v-78zM170 406v-78h0zM170 406v-78zM170 406v-78h0zM170 406v-78zM170 407v-79h0zM170 407v-79zM170 407v-79h0zM170 407v-79zM170 407v-79h0zM170 407v-79zM170 407v-79h0zM170 407v-79zM170 408v-80h0zM170 408v-80zM171 408l-1-80h1zM171 408v-80zM171 408v-80h0zM171 408v-80zM171 408v-80h0zM171 408v-80zM171 408v-80h0zM171 408v-80zM171 409v-81h0zM171 409v-81zM171 409v-81h0zM171 409v-81zM171 409v-81h0zM171 409v-81zM171 409v-81h0zM171 409v-81zM171 409v-81h0zM171 409v-81zM172 410l-1-82h1zM172 410v-82zM172 410v-82h0zM172 410v-82zM172 410v-82h0zM172 410v-82zM172 410v-82h0zM172 410v-82zM172 410v-82h0zM172 410v-82zM172 410v-82h0zM172 410v-8zM172 410v-8h0zM172 400v-65 63zM172 398v-63 5zM172 410v-8zM172 410v-8h0zM172 398v-58 57zM172 397v-57 5zM172 410v-8zM172 410v-8h0zM172 397v-52 50zM172 395v-50 5zM172 410v-8zM172 410v-8h0zM172 395v-45 44zM172 394v-44 6zM172 410v-8zM172 410v-8h0zM172 394v-38 37zM172 393v-37 4zM172 410v-8zM172 410v-8h0zM172 393v-33zM172 392v-32 1zM172 410v-8zM172 410v-8h0zM172 392v-31 30zM172 391v-30 5zM172 410v-8zM172 410v-8h0zM172 391v-25 23zM172 389v-23 5zM172 410v-8zM172 410v-8h0zM172 389v-18 17zM172 388v-17 5zM172 410v-8zM172 410v-8 1zM172 388v-12 10zM172 386v-10 7zM172 410v-7zM172 411v-8h0zM172 386v-3zM172 386v-3h0zM172 411v-8zM172 411v-8h0zM172 386v-3zM172 386v-3h0zM172 411v-8zM172 411v-8 1zM172 386v-3zM172 386v-3h0zM172 411v-7zM172 411v-7h0zM172 386v-3zM172 386v-3h0zM172 411v-7zM173 411l-1-7 1 1zM172 386v-3zM173 386l-1-3h1zM173 411v-6zM173 411v-6h0zM173 386v-3zM173 386v-3h0zM173 411v-6zM173 411v-6 1zM173 386v-3zM173 386v-3h0zM173 411v-5zM173 411v-5h0zM173 386v-3zM173 386v-3h0zM173 411v-5zM173 411v-5h0zM173 386v-3zM173 386v-3h0zM173 411v-5zM173 411v-5h0zM173 386v-3zM173 386v-3h0zM173 411v-5zM173 411v-5h0zM173 386v-3zM173 386v-3h0zM173 411v-5zM173 411v-5 1zM173 386v-3zM173 386v-3h0zM173 411v-4zM173 411v-4h0zM173 386v-3zM173 386v-3h0zM173 411v-4zM174 412l-1-5h1zM173 386v-3zM174 386l-1-3h1zM174 412v-5zM174 412v-5h0zM174 386v-3zM174 386v-3h0zM174 412v-5zM174 412v-5h0zM174 386v-3zM174 386v-3h0zM174 412v-5zM174 412v-5h0zM174 386v-3zM174 386v-3h0zM174 412v-5zM174 412v-5 1zM174 386v-3zM174 386v-3h0zM174 412v-4zM174 412v-4h0zM174 386v-3zM174 386v-3h0zM174 412v-4zM174 412v-4h0zM174 386v-3zM174 386v-3h0zM174 412v-4zM174 412v-4h0zM174 386v-3zM174 386v-3h0zM174 412v-4zM175 412l-1-4h1zM174 386v-3zM175 386l-1-3h1zM175 412v-4zM175 412v-4h0zM175 386v-3zM175 386v-3h0zM175 412v-4zM175 412v-4h0zM175 386v-3zM175 386v-3h0zM175 412v-4zM175 412v-4h0zM175 386v-3zM175 386v-3h0zM175 412v-4zM175 412v-4h0zM175 386v-3zM175 386v-3h0zM175 412v-4zM175 412v-4h0zM175 386v-3zM175 386v-3h0zM175 412v-4zM175 412v-4h0zM175 386v-3zM175 386v-3h0zM175 412v-4zM175 412v-4 1zM175 386v-3zM175 386v-3h0zM175 412v-3zM176 412l-1-3h1zM175 386v-3zM176 386l-1-3h1zM176 412v-3zM176 412v-3h0zM176 386v-3zM176 386v-3h0zM176 412v-3zM176 412v-3h0zM176 386v-3zM176 386v-3h0zM176 412v-3zM176 412v-3h0zM176 386v-3zM176 386v-3h0zM176 412v-3zM176 413v-4h0zM176 386v-3zM176 386v-3h0zM176 413v-4zM176 413v-4h0zM176 386v-3zM176 386v-3h0zM176 413v-4zM176 413v-4h0zM176 386v-3zM176 386v-3h0zM176 413v-4zM176 413v-4h0zM176 386v-3zM176 386v-3h0zM176 413v-4zM177 413l-1-4h1zM176 386v-3zM177 386l-1-3h1zM177 413v-4zM177 413v-4h0zM177 386v-3zM177 386v-3h0zM177 413v-4zM177 413v-4h0zM177 386v-3zM177 386v-3h0zM177 413v-4zM177 413v-4h0zM177 386v-3zM177 386v-3h0zM177 413v-4zM177 413v-4h0zM177 386v-3zM177 386v-3h0zM177 413v-4zM177 413v-4h0zM177 386v-3zM177 386v-3h0zM177 413v-4zM177 413v-4h0zM177 386v-3zM177 386v-3h0zM177 413v-4zM177 413v-4h0zM177 386v-3zM177 386v-3h0zM177 413v-4zM178 413l-1-4h1zM177 386v-3zM178 386l-1-3h1zM178 413v-4zM178 413v-4h0zM178 386v-3zM178 386v-3h0zM178 413v-4zM178 413v-4h0zM178 386v-3zM178 386v-3h0zM178 413v-4zM178 413v-4h0zM178 386v-3zM178 386v-3h0zM178 413v-4zM178 412v-3h0zM178 386v-3zM178 386v-3h0zM178 412v-3zM178 412v-3h0zM178 386v-3zM178 386v-3h0zM178 412v-3zM178 412v-3h0zM178 386v-3zM178 386v-3h0zM178 412v-3zM178 411v-2h0zM178 386v-3zM178 386v-3h0zM178 411v-2zM178 411v-2h0zM178 386v-3zM178 386v-3h0zM178 411v-2zM178 410v-1h0zM178 386v-3zM178 386v-3h0zM178 410v-1zM178 410v-1h0zM178 386v-3zM178 386v-3h0zM178 410v-1zM178 410v-1h0zM178 386v-3zM178 386v-3h0zM178 410v-1zM178 409zM178 386v-3zM178 386v-3h0zM178 409zM178 386v-3zM178 386v-3h0zM178 386v-3zM178 386v-3h0z"/></g><g fill="none" stroke="currentColor" clip-path="url(#clipId0)"><path d="M216 346h2v22l2 2 2 2 3 1 2-2v-25h1l2 1v21l-2 6-2 2h-3l-3-2-1-2h-1v4h-2v-30"/></g><g fill="currentColor" stroke="currentColor" clip-path="url(#clipId0)"><path d="M216 376v-3zM216 376v-3zM216 376v-5zM216 376v-5zM216 376v-6zM216 376v-6zM216 376v-8zM216 376v-8zM216 376v-9zM216 376v-9zM216 376v-10zM216 376v-10zM216 376v-11zM216 360zv-1zM216 376v-11zM216 376v-11h0zM216 360v-1zM216 361v-3zM216 376v-11zM216 376v-11h0zM216 361v-3zM216 361v-3h0zM216 376v-11zM216 376v-12zM216 361v-3 4zM216 362v-5zM216 376v-12zM216 376v-12h0zM216 362v-5zM216 362v-5h0zM216 376v-12zM216 376v-14zM216 362v-5zM216 362v-5h0zM216 376v-19zM216 376v-20zM216 376v-20zM216 376v-21zM216 376v-21zM216 376v-23zM216 376v-23zM216 376v-24zM216 376v-24zM216 376v-26zM216 376v-26zM216 376v-27zM216 376v-27zM216 376v-28zM216 376v-28zM216 376v-29zM216 376v-29zM216 376v-30zM216 376v-30zM216 376v-30h0zM216 376v-30zM216 376v-30h0zM216 376v-30zM216 376v-30h0zM216 376v-30zM216 376v-30h0zM216 376v-30zM216 376v-30h0zM216 376v-30zM216 376v-30h0zM216 376v-30zM216 376v-30h0zM216 376v-30zM216 376v-30h0zM216 376v-30zM216 376v-30h0zM216 376v-30zM216 376v-30h0zM216 376v-30zM216 376v-30h0zM216 376v-30zM216 376v-30h0zM216 376v-30zM216 376v-30h0zM216 376v-30zM216 376v-30h0zM216 376v-30zM216 376v-30h0zM216 376v-30zM216 376v-30h0zM216 376v-30zM216 376v-30h0zM216 376v-30zM216 376v-30h0zM216 376v-30zM216 376v-30h0zM216 376v-30zM216 376v-30h0zM216 376v-30zM217 376l-1-30h1zM217 376v-30zM217 376v-30h0zM217 376v-30zM217 376v-30h0zM217 376v-30zM217 376v-30h0zM217 376v-30zM218 376l-1-30h1zM218 376v-30zM218 376v-30h0zM218 376v-30zM218 376v-30h0zM218 376v-30zM218 376v-30h0zM218 376v-8zM218 376v-8h0zM218 368v-22zM218 368v-22h0zM218 376v-2zM218 376v-2 1zM218 374v-6zM218 374v-6h0zM218 368v-22zM218 368v-22h0zM218 376v-1zM218 376v-1h0zM218 374v-6zM218 374v-6h0zM218 368v-22zM218 368v-22h0zM218 376v-1zM218 376v-1h0zM218 374v-6zM218 373v-5h0zM218 368v-22zM218 368v-22h0zM218 376v-1zM218 376v-1zM218 373v-5zM218 373v-5h0zM218 368v-22zM218 368v-22h0zM218 376zM218 376zM218 373v-5zM218 373v-5h0zM218 368v-22zM218 368v-22h0zM218 373v-5zM218 373v-5h0zM218 367v-21 20zM218 366v-20 1zM218 373v-5zM218 373v-5h0zM218 366v-19 17zM218 364v-17h0zM218 373v-5zM218 372v-4h0zM218 364v-17 15zM218 362v-15 1zM218 372v-4zM218 372v-4h0zM218 362v-14zM218 361v-13h0zM218 372v-4zM218 372v-4h0zM218 361v-13zM218 360v-12h0zM218 372v-4zM218 372v-4h0zM218 360v-12zM218 360v-12 1zM218 372v-4zM218 372v-4h0zM218 360v-11 9zM218 358v-9 1zM218 372v-4zM218 372v-4h0zM218 358v-8zM218 357v-7 2zM218 372v-4zM218 372v-4h0zM218 357v-5 4zM218 356v-4 1zM218 372v-4zM218 372v-4h0zM218 356v-3zM218 372v-4zM218 372v-4 1zM218 372v-3zM218 372v-3h0zM218 372v-3zM218 372v-3h0zM218 372v-3zM219 372l-1-3h1zM219 372v-3zM219 372v-3h0zM219 372v-3zM219 372v-3h0zM219 372v-3zM219 372v-3h0zM219 372v-3zM219 372v-3h0zM219 372v-3zM219 372v-3h0zM219 372v-3zM219 372v-3h0zM219 372v-3zM219 372v-3h0zM219 372v-3zM219 372v-3h0zM219 372v-3zM219 372v-3h0zM219 372v-3zM219 373v-4 1zM219 373v-3zM219 373v-3h0zM219 373v-3zM219 373v-3h0zM219 373v-3zM219 373v-3h0zM219 373v-3zM219 373v-3h0zM219 373v-3zM220 373l-1-3h1zM220 373v-3zM220 373v-3h0zM220 373v-3zM220 374v-4h0zM220 374v-4zM220 374v-4h0zM220 374v-4zM220 374v-4h0zM220 374v-4zM220 374v-4 1zM220 374v-3zM220 374v-3h0zM220 374v-3zM220 374v-3h0zM220 374v-3zM220 374v-3h0zM220 374v-3zM221 374l-1-3h1zM221 374v-3zM221 374v-3h0zM221 374v-3zM221 375v-4h0zM221 375v-4zM221 375v-4h0zM221 375v-4zM221 375v-4 1zM221 375v-3zM221 375v-3h0zM221 375v-3zM221 375v-3h0zM221 375v-3zM221 375v-3h0zM221 375v-3zM222 375l-1-3h1zM222 375v-3zM222 375v-3h0zM222 375v-3zM222 375v-3h0zM222 375v-3zM222 375v-3h0zM222 375v-3zM222 375v-3h0zM222 375v-3zM222 375v-3h0zM222 375v-3zM223 376l-1-4h1zM223 376v-4zM223 376v-4h0zM223 376v-4zM223 376v-4h0zM223 376v-4zM223 376v-4h0zM223 376v-4zM223 376v-4h0zM223 376v-4zM223 376v-4h0zM223 376v-4zM224 376l-1-4h1zM224 376v-4zM224 376v-4h0zM224 376v-4zM224 376v-4h0zM224 376v-4zM224 376v-4h0zM224 376v-4zM224 376v-4 1zM224 376v-3zM224 376v-3h0zM224 376v-3zM224 376v-3h0zM224 376v-3zM224 376v-3h0zM224 376v-3zM224 376v-3h0zM224 376v-3zM225 376l-1-3h1zM225 376v-3zM225 376v-3h0zM225 376v-3zM225 376v-3h0zM225 376v-3zM225 376v-3h0zM225 376v-3zM225 376v-3h0zM225 376v-3zM225 376v-4zM225 376v-4zM225 376v-4h0zM225 376v-4zM225 376v-4h0zM225 376v-4zM225 376v-4h0zM225 376v-4zM226 376l-1-4h1zM226 376v-4zM226 376v-4h0zM226 376v-4zM226 376v-4h0zM226 376v-4zM226 376v-4h0zM226 376v-4zM226 376v-4h0zM226 376v-4zM226 376v-4h0zM226 376v-4zM226 376v-4h0zM226 376v-4zM226 376v-4h0zM226 376v-4zM226 376v-4h0zM226 376v-4zM226 376v-4h0zM226 376v-4zM226 376v-4h0zM226 376v-4zM226 376v-4h0zM226 376v-4zM226 376v-4h0zM226 376v-4zM226 376v-5zM226 376v-5zM227 376l-1-5h1zM227 376v-5zM227 376v-5h0zM227 376v-5zM227 376v-5h0zM227 376v-5zM227 376v-5h0zM227 376v-5zM227 376v-5h0zM227 376v-5zM227 376v-5h0zM227 376v-5zM227 376v-6zM227 376v-6zM227 376v-6h0zM227 376v-6zM227 375v-5h0zM227 375v-5zM227 375v-5h0zM227 375v-5zM227 375v-6zM227 375v-6zM227 375v-6h0zM227 375v-6zM227 375v-6h0zM227 375v-6zM227 375v-6h0zM227 375v-6zM227 375v-6h0zM227 358v-4zM227 375v-6zM227 375v-6h0zM227 358v-4zM227 358v-4h0zM227 375v-6zM227 375v-6h0zM227 358v-4zM227 359v-5h0zM227 375v-6zM227 375v-6h0zM227 366zM227 359v-5 6zM227 360v-8zM227 375v-6zM227 375v-6h0zM227 366zM227 367zM227 360v-8zM227 360v-8h0zM227 375v-6zM227 375v-6h0zM227 367zM227 367zM227 360v-8 10zM227 362v-12zM227 375v-6zM227 375v-6h0zM227 367zM227 367zh0zM227 362v-12zM227 362v-12h0zM227 375v-6zM227 375v-6h0zM227 367v-1zM227 367v-1h0zM227 362v-12zM227 362v-12h0zM227 375v-6zM227 375v-6h0zM227 367v-1zM227 367v-1h0zM227 362v-12zM227 363v-13h0zM227 375v-6zM227 375v-6h0zM227 367v-1zM227 367v-2zM227 363v-13 14zM227 364v-16zM227 375v-6zM227 375v-6h0zM227 367v-2zM227 367v-2h0zM227 364v-16zM227 365v-17h0zM227 375v-6zM227 375v-6h0zM227 367v-19zM227 367v-19h0zM227 375v-6zM227 375v-6h0zM227 367v-19zM227 367v-20zM227 375v-6zM227 375v-6h0zM227 367v-20zM227 367v-20h0zM227 375v-6zM227 375v-6h0zM227 367v-20zM227 367v-20h0zM227 375v-6zM227 375v-6h0zM227 367v-20zM227 367v-21zM227 375v-6zM227 375v-6h0zM227 367v-21zM227 367v-21h0zM227 375v-6zM227 375v-7zM227 367v-21zM227 368v-22h0zM227 375v-7zM227 375v-7h0zM227 368v-22zM227 368v-22h0zM227 375v-7zM227 375v-7h0zM227 368v-22zM227 368v-22h0zM227 375v-7zM227 375v-7h0zM227 368v-22zM227 368v-22h0zM227 375v-29zM227 375v-29h0zM227 375v-29zM227 375v-29h0zM227 375v-29zM227 375v-29h0zM227 375v-29zM228 375l-1-29h1zM228 375v-29zM228 375v-29h0zM228 375v-29zM228 375v-29h0zM228 375v-29zM228 374v-28h0zM228 374v-28zM228 374v-28h0zM228 374v-28zM228 374v-28h0zM228 374v-28zM228 374v-28h0zM228 374v-28zM228 374v-28h0zM228 374v-28zM229 373l-1-27h1zM229 373v-27zM229 373v-27h0zM229 373v-27zM229 373v-27h0zM229 373v-27zM229 373v-27h0zM229 373v-27zM229 373v-27h0zM229 373v-27zM229 372v-26h0zM229 372v-26zM229 372v-26h0zM229 372v-26zM229 372v-26h0zM229 372v-26zM229 371v-25h0zM229 371v-25zM229 371v-25h0zM229 371v-25zM229 370v-24h0zM229 370v-24zM229 370v-24h0zM229 370v-24zM230 369l-1-23h1zM230 369v-23zM230 369v-23h0zM230 369v-23zM230 368v-22h0zM230 368v-22zM230 368v-22 2zM230 368v-20zM230 368v-20 2zM230 368v-18zM230 368v-18 2zM230 368v-16zM230 368v-16 2zM230 368v-3zM230 368v-3h0zM230 365v-11zM230 365v-11h0zM230 368v-3zM230 368v-3 1zM230 365v-11 9zM230 363v-9 3zM230 368v-2zM230 368v-2h0zM230 363v-6zM230 363v-6h0zM230 368v-2zM230 368v-2h0zM230 363v-6 4zM230 361v-4 2zM230 368v-2zM230 368v-2h0zM230 361v-2h0zM230 368v-2zM230 368v-2 1zM230 368v-1zM230 368v-1zM230 368z"/></g><g fill="none" stroke="currentColor" clip-path="url(#clipId0)"><path d="m249 355-1-4-2-4-2-1-2-1h-2l-2 2-2 3-1 3-1 3v10l3 8 2 1 3 1 3-1 2-2 3-7v-6z"/><path d="m247 364-1 4-2 4h-4l-2-4-2-5v-6l1-4 2-3 2-1h3l2 3 1 6z"/></g><g fill="currentColor" stroke="currentColor" clip-path="url(#clipId0)"><path d="M234 361v-1zM234 361v-1zM234 362v-3zM234 362v-3zM234 362v-3h0zM234 362v-3zM234 363v-5zM234 363v-5zM234 363v-5h0zM234 363v-5zM234 363v-5h0zM234 363v-5zM234 363v-6zM234 363v-6zM234 364v-7h0zM234 364v-7zM234 364v-7h0zM234 364v-7zM234 365v-9zM234 365v-9zM234 365v-9h0zM234 365v-9zM234 365v-10zM234 365v-10zM234 365v-10h0zM234 365v-10 11zM234 366v-11h0zM234 366v-11zM234 366v-11h0zM234 366v-11zM234 367v-13zM234 367v-13zM234 367v-13h0zM234 367v-13zM234 367v-13h0zM234 367v-13zM235 368l-1-14 1-1zM235 368v-15zM235 368v-15h0zM235 368v-15zM235 368v-15h0zM235 368v-15zM235 369v-16h0zM235 369v-16zM235 369v-17zM235 369v-17zM235 369v-17h0zM235 369v-17zM235 369v-17h0zM235 369v-17zM235 370v-19zM235 370v-19zM235 370v-19h0zM235 370v-19zM235 370v-19h0zM235 370v-19zM235 370v-19h0zM235 370v-19zM236 371l-1-20 1-1zM236 371v-21zM236 371v-21h0zM236 371v-21zM236 371v-21h0zM236 371v-21zM236 371v-21h0zM236 371v-21zM236 372v-23zM236 372v-23zM236 372v-23h0zM236 372v-23zM236 372v-23h0zM236 372v-23zM236 372v-23h0zM236 372v-23zM237 372l-1-23h1zM237 372v-23zM237 373v-25zM237 373v-25zM237 373v-25h0zM237 373v-25zM237 373v-25h0zM237 373v-25zM237 373v-25h0zM237 373v-25zM237 373v-25h0zM237 373v-25zM237 374v-27zM237 374v-27zM238 374l-1-27h1zM238 374v-27zM238 374v-27h0zM238 374v-27zM238 374v-27h0zM238 374v-27zM238 374v-27h0zM238 374v-27zM238 374v-27h0zM238 374v-27zM238 374v-27h0zM238 374v-27zM238 375v-29zM238 375v-29zM238 375v-29h0zM238 375v-29zM239 375l-1-29h1zM239 375v-29zM239 375v-29h0zM239 375v-29zM239 375v-29h0zM239 375v-29zM239 375v-29h0zM239 375v-29zM239 375v-29h0zM239 375v-29zM239 375v-29h0zM239 375v-29zM240 376l-1-30h1zM240 376v-30zM240 376v-31zM240 376v-31zM240 376v-31h0zM240 376v-31zM240 376v-31h0zM240 376v-31zM240 376v-31h0zM240 376v-31zM240 376v-31h0zM240 376v-31zM241 376l-1-31h1zM241 376v-31zM241 376v-31h0zM241 376v-31zM241 376v-31h0zM241 376v-31zM241 376v-31h0zM241 376v-31zM241 376v-31h0zM241 376v-31zM241 376v-31h0zM241 376v-31zM242 376l-1-31h1zM242 376v-31zM242 376v-31h0zM242 376v-31zM242 376v-31h0zM242 376v-31zM242 376v-31h0zM242 376v-31zM242 376v-31h0zM242 376v-31zM242 376v-31h0zM242 376v-31zM243 376l-1-31h1zM243 376v-31zM243 376v-31h0zM243 376v-31zM243 376v-31h0zM243 376v-31zM243 376v-31h0zM243 376v-31zM243 376v-31h0zM243 376v-31zM243 376v-31h0zM243 376v-31zM243 376v-31h0zM243 376v-31zM244 376l-1-31h1zM244 376v-31zM244 376v-31h0zM244 376v-31zM244 376v-31h0zM244 376v-31zM244 375v-30 1zM244 375v-29zM244 375v-29h0zM244 375v-29zM244 375v-29h0zM244 375v-29zM245 375l-1-29h1zM245 375v-29zM245 375v-29h0zM245 375v-29zM245 375v-29h0zM245 375v-29zM245 375v-29h0zM245 375v-29zM245 375v-29h0zM245 375v-29zM245 374v-28 1zM245 374v-27zM246 374l-1-27h1zM246 374v-27zM246 374v-27h0zM246 374v-27zM246 374v-27h0zM246 374v-27zM246 374v-27h0zM246 374v-27zM246 374v-27h0zM246 374v-27zM247 373l-1-26 1 1zM247 373v-25zM247 373v-25h0zM247 373v-25zM247 373v-25h0zM247 373v-25zM247 373v-25h0zM247 373v-25zM247 372v-24 1zM247 372v-23zM247 372v-23h0zM247 372v-23zM247 372v-23h0zM247 372v-23zM247 372v-23h0zM247 372v-23zM247 372v-23h0zM247 372v-23zM248 372l-1-23h1zM248 372v-23zM248 371v-22 1zM248 371v-21zM248 371v-21h0zM248 371v-21zM248 371v-21h0zM248 371v-21zM248 370v-20 1zM248 370v-19zM248 370v-19h0zM248 370v-19zM248 370v-19h0zM248 370v-19zM249 369l-1-18 1 1zM249 369v-17zM249 369v-17h0zM249 369v-17zM249 369v-17h0zM249 369v-17zM249 369v-17 1zM249 369v-16zM249 368v-15h0zM249 368v-15zM249 368v-15h0zM249 368v-15zM249 368v-15h0zM249 368v-15zM249 367v-14 1zM249 367v-13zM249 367v-13h0zM249 367v-13zM249 367v-13h0zM249 367v-13zM249 366v-12 1zM249 366v-11zM249 366v-11h0zM249 366v-11zM250 366l-1-11h1zM250 366v-11zM250 365v-10 1zM250 365v-9zM250 364v-8 1zM250 364v-7zM250 364v-7h0zM250 364v-7zM250 363v-6 1zM250 363v-5zM250 363v-5h0zM250 363v-5 4zM250 362v-4 1zM250 362v-3zM250 361v-2h0zM250 361v-2z"/></g><g fill="none" stroke="currentColor" clip-path="url(#clipId0)"><path d="M208 333v13l-4 2-3 2-3 4-1 3-1 4 1 5 2 4 3 3 4 2 3 1 2-1v-42z"/><path d="m208 373-3-2-3-2-2-4-1-4v-4l3-4 3-2 2-1h1z"/></g><g fill="currentColor" stroke="currentColor" clip-path="url(#clipId0)"><path d="M196 362zv-1zM196 362v-1zM196 362v-2zM196 362v-2zM196 363v-3h0zM196 363v-3zM196 363v-4zM196 363v-4zM196 363v-4h0zM196 363v-4zM197 364l-1-5h1zM197 364v-5zM197 364v-6zM197 364v-6zM197 365v-7h0zM197 365v-7zM197 365v-7h0zM197 365v-7zM197 366v-9zM197 366v-9zM197 366v-9h0zM197 366v-9zM197 366v-10zM197 366v-10zM197 366v-10h0zM197 366v-10zM197 367v-11h0zM197 367v-11zM197 367v-12zM197 367v-12zM198 368l-1-13h1zM198 368v-13zM198 368v-14zM198 368v-14zM198 369v-15h0zM198 369v-15zM198 369v-15h0zM198 369v-15zM199 369l-1-15 1-1zM199 369v-16zM199 370v-17h0zM199 370v-17zM199 370v-17h0zM199 370v-17zM199 370v-18zM199 370v-18zM199 370v-18h0zM199 370v-18zM199 371v-19h0zM199 371v-19zM200 371l-1-19h1zM200 371v-19zM200 371v-20zM200 371v-20zM200 371v-20h0zM200 371v-20zM200 372v-21h0zM200 372v-21zM200 372v-21h0zM200 372v-21zM201 372l-1-21 1-1zM201 372v-22zM201 372v-22h0zM201 372v-22zM201 373v-23h0zM201 373v-23zM201 373v-23h0zM201 373v-23zM201 373v-23h0zM201 373v-23zM202 373l-1-23 1-1zM202 373v-24zM202 373v-24h0zM202 373v-24zM202 374v-25h0zM202 374v-25zM202 374v-25h0zM202 374v-25zM203 374l-1-25h1zM203 374v-25zM203 374v-26zM203 374v-26zM203 374v-26h0zM203 374v-26zM203 374v-26h0zM203 374v-26zM204 375l-1-27h1zM204 375v-27zM204 375v-27h0zM204 375v-27zM204 375v-27h0zM204 375v-27zM205 375l-1-27 1-1zM205 375v-28zM205 375v-28h0zM205 375v-28zM205 375v-28h0zM205 375v-28zM206 375l-1-28h1zM206 375v-28zM206 375v-28h0zM206 375v-28zM206 376v-29h0zM206 376v-29zM207 376l-1-29h1zM207 376v-29zM207 376v-29h0zM207 376v-29zM207 376v-29h0zM207 376v-29zM207 376v-29h0zM207 376v-29zM208 376l-1-29h1zM208 376v-29zM208 376v-30zM208 376v-30zM208 376v-30h0zM208 376v-30zM208 376v-30h0zM208 376v-30zM208 376v-30h0zM208 339zv-1zM208 376v-30zM208 376v-30h0zM208 339v-2zM208 340v-4zM208 376v-30zM208 376v-30h0zM208 340v-4zM208 340v-5zM208 376v-30zM208 376v-30h0zM208 340v-5 6zM208 341v-6h0zM208 376v-30zM208 376v-30h0zM208 341v-6zM208 342v-8zM208 376v-30zM208 376v-30h0zM208 342v-8zM208 342v-8h0zM208 376v-30zM208 376v-30h0zM208 342v-8 10zM208 344v-11zM208 376v-30zM208 376v-30h0zM208 344v-11 12zM208 345v-12h0zM208 376v-43zM209 376l-1-43h1zM209 376v-43zM209 376v-43h0zM209 376v-43zM209 376v-43h0zM209 376v-43zM209 376v-43h0zM209 376v-43zM209 376v-43h0zM209 376v-43zM209 376v-43h0zM209 376v-43zM210 376l-1-43h1zM210 376v-43zM210 376v-43h0zM210 376v-43zM210 376v-43h0zM210 376v-43zM210 376v-43h0zM210 376v-43zM210 376v-43h0zM210 376v-43zM210 376v-43h0zM210 376v-43zM211 376l-1-43h1zM211 376v-43zM211 376v-43h0zM211 376v-43zM211 376v-43h0zM211 376v-43zM211 376v-43h0zM211 376v-17zM211 376v-17h0zM211 359v-26 21zM211 354v-21h0zM211 376v-17zM211 375v-16 4zM211 354v-21 18zM211 351v-18h0zM211 375v-12zM211 375v-12 1zM211 351v-18 17zM211 350v-17h0zM211 375v-11zM211 374v-10 4zM211 350v-17 13zM211 346v-13h0zM211 374v-6zM211 374v-6h0zM211 346v-13zM211 345v-12h0zM211 374v-6 4zM211 345v-12 9zM211 342v-9h0zM211 342v-9 8zM211 341v-8h0zM211 341v-8 3zM211 336v-3h0zM211 336v-3h0z"/></g><g fill="none" stroke="currentColor" clip-path="url(#clipId0)"><path d="m204 385 3-2h4v3l-5 2-4 3-1 2v7l1 2 2 5 4 2h3v4h-1l-5-2-3-2-2-3-1-4v-7l1-5 2-4z"/></g><g fill="currentColor" stroke="currentColor" clip-path="url(#clipId0)"><path d="M198 398zM198 398zM198 399v-2h0zM198 399v-2zM198 399v-2h0zM198 399v-2zM198 399v-3zM198 399v-3zM198 400v-4h0zM198 400v-4zM198 400v-5zM198 400v-5zM198 400v-5h0zM198 400v-5zM199 401l-1-6h1zM199 401v-6zM199 401v-6h0zM199 401v-6zM199 401v-7zM199 401v-7zM199 402v-8h0zM199 402v-8zM199 402v-9zM199 402v-9zM199 402v-9h0zM199 402v-9zM199 403v-10h0zM199 403v-10zM199 403v-11zM199 403v-11zM199 403v-11h0zM199 403v-11zM199 403v-11h0zM199 403v-11zM199 404v-12h0zM199 404v-12zM199 404v-13zM199 404v-13zM199 404v-13h0zM199 404v-13zM199 405v-14h0zM199 405v-14zM200 405l-1-14h1zM200 405v-14zM200 405v-15zM200 405v-15zM200 405v-15h0zM200 405v-15zM200 406v-16h0zM200 406v-16zM200 406v-16h0zM200 406v-16zM200 406v-17zM200 406v-17zM200 406v-17h0zM200 406v-17zM200 406v-17h0zM200 406v-17zM200 407v-18h0zM200 407v-18zM201 407l-1-18h1zM201 407v-18zM201 407v-19zM201 407v-19zM201 407v-19h0zM201 407v-19zM201 407v-19h0zM201 407v-19zM201 407v-19h0zM201 407v-10zM201 407v-10 1zM201 397v-9zM201 397v-9h0zM201 407v-9zM201 407v-9h0zM201 397v-9zM201 396v-8h0zM201 407v-9zM201 407v-9h0zM201 396v-8zM201 396v-8h0zM201 407v-9zM201 407v-9 1zM201 396v-8zM201 396v-8h0zM201 407v-8zM201 407v-8h0zM201 396v-8zM201 396v-8h0zM201 407v-8zM201 408v-9 1zM201 396v-8zM201 395v-7h0zM201 408v-8zM201 408v-8h0zM201 395v-7zM201 395v-7h0zM201 408v-8zM201 408v-8h0zM201 395v-7zM201 395v-7h0zM201 408v-8zM201 408v-8h0zM201 395v-7zM201 395v-7h0zM201 408v-8zM201 408v-8h0zM201 395v-7zM201 395v-7h0zM201 408v-8zM201 408v-8 1zM201 395v-7zM201 395v-7h0zM201 408v-7zM201 408v-7h0zM201 395v-7zM201 395v-7h0zM201 408v-7zM201 408v-7h0zM201 395v-7zM201 394v-7zM201 408v-7zM201 408v-7h0zM201 394v-7zM201 394v-7h0zM201 408v-7zM201 408v-7h0zM201 394v-7zM201 394v-7h0zM201 408v-7zM201 408v-7h0zM201 394v-7zM201 394v-7h0zM201 408v-7zM201 408v-7h0zM201 394v-7zM201 394v-7h0zM201 408v-7zM201 408v-7 1zM201 394v-7zM201 394v-7h0zM201 408v-6zM201 408v-6h0zM201 394v-7zM201 394v-7h0zM201 408v-6zM202 408l-1-6h1zM201 394v-7zM202 393l-1-6h1zM202 408v-6zM202 408v-6h0zM202 393v-6zM202 393v-6h0zM202 408v-6zM202 408v-6h0zM202 393v-6zM202 393v-6h0zM202 408v-6zM202 409v-7h0zM202 393v-6zM202 393v-6h0zM202 409v-7zM202 409v-7 1zM202 393v-6zM202 393v-6h0zM202 409v-6zM202 409v-6h0zM202 393v-6zM202 393v-6h0zM202 409v-6zM202 409v-6h0zM202 393v-6zM202 393v-6h0zM202 409v-6zM202 409v-6h0zM202 393v-6zM202 393v-6h0zM202 409v-6zM202 409v-6h0zM202 393v-6zM202 392v-5h0zM202 409v-6zM202 409v-6h0zM202 392v-5zM202 392v-5h0zM202 409v-6zM202 409v-6h0zM202 392v-5zM202 392v-5h0zM202 409v-6zM202 409v-6h0zM202 392v-5zM202 392v-6zM202 409v-6zM202 409v-6 1zM202 392v-6zM202 392v-6h0zM202 409v-5zM202 409v-5h0zM202 392v-6zM202 392v-6h0zM202 409v-5zM202 409v-5h0zM202 392v-6zM202 392v-6h0zM202 409v-5zM202 409v-5h0zM202 392v-6zM202 392v-6h0zM202 409v-5zM202 409v-5h0zM202 392v-6zM202 392v-6h0zM202 409v-5zM202 409v-5h0zM202 392v-6zM202 391v-5h0zM202 409v-5zM202 409v-5h0zM202 391v-5zM202 391v-5h0zM202 409v-5zM202 410v-6h0zM202 391v-5zM202 391v-5h0zM202 410v-6zM203 410l-1-6h1zM202 391v-5zM203 391l-1-5h1zM203 410v-6zM203 410v-6h0zM203 391v-5zM203 391v-5h0zM203 410v-6zM203 410v-6 1zM203 391v-5zM203 391v-5h0zM203 410v-5zM203 410v-5h0zM203 391v-5zM203 391v-5h0zM203 410v-5zM203 410v-5h0zM203 391v-5zM203 391v-5h0zM203 410v-5zM203 410v-5h0zM203 391v-5zM203 391v-5h0zM203 410v-5zM203 410v-5h0zM203 391v-5zM203 390v-5zM203 410v-5zM203 410v-5h0zM203 390v-5zM203 390v-5h0zM203 410v-5zM203 410v-5h0zM203 390v-5zM203 390v-5h0zM203 410v-5zM203 410v-5h0zM203 390v-5zM203 390v-5h0zM203 410v-5zM203 410v-5h0zM203 390v-5zM203 390v-5h0zM203 410v-5zM203 410v-5h0zM203 390v-5zM203 390v-5h0zM203 410v-5zM203 410v-5 1zM203 390v-5zM203 390v-5h0zM203 410v-4zM203 410v-4h0zM203 390v-5zM203 390v-5h0zM203 410v-4zM203 410v-4h0zM203 390v-5zM203 390v-5h0zM203 410v-4zM203 410v-4h0zM203 390v-5zM203 390v-5h0zM203 410v-4zM204 410l-1-4h1zM203 390v-5zM204 389l-1-4h1zM204 410v-4zM204 411v-5h0zM204 389v-4zM204 389v-4h0zM204 411v-5zM204 411v-5h0zM204 389v-4zM204 389v-4h0zM204 411v-5zM204 411v-5h0zM204 389v-4zM204 389v-4h0zM204 411v-5zM204 411v-5h0zM204 389v-4zM204 389v-4h0zM204 411v-5zM204 411v-5h0zM204 389v-4zM204 389v-4h0zM204 411v-5zM204 411v-5h0zM204 389v-4zM204 389v-4h0zM204 411v-5zM204 411v-5h0zM204 389v-4zM204 389v-4h0zM204 411v-5zM204 411v-5h0zM204 389v-4zM204 389v-4h0zM204 411v-5zM204 411v-5h0zM204 389v-4zM204 389v-4h0zM204 411v-5zM204 411v-5h0zM204 389v-4zM204 389v-4h0zM204 411v-5zM204 411v-5h0zM204 389v-4zM204 389v-4h0zM204 411v-5zM204 411v-5h0zM204 389v-4zM204 389v-4h0zM204 411v-5zM204 411v-5h0zM204 389v-4zM204 389v-4h0zM204 411v-5zM204 411v-5h0zM204 389v-4zM204 389v-4h0zM204 411v-5zM204 411v-5h0zM204 389v-4zM204 389v-4h0zM204 411v-5zM204 411v-5h0zM204 389v-4zM204 389v-4h0zM204 411v-5zM204 411v-5h0zM204 389v-4zM204 389v-4h0zM204 411v-5zM204 411v-5h0zM204 389v-4zM204 389v-4h0zM204 411v-5zM204 411v-5h0zM204 389v-4zM204 389v-4h0zM204 411v-5zM204 411v-5h0zM204 389v-4zM204 389v-4h0zM204 411v-5zM204 411v-5h0zM204 389v-4zM204 389v-4h0zM204 411v-5zM204 411v-5h0zM204 389v-4zM204 389v-4h0zM204 411v-5zM204 411v-5 1zM204 389v-4zM204 389v-4h0zM204 411v-4zM204 411v-4h0zM204 389v-4zM204 389v-4h0zM204 411v-4zM204 411v-4h0zM204 389v-4zM204 389v-4h0zM204 411v-4zM204 411v-4h0zM204 389v-4zM204 389v-4h0zM204 411v-4zM204 411v-4h0zM204 389v-4zM204 389v-5zM204 411v-4zM204 411v-4h0zM204 389v-5zM204 389v-5h0zM204 411v-4zM204 411v-4h0zM204 389v-5zM204 389v-5h0zM204 411v-4zM204 411v-4h0zM204 389v-5zM204 389v-5h0zM204 411v-4zM204 411v-4h0zM204 389v-5zM204 389v-5h0zM204 411v-4zM204 411v-4h0zM204 389v-5zM204 389v-5h0zM204 411v-4zM204 411v-4h0zM204 389v-5zM204 389v-5h0zM204 411v-4zM204 411v-4h0zM204 389v-5zM204 389v-5h0zM204 411v-4zM205 411l-1-4h1zM204 389v-5zM205 389l-1-5h1zM205 411v-4zM205 411v-4h0zM205 389v-5zM205 389v-5h0zM205 411v-4zM205 411v-4h0zM205 389v-5zM205 388v-4h0zM205 411v-4zM205 411v-4h0zM205 388v-4zM205 388v-4h0zM205 411v-4zM205 411v-4h0zM205 388v-4zM205 388v-4h0zM205 411v-4zM205 411v-4h0zM205 388v-4zM205 388v-4h0zM205 411v-4zM205 411v-4h0zM205 388v-4zM205 388v-4h0zM205 411v-4zM205 411v-4h0zM205 388v-4zM205 388v-4h0zM205 411v-4zM205 411v-4h0zM205 388v-4zM205 388v-4h0zM205 411v-4zM205 412v-5h0zM205 388v-4zM205 388v-4h0zM205 412v-5zM205 412v-5h0zM205 388v-4zM205 388v-4h0zM205 412v-5zM205 412v-5h0zM205 388v-4zM205 388v-4h0zM205 412v-5zM205 412v-5h0zM205 388v-4zM205 388v-4h0zM205 412v-5zM206 412l-1-5 1 1zM205 388v-4zM206 388l-1-4h1zM206 412v-4zM206 412v-4h0zM206 388v-4zM206 388v-4h0zM206 412v-4zM206 412v-4h0zM206 388v-4zM206 388v-4h0zM206 412v-4zM206 412v-4h0zM206 388v-4zM206 388v-4h0zM206 412v-4zM206 412v-4h0zM206 388v-4zM206 388v-4h0zM206 412v-4zM206 412v-4h0zM206 388v-4zM206 388v-4h0zM206 412v-4zM206 412v-4h0zM206 388v-4zM206 388v-4h0zM206 412v-4zM206 412v-4h0zM206 388v-4zM206 387v-3h0zM206 412v-4zM206 412v-4h0zM206 387v-3zM206 387v-4zM206 412v-4zM206 412v-4h0zM206 387v-4zM206 387v-4h0zM206 412v-4zM206 412v-4h0zM206 387v-4zM206 387v-4h0zM206 412v-4zM206 412v-4h0zM206 387v-4zM206 387v-4h0zM206 412v-4zM207 412l-1-4h1zM206 387v-4zM207 387l-1-4h1zM207 412v-4zM207 412v-4h0zM207 387v-4zM207 387v-4h0zM207 412v-4zM207 412v-4h0zM207 387v-4zM207 387v-4h0zM207 412v-4zM207 412v-4h0zM207 387v-4zM207 387v-4h0zM207 412v-4zM207 412v-4h0zM207 387v-4zM207 387v-4h0zM207 412v-4zM207 412v-4h0zM207 387v-4zM207 387v-4h0zM207 412v-4zM207 412v-4h0zM207 387v-4zM207 387v-4h0zM207 412v-4zM207 412v-4 1zM207 387v-4zM207 387v-4h0zM207 412v-3zM208 412l-1-3h1zM207 387v-4zM208 387l-1-4h1zM208 412v-3zM208 412v-3h0zM208 387v-4zM208 387v-4h0zM208 412v-3zM208 412v-3h0zM208 387v-4zM208 387v-4h0zM208 412v-3zM208 412v-3h0zM208 387v-4zM208 387v-4h0zM208 412v-3zM208 412v-3h0zM208 387v-4zM208 387v-4h0zM208 412v-3zM208 412v-3h0zM208 387v-4zM208 387v-4h0zM208 412v-3zM208 412v-3h0zM208 387v-4zM208 387v-4h0zM208 412v-3zM208 413v-4h0zM208 387v-4zM208 387v-4h0zM208 413v-4zM209 413l-1-4h1zM208 387v-4zM209 387l-1-4h1zM209 413v-4zM209 413v-4h0zM209 387v-4zM209 387v-4h0zM209 413v-4zM209 413v-4h0zM209 387v-4zM209 387v-4h0zM209 413v-4zM209 413v-4h0zM209 387v-4zM209 387v-4h0zM209 413v-4zM209 413v-4h0zM209 387v-4zM209 387v-4h0zM209 413v-4zM209 413v-4h0zM209 387v-4zM209 387v-4h0zM209 413v-4zM209 413v-4h0zM209 387v-4zM209 387v-4h0zM209 413v-4zM209 413v-4h0zM209 387v-4zM209 387v-4h0zM209 413v-4zM209 413v-4h0zM209 387v-4zM209 387v-4h0zM209 413v-4zM210 413l-1-4h1zM209 387v-4zM210 387l-1-4h1zM210 413v-4zM210 413v-4h0zM210 387v-4zM210 387v-4h0zM210 413v-4zM210 413v-4h0zM210 387v-4zM210 387v-4h0zM210 413v-4zM210 413v-4h0zM210 387v-4zM210 387v-4h0zM210 413v-4zM210 413v-4h0zM210 387v-4zM210 387v-4h0zM210 413v-4zM210 413v-4h0zM210 387v-4zM210 387v-4h0zM210 413v-4zM210 413v-4h0zM210 387v-4zM210 387v-4h0zM210 413v-4zM210 413v-4h0zM210 387v-4zM210 387v-4h0zM210 413v-4zM211 413l-1-4h1zM210 387v-4zM211 387l-1-4h1zM211 413v-4zM211 413v-4h0zM211 387v-4zM211 387v-4h0zM211 413v-4zM211 413v-4h0zM211 387v-4zM211 387v-4h0zM211 413v-4zM211 413v-4h0zM211 387v-4zM211 387v-4h0zM211 413v-4zM211 413v-4h0zM211 387v-4zM211 387v-4h0zM211 413v-4zM211 413v-4h0zM211 387v-3zM211 387v-3h0zM211 384v-1zM211 384v-1h0zM211 413v-4zM211 413v-4h0zM211 387v-3zM211 387v-3 1zM211 384v-1zM211 384v-1h0zM211 413v-4zM211 413v-4h0zM211 387v-2zM211 387v-2h0zM211 384v-1zM211 384v-1h0zM211 413v-4zM211 413v-4h0zM211 387v-2zM211 387v-2h0zM211 384v-1zM211 383zM211 413v-4zM211 413v-4h0zM211 387v-2zM211 387v-2h0zM211 383zM211 383zM211 413v-4zM211 413v-4h0zM211 387v-2zM211 387v-2h0zM211 383zM211 383zM211 413v-4zM211 413v-4h0zM211 387v-2zM211 387v-2 1zM211 383zM211 383zM211 413v-4zM211 413v-4h0zM211 387v-1zM211 387v-1zM211 383z"/></g><g fill="none" stroke="currentColor" clip-path="url(#clipId0)"><path d="m222 384 3-1 2 1 2 2v3l1 8v15h-3 0v-23l-1-3h-2l-2 1-3 2-1 2v21h0-2v-29h2v4h1l1-2z"/></g><g fill="currentColor" stroke="currentColor" clip-path="url(#clipId0)"><path d="M216 412v-29zM216 412v-29h0zM216 412v-29zM216 412v-29h0zM216 412v-29zM217 412l-1-29h1zM217 412v-29zM217 412v-29h0zM217 412v-29zM217 412v-29h0zM217 412v-29zM217 412v-29h0zM217 412v-29zM218 412l-1-29h1zM218 412v-29zM218 412v-29h0zM218 412v-29zM218 412v-29h0zM218 412v-29zM218 412v-29h0zM218 412v-22zM218 412v-22h0zM218 390v-7zM218 390v-7h0zM218 412v-22zM218 412v-22h0zM218 390v-5zM218 390v-5h0zM218 385v-2zM218 384zM218 412v-22zM218 412v-22h0zM218 390v-5zM218 390v-5h0zM218 384zM218 384zM218 412v-22zM218 412v-22h0zM218 390v-5zM218 390v-5 1zM218 384zM218 384zM218 412v-22zM218 412v-22h0zM218 390v-4zM218 390v-4h0zM218 384zM218 384zM218 412v-22zM218 412v-22h0zM218 390v-4zM218 390v-4h0zM218 384zM218 383zM218 412v-22zM218 412v-22h0zM218 390v-4zM218 390v-4h0zM218 383zM218 383zM218 390v-4zM218 390v-4h0zM218 390v-4zM218 390v-4 1zM218 390v-3zM218 390v-3h0zM218 390v-3zM218 390v-3h0zM218 390v-3zM218 390v-3h0zM218 390v-3zM219 390l-1-3h1zM219 390v-3zM219 390v-3h0zM219 390v-3zM219 390v-3h0zM219 390v-3zM219 390v-3h0zM219 390v-3zM219 390v-3h0zM219 390v-3zM219 390v-3h0zM219 390v-3zM219 390v-3h0zM219 390v-3zM219 390v-3h0zM219 390v-3zM219 390v-3h0zM219 390v-3zM219 389v-3zM219 389v-3zM219 389v-3h0zM219 389v-3zM219 389v-3h0zM219 389v-3zM219 389v-3h0zM219 389v-3zM219 389v-3h0zM219 389v-3zM220 389l-1-3h1zM220 389v-3zM220 389v-3h0zM220 389v-3zM220 389v-4zM220 389v-4zM220 388v-3h0zM220 388v-3zM220 388v-3h0zM220 388v-3zM220 388v-3h0zM220 388v-3zM220 388v-3h0zM220 388v-3zM220 388v-3h0zM220 388v-3zM220 388v-3h0zM220 388v-3zM221 388l-1-3 1-1zM221 388v-4zM221 388v-4h0zM221 388v-4zM221 388v-4h0zM221 388v-4zM221 388v-4h0zM221 388v-4zM221 387v-3h0zM221 387v-3zM221 387v-3h0zM221 387v-3zM221 387v-3h0zM221 387v-3zM221 387v-3h0zM221 387v-3zM222 387l-1-3h1zM222 387v-3zM222 387v-3h0zM222 387v-3zM222 387v-3h0zM222 387v-3zM222 387v-3h0zM222 387v-3zM222 387v-3h0zM222 387v-3zM222 387v-3h0zM222 387v-3zM222 387v-3h0zM222 387v-3zM222 387v-3h0zM222 387v-3zM222 387v-3h0zM222 387v-3zM222 387v-3h0zM222 387v-3zM222 387v-3h0zM222 387v-3zM222 387v-3h0zM222 387v-3zM222 387v-3h0zM222 387v-3zM222 387v-3h0zM222 387v-3zM222 387v-3h0zM222 387v-3zM222 387v-3h0zM222 387v-3zM222 387v-3h0zM222 387v-3zM222 387v-3h0zM222 387v-3zM222 387v-3h0zM222 387v-3zM222 387v-3h0zM222 387v-3zM222 387v-3h0zM222 387v-3zM222 387v-3h0zM222 387v-3zM222 387v-4zM222 387v-4zM222 387v-4h0zM222 387v-4zM222 387v-4h0zM222 387v-4zM222 387v-4h0zM222 387v-4zM222 387v-4h0zM222 387v-4zM222 387v-4h0zM222 387v-4zM222 387v-4h0zM222 387v-4zM222 387v-4h0zM222 387v-4zM223 387l-1-4h1zM223 387v-4zM223 387v-4h0zM223 387v-4zM223 387v-4h0zM223 387v-4zM223 386v-3h0zM223 386v-3zM223 386v-3h0zM223 386v-3zM223 386v-3h0zM223 386v-3zM224 386l-1-3h1zM224 386v-3zM224 386v-3h0zM224 386v-3zM224 386v-3h0zM224 386v-3zM224 386v-3h0zM224 386v-3zM224 386v-3h0zM224 386v-3zM225 386l-1-3h1zM225 386v-3zM225 386v-3h0zM225 386v-3zM225 386v-3h0zM225 386v-3zM225 386v-3h0zM225 386v-3zM225 386v-3h0zM225 386v-3zM225 386v-3h0zM225 386v-3zM225 386v-3h0zM225 386v-3zM226 386l-1-3h1zM226 386v-3zM226 386v-3h0zM226 386v-3zM226 387v-4h0zM226 387v-4zM226 387v-4h0zM226 387v-4zM226 387v-4h0zM226 387v-4zM226 387v-4h0zM226 387v-4zM226 387v-4h0zM226 387v-4zM226 387v-4h0zM226 387v-4zM226 387v-4h0zM226 387v-4zM226 387v-4h0zM226 387v-4zM226 387v-4h0zM226 387v-4zM226 387v-4h0zM226 387v-4zM226 387v-4h0zM226 387v-4zM226 387v-4h0zM226 387v-4zM227 388l-1-5h1zM227 388v-5zM227 388v-5h0zM227 388v-5zM227 388v-5h0zM227 388v-5zM227 388v-5h0zM227 388v-5zM227 388v-5h0zM227 388v-5zM227 388v-5h0zM227 388v-5zM227 389v-6h0zM227 389v-6zM227 389v-6h0zM227 389v-6zM227 389v-6h0zM227 389v-6zM227 389v-6h0zM227 389v-6zM227 390v-7h0zM227 390v-7zM227 390v-7h0zM227 390v-7zM227 390v-7h0zM227 400zv-2zM227 390v-7zM227 390v-7h0zM227 400v-3 4zM227 401v-5zM227 390v-7zM227 390v-7h0zM227 401v-5 6zM227 402v-8zM227 390v-7zM227 390v-7h0zM227 402v-8 10zM227 404v-11zM227 390v-7zM227 390v-7h0zM227 404v-11zM227 405v-13zM227 390v-7zM227 390v-7h0zM227 405v-22zM227 406v-23h0zM227 406v-23zM227 406v-23h0zM227 406v-23 25zM227 408v-25h0zM227 408v-25 28zM227 411v-28h0zM227 411v-28 30zM227 413v-30h0zM227 413v-30zM227 412v-29 1zM227 412v-28zM227 412v-28h0zM227 412v-28zM227 412v-28h0zM227 412v-28zM228 412l-1-28h1zM228 412v-28zM228 412v-28h0zM228 412v-28zM228 412v-28h0zM228 412v-28zM228 412v-28h0zM228 412v-28zM228 412v-28h0zM228 412v-28zM228 412v-28h0zM228 412v-28zM228 412v-28h0zM228 412v-28zM228 412v-28 1zM228 412v-27zM228 412v-27h0zM228 412v-27zM228 412v-27h0zM228 412v-27zM228 412v-27h0zM228 412v-27zM229 412l-1-27h1zM229 412v-27zM229 412v-27h0zM229 412v-27zM229 412v-27 1zM229 412v-26zM229 412v-26h0zM229 412v-26zM229 412v-26h0zM229 412v-26zM229 412v-26 1zM229 412v-25zM229 412v-25h0zM229 412v-25zM229 412v-25h0zM229 412v-25zM229 412v-25 1zM229 412v-24zM229 412v-24h0zM229 412v-24zM229 412v-24 1zM229 412v-23zM230 412l-1-23h1zM230 412v-23zM230 412v-23 1zM230 412v-22zM230 412v-22h0zM230 412v-22 21zM230 411v-21 1zM230 411v-20zM230 411v-20h0zM230 411v-20 17zM230 408v-17h0zM230 408v-17 15zM230 406v-15h0zM230 406v-13zM230 406v-13h0zM230 393v-2zM230 393v-2h0zM230 406v-13 11zM230 404v-11 2zM230 393v-2zM230 392v-1h0zM230 404v-9zM230 404v-9h0zM230 392v-1zM230 392v-1h0zM230 404v-9 7zM230 402v-7 2zM230 392v-1zM230 392v-1h0zM230 402v-5zM230 402v-5h0zM230 392v-1zM230 392v-1h0zM230 402v-5 2zM230 392v-1zM230 392v-1h0zM230 392v-1h0z"/></g><g fill="none" stroke="currentColor" clip-path="url(#clipId0)"><path d="m188 407-2-2-1-3-1-5v-1h12v-6l-1-2-2-3-2-3h-4l-2 2-1 2-2 5-1 5 1 5 1 5 2 3 2 2 3 1 4 1v-4h-2z"/><path d="m185 388 2-2h2l3 3 1 3 1 1h-10v-2z"/></g><g fill="currentColor" stroke="currentColor" clip-path="url(#clipId0)"><path d="M181 398v-2zM181 398v-2zM181 398v-2h0zM181 398v-2zM181 398v-3zM181 398v-3zM181 398v-3h0zM181 398v-3zM181 399v-4h0zM181 399v-4zM181 399v-4h0zM181 399v-4zM181 399v-5zM181 399v-5zM181 399v-5h0zM181 399v-5zM182 400l-1-6h1zM182 400v-6zM182 400v-7zM182 400v-7zM182 400v-7h0zM182 400v-7zM182 400v-7h0zM182 400v-7zM182 400v-7h0zM182 400v-7zM182 401v-9zM182 401v-9zM182 401v-9h0zM182 401v-9zM182 401v-9h0zM182 401v-9zM182 402v-11zM182 402v-11zM182 402v-11h0zM182 402v-11zM182 402v-11h0zM182 402v-11zM182 402v-11h0zM182 402v-11zM182 402v-11h0zM182 402v-11zM182 403v-13zM182 403v-13zM182 403v-13h0zM182 403v-13zM182 403v-13h0zM182 403v-13zM182 404v-14h0zM182 404v-14zM182 404v-15zM182 404v-15zM182 404v-15h0zM182 404v-15zM183 405l-1-16h1zM183 405v-16zM183 405v-17zM183 405v-17zM183 405v-17h0zM183 405v-17zM183 405v-17h0zM183 405v-17zM183 406v-19zM183 406v-19zM183 406v-19h0zM183 406v-19zM183 406v-19h0zM183 406v-19zM183 406v-20zM183 406v-20zM184 407l-1-21h1zM184 407v-21zM184 407v-21h0zM184 407v-21zM184 407v-21h0zM184 407v-21zM184 407v-21h0zM184 407v-10zM184 407v-10h0zM184 397v-11zM184 396v-10h0zM184 407v-10zM184 407v-10h0zM184 396v-10zM184 396v-10h0zM184 407v-10zM184 407v-10 1zM184 396v-10zM184 396v-10h0zM184 407v-9zM184 407v-9h0zM184 396v-10zM184 396v-10h0zM184 407v-9zM184 408v-10 1zM184 396v-10zM184 396v-11zM184 408v-9zM184 408v-9h0zM184 396v-11zM184 396v-11h0zM184 408v-9zM184 408v-9 1zM184 396v-11zM184 396v-11h0zM184 408v-8zM184 408v-8h0zM184 396v-11zM184 396v-11h0zM184 408v-8zM184 408v-8h0zM184 396v-11zM184 396v-11h0zM184 408v-8zM184 408v-8h0zM184 396v-11zM184 396v-11h0zM184 408v-8zM184 408v-8 1zM184 396v-11zM184 396v-11h0zM184 408v-7zM184 408v-7h0zM184 396v-11zM184 396v-11h0zM184 408v-7zM185 408l-1-7 1 1zM184 396v-11zM185 396l-1-11h1zM185 408v-6zM185 408v-6h0zM185 396v-11zM185 396v-11h0zM185 408v-6zM185 408v-6h0zM185 396v-11zM185 396v-11h0zM185 408v-6zM185 409v-7 1zM185 396v-11zM185 396v-12zM185 409v-6zM185 409v-6h0zM185 396v-12zM185 396v-12h0zM185 409v-6zM185 409v-6h0zM185 396v-12zM185 396v-12h0zM185 409v-6zM185 409v-6h0zM185 396v-12zM185 396v-12h0zM185 409v-6zM185 409v-6h0zM185 396v-12zM185 396v-12h0zM185 409v-6zM185 409v-6h0zM185 396v-12zM185 396v-12h0zM185 409v-6zM185 409v-6 1zM185 396v-12zM185 396v-12h0zM185 409v-5zM185 409v-5h0zM185 396v-12zM185 396v-12h0zM185 409v-5zM185 409v-5h0zM185 396v-12zM185 396v-12h0zM185 409v-5zM185 409v-5h0zM185 396v-12zM185 396v-12h0zM185 409v-5zM186 409l-1-5h1zM185 396v-12zM186 396l-1-12h1zM186 409v-5zM186 410v-6 1zM186 396v-12zM186 396v-13zM186 410v-5zM186 410v-5h0zM186 396v-13zM186 396v-13h0zM186 410v-5zM186 410v-5h0zM186 396v-13zM186 396v-13h0zM186 410v-5zM186 410v-5h0zM186 396v-13zM186 396v-13h0zM186 410v-5zM186 410v-5h0zM186 396v-13zM186 396v-13h0zM186 410v-5zM186 410v-5h0zM186 396v-13zM186 396v-13h0zM186 410v-5zM186 410v-5h0zM186 396v-13zM186 396v-13h0zM186 410v-5zM186 410v-5 1zM186 396v-13zM186 396v-13h0zM186 410v-4zM186 410v-4h0zM186 396v-13zM186 396v-13h0zM186 410v-4zM187 410l-1-4h1zM186 396v-13zM187 396l-1-13h1zM187 410v-4zM187 411v-5h0zM187 396v-13zM187 396v-13h0zM187 411v-5zM187 411v-5h0zM187 396v-13zM187 396v-13h0zM187 411v-5zM187 411v-5h0zM187 396v-13zM187 396v-13h0zM187 411v-5zM187 411v-5h0zM187 396v-13zM187 396v-14zM187 411v-5zM187 411v-5 1zM187 396v-14zM187 396v-14h0zM187 411v-4zM187 411v-4h0zM187 396v-14zM187 396v-14h0zM187 411v-4zM187 411v-4h0zM187 396v-14zM187 396v-14h0zM187 411v-4zM187 411v-4h0zM187 396v-14zM187 396v-14h0zM187 411v-4zM188 411l-1-4h1zM187 396v-14zM188 396l-1-14h1zM188 411v-4zM188 411v-4h0zM188 396v-14zM188 396v-14h0zM188 411v-4zM188 411v-4h0zM188 396v-14zM188 396v-14h0zM188 411v-4zM188 411v-4h0zM188 396v-14zM188 396v-14h0zM188 411v-4zM188 411v-4h0zM188 396v-14zM188 396v-14h0zM188 411v-4zM188 412v-5 1zM188 396v-14zM188 396v-14h0zM188 412v-4zM188 412v-4h0zM188 396v-14zM188 396v-14h0zM188 412v-4zM188 412v-4h0zM188 396v-14zM188 396v-14h0zM188 412v-4zM189 412l-1-4h1zM188 396v-14zM189 396l-1-14h1zM189 412v-4zM189 412v-4h0zM189 396v-14zM189 396v-14h0zM189 412v-4zM189 412v-4h0zM189 396v-14zM189 396v-14h0zM189 412v-4zM189 412v-4h0zM189 396v-14zM189 396v-14h0zM189 412v-4zM189 412v-4h0zM189 396v-14zM189 396v-14h0zM189 412v-4zM189 412v-4h0zM189 396v-14zM189 396v-14h0zM189 412v-4zM189 412v-4h0zM189 396v-14zM189 396v-14h0zM189 412v-4zM189 412v-4h0zM189 396v-14zM189 396v-14h0zM189 412v-4zM190 412l-1-4h1zM189 396v-14zM190 396l-1-14h1zM190 412v-4zM190 412v-4h0zM190 396v-14zM190 396v-14h0zM190 412v-4zM190 412v-4h0zM190 396v-14zM190 396v-14h0zM190 412v-4zM190 412v-4h0zM190 396v-14zM190 396v-14h0zM190 412v-4zM190 412v-4h0zM190 396v-14zM190 396v-14h0zM190 412v-4zM190 412v-4h0zM190 396v-14zM190 396v-14h0zM190 412v-4zM190 412v-4 1zM190 396v-14zM190 396v-14h0zM190 412v-3zM190 412v-3h0zM190 396v-14zM190 396v-14h0zM190 412v-3zM190 412v-3h0zM190 396v-14zM190 396v-14h0zM190 412v-3zM191 412l-1-3h1zM190 396v-14zM191 396l-1-14 1 1zM191 412v-3zM191 412v-3h0zM191 396v-13zM191 396v-13h0zM191 412v-3zM191 412v-3h0zM191 396v-13zM191 396v-13h0zM191 412v-3zM191 412v-3h0zM191 396v-13zM191 396v-13h0zM191 412v-3zM191 412v-3h0zM191 396v-13zM191 396v-13h0zM191 412v-3zM191 413v-4h0zM191 396v-13zM191 396v-13h0zM191 413v-4zM191 413v-4h0zM191 396v-13zM191 396v-13h0zM191 413v-4zM191 413v-4h0zM191 396v-13zM191 396v-13h0zM191 413v-4zM192 413l-1-4h1zM191 396v-13zM192 396l-1-13h1zM192 413v-4zM192 413v-4h0zM192 396v-13zM192 396v-13h0zM192 413v-4zM192 413v-4h0zM192 396v-13zM192 396v-13h0zM192 413v-4zM192 413v-4h0zM192 396v-13zM192 396v-13h0zM192 413v-4zM192 413v-4h0zM192 396v-13zM192 396v-13 1zM192 413v-4zM192 413v-4h0zM192 396v-12zM192 396v-12h0zM192 413v-4zM192 413v-4h0zM192 396v-12zM192 396v-12h0zM192 413v-4zM192 413v-4h0zM192 396v-12zM192 396v-12h0zM192 413v-4zM193 413l-1-4h1zM192 396v-12zM193 396l-1-12h1zM193 413v-4zM193 413v-4h0zM193 396v-12zM193 396v-12h0zM193 413v-4zM193 413v-4h0zM193 396v-12zM193 396v-12h0zM193 413v-4zM193 413v-4h0zM193 396v-12zM193 396v-12h0zM193 413v-4zM193 413v-4h0zM193 396v-12zM193 396v-12h0zM193 413v-4zM193 413v-4h0zM193 396v-12zM193 396v-12 1zM193 413v-4zM193 413v-4h0zM193 396v-11zM193 396v-11h0zM193 413v-4zM193 413v-4h0zM193 396v-11zM193 396v-11h0zM193 413v-4zM193 413v-4h0zM193 396v-11zM193 396v-11h0zM193 413v-4zM194 413l-1-4h1zM193 396v-11zM194 396l-1-11 1 1zM194 413v-4zM194 413v-4h0zM194 396v-10zM194 396v-10h0zM194 413v-4zM194 413v-4h0zM194 396v-10zM194 396v-10h0zM194 413v-4zM194 413v-4h0zM194 396v-10zM194 396v-10h0zM194 413v-4zM194 413v-4h0zM194 396v-10zM194 396v-10h0zM194 413v-4zM194 413v-4h0zM194 396v-10zM194 396v-10h0zM194 413v-4zM194 413v-4 1zM194 396v-10zM194 396v-10h0zM194 413v-3zM194 412v-2h0zM194 396v-10zM194 396v-10h0zM194 412v-2zM194 412v-2h0zM194 396v-10zM194 396v-10h0zM194 412v-2zM194 412v-2h0zM194 396v-10zM194 396v-10h0zM194 412v-2zM194 412v-2 1zM194 396v-10zM194 396v-10h0zM194 412v-1zM194 412v-1h0zM194 396v-10zM194 396v-10h0zM194 412v-1zM194 412v-1zM194 396v-10zM194 396v-10h0zM194 412zM194 396v-10zM194 396v-10h0zM194 396v-10zM194 396v-10 1zM194 396v-9zM195 396l-1-9h1zM195 396v-9zM195 396v-9 1zM195 396v-8zM195 396v-8 1zM195 396v-7zM195 396v-7h0zM195 396v-7zM195 396v-7h0zM195 396v-7zM195 396v-7h0zM195 396v-7zM196 396l-1-7 1 1zM196 396v-6zM196 396v-6 1zM196 396v-5zM196 396v-5 1zM196 396v-4zM196 396v-4 1zM196 396v-3zM196 396v-3h0zM196 396v-3zM196 396v-3 1zM196 396v-2zM196 396v-2 1zM196 396v-1zM196 396v-1zM196 396z"/></g><g fill="none" stroke="currentColor" clip-path="url(#clipId0)"><path d="m250 394-2-6-3-4-2-2h-3l-2 2-1 2-2 3-1 6v9l2 4 3 4 2 1h3l3-3 3-8z"/><path d="m247 404-2 3-2 2h-2l-2-1-2-3-1-6 1-6 1-3v-2l2-2h2l2 1 2 3 1 5v9"/></g><g fill="currentColor" stroke="currentColor" clip-path="url(#clipId0)"><path d="M234 399zv-1zM234 399v-2zM234 399v-2h0zM234 399v-2zM234 400v-4zM234 400v-4zM234 400v-4h0zM234 400v-4zM234 400v-4h0zM234 400v-4 5zM234 401v-6zM234 401v-6zM234 401v-7zM234 401v-7 8zM234 402v-8h0zM234 402v-8zM234 402v-9zM234 402v-9zM234 403v-10h0zM234 403v-10zM234 404v-12zM234 404v-12zM234 404v-12h0zM234 404v-12zM235 405l-1-13 1-1zM235 405v-14zM235 405v-14h0zM235 405v-14zM235 406v-16zM235 406v-16zM235 406v-16h0zM235 406v-16zM235 406v-17zM235 406v-17zM235 406v-17h0zM235 406v-17zM235 407v-18h0zM235 407v-18zM235 407v-19zM235 407v-19zM235 407v-19h0zM235 407v-19zM236 408l-1-20h1zM236 408v-20zM236 408v-20h0zM236 408v-20zM236 408v-20h0zM236 408v-20zM236 408v-21zM236 408v-21zM236 408v-21h0zM236 408v-21zM236 409v-22h0zM236 409v-22zM236 409v-22h0zM236 409v-22zM236 409v-23zM236 409v-23zM236 409v-23h0zM236 409v-23zM237 410l-1-24h1zM237 410v-24zM237 410v-24h0zM237 410v-24zM237 410v-25zM237 410v-25zM237 410v-25h0zM237 410v-25zM237 411v-26h0zM237 411v-26zM237 411v-26h0zM237 411v-26zM237 411v-26h0zM237 411v-26zM238 411l-1-26 1-1zM238 411v-27zM238 411v-27h0zM238 411v-27zM238 411v-27h0zM238 411v-27zM238 412v-28h0zM238 412v-28zM238 412v-28h0zM238 412v-28zM238 412v-28h0zM238 412v-28zM239 412l-1-28 1-1zM239 412v-29zM239 412v-29h0zM239 412v-29zM239 412v-29h0zM239 412v-29zM239 412v-29h0zM239 412v-29zM239 413v-30h0zM239 413v-30zM239 413v-30h0zM239 413v-30zM240 413l-1-30h1zM240 413v-30zM240 413v-30h0zM240 413v-30zM240 413v-30h0zM240 413v-30zM240 413v-31zM240 413v-31zM240 413v-31h0zM240 413v-31zM241 413l-1-31h1zM241 413v-31zM241 413v-31h0zM241 413v-31zM241 413v-31h0zM241 413v-31zM241 413v-31h0zM241 413v-31zM241 413v-31h0zM241 413v-31zM241 413v-31h0zM241 413v-31zM242 413l-1-31h1zM242 413v-31zM242 413v-31h0zM242 413v-31zM242 413v-31h0zM242 413v-31zM242 413v-31h0zM242 413v-31zM242 413v-31h0zM242 413v-31zM242 413v-31h0zM242 413v-31zM243 413l-1-31h1zM243 413v-31zM243 413v-31h0zM243 413v-31zM243 413v-31h0zM243 413v-31zM243 413v-31h0zM243 413v-31zM243 413v-31h0zM243 413v-31zM244 413l-1-31 1 1zM244 413v-30zM244 413v-30h0zM244 413v-30zM244 413v-30h0zM244 413v-30zM244 413v-30h0zM244 413v-30zM244 413v-30h0zM244 413v-30zM244 413v-30h0zM244 413v-30zM245 412l-1-29h1zM245 412v-29zM245 412v-29h0zM245 412v-29zM245 412v-29h0zM245 412v-29zM245 412v-29h0zM245 412v-29zM245 412v-29 1zM245 412v-28zM245 412v-28h0zM245 412v-28zM245 412v-28h0zM245 412v-28zM246 411l-1-27h1zM246 411v-27zM246 411v-27h0zM246 411v-27zM246 411v-27h0zM246 411v-27zM246 411v-27h0zM246 411v-27zM246 411v-27 1zM246 411v-26zM246 411v-26h0zM246 411v-26zM247 410l-1-25h1zM247 410v-25zM247 410v-25h0zM247 410v-25zM247 410v-25h0zM247 410v-25zM247 410v-25 1zM247 410v-24zM247 410v-24h0zM247 410v-24zM247 409v-23h0zM247 409v-23zM247 409v-23h0zM247 409v-23zM247 409v-23h0zM247 409v-23zM248 409l-1-23 1 1zM248 409v-22zM248 409v-22h0zM248 409v-22zM248 409v-22h0zM248 409v-22zM248 408v-21h0zM248 408v-21zM248 408v-21 1zM248 408v-20zM248 408v-20h0zM248 408v-20zM248 407v-19h0zM248 407v-19zM248 407v-19h0zM248 407v-19zM249 406l-1-18 1 1zM249 406v-17zM249 406v-17h0zM249 406v-17zM249 406v-17 1zM249 406v-16zM249 405v-15h0zM249 405v-15zM249 405v-15h0zM249 405v-15zM249 405v-15 1zM249 405v-14zM249 405v-14h0zM249 405v-14 13zM249 404v-13 1zM249 404v-12zM249 404v-12h0zM249 404v-12zM249 403v-11h0zM249 403v-11zM250 403l-1-11h1zM250 403v-11zM250 403v-11 1zM250 403v-10zM250 402v-9h0zM250 402v-9zM250 402v-9h0zM250 402v-9zM250 402v-9 1zM250 402v-8zM250 401v-7h0zM250 401v-7zM250 401v-7h0zM250 401v-7zM250 400v-6 1zM250 400v-5zM250 400v-5h0zM250 400v-5zM250 399v-4 1zM250 399v-3zM250 399v-3h0zM250 399v-3zM250 398v-2zM250 398z"/></g><g fill="none" stroke="currentColor" clip-path="url(#clipId0)"><path d="M161 420v-95h95v95z"/></g></svg>