<svg xmlns="http://www.w3.org/2000/svg" viewBox="0 0 800 600"><path fill="none" stroke="currentColor" stroke-width=".5" d="M140 557h277M421 557h277M698 557V280ZM698 277V0ZM698 0H421M417 0H140M140 0v277ZM140 280v277ZM417 277H140M140 277V0ZM140 0h277M417 0v277ZM421 277h277M698 277V0ZM698 0H421M421 0v277ZM421 557V280ZM421 280h277M698 280v277ZM698 557H421M421 557V372ZM417 557V280ZM417 280H140M140 280v277ZM140 557h277M417 557V372ZM272 128h6M278 128h1M279 128h1M280 128h1M281 128h1M282 128v1M282 129h1M283 129v1M283 130zM283 131ZM283 131ZM283 131ZM283 131ZM283 131ZM283 131ZM283 131ZM283 131ZM283 131ZM283 131ZM283 131ZM283 131ZM283 131ZM283 131v7ZM283 138zM283 139ZM283 139ZM283 139ZM283 139ZM283 139zM283 140ZM283 140ZM283 140ZM283 140ZM283 140ZM283 140ZM283 140ZM283 140ZM283 140ZM283 140v1M283 141h-1M282 141v1M282 142h-1M281 142v1M281 143h-1M280 143h-7M273 143h-1M272 143h-1M271 143v-1M271 142h-1M270 142h-1M269 142v-1M269 141v-1M269 140h-1M268 140ZM268 140ZM268 140ZM268 140ZM268 140ZM268 140ZM268 140ZM268 140ZM268 140ZM268 140ZM268 140zM268 139ZM268 139ZM268 139ZM268 139v-6ZM268 133v-1ZM268 132zM268 131ZM268 131ZM268 131ZM268 131ZM268 131ZM268 131ZM268 131ZM268 131ZM268 131ZM268 131ZM268 131ZM268 131ZM268 131ZM268 131v-1M268 130h1M269 130v-1M269 129h1M270 129v-1M270 128h1M271 128h1M558 128h7M565 128h1M566 128h1M567 128h1M568 128v1M568 129h1M569 129v1M569 130zM569 131ZM569 131ZM569 131ZM569 131ZM569 131ZM569 131ZM569 131ZM569 131ZM569 131ZM569 131ZM569 131ZM569 131ZM569 131ZM569 131v7ZM569 138zM569 139ZM569 139ZM569 139ZM569 139ZM569 139zM569 140ZM569 140ZM569 140ZM569 140ZM569 140ZM569 140ZM569 140ZM569 140ZM569 140ZM569 140v1M569 141v1M569 142h-1M568 142h-1M567 142v1M567 143h-1M566 143h-7M559 143h-1M558 143h-1M557 143v-1M557 142h-1M556 142v-1M556 141h-1M555 141v-1M555 140ZM555 140ZM555 140ZM555 140ZM555 140ZM555 140ZM555 140ZM555 140ZM555 140ZM555 140ZM555 140zM555 139ZM555 139ZM555 139ZM555 139v-6ZM555 133v-1ZM555 132zM555 131ZM555 131ZM555 131ZM555 131ZM555 131ZM555 131ZM555 131ZM555 131ZM555 131ZM555 131ZM555 131ZM555 131ZM555 131ZM555 131v-1M555 130v-1M555 129h1M556 129v-1M556 128h1M557 128h1M558 414h7M565 414h1M566 414h1M567 414v1M567 415h1M568 415h1M569 415v1M569 416v1M569 417ZM569 417ZM569 417ZM569 417ZM569 417ZM569 417ZM569 417ZM569 417ZM569 417ZM569 417ZM569 417ZM569 417ZM569 417zM569 418ZM569 418v6ZM569 424v1ZM569 425zM569 426ZM569 426ZM569 426ZM569 426ZM569 426ZM569 426ZM569 426ZM569 426ZM569 426ZM569 426ZM569 426ZM569 426ZM569 426ZM569 426v1M569 427v1M569 428h-1M568 428v1M568 429h-1M567 429h-1M566 429h-7M559 429h-1M558 429h-1M557 429h-1M556 429v-1M556 428h-1M555 428v-1M555 427v-1M555 426ZM555 426ZM555 426ZM555 426ZM555 426ZM555 426ZM555 426ZM555 426ZM555 426ZM555 426ZM555 426ZM555 426ZM555 426ZM555 426ZM555 426v-7ZM555 419zM555 418ZM555 418ZM555 418zM555 417ZM555 417ZM555 417ZM555 417ZM555 417ZM555 417ZM555 417ZM555 417ZM555 417ZM555 417ZM555 417ZM555 417v-1M555 416v-1M555 415h1M556 415h1M557 415v-1M557 414h1M272 414h6M278 414h1M279 414h1M280 414h1M281 414v1M281 415h1M282 415v1M282 416h1M283 416v1M283 417ZM283 417ZM283 417ZM283 417ZM283 417ZM283 417ZM283 417ZM283 417ZM283 417ZM283 417ZM283 417ZM283 417ZM283 417zM283 418ZM283 418v6ZM283 424v1ZM283 425zM283 426ZM283 426ZM283 426ZM283 426ZM283 426ZM283 426ZM283 426ZM283 426ZM283 426ZM283 426ZM283 426ZM283 426ZM283 426ZM283 426v1M283 427v1M283 428h-1M282 428l-1 1M281 429h-1M280 429h-7M273 429h-1M272 429h-1M271 429h-1M270 429v-1M270 428h-1M269 428v-1M269 427h-1M268 427v-1M268 426ZM268 426ZM268 426ZM268 426ZM268 426ZM268 426ZM268 426ZM268 426ZM268 426ZM268 426ZM268 426ZM268 426ZM268 426ZM268 426ZM268 426v-7ZM268 419zM268 418ZM268 418ZM268 418zM268 417ZM268 417ZM268 417ZM268 417ZM268 417ZM268 417ZM268 417ZM268 417ZM268 417ZM268 417ZM268 417ZM268 417v-1M268 416h1M269 416v-1M269 415h1M270 415v-1M270 414h1M271 414h1M102 600Z"/></svg>