<svg xmlns="http://www.w3.org/2000/svg" xml:space="preserve" fill-rule="evenodd" stroke-linecap="round" stroke-linejoin="round" style="background-color:transparent" viewBox="0 0 1024 768"><defs><style><![CDATA[g[clip-path]>*{vector-effect:non-scaling-stroke}]]></style></defs><g fill="#ed1f24" stroke="#ed1f24" clip-path="url(#clipId0)"><path d="M215 432V308l124 124z"/><path d="M339 432 215 308h124z"/></g><g fill="none" stroke="currentColor" clip-path="url(#clipId0)"><path d="M10 663h1004V105H10zM10 198h1004M10 520h1004M10 570h1004M10 248h1004M908 490h40"/><path d="M910 495h11v9h-11zM946 495h-11v9h11zM934 484h-12v-9h12zM915 495v-5M928 484v6M941 495v-5"/><circle cx="405.9" cy="267.6" r="9.3"/><circle cx="438.4" cy="267.6" r="9.3"/><circle cx="471" cy="267.6" r="9.3"/><circle cx="503.5" cy="267.6" r="9.3"/><circle cx="536" cy="267.6" r="9.3"/><circle cx="568.6" cy="267.6" r="9.3"/><circle cx="601.1" cy="267.6" r="9.3"/><circle cx="633.6" cy="267.6" r="9.3"/><circle cx="731.2" cy="267.6" r="9.3"/><circle cx="763.8" cy="267.6" r="9.3"/><circle cx="796.3" cy="267.6" r="9.3"/><circle cx="828.9" cy="267.6" r="9.3"/><circle cx="861.4" cy="267.6" r="9.3"/><circle cx="893.9" cy="267.6" r="9.3"/><circle cx="926.5" cy="267.6" r="9.3"/><circle cx="959" cy="267.6" r="9.3"/><path d="m951 273 16-11M406 284h9M438 284h-9M415 284l14-5"/></g><g fill="currentColor" stroke="currentColor" clip-path="url(#clipId0)"><text font-family="Arial,'sans-serif'" font-size="1.4" transform="matrix(12 0 0 12 421 304)">0</text><text font-family="Arial,'sans-serif'" font-size="1.4" transform="matrix(12 0 0 12 485 304)">1</text><text font-family="Arial,'sans-serif'" font-size="1.4" transform="matrix(12 0 0 12 552 304)">2</text><text font-family="Arial,'sans-serif'" font-size="1.4" transform="matrix(12 0 0 12 617 304)">3</text></g><g fill="none" stroke="currentColor" clip-path="url(#clipId0)"><path d="M471 284h9M504 284h-10M480 284l14-5M536 284h9M569 284h-10M545 284l14-5M601 284h9M634 284h-10M610 284l14-5M731 284h10M764 284h-10M741 284l13-5M796 284h10M829 284h-9M806 284l14-5M861 284h10M894 284h-9M871 284l14-5M926 284h10M959 284h-9M936 284l14-5"/></g><g fill="currentColor" stroke="currentColor" clip-path="url(#clipId0)"><text font-family="Arial,'sans-serif'" font-size="1.4" transform="matrix(12 0 0 12 747 304)">4</text><text font-family="Arial,'sans-serif'" font-size="1.4" transform="matrix(12 0 0 12 812 304)">5</text><text font-family="Arial,'sans-serif'" font-size="1.4" transform="matrix(12 0 0 12 877 304)">6</text><text font-family="Arial,'sans-serif'" font-size="1.4" transform="matrix(12 0 0 12 942 304)">7</text></g><g fill="none" stroke="currentColor" clip-path="url(#clipId0)"><circle cx="53.2" cy="266.8" r="9.3"/><circle cx="90.4" cy="266.8" r="9.3"/></g><g fill="currentColor" stroke="currentColor" clip-path="url(#clipId0)"><text font-family="Arial,'sans-serif'" font-size="1.4" transform="matrix(12 0 0 12 85 293)">L</text><text font-family="Arial,'sans-serif'" font-size="1.4" transform="matrix(12 0 0 12 48 293)">N</text><text font-family="Arial,'sans-serif'" font-size="1.4" transform="matrix(8 0 0 8 41 311)">230V AC</text></g><g fill="none" stroke="currentColor" clip-path="url(#clipId0)"><circle cx="90.5" cy="150.4" r="12.4"/><circle cx="53.3" cy="150.4" r="12.4"/><path d="M53 150V70M90 150V70M25 431h74v-93H25zM923 431h74v-93h-74zM561 420v-74h-93v74z"/></g><g fill="none" stroke="currentColor" clip-path="url(#clipId0)"><path d="M215 432V308M215 308h124M339 308v124M339 432H215"/><circle cx="165.9" cy="501.1" r="9.3"/><circle cx="190.7" cy="501.1" r="9.3"/><circle cx="215.4" cy="501.1" r="9.3"/><circle cx="240.2" cy="501.1" r="9.3"/><circle cx="265" cy="501.1" r="9.3"/><circle cx="289.8" cy="501.1" r="9.3"/><circle cx="314.6" cy="501.1" r="9.3"/><circle cx="339.4" cy="501.1" r="9.3"/><circle cx="760" cy="501.1" r="9.3"/><circle cx="729" cy="501.1" r="9.3"/><circle cx="613.7" cy="501.1" r="9.3"/><circle cx="588.9" cy="501.1" r="9.3"/><circle cx="564.1" cy="501.1" r="9.3"/><circle cx="539.3" cy="501.1" r="9.3"/><circle cx="514.5" cy="501.1" r="9.3"/><circle cx="489.7" cy="501.1" r="9.3"/><circle cx="464.9" cy="501.1" r="9.3"/><circle cx="440.1" cy="501.1" r="9.3"/><circle cx="415.4" cy="501.1" r="9.3"/></g><g fill="currentColor" stroke="currentColor" clip-path="url(#clipId0)"><text font-family="Arial,'sans-serif'" font-size="1.4" transform="matrix(12 0 0 12 155 481)">C</text><text font-family="Arial,'sans-serif'" font-size="1.4" transform="matrix(12 0 0 12 181 481)">0</text><text font-family="Arial,'sans-serif'" font-size="1.4" transform="matrix(12 0 0 12 204 481)">1</text><text font-family="Arial,'sans-serif'" font-size="1.4" transform="matrix(12 0 0 12 230 481)">2</text><text font-family="Arial,'sans-serif'" font-size="1.4" transform="matrix(12 0 0 12 255 481)">3</text><text font-family="Arial,'sans-serif'" font-size="1.4" transform="matrix(12 0 0 12 280 481)">4</text><text font-family="Arial,'sans-serif'" font-size="1.4" transform="matrix(12 0 0 12 305 481)">5</text><text font-family="Arial,'sans-serif'" font-size="1.4" transform="matrix(12 0 0 12 329 481)">C</text></g><g fill="none" stroke="currentColor" clip-path="url(#clipId0)"><circle cx="390.6" cy="501.1" r="9.3"/></g><g fill="currentColor" stroke="currentColor" clip-path="url(#clipId0)"><text font-family="Arial,'sans-serif'" font-size="1.4" transform="matrix(12 0 0 12 380 481)">C</text><text font-family="Arial,'sans-serif'" font-size="1.4" transform="matrix(12 0 0 12 405 481)">6</text><text font-family="Arial,'sans-serif'" font-size="1.4" transform="matrix(12 0 0 12 430 481)">7</text><text font-family="Arial,'sans-serif'" font-size="1.4" transform="matrix(12 0 0 12 451 481)">8</text><text font-family="Arial,'sans-serif'" font-size="1.4" transform="matrix(12 0 0 12 483 481)">9</text><text font-family="Arial,'sans-serif'" font-size="1.4" transform="matrix(12 0 0 12 505 481)">A</text><text font-family="Arial,'sans-serif'" font-size="1.4" transform="matrix(12 0 0 12 529 481)">B</text><text font-family="Arial,'sans-serif'" font-size="1.4" transform="matrix(12 0 0 12 554 481)">C</text><text font-family="Arial,'sans-serif'" font-size="1.4" transform="matrix(12 0 0 12 579 481)">T0</text><text font-family="Arial,'sans-serif'" font-size="1.4" transform="matrix(12 0 0 12 604 481)">T1</text><text font-family="Arial,'sans-serif'" font-size="1.4" transform="matrix(12 0 0 12 717 481)">12V DC</text><text font-family="Arial,'sans-serif'" font-size="1.4" transform="matrix(12 0 0 12 707 506)">-</text><text font-family="Arial,'sans-serif'" font-size="1.4" transform="matrix(12 0 0 12 774 507)">+</text><text font-family="Arial,'sans-serif'" font-size="1.4" transform="matrix(12 0 0 12 727 454)">OUT</text><text font-family="Arial,'sans-serif'" font-size="1.4" transform="matrix(12 0 0 12 209 454)">INPUTS</text><text font-family="Arial,'sans-serif'" font-size="1.4" transform="matrix(12 0 0 12 407 454)">INPUTS</text><text font-family="Arial,'sans-serif'" font-size="1.4" transform="matrix(12 0 0 12 579 450)">TEMP</text></g><g fill="none" stroke="currentColor" clip-path="url(#clipId0)"><circle cx="59.7" cy="501.1" r="9.3"/><circle cx="84.5" cy="501.1" r="9.3"/><circle cx="109.3" cy="501.1" r="9.3"/></g><g fill="currentColor" stroke="currentColor" clip-path="url(#clipId0)"><text font-family="Arial,'sans-serif'" font-size="1.4" transform="matrix(12 0 0 12 55 481)">0</text><text font-family="Arial,'sans-serif'" font-size="1.4" transform="matrix(12 0 0 12 79 481)">1</text><text font-family="Arial,'sans-serif'" font-size="1.4" transform="matrix(12 0 0 12 105 481)">2</text><text font-family="Arial,'sans-serif'" font-size="1.4" transform="matrix(12 0 0 12 66 455)">CAN</text></g><g fill="none" stroke="currentColor" clip-path="url(#clipId0)"><path d="M684 105v93M391 170h261M652 170v-37M652 133H391M391 133v37M717 170h260M977 170v-37M977 133H717M717 133v37"/><circle cx="407.7" cy="151.5" r="12.4"/><circle cx="440.2" cy="151.5" r="12.4"/><circle cx="472.8" cy="151.5" r="12.4"/><circle cx="505.3" cy="151.5" r="12.4"/><circle cx="537.8" cy="151.5" r="12.4"/><circle cx="570.4" cy="151.5" r="12.4"/><circle cx="602.9" cy="151.5" r="12.4"/><circle cx="635.4" cy="151.5" r="12.4"/><circle cx="733" cy="151.5" r="12.4"/><circle cx="765.6" cy="151.5" r="12.4"/><circle cx="798.1" cy="151.5" r="12.4"/><circle cx="830.7" cy="151.5" r="12.4"/><circle cx="863.2" cy="151.5" r="12.4"/><circle cx="895.7" cy="151.5" r="12.4"/><circle cx="928.3" cy="151.5" r="12.4"/><circle cx="960.8" cy="151.5" r="12.4"/><path d="M408 152V71M440 152V71M473 152V71M505 152V71M538 152V71M570 152V71M603 152V71M635 152V71M733 152V71M766 152V71M798 152V71M831 152V71M863 152V71M896 152V71M928 152V71M961 152V71M10 105v93M363 105v93M153 599h201M354 599v37M354 636H153M153 636v-37M403 599h226M629 636H403"/><circle cx="165.9" cy="617.6" r="9.3"/><circle cx="190.7" cy="617.6" r="9.3"/><circle cx="215.4" cy="617.6" r="9.3"/><circle cx="240.2" cy="617.6" r="9.3"/><circle cx="265" cy="617.6" r="9.3"/><circle cx="289.8" cy="617.6" r="9.3"/><circle cx="314.6" cy="617.6" r="9.3"/><circle cx="339.4" cy="617.6" r="9.3"/><circle cx="415.4" cy="617.6" r="9.3"/><circle cx="440.1" cy="617.6" r="9.3"/><circle cx="464.9" cy="617.6" r="9.3"/><circle cx="489.7" cy="617.6" r="9.3"/><circle cx="514.5" cy="617.6" r="9.3"/><circle cx="539.3" cy="617.6" r="9.3"/><circle cx="564.1" cy="617.6" r="9.3"/><circle cx="588.9" cy="617.6" r="9.3"/><circle cx="613.7" cy="617.6" r="9.3"/><circle cx="390.6" cy="617.6" r="9.3"/><path d="M403 599h-31M372 599v37M372 636h31M629 599v37M166 618v80M191 618v80M215 618v80M240 618v80M265 618v80M290 618v80M315 618v80M339 618v80M391 618v80M415 618v80M440 618v80M465 618v80M490 618v80M515 618v80M539 618v80M564 618v80M589 618v80M614 618v80M60 616v81M84 616v81M109 616v81M363 663v-93"/><circle cx="59.7" cy="616.3" r="9.3"/><circle cx="83.9" cy="616.3" r="9.3"/><circle cx="109.3" cy="616.3" r="9.3"/><path d="M684 570v93M889 583h86v68h-86zM713 619v-19M713 600h62M775 600v37M775 637h-62M713 637v-18"/><circle cx="729" cy="618.8" r="12.4"/><circle cx="760" cy="618.8" r="12.4"/></g><g fill="currentColor" stroke="currentColor" clip-path="url(#clipId0)"><text font-family="Arial,'sans-serif'" font-size="1.4" transform="matrix(12 0 0 12 589 389)">SMARTBOX MINI</text><text font-family="Arial,'sans-serif'" font-size="1.4" transform="matrix(19 0 0 19 871 392)">CE</text></g><g fill="none" stroke="currentColor" clip-path="url(#clipId0)"><path d="M580 369v29M580 398h330M910 398v-20M580 369h330M910 369v9"/></g><g fill="none" stroke="currentColor" clip-path="url(#clipId0)"><path d="M229 313v68l1 4h7v3h-1l-7 1v21l1 4 1 2 1 2h4l1 1v4h-5l-2-2-2-2-2-5v-25l-4-1v-3h4v-72h3"/></g><g fill="currentColor" stroke="currentColor" clip-path="url(#clipId0)"><path d="M222 389v-4zM223 389l-1-4h1zM223 389v-4zM223 389v-4h0zM223 389v-4zM223 389v-4h0zM223 389v-4zM224 389l-1-4h1zM224 389v-4zM224 389v-4h0zM224 389v-4zM224 389v-4h0zM224 389v-4zM225 389l-1-4h1zM225 389v-4zM225 389v-4h0zM225 389v-4zM225 389v-4h0zM225 389v-4zM226 389l-1-4h1zM226 389v-4zM226 389v-4h0zM226 389v-4zM226 389v-4h0zM226 389v-4zM226 389v-4h0zM226 389v-4zM226 389v-4h0zM226 389v-4zM226 389v-4h0zM226 389v-4zM226 389v-4h0zM226 389v-4zM226 389v-4h0zM226 313zM226 389v-4zM226 389v-4h0zM226 313zM226 313zM226 389v-4zM226 389v-4h0zM226 313zM226 313zM226 389v-4zM226 389v-4h0zM226 313zM226 313zM226 313zM226 389v-4zM226 389v-4h0zM226 313zM226 314v-1h0zM226 313zM226 313zM226 389v-4zM226 389v-4h0zM226 314v-1zM226 314v-1h0zM226 313zM226 313zM226 389v-4zM226 389v-4h0zM226 314v-1zM226 314v-1h0zM226 313zM226 313zM226 389v-4zM226 389v-4h0zM226 314v-1zM226 314v-1h0zM226 313zM226 313zM226 389v-4zM226 389v-4h0zM226 314v-1zM226 315v-2h0zM226 313zM226 313zM226 389v-4zM226 389v-4h0zM226 315v-2zM226 315v-2h0zM226 313zM226 313zM226 389v-4zM226 389v-4h0zM226 315v-2zM226 316v-3h0zM226 313zM226 313zM226 389v-4zM226 389v-4h0zM226 316v-3zM226 316v-3h0zM226 313zM226 313zM226 389v-4zM226 389v-4h0zM226 316v-3zM226 316v-3h0zM226 313zM226 313zM226 409zM226 389v-4zM226 389v-4h0zM226 316v-3zM226 316v-3h0zM226 313zM226 313zM226 409zM226 409zM226 389v-4zM226 389v-4h0zM226 316v-3zM226 316v-3h0zM226 313zM226 313zM226 409zM226 410v-1h0zM226 389v-4zM226 389v-4h0zM226 322zM226 316v-3zM226 316v-3h0zM226 313zM226 313zM226 410v-1zM226 410v-2zM226 389v-4zM226 389v-4h0zM226 322zM226 323v-2zM226 316v-3zM226 316v-3h0zM226 313zM226 313zM226 410v-2zM226 410v-2h0zM226 389v-4zM226 389v-4h0zM226 323v-2zM226 323v-2h0zM226 316v-3zM226 316v-3h0zM226 313zM226 313zM226 410v-2zM226 410v-2h0zM226 389v-4zM226 389v-4h0zM226 323v-2zM226 323v-2h0zM226 316v-3zM226 317v-4h0zM226 313zM226 313zM226 410v-2zM226 410v-2h0zM226 389v-4zM226 389v-4h0zM226 323v-2zM226 323v-2h0zM226 317v-4zM226 317v-4h0zM226 313zM226 313zM226 410v-4zM226 410v-6zM226 389v-4zM226 389v-6zM226 331v-10 16zM226 337v-17zM226 317v-4zM226 317v-4h0zM226 313zM226 313zM226 410v-6zM226 410v-7zM226 389v-6zM226 390v-8zM226 337v-17 20zM226 340v-20h0zM226 317v-4zM226 317v-4h0zM226 313zM226 313zM226 410v-7zM226 410v-8zM226 390v-8zM226 390v-9zM226 340v-20 22zM226 342v-22h0zM226 317v-4zM226 318v-5h0zM226 313zM226 313zM226 410v-8zM226 410v-8h0zM226 390v-9zM226 390v-10zM226 342v-22 24zM226 344v-24h0zM226 318v-5zM226 318v-5h0zM226 313zM226 313zM226 410v-8zM226 410v-10zM226 390v-10zM226 390v-11zM226 344v-24 28zM226 348v-29zM226 318v-5zM226 318v-5h0zM226 313zM226 313zM226 410v-10zM226 410v-10h0zM226 390v-11zM226 390v-11h0zM226 348v-29 31zM226 350v-31h0zM226 318v-5zM226 318v-5h0zM226 313zM226 313zM226 410v-10zM226 410v-11zM226 390v-11zM226 390v-11h0zM226 350v-31zM226 351v-32h0zM226 318v-5zM226 318v-5h0zM226 313zM226 313zM226 410v-11zM226 410v-11h0zM226 390v-11zM226 391v-13zM226 351v-32 34zM226 353v-34h0zM226 318v-5 6zM226 319v-6h0zM226 313zM226 313zM226 410v-11zM226 410v-12zM226 391v-13zM226 391v-13h0zM226 353v-40zM226 354v-41h0zM226 313zM226 313zM226 410v-12zM226 410v-13zM226 391v-13zM226 391v-14zM226 354v-41 47zM226 360v-47h0zM226 313zM226 313zM226 410v-13zM226 410v-14zM226 391v-14zM226 391v-14h0zM226 360v-47 49zM226 362v-49h0zM226 313zM226 313zM226 410v-14zM226 410v-15zM226 391v-14 15zM226 392v-20zM226 362v-49 53zM226 366v-53h0zM226 313zM226 312zM226 410v-15zM226 410v-17zM226 392v-26zM226 393v-27 5zM226 372v-59zM226 371v-58h0zM226 312zM226 312zM226 410v-97zM226 410v-97h0zM226 312zM226 312zM226 410v-97zM226 410v-97h0zM226 312zM226 410v-97zM226 410v-97h0zM226 410v-97zM226 410v-97h0zM226 410v-97 98zM226 411v-98h0zM226 411v-98zM226 412v-99h0zM226 412v-99zM226 412v-99h0zM226 412v-99zM226 413V313h0zM226 413V313zM226 413V313h0zM226 413V313zM226 414V313h0zM226 414V313zM226 414V313h0zM226 414V313zM226 415V313h0zM226 415V313zM226 415V313h0zM226 415V313zM226 415V313h0zM226 415V313zM226 416V313h0zM226 416V313zM227 416l-1-103h1zM227 416V313zM227 416V313h0zM227 416V313zM227 417V313h0zM227 417V313zM227 417V313h0zM227 417V313zM227 417V313h0zM227 417V313zM227 418V313h0zM227 418V313zM227 418V313h0zM227 418V313zM227 418V313h0zM227 418V313zM228 419l-1-106h1zM228 419V313zM228 419V313h0zM228 419V313zM228 419V313h0zM228 419V313zM228 419V313h0zM228 419V313zM228 420V313h0zM228 420V313zM228 420V313h0zM228 420V313zM229 420l-1-107h1zM229 420V313zM229 420V313h0zM229 420V313zM229 420V313h0zM229 420V313zM229 421V313h0zM229 421v-12zM229 421v-12h0zM229 407v-85 83zM229 405v-83 6zM229 421v-12zM229 421v-12 1zM229 405v-77 75zM229 403v-75 7zM229 421v-11zM229 421v-11h0zM229 403v-68 66zM229 401v-66 7zM229 421v-11zM229 421v-11h0zM229 401v-59 57zM229 399v-57 7zM229 421v-11zM229 421v-11h0zM229 399v-50 48zM229 397v-48 6zM229 421v-11zM229 421v-11h0zM229 397v-42zM229 397v-42h0zM229 421v-11zM229 421v-11h0zM229 397v-42 40zM229 395v-40 7zM229 421v-11zM229 421v-11h0zM229 395v-33 31zM229 393v-31 7zM229 421v-11zM229 421v-11h0zM229 393v-24 22zM229 391v-22 7zM229 421v-11zM229 421v-11h0zM229 391v-15 13zM229 389v-13 9zM229 421v-11zM229 421v-11 1zM229 389v-4zM229 389v-4h0zM229 421v-10zM229 421v-10h0zM229 389v-4zM229 389v-4h0zM229 421v-10zM229 421v-10 1zM229 389v-4zM229 389v-4h0zM229 421v-9zM229 421v-9 1zM229 389v-4zM229 389v-4h0zM229 421v-8zM229 421v-8h0zM229 389v-4zM229 389v-4h0zM229 421v-8zM230 421l-1-8h1zM229 389v-4zM230 389l-1-4h1zM230 421v-8zM230 421v-8 1zM230 389v-4zM230 389v-4h0zM230 421v-7zM230 421v-7h0zM230 389v-4zM230 389v-4h0zM230 421v-7zM230 421v-7 1zM230 389v-4zM230 389v-4h0zM230 421v-6zM230 422v-7h0zM230 389v-4zM230 389v-4h0zM230 422v-7zM230 422v-7h0zM230 389v-4zM230 389v-4h0zM230 422v-7zM230 422v-7h0zM230 389v-4zM230 389v-4h0zM230 422v-7zM231 422l-1-7 1 1zM230 389v-4zM231 389l-1-4h1zM231 422v-6zM231 422v-6h0zM231 389v-4zM231 389v-4h0zM231 422v-6zM231 422v-6h0zM231 389v-4zM231 389v-4h0zM231 422v-6zM231 422v-6h0zM231 389v-4zM231 389v-4h0zM231 422v-6zM231 422v-6 1zM231 389v-4zM231 389v-4h0zM231 422v-5zM231 422v-5h0zM231 389v-4zM231 389v-4h0zM231 422v-5zM232 422l-1-5h1zM231 389v-4zM232 389l-1-4h1zM232 422v-5zM232 422v-5h0zM232 389v-4zM232 389v-4h0zM232 422v-5zM232 422v-5h0zM232 389v-4zM232 389v-4h0zM232 422v-5zM232 423v-6h0zM232 389v-4zM232 389v-4h0zM232 423v-6zM232 423v-6h0zM232 389v-4zM232 389v-4h0zM232 423v-6zM232 423v-6 1zM232 389v-4zM232 389v-4h0zM232 423v-5zM232 423v-5h0zM232 389v-4zM232 389v-4h0zM232 423v-5zM233 423l-1-5h1zM232 389v-4zM233 389l-1-4h1zM233 423v-5zM233 423v-5h0zM233 389v-4zM233 389v-4h0zM233 423v-5zM233 423v-5h0zM233 389v-4zM233 389v-4h0zM233 423v-5zM233 423v-5h0zM233 389v-4zM233 389v-4h0zM233 423v-5zM234 423l-1-5h1zM233 389v-4zM234 389l-1-4h1zM234 423v-5zM234 423v-5h0zM234 389v-4zM234 389v-4h0zM234 423v-5zM234 423v-5h0zM234 389v-4zM234 389v-4h0zM234 423v-5zM234 423v-5h0zM234 389v-4zM234 389v-4h0zM234 423v-5zM234 423v-5h0zM234 389v-4zM234 389v-4h0zM234 423v-5zM234 423v-5h0zM234 389v-4zM234 389v-4h0zM234 423v-5zM235 423l-1-5h1zM234 389v-4zM235 389l-1-4h1zM235 423v-5zM235 423v-5h0zM235 389v-4zM235 389v-4h0zM235 423v-5zM235 423v-5h0zM235 389v-4zM235 389v-4h0zM235 423v-5zM235 423v-5h0zM235 389v-4zM235 389v-4h0zM235 423v-5zM235 423v-5h0zM235 389v-4zM235 389v-4h0zM235 423v-5zM235 423v-5h0zM235 389v-4zM235 389v-4h0zM235 423v-5zM235 423v-5h0zM235 389v-4zM235 389v-4h0zM235 423v-5zM236 423l-1-5h1zM235 389v-4zM236 389l-1-4h1zM236 423v-5zM236 423v-5h0zM236 389v-4zM236 389v-4h0zM236 423v-5zM236 423v-5h0zM236 389v-4zM236 389v-4h0zM236 423v-5zM236 424v-6h0zM236 389v-4zM236 388v-3h0zM236 424v-6zM236 424v-6h0zM236 388v-3zM236 388v-3h0zM236 424v-6zM236 424v-6h0zM236 388v-3zM236 388v-3h0zM236 424v-6zM237 424l-1-6h1zM236 388v-3zM237 388l-1-3h1zM237 424v-6 5zM237 423v-5h0zM237 388v-3zM237 388v-3h0zM237 423v-5zM237 422v-4h0zM237 388v-3zM237 388v-3h0zM237 422v-4zM237 422v-4h0zM237 388v-3zM237 388v-3h0zM237 422v-4zM237 421v-3h0zM237 388v-3zM237 388v-3h0zM237 421v-3zM237 421v-3h0zM237 388v-3zM237 388v-3h0zM237 421v-3zM237 421v-3h0zM237 388v-3zM237 388v-3h0zM237 421v-3zM237 420v-2h0zM237 388v-3zM237 388v-3h0zM237 420v-2zM237 420v-2h0zM237 388v-3zM237 388v-3h0zM237 420v-2zM237 419zM237 388v-3zM237 388v-3h0zM237 419zM237 388v-3zM237 388v-3h0zM237 388v-3zM237 388v-3h0z"/></g><g fill="none" stroke="currentColor" clip-path="url(#clipId0)"><path d="M286 337h4v28l1 3 4 2 3 1 2-3 1-4v-27h3v29l-1 6-2 2-1 1h-5l-4-3-1-1v-1h0l-1 5h-2l-1-1v-37"/></g><g fill="currentColor" stroke="currentColor" clip-path="url(#clipId0)"><path d="M286 375v-3zM286 375v-3zM286 375v-5zM286 375v-5zM286 375v-8zM286 375v-8zM286 375v-10zM286 375v-10zM286 375v-12zM286 375v-12zM286 375v-13zM286 375v-13zM286 375v-13h0zM286 355zv-1zM286 375v-13zM286 375v-14zM286 355v-2zM286 356v-4zM286 375v-14zM286 375v-14h0zM286 356v-4zM286 356v-4h0zM286 375v-14zM286 375v-15zM286 356v-4 5zM286 357v-6zM286 375v-15zM286 375v-16zM286 357v-6zM286 358v-7h0zM286 375v-16zM286 375v-17zM286 358v-7zM286 358v-7h0zM286 375v-24zM286 375v-26zM286 375v-26zM286 375v-27zM286 375v-27zM286 375v-29zM286 375v-29zM286 375v-31zM286 375v-31zM286 375v-33zM286 375v-33zM286 375v-35zM286 375v-35zM286 375v-36zM286 375v-36zM286 375v-37zM286 375v-37zM286 375v-38zM286 375v-38zM286 375v-38h0zM286 375v-38zM286 375v-38h0zM286 375v-38zM286 375v-38h0zM286 375v-38zM286 375v-38h0zM286 375v-38zM286 375v-38h0zM286 375v-38zM286 375v-38h0zM286 375v-38zM286 375v-38h0zM286 375v-38zM286 375v-38h0zM286 375v-38zM286 375v-38h0zM286 375v-38zM286 375v-38h0zM286 375v-38zM286 375v-38h0zM286 375v-38zM286 375v-38h0zM286 375v-38zM286 375v-38h0zM286 375v-38zM286 375v-38h0zM286 375v-38zM286 375v-38h0zM286 375v-38zM286 375v-38h0zM286 375v-38zM286 375v-38h0zM286 375v-38zM286 375v-38h0zM286 375v-38zM287 375l-1-38h1zM287 375v-38zM287 375v-38h0zM287 375v-38zM287 375v-38h0zM287 375v-38zM288 375l-1-38h1zM288 375v-38zM288 375v-38h0zM288 375v-38zM288 375v-38h0zM288 375v-38zM289 375l-1-38h1zM289 375v-38zM289 375v-38h0zM289 375v-38zM289 375v-38h0zM289 375v-38zM290 375l-1-38h1zM290 375v-9zM290 375v-9h0zM290 366v-29zM290 366v-29h0zM290 375v-2zM290 375v-2 1zM290 373v-7zM290 373v-7h0zM290 366v-29zM290 366v-29h0zM290 375v-1zM290 375v-1h0zM290 373v-7zM290 372v-6h0zM290 366v-29zM290 366v-29h0zM290 375v-1zM290 375v-1zM290 372v-6zM290 372v-6h0zM290 366v-29zM290 366v-29h0zM290 375zM290 375zM290 372v-6zM290 372v-6h0zM290 366v-29zM290 366v-29h0zM290 375zM290 375zM290 372v-6zM290 371v-5h0zM290 366v-29zM290 365v-28h0zM290 371v-5zM290 371v-5h0zM290 363v-26zM290 362v-25h0zM290 371v-5zM290 371v-5h0zM290 362v-25 23zM290 360v-23 1zM290 371v-5zM290 371v-5h0zM290 360v-22 19zM290 357v-19 1zM290 371v-5zM290 371v-5h0zM290 357v-18zM290 356v-17h0zM290 371v-5zM290 371v-5h0zM290 356v-17zM290 355v-16h0zM290 371v-5zM290 371v-5h0zM290 355v-16zM290 354v-15 1zM290 371v-5zM290 370v-4h0zM290 354v-14 12zM290 352v-12 2zM290 370v-4zM290 370v-4h0zM290 352v-10zM290 351v-9 1zM290 370v-4zM290 370v-4h0zM290 351v-8 6zM290 349v-6 2zM290 370v-4zM290 370v-4h0zM290 349v-4zM290 370v-4zM290 370v-4h0zM290 370v-4zM290 370v-4h0zM290 370v-4zM290 370v-4h0zM290 370v-4zM290 370v-4h0zM290 370v-4zM290 370v-4h0zM290 370v-4zM290 370v-4h0zM290 370v-4zM290 370v-4h0zM290 370v-4zM290 370v-4h0zM290 370v-4zM290 370v-4h0zM290 370v-4zM290 370v-4 1zM290 370v-3zM290 371v-4h0zM290 371v-4zM290 371v-4h0zM290 371v-4zM290 371v-4h0zM290 371v-4zM290 371v-4h0zM290 371v-4zM290 371v-4h0zM290 371v-4zM291 371l-1-4h1zM291 371v-4zM291 372v-5h0zM291 372v-5zM291 372v-5 1zM291 372v-4zM291 372v-4h0zM291 372v-4zM291 372v-4h0zM291 372v-4zM291 372v-4h0zM291 372v-4zM292 372l-1-4h1zM292 372v-4zM292 372v-4h0zM292 372v-4zM292 373v-5 1zM292 373v-4zM292 373v-4h0zM292 373v-4zM292 373v-4h0zM292 373v-4zM292 373v-4h0zM292 373v-4zM292 373v-4h0zM292 373v-4zM293 373l-1-4h1zM293 373v-4zM293 374v-5h0zM293 374v-5zM293 374v-5h0zM293 374v-5zM293 374v-5 1zM293 374v-4zM293 374v-4h0zM293 374v-4zM293 374v-4h0zM293 374v-4zM294 374l-1-4h1zM294 374v-4zM294 374v-4h0zM294 374v-4zM294 374v-4h0zM294 374v-4zM294 374v-4h0zM294 374v-4zM294 375v-5h0zM294 375v-5zM295 375l-1-5h1zM295 375v-5zM295 375v-5h0zM295 375v-5zM295 375v-5h0zM295 375v-5zM295 375v-5h0zM295 375v-5zM295 375v-5 1zM295 375v-4zM296 375l-1-4h1zM296 375v-4zM296 375v-4h0zM296 375v-4zM296 375v-4h0zM296 375v-4zM296 375v-4h0zM296 375v-4zM296 375v-4h0zM296 375v-4zM297 375l-1-4h1zM297 375v-4zM297 375v-4h0zM297 375v-4zM297 375v-4h0zM297 375v-4zM297 375v-4h0zM297 375v-4zM297 375v-4h0zM297 375v-4zM297 375v-4h0zM297 375v-4zM297 375v-4h0zM297 375v-4zM298 375l-1-4h1zM298 375v-4zM298 375v-4h0zM298 375v-4zM298 375v-4h0zM298 375v-4zM298 375v-4h0zM298 375v-4zM298 375v-4h0zM298 375v-4zM298 375v-4h0zM298 375v-4zM298 375v-4h0zM298 375v-4zM299 375l-1-4h1zM299 375v-4zM299 375v-4h0zM299 375v-4zM299 375v-4h0zM299 375v-4zM299 375v-4h0zM299 375v-4zM299 375v-4h0zM299 375v-4zM299 375v-4h0zM299 375v-4zM299 375v-5zM299 375v-5zM299 375v-5h0zM299 375v-5zM299 375v-5h0zM299 375v-5zM299 375v-5h0zM299 375v-5zM300 375l-1-5h1zM300 375v-5zM300 375v-5h0zM300 375v-5zM300 375v-5h0zM300 375v-5zM300 375v-5h0zM300 375v-5zM300 375v-5h0zM300 375v-5zM300 375v-6zM300 375v-6zM300 375v-6h0zM300 375v-6zM300 375v-6h0zM300 375v-6zM300 375v-6h0zM300 375v-6zM300 375v-6h0zM300 375v-6zM300 375v-6h0zM300 375v-6zM300 375v-7zM300 375v-7zM301 375l-1-7h1zM301 375v-7zM301 375v-7h0zM301 375v-7zM301 375v-7h0zM301 375v-7zM301 375v-8zM301 375v-8zM301 375v-8h0zM301 375v-8zM301 375v-9zM301 375v-9zM301 375v-9h0zM301 375v-9zM301 375v-9h0zM301 375v-9zM301 375v-9h0zM301 352v-5zM301 375v-9zM301 375v-9h0zM301 352v-5zM301 352v-5h0zM301 375v-9zM301 375v-9h0zM301 352v-5zM301 353v-7zM301 375v-9zM301 375v-9h0zM301 363zM301 353v-7 9zM301 355v-11zM301 375v-9zM301 375v-9h0zM301 363zM301 363zM301 355v-11zM301 355v-11h0zM301 375v-9zM301 375v-9h0zM301 363zM301 363zM301 355v-11 13zM301 357v-15zM301 375v-9zM301 375v-9h0zM301 363zM301 363zM301 357v-15zM301 358v-17zM301 375v-9zM301 375v-9h0zM301 363zM301 363zM301 358v-17zM301 358v-17h0zM301 375v-9zM301 375v-9h0zM301 363zM301 363zM301 358v-17zM301 358v-17h0zM301 375v-9zM301 375v-9h0zM301 363zM301 363zv-1zM301 358v-17 19zM301 360v-21zM301 375v-9zM301 375v-9h0zM301 363v-2zM301 363v-3zM301 360v-21zM301 360v-21h0zM301 375v-9zM301 375v-9h0zM301 363v-24zM301 363v-24h0zM301 375v-9zM301 375v-9h0zM301 363v-24zM301 364v-26zM301 375v-9zM301 375v-9h0zM301 364v-26zM301 364v-27zM301 375v-9zM301 375v-9h0zM301 364v-27zM301 364v-27h0zM301 375v-9zM301 375v-9h0zM301 364v-27zM301 364v-27h0zM301 375v-9zM301 375v-9h0zM301 364v-27zM301 364v-27h0zM301 375v-9zM301 375v-9h0zM301 364v-27zM301 365v-28h0zM301 375v-9zM301 375v-10zM301 365v-28zM301 365v-28h0zM301 375v-10zM301 375v-10h0zM301 365v-28zM301 365v-28h0zM301 375v-10zM301 375v-10h0zM301 365v-28zM301 365v-28h0zM301 375v-38zM301 374v-37h0zM301 374v-37zM301 374v-37h0zM301 374v-37zM301 374v-37h0zM301 374v-37zM301 374v-37h0zM301 374v-37zM302 374l-1-37h1zM302 374v-37zM302 374v-37h0zM302 374v-37zM302 373v-36h0zM302 373v-36zM302 373v-36h0zM302 373v-36zM302 373v-36h0zM302 373v-36zM303 373l-1-36h1zM303 373v-36zM303 372v-35h0zM303 372v-35zM303 372v-35h0zM303 372v-35zM303 372v-35h0zM303 372v-35zM303 372v-35h0zM303 372v-35zM303 371v-34h0zM303 371v-34zM303 371v-34h0zM303 371v-34zM303 371v-34h0zM303 371v-34l1 33z"/><path d="m304 370-1-33h1zM304 370v-33zM304 370v-33h0zM304 370v-33zM304 369v-32h0zM304 369v-32zM304 368v-31h0zM304 368v-31zM304 368v-31h0zM304 368v-31zM304 367v-30h0zM304 367v-30zM304 367v-30h0zM304 367v-30 29zM304 366v-29h0zM304 366v-29zM304 365v-28h0zM304 365v-28zM304 365v-28 2zM304 365v-26zM304 365v-26 3zM304 365v-23zM304 365v-23 2zM304 365v-21zM304 365v-21 3zM304 365v-4zM304 365v-4h0zM304 361v-14zM304 361v-14h0zM304 365v-4zM304 365v-4 1zM304 361v-14 12zM304 359v-12 3zM304 365v-3zM304 365v-3h0zM304 359v-9zM304 358v-8h0zM304 365v-3zM304 365v-3h0zM304 358v-8 6zM304 356v-6 3zM304 365v-3zM304 365v-3h0zM304 356v-3h0zM304 365v-3zM304 365v-3 2zM304 365v-1zM304 365v-1h0zM304 365v-1z"/></g><g fill="none" stroke="currentColor" clip-path="url(#clipId0)"><path d="m330 348-1-5-3-5-3-2-2-1h-3l-3 3-3 4-1 3-1 4-1 5 1 4v5l2 5 2 4 3 3 3 1 4-2 2-2 3-5 1-5 1-7z"/><path d="m327 360-1 5-1 2-2 3-3 1-2-1-3-4-2-8v-8l1-4 3-5 3-1h2l4 4 1 8z"/></g><g fill="currentColor" stroke="currentColor" clip-path="url(#clipId0)"><path d="M309 356v-2zM309 356v-2 3zM309 357v-4zM309 357v-4zM309 357v-4h0zM309 357v-4zM310 358l-1-5 1-1zM310 358v-6zM310 358v-6h0zM310 358v-6zM310 359v-8zM310 359v-8zM310 359v-8h0zM310 359v-8zM310 360v-10zM310 360v-10zM310 360v-10h0zM310 360v-10zM310 361v-12zM310 361v-12zM310 361v-12h0zM310 361v-12zM310 362v-14zM310 362v-14zM310 362v-14h0zM310 362v-14zM310 363v-15h0zM310 363v-15zM310 363v-15h0zM310 363v-15zM310 363v-16zM310 363v-16zM310 364v-17h0zM310 364v-17zM311 364l-1-17 1-1zM311 364v-18zM311 365v-19h0zM311 365v-19zM311 365v-19h0zM311 365v-19zM311 366v-21zM311 366v-21zM311 366v-21h0zM311 366v-21zM311 366v-22zM311 366v-22zM311 367v-23h0zM311 367v-23zM311 367v-23h0zM311 367v-23zM312 367l-1-23 1-1zM312 367v-24zM312 367v-24h0zM312 367v-24zM312 368v-26zM312 368v-26zM312 368v-26h0zM312 368v-26zM312 368v-26h0zM312 368v-26zM312 369v-27h0zM312 369v-27zM312 369v-28zM312 369v-28zM312 369v-28h0zM312 369v-28zM313 370l-1-29h1zM313 370v-29zM313 370v-29h0zM313 370v-29zM313 370v-30zM313 370v-30zM313 370v-30h0zM313 370v-30zM313 371v-31h0zM313 371v-31zM313 371v-32zM313 371v-32zM314 371l-1-32h1zM314 371v-32zM314 371v-32h0zM314 371v-32zM314 372v-33h0zM314 372v-33zM314 372v-34zM314 372v-34zM314 372v-34h0zM314 372v-34zM315 373l-1-35h1zM315 373v-35zM315 373v-35h0zM315 373v-35zM315 373v-36zM315 373v-36zM315 373v-36h0zM315 373v-36zM315 373v-36h0zM315 373v-36zM315 373v-36h0zM315 373v-36zM316 374l-1-37h1zM316 374v-37zM316 374v-37h0zM316 374v-37zM316 374v-38zM316 374v-38zM316 374v-38h0zM316 374v-38zM316 374v-38h0zM316 374v-38zM317 374l-1-38h1zM317 374v-38zM317 375v-39h0zM317 375v-39zM317 375v-39h0zM317 375v-39zM317 375v-39h0zM317 375v-39zM317 375v-39h0zM317 375v-39zM318 375l-1-39 1-1zM318 375v-40zM318 375v-40h0zM318 375v-40zM318 375v-40h0zM318 375v-40zM318 375v-40h0zM318 375v-40zM319 375l-1-40h1zM319 375v-40zM319 375v-40h0zM319 375v-40zM319 375v-40h0zM319 375v-40zM319 375v-40h0zM319 375v-40zM319 376v-41h0zM319 376v-41zM319 376v-41h0zM319 376v-41zM320 376l-1-41h1zM320 376v-41zM320 376v-41h0zM320 376v-41zM320 376v-41h0zM320 376v-41zM320 376v-41h0zM320 376v-41zM321 376l-1-41h1zM321 376v-41zM321 375v-40h0zM321 375v-40zM321 375v-40h0zM321 375v-40zM321 375v-40h0zM321 375v-40zM321 375v-40h0zM321 375v-40zM322 375l-1-40h1zM322 375v-40zM322 375v-40h0zM322 375v-40zM322 375v-40h0zM322 375v-40zM322 375v-40h0zM322 375v-40zM323 375l-1-40h1zM323 375v-40zM323 375v-40h0zM323 375v-40zM323 375v-40 1zM323 375v-39zM323 375v-39h0zM323 375v-39zM323 375v-39h0zM323 375v-39zM324 375l-1-39h1zM324 375v-39zM324 374v-38h0zM324 374v-38zM324 374v-38h0zM324 374v-38zM324 374v-38h0zM324 374v-38zM324 374v-38 1zM324 374v-37zM325 374l-1-37h1zM325 374v-37zM325 373v-36h0zM325 373v-36zM325 373v-36h0zM325 373v-36zM325 373v-36h0zM325 373v-36zM326 373l-1-36 1 1zM326 373v-35zM326 372v-34h0zM326 372v-34zM326 372v-34h0zM326 372v-34zM326 372v-34 1zM326 372v-33zM326 372v-33h0zM326 372v-33zM327 371l-1-32h1zM327 371v-32zM327 371v-32h0zM327 371v-32zM327 371v-32 1zM327 371v-31zM327 371v-31h0zM327 371v-31zM327 371v-31h0zM327 371v-31zM327 370v-30h0zM327 370v-30zM328 370l-1-30h1zM328 370v-30zM328 370v-30 1zM328 370v-29zM328 369v-28h0zM328 369v-28zM328 369v-28h0zM328 369v-28zM328 368v-27 1zM328 368v-26zM328 368v-26h0zM328 368v-26zM329 368l-1-26 1 1zM329 368v-25zM329 367v-24h0zM329 367v-24zM329 367v-24 1zM329 367v-23zM329 366v-22h0zM329 366v-22zM329 366v-22h0zM329 366v-22zM329 366v-22 1zM329 366v-21zM329 365v-20h0zM329 365v-20zM330 365l-1-20 1 1zM330 365v-19zM330 364v-18h0zM330 364v-18zM330 364v-18h0zM330 364v-18zM330 364v-18 1zM330 364v-17zM330 363v-16h0zM330 363v-16zM330 363v-16h0zM330 363v-16zM330 362v-15 1zM330 362v-14zM330 362v-14h0zM330 362v-14zM330 361v-13 1zM330 361v-12zM330 360v-11 1zM330 360v-10zM331 360l-1-10 1 1zM331 360v-9 8zM331 359v-8 1zM331 359v-7 6zM331 358v-6h0zM331 358v-6zM331 357v-5 1zM331 357v-4zM331 356v-3 1zM331 356v-2z"/></g><g fill="none" stroke="currentColor" clip-path="url(#clipId0)"><path d="M276 319v17h0v1l-5 1-4 3-4 5-2 5v5l1 7 2 4 1 2 2 3 6 3h7v-56z"/><path d="m276 371-4-2-4-2-3-6-1-3v-4l1-3 1-3 2-2 1-2 3-1 3-2h1v30"/></g><g fill="currentColor" stroke="currentColor" clip-path="url(#clipId0)"><path d="M261 357zv-1zM261 357v-1zM261 358v-3zM261 358v-3zM261 358v-3h0zM261 358v-3zM261 359v-5zM261 359v-5zM261 359v-6zM261 359v-6zM261 360v-7h0zM261 360v-7zM261 360v-8zM261 360v-8zM261 361v-10zM261 361v-10zM261 361v-10h0zM261 361v-10zM261 362v-12zM261 362v-12zM261 362v-12h0zM261 362v-12zM262 363l-1-13 1-1zM262 363v-14zM262 363v-14h0zM262 363v-14zM262 363v-14h0zM262 363v-14zM262 364v-16zM262 364v-16zM262 364v-16h0zM262 364v-16zM263 365l-1-17 1-1zM263 365v-18zM263 366v-20zM263 366v-20zM263 366v-20h0zM263 366v-20zM264 367l-1-21 1-1zM264 367v-22zM264 367v-22h0zM264 367v-22zM264 367v-22h0zM264 367v-22 23zM264 368v-24zM264 368v-24zM264 368v-24h0zM264 368v-24zM265 368l-1-24h1zM265 368v-24zM265 369v-25h0zM265 369v-25zM265 369v-26zM265 369v-26zM265 369v-26h0zM265 369v-26zM266 370l-1-27h1zM266 370v-27zM266 370v-28zM266 370v-28zM266 370v-28h0zM266 370v-28zM266 370v-28h0zM266 370v-28zM267 371l-1-29 1-1zM267 371v-30zM267 371v-30h0zM267 371v-30zM267 371v-30h0zM267 371v-30zM268 372l-1-31h1zM268 372v-31zM268 372v-32zM268 372v-32zM268 372v-32h0zM268 372v-32zM269 373l-1-33h1zM269 373v-33zM269 373v-33h0zM269 373v-33zM269 373v-34zM269 373v-34zM270 373l-1-34h1zM270 373v-34zM270 373v-34h0zM270 373v-34zM270 374v-35h0zM270 374v-35zM271 374l-1-35h1zM271 374v-35zM271 374v-36zM271 374v-36zM271 374v-36h0zM271 374v-36l1 36z"/><path d="m272 374-1-36h1zM272 374v-36zM272 374v-36h0zM272 374v-36l1 37z"/><path d="m273 375-1-37 1-1zM273 375v-38zM273 375v-38h0zM273 375v-38zM274 375l-1-38h1zM274 375v-38zM274 375v-38h0zM274 375v-38zM274 375v-38h0zM274 375v-38zM275 375l-1-38h1zM275 375v-38zM275 375v-38h0zM275 375v-38zM275 375v-38h0zM275 375v-38zM276 375l-1-38h1zM276 375v-38zM276 375v-38h0zM276 375v-38zM276 375v-38h0zM276 375v-38zM276 375v-38h0zM276 326zv-2zM276 375v-38zM276 375v-38h0zM276 326v-2 4zM276 328v-5zM276 375v-38zM276 375v-38h0zM276 328v-5zM276 328v-6zM276 375v-38zM276 375v-38h0zM276 328v-6 8zM276 330v-9zM276 375v-38zM276 375v-38h0zM276 330v-9zM276 330v-10zM276 375v-38zM276 375v-38h0zM276 330v-10 12zM276 332v-12h0zM276 375v-38zM276 375v-38h0zM276 332v-12 13zM276 333v-13h0zM276 375v-38zM276 375v-38h0zM276 333v-13 15zM276 335v-16zM276 375v-56zM277 375l-1-56h1zM277 375v-56zM277 375v-56h0zM277 375v-56zM277 375v-56h0zM277 375v-56zM277 375v-56h0zM277 375v-56zM277 375v-56h0zM277 375v-56zM278 375l-1-56h1zM278 375v-56zM278 375v-56h0zM278 375v-56zM278 375v-56h0zM278 375v-56zM278 375v-56h0zM278 375v-56zM279 375l-1-56h1zM279 375v-56zM279 375v-56h0zM279 375v-56zM279 375v-56h0zM279 375v-56zM279 375v-56h0zM279 375v-56zM279 375v-56h0zM279 375v-56zM280 375l-1-56h1zM280 375v-56zM280 375v-56h0zM280 375v-22zM280 375v-22h0zM280 353v-34 28zM280 347v-28h0zM280 375v-22zM280 374v-21 6zM280 347v-28 23zM280 342v-23h0zM280 374v-15zM280 374v-15h0zM280 342v-23zM280 341v-22h0zM280 374v-15 14zM280 373v-14 6zM280 341v-22 17zM280 336v-17h0zM280 373v-8zM280 373v-8h0zM280 336v-17zM280 335v-16h0zM280 373v-8 6zM280 335v-16 11zM280 330v-11h0zM280 330v-11zM280 330v-11h0zM280 330v-11 5zM280 324v-5h0zM280 324v-5h0z"/></g><g fill="none" stroke="currentColor" clip-path="url(#clipId0)"><path d="m271 387 3-2 5-1 1 1v4l-7 1-2 3-2 2-2 3v9l1 3 1 3 2 3 5 2h3l1 2v3h-5l-3-1-3-3-3-4-2-6-1-9 2-7 3-4z"/></g><g fill="currentColor" stroke="currentColor" clip-path="url(#clipId0)"><path d="M263 405v-2zM263 405v-2zM263 405v-2h0zM263 405v-2zM263 405v-3zM263 405v-3zM263 406v-4h0zM263 406v-4zM263 406v-5zM263 406v-5zM263 407v-6h0zM263 407v-6zM263 407v-6h0zM263 407v-6zM264 408l-1-7 1-1zM264 408v-8zM264 408v-8h0zM264 408v-8zM264 409v-10zM264 409v-10zM264 409v-10h0zM264 409v-10zM264 410v-12zM264 410v-12zM264 410v-12h0zM264 410v-12zM264 410v-13zM264 410v-13zM264 411v-14h0zM264 411v-14zM264 411v-14h0zM264 411v-14zM264 411v-15zM264 411v-15zM264 412v-16h0zM264 412v-16zM264 412v-16h0zM264 412v-16zM265 413l-1-17 1-1zM265 413v-18zM265 413v-18h0zM265 413v-18zM265 413v-18h0zM265 413v-18zM265 414v-20zM265 414v-20zM265 414v-20h0zM265 414v-20zM265 414v-20h0zM265 414v-20zM265 414v-21zM265 414v-21zM266 415l-1-22h1zM266 415v-22zM266 415v-22h0zM266 415v-22zM266 415v-23zM266 415v-23zM266 415v-23h0zM266 415v-23zM266 416v-24h0zM266 416v-24zM266 416v-24h0zM266 416v-24zM266 416v-25zM266 416v-25zM266 416v-25h0zM266 416v-25zM266 416v-25h0zM266 416v-13zM267 416l-1-13 1 1zM266 403v-12zM267 403l-1-12h1zM267 416v-12zM267 417v-13 1zM267 403v-12zM267 402v-11h0zM267 417v-12zM267 417v-12h0zM267 402v-11zM267 402v-11h0zM267 417v-12zM267 417v-12 1zM267 402v-11zM267 402v-11h0zM267 417v-11zM267 417v-11h0zM267 402v-11zM267 401v-10h0zM267 417v-11zM267 417v-11 1zM267 401v-10zM267 401v-10h0zM267 417v-10zM267 417v-10h0zM267 401v-10zM267 401v-10h0zM267 417v-10zM267 417v-10h0zM267 401v-10zM267 401v-10h0zM267 417v-10zM267 417v-10h0zM267 401v-10zM267 401v-10h0zM267 417v-10zM267 417v-10h0zM267 401v-10zM267 400v-9h0zM267 417v-10zM267 417v-10 1zM267 400v-9zM267 400v-9h0zM267 417v-9zM267 417v-9h0zM267 400v-9zM267 400v-9h0zM267 417v-9zM267 417v-9h0zM267 400v-9zM267 400v-10zM267 417v-9zM267 417v-9h0zM267 400v-10zM267 400v-10h0zM267 417v-9zM267 417v-9h0zM267 400v-10zM267 399v-9h0zM267 417v-9zM267 417v-9 1zM267 399v-9zM267 399v-9h0zM267 417v-8zM267 417v-8h0zM267 399v-9zM267 399v-9h0zM267 417v-8zM267 418v-9h0zM267 399v-9zM267 399v-9h0zM267 418v-9zM267 418v-9h0zM267 399v-9zM267 399v-9h0zM267 418v-9zM267 418v-9 1zM267 399v-9zM267 398v-8h0zM267 418v-8zM267 418v-8h0zM267 398v-8zM267 398v-8h0zM267 418v-8zM267 418v-8h0zM267 398v-8zM267 398v-8h0zM267 418v-8zM268 418l-1-8h1zM267 398v-8zM268 398l-1-8h1zM268 418v-8zM268 418v-8h0zM268 398v-8zM268 398v-8h0zM268 418v-8zM268 418v-8 1zM268 398v-8zM268 397v-7h0zM268 418v-7zM268 418v-7h0zM268 397v-7zM268 397v-7h0zM268 418v-7zM268 418v-7h0zM268 397v-7zM268 397v-7h0zM268 418v-7zM268 418v-7h0zM268 397v-7zM268 397v-8zM268 418v-7zM268 418v-7h0zM268 397v-8zM268 397v-8h0zM268 418v-7zM268 419v-8h0zM268 397v-8zM268 397v-8h0zM268 419v-8zM268 419v-8h0zM268 397v-8zM268 396v-7h0zM268 419v-8zM268 419v-8h0zM268 396v-7zM268 396v-7h0zM268 419v-8zM268 419v-8 1zM268 396v-7zM268 396v-7h0zM268 419v-7zM268 419v-7h0zM268 396v-7zM268 396v-7h0zM268 419v-7zM268 419v-7h0zM268 396v-7zM268 396v-7h0zM268 419v-7zM268 419v-7h0zM268 396v-7zM268 396v-7h0zM268 419v-7zM269 419l-1-7h1zM268 396v-7zM269 396l-1-7h1zM269 419v-7zM269 419v-7h0zM269 396v-7zM269 395v-6h0zM269 419v-7zM269 419v-7h0zM269 395v-6zM269 395v-7zM269 419v-7zM269 419v-7h0zM269 395v-7zM269 395v-7h0zM269 419v-7zM269 419v-7 1zM269 395v-7zM269 395v-7h0zM269 419v-6zM269 420v-7h0zM269 395v-7zM269 395v-7h0zM269 420v-7zM269 420v-7h0zM269 395v-7zM269 395v-7h0zM269 420v-7zM269 420v-7h0zM269 395v-7zM269 395v-7h0zM269 420v-7zM269 420v-7h0zM269 395v-7zM269 394v-6h0zM269 420v-7zM269 420v-7 1zM269 394v-6zM269 394v-6h0zM269 420v-6zM269 420v-6h0zM269 394v-6zM269 394v-6h0zM269 420v-6zM269 420v-6h0zM269 394v-6zM269 394v-6h0zM269 420v-6zM269 420v-6h0zM269 394v-6zM269 394v-6h0zM269 420v-6zM270 420l-1-6h1zM269 394v-6zM270 394l-1-6h1zM270 420v-6zM270 420v-6h0zM270 394v-6zM270 394v-6h0zM270 420v-6zM270 420v-6h0zM270 394v-6zM270 393v-6zM270 420v-6zM270 420v-6h0zM270 393v-6zM270 393v-6h0zM270 420v-6zM270 420v-6h0zM270 393v-6zM270 393v-6h0zM270 420v-6zM270 420v-6h0zM270 393v-6zM270 393v-6h0zM270 420v-6zM270 421v-7 1zM270 393v-6zM270 393v-6h0zM270 421v-6zM270 421v-6h0zM270 393v-6zM270 393v-6h0zM270 421v-6zM270 421v-6h0zM270 393v-6zM270 393v-6h0zM270 421v-6zM271 421l-1-6h1zM270 393v-6zM271 393l-1-6h1zM271 421v-6zM271 421v-6h0zM271 393v-6zM271 393v-6h0zM271 421v-6zM271 421v-6h0zM271 393v-6zM271 393v-6h0zM271 421v-6zM271 421v-6h0zM271 393v-6zM271 393v-6h0zM271 421v-6zM271 421v-6h0zM271 393v-6zM271 393v-6h0zM271 421v-6zM271 421v-6h0zM271 393v-6zM271 393v-6h0zM271 421v-6zM271 421v-6h0zM271 393v-6zM271 393v-6h0zM271 421v-6zM271 421v-6h0zM271 393v-6zM271 393v-6h0zM271 421v-6zM271 421v-6h0zM271 393v-6zM271 392v-5h0zM271 421v-6zM271 421v-6h0zM271 392v-5zM271 392v-5h0zM271 421v-6zM271 421v-6h0zM271 392v-5zM271 392v-5h0zM271 421v-6zM271 421v-6h0zM271 392v-5zM271 392v-5h0zM271 421v-6zM271 421v-6h0zM271 392v-5zM271 392v-5h0zM271 421v-6zM271 421v-6h0zM271 392v-5zM271 392v-5h0zM271 421v-6zM271 421v-6h0zM271 392v-5zM271 392v-5h0zM271 421v-6zM271 421v-6h0zM271 392v-5zM271 392v-5h0zM271 421v-6zM271 421v-6h0zM271 392v-5zM271 392v-5h0zM271 421v-6zM271 421v-6h0zM271 392v-5zM271 392v-5h0zM271 421v-6zM271 421v-6h0zM271 392v-5zM271 392v-5h0zM271 421v-6zM271 421v-6h0zM271 392v-5zM271 392v-5h0zM271 421v-6zM271 421v-6h0zM271 392v-5zM271 392v-5h0zM271 421v-6zM271 421v-6h0zM271 392v-5zM271 392v-5h0zM271 421v-6zM271 421v-6h0zM271 392v-5zM271 392v-5h0zM271 421v-6zM271 421v-6 1zM271 392v-5zM271 392v-5h0zM271 421v-5zM271 421v-5h0zM271 392v-5zM271 392v-5h0zM271 421v-5zM271 421v-5h0zM271 392v-5zM271 392v-5h0zM271 421v-5zM271 421v-5h0zM271 392v-5zM271 392v-5h0zM271 421v-5zM271 421v-5h0zM271 392v-5zM271 392v-5h0zM271 421v-5zM271 421v-5h0zM271 392v-5zM271 392v-6zM271 421v-5zM271 421v-5h0zM271 392v-6zM271 392v-6h0zM271 421v-5zM271 421v-5h0zM271 392v-6zM271 392v-6h0zM271 421v-5zM271 421v-5h0zM271 392v-6zM271 392v-6h0zM271 421v-5zM271 421v-5h0zM271 392v-6zM271 392v-6h0zM271 421v-5zM271 421v-5h0zM271 392v-6zM271 392v-6h0zM271 421v-5zM272 422l-1-6h1zM271 392v-6zM272 392l-1-6h1zM272 422v-6zM272 422v-6h0zM272 392v-6zM272 392v-6h0zM272 422v-6zM272 422v-6h0zM272 392v-6zM272 392v-6h0zM272 422v-6zM272 422v-6h0zM272 392v-6zM272 392v-6h0zM272 422v-6zM272 422v-6h0zM272 392v-6zM272 392v-6h0zM272 422v-6zM272 422v-6h0zM272 392v-6zM272 391v-5h0zM272 422v-6zM272 422v-6h0zM272 391v-5zM272 391v-5h0zM272 422v-6zM272 422v-6h0zM272 391v-5zM272 391v-5h0zM272 422v-6zM272 422v-6 1zM272 391v-5zM272 391v-5h0zM272 422v-5zM272 422v-5h0zM272 391v-5zM272 391v-5h0zM272 422v-5zM272 422v-5h0zM272 391v-5zM272 391v-5h0zM272 422v-5zM273 422l-1-5h1zM272 391v-5zM273 391l-1-5h1zM273 422v-5zM273 422v-5h0zM273 391v-5zM273 391v-5h0zM273 422v-5zM273 422v-5h0zM273 391v-5zM273 391v-5h0zM273 422v-5zM273 422v-5h0zM273 391v-5zM273 391v-5h0zM273 422v-5zM273 422v-5h0zM273 391v-5zM273 391v-6zM273 422v-5zM273 422v-5h0zM273 391v-6zM273 391v-6h0zM273 422v-5zM273 422v-5h0zM273 391v-6zM273 391v-6h0zM273 422v-5zM273 422v-5h0zM273 391v-6zM273 390v-5h0zM273 422v-5zM274 422l-1-5h1zM273 390v-5zM274 390l-1-5h1zM274 422v-5zM274 423v-6h0zM274 390v-5zM274 390v-5h0zM274 423v-6zM274 423v-6h0zM274 390v-5zM274 390v-5h0zM274 423v-6zM274 423v-6h0zM274 390v-5zM274 390v-5h0zM274 423v-6zM274 423v-6 1zM274 390v-5zM274 390v-5h0zM274 423v-5zM274 423v-5h0zM274 390v-5zM274 390v-5h0zM274 423v-5zM275 423l-1-5h1zM274 390v-5zM275 390l-1-5h1zM275 423v-5zM275 423v-5h0zM275 390v-5zM275 390v-5h0zM275 423v-5zM275 423v-5h0zM275 390v-5zM275 390v-5h0zM275 423v-5zM275 423v-5h0zM275 390v-5zM275 390v-5h0zM275 423v-5zM275 423v-5h0zM275 390v-5zM275 390v-5h0zM275 423v-5zM275 423v-5h0zM275 390v-5zM275 390v-5h0zM275 423v-5zM275 423v-5h0zM275 390v-5zM275 390v-5h0zM275 423v-5zM276 423l-1-5h1zM275 390v-5zM276 390l-1-5h1zM276 423v-5zM276 423v-5h0zM276 390v-5zM276 390v-5h0zM276 423v-5zM276 423v-5h0zM276 390v-5zM276 390v-5h0zM276 423v-5zM276 423v-5h0zM276 390v-5zM276 390v-5h0zM276 423v-5zM276 423v-5h0zM276 390v-5zM276 390v-6zM276 423v-5zM276 423v-5h0zM276 390v-6zM276 390v-6h0zM276 423v-5zM277 423l-1-5h1zM276 390v-6zM277 389l-1-5h1zM277 423v-5zM277 423v-5h0zM277 389v-5zM277 389v-5h0zM277 423v-5zM277 423v-5h0zM277 389v-5zM277 389v-5h0zM277 423v-5zM277 423v-5h0zM277 389v-5zM277 389v-5h0zM277 423v-5zM277 423v-5h0zM277 389v-5zM277 389v-5h0zM277 423v-5zM277 423v-5h0zM277 389v-5zM277 389v-5h0zM277 423v-5zM277 423v-5h0zM277 389v-5zM277 389v-5h0zM277 423v-5zM277 423v-5h0zM277 389v-5zM277 389v-5h0zM277 423v-5zM278 423l-1-5h1zM277 389v-5zM278 389l-1-5h1zM278 423v-5zM278 423v-5h0zM278 389v-5zM278 389v-5h0zM278 423v-5zM278 423v-5h0zM278 389v-5zM278 389v-5h0zM278 423v-5zM278 423v-5h0zM278 389v-5zM278 389v-5h0zM278 423v-5zM278 423v-5h0zM278 389v-5zM278 389v-5h0zM278 423v-5zM278 423v-5h0zM278 389v-5zM278 389v-5h0zM278 423v-5zM278 423v-5h0zM278 389v-5zM278 389v-5h0zM278 423v-5zM279 423l-1-5h1zM278 389v-5zM279 389l-1-5h1zM279 423v-5zM279 423v-5 1zM279 389v-5zM279 389v-5h0zM279 423v-4zM279 423v-4h0zM279 389v-5zM279 389v-5h0zM279 423v-4zM279 423v-5zM279 389v-5zM279 389v-5h0zM279 423v-5zM279 423v-5h0zM279 389v-5zM279 389v-5h0zM279 423v-5zM279 423v-5h0zM279 389v-5zM279 389v-5h0zM279 423v-5zM279 423v-5h0zM279 389v-5zM279 389v-5h0zM279 423v-5zM280 423l-1-5h1zM279 389v-5zM280 389l-1-5h1zM280 423v-5zM280 423v-5h0zM280 389v-3zM280 389v-3h0zM280 386v-2zM280 386v-2h0zM280 423v-5zM280 423v-5h0zM280 389v-3zM280 389v-3 1zM280 386v-2zM280 386v-2h0zM280 423v-5zM280 423v-5h0zM280 389v-2zM280 389v-2h0zM280 386v-2zM280 385zM280 423v-5zM280 423v-5h0zM280 389v-2zM280 389v-2h0zM280 385zM280 385zM280 423v-5zM280 423v-5h0zM280 389v-2zM280 389v-2h0zM280 385zM280 385zM280 423v-5zM280 423v-5h0zM280 389v-2zM280 389v-2 1zM280 385zM280 385zM280 423v-5zM280 423v-5h0zM280 389v-1zM280 389v-1zM280 385zM280 385zM280 423v-5zM280 423v-5h0zM280 389zM280 389zM280 385z"/></g><g fill="none" stroke="currentColor" clip-path="url(#clipId0)"><path d="m294 385 4-1 3 1 2 2v1l1 4v31h-3v-31l-2-3h-3l-2 1-3 2-1 3v28h-4v-38h4v5-1l1-1z"/></g><g fill="currentColor" stroke="currentColor" clip-path="url(#clipId0)"><path d="M286 423v-38zM287 423l-1-38h1zM287 423v-38zM287 423v-38h0zM287 423v-38zM287 423v-38h0zM287 423v-38zM288 423l-1-38h1zM288 423v-38zM288 423v-38h0zM288 423v-38zM288 423v-38h0zM288 423v-38zM289 423l-1-38h1zM289 423v-38zM289 423v-38h0zM289 423v-38zM289 423v-38h0zM289 423v-38zM290 423l-1-38h1zM290 423v-29zM290 423v-29h0zM290 394v-9zM290 394v-9h0zM290 423v-29zM290 423v-29h0zM290 394v-7zM290 394v-7h0zM290 387v-2zM290 386v-1h0zM290 423v-29zM290 423v-29h0zM290 394v-7zM290 394v-7h0zM290 386v-1zM290 386v-1h0zM290 423v-29zM290 423v-29h0zM290 394v-7zM290 394v-7 1zM290 386v-1zM290 386v-1h0zM290 423v-29zM290 423v-29h0zM290 394v-6zM290 394v-6h0zM290 386v-1zM290 386v-1h0zM290 423v-29zM290 423v-29h0zM290 394v-6zM290 394v-6 1zM290 386v-1zM290 385zM290 423v-29zM290 423v-29h0zM290 394v-5zM290 394v-5h0zM290 385zM290 385zM290 394v-5zM290 394v-5h0zM290 394v-5zM290 394v-5 1zM290 394v-4zM290 394v-4h0zM290 394v-4zM290 394v-4h0zM290 394v-4zM290 394v-4h0zM290 394v-4zM290 394v-4h0zM290 394v-4zM290 394v-4h0zM290 394v-4zM290 394v-4h0zM290 394v-4zM290 394v-4h0zM290 394v-4zM290 394v-4h0zM290 394v-4zM290 393v-3h0zM290 393v-3zM290 393v-4zM290 393v-4zM290 393v-4h0zM290 393v-4zM290 393v-4h0zM290 393v-4zM290 393v-4h0zM290 393v-4zM290 393v-4h0zM290 393v-4zM291 393l-1-4h1zM291 393v-4zM291 393v-5zM291 393v-5zM291 392v-4h0zM291 392v-4zM291 392v-4h0zM291 392v-4zM291 392v-4h0zM291 392v-4zM291 392v-4h0zM291 392v-4zM292 392l-1-4 1-1zM292 392v-5zM292 392v-5h0zM292 392v-5zM292 391v-4h0zM292 391v-4zM292 391v-4h0zM292 391v-4zM292 391v-4h0zM292 391v-4zM292 391v-4h0zM292 391v-4zM292 391v-4h0zM292 391v-4zM293 391l-1-4 1-1zM293 391v-5zM293 391v-5h0zM293 391v-5zM293 391v-5h0zM293 391v-5zM293 390v-4h0zM293 390v-4zM293 390v-4h0zM293 390v-4zM293 390v-4h0zM293 390v-4zM294 390l-1-4h1zM294 390v-4zM294 390v-4h0zM294 390v-4zM294 390v-4h0zM294 390v-4zM294 390v-5zM294 390v-5zM294 390v-5h0zM294 390v-5zM294 390v-5h0zM294 390v-5zM294 390v-5h0zM294 390v-5zM294 390v-5h0zM294 390v-5zM294 390v-5h0zM294 390v-5zM294 390v-5h0zM294 390v-5zM294 390v-5h0zM294 390v-5zM294 390v-5h0zM294 390v-5zM294 390v-5h0zM294 390v-5zM294 390v-5h0zM294 390v-5zM294 390v-5h0zM294 390v-5zM294 390v-5h0zM294 390v-5zM294 390v-5h0zM294 390v-5zM294 390v-5h0zM294 390v-5zM294 390v-5h0zM294 390v-5zM294 390v-5h0zM294 390v-5zM294 390v-5h0zM294 390v-5zM294 390v-5h0zM294 390v-5zM294 390v-5h0zM294 390v-5zM294 390v-5h0zM294 390v-5zM294 390v-5h0zM294 390v-5zM294 390v-5h0zM294 390v-5zM294 390v-5h0zM294 390v-5zM294 390v-5h0zM294 390v-5zM294 390v-5h0zM294 390v-5zM295 389l-1-4h1zM295 389v-4zM295 389v-4h0zM295 389v-4zM295 389v-4h0zM295 389v-4zM295 389v-4h0zM295 389v-4zM295 389v-4h0zM295 389v-4zM296 389l-1-4h1zM296 389v-4zM296 389v-4h0zM296 389v-4zM296 389v-4h0zM296 389v-4zM296 389v-4h0zM296 389v-4zM297 389l-1-4 1-1zM297 389v-5zM297 389v-5h0zM297 389v-5zM297 389v-5h0zM297 389v-5zM297 389v-5h0zM297 389v-5zM298 389l-1-5h1zM298 389v-5zM298 389v-5h0zM298 389v-5zM298 389v-5h0zM298 389v-5zM298 389v-5h0zM298 389v-5zM298 389v-5h0zM298 389v-5zM298 389v-5h0zM298 389v-5zM299 389l-1-5h1zM299 389v-5zM299 389v-5h0zM299 389v-5zM299 389v-5h0zM299 389v-5zM299 389v-5h0zM299 389v-5zM299 389v-5h0zM299 389v-5zM299 389v-5h0zM299 389v-5zM300 390l-1-6 1 1zM300 390v-5zM300 390v-5h0zM300 390v-5zM300 390v-5h0zM300 390v-5zM300 390v-5h0zM300 390v-5zM300 390v-5h0zM300 390v-5zM300 390v-5h0zM300 390v-5zM300 390v-5h0zM300 390v-5zM300 390v-5h0zM300 390v-5zM300 390v-5h0zM300 390v-5zM300 391v-6h0zM300 391v-6zM300 391v-6h0zM300 391v-6zM300 391v-6h0zM300 391v-6zM300 391v-6h0zM300 391v-6zM300 391v-6h0zM300 391v-6zM301 392l-1-7h1zM301 392v-7zM301 392v-7h0zM301 392v-7zM301 392v-7h0zM301 392v-7zM301 393v-8h0zM301 393v-8zM301 393v-8h0zM301 393v-8zM301 393v-8h0zM301 393v-8zM301 394v-9h0zM301 394v-9zM301 394v-9h0zM301 406zv-3zM301 394v-9zM301 394v-9h0zM301 406v-3 6zM301 409v-8zM301 394v-9zM301 394v-9h0zM301 409v-8zM301 410v-10zM301 394v-9zM301 394v-9h0zM301 410v-10 12zM301 412v-14zM301 394v-9zM301 394v-9h0zM301 412v-14zM301 413v-17zM301 394v-9zM301 394v-9h0zM301 413v-28 29zM301 414v-29h0zM301 414v-29zM301 415v-30h0zM301 415v-30 33zM301 418v-33h0zM301 418v-33 36zM301 421v-36h0zM301 421v-36 38zM301 423v-38h0zM301 423v-38zM301 423v-38h0zM301 423v-38zM301 423v-38h0zM301 423v-38zM301 423v-38h0zM301 423v-38zM301 423v-38 1zM301 423v-37zM301 423v-37h0zM301 423v-37zM302 423l-1-37h1zM302 423v-37zM302 423v-37h0zM302 423v-37zM302 423v-37h0zM302 423v-37zM302 423v-37h0zM302 423v-37zM302 423v-37 1zM302 423v-36zM302 423v-36h0zM302 423v-36zM302 423v-36h0zM302 423v-36zM303 423l-1-36h1zM303 423v-36zM303 423v-36h0zM303 423v-36zM303 423v-36 1zM303 423v-35zM303 423v-35h0zM303 423v-35zM303 423v-35h0zM303 423v-35zM303 423v-35 1zM303 423v-34zM303 423v-34h0zM303 423v-34zM303 423v-34 1zM303 423v-33zM304 423l-1-33h1zM304 423v-33zM304 423v-33h0zM304 423v-33zM304 423v-33 1zM304 423v-32zM304 423v-32 1zM304 423v-31zM304 423v-31h0zM304 423v-31zM304 423v-31 1zM304 423v-30zM304 423v-30 1zM304 423v-29zM304 423v-29h0zM304 423v-29 27zM304 421v-27h0zM304 421v-27zM304 421v-27 1zM304 421v-26 23zM304 418v-23h0zM304 418v-23 20zM304 415v-20h0zM304 415v-18zM304 415v-18h0zM304 397v-2zM304 397v-2h0zM304 415v-18 15zM304 412v-15 3zM304 397v-2zM304 397v-2h0zM304 412v-12zM304 412v-12h0zM304 397v-2zM304 397v-2h0zM304 412v-12 9zM304 409v-9 3zM304 397v-2zM304 396v-1h0zM304 409v-6zM304 409v-6h0zM304 396v-1zM304 396v-1h0zM304 409v-6 3zM304 396v-1zM304 396v-1h0zM304 396v-1h0z"/></g><g fill="none" stroke="currentColor" clip-path="url(#clipId0)"><path d="m250 416-3-3-2-3-1-7 1-1h15l1-2-1-6-1-3-3-4-3-3h-4l-3 2-2 3-2 6-1 6v3l1 5 1 5 2 4 4 3 4 2h4l1-3v-2h-6z"/><path d="m246 392 3-3 3-1 2 1 2 3 1 4v2h-13l1-2z"/></g><g fill="currentColor" stroke="currentColor" clip-path="url(#clipId0)"><path d="M241 404v-2zM241 404v-2zM241 404v-2h0zM241 404v-2zM241 405v-4zM241 405v-4zM241 405v-4h0zM241 405v-4zM241 405v-5zM241 405v-5zM241 405v-5h0zM241 405v-5zM241 406v-7zM241 406v-7zM241 406v-7h0zM241 406v-7zM241 406v-8zM241 406v-8zM241 407v-9h0zM241 407v-9zM241 407v-9h0zM241 407v-9zM241 407v-10zM241 407v-10zM241 407v-10h0zM241 407v-10zM241 408v-11h0zM241 408v-11zM242 408l-1-11 1-1zM242 408v-12zM242 408v-12h0zM242 408v-12zM242 409v-13h0zM242 409v-13zM242 409v-13h0zM242 409v-13zM242 410v-15zM242 410v-15zM242 410v-15h0zM242 410v-15zM242 410v-15h0zM242 410v-15zM242 411v-17zM242 411v-17zM242 411v-17h0zM242 411v-17zM242 411v-17h0zM242 411v-17zM242 412v-19zM242 412v-19zM242 412v-19h0zM242 412v-19zM242 412v-20zM242 412v-20zM243 413l-1-21h1zM243 413v-21zM243 413v-21h0zM243 413v-21zM243 414v-23zM243 414v-23zM243 414v-23h0zM243 414v-23zM243 414v-24zM243 414v-24zM243 414v-24h0zM243 414v-24l1 25z"/><path d="m244 415-1-25 1-1zM244 415v-26zM244 415v-26h0zM244 415v-26zM244 416v-27h0zM244 416v-27zM244 416v-28zM244 416v-28zM244 416v-28h0zM244 416v-28zM244 416v-28h0zM244 416v-14zM244 416v-14 1zM244 402v-14zM244 402v-14h0zM244 416v-13zM244 417v-14h0zM244 402v-14zM244 402v-14h0zM244 417v-14zM244 417v-14 1zM244 402v-14zM244 402v-14h0zM244 417v-13zM244 417v-13h0zM244 402v-14zM244 402v-14h0zM244 417v-13zM245 417l-1-13 1 1zM244 402v-14zM245 402l-1-14h1zM245 417v-12zM245 417v-12h0zM245 402v-14zM245 402v-14h0zM245 417v-12zM245 417v-12 1zM245 402v-14zM245 402v-14h0zM245 417v-11zM245 417v-11h0zM245 402v-14zM245 402v-14h0zM245 417v-11zM245 417v-11 1zM245 402v-14zM245 402v-15zM245 417v-10zM245 417v-10h0zM245 402v-15zM245 402v-15h0zM245 417v-10zM245 417v-10 1zM245 402v-15zM245 402v-15h0zM245 417v-9zM245 417v-9h0zM245 402v-15zM245 402v-15h0zM245 417v-9zM245 418v-10 1zM245 402v-15zM245 402v-15h0zM245 418v-9zM245 418v-9h0zM245 402v-15zM245 402v-15h0zM245 418v-9zM245 418v-9h0zM245 402v-15zM245 402v-15h0zM245 418v-9zM245 418v-9 1zM245 402v-15zM245 402v-16zM245 418v-8zM246 418l-1-8 1 1zM245 402v-16zM246 402l-1-16h1zM246 418v-7zM246 418v-7h0zM246 402v-16zM246 402v-16h0zM246 418v-7zM246 418v-7h0zM246 402v-16zM246 402v-16h0zM246 418v-7zM246 419v-8h0zM246 402v-16zM246 402v-16h0zM246 419v-8zM246 419v-8h0zM246 402v-16zM246 402v-16h0zM246 419v-8zM246 419v-8h0zM246 402v-16zM246 402v-16h0zM246 419v-8zM246 419v-8 1zM246 402v-16zM246 402v-16h0zM246 419v-7zM246 419v-7h0zM246 402v-16zM246 402v-17zM246 419v-7zM246 419v-7h0zM246 402v-17zM246 402v-17h0zM246 419v-7zM246 419v-7 1zM246 402v-17zM246 402v-17h0zM246 419v-6zM247 419l-1-6h1zM246 402v-17zM247 402l-1-17h1zM247 419v-6zM247 420v-7h0zM247 402v-17zM247 402v-17h0zM247 420v-7zM247 420v-7h0zM247 402v-17zM247 402v-17h0zM247 420v-7zM247 420v-7h0zM247 402v-17zM247 402v-17h0zM247 420v-7zM247 420v-7 1zM247 402v-17zM247 402v-17h0zM247 420v-6zM247 420v-6h0zM247 402v-17zM247 402v-17h0zM247 420v-6zM247 420v-6h0zM247 402v-17zM247 402v-17h0zM247 420v-6zM248 420l-1-6h1zM247 402v-17zM248 402l-1-17 1-1zM248 420v-6zM248 420v-6h0zM248 402v-18zM248 402v-18h0zM248 420v-6zM248 420v-6h0zM248 402v-18zM248 402v-18h0zM248 420v-6zM248 421v-7 1zM248 402v-18zM248 402v-18h0zM248 421v-6zM248 421v-6h0zM248 402v-18zM248 402v-18h0zM248 421v-6zM248 421v-6h0zM248 402v-18zM248 402v-18h0zM248 421v-6zM248 421v-6h0zM248 402v-18zM248 402v-18h0zM248 421v-6zM249 421l-1-6 1 1zM248 402v-18zM249 402l-1-18h1zM249 421v-5zM249 421v-5h0zM249 402v-18zM249 402v-18h0zM249 421v-5zM249 421v-5h0zM249 402v-18zM249 402v-18h0zM249 421v-5zM249 421v-5h0zM249 402v-18zM249 402v-18h0zM249 421v-5zM249 422v-6h0zM249 402v-18zM249 402v-18h0zM249 422v-6zM249 422v-6h0zM249 402v-18zM249 402v-18h0zM249 422v-6zM250 422l-1-6h1zM249 402v-18zM250 402l-1-18h1zM250 422v-6zM250 422v-6h0zM250 402v-18zM250 402v-18h0zM250 422v-6zM250 422v-6 1zM250 402v-18zM250 402v-19zM250 422v-5zM250 422v-5h0zM250 402v-19zM250 402v-19h0zM250 422v-5zM250 422v-5h0zM250 402v-19zM250 402v-19h0zM250 422v-5zM250 422v-5h0zM250 402v-19zM250 402v-19h0zM250 422v-5zM250 422v-5h0zM250 402v-19zM250 402v-19h0zM250 422v-5zM251 422l-1-5h1zM250 402v-19zM251 402l-1-19h1zM251 422v-5zM251 422v-5h0zM251 402v-19zM251 402v-19h0zM251 422v-5zM251 422v-5h0zM251 402v-19zM251 402v-19h0zM251 422v-5zM251 422v-5h0zM251 402v-19zM251 402v-19h0zM251 422v-5zM251 422v-5h0zM251 402v-19zM251 402v-19h0zM251 422v-5zM251 422v-5h0zM251 402v-19zM251 402v-19h0zM251 422v-5zM251 423v-6h0zM251 402v-19zM251 402v-19h0zM251 423v-6zM252 423l-1-6 1 1zM251 402v-19zM252 402l-1-19h1zM252 423v-5zM252 423v-5h0zM252 402v-19zM252 402v-19h0zM252 423v-5zM252 423v-5h0zM252 402v-19zM252 402v-19 1zM252 423v-5zM252 423v-5h0zM252 402v-18zM252 402v-18h0zM252 423v-5zM252 423v-5h0zM252 402v-18zM252 402v-18h0zM252 423v-5zM252 423v-5h0zM252 402v-18zM252 402v-18h0zM252 423v-5zM253 423l-1-5h1zM252 402v-18zM253 402l-1-18h1zM253 423v-5zM253 423v-5h0zM253 402v-18zM253 402v-18h0zM253 423v-5zM253 423v-5h0zM253 402v-18zM253 402v-18h0zM253 423v-5zM253 423v-5h0zM253 402v-18zM253 402v-18h0zM253 423v-5zM253 423v-5h0zM253 402v-18zM253 402v-18h0zM253 423v-5zM254 423l-1-5h1zM253 402v-18zM254 402l-1-18h1zM254 423v-5zM254 423v-5h0zM254 402v-18zM254 402v-18h0zM254 423v-5zM254 423v-5h0zM254 402v-18zM254 402v-18h0zM254 423v-5zM254 423v-5h0zM254 402v-18zM254 402v-18 1zM254 423v-5zM254 423v-5h0zM254 402v-17zM254 402v-17h0zM254 423v-5zM254 423v-5h0zM254 402v-17zM254 402v-17h0zM254 423v-5zM255 423l-1-5h1zM254 402v-17zM255 402l-1-17h1zM255 423v-5zM255 423v-5h0zM255 402v-17zM255 402v-17h0zM255 423v-5zM255 423v-5h0zM255 402v-17zM255 402v-17h0zM255 423v-5zM255 423v-5h0zM255 402v-17zM255 402v-17h0zM255 423v-5zM255 423v-5h0zM255 402v-17zM255 402v-17h0zM255 423v-5zM255 423v-5h0zM255 402v-17zM255 402v-17h0zM255 423v-5zM255 423v-5h0zM255 402v-17zM255 402v-17 1zM255 423v-5zM255 423v-5h0zM255 402v-16zM255 402v-16h0zM255 423v-5zM256 423l-1-5h1zM255 402v-16zM256 402l-1-16h1zM256 423v-5zM256 423v-5h0zM256 402v-16zM256 402v-16h0zM256 423v-5zM256 423v-5h0zM256 402v-16zM256 402v-16h0zM256 423v-5zM256 423v-5h0zM256 402v-16zM256 402v-16 1zM256 423v-5zM256 423v-5h0zM256 402v-15zM256 402v-15h0zM256 423v-5zM256 423v-5h0zM256 402v-15zM256 402v-15h0zM256 423v-5zM257 423l-1-5 1 1zM256 402v-15zM257 402l-1-15h1zM257 423v-4zM257 423v-4h0zM257 402v-15zM257 402v-15h0zM257 423v-4zM257 423v-4h0zM257 402v-15zM257 402v-15 1zM257 423v-4zM257 423v-4h0zM257 402v-14zM257 402v-14h0zM257 423v-4zM257 423v-4h0zM257 402v-14zM257 402v-14h0zM257 423v-4zM257 423v-4h0zM257 402v-14zM257 402v-14h0zM257 423v-4zM257 423v-5zM257 402v-14zM257 402v-14 1zM257 423v-5zM258 423l-1-5h1zM257 402v-13zM258 402l-1-13h1zM258 423v-5zM258 423v-5h0zM258 402v-13zM258 402v-13h0zM258 423v-4zM258 423v-4h0zM258 402v-13zM258 402v-13h0zM258 423v-4zM258 423v-4 1zM258 402v-13zM258 402v-13h0zM258 423v-3zM258 423v-3h0zM258 402v-13zM258 402v-13h0zM258 423v-3zM258 423v-3h0zM258 402v-13zM258 402v-13h0zM258 423v-3zM258 422v-2 1zM258 402v-13zM258 402v-13h0zM258 422v-1zM258 422v-1h0zM258 402v-13zM258 402v-13h0zM258 422v-1zM258 422v-1zM258 402v-13zM258 402v-13h0zM258 422zM258 402v-13zM258 402v-13h0zM258 402v-13zM258 402v-13h0zM258 402v-13zM258 402v-13 1zM258 402v-12zM259 402l-1-12 1 1zM259 402v-11zM259 402v-11 1zM259 402v-10zM259 402v-10h0zM259 402v-10zM259 402v-10 1zM259 402v-9zM259 402v-9h0zM259 402v-9zM260 402l-1-9 1 1zM260 402v-8zM260 402v-8 1zM260 402v-7zM260 402v-7 1zM260 402v-6zM260 402v-6 1zM260 402v-5zM260 402v-5 1zM260 402v-4zM260 402v-4 1zM260 402v-3zM260 402v-3 1zM260 402v-2zM261 402l-1-2zM261 402z"/></g><g fill="none" stroke="currentColor" clip-path="url(#clipId0)"><path d="m331 399-2-7-4-6-3-2h-4l-3 2-2 2-2 5-1 7v12l2 5 4 6 4 1h3l4-5 2-5 1-5z"/><path d="m326 413-1 3-3 3h-3l-3-2-2-3-1-8v-8l2-4v-2l3-3 2-1 3 1 3 5 1 6 1 4z"/></g><g fill="currentColor" stroke="currentColor" clip-path="url(#clipId0)"><path d="M309 406v-3zM309 406v-3zM309 406v-3h0zM309 406v-3zM310 407l-1-4 1-1zM310 407v-5zM310 407v-6zM310 407v-6zM310 407v-6h0zM310 407v-6 7zM310 408v-8zM310 408v-8zM310 409v-10zM310 409v-10zM310 410v-12zM310 410v-12zM310 410v-12h0zM310 410v-12zM310 411v-14zM310 411v-14zM310 411v-15zM310 411v-15zM310 412v-16h0zM310 412v-16zM311 413l-1-17 1-1zM311 413v-18zM311 413v-18h0zM311 413v-18 19zM311 414v-20zM311 414v-20zM311 414v-21zM311 414v-21 22zM311 415v-22h0zM311 415v-22zM311 415v-23zM311 415v-23zM311 416v-24h0zM311 416v-24zM312 416l-1-24 1-1zM312 416v-25zM312 416v-25h0zM312 416v-25zM312 417v-26h0zM312 417v-26zM312 417v-26h0zM312 417v-26zM312 417v-26h0zM312 417v-26zM312 418v-28zM312 418v-28zM312 418v-28h0zM312 418v-28zM313 418l-1-28 1-1zM313 418v-29zM313 419v-30h0zM313 419v-30zM313 419v-30h0zM313 419v-30zM313 419v-30h0zM313 419v-30zM313 420v-32zM313 420v-32zM314 420l-1-32h1zM314 420v-32zM314 420v-32h0zM314 420v-32zM314 420v-33zM314 420v-33zM314 421v-34h0zM314 421v-34zM314 421v-34h0zM314 421v-34zM314 421v-34h0zM314 421v-34zM315 421l-1-34 1-1zM315 421v-35zM315 422v-36h0zM315 422v-36zM315 422v-36h0zM315 422v-36zM315 422v-36h0zM315 422v-36zM316 422l-1-36h1zM316 422v-36zM316 422v-37zM316 422v-37zM316 423v-38h0zM316 423v-38zM316 423v-38h0zM316 423v-38zM316 423v-38h0zM316 423v-38zM316 423v-38h0zM316 423v-38zM317 423l-1-38h1zM317 423v-38zM317 423v-39zM317 423v-39zM317 424v-40h0zM317 424v-40zM317 424v-40h0zM317 424v-40zM318 424l-1-40h1zM318 424v-40zM318 424v-40h0zM318 424v-40zM318 424v-40h0zM318 424v-40zM319 424l-1-40h1zM319 424v-40zM319 424v-40h0zM319 424v-40zM319 424v-40h0zM319 424v-40zM319 424v-40h0zM319 424v-40zM319 424v-40h0zM319 424v-40zM320 424l-1-40h1zM320 424v-40zM320 424v-40h0zM320 424v-40zM320 424v-40h0zM320 424v-40zM320 424v-40h0zM320 424v-40zM320 424v-40h0zM320 424v-40zM321 424l-1-40h1zM321 424v-40zM321 424v-40h0zM321 424v-40zM321 424v-40h0zM321 424v-40zM322 424l-1-40h1zM322 424v-40zM322 424v-40h0zM322 424v-40zM322 424v-40h0zM322 424v-40zM322 424v-40h0zM322 424v-40zM323 424l-1-40h1zM323 424v-40zM323 424v-40h0zM323 424v-40zM323 423v-39h0zM323 423v-39zM323 423v-39h0zM323 423v-39zM323 423v-39h0zM323 423v-39zM323 423v-39 1zM323 423v-38zM324 423l-1-38h1zM324 423v-38zM324 423v-38h0zM324 423v-38zM324 423v-38h0zM324 423v-38zM324 423v-38h0zM324 423v-38zM325 422l-1-37h1zM325 422v-37zM325 422v-37 1zM325 422v-36zM325 422v-36h0zM325 422v-36zM325 422v-36h0zM325 422v-36zM325 422v-36h0zM325 422v-36zM326 421l-1-35h1zM326 421v-35zM326 421v-35h0zM326 421v-35zM326 421v-35 1zM326 421v-34zM326 421v-34h0zM326 421v-34zM326 420v-33h0zM326 420v-33zM327 420l-1-33 1 1zM327 420v-32zM327 420v-32h0zM327 420v-32zM327 420v-32h0zM327 420v-32zM327 419v-31h0zM327 419v-31zM327 419v-31 1zM327 419v-30zM327 419v-30h0zM327 419v-30zM327 419v-30h0zM327 419v-30zM328 419l-1-30h1zM328 419v-30zM328 418v-29 1zM328 418v-28zM328 418v-28h0zM328 418v-28zM328 418v-28h0zM328 418v-28zM328 417v-27 1zM328 417v-26zM328 417v-26h0zM328 417v-26zM329 416l-1-25 1 1zM329 416v-24zM329 416v-24h0zM329 416v-24zM329 415v-23 1zM329 415v-22zM329 415v-22h0zM329 415v-22zM329 414v-21h0zM329 414v-21zM329 414v-21 1zM329 414v-20zM330 414l-1-20h1zM330 414v-20 19zM330 413v-19 1zM330 413v-18zM330 413v-18h0zM330 413v-18zM330 412v-17 1zM330 412v-16zM330 412v-16h0zM330 412v-16zM330 411v-15 1zM330 411v-14zM330 411v-14h0zM330 411v-14zM330 411v-14h0zM330 411v-14 13zM330 410v-13 1zM330 410v-12zM330 410v-12h0zM330 410v-12l1 11z"/><path d="m331 409-1-11 1 1zM331 409v-10zM331 409v-10h0zM331 409v-10 9zM331 408v-9h0zM331 408v-9zM331 407v-8 1zM331 407v-7zM331 407v-7 1zM331 407v-6 5zM331 406v-5 1zM331 406v-4zM331 405v-3h0zM331 405v-3zM331 405v-3 1zM331 405v-2h0z"/></g><g fill="none" stroke="currentColor" clip-path="url(#clipId0)"><path d="M215 432V308h124v124z"/></g></svg>