<svg xmlns="http://www.w3.org/2000/svg" xml:space="preserve" fill-rule="evenodd" stroke-linecap="round" stroke-linejoin="round" style="background-color:transparant" viewBox="0 0 1024 768"><defs><style><![CDATA[g[clip-path]>*{vector-effect:non-scaling-stroke}]]></style></defs><g fill="none" stroke="currentColor" clip-path="url(#clipId0)"><path d="M10 84h1004M1014 84v95M1014 179H10M10 179v50M10 229h1004M10 84v565M10 649h1004M1014 649V179M1014 555H10M10 505h1004M345 84v95M679 84v95M345 555v94M679 555v94"/><circle cx="970" cy="602" r="12.5"/><circle cx="932.4" cy="602" r="12.5"/><circle cx="760.9" cy="602" r="12.5"/><circle cx="723.2" cy="602" r="12.5"/><circle cx="635.4" cy="602" r="12.5"/><circle cx="597.8" cy="602" r="12.5"/><circle cx="426.2" cy="602" r="12.5"/><circle cx="388.6" cy="602" r="12.5"/><circle cx="300.8" cy="602" r="12.5"/><circle cx="263.1" cy="602" r="12.5"/><circle cx="91.6" cy="602" r="12.5"/><circle cx="54" cy="602" r="12.5"/><circle cx="54" cy="479.7" r="9.4"/><circle cx="91.6" cy="479.7" r="9.4"/><circle cx="263.1" cy="479.7" r="9.4"/><circle cx="300.8" cy="479.7" r="9.4"/><circle cx="388.6" cy="479.7" r="9.4"/><circle cx="426.2" cy="479.7" r="9.4"/><circle cx="597.8" cy="479.7" r="9.4"/><circle cx="635.4" cy="479.7" r="9.4"/><circle cx="723.2" cy="479.7" r="9.4"/><circle cx="760.9" cy="479.7" r="9.4"/><circle cx="932.4" cy="479.7" r="9.4"/><circle cx="970" cy="479.7" r="9.4"/></g><g fill="currentColor" stroke="currentColor" clip-path="url(#clipId0)"><text font-family="@Malgun Gothic,'sans-serif'" font-size="1.4" transform="matrix(10 0 0 10 104 484)">OUT</text></g><g fill="none" stroke="currentColor" clip-path="url(#clipId0)"><path d="M72 342v-47M72 295h75M147 295v95M147 390H72M72 390v-48"/></g><g fill="none" stroke="currentColor" clip-path="url(#clipId0)"><path d="M198 393V268M198 268h125M323 268v125M323 393H198M983 342v-47M983 295h-76M907 295v95M907 390h76M983 390v-48M904 422h19zM775 422h-19zM588 422h-19zM445 422h-19zM254 422h-19zM98 422h19z"/><circle cx="107.8" cy="421.8" r="9.4"/><circle cx="244.1" cy="421.8" r="9.4"/><circle cx="435.3" cy="421.8" r="9.4"/><circle cx="578.8" cy="421.8" r="9.4"/><circle cx="765.4" cy="421.8" r="9.4"/><circle cx="913.4" cy="421.8" r="9.4"/></g><g fill="currentColor" stroke="currentColor" clip-path="url(#clipId0)"><text font-family="@Malgun Gothic,'sans-serif'" font-size="1.4" transform="matrix(19 0 0 19 82 431)">0</text><text font-family="@Malgun Gothic,'sans-serif'" font-size="1.4" transform="matrix(19 0 0 19 222 432)">1</text><text font-family="@Malgun Gothic,'sans-serif'" font-size="1.4" transform="matrix(19 0 0 19 408 430)">2</text><text font-family="@Malgun Gothic,'sans-serif'" font-size="1.4" transform="matrix(19 0 0 19 551 431)">3</text><text font-family="@Malgun Gothic,'sans-serif'" font-size="1.4" transform="matrix(19 0 0 19 740 431)">4</text><text font-family="@Malgun Gothic,'sans-serif'" font-size="1.4" transform="matrix(19 0 0 19 885 430)">5</text></g><g fill="none" stroke="currentColor" clip-path="url(#clipId0)"><path d="M853 342h-19z"/><circle cx="843.9" cy="342.5" r="9.4"/></g><g fill="currentColor" stroke="currentColor" clip-path="url(#clipId0)"><text font-family="@Malgun Gothic,'sans-serif'" font-size="1.4" transform="matrix(13 0 0 13 394 314)">ANALOG OUTPUT MODULE</text><text font-family="@Malgun Gothic,'sans-serif'" font-size="1.4" transform="matrix(13 0 0 13 393 332)">OUTPUT 0-10 V/1 - 10V</text><text font-family="@Malgun Gothic,'sans-serif'" font-size="1.4" transform="matrix(13 0 0 13 393 352)">MAX. LOAD 6 X10 mA/50mA</text><text font-family="@Malgun Gothic,'sans-serif'" font-size="1.4" transform="matrix(19 0 0 19 677 357)">CE</text></g><g fill="none" stroke="currentColor" clip-path="url(#clipId0)"><path d="M384 293v71M384 364h338M384 293h338M722 293v71M54 602v82M92 602v82M263 602v82M301 602v82M389 602v82M426 602v82M598 602v82M635 602v82M723 602v82M761 602v82M932 602v82M970 602v82"/></g><g fill="currentColor" stroke="currentColor" clip-path="url(#clipId0)"><text font-family="@Malgun Gothic,'sans-serif'" font-size="1.4" transform="matrix(13 0 0 13 49 465)">-</text><text font-family="@Malgun Gothic,'sans-serif'" font-size="1.4" transform="matrix(13 0 0 13 86 465)">+</text><text font-family="@Malgun Gothic,'sans-serif'" font-size="1.4" transform="matrix(13 0 0 13 258 465)">-</text><text font-family="@Malgun Gothic,'sans-serif'" font-size="1.4" transform="matrix(13 0 0 13 295 465)">+</text><text font-family="@Malgun Gothic,'sans-serif'" font-size="1.4" transform="matrix(13 0 0 13 383 465)">-</text><text font-family="@Malgun Gothic,'sans-serif'" font-size="1.4" transform="matrix(13 0 0 13 420 465)">+</text><text font-family="@Malgun Gothic,'sans-serif'" font-size="1.4" transform="matrix(13 0 0 13 593 465)">-</text><text font-family="@Malgun Gothic,'sans-serif'" font-size="1.4" transform="matrix(13 0 0 13 629 465)">+</text><text font-family="@Malgun Gothic,'sans-serif'" font-size="1.4" transform="matrix(13 0 0 13 718 465)">-</text><text font-family="@Malgun Gothic,'sans-serif'" font-size="1.4" transform="matrix(13 0 0 13 755 465)">+</text><text font-family="@Malgun Gothic,'sans-serif'" font-size="1.4" transform="matrix(13 0 0 13 927 465)">-</text><text font-family="@Malgun Gothic,'sans-serif'" font-size="1.4" transform="matrix(13 0 0 13 964 465)">+</text></g><g fill="none" stroke="currentColor" clip-path="url(#clipId0)"><path d="M488 465h8"/><circle cx="490.3" cy="469.5" r="2.1"/><circle cx="496.4" cy="469.5" r="2.1"/><circle cx="502.6" cy="469.5" r="2.1"/><path d="M505 474h-9M488 479h8"/><circle cx="490.3" cy="484.1" r="2.1"/><circle cx="496.4" cy="484.1" r="2.1"/><circle cx="502.6" cy="484.1" r="2.1"/><path d="M505 489h-9M517 465h8"/><circle cx="518.6" cy="469.5" r="2.1"/><circle cx="524.8" cy="469.5" r="2.1"/><circle cx="531" cy="469.5" r="2.1"/><path d="M533 474h-8M517 479h8"/><circle cx="518.6" cy="484.1" r="2.1"/><circle cx="524.8" cy="484.1" r="2.1"/><circle cx="531" cy="484.1" r="2.1"/><path d="M533 489h-8M154 465h8"/><circle cx="155.6" cy="469.5" r="2.1"/><circle cx="161.8" cy="469.5" r="2.1"/><circle cx="168" cy="469.5" r="2.1"/><path d="M170 474h-8M154 479h8"/><circle cx="155.6" cy="484.1" r="2.1"/><circle cx="161.8" cy="484.1" r="2.1"/><circle cx="168" cy="484.1" r="2.1"/><path d="M170 489h-8M182 465h8"/><circle cx="184" cy="469.5" r="2.1"/><circle cx="190.2" cy="469.5" r="2.1"/><circle cx="196.3" cy="469.5" r="2.1"/><path d="M198 474h-8M182 479h8"/><circle cx="184" cy="484.1" r="2.1"/><circle cx="190.2" cy="484.1" r="2.1"/><circle cx="196.3" cy="484.1" r="2.1"/><path d="M198 489h-8M823 465h8"/><circle cx="824.9" cy="469.5" r="2.1"/><circle cx="831.1" cy="469.5" r="2.1"/><circle cx="837.3" cy="469.5" r="2.1"/><path d="M839 474h-8M823 479h8"/><circle cx="824.9" cy="484.1" r="2.1"/><circle cx="831.1" cy="484.1" r="2.1"/><circle cx="837.3" cy="484.1" r="2.1"/><path d="M839 489h-8M851 465h8"/><circle cx="853.3" cy="469.5" r="2.1"/><circle cx="859.4" cy="469.5" r="2.1"/><circle cx="865.6" cy="469.5" r="2.1"/><path d="M868 474h-9M851 479h8"/><circle cx="853.3" cy="484.1" r="2.1"/><circle cx="859.4" cy="484.1" r="2.1"/><circle cx="865.6" cy="484.1" r="2.1"/><path d="M868 489h-9"/></g><g fill="currentColor" stroke="currentColor" clip-path="url(#clipId0)"><text font-family="@Malgun Gothic,'sans-serif'" font-size="1.4" transform="matrix(7 0 0 7 155 499)">0-10V</text><text font-family="@Malgun Gothic,'sans-serif'" font-size="1.4" transform="matrix(7 0 0 7 136 461)">1-10V</text></g><g fill="none" stroke="currentColor" clip-path="url(#clipId0)"><path d="M198 268v125h125V268z"/></g><g fill="#ed1f24" stroke="#ed1f24" clip-path="url(#clipId0)"><path d="M198 268v125h125V268z"/></g><g fill="none" stroke="currentColor" clip-path="url(#clipId0)"><path d="M198 393V268h125v125z"/><path d="M212 272v73h8v3l-4 1h-4v23l1 4 4 3h3v5h-1l-4-1-4-2-2-4-1-8v-20h0-2l-1-1v-3h3v-72l1-1h3"/><path d="M212 272v73h8v3l-4 1h-4v23l1 4 4 3h3v5h-1l-4-1-4-2-2-4-1-8v-20h0-2l-1-2v-2h3v-73h4"/></g><g fill="currentColor" stroke="currentColor" clip-path="url(#clipId0)"><path d="M205 349v-4zM205 349v-4h0zM205 349v-4zM206 349l-1-4h1zM206 349v-4zM206 349v-4h0zM206 349v-4zM206 349v-4h0zM206 349v-4zM207 349l-1-4h1zM207 349v-4zM207 349v-4h0zM207 349v-4zM208 349l-1-4h1zM208 349v-4zM208 349v-4h0zM208 349v-4zM208 349v-4h0zM208 349v-4zM208 349v-4h0zM208 349v-4zM208 349v-4h0zM208 349v-4zM208 349v-4h0zM208 349v-4zM208 349v-4h0zM208 349v-4zM208 349v-4h0zM208 349v-4zM208 349v-4h0zM208 272zM208 272zM208 349v-4zM208 349v-4h0zM208 272zM208 272zM208 349v-4zM208 349v-4h0zM208 272zM208 272zM208 349v-4zM208 349v-4h0zM208 272zM208 272zM208 349v-4zM208 349v-4h0zM208 272zM208 272zM208 349v-4zM208 349v-4h0zM208 272zM208 272zM208 349v-4zM208 349v-4h0zM208 272zM208 273v-1h0zM208 349v-4zM208 349v-4h0zM208 273v-1zM208 273v-1h0zM208 349v-4zM208 349v-4h0zM208 273v-1zM208 273v-1h0zM208 370zM208 349v-4zM208 349v-4h0zM208 273v-1zM208 273v-1h0zM208 370zM208 370zM208 349v-4zM208 349v-4h0zM208 273v-1zM208 273v-1h0zM208 370zM208 370zM208 349v-4zM208 349v-4h0zM208 273v-1zM208 273v-1h0zM208 370zM208 370zM208 349v-4zM208 349v-4h0zM208 273v-1zM208 274v-2h0zM208 370zM208 371v-2h0zM208 349v-4zM208 349v-4h0zM208 274v-2zM208 274v-2h0zM208 371v-2zM208 371v-2h0zM208 349v-4zM208 349v-4h0zM208 274v-2zM208 274v-2h0zM208 371v-2zM208 371v-2h0zM208 349v-4zM208 349v-4h0zM208 274v-2zM208 274v-2h0zM208 371v-2zM208 371v-2h0zM208 349v-4zM208 349v-4h0zM208 274v-2zM208 274v-2h0zM208 371v-2zM208 371v-2h0zM208 349v-4zM208 349v-4h0zM208 282zM208 274v-2zM208 274v-2h0zM208 371v-3zM208 371v-4zM208 349v-4zM208 349v-5zM208 284v-2 4zM208 286v-4h0zM208 274v-2zM208 274v-2h0zM208 371v-4zM208 371v-4h0zM208 349v-5zM208 349v-6zM208 286v-4 7zM208 289v-7h0zM208 274v-2zM208 275v-3h0zM208 371v-4zM208 371v-5zM208 349v-6 7zM208 350v-10zM208 289v-7 10zM208 292v-11zM208 275v-3zM208 275v-3h0zM208 371v-5zM208 371v-5h0zM208 350v-10zM208 350v-10h0zM208 292v-11zM208 292v-11h0zM208 275v-3zM208 275v-3h0zM208 371v-5zM208 371v-5h0zM208 350v-10zM208 350v-11zM208 292v-11zM208 292v-11h0zM208 275v-3zM208 275v-3h0zM208 371v-5zM208 371v-7zM208 350v-11 12zM208 351v-15zM208 292v-11 16zM208 297v-16h0zM208 275v-3zM208 275v-3h0zM208 371v-7zM208 371v-7h0zM208 351v-15zM208 352v-17zM208 297v-16zM208 297v-16h0zM208 275v-3zM208 275v-3h0zM208 371v-7zM208 371v-7h0zM208 352v-17zM208 352v-19zM208 297v-16 18zM208 299v-18h0zM208 275v-3zM208 275v-3h0zM208 371v-7zM208 371v-7h0zM208 352v-19zM208 352v-19h0zM208 299v-18zM208 299v-18h0zM208 275v-3zM208 275v-3h0zM208 371v-7zM208 371v-8zM208 352v-19zM208 353v-22zM208 299v-18 20zM208 301v-20h0zM208 275v-3zM208 275v-3h0zM208 371v-8zM208 371v-8h0zM208 353v-22zM208 353v-22h0zM208 301v-20zM208 301v-20h0zM208 275v-3zM208 275v-3h0zM208 371v-8zM208 371v-9zM208 353v-22zM208 354v-26zM208 301v-20 23zM208 304v-23h0zM208 275v-3zM208 275v-3h0zM208 371v-9zM208 371v-9h0zM208 354v-26zM208 354v-29zM208 304v-23 25zM208 306v-25h0zM208 275v-3zM208 275v-3h0zM208 371v-9zM208 371v-9h0zM208 354v-29zM208 354v-29h0zM208 306v-25zM208 306v-25h0zM208 275v-3zM208 275v-3h0zM208 371v-9zM208 371v-10zM208 354v-29 30zM208 355v-34zM208 306v-25 30zM208 311v-30h0zM208 275v-3zM208 275v-3h0zM208 371v-10zM208 371v-10h0zM208 355v-34zM208 355v-34h0zM208 311v-30 31zM208 312v-31h0zM208 275v-3zM208 275v-3h0zM208 371v-10zM208 371v-11zM208 355v-34zM208 356v-42zM208 312v-31 33zM208 314v-33h0zM208 275v-3zM208 275v-3h0zM208 371v-11zM208 371v-12zM208 356v-75zM208 356v-75h0zM208 275v-3zM208 275v-3h0zM208 371v-12zM208 371v-12h0zM208 356v-75 78zM208 359v-78h0zM208 275v-3zM208 275v-3h0zM208 371v-90zM208 371v-91zM208 275v-3zM208 275v-3h0zM208 371v-91zM208 371v-91h0zM208 275v-3zM208 275v-3h0zM208 371v-91zM208 371v-92zM208 275v-3 4zM208 276v-4h0zM208 371v-92zM208 371v-92h0zM208 276v-4zM208 276v-4h0zM208 371v-92zM208 371v-93zM208 276v-4zM208 277v-5h0zM208 371v-93zM208 371v-93h0zM208 277v-5zM208 277v-5h0zM208 371v-93zM208 371v-94zM208 277v-5zM208 277v-5h0zM208 371v-99zM208 371v-99h0zM208 371v-99zM208 371v-99h0zM208 371v-99zM208 371v-99h0zM208 371v-99zM208 371v-99h0zM208 371v-99zM208 371v-99h0zM208 371v-99zM208 372V272h0zM208 372V272zM208 372V272h0zM208 372V272zM208 372V272h0zM208 372V272zM208 372V272h0zM208 372V272zM208 372V272h0zM208 372V272zM208 372V272h0zM208 372V272zM208 372V272h0zM208 372V272zM208 372V272h0zM208 372V272zM208 372V272h0zM208 372V272zM208 372V272h0zM208 372V272zM209 372l-1-100h1zM209 372V272zM209 372V272h0zM209 372V272zM209 373V272h0zM209 373V272zM209 373V272h0zM209 373V272zM209 374V272h0zM209 374V272zM209 374V272h0zM209 374V272zM209 375V272h0zM209 375V272zM209 375V272h0zM209 375V272zM209 375V272h0zM209 375V272zM209 376V272h0zM209 376V272zM209 376V272h0zM209 376V272zM209 376V272h0zM209 376V272zM209 376V272h0zM209 376V272zM209 377V272h0zM209 377V272zM209 377V272h0zM209 377V272zM210 377l-1-105h1zM210 377V272zM210 378V272h0zM210 378V272zM210 378V272h0zM210 378V272zM210 378V272h0zM210 378V272zM210 378V272h0zM210 378V272zM210 379V272h0zM210 379V272zM210 379V272h0zM210 379V272zM210 379V272h0zM210 379V272zM210 379V272h0zM210 379V272zM211 380l-1-108h1zM211 380V272zM211 380V272h0zM211 380V272zM211 380V272h0zM211 380V272zM211 380V272h0zM211 380V272zM211 380V272h0zM211 380V272zM211 380V272h0zM211 380V272zM211 380V272h0zM211 380V272zM211 381V272h0zM211 381V272zM211 381V272h0zM211 381V272zM212 381l-1-109h1zM212 381V272zM212 381V272h0zM212 381V272zM212 381V272h0zM212 381V272zM212 381V272h0zM212 381V272zM212 381V272h0zM212 381V272zM212 381V272h0zM212 381V272zM212 381V272h0zM212 381V272zM212 381V272h0zM212 381V272zM212 381V272h0zM212 381V272zM212 381V272h0zM212 381V272zM212 381V272h0zM212 381V272zM212 381V272h0zM212 381V272zM212 381V272h0zM212 381V272zM212 381V272h0zM212 381V272zM212 381V272h0zM212 381V272zM212 381V272h0zM212 381V272zM212 381V272h0zM212 381V272zM212 381V272h0zM212 381v-98zM212 381v-98 8zM212 283v-11 7zM212 279v-7h0zM212 381v-14zM212 381v-14h0zM212 367v-76zM212 367v-76h0zM212 279v-7zM212 279v-7h0zM212 381v-14zM212 381v-14 2zM212 367v-76 74zM212 365v-74 3zM212 279v-7 2zM212 274v-2h0zM212 381v-11zM212 381v-11h0zM212 365v-71zM212 364v-70 1zM212 381v-11zM212 381v-11h0zM212 364v-69 68zM212 363v-68 5zM212 381v-11zM212 381v-11h0zM212 363v-63 62zM212 362v-62 2zM212 381v-11zM212 381v-11h0zM212 362v-60 59zM212 361v-59 3zM212 381v-11zM212 381v-11h0zM212 361v-56 55zM212 360v-55 3zM212 381v-11zM212 381v-11h0zM212 360v-52zM212 359v-51 2zM212 381v-11zM212 381v-11h0zM212 359v-49 47zM212 357v-47 7zM212 381v-11zM212 381v-11h0zM212 357v-40zM212 357v-40 1zM212 381v-11zM212 381v-11h0zM212 357v-39 37zM212 355v-37 8zM212 381v-11zM212 381v-11h0zM212 355v-29zM212 354v-28h0zM212 381v-11zM212 381v-11 1zM212 354v-28 26zM212 352v-26 8zM212 381v-10zM212 381v-10h0zM212 352v-18zM212 352v-18h0zM212 381v-10zM212 381v-10h0zM212 352v-18zM212 351v-17 3zM212 381v-10zM212 381v-10h0zM212 351v-14 12zM212 349v-12 6zM212 381v-10zM212 381v-10h0zM212 349v-6zM212 349v-6 2zM212 381v-10zM212 381v-10h0zM212 349v-4zM212 349v-4h0zM212 381v-10zM212 381v-10 1zM212 349v-4zM212 349v-4h0zM212 381v-9zM212 381v-9h0zM212 349v-4zM212 349v-4h0zM212 381v-9zM212 381v-9 1zM212 349v-4zM212 349v-4h0zM212 381v-8zM212 381v-8h0zM212 349v-4zM212 349v-4h0zM212 381v-8zM212 382v-9 1zM212 349v-4zM212 349v-4h0zM212 382v-8zM212 382v-8h0zM212 349v-4zM212 349v-4h0zM212 382v-8zM213 382l-1-8 1 1zM212 349v-4zM213 349l-1-4h1zM213 382v-7zM213 382v-7h0zM213 349v-4zM213 349v-4h0zM213 382v-7zM213 382v-7h0zM213 349v-4zM213 349v-4h0zM213 382v-7zM213 382v-7 1zM213 349v-4zM213 349v-4h0zM213 382v-6zM213 382v-6h0zM213 349v-4zM213 349v-4h0zM213 382v-6zM213 382v-6h0zM213 349v-4zM213 349v-4h0zM213 382v-6zM213 382v-6h0zM213 349v-4zM213 349v-4h0zM213 382v-6zM213 382v-6h0zM213 349v-4zM213 349v-4h0zM213 382v-6zM214 382l-1-6 1 1zM213 349v-4zM214 349l-1-4h1zM214 382v-5zM214 383v-6h0zM214 349v-4zM214 349v-4h0zM214 383v-6zM214 383v-6h0zM214 349v-4zM214 349v-4h0zM214 383v-6zM214 383v-6h0zM214 349v-4zM214 349v-4h0zM214 383v-6zM214 383v-6h0zM214 349v-4zM214 349v-4h0zM214 383v-6zM214 383v-6h0zM214 349v-4zM214 349v-4h0zM214 383v-6zM214 383v-6h0zM214 349v-4zM214 349v-4h0zM214 383v-6zM215 383l-1-6 1 1zM214 349v-4zM215 349l-1-4h1zM215 383v-5zM215 383v-5h0zM215 349v-4zM215 349v-4h0zM215 383v-5zM215 383v-5h0zM215 349v-4zM215 349v-4h0zM215 383v-5zM215 383v-5h0zM215 349v-4zM215 349v-4h0zM215 383v-5zM215 383v-5h0zM215 349v-4zM215 349v-4h0zM215 383v-5zM215 383v-5h0zM215 349v-4zM215 349v-4h0zM215 383v-5zM216 384l-1-6h1zM215 349v-4zM216 349l-1-4h1zM216 384v-6zM216 384v-6h0zM216 349v-4zM216 349v-4h0zM216 384v-6zM216 384v-6h0zM216 349v-4zM216 349v-4h0zM216 384v-6zM216 384v-6h0zM216 349v-4zM216 349v-4h0zM216 384v-6zM216 384v-6 1zM216 349v-4zM216 349v-4h0zM216 384v-5zM217 384l-1-5h1zM216 349v-4zM217 349l-1-4h1zM217 384v-5zM217 384v-5h0zM217 349v-4zM217 349v-4h0zM217 384v-5zM217 384v-5h0zM217 349v-4zM217 349v-4h0zM217 384v-5zM217 384v-5h0zM217 349v-4zM217 349v-4h0zM217 384v-5zM217 384v-5h0zM217 349v-4zM217 349v-4h0zM217 384v-5zM217 384v-5h0zM217 349v-4zM217 349v-4h0zM217 384v-5zM217 384v-5h0zM217 349v-4zM217 349v-4h0zM217 384v-5zM218 384l-1-5h1zM217 349v-4zM218 349l-1-4h1zM218 384v-5zM218 384v-5h0zM218 349v-4zM218 349v-4h0zM218 384v-5zM218 384v-5h0zM218 349v-4zM218 349v-4h0zM218 384v-5zM218 384v-5h0zM218 349v-4zM218 349v-4h0zM218 384v-5zM218 384v-5h0zM218 349v-4zM218 349v-4h0zM218 384v-5zM218 384v-5h0zM218 349v-4zM218 349v-4h0zM218 384v-5zM218 384v-5h0zM218 349v-4zM218 349v-4h0zM218 384v-5zM219 384l-1-5h1zM218 349v-4zM219 349l-1-4h1zM219 384v-5zM219 384v-5h0zM219 349v-4zM219 349v-4h0zM219 384v-5zM219 384v-5h0zM219 349v-4zM219 349v-4h0zM219 384v-5zM219 384v-5h0zM219 349v-4zM219 349v-4h0zM219 384v-5zM219 384v-5h0zM219 349v-4zM219 349v-4h0zM219 384v-5zM219 384v-5h0zM219 349v-4zM219 349v-4h0zM219 384v-5zM219 384v-5h0zM219 349v-4zM219 349v-4h0zM219 384v-5zM220 384l-1-5h1zM219 349v-4zM220 349l-1-4h1zM220 384v-5zM220 384v-5h0zM220 349v-4zM220 349v-4h0zM220 384v-5zM220 384v-5h0zM220 349v-4zM220 349v-4h0zM220 384v-5zM220 383v-4h0zM220 349v-4zM220 349v-4h0zM220 383v-4zM220 383v-4h0zM220 349v-4zM220 349v-4h0zM220 383v-4zM220 382v-3h0zM220 349v-4zM220 349v-4h0zM220 382v-3zM220 382v-3h0zM220 349v-4zM220 349v-4h0zM220 382v-3 2zM220 381v-2h0zM220 349v-4zM220 349v-4h0zM220 381v-2zM220 380zM220 349v-4zM220 349v-4h0zM220 380zM220 380zM220 349v-4zM220 349v-4h0zM220 380zM220 379zM220 349v-4zM220 349v-4h0zM220 379zM220 349v-4zM220 349v-4h0zM220 349v-4zM220 349v-4h0z"/></g><g fill="none" stroke="currentColor" clip-path="url(#clipId0)"><path d="M270 296h3v29l1 2 5 3 3 1 2-2v-33h1l3 1v31l-2 5-2 2h-3l-3-1-3-1-1-3h-1 0v4l-1 1h-2v-39"/><path d="M270 296h3v29l1 2 5 3 3 1 2-2v-33h1l3 1v31l-2 5-2 2h-3l-3-1-3-1-1-3h-1 0v4l-1 1h-2v-39"/></g><g fill="currentColor" stroke="currentColor" clip-path="url(#clipId0)"><path d="M270 335zM270 335zM270 335zv-3zM270 335v-4zM270 335v-8zM270 335v-8zM270 335v-11zM270 335v-11zM270 335v-14zM270 335v-14zM270 335v-17zM270 335v-17zM270 335v-19zM270 335v-19zM270 335v-22zM270 335v-22zM270 335v-24zM270 335v-24zM270 335v-26zM270 335v-26zM270 335v-27zM270 335v-27zM270 335v-29zM270 335v-29zM270 335v-30zM270 335v-30zM270 335v-31zM270 335v-31zM270 335v-32zM270 335v-32zM270 335v-33zM270 335v-33zM270 335v-34zM270 335v-34zM270 335v-34h0zM270 335v-34zM270 335v-34h0zM270 335v-34zM270 335v-35zM270 335v-35zM270 335v-35h0zM270 335v-35zM270 335v-36zM270 335v-36zM270 335v-36h0zM270 335v-36zM270 335v-37zM270 335v-37zM270 335v-37h0zM270 335v-37zM270 335v-38zM270 335v-38zM270 335v-38h0zM270 335v-38zM270 335v-39zM270 335v-39zM270 335v-39h0zM270 335v-39zM270 335v-39h0zM270 335v-39zM270 335v-39h0zM270 335v-39zM270 335v-39h0zM270 335v-39zM270 335v-39h0zM270 335v-39zM270 335v-39h0zM270 335v-39zM270 335v-39h0zM270 335v-39zM270 335v-39h0zM270 335v-39zM270 335v-39h0zM270 335v-39zM270 335v-39h0zM270 335v-39zM270 335v-39h0zM270 335v-39zM270 335v-39h0zM270 335v-39zM270 335v-39h0zM270 335v-39zM270 335v-39h0zM270 335v-39zM270 335v-39h0zM270 335v-39zM270 335v-39h0zM270 335v-39zM270 335v-39h0zM270 335v-39zM270 335v-39h0zM270 335v-39zM270 335v-39h0zM270 335v-39zM270 335v-39h0zM270 335v-39zM270 335v-39h0zM270 335v-39zM270 335v-39h0zM270 335v-39zM270 335v-39h0zM270 335v-39zM270 335v-39h0zM270 335v-39zM270 335v-39h0zM270 335v-39zM270 335v-39h0zM270 335v-39zM270 335v-39h0zM270 335v-39zM270 335v-39h0zM270 335v-39zM270 335v-39h0zM270 335v-39zM270 335v-39h0zM270 335v-39zM271 335l-1-39h1zM271 335v-39zM271 335v-39h0zM271 335v-39zM271 335v-39h0zM271 335v-39zM272 335l-1-39h1zM272 335v-39zM272 335v-39h0zM272 335v-39zM273 335l-1-39h1zM273 335v-39zM273 335v-39h0zM273 335v-39zM273 335v-39h0zM273 335v-2zM273 335v-2 1zM273 333v-37zM273 333v-37h0zM273 335v-1zM273 335v-1h0zM273 333v-37zM273 332v-36h0zM273 335v-1zM273 335v-1zM273 332v-36zM273 332v-36h0zM273 335zM273 335zM273 332v-36zM273 332v-36h0zM273 335zM273 335zM273 332v-36zM273 332v-36h0zM273 335zM273 335zM273 332v-7zM273 331v-6h0zM273 325v-29zM273 325v-29h0zM273 331v-6zM273 331v-6h0zM273 325v-29 27zM273 323v-27 1zM273 331v-6zM273 331v-6h0zM273 323v-26zM273 323v-26h0zM273 331v-6zM273 331v-6h0zM273 323v-26 24zM273 321v-24 2zM273 331v-6zM273 331v-6h0zM273 321v-22 21zM273 320v-21 1zM273 331v-6zM273 331v-6h0zM273 320v-20zM273 319v-19 1zM273 331v-6zM273 331v-6h0zM273 319v-18 17zM273 318v-17 2zM273 331v-6zM273 331v-6h0zM273 318v-15 13zM273 316v-13 1zM273 331v-6zM273 331v-6h0zM273 316v-12 10zM273 314v-10 2zM273 331v-6zM273 330v-5h0zM273 314v-8 6zM273 312v-6 1zM273 330v-5zM273 330v-5h0zM273 312v-5 4zM273 330v-5zM273 330v-5h0zM273 330v-5zM273 330v-5h0zM273 330v-5zM273 330v-5h0zM273 330v-5zM273 330v-5h0zM273 330v-5zM273 330v-5 1zM273 330v-4zM273 330v-4h0zM273 330v-4zM273 330v-4h0zM273 330v-4zM273 330v-4h0zM273 330v-4zM273 330v-4h0zM273 330v-4zM273 330v-4h0zM273 330v-4zM273 330v-4h0zM273 330v-4zM273 330v-4h0zM273 330v-4zM273 330v-4h0zM273 330v-4zM273 330v-4h0zM273 330v-4zM273 330v-4h0zM273 330v-4zM273 330v-4h0zM273 330v-4zM273 330v-4h0zM273 330v-4zM274 330l-1-4h1zM274 330v-4zM274 330v-4h0zM274 330v-4zM274 331v-5 1zM274 331v-4zM274 331v-4h0zM274 331v-4zM274 331v-4h0zM274 331v-4zM274 331v-4h0zM274 331v-4zM274 331v-4h0zM274 331v-4zM274 331v-4h0zM274 331v-4zM274 331v-4h0zM274 331v-4zM274 332v-5 1zM274 332v-4zM275 332l-1-4h1zM275 332v-4zM275 332v-4h0zM275 332v-4zM275 332v-4h0zM275 332v-4zM275 332v-4h0zM275 332v-4zM275 333v-5h0zM275 333v-5zM275 333v-5h0zM275 333v-5zM276 333l-1-5 1 1zM276 333v-4zM276 333v-4h0zM276 333v-4zM276 333v-4h0zM276 333v-4zM276 333v-4h0zM276 333v-4zM276 334v-5h0zM276 334v-5zM276 334v-5h0zM276 334v-5zM277 334l-1-5 1 1zM277 334v-4zM277 334v-4h0zM277 334v-4zM277 334v-4h0zM277 334v-4zM277 334v-4h0zM277 334v-4zM277 334v-4h0zM277 334v-4zM278 334l-1-4h1zM278 334v-4zM278 334v-4h0zM278 334v-4zM278 335v-5h0zM278 335v-5zM278 335v-5h0zM278 335v-5zM278 335v-5h0zM278 335v-5zM279 335l-1-5h1zM279 335v-5zM279 335v-5h0zM279 335v-5zM279 335v-5h0zM279 335v-5zM279 335v-5h0zM279 335v-5zM279 335v-5 1zM279 335v-4zM279 335v-4h0zM279 335v-4zM280 335l-1-4h1zM280 335v-4zM280 335v-4h0zM280 335v-4zM280 335v-4h0zM280 335v-4zM280 335v-4h0zM280 335v-4zM280 335v-4h0zM280 335v-4zM280 335v-4h0zM280 335v-4zM281 335l-1-4h1zM281 335v-4zM281 335v-4h0zM281 335v-4zM281 335v-4h0zM281 335v-4zM281 335v-4h0zM281 335v-4zM281 335v-4h0zM281 335v-4zM281 335v-4h0zM281 335v-4zM281 335v-4h0zM281 335v-4zM281 335v-4h0zM281 335v-4zM281 335v-4h0zM281 335v-4zM281 335v-4h0zM281 335v-4zM281 335v-4h0zM281 335v-4zM282 335l-1-4h1zM282 335v-4zM282 335v-4h0zM282 335v-4zM282 335v-4h0zM282 335v-4zM282 335v-4h0zM282 335v-4zM282 335v-4h0zM282 335v-4zM282 335v-4h0zM282 335v-4zM282 335v-4h0zM282 335v-4zM282 335v-4h0zM282 335v-4zM282 335v-4h0zM282 335v-4zM282 335v-4h0zM282 335v-4zM283 335l-1-4h1zM283 335v-4zM283 335v-4h0zM283 335v-4zM283 335v-4h0zM283 335v-4zM283 335v-5zM283 335v-5zM283 335v-5h0zM283 335v-5zM283 335v-5h0zM283 335v-5zM283 335v-5h0zM283 335v-5zM283 335v-5h0zM283 335v-5zM283 335v-5h0zM283 335v-5zM283 335v-5h0zM283 335v-5zM284 335l-1-5h1zM284 335v-5zM284 335v-5h0zM284 335v-5zM284 335v-6zM284 335v-6zM284 335v-6h0zM284 335v-6zM284 335v-6h0zM284 335v-6zM284 335v-6h0zM284 335v-6zM284 335v-6h0zM284 335v-6zM284 335v-6h0zM284 335v-6zM284 335v-7zM284 335v-7zM284 335v-7h0zM284 335v-7zM284 335v-7h0zM284 335v-7zM284 335v-7h0zM284 335v-7zM284 335v-7h0zM284 335v-7zM284 335v-8zM284 335v-8zM284 335v-8h0zM284 335v-8zM284 335v-8h0zM284 335v-8zM284 335v-8h0zM284 335v-8zM284 335v-8h0zM284 335v-8zM284 335v-9zM284 335v-9zM284 335v-9h0zM284 335v-9zM284 335v-9h0zM284 335v-9zM284 335v-10zM284 335v-10zM284 335v-10h0zM284 335v-10zM284 335v-10h0zM284 316v-5zM284 335v-10zM284 335v-10h0zM284 316v-5zM284 317v-8zM284 335v-10zM284 335v-10h0zM284 317v-8 10zM284 319v-11zM284 335v-10zM284 335v-10h0zM284 319v-11zM284 319v-12zM284 335v-10zM284 335v-10h0zM284 319v-12zM284 320v-14zM284 335v-10zM284 335v-10h0zM284 323zM284 323zM284 320v-14zM284 321v-15h0zM284 335v-10zM284 335v-10h0zM284 323zM284 323zh0zM284 321v-15zM284 322v-17zM284 335v-10zM284 335v-10h0zM284 323v-18zM284 323v-20zM284 335v-10zM284 335v-10h0zM284 323v-20zM284 323v-23zM284 335v-10zM284 335v-10h0zM284 323v-23zM284 323v-23h0zM284 335v-10zM284 335v-10h0zM284 323v-23zM284 323v-24zM284 335v-10zM284 335v-11zM284 323v-24zM284 323v-26zM284 335v-11zM284 335v-11h0zM284 323v-26zM284 323v-26h0zM284 335v-11zM284 335v-11h0zM284 323v-26zM284 324v-28zM284 335v-11zM284 335v-11h0zM284 324v-28zM284 324v-28h0zM284 335v-11zM284 335v-11h0zM284 324v-28zM284 324v-28h0zM284 335v-39zM285 335l-1-39h1zM285 335v-39zM285 334v-38h0zM285 334v-38zM285 334v-38h0zM285 334v-38zM285 334v-38h0zM285 334v-38zM285 334v-38h0zM285 334v-38zM285 334v-38h0zM285 334v-38zM285 334v-38h0zM285 334v-38zM286 333l-1-37h1zM286 333v-37zM286 333v-37h0zM286 333v-37zM286 333v-37h0zM286 333v-37zM286 333v-37h0zM286 333v-37zM286 333v-37h0zM286 333v-37zM286 333v-37h0zM286 333v-37zM286 333v-37h0zM286 333v-37zM286 332v-36h0zM286 332v-36zM286 332v-36h0zM286 332v-36zM287 332l-1-36h1zM287 332v-36zM287 332v-36h0zM287 332v-36zM287 332v-36h0zM287 332v-36zM287 331v-35h0zM287 331v-35zM287 331v-35h0zM287 331v-35zM287 331v-35h0zM287 331v-35zM287 331v-35h0zM287 331v-35zM287 331v-35h0zM287 331v-35zM287 330v-34h0zM287 330v-34zM287 329v-33h0zM287 329v-33zM287 329v-33h0zM287 329v-33zM288 328l-1-32h1zM288 328v-32zM288 327v-31h0zM288 327v-31zM288 327v-31h0zM288 327v-31zM288 326v-30h0zM288 326v-30zM288 326v-30h0zM288 326v-30zM288 325v-29h0zM288 325v-29zM288 325v-29 1zM288 325v-28zM288 325v-28 3zM288 325v-25zM288 325v-25 3zM288 325v-22zM288 325v-22 4zM288 325v-18zM288 325v-18 3zM288 325v-15zM288 325v-15 1zM288 325v-2zM288 325v-2h0zM288 323v-12 9zM288 320v-9 2zM288 325v-2zM288 325v-2h0zM288 320v-7zM288 320v-7 1zM288 325v-2zM288 325v-2h0zM288 320v-6zM288 319v-5h0zM288 325v-2zM288 325v-2h0zM288 319v-5 2zM288 325v-2zM288 325v-2 1zM288 325v-1z"/></g><g fill="none" stroke="currentColor" clip-path="url(#clipId0)"><path d="m314 308-2-6-3-6-3-1-3-1-3 2-2 2-3 6-1 6-1 6 1 6 2 6 3 5 3 2h3l3-1 2-2 3-6 2-6v-6z"/><path d="m311 320-1 4-2 4-2 2-2 1-2-1-2-2-2-4-1-5v-9l1-4 2-4 2-2 2-1 2 1 2 2 2 4 1 4z"/><path d="m311 320-1 4-2 4-2 2-2 1-2-1-2-2-2-4-1-5v-9l1-4 2-4 2-2 2-1 2 1 2 2 2 4 1 4z"/><path d="m314 308-2-6-3-6-3-1-3-1-3 2-2 2-3 6-1 6-1 6 1 6 2 6 3 5 3 2h3l3-1 2-2 3-6 2-6v-6z"/></g><g fill="currentColor" stroke="currentColor" clip-path="url(#clipId0)"><path d="M293 316v-3zM293 316v-3zM293 316v-3h0zM293 316v-3 4zM293 317v-5zM293 317v-5zM293 317v-5h0zM293 317v-5zM293 318v-6h0zM293 318v-6zM293 318v-6h0zM293 318v-6zM293 318v-7zM293 318v-7 8zM293 319v-9zM293 319v-9zM293 319v-9h0zM293 319v-9l1 10z"/><path d="m294 320-1-10 1-1zM294 320v-11zM294 320v-11h0zM294 320v-11 12zM294 321v-13zM294 321v-13zM294 322v-14h0zM294 322v-14zM294 323v-16zM294 323v-16zM294 323v-16h0zM294 323v-16zM294 323v-16h0zM294 323v-16zM294 324v-18zM294 324v-18zM294 324v-18h0zM294 324v-18zM295 325l-1-19 1-1zM295 325v-20zM295 325v-20h0zM295 325v-20zM295 326v-22zM295 326v-22zM295 326v-22h0zM295 326v-22zM295 326v-22h0zM295 326v-22 23zM295 327v-24zM295 327v-24zM295 327v-24h0zM295 327v-24zM295 327v-24h0zM295 327v-24zM295 327v-25zM295 327v-25zM295 328v-26h0zM295 328v-26zM296 328l-1-26h1zM296 328v-26zM296 328v-26h0zM296 328v-26zM296 328v-26h0zM296 328v-26zM296 329v-28zM296 329v-28zM296 329v-28h0zM296 329v-28zM296 329v-29zM296 329v-29zM296 330v-30h0zM296 330v-30zM297 330l-1-30h1zM297 330v-30zM297 330v-30h0zM297 330v-30zM297 331v-32zM297 331v-32zM297 331v-32h0zM297 331v-32zM297 331v-32h0zM297 331v-32zM298 332l-1-33 1-1zM298 332v-34zM298 332v-34h0zM298 332v-34zM298 332v-34h0zM298 332v-34zM298 332v-35zM298 332v-35zM299 333l-1-36h1zM299 333v-36zM299 333v-36h0zM299 333v-36zM299 333v-36h0zM299 333v-36zM299 333v-36h0zM299 333v-36zM299 333v-36h0zM299 333v-36zM299 333v-36h0zM299 333v-36zM299 333v-37zM299 333v-37zM299 334v-38h0zM299 334v-38zM300 334l-1-38h1zM300 334v-38zM300 334v-38h0zM300 334v-38zM300 334v-38h0zM300 334v-38zM300 334v-38h0zM300 334v-38zM301 335l-1-39 1-1zM301 335v-40zM301 335v-40h0zM301 335v-40zM301 335v-40h0zM301 335v-40zM301 335v-40h0zM301 335v-40zM302 335l-1-40h1zM302 335v-40zM302 335v-40h0zM302 335v-40zM302 335v-40h0zM302 335v-40zM302 335v-40h0zM302 335v-40zM303 335l-1-40 1-1zM303 335v-41zM303 335v-41h0zM303 335v-41zM303 335v-41h0zM303 335v-41zM303 335v-41h0zM303 335v-41zM303 335v-41h0zM303 335v-41zM303 335v-41h0zM303 335v-41zM303 336v-42h0zM303 336v-42zM303 336v-42h0zM303 336v-42zM304 336l-1-42h1zM304 336v-42zM304 336v-42h0zM304 336v-42zM304 336v-42h0zM304 336v-42zM304 336v-42h0zM304 336v-42zM304 336v-42h0zM304 336v-42zM304 336v-42h0zM304 336v-42zM305 336l-1-42h1zM305 336v-42zM305 336v-42h0zM305 336v-42zM305 336v-42h0zM305 336v-42zM305 335v-41h0zM305 335v-41zM305 335v-41h0zM305 335v-41zM305 335v-41h0zM305 335v-41zM305 335v-41h0zM305 335v-41zM306 335l-1-41 1 1zM306 335v-40zM306 335v-40h0zM306 335v-40zM306 335v-40h0zM306 335v-40zM306 335v-40h0zM306 335v-40zM306 335v-40h0zM306 335v-40zM307 335l-1-40h1zM307 335v-40zM307 335v-40h0zM307 335v-40zM307 335v-40h0zM307 335v-40zM307 335v-40h0zM307 335v-40zM307 335v-40h0zM307 335v-40zM307 335v-40h0zM307 335v-40zM307 335v-40h0zM307 335v-40zM307 335v-40h0zM307 335v-40zM308 334l-1-39h1zM308 334v-39zM308 334v-39 1zM308 334v-38zM308 334v-38h0zM308 334v-38zM308 334v-38h0zM308 334v-38zM309 334l-1-38h1zM309 334v-38zM309 334v-38h0zM309 334v-38zM309 333v-37 1zM309 333v-36zM309 333v-36h0zM309 333v-36zM309 333v-36h0zM309 333v-36zM310 333l-1-36h1zM310 333v-36zM310 333v-36h0zM310 333v-36zM310 332v-35h0zM310 332v-35zM310 332v-35 1zM310 332v-34zM310 332v-34h0zM310 332v-34zM310 332v-34h0zM310 332v-34zM310 332v-34h0zM310 332v-34zM310 332v-34h0zM310 332v-34zM311 331l-1-33h1zM311 331v-33zM311 331v-33 1zM311 331v-32zM311 331v-32h0zM311 331v-32zM311 331v-32h0zM311 331v-32zM311 331v-32h0zM311 331v-32zM311 331v-32h0zM311 331v-32zM311 330v-31h0zM311 330v-31zM311 330v-31h0zM311 330v-31zM311 330v-31 1zM311 330v-30zM311 330v-30h0zM311 330v-30zM311 330v-30h0zM311 330v-30zM312 329l-1-29h1zM312 329v-29zM312 329v-29 1zM312 329v-28zM312 329v-28h0zM312 329v-28zM312 328v-27 1zM312 328v-26zM313 328l-1-26h1zM313 328v-26zM313 327v-25 1zM313 327v-24zM313 327v-24h0zM313 327v-24zM313 326v-23h0zM313 326v-23zM313 326v-23 1zM313 326v-22zM313 325v-21h0zM313 325v-21zM314 325l-1-21 1 1zM314 325v-20zM314 324v-19h0zM314 324v-19zM314 324v-19 1zM314 324v-18zM314 323v-17h0zM314 323v-17zM314 323v-17 1zM314 323v-16zM314 323v-16h0zM314 323v-16zM314 322v-15h0zM314 322v-15zM314 322v-15h0zM314 322v-15zM314 322v-15 1zM314 322v-14zM314 322v-14h0zM314 322v-14 13zM314 321v-13 1zM314 321v-12l1 11z"/><path d="m315 320-1-11 1 1zM315 320v-10 9zM315 319v-9 1zM315 319v-8zM315 318v-7 1zM315 318v-6zM315 317v-5 1zM315 317v-4zM315 316v-3h0zM315 316v-3z"/></g><g fill="none" stroke="currentColor" clip-path="url(#clipId0)"><path d="M260 278v18h-2l-5 3-5 4-3 6-1 4v4l1 5 2 5 3 3 3 3 5 2h5v-56l-1-1z"/><path d="m260 331-5-2-3-2-3-4-2-4v-4l1-5 2-4 3-3 4-2h3v30"/><path d="m260 331-5-2-3-2-3-4-2-4v-4l1-5 2-4 3-3 4-2h3v30"/><path d="M260 278v18h-2l-5 3-5 4-3 6-1 4v4l1 5 2 5 3 3 3 3 5 2h5v-56l-1-1z"/></g><g fill="currentColor" stroke="currentColor" clip-path="url(#clipId0)"><path d="M244 317zv-1zM244 317v-2zM244 318v-3h0zM244 318v-3zM244 318v-4zM244 318v-4zM244 319v-6zM244 319v-6zM244 319v-6h0zM244 319v-6zM244 320v-8zM244 320v-8zM244 321v-10zM244 321v-10zM244 321v-10h0zM244 321v-10zM245 322l-1-11 1-1zM245 322v-12zM245 322v-12h0zM245 322v-12zM245 322v-13zM245 322v-13zM245 323v-14h0zM245 323v-14zM245 323v-14h0zM245 323v-14zM245 324v-16zM245 324v-16zM245 324v-16h0zM245 324v-16zM246 324l-1-16 1-1zM246 324v-17zM246 325v-18h0zM246 325v-18zM246 325v-19zM246 325v-19zM246 325v-19h0zM246 325v-19 20zM246 326v-21zM246 326v-21zM246 326v-21h0zM246 326v-21zM247 327l-1-22h1zM247 327v-22zM247 327v-22h0zM247 327v-22zM247 327v-23zM247 327v-23zM247 327v-23h0zM247 327v-23zM247 328v-24h0zM247 328v-24zM248 328l-1-24h1zM248 328v-24zM248 328v-25zM248 328v-25zM248 329v-26h0zM248 329v-26zM248 329v-26h0zM248 329v-26zM248 329v-26h0zM248 329v-26zM248 329v-27zM248 329v-27zM249 330l-1-28h1zM249 330v-28zM249 330v-28h0zM249 330v-28zM249 330v-28h0zM249 330v-28zM249 330v-29zM249 330v-29zM250 330l-1-29h1zM250 330v-29zM250 331v-30h0zM250 331v-30zM250 331v-30h0zM250 331v-30zM250 331v-30h0zM250 331v-30zM251 331l-1-30 1-1zM251 331v-31zM251 332v-32h0zM251 332v-32zM251 332v-32h0zM251 332v-32zM251 332v-32h0zM251 332v-32zM252 332l-1-32 1-1zM252 332v-33zM252 332v-33h0zM252 332v-33zM252 332v-33h0zM252 332v-33zM252 333v-34h0zM252 333v-34zM252 333v-34h0zM252 333v-34zM253 333l-1-34h1zM253 333v-34zM253 333v-35zM253 333v-35zM254 334l-1-36h1zM254 334v-36zM254 334v-36h0zM254 334v-36zM255 334l-1-36h1zM255 334v-36zM255 334v-36h0zM255 334v-36zM256 334l-1-36 1-1zM256 334v-37zM256 334v-37h0zM256 334v-37zM256 335v-38h0zM256 335v-38zM257 335l-1-38h1zM257 335v-38zM257 335v-38h0zM257 335v-38zM257 335v-38h0zM257 335v-38zM257 335v-38h0zM257 335v-38zM258 335l-1-38h1zM258 335v-38zM258 335v-39zM258 335v-39zM259 335l-1-39h1zM259 335v-39zM259 335v-39h0zM259 335v-39zM259 335v-39h0zM259 335v-39zM260 335l-1-39h1zM260 335v-39zM260 335v-39h0zM260 288zv-2zM260 335v-39zM260 335v-39h0zM260 288v-3 4zM260 289v-5zM260 335v-39zM260 335v-39h0zM260 289v-5 6zM260 290v-7zM260 335v-39zM260 335v-39h0zM260 290v-7 9zM260 292v-10zM260 335v-39zM260 335v-39h0zM260 292v-10zM260 292v-11zM260 335v-39zM260 335v-39h0zM260 292v-11 13zM260 294v-14zM260 335v-39zM260 335v-39h0zM260 294v-14zM260 295v-16zM260 335v-39zM260 335v-39h0zM260 295v-16zM260 296v-18zM260 335v-57zM260 335v-57h0zM260 335v-57zM260 335v-57h0zM260 335v-57zM260 335v-57h0zM260 335v-57zM261 335l-1-57h1zM261 335v-57zM261 335v-57h0zM261 335v-57zM261 335v-57h0zM261 335v-57zM261 335v-57h0zM261 335v-57zM261 335v-57h0zM261 335v-57zM262 335l-1-57h1zM262 335v-57zM262 335v-57h0zM262 335v-57zM262 335v-57h0zM262 335v-57zM263 335l-1-57h1zM263 335v-57zM263 335v-57h0zM263 335v-57zM263 335v-57h0zM263 335v-57zM263 335v-57h0zM263 335v-15zM263 335v-15 5zM263 320v-42 36zM263 314v-36h0zM263 335v-10zM263 335v-10 2zM263 314v-36 35zM263 313v-35h0zM263 335v-8zM263 335v-8h0zM263 313v-35zM263 312v-34h0zM263 335v-8zM263 334v-7 5zM263 312v-34 29zM263 307v-29h0zM263 334v-2zM263 307v-29 28zM263 306v-28h0zM263 306v-28 22zM263 300v-22h0zM263 300v-22 15zM263 293v-15h0zM263 293v-15 9zM263 287v-9h0zM263 287v-9 2zM263 280v-2h0zM263 280v-2h0z"/></g><g fill="none" stroke="currentColor" clip-path="url(#clipId0)"><path d="m254 347 7-3h2v5l-4 1-3 1-5 6-1 6 1 7 3 6 3 2 4 1h2v5l-7-1-5-5-3-6-2-7 1-6 2-7z"/><path d="m254 347 7-3h2v5l-4 1-3 1-5 6-1 6 1 7 3 6 3 2 4 1h2v5l-7-1-5-5-3-6-2-7 1-6 2-7z"/></g><g fill="currentColor" stroke="currentColor" clip-path="url(#clipId0)"><path d="M246 365zv-1zM246 365v-1zM246 366v-3zM246 366v-3zM246 366v-4zM246 366v-4zM246 367v-5h0zM246 367v-5zM246 367v-6zM246 367v-6zM247 367l-1-6h1zM247 367v-6 7zM247 368v-8zM247 368v-8zM247 368v-8h0zM247 368v-8 9zM247 369v-10zM247 369v-10zM247 369v-10h0zM247 369v-10zM247 370v-12zM247 370v-12zM247 371v-13h0zM247 371v-13zM247 371v-13h0zM247 371v-13zM247 371v-14zM247 371v-14zM247 371v-14h0zM247 371v-14zM247 371v-14h0zM247 371v-14 15zM247 372v-16zM247 372v-16zM248 372l-1-16h1zM248 372v-16zM248 373v-17h0zM248 373v-17zM248 373v-17h0zM248 373v-17zM248 373v-18zM248 373v-18zM248 373v-18h0zM248 373v-18zM248 373v-18h0zM248 373v-18zM248 374v-19h0zM248 374v-19zM248 374v-19h0zM248 374v-19zM248 374v-20zM248 374v-20zM248 374v-20h0zM248 374v-20zM248 375v-21h0zM248 375v-21zM249 375l-1-21 1-1zM249 375v-22zM249 375v-22h0zM249 375v-22zM249 375v-22h0zM249 375v-22zM249 376v-23h0zM249 376v-23zM249 376v-24zM249 376v-24zM249 376v-24h0zM249 376v-24zM249 376v-24h0zM249 376v-24zM250 377l-1-25h1zM250 377v-25zM250 377v-26zM250 377v-26zM250 377v-26h0zM250 377v-13zM250 377v-13 1zM250 364v-13zM250 363v-12h0zM250 377v-12zM250 377v-12h0zM250 363v-12zM250 363v-12h0zM250 377v-12zM250 377v-12h0zM250 363v-12zM250 363v-12h0zM250 377v-12zM250 377v-12 1zM250 363v-12zM250 362v-11h0zM250 377v-11zM250 377v-11h0zM250 362v-11zM250 362v-11h0zM250 377v-11zM250 377v-11 1zM250 362v-11zM250 361v-10h0zM250 377v-10zM250 377v-10h0zM250 361v-10zM250 361v-10h0zM250 377v-10zM250 377v-10h0zM250 361v-10zM250 361v-10h0zM250 377v-10zM250 378v-11h0zM250 361v-10zM250 361v-10h0zM250 378v-11zM250 378v-11 1zM250 361v-10zM250 361v-10h0zM250 378v-10zM250 378v-10h0zM250 361v-10zM250 360v-9h0zM250 378v-10zM250 378v-10h0zM250 360v-9zM250 360v-9h0zM250 378v-10zM250 378v-10 1zM250 360v-9zM250 360v-9h0zM250 378v-9zM250 378v-9h0zM250 360v-9zM250 360v-9h0zM250 378v-9zM250 378v-9h0zM250 360v-9zM250 360v-9h0zM250 378v-9zM250 378v-9h0zM250 360v-9zM250 360v-9h0zM250 378v-9zM250 378v-9h0zM250 360v-9zM250 359v-9zM250 378v-9zM250 378v-9h0zM250 359v-9zM250 359v-9h0zM250 378v-9zM250 378v-9h0zM250 359v-9zM250 359v-9h0zM250 378v-9zM250 378v-9 1zM250 359v-9zM250 359v-9h0zM250 378v-8zM251 378l-1-8h1zM250 359v-9zM251 359l-1-9h1zM251 378v-8zM251 378v-8h0zM251 359v-9zM251 359v-9h0zM251 378v-8zM251 379v-9h0zM251 359v-9zM251 358v-8h0zM251 379v-9zM251 379v-9h0zM251 358v-8zM251 358v-8h0zM251 379v-9zM251 379v-9h0zM251 358v-8zM251 358v-8h0zM251 379v-9zM251 379v-9h0zM251 358v-8zM251 358v-8h0zM251 379v-9zM251 379v-9 1zM251 358v-8zM251 358v-8h0zM251 379v-8zM251 379v-8h0zM251 358v-8zM251 358v-8h0zM251 379v-8zM251 379v-8h0zM251 358v-8zM251 358v-8h0zM251 379v-8zM251 379v-8h0zM251 358v-8zM251 357v-7h0zM251 379v-8zM251 379v-8h0zM251 357v-7zM251 357v-8zM251 379v-8zM251 379v-8 1zM251 357v-8zM251 357v-8h0zM251 379v-7zM251 379v-7h0zM251 357v-8zM251 357v-8h0zM251 379v-7zM251 379v-7h0zM251 357v-8zM251 357v-8h0zM251 379v-7zM251 379v-7h0zM251 357v-8zM251 357v-8h0zM251 379v-7zM251 379v-7h0zM251 357v-8zM251 357v-8h0zM251 379v-7zM251 379v-7h0zM251 357v-8zM251 356v-7h0zM251 379v-7zM251 379v-7h0zM251 356v-7zM251 356v-7h0zM251 379v-7zM251 379v-7h0zM251 356v-7zM251 356v-7h0zM251 379v-7zM252 379l-1-7h1zM251 356v-7zM252 356l-1-7h1zM252 379v-7zM252 380v-8 1zM252 356v-7zM252 356v-7h0zM252 380v-7zM252 380v-7h0zM252 356v-7zM252 356v-7h0zM252 380v-7zM252 380v-7h0zM252 356v-7zM252 356v-7h0zM252 380v-7zM252 380v-7h0zM252 356v-7zM252 356v-7h0zM252 380v-7zM252 380v-7h0zM252 356v-7zM252 356v-7h0zM252 380v-7zM252 380v-7h0zM252 356v-7zM252 355v-6h0zM252 380v-7zM252 380v-7h0zM252 355v-6zM252 355v-7zM252 380v-7zM252 380v-7h0zM252 355v-7zM252 355v-7h0zM252 380v-7zM252 380v-7 1zM252 355v-7zM252 355v-7h0zM252 380v-6zM252 380v-6h0zM252 355v-7zM252 355v-7h0zM252 380v-6zM252 380v-6h0zM252 355v-7zM252 355v-7h0zM252 380v-6zM252 380v-6h0zM252 355v-7zM252 355v-7h0zM252 380v-6zM252 380v-6h0zM252 355v-7zM252 355v-7h0zM252 380v-6zM252 380v-6h0zM252 355v-7zM252 354v-6h0zM252 380v-6zM253 380l-1-6h1zM252 354v-6zM253 354l-1-6h1zM253 380v-6zM253 381v-7h0zM253 354v-6zM253 354v-6h0zM253 381v-7zM253 381v-7h0zM253 354v-6zM253 354v-6h0zM253 381v-7zM253 381v-7h0zM253 354v-6zM253 354v-6h0zM253 381v-7zM253 381v-7h0zM253 354v-6zM253 354v-6h0zM253 381v-7zM253 381v-7 1zM253 354v-6zM253 354v-6h0zM253 381v-6zM253 381v-6h0zM253 354v-6zM253 354v-6h0zM253 381v-6zM253 381v-6h0zM253 354v-6zM253 354v-6h0zM253 381v-6zM253 381v-6h0zM253 354v-6zM253 354v-7zM253 381v-6zM253 381v-6h0zM253 354v-7zM253 354v-7h0zM253 381v-6zM253 381v-6h0zM253 354v-7zM253 354v-7h0zM253 381v-6zM253 381v-6h0zM253 354v-7zM253 353v-6h0zM253 381v-6zM253 381v-6h0zM253 353v-6zM253 353v-6h0zM253 381v-6zM253 381v-6h0zM253 353v-6zM253 353v-6h0zM253 381v-6zM254 381l-1-6h1zM253 353v-6zM254 353l-1-6h1zM254 381v-6zM254 381v-6h0zM254 353v-6zM254 353v-6h0zM254 381v-6zM254 381v-6h0zM254 353v-6zM254 353v-6h0zM254 381v-6zM254 381v-6 1zM254 353v-6zM254 353v-6h0zM254 381v-5zM254 381v-5h0zM254 353v-6zM254 353v-6h0zM254 381v-5zM254 381v-5h0zM254 353v-6zM254 353v-6h0zM254 381v-5zM254 382v-6h0zM254 353v-6zM254 353v-6h0zM254 382v-6zM254 382v-6h0zM254 353v-6zM254 353v-6h0zM254 382v-6zM254 382v-6h0zM254 353v-6zM254 353v-6h0zM254 382v-6zM254 382v-6h0zM254 353v-6zM254 353v-6h0zM254 382v-6zM254 382v-6h0zM254 353v-6zM254 353v-6h0zM254 382v-6zM254 382v-6h0zM254 353v-6zM254 353v-6h0zM254 382v-6zM254 382v-6h0zM254 353v-6zM254 353v-6h0zM254 382v-6zM254 382v-6h0zM254 353v-6zM254 353v-6h0zM254 382v-6zM254 382v-6h0zM254 353v-6zM254 353v-6h0zM254 382v-6zM254 382v-6h0zM254 353v-6zM254 353v-6h0zM254 382v-6zM254 382v-6h0zM254 353v-6zM254 353v-6h0zM254 382v-6zM254 382v-6h0zM254 353v-6zM254 353v-6h0zM254 382v-6zM254 382v-6h0zM254 353v-6zM254 353v-6h0zM254 382v-6zM254 382v-6h0zM254 353v-6zM254 353v-6h0zM254 382v-6zM254 382v-6h0zM254 353v-6zM254 353v-6h0zM254 382v-6zM254 382v-6h0zM254 353v-6zM254 353v-6h0zM254 382v-6zM254 382v-6h0zM254 353v-6zM254 353v-6h0zM254 382v-6zM254 382v-6h0zM254 353v-6zM254 353v-6h0zM254 382v-6zM254 382v-6h0zM254 353v-6zM254 353v-6h0zM254 382v-6zM254 382v-6h0zM254 353v-6zM254 353v-6h0zM254 382v-6zM254 382v-6h0zM254 353v-6zM254 353v-6h0zM254 382v-6zM254 382v-6h0zM254 353v-6zM254 353v-6h0zM254 382v-6zM254 382v-6h0zM254 353v-6zM254 353v-6h0zM254 382v-6zM254 382v-6h0zM254 353v-6zM254 353v-6h0zM254 382v-6zM254 382v-6h0zM254 353v-6zM254 353v-6h0zM254 382v-6zM254 382v-6h0zM254 353v-6zM254 352v-5h0zM254 382v-6zM254 382v-6h0zM254 352v-5zM254 352v-5h0zM254 382v-6zM254 382v-6h0zM254 352v-5zM254 352v-5h0zM254 382v-6zM254 382v-6h0zM254 352v-5zM254 352v-5h0zM254 382v-6zM255 382l-1-6h1zM254 352v-5zM255 352l-1-5 1-1zM255 382v-6zM255 382v-6 1zM255 352v-6zM255 352v-6h0zM255 382v-5zM255 382v-5h0zM255 352v-6zM255 352v-6h0zM255 382v-5zM255 382v-5h0zM255 352v-6zM255 352v-6h0zM255 382v-5zM255 382v-5h0zM255 352v-6zM255 352v-6h0zM255 382v-5zM255 382v-5h0zM255 352v-6zM255 352v-6h0zM255 382v-5zM255 382v-5h0zM255 352v-6zM255 352v-6h0zM255 382v-5zM255 382v-5h0zM255 352v-6zM255 352v-6h0zM255 382v-5zM255 382v-5h0zM255 352v-6zM255 351v-5h0zM255 382v-5zM255 382v-5h0zM255 351v-5zM255 351v-5h0zM255 382v-5zM256 383l-1-6h1zM255 351v-5zM256 351l-1-5h1zM256 383v-6zM256 383v-6h0zM256 351v-5zM256 351v-5h0zM256 383v-6zM256 383v-6h0zM256 351v-5zM256 351v-5h0zM256 383v-6zM256 383v-6h0zM256 351v-5zM256 351v-5h0zM256 383v-6zM256 383v-6h0zM256 351v-5zM256 351v-5h0zM256 383v-6zM256 383v-6h0zM256 351v-5zM256 351v-5h0zM256 383v-6zM256 383v-6 1zM256 351v-5zM256 351v-5h0zM256 383v-5zM256 383v-5h0zM256 351v-5zM256 351v-5h0zM256 383v-5zM256 383v-5h0zM256 351v-5zM256 351v-5h0zM256 383v-5zM257 383l-1-5h1zM256 351v-5zM257 351l-1-5 1-1zM257 383v-5zM257 383v-5h0zM257 351v-6zM257 351v-6h0zM257 383v-5zM257 383v-5h0zM257 351v-6zM257 351v-6h0zM257 383v-5zM257 383v-5h0zM257 351v-6zM257 351v-6h0zM257 383v-5zM257 383v-5h0zM257 351v-6zM257 351v-6h0zM257 383v-5zM257 383v-5h0zM257 351v-6zM257 351v-6h0zM257 383v-5zM257 383v-5h0zM257 351v-6zM257 350v-5h0zM257 383v-5zM257 383v-5h0zM257 350v-5zM257 350v-5h0zM257 383v-5zM258 383l-1-5h1zM257 350v-5zM258 350l-1-5h1zM258 383v-5zM258 383v-5h0zM258 350v-5zM258 350v-5h0zM258 383v-5zM258 384v-6h0zM258 350v-5zM258 350v-5h0zM258 384v-6zM258 384v-6h0zM258 350v-5zM258 350v-5h0zM258 384v-6zM258 384v-6h0zM258 350v-5zM258 350v-5h0zM258 384v-6zM258 384v-6h0zM258 350v-5zM258 350v-5h0zM258 384v-6zM259 384l-1-6 1 1zM258 350v-5zM259 350l-1-5h1zM259 384v-5zM259 384v-5h0zM259 350v-5zM259 350v-5h0zM259 384v-5zM259 384v-5h0zM259 350v-5zM259 350v-5h0zM259 384v-5zM259 384v-5h0zM259 350v-5zM259 350v-5h0zM259 384v-5zM259 384v-5h0zM259 350v-5zM259 350v-5h0zM259 384v-5zM259 384v-5h0zM259 350v-5zM259 350v-5h0zM259 384v-5zM259 384v-5h0zM259 350v-5zM259 350v-5h0zM259 384v-5zM260 384l-1-5h1zM259 350v-5zM260 350l-1-5h1zM260 384v-5zM260 384v-5h0zM260 350v-5zM260 350v-5h0zM260 384v-5zM260 384v-5h0zM260 350v-5zM260 350v-5h0zM260 384v-5zM260 384v-5h0zM260 350v-5zM260 350v-5h0zM260 384v-5zM260 384v-5h0zM260 350v-5zM260 350v-5h0zM260 384v-5zM260 384v-5h0zM260 350v-5zM260 350v-6zM260 384v-5zM260 384v-5h0zM260 350v-6zM260 350v-6h0zM260 384v-5zM261 384l-1-5h1zM260 350v-6zM261 350l-1-6h1zM261 384v-5zM261 384v-5h0zM261 350v-6zM261 349v-5h0zM261 384v-5zM261 384v-5h0zM261 349v-5zM261 349v-5h0zM261 384v-5zM261 384v-5h0zM261 349v-5zM261 349v-5h0zM261 384v-5zM261 384v-5h0zM261 349v-5zM261 349v-5h0zM261 384v-5zM261 384v-5h0zM261 349v-5zM261 349v-5h0zM261 384v-5zM261 384v-5h0zM261 349v-5zM261 349v-5h0zM261 384v-5zM261 384v-5h0zM261 349v-5zM261 349v-5h0zM261 384v-5zM261 384v-5h0zM261 349v-5zM261 349v-5h0zM261 384v-5zM261 384v-5h0zM261 349v-5zM261 349v-5h0zM261 384v-5zM262 384l-1-5h1zM261 349v-5zM262 349l-1-5h1zM262 384v-5zM262 384v-5h0zM262 349v-5zM262 349v-5h0zM262 384v-5zM262 384v-5h0zM262 349v-5zM262 349v-5h0zM262 384v-5zM262 384v-5h0zM262 349v-5zM262 349v-5h0zM262 384v-5zM262 384v-5h0zM262 349v-5zM262 349v-5h0zM262 384v-5zM262 384v-5h0zM262 349v-5zM262 349v-5h0zM262 384v-5zM263 384l-1-5h1zM262 349v-5zM263 349l-1-5h1zM263 384v-5zM263 384v-5h0zM263 349v-5zM263 349v-5h0zM263 384v-5zM263 384v-5h0zM263 349v-5zM263 349v-5h0zM263 384v-5zM263 384v-5h0zM263 349v-5zM263 349v-5h0zM263 384v-5zM263 384v-5h0zM263 349v-5zM263 349v-5h0zM263 384v-5zM263 384v-5h0zM263 349v-5zM263 349v-5h0zM263 384v-5zM263 384v-5h0zM263 349v-5zM263 349v-5h0zM263 384v-5zM263 384v-5h0zM263 349v-2zM263 349v-2h0zM263 347v-3zM263 346v-2h0zM263 384v-5zM263 384v-5h0zM263 349v-2zM263 349v-2 1zM263 346v-2zM263 346v-2h0zM263 384v-5zM263 384v-5h0zM263 349v-1zM263 349v-1h0zM263 346v-2zM263 346v-2h0zM263 384v-5zM263 384v-5h0zM263 349v-1zM263 349v-1zM263 346v-2zM263 346v-2h0zM263 384v-5zM263 384v-5h0zM263 349zM263 349zM263 346v-2zM263 345zM263 384v-5zM263 384v-5h0zM263 349zM263 349zM263 345zM263 345zM263 384v-5zM263 384v-5h0zM263 349zM263 349zM263 345zM263 345zM263 384v-5zM263 384v-5h0zM263 349zM263 349zM263 345z"/></g><g fill="none" stroke="currentColor" clip-path="url(#clipId0)"><path d="M278 345h5l2 1 2 3 1 10v24l-1 1h-2l-1-2v-31l-2-2-6 2-2 2-1 2v28l-1 1h-1l-1-1v-38h3v5h0z"/><path d="M278 345h5l2 1 2 3 1 10v24l-1 1h-2l-1-2v-31l-2-2-6 2-2 2-1 2v28l-1 1h-1l-1-1v-38h3v5h0z"/></g><g fill="currentColor" stroke="currentColor" clip-path="url(#clipId0)"><path d="M270 384v-39zM270 384v-39h0zM270 384v-39zM270 384v-39h0zM270 384v-39zM271 384l-1-39h1zM271 384v-39zM271 384v-39h0zM271 384v-39zM271 384v-39h0zM271 384v-39zM272 384l-1-39h1zM272 384v-39zM272 384v-39h0zM272 384v-39zM273 384l-1-39h1zM273 384v-39zM273 384v-39h0zM273 384v-39zM273 384v-39h0zM273 384v-37zM273 384v-37h0zM273 347v-2zM273 346v-1h0zM273 384v-37zM273 384v-37 1zM273 346v-1zM273 346v-1h0zM273 384v-36zM273 384v-36h0zM273 346v-1zM273 346v-1h0zM273 384v-30zM273 384v-30 1zM273 354v-6zM273 354v-6h0zM273 346v-1zM273 346v-1h0zM273 384v-29zM273 384v-29h0zM273 354v-6zM273 354v-6h0zM273 346v-1zM273 345zM273 384v-29zM273 384v-29h0zM273 354v-6zM273 354v-6h0zM273 345zM273 345zM273 354v-6zM273 354v-6 1zM273 354v-5zM273 354v-5h0zM273 354v-5zM273 354v-5 1zM273 354v-4zM273 354v-4h0zM273 354v-4zM273 354v-4h0zM273 354v-4zM273 354v-4h0zM273 354v-4zM273 354v-4h0zM273 354v-4zM273 354v-4h0zM273 354v-4zM273 354v-4h0zM273 354v-4zM273 354v-4h0zM273 354v-4zM273 354v-4h0zM273 354v-4zM273 354v-4h0zM273 354v-4zM273 354v-4h0zM273 354v-4zM273 354v-4h0zM273 354v-4zM273 354v-4h0zM273 354v-4zM273 354v-4h0zM273 354v-4zM274 353l-1-3 1-1zM274 353v-4zM274 353v-4h0zM274 353v-4zM274 353v-4h0zM274 353v-4zM274 353v-4h0zM274 353v-4zM274 353v-4h0zM274 353v-4zM274 353v-5zM274 353v-5zM274 352v-4h0zM274 352v-4zM274 352v-4h0zM274 352v-4zM275 352l-1-4h1zM275 352v-4zM275 352v-4h0zM275 352v-4zM275 352v-4h0zM275 352v-4zM275 352v-5zM275 352v-5zM275 351v-4h0zM275 351v-4zM276 351l-1-4h1zM276 351v-4zM276 351v-4h0zM276 351v-4zM276 351v-4h0zM276 351v-4zM276 351v-4h0zM276 351v-4zM276 351v-5zM276 351v-5zM276 351v-5h0zM276 351v-5zM276 351v-5h0zM276 351v-5zM276 351v-5h0zM276 351v-5zM277 350l-1-4h1zM277 350v-4zM277 350v-4h0zM277 350v-4zM277 350v-4h0zM277 350v-4zM277 350v-4h0zM277 350v-4zM277 350v-4h0zM277 350v-4zM277 350v-4h0zM277 350v-4zM277 350v-4h0zM277 350v-4zM277 350v-4h0zM277 350v-4zM277 350v-4h0zM277 350v-4zM277 350v-4h0zM277 350v-4zM278 350l-1-4h1zM278 350v-4zM278 350v-5zM278 350v-5zM278 350v-5h0zM278 350v-5zM278 350v-5h0zM278 350v-5zM278 350v-5h0zM278 350v-5zM278 350v-5h0zM278 350v-5zM278 350v-5h0zM278 350v-5zM278 350v-5h0zM278 350v-5zM278 350v-5h0zM278 350v-5zM278 350v-5h0zM278 350v-5zM278 350v-5h0zM278 350v-5zM278 350v-5h0zM278 350v-5zM278 350v-5h0zM278 350v-5zM278 350v-5h0zM278 350v-5zM278 350v-5h0zM278 350v-5zM278 350v-5h0zM278 350v-5zM278 350v-5h0zM278 350v-5zM278 350v-5h0zM278 350v-5zM278 350v-5h0zM278 350v-5zM278 350v-5h0zM278 350v-5zM278 350v-5h0zM278 350v-5zM278 350v-5h0zM278 350v-5zM278 350v-5h0zM278 350v-5zM278 350v-5h0zM278 350v-5zM278 350v-5h0zM278 350v-5zM278 350v-5h0zM278 350v-5zM278 350v-5h0zM278 350v-5zM278 350v-5h0zM278 350v-5zM278 350v-5h0zM278 350v-5zM278 350v-5h0zM278 350v-5zM278 350v-5h0zM278 350v-5zM279 349l-1-4h1zM279 349v-4zM279 349v-4h0zM279 349v-4zM279 349v-4h0zM279 349v-4zM279 349v-4h0zM279 349v-4zM279 349v-4h0zM279 349v-4zM279 349v-4h0zM279 349v-4zM279 349v-4h0zM279 349v-4zM280 349l-1-4h1zM280 349v-4zM280 349v-4h0zM280 349v-4zM280 349v-4h0zM280 349v-4zM280 349v-5zM280 349v-5zM280 349v-5h0zM280 349v-5zM281 349l-1-5h1zM281 349v-5zM281 349v-5h0zM281 349v-5zM281 349v-5h0zM281 349v-5zM281 349v-5h0zM281 349v-5zM281 349v-5h0zM281 349v-5zM282 349l-1-5h1zM282 349v-5zM282 349v-5h0zM282 349v-5zM282 349v-5h0zM282 349v-5zM282 349v-5h0zM282 349v-5zM282 349v-5h0zM282 349v-5zM282 349v-5h0zM282 349v-5zM282 349v-5h0zM282 349v-5zM282 349v-5h0zM282 349v-5zM283 349l-1-5 1 1zM283 349v-4zM283 349v-4h0zM283 349v-4zM283 349v-4h0zM283 349v-4zM283 349v-4h0zM283 349v-4zM283 349v-4h0zM283 349v-4zM283 350v-5h0zM283 350v-5zM283 350v-5h0zM283 350v-5zM283 350v-5h0zM283 350v-5zM283 350v-5h0zM283 350v-5zM283 350v-5h0zM283 350v-5zM283 350v-5h0zM283 350v-5zM283 350v-5h0zM283 350v-5zM283 350v-5h0zM283 350v-5zM283 350v-5h0zM283 350v-5zM284 350l-1-5h1zM284 350v-5zM284 350v-5h0zM284 350v-5zM284 350v-5h0zM284 350v-5zM284 350v-5h0zM284 350v-5zM284 350v-5h0zM284 350v-5zM284 350v-5h0zM284 350v-5zM284 351v-6h0zM284 351v-6zM284 351v-6h0zM284 351v-6zM284 351v-6h0zM284 351v-6zM284 351v-6h0zM284 351v-6zM284 351v-6h0zM284 351v-6zM284 352v-7h0zM284 352v-7zM284 352v-7h0zM284 352v-7zM284 352v-7h0zM284 352v-7zM284 353v-8h0zM284 353v-8zM284 353v-8h0zM284 353v-8zM284 354v-9h0zM284 354v-9zM284 354v-9h0zM284 367v-5zM284 354v-9zM284 354v-9h0zM284 367v-5 6zM284 368v-7zM284 354v-9zM284 354v-9h0zM284 368v-7 8zM284 369v-9zM284 354v-9zM284 354v-9h0zM284 369v-9 10zM284 370v-12zM284 354v-9zM284 354v-9h0zM284 370v-12 15zM284 373v-16zM284 354v-9zM284 354v-9h0zM284 373v-16 17zM284 374v-19zM284 354v-9zM284 354v-9h0zM284 374v-29 31zM284 376v-31h0zM284 376v-31 35zM284 380v-35h0zM284 380v-35zM284 381v-36h0zM284 381v-36 38zM284 383v-38h0zM284 383v-38zM284 384v-39h0zM284 384v-39zM285 384l-1-39h1zM285 384v-39zM285 384v-39h0zM285 384v-39zM285 384v-39 1zM285 384v-38zM285 384v-38h0zM285 384v-38zM285 384v-38h0zM285 384v-38zM285 384v-38h0zM285 384v-38zM285 384v-38h0zM285 384v-38zM286 384l-1-38h1zM286 384v-38zM286 384v-38 1zM286 384v-37zM286 384v-37h0zM286 384v-37zM286 384v-37h0zM286 384v-37zM286 384v-37h0zM286 384v-37zM286 384v-37h0zM286 384v-37zM286 384v-37 1zM286 384v-36zM286 384v-36h0zM286 384v-36zM286 384v-36h0zM286 384v-36zM287 384l-1-36h1zM287 384v-36zM287 384v-36h0zM287 384v-36zM287 384v-36h0zM287 384v-36zM287 384v-36 1zM287 384v-35zM287 384v-35h0zM287 384v-35zM287 384v-35h0zM287 384v-35zM287 384v-35h0zM287 384v-35zM287 384v-35 1zM287 384v-34zM287 384v-34h0zM287 384v-34zM287 384v-34 1zM287 384v-33zM287 384v-33h0zM287 384v-33zM287 384v-33h0zM287 384v-33zM288 384l-1-33 1 1zM288 384v-32zM288 384v-32h0zM288 384v-32zM288 384v-32 1zM288 384v-31zM288 384v-31h0zM288 384v-31zM288 384v-31h0zM288 384v-31zM288 384v-31 1zM288 384v-30zM288 384v-30h0zM288 384v-30zM288 384v-30 1zM288 384v-29zM288 383v-28h0zM288 383v-28 25zM288 380v-25h0zM288 380v-25 21zM288 376v-21h0zM288 376v-21 18zM288 373v-18h0zM288 373v-18 15zM288 370v-15h0zM288 370v-15zM288 369v-14h0zM288 369v-14 11zM288 366v-11h0zM288 366v-11 8zM288 363v-8h0zM288 363v-7zM288 363v-7 1zM288 356zM288 356zM288 363v-6 2zM288 356zM288 356zM288 356z"/></g><g fill="none" stroke="currentColor" clip-path="url(#clipId0)"><path d="m233 377-3-3-2-3-1-8v-1h16l1-1-1-4-2-7-2-3-3-3h-4l-3 2-4 6-1 8v7l2 8 5 6 3 2 4 1h3v-1l-1-4h-4z"/><path d="m229 352 4-4h2l2 2 2 4 1 3v1h0-12v-2z"/><path d="m229 352 4-4h2l2 2 2 4 1 3v1h0-12v-2z"/><path d="m233 377-3-3-2-3-1-8v-1h16l1-1-1-4-2-7-2-3-3-3h-4l-3 2-4 6-1 8v7l2 8 5 6 3 2 4 1h3v-1l-1-4h-4z"/></g><g fill="currentColor" stroke="currentColor" clip-path="url(#clipId0)"><path d="M224 363zM224 363zv2zM224 364v-3zM224 364v-3zM224 364v-3h0zM224 364v-3 4zM224 365v-5zM224 365v-5zM224 365v-5h0zM224 365v-5zM224 366v-6h0zM224 366v-6zM224 366v-6h0zM224 366v-6zM224 366v-7zM224 366v-7zM224 366v-7h0zM224 366v-7zM224 367v-9zM224 367v-9zM224 367v-9h0zM224 367v-9zM224 368v-10h0zM224 368v-10zM224 368v-11zM224 368v-11zM224 368v-11h0zM224 368v-11zM224 369v-12h0zM224 369v-12zM224 369v-12h0zM224 369v-12zM224 369v-13zM224 369v-13zM224 369v-13h0zM224 369v-13zM225 370l-1-14 1-1zM225 370v-15zM225 370v-15h0zM225 370v-15zM225 371v-16h0zM225 371v-16zM225 371v-16h0zM225 371v-16zM225 371v-17zM225 371v-17zM225 372v-18h0zM225 372v-18zM225 372v-18h0zM225 372v-18zM225 373v-20zM225 373v-20zM225 373v-20h0zM225 373v-20zM226 374l-1-21 1-1zM226 374v-22zM226 374v-22h0zM226 374v-22zM226 374v-23zM226 374v-23zM226 374v-23h0zM226 374v-23 24zM226 375v-25zM226 375v-25zM226 375v-25h0zM226 375v-25l1 26z"/><path d="m227 376-1-26 1-1zM227 376v-27zM227 376v-27h0zM227 376v-27zM227 376v-27h0zM227 376v-27zM227 376v-27h0zM227 376v-27zM227 377v-29zM227 377v-29zM227 377v-29h0zM227 377v-15zM227 377v-15 1zM227 362v-14zM227 362v-14h0zM227 377v-14zM227 377v-14 1zM227 362v-14zM227 362v-14h0zM227 377v-13zM227 377v-13h0zM227 362v-14zM227 362v-14h0zM227 377v-13zM227 377v-13 1zM227 362v-14zM227 362v-14h0zM227 377v-12zM227 377v-12 1zM227 362v-14zM227 362v-14h0zM227 377v-11zM227 377v-11h0zM227 362v-14zM227 362v-14h0zM227 377v-11zM228 377l-1-11h1zM227 362v-14zM228 362l-1-14h1zM228 377v-11zM228 377v-11 1zM228 362v-14zM228 362v-14h0zM228 377v-10zM228 377v-10h0zM228 362v-14zM228 362v-14h0zM228 377v-10zM228 378v-11h0zM228 362v-14zM228 362v-14h0zM228 378v-11zM228 378v-11 1zM228 362v-14zM228 362v-15zM228 378v-10zM228 378v-10h0zM228 362v-15zM228 362v-15h0zM228 378v-10zM228 378v-10 1zM228 362v-15zM228 362v-15h0zM228 378v-9zM228 378v-9h0zM228 362v-15zM228 362v-15h0zM228 378v-9zM228 378v-9 1zM228 362v-15zM228 362v-15h0zM228 378v-8zM228 378v-8h0zM228 362v-15zM228 362v-15h0zM228 378v-8zM229 379l-1-9 1 1zM228 362v-15zM229 362l-1-15 1-1zM229 379v-8zM229 379v-8h0zM229 362v-16zM229 362v-16h0zM229 379v-8zM229 379v-8h0zM229 362v-16zM229 362v-16h0zM229 379v-8zM229 379v-8h0zM229 362v-16zM229 362v-16h0zM229 379v-8zM229 379v-8h0zM229 362v-16zM229 362v-16h0zM229 379v-8zM229 379v-8 1zM229 362v-16zM229 362v-16h0zM229 379v-7zM229 379v-7h0zM229 362v-16zM229 362v-16h0zM229 379v-7zM229 379v-7h0zM229 362v-16zM229 362v-16h0zM229 379v-7zM229 380v-8 1zM229 362v-16zM229 362v-16h0zM229 380v-7zM229 380v-7h0zM229 362v-16zM229 362v-17zM229 380v-7zM229 380v-7h0zM229 362v-17zM229 362v-17h0zM229 380v-7zM230 380l-1-7h1zM229 362v-17zM230 362l-1-17h1zM230 380v-7zM230 380v-7h0zM230 362v-17zM230 362v-17h0zM230 380v-7zM230 380v-7 1zM230 362v-17zM230 362v-17h0zM230 380v-6zM230 380v-6h0zM230 362v-17zM230 362v-17h0zM230 380v-6zM230 380v-6h0zM230 362v-17zM230 362v-17h0zM230 380v-6zM230 380v-6h0zM230 362v-17zM230 362v-17h0zM230 380v-6zM230 380v-6h0zM230 362v-17zM230 362v-17h0zM230 380v-6zM230 380v-6h0zM230 362v-17zM230 362v-17h0zM230 380v-6zM230 381v-7 1zM230 362v-17zM230 362v-17h0zM230 381v-6zM230 381v-6h0zM230 362v-17zM230 362v-17h0zM230 381v-6zM231 381l-1-6h1zM230 362v-17zM231 362l-1-17 1-1zM231 381v-6zM231 381v-6h0zM231 362v-18zM231 362v-18h0zM231 381v-6zM231 381v-6h0zM231 362v-18zM231 362v-18h0zM231 381v-6zM231 381v-6h0zM231 362v-18zM231 362v-18h0zM231 381v-6zM231 381v-6h0zM231 362v-18zM231 362v-18h0zM231 381v-6zM231 381v-6h0zM231 362v-18zM231 362v-18h0zM231 381v-6zM231 381v-6 1zM231 362v-18zM231 362v-18h0zM231 381v-5zM231 381v-5h0zM231 362v-18zM231 362v-18h0zM231 381v-5zM231 382v-6h0zM231 362v-18zM231 362v-18h0zM231 382v-6zM231 382v-6h0zM231 362v-18zM231 362v-18h0zM231 382v-6zM232 382l-1-6h1zM231 362v-18zM232 362l-1-18h1zM232 382v-6zM232 382v-6h0zM232 362v-18zM232 362v-18h0zM232 382v-6zM232 382v-6h0zM232 362v-18zM232 362v-18h0zM232 382v-6zM232 382v-6h0zM232 362v-18zM232 362v-18h0zM232 382v-6zM232 382v-6h0zM232 362v-18zM232 362v-18h0zM232 382v-6zM232 382v-6h0zM232 362v-18zM232 362v-18h0zM232 382v-6zM232 382v-6h0zM232 362v-18zM232 362v-18h0zM232 382v-6zM232 382v-6 1zM232 362v-18zM232 362v-18h0zM232 382v-5zM232 382v-5h0zM232 362v-18zM232 362v-18h0zM232 382v-5zM232 382v-5h0zM232 362v-18zM232 362v-18h0zM232 382v-5zM233 382l-1-5h1zM232 362v-18zM233 362l-1-18h1zM233 382v-5zM233 382v-5h0zM233 362v-18zM233 362v-18h0zM233 382v-5zM233 382v-5h0zM233 362v-18zM233 362v-18h0zM233 382v-5zM233 382v-5h0zM233 362v-18zM233 362v-18h0zM233 382v-5zM233 382v-5h0zM233 362v-18zM233 362v-18h0zM233 382v-5zM233 382v-5h0zM233 362v-18zM233 362v-18h0zM233 382v-5zM233 383v-6h0zM233 362v-18zM233 362v-18h0zM233 383v-6zM233 383v-6h0zM233 362v-18zM233 362v-19zM233 383v-6zM233 383v-6h0zM233 362v-19zM233 362v-19h0zM233 383v-6zM233 383v-6h0zM233 362v-19zM233 362v-19h0zM233 383v-6zM233 383v-6h0zM233 362v-19zM233 362v-19h0zM233 383v-6zM234 383l-1-6 1 1zM233 362v-19zM234 362l-1-19h1zM234 383v-5zM234 383v-5h0zM234 362v-19zM234 362v-19h0zM234 383v-5zM234 383v-5h0zM234 362v-19zM234 362v-19h0zM234 383v-5zM234 383v-5h0zM234 362v-19zM234 362v-19h0zM234 383v-5zM234 383v-5h0zM234 362v-19zM234 362v-19h0zM234 383v-5zM234 383v-5h0zM234 362v-19zM234 362v-19h0zM234 383v-5zM234 383v-5h0zM234 362v-19zM234 362v-19h0zM234 383v-5zM234 383v-5h0zM234 362v-19zM234 362v-19h0zM234 383v-5zM235 383l-1-5h1zM234 362v-19zM235 362l-1-19h1zM235 383v-5zM235 383v-5h0zM235 362v-19zM235 362v-19 1zM235 383v-5zM235 383v-5h0zM235 362v-18zM235 362v-18h0zM235 383v-5zM235 383v-5h0zM235 362v-18zM235 362v-18h0zM235 383v-5zM235 383v-5h0zM235 362v-18zM235 362v-18h0zM235 383v-5zM235 383v-5h0zM235 362v-18zM235 362v-18h0zM235 383v-5zM235 383v-5h0zM235 362v-18zM235 362v-18h0zM235 383v-5zM236 384l-1-6 1 1zM235 362v-18zM236 362l-1-18h1zM236 384v-5zM236 384v-5h0zM236 362v-18zM236 362v-18h0zM236 384v-5zM236 384v-5h0zM236 362v-18zM236 362v-18h0zM236 384v-5zM236 384v-5h0zM236 362v-18zM236 362v-18h0zM236 384v-5zM236 384v-5h0zM236 362v-18zM236 362v-18h0zM236 384v-5zM236 384v-5h0zM236 362v-18zM236 362v-18h0zM236 384v-5zM237 384l-1-5h1zM236 362v-18zM237 362l-1-18h1zM237 384v-5zM237 384v-5h0zM237 362v-18zM237 362v-18h0zM237 384v-5zM237 384v-5h0zM237 362v-18zM237 362v-18h0zM237 384v-5zM237 384v-5h0zM237 362v-18zM237 362v-18h0zM237 384v-5zM237 384v-5h0zM237 362v-18zM237 362v-18h0zM237 384v-5zM237 384v-5h0zM237 362v-18zM237 362v-18 1zM237 384v-5zM237 384v-5h0zM237 362v-17zM237 362v-17h0zM237 384v-5zM237 384v-5h0zM237 362v-17zM237 362v-17h0zM237 384v-5zM237 384v-5h0zM237 362v-17zM237 362v-17h0zM237 384v-5zM238 384l-1-5h1zM237 362v-17zM238 362l-1-17h1zM238 384v-5zM238 384v-5h0zM238 362v-17zM238 362v-17h0zM238 384v-5zM238 384v-5h0zM238 362v-17zM238 362v-17h0zM238 384v-5zM238 384v-5h0zM238 362v-17zM238 362v-17h0zM238 384v-5zM238 384v-5h0zM238 362v-17zM238 362v-17h0zM238 384v-5zM238 384v-5h0zM238 362v-17zM238 362v-17h0zM238 384v-5zM238 384v-5h0zM238 362v-17zM238 362v-17h0zM238 384v-5zM238 384v-5h0zM238 362v-17zM238 362v-17 1zM238 384v-5zM238 384v-5h0zM238 362v-16zM238 362v-16h0zM238 384v-5zM238 384v-5h0zM238 362v-16zM238 362v-16h0zM238 384v-5zM239 384l-1-5h1zM238 362v-16zM239 362l-1-16h1zM239 384v-5zM239 384v-5h0zM239 362v-16zM239 362v-16h0zM239 384v-5zM239 384v-5h0zM239 362v-16zM239 362v-16h0zM239 384v-5zM239 384v-5h0zM239 362v-16zM239 362v-16h0zM239 384v-5zM239 384v-5h0zM239 362v-16zM239 362v-16 1zM239 384v-5zM239 384v-5h0zM239 362v-15zM239 362v-15h0zM239 384v-5zM239 384v-5h0zM239 362v-15zM239 362v-15h0zM239 384v-5zM240 384l-1-5h1zM239 362v-15zM240 362l-1-15h1zM240 384v-5zM240 384v-5h0zM240 362v-15zM240 362v-15h0zM240 384v-5zM240 384v-5h0zM240 362v-15zM240 362v-15h0zM240 384v-5zM240 384v-5h0zM240 362v-15zM240 362v-15 1zM240 384v-5zM240 384v-5h0zM240 362v-14zM240 362v-14h0zM240 384v-5zM240 384v-5h0zM240 362v-14zM240 362v-14h0zM240 384v-5zM240 384v-5h0zM240 362v-14zM240 362v-14h0zM240 384v-5zM241 384l-1-5h1zM240 362v-14zM241 362l-1-14h1zM241 384v-5zM241 384v-5h0zM241 362v-14zM241 362v-14 1zM241 384v-5zM241 384v-5h0zM241 362v-13zM241 362v-13h0zM241 384v-5zM241 384v-5h0zM241 362v-13zM241 362v-13h0zM241 384v-5zM241 384v-5 1zM241 362v-13zM241 362v-13h0zM241 384v-4zM241 383v-3h0zM241 362v-13zM241 362v-13h0zM241 383v-3zM241 383v-3h0zM241 362v-13zM241 362v-13h0zM241 383v-3zM241 383v-3 1zM241 362v-13zM241 362v-13h0zM241 383v-2zM241 382v-1h0zM241 362v-13zM241 362v-13h0zM241 382v-1zM241 382v-1zM241 362v-13zM241 362v-13h0zM241 382zM241 362v-13zM241 362v-13h0zM241 362v-13zM241 362v-13h0zM241 362v-13zM241 362v-13h0zM241 362v-13zM241 362v-13 1zM241 362v-12zM241 362v-12h0zM241 362v-12zM241 362v-12h0zM241 362v-12zM242 362l-1-12 1 1zM242 362v-11zM242 362v-11h0zM242 362v-11zM242 362v-11h0zM242 362v-11zM242 362v-11 1zM242 362v-10zM242 362v-10h0zM242 362v-10zM242 362v-10h0zM242 362v-10zM242 362v-10 1zM242 362v-9zM242 362v-9h0zM242 362v-9zM243 362l-1-9 1 1zM243 362v-8zM243 362v-8 1zM243 362v-7zM243 362v-7 1zM243 362v-6zM243 362v-6 1zM243 362v-5zM243 362v-5h0zM243 362v-5zM243 362v-5 1zM243 362v-4zM244 362l-1-4 1 2zM244 362v-2zM244 362v-2 1zM244 362v-1zM244 362v-1zM244 362z"/></g><g fill="none" stroke="currentColor" clip-path="url(#clipId0)"><path d="m315 359-2-6-3-6-2-2-3-1h-3l-3 2-3 5-2 6v12l1 6 3 6 2 2 3 2 3-1 3-1 3-6 2-6 1-6z"/><path d="m310 373-2 5-2 2h-3l-4-4-2-5v-11l1-5 2-5 4-2 3 2 4 7v8z"/><path d="m310 373-2 5-2 2h-3l-4-4-2-5v-11l1-5 2-5 4-2 3 2 4 7v8z"/><path d="m315 359-2-6-3-6-2-2-3-1h-3l-3 2-3 5-2 6v12l1 6 3 6 2 2 3 2 3-1 3-1 3-6 2-6 1-6z"/></g><g fill="currentColor" stroke="currentColor" clip-path="url(#clipId0)"><path d="M293 364zM293 364zv2zM293 365v-3zM293 365v-3zM293 366v-4h0zM293 366v-4zM293 367v-6zM293 367v-6zM293 367v-6h0zM293 367v-6zM293 367v-6h0zM293 367v-6zM293 367v-6h0zM293 367v-6zM293 368v-8zM293 368v-8zM293 369v-9h0zM293 369v-9zM293 369v-10zM293 369v-10zM294 370l-1-11h1zM294 370v-11zM294 370v-12zM294 370v-12zM294 371v-13h0zM294 371v-13zM294 371v-14zM294 371v-14zM294 372v-15h0zM294 372v-15zM294 372v-16zM294 372v-16zM294 372v-16h0zM294 372v-16zM294 373v-18zM294 373v-18zM294 374v-19h0zM294 374v-19zM294 374v-19h0zM294 374v-19zM295 374l-1-19 1-1zM295 374v-20zM295 375v-21h0zM295 375v-21zM295 375v-21h0zM295 375v-21zM295 375v-22zM295 375v-22zM295 376v-23h0zM295 376v-23zM295 376v-23h0zM295 376v-23zM295 376v-24zM295 376v-24zM295 377v-25h0zM295 377v-25zM296 377l-1-25 1-1zM296 377v-26zM296 377v-26h0zM296 377v-26zM296 377v-26h0zM296 377v-26zM296 378v-27h0zM296 378v-27zM296 378v-28zM296 378v-28zM296 378v-28h0zM296 378v-28zM296 379v-29h0zM296 379v-29zM296 379v-30zM296 379v-30zM297 380l-1-31h1zM297 380v-31zM297 380v-31h0zM297 380v-31zM297 380v-32zM297 380v-32zM297 380v-32h0zM297 380v-32zM298 381l-1-33 1-1zM298 381v-34zM298 381v-34h0zM298 381v-34zM298 382v-35h0zM298 382v-35zM298 382v-35h0zM298 382v-35zM298 382v-35h0zM298 382v-35zM298 382v-35h0zM298 382v-35zM299 382l-1-35 1-1zM299 382v-36zM299 382v-36h0zM299 382v-36zM299 382v-36h0zM299 382v-36zM299 383v-37h0zM299 383v-37zM299 383v-37h0zM299 383v-37zM300 383l-1-37 1-1zM300 383v-38zM300 383v-38h0zM300 383v-38zM300 383v-38h0zM300 383v-38zM300 383v-38h0zM300 383v-38zM300 383v-38h0zM300 383v-38zM300 383v-38h0zM300 383v-38zM300 383v-38h0zM300 383v-38zM300 383v-38h0zM300 383v-38zM300 384v-39h0zM300 384v-39zM300 384v-39h0zM300 384v-39zM301 384l-1-39h1zM301 384v-39zM301 384v-39h0zM301 384v-39zM301 384v-39h0zM301 384v-39zM301 384v-40zM301 384v-40zM301 384v-40h0zM301 384v-40zM301 384v-40h0zM301 384v-40zM301 384v-40h0zM301 384v-40zM301 384v-40h0zM301 384v-40zM301 384v-40h0zM301 384v-40zM302 384l-1-40h1zM302 384v-40zM302 384v-40h0zM302 384v-40zM302 385v-41h0zM302 385v-41zM302 385v-41h0zM302 385v-41zM302 385v-41h0zM302 385v-41zM302 385v-41h0zM302 385v-41zM302 385v-41h0zM302 385v-41zM303 385l-1-41h1zM303 385v-41zM303 385v-41h0zM303 385v-41zM303 385v-41h0zM303 385v-41zM303 385v-41h0zM303 385v-41zM303 385v-41h0zM303 385v-41zM303 385v-41h0zM303 385v-41zM304 385l-1-41h1zM304 385v-41zM304 385v-41h0zM304 385v-41zM304 385v-41h0zM304 385v-41zM304 385v-41h0zM304 385v-41zM304 385v-41h0zM304 385v-41zM304 385v-41h0zM304 385v-41zM304 385v-41h0zM304 385v-41zM304 385v-41h0zM304 385v-41zM305 385l-1-41h1zM305 385v-41zM305 385v-41h0zM305 385v-41zM305 385v-41h0zM305 385v-41zM305 385v-41h0zM305 385v-41zM305 385v-41h0zM305 385v-41zM305 385v-41h0zM305 385v-41zM305 385v-41h0zM305 385v-41zM305 385v-41h0zM305 385v-41zM306 385l-1-41h1zM306 385v-41zM306 385v-41h0zM306 385v-41zM306 385v-41h0zM306 385v-41zM306 385v-41h0zM306 385v-41zM306 384v-40h0zM306 384v-40zM306 384v-40h0zM306 384v-40zM306 384v-40h0zM306 384v-40zM306 384v-40h0zM306 384v-40zM307 384l-1-40h1zM307 384v-40zM307 384v-40h0zM307 384v-40zM307 384v-40h0zM307 384v-40zM307 384v-40h0zM307 384v-40zM307 384v-40h0zM307 384v-40zM307 384v-40h0zM307 384v-40zM307 384v-40h0zM307 384v-40zM307 384v-40 1zM307 384v-39zM307 384v-39h0zM307 384v-39zM308 384l-1-39h1zM308 384v-39zM308 384v-39h0zM308 384v-39zM308 384v-39h0zM308 384v-39zM308 383v-38h0zM308 383v-38zM308 383v-38h0zM308 383v-38zM308 383v-38h0zM308 383v-38zM309 383l-1-38h1zM309 383v-38zM309 383v-38 1zM309 383v-37zM309 383v-37h0zM309 383v-37zM309 383v-37h0zM309 383v-37zM309 382v-36h0zM309 382v-36zM309 382v-36h0zM309 382v-36zM310 382l-1-36h1zM310 382v-36zM310 382v-36h0zM310 382v-36zM310 382v-36 1zM310 382v-35zM310 381v-34h0zM310 381v-34zM310 381v-34h0zM310 381v-34zM310 381v-34h0zM310 381v-34zM310 381v-34h0zM310 381v-34zM310 381v-34 1zM310 381v-33zM311 381l-1-33h1zM311 381v-33zM311 380v-32h0zM311 380v-32zM311 380v-32h0zM311 380v-32zM311 380v-32h0zM311 380v-32zM311 380v-32 1zM311 380v-31zM311 380v-31h0zM311 380v-31zM311 380v-31h0zM311 380v-31zM311 379v-30h0zM311 379v-30zM311 379v-30h0zM311 379v-30zM311 379v-30h0zM311 379v-30zM312 379l-1-30h1zM312 379v-30zM312 379v-30 1zM312 379v-29zM312 379v-29h0zM312 379v-29zM312 378v-28h0zM312 378v-28zM312 378v-28h0zM312 378v-28zM312 378v-28 1zM312 378v-27l1 26z"/><path d="m313 377-1-26 1 1zM313 377v-25zM313 377v-25h0zM313 377v-25 24zM313 376v-24 1zM313 376v-23zM313 376v-23h0zM313 376v-23 22zM313 375v-22 1zM313 375v-21zM313 374v-20h0zM313 374v-20zM314 374l-1-20h1zM314 374v-20zM314 373v-19 1zM314 373v-18zM314 373v-18h0zM314 373v-18zM314 372v-17 1zM314 372v-16zM314 372v-16h0zM314 372v-16zM314 371v-15 1zM314 371v-14zM314 371v-14h0zM314 371v-14zM314 371v-14 1zM314 371v-13zM314 371v-13h0zM314 371v-13 12zM314 370v-12 1zM314 370v-11zM315 369l-1-10h1zM315 369v-10zM315 369v-10h0zM315 369v-10zM315 369v-10h0zM315 369v-10 9zM315 368v-9 1zM315 368v-8zM315 368v-8 1zM315 368v-7 5zM315 366v-5 1zM315 366v-4zM315 366v-4h0zM315 366v-4zM315 365v-3 1zM315 365v-2 1z"/></g></svg>