<svg xmlns="http://www.w3.org/2000/svg" xml:space="preserve" fill-rule="evenodd" stroke-linecap="round" stroke-linejoin="round" style="background-color:transparant" viewBox="0 0 1024 768"><defs><style><![CDATA[g[clip-path]>*{vector-effect:non-scaling-stroke}]]></style></defs><g fill="#ed1f24" stroke="#ed1f24" clip-path="url(#clipId0)"><path d="M451 435V268l167 167z"/><path d="M618 435 451 268h167z"/></g><g fill="none" stroke="currentColor" clip-path="url(#clipId0)"><path d="M218 8h588M806 133H218M218 133v67M218 8v752M218 760h588M806 635H218M218 568h588M218 8h588M806 133H218M218 133v67M218 8v752M218 760h588M806 635H218M218 568h588"/></g><g fill="none" stroke="currentColor" clip-path="url(#clipId0)"><path d="M451 435V268M451 268h167M618 268v167M618 435H451"/></g><g fill="currentColor" stroke="currentColor" clip-path="url(#clipId0)"><text font-family="Arial,'sans-serif'" font-size="1.4" transform="matrix(17 0 0 17 338 204)">TCP/IP HOMESERVER</text><text font-family="Arial,'sans-serif'" font-size="1.4" transform="matrix(25 0 0 25 640 209)">CE</text></g><g fill="none" stroke="currentColor" clip-path="url(#clipId0)"><path d="M324 177v39M324 216h376M700 216v-39M324 177h376M368 414H268V289h100zM780 414H680V289h100z"/><circle cx="409.6" cy="384.8" r="12.5"/><circle cx="409.6" cy="317.4" r="12.5"/><path d="M806 8v752M806 8v752M513 33h114v91H513z"/></g><g fill="none" stroke="currentColor" clip-path="url(#clipId0)"><path d="M470 274v96l1 1h9v5h0-9l-1 1v28l1 5 1 3 2 2 5 2h1v6h-1l-5-1-3-2-3-2-1-4-1-3-1-8v-26l-4-1v-4l1-1h3v-97h5"/></g><g fill="currentColor" stroke="currentColor" clip-path="url(#clipId0)"><path d="M461 376v-5zM461 376v-5h0zM461 376v-5zM462 376l-1-5h1zM462 376v-5zM462 376v-5h0zM462 376v-5zM463 376l-1-5h1zM463 376v-5zM463 376v-5h0zM463 376v-5zM464 376l-1-5h1zM464 376v-5zM464 376v-5h0zM464 376v-5zM464 376v-5h0zM464 376v-5zM465 376l-1-5h1zM465 376v-5zM465 376v-5h0zM465 376v-5zM465 376v-5h0zM465 376v-5zM465 376v-5h0zM465 376v-5zM465 376v-5h0zM465 376v-5zM465 376v-5h0zM465 376v-5zM465 376v-5h0zM465 376v-5zM465 376v-5h0zM465 376v-5zM465 376v-5h0zM465 274zM465 376v-5zM465 376v-5h0zM465 274zM465 274zM465 376v-5zM465 376v-5h0zM465 274zM465 274zM465 376v-5zM465 376v-5h0zM465 274zM465 275v-1h0zM465 274zM465 376v-5zM465 376v-5h0zM465 275v-1zM465 275v-1h0zM465 274zM465 274zM465 376v-5zM465 376v-5h0zM465 275v-1zM465 275v-1h0zM465 274zM465 274zM465 376v-5zM465 376v-5h0zM465 275v-1zM465 276v-2h0zM465 274zM465 274zM465 376v-5zM465 376v-5h0zM465 276v-2zM465 276v-2h0zM465 274zM465 274zM465 376v-5zM465 376v-5h0zM465 276v-2zM465 277v-3h0zM465 274zM465 274zh0zM465 376v-5zM465 376v-5h0zM465 277v-3zM465 277v-3h0zM465 274v-1zM465 274v-1h0zM465 376v-5zM465 376v-5h0zM465 277v-3zM465 278v-4h0zM465 274v-1zM465 274v-1zM465 376v-5zM465 376v-5h0zM465 278v-4zM465 278v-4h0zM465 274zM465 274zM465 376v-5zM465 376v-5h0zM465 278v-4zM465 278v-4h0zM465 274zM465 274zM465 404zM465 376v-5zM465 376v-5h0zM465 278v-4zM465 278v-4h0zM465 274zM465 274zM465 404zM465 404zM465 376v-5zM465 376v-5h0zM465 278v-4zM465 278v-4h0zM465 274zM465 274zM465 404zM465 405v-2h0zM465 376v-5zM465 376v-5h0zM465 286zM465 278v-4zM465 278v-4h0zM465 274zM465 274zM465 405v-2zM465 405v-2h0zM465 376v-5zM465 376v-5h0zM465 286zv1zM465 287v-2zM465 278v-4zM465 279v-5h0zM465 274zM465 274zM465 405v-2zM465 405v-2h0zM465 376v-5zM465 376v-5h0zM465 287v-2zM465 287v-2h0zM465 279v-5zM465 279v-5h0zM465 274zM465 274zM465 405v-2zM465 405v-2h0zM465 376v-5zM465 376v-5h0zM465 287v-2zM465 288v-3h0zM465 279v-5zM465 279v-5h0zM465 274zM465 274zM465 405v-2zM465 405v-2h0zM465 376v-5zM465 376v-5h0zM465 288v-3zM465 288v-3h0zM465 279v-5zM465 279v-5h0zM465 274zM465 274zM465 405v-6zM465 405v-8zM465 376v-5 6zM465 377v-9zM465 298v-13 21zM465 306v-22zM465 279v-5zM465 280v-6h0zM465 274zM465 274zM465 405v-8zM465 405v-9zM465 377v-9zM465 377v-10zM465 306v-22 26zM465 310v-26h0zM465 280v-6zM465 280v-6h0zM465 274zM465 274zM465 405v-9zM465 405v-11zM465 377v-10zM465 378v-12zM465 310v-26 30zM465 314v-30h0zM465 280v-6zM465 280v-6h0zM465 274zM465 274zM465 405v-11zM465 405v-11h0zM465 378v-12zM465 378v-13zM465 314v-30 32zM465 316v-32h0zM465 280v-6zM465 280v-6h0zM465 274zM465 274zM465 405v-11zM465 405v-13zM465 378v-13zM465 378v-14zM465 316v-32 38zM465 322v-39zM465 280v-6zM465 281v-7h0zM465 274zM465 274zM465 405v-13zM465 405v-14zM465 378v-14zM465 379v-16zM465 322v-39 40zM465 323v-40h0zM465 281v-7zM465 281v-7h0zM465 274zM465 274zM465 405v-14zM465 405v-14h0zM465 379v-16zM465 379v-16h0zM465 323v-40 42zM465 325v-42h0zM465 281v-7zM465 281v-7h0zM465 274zM465 274zM465 405v-14zM465 405v-15zM465 379v-16zM465 379v-17zM465 325v-42 45zM465 328v-46zM465 281v-7 8zM465 282v-8h0zM465 274zM465 273zM465 405v-15zM465 405v-16zM465 379v-17zM465 379v-17h0zM465 328v-54 55zM465 329v-55h0zM465 273zM465 273zM465 405v-16zM465 405v-18zM465 379v-17zM465 379v-18zM465 329v-55 63zM465 337v-63h0zM465 273zM465 273zM465 405v-18zM465 405v-19zM465 379v-18zM465 379v-18h0zM465 337v-63 67zM465 341v-67h0zM465 273zM465 273zM465 405v-19zM465 405v-21zM465 379v-18 20zM465 381v-27zM465 341v-67 71zM465 345v-71h0zM465 273zM465 273zM465 405v-21zM465 405v-23zM465 381v-36zM465 382v-37 8zM465 354v-80 79zM465 353v-79h0zM465 273zM465 273zM465 405V274zM465 405V274h0zM465 273zM465 273zM465 405V274zM465 405V274h0zM465 273zM465 405V274zM465 405V274h0zM465 405V274zM465 406V274h0zM465 406V274zM465 407V274h0zM465 407V274zM465 408V274h0zM465 408V274zM466 408l-1-134h1zM466 408V274zM466 409V274h0zM466 409V274zM466 410V274h0zM466 410V274zM466 410V274h0zM466 410V274zM466 411V274h0zM466 411V274zM466 412V274h0zM466 412V274zM466 412V274h0zM466 412V274zM466 412V274h0zM466 412V274zM466 413V274h0zM466 413V274zM466 413V274h0zM466 413V274zM467 414l-1-140h1zM467 414V274zM467 414V274h0zM467 414V274zM467 415V274h0zM467 415V274zM467 415V274h0zM467 415V274zM467 415V274h0zM467 415V274zM468 416l-1-142h1zM468 416V274zM468 416V274h0zM468 416V274zM468 417V274h0zM468 417V274zM468 417V274h0zM468 417V274zM468 417V274h0zM468 417V274zM469 418l-1-144h1zM469 418V274zM469 418V274h0zM469 418V274zM469 418V274h0zM469 418V274zM469 419V274h0zM469 419V274zM470 419l-1-145h1zM470 419V274zM470 419V274h0zM470 419V274zM470 419V274h0zM470 419v-15zM470 419v-15h0zM470 401V286v112zM470 398V286v9zM470 419v-15zM470 419v-15h0zM470 398V295v100zM470 395V295v9zM470 419v-15zM470 419v-15 1zM470 395v-91 89zM470 393v-89 9zM470 419v-14zM470 419v-14h0zM470 393v-80 77zM470 390v-77 9zM470 419v-14zM470 419v-14h0zM470 390v-68 66zM470 388v-66 9zM470 419v-14zM470 419v-14h0zM470 388v-57zM470 388v-57 1zM470 419v-14zM470 419v-14h0zM470 388v-56 53zM470 385v-53 9zM470 419v-14zM470 419v-14h0zM470 385v-44 41zM470 382v-41 9zM470 419v-14zM470 419v-14h0zM470 382v-32 30zM470 380v-30 9zM470 419v-14zM470 419v-14h0zM470 380v-21 17zM470 376v-17 12zM470 419v-14zM470 419v-14 1zM470 376v-5zM470 376v-5h0zM470 419v-13zM470 420v-14 1zM470 376v-5zM470 376v-5h0zM470 420v-13zM470 420v-13 1zM470 376v-5zM470 376v-5h0zM470 420v-12zM470 420v-12 1zM470 376v-5zM470 376v-5h0zM470 420v-11zM470 420v-11h0zM470 376v-5zM470 376v-5h0zM470 420v-11zM471 420l-1-11 1 1zM470 376v-5zM471 376l-1-5h1zM471 420v-10zM471 420v-10 1zM471 376v-5zM471 376v-5h0zM471 420v-9zM471 420v-9h0zM471 376v-5zM471 376v-5h0zM471 420v-9zM471 421v-10h0zM471 376v-5zM471 376v-5h0zM471 421v-10zM471 421v-10 1zM471 376v-5zM471 376v-5h0zM471 421v-9zM471 421v-9h0zM471 376v-5zM471 376v-5h0zM471 421v-9zM472 421l-1-9h1zM471 376v-5zM472 376l-1-5h1zM472 421v-9zM472 421v-9 1zM472 376v-5zM472 376v-5h0zM472 421v-8zM472 421v-8h0zM472 376v-5zM472 376v-5h0zM472 421v-8zM472 421v-8h0zM472 376v-5zM472 376v-5h0zM472 421v-8zM472 421v-8 1zM472 376v-5zM472 376v-5h0zM472 421v-7zM473 422l-1-8h1zM472 376v-5zM473 376l-1-5h1zM473 422v-8zM473 422v-8h0zM473 376v-5zM473 376v-5h0zM473 422v-8zM473 422v-8h0zM473 376v-5zM473 376v-5h0zM473 422v-8zM473 422v-8 1zM473 376v-5zM473 376v-5h0zM473 422v-7zM474 422l-1-7h1zM473 376v-5zM474 376l-1-5h1zM474 422v-7zM474 422v-7h0zM474 376v-5zM474 376v-5h0zM474 422v-7zM474 422v-7h0zM474 376v-5zM474 376v-5h0zM474 422v-7zM474 422v-7h0zM474 376v-5zM474 376v-5h0zM474 422v-7zM474 422v-7h0zM474 376v-5zM474 376v-5h0zM474 422v-7zM475 422l-1-7 1 1zM474 376v-5zM475 376l-1-5h1zM475 422v-6zM475 423v-7h0zM475 376v-5zM475 376v-5h0zM475 423v-7zM475 423v-7h0zM475 376v-5zM475 376v-5h0zM475 423v-7zM475 423v-7h0zM475 376v-5zM475 376v-5h0zM475 423v-7l1 7z"/><path d="m476 423-1-7h1zM475 376v-5l1 5z"/><path d="m476 376-1-5h1zM476 423v-7zM476 423v-7h0zM476 376v-5zM476 376v-5h0zM476 423v-7zM476 423v-7h0zM476 376v-5zM476 376v-5h0zM476 423v-7zM476 423v-7h0zM476 376v-5zM476 376v-5h0zM476 423v-7zM477 423l-1-7h1zM476 376v-5zM477 376l-1-5h1zM477 423v-7zM477 423v-7h0zM477 376v-5zM477 376v-5h0zM477 423v-7zM477 423v-7h0zM477 376v-5zM477 376v-5h0zM477 423v-7zM477 423v-7h0zM477 376v-5zM477 376v-5h0zM477 423v-7zM478 423l-1-7h1zM477 376v-5zM478 376l-1-5h1zM478 423v-7zM478 423v-7 1zM478 376v-5zM478 376v-5h0zM478 423v-6zM478 423v-6h0zM478 376v-5zM478 376v-5h0zM478 423v-6zM478 423v-6h0zM478 376v-5zM478 376v-5h0zM478 423v-6zM478 423v-6h0zM478 376v-5zM478 376v-5h0zM478 423v-6zM479 423l-1-6h1zM478 376v-5zM479 376l-1-5h1zM479 423v-6zM479 423v-6h0zM479 376v-5zM479 376v-5h0zM479 423v-6zM479 423v-6h0zM479 376v-5zM479 376v-5h0zM479 423v-6zM479 423v-6h0zM479 376v-5zM479 376v-5h0zM479 423v-6zM480 423l-1-6h1zM479 376v-5zM480 376l-1-5h1zM480 423v-6zM480 423v-6h0zM480 376v-5zM480 376v-5h0zM480 423v-6zM480 423v-6h0zM480 376v-5zM480 376v-5h0zM480 423v-6zM480 422v-5h0zM480 376v-5zM480 376v-5h0zM480 422v-5zM480 422v-5h0zM480 376v-5zM480 376v-5h0zM480 422v-5zM480 421v-4h0zM480 376v-5zM480 376v-5h0zM480 421v-4zM480 421v-4h0zM480 376v-5zM480 376v-5h0zM480 421v-4 3zM480 420v-3h0zM480 376v-5zM480 376v-5h0zM480 420v-3zM480 419v-2h0zM480 376v-5zM480 376v-5h0zM480 419v-2zM480 419v-2h0zM480 376v-5zM480 376v-5h0zM480 419v-2zM480 418v-1h0zM480 376v-5zM480 376v-5h0zM480 418v-1zM480 417zM480 376v-5zM480 376v-5h0zM480 417zM480 376v-5zM480 376v-5h0zM480 376v-5zM480 376v-5h0z"/></g><g fill="none" stroke="currentColor" clip-path="url(#clipId0)"><path d="M547 306h4v38l1 2 1 2 6 4h4l2-1 1-2 1-6v-37h4v44l-2 4-2 3-2 1h-6l-2-1-3-3-2-2v-1h0l-1 7h-4v-52"/></g><g fill="currentColor" stroke="currentColor" clip-path="url(#clipId0)"><path d="M547 358v-4zM547 358v-4zM547 358v-8zM547 358v-8zM547 358v-11zM547 358v-11zM547 358v-13zM547 358v-13zM547 358v-16zM547 358v-16zM547 358v-18zM547 358v-18zM547 358v-18h0zM547 331zv-2zM547 358v-18zM547 358v-19zM547 331v-3zM547 332v-5zM547 358v-19zM547 358v-19h0zM547 332v-5zM547 332v-5h0zM547 358v-19zM547 358v-21zM547 332v-5 7zM547 334v-8zM547 358v-21zM547 358v-21h0zM547 334v-8zM547 334v-9zM547 358v-21zM547 358v-24zM547 334v-9zM547 334v-9h0zM547 358v-33zM547 358v-35zM547 358v-35zM547 358v-37zM547 358v-37zM547 358v-40zM547 358v-40zM547 358v-42zM547 358v-42zM547 358v-45zM547 358v-45zM547 358v-47zM547 358v-47zM547 358v-49zM547 358v-49zM547 358v-51zM547 358v-51zM547 358v-52zM547 358v-52zM547 358v-52h0zM547 358v-52zM547 358v-52h0zM547 358v-52zM547 358v-52h0zM547 358v-52zM547 358v-52h0zM547 358v-52zM547 358v-52h0zM547 358v-52zM547 358v-52h0zM547 358v-52zM547 358v-52h0zM547 358v-52zM547 358v-52h0zM547 358v-52zM547 358v-52h0zM547 358v-52zM547 358v-52h0zM547 358v-52zM547 358v-52h0zM547 358v-52zM547 358v-52h0zM547 358v-52zM547 358v-52h0zM547 358v-52zM547 358v-52h0zM547 358v-52zM547 358v-52h0zM547 358v-52zM547 358v-52h0zM547 358v-52zM547 358v-52h0zM547 358v-52zM547 358v-52h0zM547 358v-52zM547 358v-52h0zM547 358v-52zM548 358l-1-52h1zM548 358v-52zM548 358v-52h0zM548 358v-52zM549 358l-1-52h1zM549 358v-52zM549 358v-52h0zM549 358v-52zM550 358l-1-52h1zM550 358v-52zM550 358v-52h0zM550 358v-52zM551 358l-1-52h1zM551 358v-52zM551 358v-52h0zM551 358v-52zM551 358v-52h0zM551 358v-13zM551 358v-13h0zM551 345v-39zM551 345v-39h0zM551 358v-3zM551 358v-3 1zM551 355v-10zM551 355v-10h0zM551 345v-39zM551 345v-39h0zM551 358v-2zM551 358v-2h0zM551 355v-10zM551 354v-9h0zM551 345v-39zM551 345v-39h0zM551 358v-2zM551 358v-2 1zM551 354v-9zM551 354v-9h0zM551 345v-39zM551 345v-39h0zM551 358v-1zM551 358v-1h0zM551 354v-9zM551 354v-9h0zM551 345v-39zM551 345v-39h0zM551 358v-1zM551 358v-1zM551 354v-9 8zM551 353v-8h0zM551 345v-39zM551 345v-39h0zM551 353v-8zM551 353v-8h0zM551 342v-36 35zM551 341v-35h0zM551 353v-8zM551 352v-7h0zM551 341v-35 32zM551 338v-32 1zM551 352v-7zM551 352v-7h0zM551 338v-31 27zM551 334v-27 2zM551 352v-7zM551 352v-7h0zM551 334v-25 24zM551 333v-24h0zM551 352v-7zM551 352v-7h0zM551 333v-24 22zM551 331v-22h0zM551 352v-7zM551 352v-7h0zM551 331v-22 21zM551 330v-21 2zM551 352v-7zM551 352v-7h0zM551 330v-19 16zM551 327v-16 2zM551 352v-7zM551 352v-7h0zM551 327v-14 12zM551 325v-12 2zM551 352v-7zM551 352v-7h0zM551 325v-10 7zM551 322v-7 2zM551 352v-7zM551 352v-7h0zM551 322v-5zM551 352v-7zM551 351v-6h0zM551 351v-6zM552 351l-1-6h1zM552 351v-6zM552 351v-6h0zM552 351v-6zM552 351v-6 1zM552 351v-5zM552 351v-5h0zM552 351v-5zM552 351v-5h0zM552 351v-5zM552 351v-5h0zM552 351v-5zM552 351v-5h0zM552 351v-5zM552 351v-5h0zM552 351v-5zM552 352v-6h0zM552 352v-6zM552 352v-6 1zM552 352v-5zM552 352v-5h0zM552 352v-5zM552 352v-5h0zM552 352v-5zM553 353l-1-6h1zM553 353v-6zM553 353v-6h0zM553 353v-6zM553 353v-6h0zM553 353v-6zM553 353v-6 1zM553 353v-5zM553 353v-5h0zM553 353v-5zM554 354l-1-6h1zM554 354v-6zM554 354v-6h0zM554 354v-6zM554 354v-6h0zM554 354v-6zM554 354v-6 1zM554 354v-5zM554 354v-5h0zM554 354v-5zM555 355l-1-6h1zM555 355v-6zM555 355v-6h0zM555 355v-6zM555 355v-6h0zM555 355v-6zM555 355v-6 1zM555 355v-5zM555 356v-6h0zM555 356v-6zM555 356v-6h0zM555 356v-6zM556 356l-1-6h1zM556 356v-6zM556 356v-6h0zM556 356v-6zM556 356v-6 1zM556 356v-5zM556 356v-5h0zM556 356v-5zM557 357l-1-6h1zM557 357v-6zM557 357v-6h0zM557 357v-6zM557 357v-6h0zM557 357v-6zM557 357v-6h0zM557 357v-6zM558 357l-1-6h1zM558 357v-6zM558 357v-6h0zM558 357v-6zM558 357v-6h0zM558 357v-6zM558 357v-6h0zM558 357v-6zM559 358l-1-7 1 1zM559 358v-6zM559 358v-6h0zM559 358v-6zM559 358v-6h0zM559 358v-6zM560 358l-1-6h1zM560 358v-6zM560 358v-6h0zM560 358v-6zM560 358v-6h0zM560 358v-6zM561 358l-1-6h1zM561 358v-6zM561 358v-6h0zM561 358v-6zM561 358v-6h0zM561 358v-6zM561 358v-6h0zM561 358v-6zM561 358v-6h0zM561 358v-6zM562 358l-1-6h1zM562 358v-6zM562 358v-6h0zM562 358v-6zM562 358v-6h0zM562 358v-6zM562 358v-6h0zM562 358v-6zM563 358l-1-6h1zM563 358v-6zM563 358v-6h0zM563 358v-6zM563 358v-6h0zM563 358v-6zM563 358v-6h0zM563 358v-6zM563 358v-6h0zM563 358v-6zM563 358v-6h0zM563 358v-6zM564 358l-1-6h1zM564 358v-6zM564 358v-6h0zM564 358v-6zM564 358v-6h0zM564 358v-6zM564 358v-6h0zM564 358v-6zM564 358v-6h0zM564 358v-6zM564 358v-6h0zM564 358v-6zM564 358v-6h0zM564 358v-6zM565 358l-1-6h1zM565 358v-6zM565 358v-6h0zM565 358v-6zM565 358v-7zM565 358v-7zM565 358v-7h0zM565 358v-7zM565 358v-7h0zM565 358v-7zM565 358v-7h0zM565 358v-7zM565 358v-7h0zM565 358v-7zM565 358v-7h0zM565 358v-7zM566 358l-1-7h1zM566 358v-7zM566 358v-8zM566 358v-8zM566 358v-8h0zM566 358v-8zM566 358v-8h0zM566 358v-8zM566 358v-8h0zM566 358v-8zM566 358v-8h0zM566 358v-8zM566 358v-9zM566 358v-9zM566 358v-9h0zM566 358v-9zM566 358v-9h0zM566 358v-9zM566 358v-10zM566 358v-10zM566 358v-10h0zM566 358v-10zM567 357l-1-9 1-1zM567 357v-10zM567 357v-10h0zM567 357v-10zM567 357v-11zM567 357v-11zM567 357v-11h0zM567 357v-11zM567 357v-11h0zM567 357v-11zM567 357v-11h0zM567 327v-7zM567 357v-11zM567 357v-11h0zM567 327v-7zM567 327v-7h0zM567 357v-11zM567 357v-11h0zM567 327v-7 8zM567 328v-9zM567 357v-11zM567 357v-11h0zM567 342zM567 328v-9 12zM567 331v-15zM567 357v-11zM567 357v-11h0zM567 342zM567 342zM567 331v-15zM567 331v-15h0zM567 357v-11zM567 357v-11h0zM567 342zM567 342zM567 331v-15 18zM567 334v-21zM567 357v-11zM567 357v-11h0zM567 342zM567 342zh0zM567 334v-21zM567 334v-21h0zM567 357v-11zM567 357v-11h0zM567 342v-1zM567 342v-1h0zM567 334v-21zM567 334v-22zM567 357v-11zM567 357v-11h0zM567 342v-1zM567 342v-2zM567 334v-22zM567 335v-23h0zM567 357v-11zM567 357v-11h0zM567 342v-2zM567 342v-4zM567 335v-23 26zM567 338v-29zM567 357v-11zM567 357v-11h0zM567 342v-4zM567 342v-4h0zM567 338v-29zM567 338v-29h0zM567 357v-11zM567 357v-12zM567 342v-33zM567 342v-33h0zM567 357v-12zM567 357v-12h0zM567 342v-33zM567 343v-35zM567 357v-12zM567 357v-12h0zM567 343v-35zM567 343v-36zM567 357v-12zM567 357v-12h0zM567 343v-36zM567 343v-36h0zM567 357v-12zM567 357v-12h0zM567 343v-36zM567 343v-37zM567 357v-12zM567 357v-12h0zM567 343v-37zM567 343v-37h0zM567 357v-12zM567 357v-12h0zM567 343v-37zM567 344v-38h0zM567 357v-12zM567 357v-12h0zM567 344v-38zM567 344v-38h0zM567 357v-12zM567 357v-12h0zM567 344v-38zM567 344v-38h0zM567 357v-12zM567 357v-12h0zM567 344v-38zM567 345v-39h0zM567 357v-51zM567 357v-51h0zM567 357v-51zM567 357v-51h0zM567 357v-51zM567 357v-51h0zM567 357v-51zM568 357l-1-51h1zM568 357v-51zM568 356v-50h0zM568 356v-50zM568 356v-50h0zM568 356v-50zM568 356v-50h0zM568 356v-50zM569 355l-1-49h1zM569 355v-49zM569 355v-49h0zM569 355v-49zM569 355v-49h0zM569 355v-49zM569 354v-48h0zM569 354v-48zM569 354v-48h0zM569 354v-48zM569 354v-48h0zM569 354v-48zM570 353l-1-47h1zM570 353v-47zM570 353v-47h0zM570 353v-47zM570 353v-47h0zM570 353v-47zM570 352v-46h0zM570 352v-46zM570 351v-45h0zM570 351v-45zM570 351v-45h0zM570 351v-45l1 44z"/><path d="m571 350-1-44h1zM571 350v-44 43zM571 349v-43h0zM571 349v-43zM571 349v-43h0zM571 349v-43 42zM571 348v-42h0zM571 348v-42 41zM571 347v-41h0zM571 347v-41 39zM571 345v-39h0zM571 345v-39zM571 345v-39h0zM571 345v-39zM571 345v-39 3zM571 345v-36zM571 345v-36 4zM571 345v-32zM571 345v-32 4zM571 345v-28zM571 345v-28 3zM571 345v-6zM571 345v-6h0zM571 339v-19zM571 339v-19h0zM571 345v-6zM571 345v-6 1zM571 339v-19 16zM571 336v-16 4zM571 345v-5zM571 345v-5h0zM571 336v-12zM571 335v-11h0zM571 345v-5zM571 344v-4h0zM571 335v-11 8zM571 332v-8 4zM571 344v-4zM571 344v-4h0zM571 332v-4h0zM571 344v-4zM571 344v-4 2zM571 344v-2zM571 344v-2 1zM571 344v-1z"/></g><g fill="none" stroke="currentColor" clip-path="url(#clipId0)"><path d="m606 321-2-6-1-4-2-3-4-3-4-1h-4l-3 3-4 6-2 4-1 6-1 7v5l1 7 2 6 4 6 3 3 5 2 5-2 3-3 4-7 1-7 1-10v-5z"/><path d="m602 338-2 7-1 3-1 1-2 2-3 1-4-1-4-6-2-10v-10l2-6 3-7 2-1 2-1 4 1 2 3 2 3 3 10z"/></g><g fill="currentColor" stroke="currentColor" clip-path="url(#clipId0)"><path d="M578 332v-2zM578 332v-2 4zM578 334v-5zM578 334v-5zM578 334v-6zM578 334v-6zM578 335v-8zM578 335v-8zM578 335v-8h0zM578 335v-8zM579 336l-1-9 1-1zM579 336v-10zM579 336v-10h0zM579 336v-10 11zM579 337v-13zM579 337v-13zM579 337v-13h0zM579 337v-13 15zM579 339v-16zM579 339v-16zM579 339v-16h0zM579 339v-16zM579 340v-18zM579 340v-18zM579 340v-18h0zM579 340v-18 19zM579 341v-20zM579 341v-20zM579 341v-20h0zM579 341v-20l1 21z"/><path d="m580 342-1-21 1-1zM580 342v-22zM580 343v-23h0zM580 343v-23zM580 343v-24zM580 343v-24zM580 344v-26zM580 344v-26zM580 344v-26h0zM580 344v-26 27zM580 345v-28zM580 345v-28zM580 345v-28h0zM580 345v-28zM581 346l-1-29 1-1zM581 346v-30zM581 347v-31h0zM581 347v-31zM581 347v-31h0zM581 347v-31zM581 347v-32zM581 347v-32zM581 348v-33h0zM581 348v-33zM581 348v-34zM581 348v-34zM582 348l-1-34h1zM582 348v-34 35zM582 349v-36zM582 349v-36zM582 349v-36h0zM582 349v-36zM582 350v-38zM582 350v-38zM582 350v-38h0zM582 350v-38zM583 351l-1-39h1zM583 351v-39zM583 351v-40zM583 351v-40zM583 351v-40h0zM583 351v-40zM583 352v-41h0zM583 352v-41zM584 352l-1-41 1-1zM584 352v-42zM584 352v-42h0zM584 352v-42zM584 353v-44zM584 353v-44zM584 353v-44h0zM584 353v-44zM584 354v-45h0zM584 354v-45zM585 354l-1-45 1-1zM585 354v-46zM585 354v-46h0zM585 354v-46zM585 355v-47h0zM585 355v-47zM586 355l-1-47 1-1zM586 355v-48zM586 355v-48h0zM586 355v-48zM586 355v-48h0zM586 355v-48zM586 355v-48h0zM586 355v-48zM586 356v-50zM586 356v-50zM587 356l-1-50h1zM587 356v-50zM587 356v-50h0zM587 356v-50zM587 356v-50h0zM587 356v-50zM587 357v-51h0zM587 357v-51zM588 357l-1-51 1-1zM588 357v-52zM588 357v-52h0zM588 357v-52zM588 357v-52h0zM588 357v-52zM589 357l-1-52h1zM589 357v-52zM589 358v-53h0zM589 358v-53zM589 358v-53h0zM589 358v-53zM590 358l-1-53 1-1zM590 358v-54zM590 358v-54h0zM590 358v-54zM590 358v-54h0zM590 358v-54zM590 358v-54h0zM590 358v-54zM591 358l-1-54h1zM591 358v-54zM591 358v-54h0zM591 358v-54zM591 358v-54h0zM591 358v-54zM591 359v-55h0zM591 359v-55zM592 359l-1-55h1zM592 359v-55zM592 359v-55h0zM592 359v-55zM592 359v-55h0zM592 359v-55zM592 359v-55h0zM592 359v-55zM593 359l-1-55h1zM593 359v-55zM593 359v-55h0zM593 359v-55zM594 359l-1-55h1zM594 359v-55zM594 359v-55h0zM594 359v-55zM594 358v-54h0zM594 358v-54zM594 358v-54h0zM594 358v-54zM595 358l-1-54h1zM595 358v-54zM595 358v-54h0zM595 358v-54zM595 358v-54h0zM595 358v-54zM596 358l-1-54h1zM596 358v-54zM596 358v-54h0zM596 358v-54zM596 358v-54h0zM596 358v-54zM596 358v-54h0zM596 358v-54zM597 358l-1-54 1 1zM597 358v-53zM597 357v-52h0zM597 357v-52zM597 357v-52h0zM597 357v-52zM597 357v-52h0zM597 357v-52zM598 357l-1-52h1zM598 357v-52zM598 357v-52h0zM598 357v-52zM598 356v-51 1zM598 356v-50zM599 356l-1-50h1zM599 356v-50zM599 356v-50h0zM599 356v-50zM599 356v-50 1zM599 356v-49zM600 355l-1-48h1zM600 355v-48zM600 355v-48h0zM600 355v-48zM600 355v-48h0zM600 355v-48zM601 354l-1-47 1 1zM601 354v-46zM601 354v-46h0zM601 354v-46zM601 354v-46 1zM601 354v-45zM601 354v-45h0zM601 354v-45l1 44z"/><path d="m602 353-1-44h1zM602 353v-44zM602 353v-44h0zM602 353v-44zM602 352v-43 1zM602 352v-42zM602 352v-42h0zM602 352v-42zM602 352v-42h0zM602 352v-42zM602 352v-42 1zM602 352v-41zM603 351l-1-40h1zM603 351v-40zM603 351v-40h0zM603 351v-40 39zM603 350v-39 1zM603 350v-38zM603 350v-38 1zM603 350v-37l1 36z"/><path d="m604 349-1-36h1zM604 349v-36zM604 349v-36 1zM604 349v-35 34zM604 348v-34h0zM604 348v-34zM604 347v-33 1zM604 347v-32zM605 347l-1-32h1zM605 347v-32zM605 346v-31 1zM605 346v-30zM605 346v-30h0zM605 346v-30zM605 345v-29 1zM605 345v-28zM605 345v-28 1zM605 345v-27zM606 344l-1-26h1zM606 344v-26zM606 344v-26 1zM606 344v-25 24zM606 343v-24h0zM606 343v-24zM606 342v-23 1zM606 342v-22zM606 342v-22h0zM606 342v-22zM606 342v-22 1zM606 342v-21 20zM606 341v-20h0zM606 341v-20zM606 340v-19 1zM606 340v-18zM607 339l-1-17 1 1zM607 339v-16zM607 338v-15 1zM607 338v-14zM607 337v-13 1zM607 337v-12 11zM607 336v-11 1zM607 336v-10 9zM607 335v-9 1zM607 335v-8 7zM607 334v-7 2zM607 334v-5 3zM607 332v-3h0zM607 332v-3z"/></g><g fill="none" stroke="currentColor" clip-path="url(#clipId0)"><path d="M534 282v24h-1l-7 2-5 4-5 7-2 3-1 3v3l-1 4 2 10 3 6 2 2 3 3 4 3 3 1 5 1h4v-75z"/><path d="m534 352-7-2-4-3-3-3-2-4-1-5v-6l1-4 2-4 2-2 2-3 4-2 4-1 1-1 1 1z"/></g><g fill="currentColor" stroke="currentColor" clip-path="url(#clipId0)"><path d="M512 333zv-1zM512 333v-1l1 3z"/><path d="m513 335-1-3 1-1zM513 335v-4zM513 335v-5zM513 335v-5zM513 336v-7zM513 336v-7zM513 336v-7h0zM513 336v-7 8zM513 337v-9zM513 337v-9zM513 338v-11zM513 338v-11zM513 339v-13zM513 339v-13zM513 339v-13h0zM513 339v-13zM513 340v-15zM513 340v-15zM514 340l-1-15 1-1zM514 340v-16 17zM514 341v-18zM514 341v-18zM514 341v-18h0zM514 341v-18zM514 342v-19h0zM514 342v-19zM514 343v-21zM514 343v-21zM515 344l-1-22 1-1zM515 344v-23zM515 344v-24zM515 344v-24l1 25z"/><path d="m516 345-1-25 1-1zM516 345v-26zM516 346v-27h0zM516 346v-27zM516 347v-29zM516 347v-29zM517 347l-1-29h1zM517 347v-29zM517 348v-31zM517 348v-31zM517 348v-32zM517 348v-32zM518 349l-1-33h1zM518 349v-33zM518 349v-33h0zM518 349v-33zM518 349v-34zM518 349v-34zM519 350l-1-35h1zM519 350v-35zM519 350v-35h0zM519 350v-35zM519 351v-37zM519 351v-37zM520 351l-1-37h1zM520 351v-37zM520 351v-38zM520 351v-38zM520 352v-39h0zM520 352v-39zM521 352l-1-39 1-1zM521 352v-40zM521 353v-41h0zM521 353v-41zM521 353v-41h0zM521 353v-41zM522 354l-1-42 1-1zM522 354v-43zM523 354l-1-43h1zM523 354v-43zM523 354v-43h0zM523 354v-43zM523 355v-45zM523 355v-45zM524 355l-1-45h1zM524 355v-45zM524 355v-45h0zM524 355v-45zM524 355v-46zM524 355v-46zM525 355l-1-46h1zM525 355v-46zM526 356l-1-47h1zM526 356v-47zM526 356v-47h0zM526 356v-47zM527 356l-1-47 1-1zM527 356v-48zM527 357v-49h0zM527 357v-49l1 49z"/><path d="m528 357-1-49h1zM528 357v-49zM528 357v-49h0zM528 357v-49l1 50z"/><path d="m529 358-1-50 1-1zM529 358v-51zM529 358v-51h0zM529 358v-51l1 51z"/><path d="m530 358-1-51h1zM530 358v-51zM531 358l-1-51h1zM531 358v-51zM531 358v-51h0zM531 358v-51zM532 358l-1-51h1zM532 358v-51zM532 358v-51h0zM532 358v-51zM533 358l-1-51 1-1zM533 358v-52zM533 358v-52h0zM533 358v-52zM533 358v-52h0zM533 358v-52zM534 358l-1-52h1zM534 358v-52zM534 358v-52h0zM534 292zv-3zM534 358v-52zM534 358v-52h0zM534 292v-3 5zM534 294v-6zM534 358v-52zM534 358v-52h0zM534 294v-6 7zM534 295v-8zM534 358v-52zM534 358v-52h0zM534 295v-8 10zM534 297v-12zM534 358v-52zM534 358v-52h0zM534 297v-12zM534 298v-14zM534 358v-52zM534 358v-52h0zM534 298v-14 15zM534 299v-15h0zM534 358v-52zM534 358v-52h0zM534 299v-15 18zM534 302v-19zM534 358v-52zM534 358v-52h0zM534 302v-19 21zM534 304v-22zM534 358v-76zM534 358v-76h0zM534 358v-76zM534 358v-76h0zM534 358v-76zM535 358l-1-76h1zM535 358v-76zM535 358v-76h0zM535 358v-76zM535 358v-76h0zM535 358v-76zM535 358v-76h0zM535 358v-76zM536 358l-1-76h1zM536 358v-76zM536 358v-76h0zM536 358v-76zM536 358v-76h0zM536 358v-76zM537 358l-1-76h1zM537 358v-76zM537 358v-76h0zM537 358v-76zM537 358v-76h0zM537 358v-76zM538 358l-1-76h1zM538 358v-76zM538 358v-76h0zM538 358v-76zM538 358v-76h0zM538 358v-76zM538 358v-76h0zM538 358v-30zM538 358v-30 1zM538 328v-46 38zM538 320v-38h0zM538 358v-29 28zM538 357v-28 7zM538 320v-38 32zM538 314v-32h0zM538 357v-21zM538 357v-21 1zM538 314v-32 30zM538 312v-30h0zM538 357v-20 18zM538 355v-18 7zM538 312v-30 24zM538 306v-24h0zM538 355v-11zM538 355v-11 1zM538 306v-24 23zM538 305v-23h0zM538 355v-10 7zM538 305v-23 16zM538 298v-16h0zM538 298v-16 15zM538 297v-15h0zM538 297v-15 7zM538 289v-7h0zM538 289v-7h0z"/></g><g fill="none" stroke="currentColor" clip-path="url(#clipId0)"><path d="m526 374 2-1 3-2 6-1h1v7h-4l-4 2-4 3-3 3-1 4-2 7 1 5 1 4 2 5 3 3 6 3 3 1h2v6h-2l-5-1-4-1-4-4-4-5-3-8v-13l1-4 2-5 4-5z"/></g><g fill="currentColor" stroke="currentColor" clip-path="url(#clipId0)"><path d="M516 398v-2zM516 398v-2zM516 398v-3zM516 398v-3zM516 399v-4h0zM516 399v-4zM516 400v-6zM516 400v-6zM516 400v-6h0zM516 400v-6zM516 401v-8zM516 401v-8zM516 401v-9zM516 401v-9 10zM516 402v-11zM516 402v-11zM516 402v-11h0zM516 402v-11l1 12z"/><path d="m517 403-1-12 1-1zM517 403v-13zM517 404v-14h0zM517 404v-14zM517 404v-15zM517 404v-15 16zM517 405v-17zM517 405v-17zM517 406v-18h0zM517 406v-18zM517 406v-19zM517 406v-19zM517 407v-20h0zM517 407v-20zM517 407v-20h0zM517 407v-20zM518 408l-1-21 1-1zM518 408v-22zM518 408v-22h0zM518 408v-22zM518 409v-24zM518 409v-24zM518 409v-24h0zM518 409v-24zM518 409v-25zM518 409v-25zM518 410v-26h0zM518 410v-26zM518 410v-26h0zM518 410v-26zM519 411l-1-27 1-1zM519 411v-28zM519 411v-28h0zM519 411v-28zM519 411v-29zM519 411v-29zM519 412v-30h0zM519 412v-30zM519 412v-31zM519 412v-31zM520 412l-1-31h1zM520 412v-31zM520 413v-32h0zM520 413v-32zM520 413v-33zM520 413v-33zM520 414v-34h0zM520 414v-34zM520 414v-34h0zM520 414v-34zM520 414v-34h0zM520 414v-18zM520 414v-18 1zM520 396v-16zM520 396v-16h0zM520 414v-17zM520 414v-17 1zM520 396v-16 15zM520 395v-15h0zM520 414v-16zM520 414v-16h0zM520 395v-15zM520 395v-15h0zM520 414v-16zM521 414l-1-16 1 1zM520 395v-15l1 14z"/><path d="m521 394-1-14h1zM521 414v-15zM521 414v-15h0zM521 394v-14zM521 394v-14h0zM521 414v-15zM521 414v-15 1zM521 394v-14 13zM521 393v-14zM521 414v-14zM521 414v-14 1zM521 393v-14zM521 393v-14h0zM521 414v-13zM521 414v-13h0zM521 393v-14zM521 393v-14h0zM521 414v-13zM521 414v-13h0zM521 393v-14zM521 393v-14h0zM521 414v-13zM521 415v-14 1zM521 393v-14zM521 392v-13h0zM521 415v-13zM521 415v-13h0zM521 392v-13zM521 392v-13h0zM521 415v-13zM521 415v-13 1zM521 392v-13zM521 391v-12h0zM521 415v-12zM521 415v-12h0zM521 391v-12zM521 391v-12h0zM521 415v-12zM521 415v-12h0zM521 391v-12zM521 391v-12h0zM521 415v-12zM521 415v-12h0zM521 391v-12zM521 391v-12h0zM521 415v-12zM521 415v-12h0zM521 391v-12zM521 390v-11h0zM521 415v-12zM521 415v-12h0zM521 390v-11zM521 390v-11h0zM521 415v-12zM521 415v-12 1zM521 390v-11zM521 390v-12zM521 415v-11zM521 415v-11h0zM521 390v-12zM521 390v-12h0zM521 415v-11zM522 416l-1-12 1 1zM521 390v-12zM522 389l-1-11h1zM522 416v-11zM522 416v-11h0zM522 389v-11zM522 389v-11h0zM522 416v-11zM522 416v-11h0zM522 389v-11zM522 389v-11h0zM522 416v-11zM522 416v-11h0zM522 389v-11zM522 389v-11h0zM522 416v-11zM522 416v-11h0zM522 389v-11zM522 388v-10h0zM522 416v-11zM522 416v-11 1zM522 388v-10zM522 388v-11zM522 416v-10zM522 416v-10h0zM522 388v-11zM522 388v-11h0zM522 416v-10zM522 416v-10h0zM522 388v-11zM522 388v-11h0zM522 416v-10zM522 416v-10h0zM522 388v-11zM522 387v-10h0zM522 416v-10zM522 417v-11h0zM522 387v-10zM522 387v-10h0zM522 417v-11zM522 417v-11h0zM522 387v-10zM522 387v-10h0zM522 417v-11zM523 417l-1-11 1 1zM522 387v-10zM523 387l-1-10h1zM523 417v-10zM523 417v-10h0zM523 387v-10zM523 386v-9h0zM523 417v-10zM523 417v-10h0zM523 386v-9zM523 386v-9h0zM523 417v-10zM523 417v-10h0zM523 386v-9zM523 386v-9h0zM523 417v-10zM523 417v-10 1zM523 386v-9zM523 386v-9h0zM523 417v-9zM523 417v-9h0zM523 386v-9zM523 386v-10zM523 417v-9zM523 417v-9h0zM523 386v-10zM523 386v-10h0zM523 417v-9zM523 417v-9h0zM523 386v-10zM523 386v-10h0zM523 417v-9zM523 418v-10h0zM523 386v-10zM523 385v-9h0zM523 418v-10zM523 418v-10h0zM523 385v-9zM523 385v-9h0zM523 418v-10zM524 418l-1-10 1 1zM523 385v-9zM524 385l-1-9h1zM524 418v-9zM524 418v-9h0zM524 385v-9zM524 385v-9h0zM524 418v-9zM524 418v-9h0zM524 385v-9zM524 384v-8h0zM524 418v-9zM524 418v-9h0zM524 384v-8zM524 384v-8h0zM524 418v-9zM524 418v-9h0zM524 384v-8zM524 384v-9zM524 418v-9zM524 418v-9 1zM524 384v-9zM524 384v-9h0zM524 418v-8zM524 418v-8h0zM524 384v-9zM524 384v-9h0zM524 418v-8zM524 419v-9h0zM524 384v-9zM524 384v-9h0zM524 419v-9zM524 419v-9h0zM524 384v-9zM524 383v-8h0zM524 419v-9zM525 419l-1-9h1zM524 383v-8zM525 383l-1-8h1zM525 419v-9zM525 419v-9h0zM525 383v-8zM525 383v-8h0zM525 419v-9zM525 419v-9 1zM525 383v-8zM525 383v-8h0zM525 419v-8zM525 419v-8h0zM525 383v-8zM525 383v-9zM525 419v-8zM525 419v-8h0zM525 383v-9zM525 382v-8h0zM525 419v-8zM525 419v-8h0zM525 382v-8zM525 382v-8h0zM525 419v-8zM525 419v-8h0zM525 382v-8zM525 382v-8h0zM525 419v-8zM526 420l-1-9 1 1zM525 382v-8zM526 382l-1-8h1zM526 420v-8zM526 420v-8h0zM526 382v-8zM526 382v-8h0zM526 420v-8zM526 420v-8h0zM526 382v-8zM526 382v-8h0zM526 420v-8zM526 420v-8h0zM526 382v-8zM526 382v-8h0zM526 420v-8zM526 420v-8h0zM526 382v-8zM526 382v-8h0zM526 420v-8zM526 420v-8h0zM526 382v-8zM526 382v-8h0zM526 420v-8zM526 420v-8h0zM526 382v-8zM526 382v-8h0zM526 420v-8zM526 420v-8h0zM526 382v-8zM526 382v-8h0zM526 420v-8zM526 420v-8h0zM526 382v-8zM526 381v-7h0zM526 420v-8zM526 420v-8h0zM526 381v-7zM526 381v-7h0zM526 420v-8zM526 420v-8h0zM526 381v-7zM526 381v-7h0zM526 420v-8zM526 420v-8h0zM526 381v-7zM526 381v-7h0zM526 420v-8zM526 420v-8h0zM526 381v-7zM526 381v-7h0zM526 420v-8zM526 420v-8h0zM526 381v-7zM526 381v-7h0zM526 420v-8zM526 420v-8h0zM526 381v-7zM526 381v-7h0zM526 420v-8zM526 420v-8h0zM526 381v-7zM526 381v-7h0zM526 420v-8zM526 420v-8h0zM526 381v-7zM526 381v-7h0zM526 420v-8zM526 420v-8h0zM526 381v-7zM526 381v-7h0zM526 420v-8zM526 420v-8h0zM526 381v-7zM526 381v-7h0zM526 420v-8zM526 420v-8h0zM526 381v-7zM526 381v-7h0zM526 420v-8zM526 420v-8h0zM526 381v-7zM526 381v-7h0zM526 420v-8zM526 420v-8h0zM526 381v-7zM526 381v-7h0zM526 420v-8zM526 420v-8h0zM526 381v-7zM526 381v-7h0zM526 420v-8zM526 420v-8h0zM526 381v-7zM526 381v-7h0zM526 420v-8zM526 420v-8h0zM526 381v-7zM526 381v-7h0zM526 420v-8zM526 420v-8 1zM526 381v-7zM526 381v-8zM526 420v-7zM526 420v-7h0zM526 381v-8zM526 381v-8h0zM526 420v-7zM526 420v-7h0zM526 381v-8zM526 381v-8h0zM526 420v-7zM527 420l-1-7h1zM526 381v-8zM527 381l-1-8h1zM527 420v-7zM527 420v-7h0zM527 381v-8zM527 381v-8h0zM527 420v-7zM527 420v-7h0zM527 381v-8zM527 381v-8h0zM527 420v-7zM527 420v-7h0zM527 381v-8zM527 381v-8h0zM527 420v-7zM527 420v-7h0zM527 381v-8zM527 381v-8h0zM527 420v-7zM527 420v-7h0zM527 381v-8zM527 381v-8h0zM527 420v-7zM527 421v-8h0zM527 381v-8zM527 381v-8h0zM527 421v-8zM527 421v-8h0zM527 381v-8zM527 381v-8h0zM527 421v-8zM527 421v-8h0zM527 381v-8zM527 380v-7h0zM527 421v-8zM527 421v-8h0zM527 380v-7zM527 380v-7h0zM527 421v-8zM527 421v-8h0zM527 380v-7zM527 380v-7h0zM527 421v-8zM527 421v-8h0zM527 380v-7zM527 380v-7h0zM527 421v-8zM528 421l-1-8h1zM527 380v-7zM528 380l-1-7h1zM528 421v-8zM528 421v-8 1zM528 380v-7zM528 380v-7h0zM528 421v-7zM528 421v-7h0zM528 380v-7zM528 380v-7h0zM528 421v-7zM528 421v-7h0zM528 380v-7zM528 380v-7h0zM528 421v-7zM528 421v-7h0zM528 380v-7zM528 380v-8zM528 421v-7zM528 421v-7h0zM528 380v-8zM528 380v-8h0zM528 421v-7zM528 421v-7h0zM528 380v-8zM528 380v-8h0zM528 421v-7zM529 421l-1-7h1zM528 380v-8zM529 379l-1-7h1zM529 421v-7zM529 422v-8h0zM529 379v-7zM529 379v-7h0zM529 422v-8zM529 422v-8h0zM529 379v-7zM529 379v-7h0zM529 422v-8zM529 422v-8h0zM529 379v-7zM529 379v-7h0zM529 422v-8zM529 422v-8 1zM529 379v-7zM529 379v-7h0zM529 422v-7zM529 422v-7h0zM529 379v-7zM529 379v-7h0zM529 422v-7zM529 422v-7h0zM529 379v-7zM529 379v-7h0zM529 422v-7zM530 422l-1-7h1zM529 379v-7zM530 379l-1-7h1zM530 422v-7zM530 422v-7h0zM530 379v-7zM530 379v-7h0zM530 422v-7zM530 422v-7h0zM530 379v-7zM530 379v-7h0zM530 422v-7zM530 422v-7h0zM530 379v-7zM530 378v-7zM530 422v-7zM530 422v-7h0zM530 378v-7zM530 378v-7h0zM530 422v-7zM531 422l-1-7h1zM530 378v-7zM531 378l-1-7h1zM531 422v-7zM531 422v-7h0zM531 378v-7zM531 378v-7h0zM531 422v-7zM531 422v-7 1zM531 378v-7zM531 378v-7h0zM531 422v-6zM531 422v-6h0zM531 378v-7zM531 378v-7h0zM531 422v-6zM531 422v-6h0zM531 378v-7zM531 378v-7h0zM531 422v-6zM532 422l-1-6h1zM531 378v-7zM532 378l-1-7h1zM532 422v-6zM532 423v-7h0zM532 378v-7zM532 378v-7h0zM532 423v-7zM532 423v-7h0zM532 378v-7zM532 378v-7h0zM532 423v-7zM532 423v-7h0zM532 378v-7zM532 378v-7h0zM532 423v-7zM533 423l-1-7h1zM532 378v-7zM533 378l-1-7h1zM533 423v-7zM533 423v-7h0zM533 378v-7zM533 378v-7h0zM533 423v-7zM533 423v-7h0zM533 378v-7zM533 378v-7h0zM533 423v-7zM533 423v-7h0zM533 378v-7zM533 378v-7h0zM533 423v-7zM534 423l-1-7h1zM533 378v-7zM534 377l-1-6h1zM534 423v-7zM534 423v-7h0zM534 377v-6zM534 377v-6h0zM534 423v-7zM534 423v-7h0zM534 377v-6zM534 377v-6h0zM534 423v-7zM534 423v-7h0zM534 377v-6zM534 377v-6h0zM534 423v-7zM534 423v-7h0zM534 377v-6zM534 377v-6h0zM534 423v-7zM534 423v-7h0zM534 377v-6zM534 377v-6h0zM534 423v-7zM534 423v-7h0zM534 377v-6zM534 377v-6h0zM534 423v-7zM535 423l-1-7h1zM534 377v-6zM535 377l-1-6 1-1zM535 423v-7zM535 423v-7h0zM535 377v-7zM535 377v-7h0zM535 423v-7zM535 423v-7h0zM535 377v-7zM535 377v-7h0zM535 423v-7zM535 423v-7 1zM535 377v-7zM535 377v-7h0zM535 423v-6zM535 423v-6h0zM535 377v-7zM535 377v-7h0zM535 423v-6zM536 423l-1-6h1zM535 377v-7zM536 377l-1-7h1zM536 423v-6zM536 423v-6h0zM536 377v-7zM536 377v-7h0zM536 423v-6zM536 423v-6h0zM536 377v-7zM536 377v-7h0zM536 423v-6zM536 423v-6h0zM536 377v-7zM536 377v-7h0zM536 423v-6zM536 423v-6h0zM536 377v-7zM536 377v-7h0zM536 423v-6zM537 423l-1-6h1zM536 377v-7zM537 377l-1-7h1zM537 423v-6zM537 423v-6h0zM537 377v-7zM537 377v-7h0zM537 423v-6zM537 423v-6h0zM537 377v-7zM537 377v-7h0zM537 423v-6zM538 423l-1-6h1zM537 377v-7zM538 377l-1-7h1zM538 423v-6zM538 423v-6h0zM538 377v-7zM538 377v-7h0zM538 423v-6zM538 423v-6h0zM538 377v-7zM538 377v-7h0zM538 423v-6zM538 423v-6h0zM538 377v-7zM538 377v-7h0zM538 423v-6zM538 423v-6h0zM538 377v-7zM538 377v-7h0zM538 423v-6zM538 423v-6h0zM538 377v-4zM538 377v-4h0zM538 373v-3zM538 372v-2h0zM538 423v-6zM538 423v-6h0zM538 377v-4zM538 377v-4 1zM538 372v-2zM538 372v-2h0zM538 423v-6zM538 423v-6h0zM538 377v-3zM538 377v-3h0zM538 372v-2zM538 372v-2h0zM538 423v-6zM538 423v-6h0zM538 377v-3zM538 377v-3h0zM538 372v-2zM538 371zM538 423v-6zM538 423v-6h0zM538 377v-3zM538 377v-3 1zM538 371zM538 371zM538 423v-6zM538 423v-6h0zM538 377v-2zM538 377v-2h0zM538 371zM538 371zM538 423v-6zM538 423v-6h0zM538 377v-2zM538 377v-2 1zM538 371zM538 371zM538 423v-6zM538 423v-6h0zM538 377v-1zM538 377v-1zM538 371z"/></g><g fill="none" stroke="currentColor" clip-path="url(#clipId0)"><path d="m558 372 4-2 3 1 2 1 2 2 1 2 1 5v42h-4v-42l-3-4h-3l-4 1-4 3-1 2-1 2v38h-4v-52h4v6l1 1v-1l2-2z"/></g><g fill="currentColor" stroke="currentColor" clip-path="url(#clipId0)"><path d="M547 423v-52zM547 423v-52h0zM547 423v-52zM548 423l-1-52h1zM548 423v-52zM548 423v-52h0zM548 423v-52zM549 423l-1-52h1zM549 423v-52zM549 423v-52h0zM549 423v-52zM550 423l-1-52h1zM550 423v-52zM550 423v-52h0zM550 423v-52zM551 423l-1-52h1zM551 423v-52zM551 423v-52h0zM551 423v-52zM551 423v-52h0zM551 423v-39zM551 423v-39h0zM551 384v-13zM551 384v-13h0zM551 423v-39zM551 423v-39h0zM551 384v-10zM551 384v-10 1zM551 374v-3zM551 373v-2h0zM551 423v-39zM551 423v-39h0zM551 384v-9zM551 384v-9h0zM551 373v-2zM551 373v-2h0zM551 423v-39zM551 423v-39h0zM551 384v-9zM551 384v-9h0zM551 373v-2zM551 372v-1h0zM551 423v-39zM551 423v-39h0zM551 384v-9zM551 384v-9h0zM551 372v-1zM551 372v-1h0zM551 423v-39zM551 423v-39h0zM551 384v-9zM551 384v-9 1zM551 372v-1zM551 372v-1h0zM551 423v-39zM551 423v-39h0zM551 384v-8zM551 384v-8h0zM551 372v-1zM551 371zM551 384v-8zM551 384v-8 1zM551 384v-7zM551 384v-7 1zM551 384v-6zM552 384l-1-6h1zM552 384v-6zM552 384v-6h0zM552 384v-6zM552 383v-5h0zM552 383v-5zM552 383v-5h0zM552 383v-5zM552 383v-5h0zM552 383v-5zM552 383v-5h0zM552 383v-5zM552 383v-5h0zM552 383v-5zM552 383v-5h0zM552 383v-5zM552 383v-5h0zM552 383v-5zM552 383v-6zM552 383v-6zM552 383v-6h0zM552 383v-6zM552 382v-5h0zM552 382v-5zM552 382v-5h0zM552 382v-5zM553 382l-1-5h1zM553 382v-5zM553 382v-6zM553 382v-6zM553 382v-6h0zM553 382v-6zM553 381v-5h0zM553 381v-5zM554 381l-1-5 1-1zM554 381v-6zM554 381v-6h0zM554 381v-6zM554 381v-6h0zM554 381v-6zM554 380v-5h0zM554 380v-5zM554 380v-5h0zM554 380v-5zM554 380v-6zM554 380v-6zM555 380l-1-6h1zM555 380v-6zM555 380v-6h0zM555 380v-6zM555 379v-5h0zM555 379v-5zM555 379v-6zM555 379v-6zM556 379l-1-6h1zM556 379v-6zM556 379v-6h0zM556 379v-6zM556 379v-6h0zM556 379v-6zM556 379v-6h0zM556 379v-6zM556 379v-6h0zM556 379v-6zM557 378l-1-5 1-1zM557 378v-6zM557 378v-6h0zM557 378v-6zM557 378v-6h0zM557 378v-6zM557 378v-6h0zM557 378v-6zM557 378v-6h0zM557 378v-6zM558 378l-1-6h1zM558 378v-6zM558 378v-6h0zM558 378v-6zM558 378v-6h0zM558 378v-6zM558 378v-6h0zM558 378v-6zM558 378v-6h0zM558 378v-6zM558 378v-6h0zM558 378v-6zM558 378v-6h0zM558 378v-6zM558 378v-6h0zM558 378v-6zM558 378v-6h0zM558 378v-6zM558 378v-6h0zM558 378v-6zM558 378v-6h0zM558 378v-6zM558 378v-6h0zM558 378v-6zM558 378v-6h0zM558 378v-6zM558 378v-6h0zM558 378v-6zM558 378v-6h0zM558 378v-6zM558 378v-6h0zM558 378v-6zM558 378v-6h0zM558 378v-6zM558 378v-6h0zM558 378v-6zM558 378v-6h0zM558 378v-6zM558 378v-6h0zM558 378v-6zM558 378v-6h0zM558 378v-6zM558 378v-6h0zM558 378v-6zM558 378v-6h0zM558 378v-6zM558 378v-6h0zM558 378v-6zM558 378v-6h0zM558 378v-6zM558 377v-6zM558 377v-6zM559 377l-1-6h1zM559 377v-6zM559 377v-6h0zM559 377v-6zM559 377v-6h0zM559 377v-6zM559 377v-6h0zM559 377v-6zM560 377l-1-6h1zM560 377v-6zM560 377v-6h0zM560 377v-6zM560 377v-6h0zM560 377v-6zM561 377l-1-6h1zM561 377v-6zM561 377v-6h0zM561 377v-6zM561 377v-6h0zM561 377v-6zM562 377l-1-6h1zM562 377v-6zM562 377v-6h0zM562 377v-6zM562 377v-7zM562 377v-7zM563 377l-1-7h1zM563 377v-7zM563 377v-7h0zM563 377v-7zM563 377v-7h0zM563 377v-7zM563 377v-7h0zM563 377v-7zM563 377v-7h0zM563 377v-7zM564 377l-1-7h1zM564 377v-7zM564 377v-7 1zM564 377v-6zM564 377v-6h0zM564 377v-6zM564 377v-6h0zM564 377v-6zM565 377l-1-6h1zM565 377v-6zM565 377v-6h0zM565 377v-6zM565 377v-6h0zM565 377v-6zM565 378v-7h0zM565 378v-7zM565 378v-7h0zM565 378v-7zM565 378v-7h0zM565 378v-7zM565 378v-7h0zM565 378v-7zM565 378v-7h0zM565 378v-7zM566 378l-1-7h1zM566 378v-7zM566 378v-7h0zM566 378v-7zM566 378v-7h0zM566 378v-7zM566 379v-8h0zM566 379v-8zM566 379v-8h0zM566 379v-8zM566 379v-8h0zM566 379v-8zM566 380v-9h0zM566 380v-9zM566 380v-9h0zM566 380v-9zM566 380v-9h0zM566 380v-9zM566 381v-10h0zM566 381v-10zM566 381v-10h0zM566 381v-10zM567 381l-1-10h1zM567 381v-10 11zM567 382v-11 1zM567 382v-10zM567 383v-11h0zM567 383v-11zM567 383v-11h0zM567 383v-11zM567 383v-11h0zM567 400zv-4zM567 383v-11zM567 383v-11h0zM567 400v-5 8zM567 403v-10zM567 383v-11zM567 383v-11h0zM567 403v-10 12zM567 405v-14zM567 383v-11zM567 384v-12h0zM567 405v-14 16zM567 407v-18zM567 384v-12zM567 384v-12h0zM567 407v-18 20zM567 409v-22zM567 384v-12zM567 384v-12h0zM567 409v-37 39zM567 411v-39h0zM567 411v-39zM567 411v-39h0zM567 411v-39 44zM567 416v-44h0zM567 416v-44 48zM567 420v-48h0zM567 420v-48 51zM567 423v-51h0zM567 423v-51zM567 423v-51h0zM567 423v-51zM567 423v-51h0zM567 423v-51zM567 423v-51h0zM567 423v-51zM568 423l-1-51h1zM568 423v-51zM568 423v-51h0zM568 423v-51zM568 423v-51h0zM568 423v-51zM568 423v-51 1zM568 423v-50zM568 423v-50h0zM568 423v-50zM568 423v-50h0zM568 423v-50zM569 423l-1-50h1zM569 423v-50zM569 423v-50 1zM569 423v-49zM569 423v-49h0zM569 423v-49zM569 423v-49h0zM569 423v-49zM569 423v-49h0zM569 423v-49zM569 423v-49 1zM569 423v-48zM569 423v-48h0zM569 423v-48zM570 423l-1-48h1zM570 423v-48zM570 423v-48 1zM570 423v-47zM570 423v-47h0zM570 423v-47zM570 423v-47 2zM570 423v-45zM570 423v-45h0zM570 423v-45zM571 423l-1-45 1 1zM571 423v-44zM571 423v-44 1zM571 423v-43zM571 423v-43h0zM571 423v-43zM571 423v-43 1zM571 423v-42zM571 423v-42 1zM571 423v-41zM571 423v-41 1zM571 423v-40zM571 423v-40 1zM571 423v-39 36zM571 420v-36h0zM571 420v-36zM571 420v-36h0zM571 420v-36 32zM571 416v-32h0zM571 416v-32 28zM571 412v-28 1zM571 412v-24zM571 412v-24h0zM571 388v-3zM571 388v-3h0zM571 412v-24 20zM571 408v-20 4zM571 388v-3 2zM571 387v-2h0zM571 408v-16zM571 408v-16h0zM571 387v-2zM571 387v-2h0zM571 408v-16 12zM571 404v-12 4zM571 387v-2zM571 386v-1h0zM571 404v-8zM571 404v-8h0zM571 386v-1zM571 386v-1h0zM571 404v-8 4zM571 386v-1zM571 386v-1h0zM571 386v-1h0z"/></g><g fill="none" stroke="currentColor" clip-path="url(#clipId0)"><path d="m498 414-4-5-2-4-2-9 1-2h21v-2l-1-8-1-5-3-5-5-4-3-1-3 1-4 3-2 3-3 9-1 8v7l1 3 2 8 3 5 5 4 5 3h6v-6l-3-1-4-1z"/><path d="m493 380 3-4 4-1 3 2 3 4 1 5 1 3h-17v-3z"/></g><g fill="currentColor" stroke="currentColor" clip-path="url(#clipId0)"><path d="M486 397v-3zM486 397v-3zM486 397v-3h0zM486 397v-3zM486 398v-5zM486 398v-5zM486 398v-5h0zM486 398v-5zM486 399v-8zM486 399v-8zM486 399v-8h0zM486 399v-8zM486 400v-10zM486 400v-10zM486 400v-10h0zM486 400v-10zM486 400v-10h0zM486 400v-10zM486 401v-12zM486 401v-12zM486 401v-12h0zM486 401v-12zM486 402v-14zM486 402v-14zM486 402v-14h0zM486 402v-14zM487 402l-1-14 1-1zM487 402v-15zM487 403v-16h0zM487 403v-16zM487 403v-16h0zM487 403v-16zM487 404v-18zM487 404v-18zM487 404v-18h0zM487 404v-18zM487 404v-19zM487 404v-19 20zM487 405v-20h0zM487 405v-20zM487 405v-20h0zM487 405v-20 21zM487 406v-22zM487 406v-22zM487 406v-22h0zM487 406v-22zM487 407v-24zM487 407v-24zM488 407l-1-24h1zM488 407v-24zM488 408v-26zM488 408v-26zM488 408v-27zM488 408v-27zM488 409v-28h0zM488 409v-28zM488 409v-29zM488 409v-29zM489 410l-1-30h1zM489 410v-30zM489 410v-31zM489 410v-31 32zM489 411v-33zM489 411v-33zM489 411v-33h0zM489 411v-33zM489 412v-35zM489 412v-35zM490 412l-1-35h1zM490 412v-35zM490 413v-37zM490 413v-37zM490 413v-37h0zM490 413v-37zM490 414v-38h0zM490 414v-38zM490 414v-39zM490 414v-19zM490 414v-19h0zM490 395v-20zM490 394v-19h0zM490 414v-19zM491 414l-1-19 1 1zM490 394v-19zM491 394l-1-19h1zM491 414v-18zM491 414v-18 1zM491 394v-19zM491 394v-19h0zM491 414v-17zM491 414v-17 1zM491 394v-19zM491 394v-19h0zM491 414v-16zM491 414v-16 1zM491 394v-19zM491 394v-19h0zM491 414v-15zM491 414v-15h0zM491 394v-19zM491 394v-19h0zM491 414v-15zM491 415v-16 1zM491 394v-19zM491 394v-19h0zM491 415v-15zM491 415v-15h0zM491 394v-19zM491 394v-19h0zM491 415v-15zM491 415v-15 1zM491 394v-19zM491 394v-19h0zM491 415v-14zM491 415v-14 1zM491 394v-19zM491 394v-20zM491 415v-13zM491 415v-13 1zM491 394v-20zM491 394v-20h0zM491 415v-12zM491 415v-12h0zM491 394v-20zM491 394v-20h0zM491 415v-12zM492 416l-1-13 1 1zM491 394v-20zM492 394l-1-20h1zM492 416v-12zM492 416v-12h0zM492 394v-20zM492 394v-20h0zM492 416v-12zM492 416v-12h0zM492 394v-20zM492 394v-20h0zM492 416v-12zM492 416v-12 1zM492 394v-20zM492 394v-21zM492 416v-11zM492 416v-11 1zM492 394v-21zM492 394v-21h0zM492 416v-10zM492 416v-10h0zM492 394v-21zM492 394v-21h0zM492 416v-10zM492 416v-10h0zM492 394v-21zM492 394v-21h0zM492 416v-10zM492 417v-11 1zM492 394v-21zM492 394v-21h0zM492 417v-10zM492 417v-10h0zM492 394v-21zM492 394v-21h0zM492 417v-10zM493 417l-1-10h1zM492 394v-21zM493 394l-1-21h1zM493 417v-10zM493 417v-10 1zM493 394v-21zM493 394v-22zM493 417v-9zM493 417v-9h0zM493 394v-22zM493 394v-22h0zM493 417v-9zM493 417v-9h0zM493 394v-22zM493 394v-22h0zM493 417v-9zM493 418v-10 1zM493 394v-22zM493 394v-22h0zM493 418v-9zM494 418l-1-9h1zM493 394v-22zM494 394l-1-22 1-1zM494 418v-9zM494 418v-9h0zM494 394v-23zM494 394v-23h0zM494 418v-9zM494 418v-9 1zM494 394v-23zM494 394v-23h0zM494 418v-8zM494 418v-8h0zM494 394v-23zM494 394v-23h0zM494 418v-8zM494 419v-9h0zM494 394v-23zM494 394v-23h0zM494 419v-9zM494 419v-9h0zM494 394v-23zM494 394v-23h0zM494 419v-9zM495 419l-1-9h1zM494 394v-23zM495 394l-1-23h1zM495 419v-9zM495 419v-9 1zM495 394v-23zM495 394v-23h0zM495 419v-8zM495 419v-8h0zM495 394v-23zM495 394v-23h0zM495 419v-8zM495 419v-8h0zM495 394v-23zM495 394v-24zM495 419v-8zM495 419v-8 1zM495 394v-24zM495 394v-24h0zM495 419v-7zM496 420l-1-8h1zM495 394v-24zM496 394l-1-24h1zM496 420v-8zM496 420v-8h0zM496 394v-24zM496 394v-24h0zM496 420v-8zM496 420v-8h0zM496 394v-24zM496 394v-24h0zM496 420v-8zM496 420v-8 1zM496 394v-24zM496 394v-24h0zM496 420v-7zM497 420l-1-7h1zM496 394v-24zM497 394l-1-24h1zM497 420v-7zM497 420v-7h0zM497 394v-24zM497 394v-24h0zM497 420v-7zM497 421v-8h0zM497 394v-24zM497 394v-24h0zM497 421v-8zM497 421v-8h0zM497 394v-24zM497 394v-25zM497 421v-8zM497 421v-8 1zM497 394v-25zM497 394v-25h0zM497 421v-7zM498 421l-1-7h1zM497 394v-25zM498 394l-1-25h1zM498 421v-7zM498 421v-7h0zM498 394v-25zM498 394v-25h0zM498 421v-7zM498 421v-7h0zM498 394v-25zM498 394v-25h0zM498 421v-7zM498 421v-7h0zM498 394v-25zM498 394v-25h0zM498 421v-7zM498 421v-7h0zM498 394v-25zM498 394v-25h0zM498 421v-7zM498 421v-7h0zM498 394v-25zM498 394v-25h0zM498 421v-7zM499 422l-1-8 1 1zM498 394v-25zM499 394l-1-25h1zM499 422v-7zM499 422v-7h0zM499 394v-25zM499 394v-25h0zM499 422v-7zM499 422v-7h0zM499 394v-25zM499 394v-25h0zM499 422v-7zM499 422v-7h0zM499 394v-25zM499 394v-25h0zM499 422v-7zM499 422v-7h0zM499 394v-25zM499 394v-25h0zM499 422v-7zM500 422l-1-7h1zM499 394v-25zM500 394l-1-25h1zM500 422v-7zM500 422v-7h0zM500 394v-25zM500 394v-25h0zM500 422v-7zM500 422v-7h0zM500 394v-25zM500 394v-25h0zM500 422v-7zM501 422l-1-7h1zM500 394v-25zM501 394l-1-25h1zM501 422v-7zM501 422v-7h0zM501 394v-25zM501 394v-25h0zM501 422v-7zM501 422v-7 1zM501 394v-25zM501 394v-25h0zM501 422v-6zM501 422v-6h0zM501 394v-25zM501 394v-25 1zM501 422v-6zM501 422v-6h0zM501 394v-24zM501 394v-24h0zM501 422v-6zM501 422v-6h0zM501 394v-24zM501 394v-24h0zM501 422v-6zM502 423l-1-7h1zM501 394v-24zM502 394l-1-24h1zM502 423v-7zM502 423v-7h0zM502 394v-24zM502 394v-24h0zM502 423v-7zM502 423v-7h0zM502 394v-24zM502 394v-24h0zM502 423v-7zM503 423l-1-7h1zM502 394v-24zM503 394l-1-24h1zM503 423v-7zM503 423v-7h0zM503 394v-24zM503 394v-24h0zM503 423v-7zM503 423v-7h0zM503 394v-24zM503 394v-24h0zM503 423v-7zM503 423v-7h0zM503 394v-24zM503 394v-24h0zM503 423v-7zM503 423v-7h0zM503 394v-24zM503 394v-24h0zM503 423v-7zM504 423l-1-7h1zM503 394v-24zM504 394l-1-24 1 1zM504 423v-7zM504 423v-7h0zM504 394v-23zM504 394v-23h0zM504 423v-7zM504 423v-7h0zM504 394v-23zM504 394v-23h0zM504 423v-7zM504 423v-7h0zM504 394v-23zM504 394v-23h0zM504 423v-7zM504 423v-7h0zM504 394v-23zM504 394v-23h0zM504 423v-7zM504 423v-7h0zM504 394v-23zM504 394v-23h0zM504 423v-7zM505 423l-1-7h1zM504 394v-23zM505 394l-1-23 1 1zM505 423v-7zM505 423v-7h0zM505 394v-22zM505 394v-22h0zM505 423v-7zM505 423v-7 1zM505 394v-22zM505 394v-22h0zM505 423v-6zM505 423v-6h0zM505 394v-22zM505 394v-22h0zM505 423v-6zM505 423v-6h0zM505 394v-22zM505 394v-22h0zM505 423v-6zM506 423l-1-6h1zM505 394v-22zM506 394l-1-22h1zM506 423v-6zM506 423v-6h0zM506 394v-22zM506 394v-22 1zM506 423v-6zM506 423v-6h0zM506 394v-21zM506 394v-21h0zM506 423v-6zM506 423v-6h0zM506 394v-21zM506 394v-21h0zM506 423v-6zM506 423v-6h0zM506 394v-21zM506 394v-21h0zM506 423v-6zM507 423l-1-6h1zM506 394v-21zM507 394l-1-21 1 1zM507 423v-6zM507 423v-6h0zM507 394v-20zM507 394v-20h0zM507 423v-6zM507 423v-6h0zM507 394v-20zM507 394v-20h0zM507 423v-6zM507 423v-6h0zM507 394v-20zM507 394v-20 1zM507 423v-6zM508 423l-1-6h1zM507 394v-19zM508 394l-1-19h1zM508 423v-6zM508 423v-6h0zM508 394v-19zM508 394v-19h0zM508 423v-6zM508 423v-6h0zM508 394v-19zM508 394v-19 1zM508 423v-6zM508 423v-6h0zM508 394v-18zM508 394v-18h0zM508 423v-6zM508 423v-6h0zM508 394v-18zM508 394v-18h0zM508 423v-6zM508 423v-6h0zM508 394v-18zM508 394v-18h0zM508 423v-6zM508 423v-6 1zM508 394v-18zM508 394v-18h0zM508 423v-5zM508 423v-5h0zM508 394v-18zM508 394v-18h0zM508 423v-5zM508 423v-5 1zM508 394v-18zM508 394v-18h0zM508 423v-4zM508 422v-3h0zM508 394v-18zM508 394v-18h0zM508 422v-3zM508 422v-3 1zM508 394v-18zM508 394v-18h0zM508 422v-2zM508 422v-2h0zM508 394v-18zM508 394v-18h0zM508 422v-2zM508 421v-1zM508 394v-18zM508 394v-18 1zM508 421zM508 394v-17zM508 394v-17h0zM508 394v-17zM509 394l-1-17h1zM509 394v-17zM509 394v-17 1zM509 394v-16zM510 394l-1-16 1 2zM510 394v-14zM510 394v-14 1zM510 394v-13zM510 394v-13h0zM510 394v-13zM510 394v-13 1zM510 394v-12zM511 394l-1-12h1zM511 394v-12zM511 394v-12 2zM511 394v-10zM511 394v-10 1zM511 394v-9zM512 394l-1-9 1 1zM512 394v-8zM512 394v-8 2zM512 394v-6zM512 394v-6 1zM512 394v-5zM512 394v-5 1zM512 394v-4zM512 394v-4 2zM512 394v-2zM512 394v-2zM512 394z"/></g><g fill="none" stroke="currentColor" clip-path="url(#clipId0)"><path d="m607 390-1-5-2-5-2-4-3-4-4-2h-5l-4 3-2 3-3 6-2 4v5l-1 6v4l2 7 2 7 2 4 3 3 5 2 5-1 3-2 2-3 3-7 2-7z"/><path d="m601 408-2 6-4 4h-4l-3-3-3-5-2-11 1-11 1-5 1-2 1-2 2-2 4-1 4 1 2 3 1 3 2 8 1 7z"/></g><g fill="currentColor" stroke="currentColor" clip-path="url(#clipId0)"><path d="M578 400v-5zM578 400v-5zM578 400v-5h0zM578 400v-5zM578 401v-7zM578 401v-7zM579 401l-1-7 1-1zM579 401v-8zM579 401v-8h0zM579 401v-8 10zM579 403v-12zM579 403v-12zM579 403v-12h0zM579 403v-12 14zM579 405v-15zM579 405v-15zM579 405v-16zM579 405v-16 17zM579 406v-18zM579 406v-18 19zM579 407v-20zM579 407v-20zM580 408l-1-21 1-1zM580 408v-22 23zM580 409v-24zM580 409v-24zM580 409v-25zM580 409v-25 27zM580 411v-28zM580 411v-28zM580 411v-29zM580 411v-29l1 30z"/><path d="m581 412-1-30h1zM581 412v-30zM581 412v-31zM581 412v-31zM581 413v-32h0zM581 413v-32zM581 414v-34zM581 414v-34zM581 414v-34h0zM581 414v-34zM582 414l-1-34 1-1zM582 414v-35zM582 415v-36h0zM582 415v-36zM582 415v-36h0zM582 415v-36zM582 416v-38zM582 416v-38zM582 416v-38h0zM582 416v-38zM583 416l-1-38 1-1zM583 416v-39zM583 417v-40h0zM583 417v-40zM583 417v-41zM583 417v-41zM583 418v-42h0zM583 418v-42zM584 418l-1-42h1zM584 418v-42zM584 418v-43zM584 418v-43zM584 419v-44h0zM584 419v-44zM584 419v-45zM584 419v-45zM585 419l-1-45h1zM585 419v-45 46zM585 420v-46h0zM585 420v-46zM585 420v-47zM585 420v-47zM585 420v-47h0zM585 420v-47zM586 421l-1-48h1zM586 421v-48zM586 421v-48h0zM586 421v-48zM586 422v-50zM586 422v-50zM587 422l-1-50h1zM587 422v-50zM587 422v-50h0zM587 422v-50zM587 422v-50h0zM587 422v-50zM587 422v-50h0zM587 422v-50zM588 423l-1-51 1-1zM588 423v-52zM588 423v-52h0zM588 423v-52zM588 423v-52h0zM588 423v-52zM588 423v-52h0zM588 423v-52zM589 423l-1-52 1-1zM589 423v-53zM589 423v-53h0zM589 423v-53zM590 424l-1-54h1zM590 424v-54zM590 424v-54h0zM590 424v-54zM590 424v-54h0zM590 424v-54zM591 424l-1-54h1zM591 424v-54zM591 424v-54h0zM591 424v-54zM591 424v-54h0zM591 424v-54zM591 424v-55zM591 424v-55zM592 424l-1-55h1zM592 424v-55zM592 424v-55h0zM592 424v-55zM592 424v-55h0zM592 424v-55zM593 424l-1-55h1zM593 424v-55zM593 424v-55h0zM593 424v-55zM593 424v-55h0zM593 424v-55zM594 424l-1-55h1zM594 424v-55zM594 424v-55h0zM594 424v-55zM594 424v-55h0zM594 424v-55zM595 424l-1-55 1 1zM595 424v-54zM595 424v-54h0zM595 424v-54zM595 424v-54h0zM595 424v-54zM596 424l-1-54h1zM596 424v-54zM596 424v-54h0zM596 424v-54zM596 424v-54h0zM596 424v-54zM597 423l-1-53h1zM597 423v-53zM597 423v-53h0zM597 423v-53zM597 423v-53 1zM597 423v-52zM597 423v-52h0zM597 423v-52zM598 423l-1-52h1zM598 423v-52zM598 423v-52h0zM598 423v-52zM598 422v-51h0zM598 422v-51zM599 422l-1-51 1 1zM599 422v-50zM599 422v-50h0zM599 422v-50zM599 422v-50h0zM599 422v-50zM599 421v-49h0zM599 421v-49zM600 421l-1-49 1 1zM600 421v-48zM600 421v-48h0zM600 421v-48zM600 420v-47h0zM600 420v-47zM600 420v-47h0zM600 420v-47zM601 420l-1-47 1 1zM601 420v-46zM601 420v-46h0zM601 420v-46zM601 419v-45h0zM601 419v-45zM601 419v-45 1zM601 419v-44zM602 419l-1-44h1zM602 419v-44zM602 418v-43 1zM602 418v-42zM602 418v-42h0zM602 418v-42zM602 417v-41h0zM602 417v-41zM602 417v-41h0zM602 417v-41zM603 417l-1-41 1 1zM603 417v-40zM603 417v-40h0zM603 417v-40zM603 416v-39 1zM603 416v-38zM603 416v-38h0zM603 416v-38zM604 415l-1-37h1zM604 415v-37zM604 415v-37 1zM604 415v-36zM604 414v-35h0zM604 414v-35zM604 413v-34 1zM604 413v-33zM604 413v-33 1zM604 413v-32zM605 412l-1-31 1 1zM605 412v-30zM605 412v-30h0zM605 412v-30zM605 411v-29 1zM605 411v-28zM605 410v-27h0zM605 410v-27zM605 410v-27 1zM605 410v-26zM606 409l-1-25 1 1zM606 409v-24zM606 409v-24h0zM606 409v-24 23zM606 408v-23 1zM606 408v-22zM606 408v-22h0zM606 408v-22 21zM606 407v-21 1zM606 407v-20zM606 406v-19 1zM606 406v-18zM606 406v-18h0zM606 406v-18l1 17z"/><path d="m607 405-1-17 1 1zM607 405v-16zM607 404v-15h0zM607 404v-15zM607 404v-15 1zM607 404v-14zM607 403v-13h0zM607 403v-13zM607 402v-12 1zM607 402v-11zM607 401v-10 1zM607 401v-9zM607 400v-8 1zM607 400v-7zM607 400v-7 1zM607 400v-6 5zM607 399v-5h0zM607 399v-5 4zM607 398v-4 2zM607 398v-2h0z"/></g><g fill="none" stroke="currentColor" clip-path="url(#clipId0)"><path d="M451 435V268h167v167z"/></g></svg>