<svg xmlns="http://www.w3.org/2000/svg" xml:space="preserve" fill-rule="evenodd" stroke-linecap="round" stroke-linejoin="round" style="background-color:transparent" viewBox="0 0 1024 768"><defs><style><![CDATA[g[clip-path]>*{vector-effect:non-scaling-stroke}]]></style></defs><g fill="#ed1f24" stroke="#ed1f24" clip-path="url(#clipId0)"><path d="M190 497V370l127 127z"/><path d="M317 497 190 370h127z"/></g><g fill="none" stroke="currentColor" clip-path="url(#clipId0)"><path d="M10 650h1004V82H10zM10 505h1004M10 227h1004M10 555h1004M10 176h1004M59 479h41"/><path d="M61 485h12v9H61zM98 485H87v9h11zM86 473H74v-9h12zM67 485v-6M80 473v6M93 485v-6"/></g><g fill="currentColor" stroke="currentColor" clip-path="url(#clipId0)"><text font-family="Arial,'sans-serif'" font-size="1.4" transform="matrix(13 0 0 13 925 465)">24VAC</text></g><g fill="none" stroke="currentColor" clip-path="url(#clipId0)"><path d="M190 497V370M190 370h127M317 370v127M317 497H190M980 359v-47M980 312h-76M904 312v94M904 406h76M980 406v-47"/></g><g fill="currentColor" stroke="currentColor" clip-path="url(#clipId0)"><text font-family="Arial,'sans-serif'" font-size="1.4" transform="matrix(13 0 0 13 388 488)">AUDIO INTERFACE</text><text font-family="Arial,'sans-serif'" font-size="1.4" transform="matrix(19 0 0 19 675 490)">CE</text></g><g fill="none" stroke="currentColor" clip-path="url(#clipId0)"><path d="M378 467v30M378 497h336M714 497v-21M378 467h336M714 467v9"/></g><g fill="currentColor" stroke="currentColor" clip-path="url(#clipId0)"><text font-family="Arial,'sans-serif'" font-size="1.4" transform="matrix(13 0 0 13 889 488)">OUT</text></g><g fill="none" stroke="currentColor" clip-path="url(#clipId0)"><circle cx="786.6" cy="481.2" r="9.5"/><circle cx="824.5" cy="481.2" r="9.5"/><circle cx="862.4" cy="481.2" r="9.5"/><circle cx="938.1" cy="481.2" r="9.5"/><circle cx="976" cy="481.2" r="9.5"/></g><g fill="currentColor" stroke="currentColor" clip-path="url(#clipId0)"><text font-family="Arial,'sans-serif'" font-size="1.4" transform="matrix(13 0 0 13 725 488)">TLIN</text><text font-family="Arial,'sans-serif'" font-size="1.4" transform="matrix(15 0 0 15 374 313)">3</text><text font-family="Arial,'sans-serif'" font-size="1.4" transform="matrix(15 0 0 15 459 313)">4</text><text font-family="Arial,'sans-serif'" font-size="1.4" transform="matrix(15 0 0 15 543 313)">5</text><text font-family="Arial,'sans-serif'" font-size="1.4" transform="matrix(15 0 0 15 627 313)">6</text></g><g fill="none" stroke="currentColor" clip-path="url(#clipId0)"><circle cx="380.4" cy="338.4" r="9.5"/><circle cx="380.4" cy="338.4" r="15.8"/><circle cx="464.6" cy="338.4" r="9.5"/><circle cx="464.6" cy="338.4" r="15.8"/><circle cx="548.7" cy="338.4" r="9.5"/><circle cx="548.7" cy="338.4" r="15.8"/><circle cx="632.9" cy="338.4" r="9.5"/><circle cx="632.9" cy="338.4" r="15.8"/><circle cx="212.1" cy="338.4" r="9.5"/><circle cx="212.1" cy="338.4" r="15.8"/><circle cx="296.2" cy="338.4" r="9.5"/><circle cx="296.2" cy="338.4" r="15.8"/><circle cx="717" cy="338.4" r="9.5"/><circle cx="717" cy="338.4" r="15.8"/><circle cx="801.2" cy="338.4" r="9.5"/><circle cx="801.2" cy="338.4" r="15.8"/></g><g fill="currentColor" stroke="currentColor" clip-path="url(#clipId0)"><text font-family="Arial,'sans-serif'" font-size="1.4" transform="matrix(15 0 0 15 711 313)">7</text><text font-family="Arial,'sans-serif'" font-size="1.4" transform="matrix(15 0 0 15 795 313)">8</text><text font-family="Arial,'sans-serif'" font-size="1.4" transform="matrix(15 0 0 15 207 313)">1</text><text font-family="Arial,'sans-serif'" font-size="1.4" transform="matrix(15 0 0 15 291 313)">2</text></g><g fill="none" stroke="currentColor" clip-path="url(#clipId0)"><path d="M102 359v-47M102 312H26M26 312v94M26 406h76M102 406v-47"/><circle cx="801.5" cy="265.9" r="9.5"/><circle cx="506.9" cy="265.9" r="9.5"/><circle cx="212.3" cy="265.9" r="9.5"/></g><g fill="currentColor" stroke="currentColor" clip-path="url(#clipId0)"><text font-family="Arial,'sans-serif'" font-size="1.4" transform="matrix(13 0 0 13 763 249)">STATUS 2</text><text font-family="Arial,'sans-serif'" font-size="1.4" transform="matrix(13 0 0 13 490 249)">ACT</text><text font-family="Arial,'sans-serif'" font-size="1.4" transform="matrix(13 0 0 13 174 249)">STATUS 1</text></g><g fill="none" stroke="currentColor" clip-path="url(#clipId0)"><circle cx="791.1" cy="604.2" r="12.6"/><path d="M791 604v82"/><circle cx="828.9" cy="604.2" r="12.6"/><path d="M829 604v82"/><circle cx="866.8" cy="604.2" r="12.6"/><path d="M867 604v82"/><circle cx="942.6" cy="604.2" r="12.6"/><path d="M943 604v82"/><circle cx="980.5" cy="604.2" r="12.6"/><path d="M980 604v82M347 555v95M683 555v95M39 569h87v68H39z"/></g><g fill="none" stroke="currentColor" clip-path="url(#clipId0)"><path d="M205 375v73h4l4 1v3h-8v26l1 2 2 1 4 1v6l-4-1-3-2-2-2-1-5-1-5v-21h-3v-4h3v-73h4"/></g><g fill="currentColor" stroke="currentColor" clip-path="url(#clipId0)"><path d="M198 452v-4zM198 452v-4h0zM198 452v-4zM199 452l-1-4h1zM199 452v-4zM199 452v-4h0zM199 452v-4zM199 452v-4h0zM199 452v-4zM199 452v-4h0zM199 452v-4zM200 452l-1-4h1zM200 452v-4zM200 452v-4h0zM200 452v-4zM200 452v-4h0zM200 452v-4zM201 452l-1-4h1zM201 452v-4zM201 452v-4h0zM201 452v-4zM201 452v-4h0zM201 452v-4zM201 452v-4h0zM201 452v-4zM201 452v-4h0zM201 452v-4zM201 452v-4h0zM201 452v-4zM201 452v-4h0zM201 452v-4zM201 452v-4h0zM201 452v-4zM201 452v-4h0zM201 375zM201 452v-4zM201 452v-4h0zM201 375zM201 375zM201 452v-4zM201 452v-4h0zM201 375zM201 375zM201 452v-4zM201 452v-4h0zM201 375zM201 375zM201 375zM201 452v-4zM201 452v-4h0zM201 375zM201 376v-1h0zM201 375zM201 375zM201 452v-4zM201 452v-4h0zM201 376v-1zM201 376v-1h0zM201 375zM201 375zM201 452v-4zM201 452v-4h0zM201 376v-1zM201 376v-1h0zM201 375zM201 375zM201 452v-4zM201 452v-4h0zM201 376v-1zM201 376v-1h0zM201 375zM201 375zM201 452v-4zM201 452v-4h0zM201 376v-1zM201 377v-2h0zM201 375zM201 375zM201 452v-4zM201 452v-4h0zM201 377v-2zM201 377v-2h0zM201 375zM201 375zM201 452v-4zM201 452v-4h0zM201 377v-2zM201 378v-3h0zM201 375zM201 375zM201 452v-4zM201 452v-4h0zM201 378v-3zM201 378v-3h0zM201 375zM201 375zM201 452v-4zM201 452v-4h0zM201 378v-3zM201 378v-3h0zM201 375zM201 375zM201 473zM201 452v-4zM201 452v-4h0zM201 378v-3zM201 378v-3h0zM201 375zM201 375zM201 473zM201 473zM201 452v-4zM201 452v-4h0zM201 378v-3zM201 378v-3h0zM201 375zM201 375zM201 473zM201 473zM201 452v-4zM201 452v-4h0zM201 384zM201 378v-3zM201 378v-3h0zM201 375zM201 375zM201 473zM201 473zM201 452v-4zM201 452v-4h0zM201 384zM201 385v-2zM201 378v-3zM201 379v-4h0zM201 375zM201 375zM201 473zM201 473zM201 452v-4zM201 452v-4h0zM201 385v-2zM201 385v-2h0zM201 379v-4zM201 379v-4h0zM201 375zM201 375zM201 473zM201 474v-2h0zM201 452v-4zM201 452v-4h0zM201 385v-2zM201 385v-2h0zM201 379v-4zM201 379v-4h0zM201 375zM201 375zM201 474v-2zM201 474v-2h0zM201 452v-4zM201 452v-4h0zM201 385v-2zM201 385v-2h0zM201 379v-4zM201 379v-4h0zM201 375zM201 375zM201 474v-5zM201 474v-6zM201 452v-4zM201 453v-7zM201 393v-10 16zM201 399v-16h0zM201 379v-4zM201 379v-4h0zM201 375zM201 375zM201 474v-6zM201 474v-7zM201 453v-7zM201 453v-8zM201 399v-16 19zM201 402v-20zM201 379v-4zM201 379v-4h0zM201 375zM201 375zM201 474v-7zM201 474v-8zM201 453v-8zM201 453v-9zM201 402v-20 23zM201 405v-23h0zM201 379v-4zM201 380v-5h0zM201 375zM201 375zM201 474v-8zM201 474v-9zM201 453v-9zM201 453v-9h0zM201 405v-23 25zM201 407v-25h0zM201 380v-5zM201 380v-5h0zM201 375zM201 375zM201 474v-9zM201 474v-10zM201 453v-9zM201 454v-12zM201 407v-25 29zM201 411v-29h0zM201 380v-5zM201 380v-5h0zM201 375zM201 375zM201 474v-10zM201 474v-11zM201 454v-12zM201 454v-12h0zM201 411v-29 30zM201 412v-31zM201 380v-5zM201 380v-5h0zM201 375zM201 375zM201 474v-11zM201 474v-11h0zM201 454v-12zM201 454v-12h0zM201 412v-31 32zM201 413v-32h0zM201 380v-5zM201 380v-5h0zM201 375zM201 375zM201 474v-11zM201 474v-12zM201 454v-12zM201 454v-13zM201 413v-32 35zM201 416v-35h0zM201 380v-5 6zM201 381v-6h0zM201 375zM201 375zM201 474v-12zM201 474v-12h0zM201 454v-13zM201 454v-13h0zM201 416v-41zM201 417v-42h0zM201 375zM201 375zM201 474v-12zM201 474v-14zM201 454v-13zM201 454v-14zM201 417v-42 48zM201 423v-48h0zM201 375zM201 374zM201 474v-14zM201 474v-15zM201 454v-14zM201 454v-14h0zM201 423v-48 50zM201 425v-50h0zM201 374zM201 374zM201 474v-15zM201 474v-16zM201 454v-14 16zM201 456v-20zM201 425v-50 54zM201 429v-54h0zM201 374zM201 374zM201 474v-16zM201 474v-18zM201 456v-27zM201 456v-27 5zM201 436v-61 59zM201 434v-59h0zM201 374zM201 374zM201 474v-99zM201 474v-99h0zM201 374zM201 374zM201 474v-99zM201 474v-99h0zM201 374zM201 474v-99zM201 474v-99h0zM201 474v-99zM201 474v-99h0zM201 474v-99zM201 475V375h0zM201 475V375zM201 476V375h0zM201 476V375zM201 476V375h0zM201 476V375zM201 476V375h0zM201 476V375v102zM201 477V375h0zM201 477V375zM201 477V375h0zM201 477V375l1 103z"/><path d="m202 478-1-103h1zM202 478V375zM202 479V375h0zM202 479V375zM202 479V375h0zM202 479V375zM202 479V375h0zM202 479V375zM202 480V375h0zM202 480V375zM202 480V375h0zM202 480V375zM202 480V375h0zM202 480V375zM202 481V375h0zM202 481V375zM202 481V375h0zM202 481V375zM203 481l-1-106h1zM203 481V375zM203 482V375h0zM203 482V375zM203 482V375h0zM203 482V375zM203 482V375h0zM203 482V375zM203 483V375h0zM203 483V375zM203 483V375h0zM203 483V375zM204 483l-1-108h1zM204 483V375zM204 483V375h0zM204 483V375zM204 484V375h0zM204 484V375zM204 484V375h0zM204 484V375zM204 484V375h0zM204 484V375zM204 484V375h0zM204 484V375zM205 485l-1-110h1zM205 485V375zM205 485V375h0zM205 485v-12zM205 485v-12h0zM205 471v-87 85zM205 469v-85 7zM205 485v-12zM205 485v-12h0zM205 469v-78 76zM205 467v-76 7zM205 485v-12zM205 485v-12h0zM205 467v-69 67zM205 465v-67 7zM205 485v-12zM205 485v-12 1zM205 465v-60 58zM205 463v-58 6zM205 485v-11zM205 485v-11h0zM205 463v-52 50zM205 461v-50 7zM205 485v-11zM205 485v-11h0zM205 461v-43zM205 461v-43h0zM205 485v-11zM205 485v-11h0zM205 461v-43 41zM205 459v-41 7zM205 485v-11zM205 485v-11h0zM205 459v-34 32zM205 457v-32 7zM205 485v-11zM205 485v-11h0zM205 457v-25 23zM205 455v-23 7zM205 485v-11zM205 485v-11h0zM205 455v-16 13zM205 452v-13 9zM205 485v-11zM205 485v-11 1zM205 452v-4zM205 452v-4h0zM205 485v-10zM205 485v-10h0zM205 452v-4zM205 452v-4h0zM205 485v-10zM205 485v-10 1zM205 452v-4zM205 452v-4h0zM205 485v-9zM205 485v-9h0zM205 452v-4zM205 452v-4h0zM205 485v-9zM205 485v-9 1zM205 452v-4zM205 452v-4h0zM205 485v-8zM205 485v-8h0zM205 452v-4zM205 452v-4h0zM205 485v-8zM205 485v-8 1zM205 452v-4zM205 452v-4h0zM205 485v-7zM205 485v-7h0zM205 452v-4zM205 452v-4h0zM205 485v-7zM206 486l-1-8 1 1zM205 452v-4zM206 452l-1-4h1zM206 486v-7zM206 486v-7h0zM206 452v-4zM206 452v-4h0zM206 486v-7zM206 486v-7h0zM206 452v-4zM206 452v-4h0zM206 486v-7zM206 486v-7h0zM206 452v-4zM206 452v-4h0zM206 486v-7zM206 486v-7 1zM206 452v-4zM206 452v-4h0zM206 486v-6zM206 486v-6h0zM206 452v-4zM206 452v-4h0zM206 486v-6zM206 486v-6h0zM206 452v-4zM206 452v-4h0zM206 486v-6zM206 486v-6h0zM206 452v-4zM206 452v-4h0zM206 486v-6zM207 486l-1-6h1zM206 452v-4zM207 452l-1-4h1zM207 486v-6zM207 486v-6 1zM207 452v-4zM207 452v-4h0zM207 486v-5zM207 486v-5h0zM207 452v-4zM207 452v-4h0zM207 486v-5zM207 486v-5h0zM207 452v-4zM207 452v-4h0zM207 486v-5zM207 487v-6h0zM207 452v-4zM207 452v-4h0zM207 487v-6zM208 487l-1-6h1zM207 452v-4zM208 452l-1-4h1zM208 487v-6zM208 487v-6h0zM208 452v-4zM208 452v-4h0zM208 487v-6zM208 487v-6h0zM208 452v-4zM208 452v-4h0zM208 487v-6zM208 487v-6 1zM208 452v-4zM208 452v-4h0zM208 487v-5zM208 487v-5h0zM208 452v-4zM208 452v-4h0zM208 487v-5zM209 487l-1-5h1zM208 452v-4zM209 452l-1-4h1zM209 487v-5zM209 487v-5h0zM209 452v-4zM209 452v-4h0zM209 487v-5zM209 487v-5h0zM209 452v-4zM209 452v-4h0zM209 487v-5zM209 487v-5h0zM209 452v-4zM209 452v-4h0zM209 487v-5zM209 487v-5h0zM209 452v-4zM209 452v-4h0zM209 487v-5zM209 487v-5h0zM209 452v-4zM209 452v-4h0zM209 487v-5zM210 487l-1-5h1zM209 452v-4zM210 452l-1-4h1zM210 487v-5zM210 487v-5h0zM210 452v-4zM210 452v-4h0zM210 487v-5zM210 487v-5h0zM210 452v-4zM210 452v-4h0zM210 487v-5zM210 487v-5h0zM210 452v-4zM210 452v-4h0zM210 487v-5zM210 487v-5h0zM210 452v-4zM210 452v-4h0zM210 487v-5zM210 487v-5h0zM210 452v-4zM210 452v-4h0zM210 487v-5zM211 487l-1-5h1zM210 452v-4zM211 452l-1-4h1zM211 487v-5zM211 487v-5h0zM211 452v-4zM211 452v-4h0zM211 487v-5zM211 488v-6h0zM211 452v-4zM211 452v-4h0zM211 488v-6zM211 488v-6h0zM211 452v-4zM211 452v-4h0zM211 488v-6zM211 488v-6h0zM211 452v-4zM211 452v-4h0zM211 488v-6zM212 488l-1-6h1zM211 452v-4zM212 452l-1-4h1zM212 488v-6zM212 488v-6h0zM212 452v-4zM212 452v-4h0zM212 488v-6zM212 488v-6h0zM212 452v-4zM212 452v-4h0zM212 488v-6zM212 488v-6h0zM212 452v-4zM212 452v-4h0zM212 488v-6zM212 488v-6h0zM212 452v-4zM212 452v-4h0zM212 488v-6zM212 488v-6h0zM212 452v-4zM212 452v-4h0zM212 488v-6 5zM212 487v-5h0zM212 452v-4zM212 452v-4h0zM212 487v-5zM212 486v-4h0zM212 452v-4zM212 452v-4h0zM212 486v-4zM212 486v-4h0zM212 452v-4zM212 452v-4h0zM212 486v-4zM212 486v-4h0zM212 452v-4zM212 452v-4h0zM212 486v-4zM212 485v-3h0zM212 452v-4zM212 452v-4h0zM212 485v-3zM212 485v-3h0zM212 452v-4zM212 452v-4h0zM212 485v-3zM212 484v-2h0zM212 452v-4zM212 452v-4h0zM212 484v-2zM212 484v-2h0zM212 452v-4zM212 452v-4h0zM212 484v-2zM212 483zM212 452v-4zM212 452v-4h0zM212 483zM212 452v-4zM212 452v-4h0zM212 452v-4zM213 452l-1-4h1z"/></g><g fill="none" stroke="currentColor" clip-path="url(#clipId0)"><path d="M263 399h3v29l2 3 4 2 3 1 2-1v-2l1-4v-28h3v30l-1 7-2 2h-6l-4-3-1-1-1-1h0v5h-3 0v-39"/></g><g fill="currentColor" stroke="currentColor" clip-path="url(#clipId0)"><path d="M263 438v-3zM263 438v-3zM263 438v-5zM263 438v-5zM263 438v-8zM263 438v-8zM263 438v-10zM263 438v-10zM263 438v-12zM263 438v-12zM263 438v-13zM263 438v-13zM263 438v-14zM263 418zv-1zM263 438v-14zM263 438v-14h0zM263 418v-2zM263 418v-3zM263 438v-14zM263 438v-14h0zM263 418v-3zM263 419v-4h0zM263 438v-14zM263 438v-16zM263 419v-4 5zM263 420v-6zM263 438v-16zM263 438v-16h0zM263 420v-6zM263 420v-6h0zM263 438v-16zM263 438v-18zM263 420v-6zM263 420v-6h0zM263 438v-24zM263 438v-26zM263 438v-26zM263 438v-28zM263 438v-28zM263 438v-30zM263 438v-30zM263 438v-31zM263 438v-31zM263 438v-33zM263 438v-33zM263 438v-35zM263 438v-35zM263 438v-37zM263 438v-37zM263 438v-38zM263 438v-38zM263 438v-39zM263 438v-39zM263 438v-39h0zM263 438v-39zM263 438v-39h0zM263 438v-39zM263 438v-39h0zM263 438v-39zM263 438v-39h0zM263 438v-39zM263 438v-39h0zM263 438v-39zM263 438v-39h0zM263 438v-39zM263 438v-39h0zM263 438v-39zM263 438v-39h0zM263 438v-39zM263 438v-39h0zM263 438v-39zM263 438v-39h0zM263 438v-39zM263 438v-39h0zM263 438v-39zM263 438v-39h0zM263 438v-39zM263 438v-39h0zM263 438v-39zM263 438v-39h0zM263 438v-39zM263 438v-39h0zM263 438v-39zM263 438v-39h0zM263 438v-39zM263 438v-39h0zM263 438v-39zM263 438v-39h0zM263 438v-39zM263 438v-39h0zM263 438v-39zM263 438v-39h0zM263 438v-39zM264 438l-1-39h1zM264 438v-39zM264 438v-39h0zM264 438v-39zM265 438l-1-39h1zM265 438v-39zM265 438v-39h0zM265 438v-39zM265 438v-39h0zM265 438v-39zM266 438l-1-39h1zM266 438v-39zM266 438v-39h0zM266 438v-39zM266 438v-39h0zM266 438v-9zM266 438v-9h0zM266 429v-30zM266 429v-30h0zM266 438v-2zM266 438v-2 1zM266 436v-7zM266 436v-7h0zM266 429v-30zM266 429v-30h0zM266 438v-1zM266 438v-1h0zM266 436v-7zM266 436v-7h0zM266 429v-30zM266 429v-30h0zM266 438v-1zM266 438v-1zM266 436v-7zM266 435v-6h0zM266 429v-30zM266 428v-29h0zM266 438zM266 438zM266 435v-6zM266 435v-6h0zM266 428v-29zM266 428v-29h0zM266 438zM266 438zM266 435v-6zM266 434v-5h0zM266 428v-29zM266 428v-29h0zM266 434v-5zM266 434v-5h0zM266 426v-27zM266 425v-26h0zM266 434v-5zM266 434v-5h0zM266 425v-26 24zM266 423v-24 1zM266 434v-5zM266 434v-5h0zM266 423v-23 20zM266 420v-20 1zM266 434v-5zM266 434v-5h0zM266 420v-19zM266 419v-18h0zM266 434v-5zM266 434v-5h0zM266 419v-18 17zM266 418v-17h0zM266 434v-5zM266 434v-5h0zM266 418v-17 16zM266 417v-16 2zM266 434v-5zM266 434v-5h0zM266 417v-14 12zM266 415v-12 2zM266 434v-5zM266 434v-5h0zM266 415v-10 9zM266 414v-9 1zM266 434v-5zM266 434v-5h0zM266 414v-8 5zM266 411v-5 2zM266 434v-5zM266 433v-4h0zM266 411v-3zM266 433v-4zM266 433v-4h0zM266 433v-4zM266 433v-4h0zM266 433v-4zM266 433v-4h0zM266 433v-4zM266 433v-4h0zM266 433v-4zM266 433v-4h0zM266 433v-4zM266 433v-4h0zM266 433v-4zM266 433v-4h0zM266 433v-4zM267 433l-1-4h1zM267 433v-4zM267 433v-4h0zM267 433v-4zM267 434v-5 1zM267 434v-4zM267 434v-4h0zM267 434v-4zM267 434v-4h0zM267 434v-4zM267 434v-4h0zM267 434v-4zM267 434v-4h0zM267 434v-4zM267 434v-4h0zM267 434v-4zM267 434v-4h0zM267 434v-4zM268 435l-1-5 1 1zM268 435v-4zM268 435v-4h0zM268 435v-4zM268 435v-4h0zM268 435v-4zM268 435v-4h0zM268 435v-4zM268 435v-4h0zM268 435v-4zM268 436v-5h0zM268 436v-5zM268 436v-5h0zM268 436v-5zM269 436l-1-5 1 1zM269 436v-4zM269 436v-4h0zM269 436v-4zM269 436v-4h0zM269 436v-4zM269 436v-4h0zM269 436v-4zM269 436v-4h0zM269 436v-4zM269 436v-4h0zM269 436v-4zM269 437v-5h0zM269 437v-5zM270 437l-1-5h1zM270 437v-5zM270 437v-5 1zM270 437v-4zM270 437v-4h0zM270 437v-4zM270 437v-4h0zM270 437v-4zM270 437v-4h0zM270 437v-4zM270 437v-4h0zM270 437v-4zM271 438l-1-5h1zM271 438v-5zM271 438v-5h0zM271 438v-5zM271 438v-5h0zM271 438v-5zM271 438v-5h0zM271 438v-5zM271 438v-5h0zM271 438v-5zM272 438l-1-5h1zM272 438v-5zM272 438v-5 1zM272 438v-4zM272 438v-4h0zM272 438v-4zM272 438v-4h0zM272 438v-4zM272 438v-4h0zM272 438v-4zM273 438l-1-4h1zM273 438v-4zM273 438v-4h0zM273 438v-4zM273 438v-4h0zM273 438v-4zM274 439l-1-5h1zM274 439v-5zM274 439v-5h0zM274 439v-5zM274 439v-5h0zM274 439v-5zM274 439v-5h0zM274 439v-5zM274 439v-5h0zM274 439v-5zM274 439v-5h0zM274 439v-5zM274 439v-5h0zM274 439v-5zM275 439l-1-5h1zM275 439v-5zM275 439v-5h0zM275 439v-5zM275 439v-5h0zM275 439v-5zM275 439v-5h0zM275 439v-5zM275 439v-5h0zM275 439v-5zM275 439v-5h0zM275 439v-5zM275 439v-5h0zM275 439v-5zM275 439v-5h0zM275 439v-5zM276 439l-1-5h1zM276 439v-5zM276 439v-5h0zM276 439v-5zM276 439v-5h0zM276 439v-5zM276 439v-5h0zM276 439v-5zM276 439v-5h0zM276 439v-5zM276 438v-4h0zM276 438v-4zM276 438v-4h0zM276 438v-4zM276 438v-5zM276 438v-5zM276 438v-5h0zM276 438v-5zM277 438l-1-5h1zM277 438v-5zM277 438v-5h0zM277 438v-5zM277 438v-5h0zM277 438v-5zM277 438v-5h0zM277 438v-5zM277 438v-5h0zM277 438v-5zM277 438v-5h0zM277 438v-5zM277 438v-6zM277 438v-6zM277 438v-6h0zM277 438v-6zM277 438v-6h0zM277 438v-6zM277 438v-6h0zM277 438v-6zM277 438v-6h0zM277 438v-6zM277 438v-7zM277 438v-7zM277 438v-7h0zM277 438v-7zM277 438v-7h0zM277 438v-7zM278 438l-1-7h1zM278 438v-7zM278 438v-8zM278 438v-8zM278 438v-8h0zM278 438v-8zM278 438v-9zM278 438v-9zM278 438v-9h0zM278 438v-9zM278 438v-9h0zM278 438v-9zM278 438v-9h0zM278 415v-5zM278 438v-9zM278 438v-9h0zM278 415v-5zM278 415v-6zM278 438v-9zM278 438v-9h0zM278 415v-6zM278 416v-7h0zM278 438v-9zM278 438v-9h0zM278 426zM278 416v-7 9zM278 418v-11zM278 438v-9zM278 438v-9h0zM278 426zM278 426zM278 418v-11zM278 418v-11h0zM278 438v-9zM278 438v-9h0zM278 426zM278 426zM278 418v-11 13zM278 420v-15zM278 438v-9zM278 438v-9h0zM278 426zM278 426zM278 420v-15zM278 420v-16zM278 438v-9zM278 438v-9h0zM278 426zM278 426zM278 420v-16zM278 421v-17h0zM278 438v-9zM278 438v-9h0zM278 426zM278 426zh0zM278 421v-17zM278 421v-17h0zM278 438v-9zM278 438v-9h0zM278 426v-1zM278 426v-3zM278 421v-17 19zM278 423v-22zM278 438v-9zM278 438v-9h0zM278 426v-3zM278 426v-3h0zM278 423v-22zM278 423v-22h0zM278 438v-9zM278 438v-9h0zM278 426v-25zM278 426v-25h0zM278 438v-9zM278 438v-9h0zM278 426v-25zM278 427v-27zM278 438v-9zM278 438v-9h0zM278 427v-27zM278 427v-27h0zM278 438v-9zM278 438v-9h0zM278 427v-27zM278 427v-27h0zM278 438v-9zM278 438v-9h0zM278 427v-27zM278 427v-28zM278 438v-9zM278 438v-9h0zM278 427v-28zM278 427v-28h0zM278 438v-9zM278 438v-9h0zM278 427v-28zM278 428v-29h0zM278 438v-9zM278 438v-10zM278 428v-29zM278 428v-29h0zM278 438v-10zM278 438v-10h0zM278 428v-29zM278 428v-29h0zM278 438v-10zM278 438v-10h0zM278 428v-29zM278 428v-29h0zM278 438v-39zM278 438v-39h0zM278 438v-39zM278 438v-39h0zM278 438v-39zM278 437v-38h0zM278 437v-38zM278 437v-38h0zM278 437v-38zM279 437l-1-38h1zM279 437v-38zM279 437v-38h0zM279 437v-38zM279 436v-37h0zM279 436v-37zM279 436v-37h0zM279 436v-37zM279 436v-37h0zM279 436v-37zM279 436v-37h0zM279 436v-37zM280 436l-1-37h1zM280 436v-37zM280 435v-36h0zM280 435v-36zM280 435v-36h0zM280 435v-36zM280 435v-36h0zM280 435v-36zM280 434v-35h0zM280 434v-35zM280 434v-35h0zM280 434v-35zM280 434v-35h0zM280 434v-35zM280 433v-34h0zM280 433v-34zM280 433v-34h0zM280 433v-34zM281 432l-1-33h1zM281 432v-33zM281 431v-32h0zM281 431v-32zM281 431v-32h0zM281 431v-32zM281 431v-32h0zM281 431v-32 31zM281 430v-31h0zM281 430v-31 30zM281 429v-30h0zM281 429v-30zM281 428v-29h0zM281 428v-29zM281 428v-29 2zM281 428v-27zM281 428v-27 3zM281 428v-24zM281 428v-24 3zM281 428v-21zM281 428v-21 3zM281 428v-4zM281 428v-4h0zM281 424v-14zM281 424v-14h0zM281 428v-4zM281 428v-4 1zM281 424v-14 11zM281 421v-11 3zM281 428v-3zM281 428v-3h0zM281 421v-8zM281 421v-8h0zM281 428v-3zM281 428v-3h0zM281 421v-8 6zM281 419v-6 3zM281 428v-3zM281 428v-3h0zM281 419v-3h0zM281 428v-3zM281 428v-3 2zM281 428v-1zM281 428v-1h0zM281 428v-1z"/></g><g fill="none" stroke="currentColor" clip-path="url(#clipId0)"><path d="m308 411-2-5-3-6-3-2-2-1-3 1-3 2-3 4-1 3-1 5-1 5 1 4v5l2 5 3 5 2 2 3 1 4-1 3-3 2-5 2-5v-14"/><path d="m305 423-2 5-1 2-2 3-3 1-2-1-3-4-2-8v-8l1-5 3-4 3-2 3 1 3 4 2 8z"/></g><g fill="currentColor" stroke="currentColor" clip-path="url(#clipId0)"><path d="M286 419v-2zM286 419v-2zM286 420v-4zM286 420v-4zM286 420v-4h0zM286 420v-4zM287 421l-1-5 1-1zM287 421v-6zM287 421v-6h0zM287 421v-6zM287 422v-8zM287 422v-8zM287 422v-8h0zM287 422v-8zM287 423v-10zM287 423v-10zM287 423v-10h0zM287 423v-10zM287 424v-12zM287 424v-12zM287 424v-12h0zM287 424v-12zM287 425v-14zM287 425v-14zM287 425v-14h0zM287 425v-14zM287 426v-16zM287 426v-16zM287 426v-16h0zM287 426v-16zM287 426v-16h0zM287 426v-16zM287 427v-18zM287 427v-18zM288 427l-1-18h1zM288 427v-18zM288 428v-20zM288 428v-20zM288 428v-20h0zM288 428v-20zM288 429v-22zM288 429v-22zM288 429v-22h0zM288 429v-22zM288 429v-22h0zM288 429v-22zM288 430v-24zM288 430v-24zM288 430v-24h0zM288 430v-24zM289 430l-1-24h1zM289 430v-24zM289 430v-24h0zM289 430v-24zM289 431v-26zM289 431v-26zM289 431v-26h0zM289 431v-26zM289 432v-28zM289 432v-28zM289 432v-28h0zM289 432v-28zM289 432v-28h0zM289 432v-28zM289 432v-28h0zM289 432v-28zM290 433l-1-29 1-1zM290 433v-30zM290 433v-30h0zM290 433v-30zM290 433v-30h0zM290 433v-30zM290 433v-30h0zM290 433v-30zM290 434v-32zM290 434v-32zM290 434v-32h0zM290 434v-32zM291 434l-1-32h1zM291 434v-32zM291 435v-34zM291 435v-34zM291 435v-34h0zM291 435v-34zM291 435v-34h0zM291 435v-34zM292 435l-1-34h1zM292 435v-34zM292 436v-36zM292 436v-36zM292 436v-36h0zM292 436v-36zM292 436v-36h0zM292 436v-36zM292 436v-36h0zM292 436v-36zM292 436v-36h0zM292 436v-36zM292 437v-38zM292 437v-38zM293 437l-1-38h1zM293 437v-38zM293 437v-38h0zM293 437v-38zM293 437v-38h0zM293 437v-38zM293 437v-38h0zM293 437v-38zM294 437l-1-38h1zM294 437v-38zM294 438v-40zM294 438v-40zM294 438v-40h0zM294 438v-40zM294 438v-40h0zM294 438v-40zM294 438v-40h0zM294 438v-40zM295 438l-1-40h1zM295 438v-40zM295 438v-40h0zM295 438v-40zM295 438v-40h0zM295 438v-40zM295 438v-40h0zM295 438v-40zM296 438l-1-40h1zM296 438v-40zM296 439v-42zM296 439v-42zM296 439v-42h0zM296 439v-42zM296 439v-42h0zM296 439v-42zM296 439v-42h0zM296 439v-42zM297 439l-1-42h1zM297 439v-42zM297 439v-42h0zM297 439v-42zM297 439v-42h0zM297 439v-42zM297 439v-42h0zM297 439v-42zM298 439l-1-42h1zM298 439v-42zM298 439v-42h0zM298 439v-42zM298 439v-42h0zM298 439v-42zM298 439v-42h0zM298 439v-42zM298 439v-42h0zM298 439v-42zM299 439l-1-42h1zM299 439v-42zM299 439v-42h0zM299 439v-42zM299 438v-41 1zM299 438v-40zM299 438v-40h0zM299 438v-40zM300 438l-1-40h1zM300 438v-40zM300 438v-40h0zM300 438v-40zM300 438v-40h0zM300 438v-40zM300 438v-40h0zM300 438v-40zM300 438v-40h0zM300 438v-40zM301 438l-1-40h1zM301 438v-40zM301 438v-40h0zM301 438v-40zM301 438v-40h0zM301 438v-40zM301 438v-40 1zM301 438v-39zM301 437v-38h0zM301 437v-38zM302 437l-1-38h1zM302 437v-38zM302 437v-38h0zM302 437v-38zM302 437v-38h0zM302 437v-38zM302 437v-38h0zM302 437v-38zM302 436v-37 1zM302 436v-36zM303 436l-1-36h1zM303 436v-36zM303 436v-36h0zM303 436v-36zM303 435v-35h0zM303 435v-35zM303 435v-35 1zM303 435v-34zM304 435l-1-34h1zM304 435v-34zM304 435v-34h0zM304 435v-34zM304 434v-33 1zM304 434v-32zM304 434v-32h0zM304 434v-32zM304 434v-32h0zM304 434v-32zM304 434v-32h0zM304 434v-32zM305 434l-1-32h1zM305 434v-32zM305 433v-31 1zM305 433v-30zM305 433v-30h0zM305 433v-30zM305 433v-30h0zM305 433v-30zM305 432v-29 1zM305 432v-28zM305 432v-28h0zM305 432v-28zM306 431l-1-27 1 1zM306 431v-26zM306 431v-26h0zM306 431v-26zM306 431v-26h0zM306 431v-26zM306 430v-25 1zM306 430v-24zM306 430v-24h0zM306 430v-24zM306 429v-23h0zM306 429v-23zM307 429l-1-23 1 1zM307 429v-22zM307 429v-22h0zM307 429v-22zM307 428v-21 1zM307 428v-20zM307 428v-20h0zM307 428v-20zM307 427v-19 1zM307 427v-18zM307 427v-18h0zM307 427v-18zM307 427v-18h0zM307 427v-18zM307 426v-17 1zM307 426v-16zM307 426v-16h0zM307 426v-16zM308 425l-1-15 1 1zM308 425v-14zM308 425v-14h0zM308 425v-14zM308 424v-13 1zM308 424v-12zM308 423v-11 1zM308 423v-10zM308 423v-10h0zM308 423v-10 9zM308 422v-9 1zM308 422v-8 7zM308 421v-7 1zM308 421v-6 5zM308 420v-5 1zM308 420v-4 3zM308 419v-3 1zM308 419v-2z"/></g><g fill="none" stroke="currentColor" clip-path="url(#clipId0)"><path d="M253 381v18h-1l-5 2-4 2-4 6-2 4v6l1 7 2 4 1 2 3 3 3 2 2 1 4 1h3v-57z"/><path d="m253 434-5-1-4-3-3-6-1-3v-4l1-3 1-4 2-1 2-2 2-2 4-1h1v30"/></g><g fill="currentColor" stroke="currentColor" clip-path="url(#clipId0)"><path d="M237 420zv-1zM237 420v-2zM237 421v-3h0zM237 421v-3zM237 421v-4zM237 421v-4zM237 422v-5h0zM237 422v-5zM237 422v-6zM237 422v-6zM237 423v-8zM237 423v-8zM237 423v-8h0zM237 423v-8zM237 424v-10zM237 424v-10zM237 424v-10h0zM237 424v-10zM238 425l-1-11 1-1zM238 425v-12zM238 425v-12h0zM238 425v-12zM238 425v-13zM238 425v-13zM238 426v-14h0zM238 426v-14zM238 426v-14h0zM238 426v-14zM238 427v-16zM238 427v-16zM239 427l-1-16 1-1zM239 427v-17zM239 428v-18h0zM239 428v-18zM239 429v-20zM239 429v-20zM239 429v-20h0zM239 429v-20zM240 430l-1-21 1-1zM240 430v-22zM240 430v-22h0zM240 430v-22zM240 431v-24zM240 431v-24zM240 431v-24h0zM240 431v-24zM241 431l-1-24h1zM241 431v-24zM241 431v-25zM241 431v-25zM241 432v-26h0zM241 432v-26zM241 432v-26h0zM241 432v-26zM241 432v-26h0zM241 432v-26zM242 433l-1-27 1-1zM242 433v-28zM242 433v-28h0zM242 433v-28zM242 433v-28h0zM242 433v-28zM243 434l-1-29 1-1zM243 434v-30zM243 434v-30h0zM243 434v-30zM243 434v-30h0zM243 434v-30zM243 434v-31zM243 434v-31zM244 435l-1-32h1zM244 435v-32zM244 435v-32h0zM244 435v-32zM244 435v-32h0zM244 435v-32zM245 436l-1-33 1-1zM245 436v-34zM245 436v-34h0zM245 436v-34zM245 436v-34h0zM245 436v-34zM246 436l-1-34h1zM246 436v-34zM246 436v-35zM246 436v-35zM247 437l-1-36h1zM247 437v-36zM247 437v-36h0zM247 437v-36zM248 437l-1-36h1zM248 437v-36zM248 437v-36h0zM248 437v-36zM248 438v-38zM248 438v-38zM249 438l-1-38h1zM249 438v-38zM249 438v-38h0zM249 438v-38zM250 438l-1-38h1zM250 438v-38zM250 438v-38h0zM250 438v-38zM250 438v-38h0zM250 438v-38zM251 438l-1-38h1zM251 438v-38zM251 438v-39zM251 438v-39zM251 438v-39h0zM251 438v-39zM252 438l-1-39h1zM252 438v-39zM252 438v-39h0zM252 438v-39zM253 439l-1-40h1zM253 439v-40zM253 439v-40h0zM253 439v-40zM253 439v-40h0zM253 389zv-2zM253 439v-40zM253 439v-40h0zM253 389v-3 4zM253 390v-5zM253 439v-40zM253 439v-40h0zM253 390v-5zM253 391v-6h0zM253 439v-40zM253 439v-40h0zM253 391v-6 7zM253 392v-9zM253 439v-40zM253 439v-40h0zM253 392v-9zM253 393v-10h0zM253 439v-40zM253 439v-40h0zM253 393v-10zM253 394v-12zM253 439v-40zM253 439v-40h0zM253 394v-12 14zM253 396v-14h0zM253 439v-40zM253 439v-40h0zM253 396v-14 16zM253 398v-17zM253 439v-58zM253 439v-58h0zM253 439v-58zM253 439v-58h0zM253 439v-58zM253 439v-58h0zM253 439v-58zM254 439l-1-58h1zM254 439v-58zM254 439v-58h0zM254 439v-58zM254 439v-58h0zM254 439v-58zM254 439v-58h0zM254 439v-58zM254 439v-58h0zM254 439v-58zM255 439l-1-58h1zM255 439v-58zM255 439v-58h0zM255 439v-58zM255 439v-58h0zM255 439v-58zM256 439l-1-58h1zM256 439v-58zM256 439v-58h0zM256 439v-58zM256 439v-58h0zM256 439v-58zM256 439v-58h0zM256 439v-58zM256 438v-57h0zM256 438v-22zM256 438v-22h0zM256 416v-35 29zM256 410v-29h0zM256 438v-22zM256 437v-21 6zM256 410v-29 24zM256 405v-24h0zM256 437v-15zM256 437v-15h0zM256 405v-24 23zM256 404v-23h0zM256 437v-15 14zM256 436v-14 6zM256 404v-23 18zM256 399v-18h0zM256 436v-8zM256 436v-8h0zM256 399v-18 17zM256 398v-17h0zM256 436v-8 6zM256 398v-17 12zM256 393v-12h0zM256 393v-12 11zM256 392v-11h0zM256 392v-11 5zM256 386v-5h0zM256 386v-5h0z"/></g><g fill="none" stroke="currentColor" clip-path="url(#clipId0)"><path d="m247 450 4-2h5v4l-6 2-3 2-2 3-1 3-1 5v4l1 3 1 3 2 3 5 2h4v5l-1 1-4-1-3-1-3-3-3-4-2-6v-10l2-6 2-4z"/></g><g fill="currentColor" stroke="currentColor" clip-path="url(#clipId0)"><path d="M239 468zM239 468zM239 469v-3zM239 469v-3zM239 469v-3h0zM239 469v-3zM239 470v-5zM239 470v-5zM239 470v-5h0zM239 470v-5zM240 471l-1-6 1-1zM240 471v-7zM240 471v-7h0zM240 471v-7zM240 472v-9zM240 472v-9zM240 472v-9h0zM240 472v-9zM240 473v-10h0zM240 473v-10zM240 473v-11zM240 473v-11zM240 473v-11h0zM240 473v-11zM240 474v-13zM240 474v-13zM240 474v-13h0zM240 474v-13zM240 475v-14h0zM240 475v-14zM240 475v-15zM240 475v-15zM240 475v-15h0zM240 475v-15zM241 476l-1-16 1-1zM241 476v-17zM241 476v-17h0zM241 476v-17zM241 476v-17h0zM241 476v-17zM241 477v-19zM241 477v-19zM241 477v-19h0zM241 477v-19zM241 477v-19h0zM241 477v-19zM241 478v-20h0zM241 478v-20zM241 478v-21zM241 478v-21zM242 478l-1-21h1zM242 478v-21zM242 479v-23zM242 479v-23zM242 479v-23h0zM242 479v-23zM242 479v-23h0zM242 479v-23zM242 479v-23h0zM242 479v-23zM242 480v-25zM242 480v-25zM242 480v-25h0zM242 480v-25zM243 480l-1-25h1zM243 480v-25zM243 480v-25h0zM243 480v-25zM243 480v-25h0zM243 480v-13zM243 480v-13 1zM243 467v-12zM243 467v-12h0zM243 480v-12zM243 480v-12h0zM243 467v-12 11zM243 466v-11h0zM243 480v-12zM243 480v-12h0zM243 466v-11zM243 466v-11h0zM243 480v-12zM243 481v-13 1zM243 466v-11zM243 465v-10h0zM243 481v-12zM243 481v-12h0zM243 465v-10zM243 465v-10h0zM243 481v-12zM243 481v-12 1zM243 465v-10zM243 465v-11zM243 481v-11zM243 481v-11h0zM243 465v-11zM243 465v-11h0zM243 481v-11zM243 481v-11h0zM243 465v-11zM243 465v-11h0zM243 481v-11zM243 481v-11 1zM243 465v-11zM243 464v-10h0zM243 481v-10zM243 481v-10h0zM243 464v-10zM243 464v-10h0zM243 481v-10zM243 481v-10h0zM243 464v-10zM243 464v-10h0zM243 481v-10zM243 481v-10 1zM243 464v-10zM243 463v-9h0zM243 481v-9zM243 481v-9h0zM243 463v-9zM243 463v-9h0zM243 481v-9zM243 481v-9h0zM243 463v-9zM243 463v-9h0zM243 481v-9zM243 481v-9h0zM243 463v-9zM243 463v-9h0zM243 481v-9zM243 481v-9 1zM243 463v-9zM243 463v-9h0zM243 481v-8zM243 481v-8h0zM243 463v-9zM243 463v-9h0zM243 481v-8zM244 482l-1-9h1zM243 463v-9zM244 462l-1-8h1zM244 482v-9zM244 482v-9h0zM244 462v-8zM244 462v-8h0zM244 482v-9zM244 482v-9h0zM244 462v-8zM244 462v-9zM244 482v-9zM244 482v-9h0zM244 462v-9zM244 462v-9h0zM244 482v-9zM244 482v-9 1zM244 462v-9zM244 462v-9h0zM244 482v-8zM244 482v-8h0zM244 462v-9zM244 461v-8h0zM244 482v-8zM244 482v-8h0zM244 461v-8zM244 461v-8h0zM244 482v-8zM244 482v-8h0zM244 461v-8zM244 461v-8h0zM244 482v-8zM244 482v-8h0zM244 461v-8zM244 461v-8h0zM244 482v-8zM244 482v-8h0zM244 461v-8zM244 461v-8h0zM244 482v-8zM244 482v-8 1zM244 461v-8zM244 461v-8h0zM244 482v-7zM244 482v-7h0zM244 461v-8zM244 460v-7h0zM244 482v-7zM244 483v-8h0zM244 460v-7zM244 460v-7h0zM244 483v-8zM244 483v-8h0zM244 460v-7zM244 460v-7h0zM244 483v-8zM244 483v-8h0zM244 460v-7zM244 460v-8zM244 483v-8zM244 483v-8h0zM244 460v-8zM244 460v-8h0zM244 483v-8zM245 483l-1-8 1 1zM244 460v-8zM245 459l-1-7h1zM245 483v-7zM245 483v-7h0zM245 459v-7zM245 459v-7h0zM245 483v-7zM245 483v-7h0zM245 459v-7zM245 459v-7h0zM245 483v-7zM245 483v-7h0zM245 459v-7zM245 459v-7h0zM245 483v-7zM245 483v-7h0zM245 459v-7zM245 459v-7h0zM245 483v-7zM245 483v-7h0zM245 459v-7zM245 459v-7h0zM245 483v-7zM245 483v-7h0zM245 459v-7zM245 459v-7h0zM245 483v-7zM245 483v-7 1zM245 459v-7zM245 459v-7h0zM245 483v-6zM245 484v-7h0zM245 459v-7zM245 458v-6h0zM245 484v-7zM245 484v-7h0zM245 458v-6zM245 458v-6h0zM245 484v-7zM245 484v-7h0zM245 458v-6zM245 458v-6h0zM245 484v-7zM245 484v-7h0zM245 458v-6zM245 458v-7zM245 484v-7zM246 484l-1-7h1zM245 458v-7zM246 458l-1-7h1zM246 484v-7zM246 484v-7h0zM246 458v-7zM246 458v-7h0zM246 484v-7zM246 484v-7h0zM246 458v-7zM246 458v-7h0zM246 484v-7zM246 484v-7 1zM246 458v-7zM246 457v-6h0zM246 484v-6zM246 484v-6h0zM246 457v-6zM246 457v-6h0zM246 484v-6zM246 484v-6h0zM246 457v-6zM246 457v-6h0zM246 484v-6zM246 484v-6h0zM246 457v-6zM246 457v-6h0zM246 484v-6zM246 484v-6h0zM246 457v-6zM246 457v-6h0zM246 484v-6zM246 484v-6h0zM246 457v-6zM246 457v-6h0zM246 484v-6zM246 484v-6h0zM246 457v-6zM246 457v-6h0zM246 484v-6zM246 485v-7 1zM246 457v-6zM246 457v-6h0zM246 485v-6zM247 485l-1-6h1zM246 457v-6zM247 456l-1-5 1-1zM247 485v-6zM247 485v-6h0zM247 456v-6zM247 456v-6h0zM247 485v-6zM247 485v-6h0zM247 456v-6zM247 456v-6h0zM247 485v-6zM247 485v-6h0zM247 456v-6zM247 456v-6h0zM247 485v-6zM247 485v-6h0zM247 456v-6zM247 456v-6h0zM247 485v-6zM247 485v-6h0zM247 456v-6zM247 456v-6h0zM247 485v-6zM247 485v-6h0zM247 456v-6zM247 456v-6h0zM247 485v-6zM247 485v-6h0zM247 456v-6zM247 456v-6h0zM247 485v-6zM247 485v-6h0zM247 456v-6zM247 456v-6h0zM247 485v-6zM247 485v-6h0zM247 456v-6zM247 456v-6h0zM247 485v-6zM247 485v-6h0zM247 456v-6zM247 456v-6h0zM247 485v-6zM247 485v-6h0zM247 456v-6zM247 456v-6h0zM247 485v-6zM247 485v-6h0zM247 456v-6zM247 456v-6h0zM247 485v-6zM247 485v-6h0zM247 456v-6zM247 456v-6h0zM247 485v-6zM247 485v-6h0zM247 456v-6zM247 456v-6h0zM247 485v-6zM247 485v-6h0zM247 456v-6zM247 456v-6h0zM247 485v-6zM247 485v-6h0zM247 456v-6zM247 456v-6h0zM247 485v-6zM247 485v-6h0zM247 456v-6zM247 456v-6h0zM247 485v-6zM247 485v-6h0zM247 456v-6zM247 456v-6h0zM247 485v-6zM247 485v-6h0zM247 456v-6zM247 456v-6h0zM247 485v-6zM247 485v-6h0zM247 456v-6zM247 456v-6h0zM247 485v-6zM247 485v-6h0zM247 456v-6zM247 456v-6h0zM247 485v-6zM247 485v-6h0zM247 456v-6zM247 456v-6h0zM247 485v-6zM247 485v-6h0zM247 456v-6zM247 456v-6h0zM247 485v-6zM247 485v-6h0zM247 456v-6zM247 456v-6h0zM247 485v-6zM247 485v-6h0zM247 456v-6zM247 456v-6h0zM247 485v-6zM247 485v-6h0zM247 456v-6zM247 456v-6h0zM247 485v-6zM247 485v-6h0zM247 456v-6zM247 456v-6h0zM247 485v-6zM247 485v-6 1zM247 456v-6zM247 456v-6h0zM247 485v-5zM247 485v-5h0zM247 456v-6zM247 456v-6h0zM247 485v-5zM247 485v-5h0zM247 456v-6zM247 456v-6h0zM247 485v-5zM247 485v-5h0zM247 456v-6zM247 456v-6h0zM247 485v-5zM248 485l-1-5h1zM247 456v-6zM248 456l-1-6h1zM248 485v-5zM248 485v-5h0zM248 456v-6zM248 456v-6h0zM248 485v-5zM248 485v-5h0zM248 456v-6zM248 455v-5h0zM248 485v-5zM248 486v-6h0zM248 455v-5zM248 455v-5h0zM248 486v-6zM248 486v-6h0zM248 455v-5zM248 455v-5h0zM248 486v-6zM248 486v-6h0zM248 455v-5zM248 455v-6zM248 486v-6zM248 486v-6h0zM248 455v-6zM248 455v-6h0zM248 486v-6zM248 486v-6h0zM248 455v-6zM248 455v-6h0zM248 486v-6zM248 486v-6h0zM248 455v-6zM248 455v-6h0zM248 486v-6zM248 486v-6h0zM248 455v-6zM248 455v-6h0zM248 486v-6zM248 486v-6h0zM248 455v-6zM248 455v-6h0zM248 486v-6zM249 486l-1-6h1zM248 455v-6zM249 455l-1-6h1zM249 486v-6zM249 486v-6 1zM249 455v-6zM249 455v-6h0zM249 486v-5zM249 486v-5h0zM249 455v-6zM249 455v-6h0zM249 486v-5zM249 486v-5h0zM249 455v-6zM249 455v-6h0zM249 486v-5zM249 486v-5h0zM249 455v-6zM249 454v-5h0zM249 486v-5zM249 486v-5h0zM249 454v-5zM249 454v-5h0zM249 486v-5zM249 486v-5h0zM249 454v-5zM249 454v-5h0zM249 486v-5zM249 486v-5h0zM249 454v-5zM249 454v-5h0zM249 486v-5zM249 486v-5h0zM249 454v-5zM249 454v-5h0zM249 486v-5zM250 486l-1-5h1zM249 454v-5zM250 454l-1-5h1zM250 486v-5zM250 486v-5h0zM250 454v-5zM250 454v-5h0zM250 486v-5zM250 486v-5h0zM250 454v-5zM250 454v-5h0zM250 486v-5zM250 487v-6h0zM250 454v-5zM250 454v-5h0zM250 487v-6zM250 487v-6h0zM250 454v-5zM250 454v-5h0zM250 487v-6zM250 487v-6h0zM250 454v-5zM250 454v-6zM250 487v-6zM250 487v-6h0zM250 454v-6zM250 454v-6h0zM250 487v-6zM250 487v-6h0zM250 454v-6zM250 454v-6h0zM250 487v-6zM250 487v-6 1zM250 454v-6zM250 454v-6h0zM250 487v-5zM251 487l-1-5h1zM250 454v-6zM251 453l-1-5h1zM251 487v-5zM251 487v-5h0zM251 453v-5zM251 453v-5h0zM251 487v-5zM251 487v-5h0zM251 453v-5zM251 453v-5h0zM251 487v-5zM251 487v-5h0zM251 453v-5zM251 453v-5h0zM251 487v-5zM251 487v-5h0zM251 453v-5zM251 453v-5h0zM251 487v-5zM252 487l-1-5h1zM251 453v-5zM252 453l-1-5h1zM252 487v-5zM252 487v-5h0zM252 453v-5zM252 453v-5h0zM252 487v-5zM252 487v-5h0zM252 453v-5zM252 453v-5h0zM252 487v-5zM252 487v-5h0zM252 453v-5zM252 453v-5h0zM252 487v-5zM252 487v-5h0zM252 453v-5zM252 453v-5h0zM252 487v-5zM252 487v-5h0zM252 453v-5zM252 453v-5h0zM252 487v-5zM253 487l-1-5h1zM252 453v-5zM253 453l-1-5h1zM253 487v-5zM253 487v-5h0zM253 453v-5zM253 453v-5h0zM253 487v-5zM253 487v-5h0zM253 453v-5zM253 453v-5h0zM253 487v-5zM253 487v-5h0zM253 453v-5zM253 453v-5h0zM253 487v-5zM253 487v-5h0zM253 453v-5zM253 453v-5h0zM253 487v-5zM253 487v-5h0zM253 453v-5zM253 453v-5h0zM253 487v-5zM253 487v-5h0zM253 453v-5zM253 453v-5h0zM253 487v-5zM254 487l-1-5h1zM253 453v-5zM254 453l-1-5h1zM254 487v-5zM254 487v-5h0zM254 453v-5zM254 453v-5h0zM254 487v-5zM254 487v-5h0zM254 453v-5zM254 453v-5h0zM254 487v-5zM254 487v-5h0zM254 453v-5zM254 453v-5h0zM254 487v-5zM254 487v-5h0zM254 453v-5zM254 453v-5h0zM254 487v-5zM254 487v-5h0zM254 453v-5zM254 453v-5h0zM254 487v-5zM254 487v-5h0zM254 453v-5zM254 453v-5h0zM254 487v-5zM255 488l-1-6h1zM254 453v-5zM255 453l-1-5h1zM255 488v-6zM255 488v-6h0zM255 453v-5zM255 453v-5h0zM255 488v-6zM255 488v-6h0zM255 453v-5zM255 453v-5h0zM255 488v-6zM255 488v-6h0zM255 453v-5zM255 453v-5h0zM255 488v-6zM255 488v-6h0zM255 453v-5zM255 453v-5h0zM255 488v-6zM256 488l-1-6h1zM255 453v-5zM256 453l-1-5h1zM256 488v-6zM256 488v-6h0zM256 453v-5zM256 453v-5h0zM256 488v-6zM256 488v-6h0zM256 453v-5zM256 453v-5h0zM256 488v-6zM256 488v-6h0zM256 453v-5zM256 453v-5h0zM256 488v-6zM256 488v-6h0zM256 453v-5zM256 453v-5h0zM256 488v-6zM256 487v-5h0zM256 453v-5zM256 453v-5h0zM256 487v-5zM256 487v-5h0zM256 453v-3zM256 453v-3h0zM256 450v-2zM256 449v-1h0zM256 487v-5zM256 487v-5h0zM256 453v-3zM256 453v-3h0zM256 449v-1zM256 449v-1h0zM256 487v-5zM256 487v-5h0zM256 453v-3zM256 453v-3h0zM256 449v-1zM256 449v-1h0zM256 487v-5zM256 487v-5h0zM256 453v-3zM256 453v-3 1zM256 449v-1zM256 448zM256 487v-5zM256 487v-5h0zM256 453v-2zM256 453v-2h0zM256 448zM256 448zM256 487v-5zM256 487v-5h0zM256 453v-2zM256 453v-2h0zM256 448zM256 448zM256 487v-5zM256 487v-5h0zM256 453v-2zM256 453v-2 1zM256 448zM256 448zM256 487v-5zM256 487v-5h0zM256 453v-1zM256 453v-1zM256 448z"/></g><g fill="none" stroke="currentColor" clip-path="url(#clipId0)"><path d="m271 449 3-1 4 1 1 1 1 2 1 3v32h-3v-31l-2-3-3-1-3 1-3 3-1 3v28h-3v-38l1-1h2v6l1-1 1-2z"/></g><g fill="currentColor" stroke="currentColor" clip-path="url(#clipId0)"><path d="M263 487v-39zM263 487v-39h0zM263 487v-39zM263 487v-39h0zM263 487v-39zM264 487l-1-39h1zM264 487v-39zM264 487v-39h0zM264 487v-39zM265 487l-1-39h1zM265 487v-39zM265 487v-39h0zM265 487v-39zM265 487v-39h0zM265 487v-39zM266 487l-1-39h1zM266 487v-39zM266 487v-39h0zM266 487v-39zM266 487v-39h0zM266 487v-29zM266 487v-29h0zM266 458v-10zM266 458v-10h0zM266 487v-29zM266 487v-29h0zM266 458v-8zM266 458v-8 1zM266 450v-2zM266 450v-2h0zM266 487v-29zM266 487v-29h0zM266 458v-7zM266 458v-7h0zM266 450v-2zM266 450v-2h0zM266 487v-29zM266 487v-29h0zM266 458v-7zM266 458v-7h0zM266 450v-2zM266 449zM266 487v-29zM266 487v-29h0zM266 458v-7zM266 458v-7h0zM266 449zM266 449zM266 487v-29zM266 487v-29h0zM266 458v-7zM266 458v-7 1zM266 449zM266 448zM266 487v-29zM266 487v-29h0zM266 458v-6zM266 458v-6h0zM266 448zM266 448zM266 458v-6zM266 458v-6 1zM266 458v-5zM266 458v-5h0zM266 458v-5zM266 458v-5 1zM266 458v-4zM266 458v-4h0zM266 458v-4zM266 458v-5zM266 458v-5zM266 457v-4h0zM266 457v-4zM266 457v-4h0zM266 457v-4zM266 457v-4h0zM266 457v-4zM266 457v-4h0zM266 457v-4zM266 457v-4h0zM266 457v-4zM267 457l-1-4h1zM267 457v-4zM267 457v-4h0zM267 457v-4zM267 457v-4h0zM267 457v-4zM267 457v-4h0zM267 457v-4zM267 457v-4h0zM267 457v-4zM267 456v-4zM267 456v-4zM267 456v-4h0zM267 456v-4zM267 456v-4h0zM267 456v-4zM267 456v-4h0zM267 456v-4zM268 456l-1-4 1-1zM268 456v-5zM268 456v-5h0zM268 456v-5zM268 455v-4h0zM268 455v-4zM268 455v-4h0zM268 455v-4zM268 455v-4h0zM268 455v-4zM268 455v-4h0zM268 455v-4zM269 455l-1-4 1-1zM269 455v-5zM269 455v-5h0zM269 455v-5zM269 454v-4h0zM269 454v-4zM269 454v-4h0zM269 454v-4zM269 454v-4h0zM269 454v-4zM269 454v-4h0zM269 454v-4zM270 454l-1-4h1zM270 454v-4zM270 454v-5zM270 454v-5zM270 454v-5h0zM270 454v-5zM270 454v-5h0zM270 454v-5zM270 454v-5h0zM270 454v-5zM270 453v-4h0zM270 453v-4zM270 453v-4h0zM270 453v-4zM271 453l-1-4h1zM271 453v-4zM271 453v-4h0zM271 453v-4zM271 453v-4h0zM271 453v-4zM271 453v-4h0zM271 453v-4zM271 453v-4h0zM271 453v-4zM271 453v-4h0zM271 453v-4zM271 453v-4h0zM271 453v-4zM271 453v-4h0zM271 453v-4zM271 453v-4h0zM271 453v-4zM271 453v-4h0zM271 453v-4zM271 453v-4h0zM271 453v-4zM271 453v-4h0zM271 453v-4zM271 453v-4h0zM271 453v-4zM271 453v-4h0zM271 453v-4zM271 453v-4h0zM271 453v-4zM271 453v-4h0zM271 453v-4zM271 453v-4h0zM271 453v-4zM271 453v-4h0zM271 453v-4zM271 453v-4h0zM271 453v-4zM271 453v-4h0zM271 453v-4zM271 453v-4h0zM271 453v-4zM271 453v-4h0zM271 453v-4zM271 453v-4h0zM271 453v-4zM271 453v-4h0zM271 453v-4zM271 453v-4h0zM271 453v-4zM271 453v-4h0zM271 453v-4zM271 453v-5zM271 453v-5zM272 453l-1-5h1zM272 453v-5zM272 453v-5h0zM272 453v-5zM272 453v-5h0zM272 453v-5zM272 453v-5h0zM272 453v-5zM272 453v-5h0zM272 453v-5zM273 452l-1-4h1zM273 452v-4zM273 452v-4h0zM273 452v-4zM273 452v-4h0zM273 452v-4zM273 452v-4h0zM273 452v-4zM274 452l-1-4h1zM274 452v-4zM274 452v-4h0zM274 452v-4zM274 452v-4h0zM274 452v-4zM274 452v-4h0zM274 452v-4zM275 452l-1-4h1zM275 452v-4zM275 452v-4h0zM275 452v-4zM275 452v-4h0zM275 452v-4zM275 452v-4h0zM275 452v-4zM275 452v-4h0zM275 452v-4zM275 452v-4h0zM275 452v-4zM276 453l-1-5h1zM276 453v-5zM276 453v-5h0zM276 453v-5zM276 453v-5h0zM276 453v-5zM276 453v-5h0zM276 453v-5zM276 453v-5h0zM276 453v-5zM276 453v-5h0zM276 453v-5zM276 453v-5h0zM276 453v-5zM277 453l-1-5h1zM277 453v-5zM277 453v-5h0zM277 453v-5zM277 453v-5h0zM277 453v-5zM277 453v-5h0zM277 453v-5zM277 454v-6h0zM277 454v-6zM277 454v-6h0zM277 454v-6zM277 454v-6h0zM277 454v-6zM277 454v-6h0zM277 454v-6zM277 454v-6h0zM277 454v-6zM277 454v-6h0zM277 454v-6zM277 455v-7h0zM277 455v-7zM277 455v-7h0zM277 455v-7zM277 455v-7h0zM277 455v-7zM278 456l-1-8h1zM278 456v-8zM278 456v-8h0zM278 456v-8zM278 456v-8h0zM278 456v-8zM278 456v-8h0zM278 456v-8zM278 457v-9 1zM278 457v-8zM278 457v-8h0zM278 457v-8zM278 458v-9h0zM278 470zv-3zM278 458v-9zM278 458v-9h0zM278 470v-4 6zM278 472v-7zM278 458v-9zM278 458v-9h0zM278 472v-7 9zM278 474v-11zM278 458v-9zM278 458v-9h0zM278 474v-11 13zM278 476v-14zM278 458v-9zM278 458v-9h0zM278 476v-14zM278 477v-17zM278 458v-9zM278 458v-9h0zM278 477v-28 29zM278 478v-29h0zM278 478v-29zM278 479v-30h0zM278 479v-30 33zM278 482v-33h0zM278 482v-33 36zM278 485v-36h0zM278 485v-36 38zM278 487v-38h0zM278 487v-38zM278 487v-38h0zM278 487v-38zM278 487v-38h0zM278 487v-38zM278 487v-38h0zM278 487v-38zM278 487v-38h0zM278 487v-38zM278 487v-38h0zM278 487v-38zM279 487l-1-38h1zM279 487v-38zM279 487v-38h0zM279 487v-38zM279 487v-38h0zM279 487v-38zM279 487v-38 1zM279 487v-37zM279 487v-37h0zM279 487v-37zM279 487v-37h0zM279 487v-37zM279 487v-37h0zM279 487v-37zM279 487v-37h0zM279 487v-37zM280 487l-1-37 1 1zM280 487v-36zM280 487v-36h0zM280 487v-36zM280 487v-36h0zM280 487v-36zM280 487v-36h0zM280 487v-36zM280 487v-36 1zM280 487v-35zM280 487v-35h0zM280 487v-35zM280 487v-35 1zM280 487v-34zM280 487v-34h0zM280 487v-34zM281 487l-1-34 1 1zM281 487v-33zM281 487v-33 1zM281 487v-32zM281 487v-32h0zM281 487v-32zM281 487v-32h0zM281 487v-32zM281 487v-32 1zM281 487v-31zM281 487v-31 1zM281 487v-30zM281 487v-30 1zM281 487v-29 27zM281 485v-27h0zM281 485v-27zM281 485v-27h0zM281 485v-27 24zM281 482v-24h0zM281 482v-24 21zM281 479v-21h0zM281 479v-18zM281 479v-18h0zM281 461v-3zM281 461v-3h0zM281 479v-18 15zM281 476v-15 3zM281 461v-3zM281 460v-2h0zM281 476v-12zM281 476v-12h0zM281 460v-2zM281 460v-2h0zM281 476v-12 9zM281 473v-9 3zM281 460v-2zM281 460v-2h0zM281 473v-6zM281 473v-6h0zM281 460v-2zM281 460v-2h0zM281 473v-6 3zM281 460v-2zM281 460v-2h0zM281 460v-2 1z"/></g><g fill="none" stroke="currentColor" clip-path="url(#clipId0)"><path d="m226 480-3-3-2-4-1-6v-1h17v-2l-1-6-1-4-3-4-3-3h-4l-3 2-2 3-2 6-1 7v7l2 6 2 4 4 3 4 2 4 1 1-4v-2h-6z"/><path d="m222 455 2-3 3-1 3 2 2 2 1 5v2h-11l-2-1 1-2z"/></g><g fill="currentColor" stroke="currentColor" clip-path="url(#clipId0)"><path d="M217 467zh0zM217 467v-1zM217 467v-2zM217 467v-2 3zM217 468v-3h0zM217 468v-3zM217 468v-4zM217 468v-4zM217 469v-5h0zM217 469v-5zM217 469v-6zM217 469v-6zM217 470v-7h0zM217 470v-7zM217 470v-7h0zM217 470v-7zM217 470v-8zM217 470v-8zM217 470v-8h0zM217 470v-8zM217 471v-10zM217 471v-10zM217 471v-10h0zM217 471v-10zM217 471v-10h0zM217 471v-10zM217 472v-12zM217 472v-12zM217 472v-12h0zM217 472v-12zM217 472v-12h0zM217 472v-12zM217 473v-14zM217 473v-14zM217 473v-14h0zM217 473v-14zM217 473v-14h0zM217 473v-14zM218 474l-1-15 1-1zM218 474v-16zM218 474v-16h0zM218 474v-16zM218 475v-17h0zM218 475v-17zM218 475v-17h0zM218 475v-17zM218 475v-18zM218 475v-18zM218 476v-19h0zM218 476v-19zM218 476v-20zM218 476v-20zM218 476v-20h0zM218 476v-20zM218 477v-22zM218 477v-22zM218 477v-22h0zM218 477v-22zM219 478l-1-23h1zM219 478v-23zM219 478v-24zM219 478v-24zM219 478v-24h0zM219 478v-24zM219 478v-24h0zM219 478v-24zM219 479v-26zM219 479v-26zM220 479l-1-26h1zM220 479v-26zM220 480v-28zM220 480v-28zM220 480v-28h0zM220 480v-28zM220 480v-28h0zM220 480v-28zM220 480v-29zM220 480v-14zM220 480v-14h0zM220 466v-15zM220 466v-15h0zM220 480v-14zM220 480v-14 1zM220 466v-15zM220 466v-15h0zM220 480v-13zM220 480v-13h0zM220 466v-15zM220 466v-15h0zM220 480v-13zM220 481v-14 1zM220 466v-15zM220 466v-15h0zM220 481v-13zM220 481v-13 1zM220 466v-15zM220 466v-15h0zM220 481v-12zM220 481v-12h0zM220 466v-15zM220 466v-15h0zM220 481v-12zM220 481v-12 1zM220 466v-15zM220 466v-15h0zM220 481v-11zM220 481v-11h0zM220 466v-15zM220 466v-15h0zM220 481v-11zM221 481l-1-11 1 1zM220 466v-15zM221 466l-1-15h1zM221 481v-10zM221 481v-10h0zM221 466v-15zM221 466v-15h0zM221 481v-10zM221 481v-10 1zM221 466v-15zM221 466v-16zM221 481v-9zM221 481v-9h0zM221 466v-16zM221 466v-16h0zM221 481v-9zM221 482v-10 1zM221 466v-16zM221 466v-16h0zM221 482v-9zM221 482v-9h0zM221 466v-16zM221 466v-16h0zM221 482v-9zM221 482v-9h0zM221 466v-16zM221 466v-16h0zM221 482v-9zM221 482v-9 1zM221 466v-16zM221 466v-16h0zM221 482v-8zM221 482v-8h0zM221 466v-16zM221 466v-16h0zM221 482v-8zM222 482l-1-8 1 1zM221 466v-16zM222 466l-1-16h1zM222 482v-7zM222 482v-7h0zM222 466v-16zM222 466v-16h0zM222 482v-7zM222 482v-7h0zM222 466v-16zM222 466v-17zM222 482v-7zM222 483v-8h0zM222 466v-17zM222 466v-17h0zM222 483v-8zM222 483v-8h0zM222 466v-17zM222 466v-17h0zM222 483v-8zM222 483v-8 1zM222 466v-17zM222 466v-17h0zM222 483v-7zM222 483v-7h0zM222 466v-17zM222 466v-17h0zM222 483v-7zM222 483v-7h0zM222 466v-17zM222 466v-17h0zM222 483v-7zM222 483v-7h0zM222 466v-17zM222 466v-17h0zM222 483v-7zM223 483l-1-7 1 1zM222 466v-17zM223 466l-1-17 1-1zM223 483v-6zM223 484v-7h0zM223 466v-18zM223 466v-18h0zM223 484v-7zM223 484v-7h0zM223 466v-18zM223 466v-18h0zM223 484v-7zM223 484v-7h0zM223 466v-18zM223 466v-18h0zM223 484v-7zM223 484v-7 1zM223 466v-18zM223 466v-18h0zM223 484v-6zM223 484v-6h0zM223 466v-18zM223 466v-18h0zM223 484v-6zM223 484v-6h0zM223 466v-18zM223 466v-18h0zM223 484v-6zM223 484v-6h0zM223 466v-18zM223 466v-18h0zM223 484v-6zM223 484v-6h0zM223 466v-18zM223 466v-18h0zM223 484v-6zM224 484l-1-6h1zM223 466v-18zM224 466l-1-18h1zM224 484v-6zM224 485v-7 1zM224 466v-18zM224 466v-19zM224 485v-6zM224 485v-6h0zM224 466v-19zM224 466v-19h0zM224 485v-6zM224 485v-6h0zM224 466v-19zM224 466v-19h0zM224 485v-6zM224 485v-6h0zM224 466v-19zM224 466v-19h0zM224 485v-6zM225 485l-1-6 1 1zM224 466v-19zM225 466l-1-19h1zM225 485v-5zM225 485v-5h0zM225 466v-19zM225 466v-19h0zM225 485v-5zM225 485v-5h0zM225 466v-19zM225 466v-19h0zM225 485v-5zM225 485v-5h0zM225 466v-19zM225 466v-19h0zM225 485v-5zM225 486v-6h0zM225 466v-19zM225 466v-19h0zM225 486v-6zM225 486v-6h0zM225 466v-19zM225 466v-19h0zM225 486v-6zM226 486l-1-6h1zM225 466v-19zM226 466l-1-19h1zM226 486v-6zM226 486v-6h0zM226 466v-19zM226 466v-19h0zM226 486v-6zM226 486v-6h0zM226 466v-19zM226 466v-19h0zM226 486v-6zM226 486v-6 1zM226 466v-19zM226 466v-19h0zM226 486v-5zM226 486v-5h0zM226 466v-19zM226 466v-19h0zM226 486v-5zM226 486v-5h0zM226 466v-19zM226 466v-19h0zM226 486v-5zM226 486v-5h0zM226 466v-19zM226 466v-19h0zM226 486v-5zM227 486l-1-5h1zM226 466v-19zM227 466l-1-19h1zM227 486v-5zM227 486v-5h0zM227 466v-19zM227 466v-19h0zM227 486v-5zM227 486v-5h0zM227 466v-19zM227 466v-19h0zM227 486v-5zM227 486v-5h0zM227 466v-19zM227 466v-19h0zM227 486v-5zM227 487v-6h0zM227 466v-19zM227 466v-19h0zM227 487v-6zM227 487v-6h0zM227 466v-19zM227 466v-19h0zM227 487v-6zM227 487v-6h0zM227 466v-19zM227 466v-19h0zM227 487v-6zM228 487l-1-6 1 1zM227 466v-19zM228 466l-1-19h1zM228 487v-5zM228 487v-5h0zM228 466v-19zM228 466v-19h0zM228 487v-5zM228 487v-5h0zM228 466v-19zM228 466v-19h0zM228 487v-5zM228 487v-5h0zM228 466v-19zM228 466v-19h0zM228 487v-5zM228 487v-5h0zM228 466v-19zM228 466v-19h0zM228 487v-5zM228 487v-5h0zM228 466v-19zM228 466v-19h0zM228 487v-5zM229 487l-1-5h1zM228 466v-19zM229 466l-1-19h1zM229 487v-5zM229 487v-5h0zM229 466v-19zM229 466v-19h0zM229 487v-5zM229 487v-5h0zM229 466v-19zM229 466v-19h0zM229 487v-5zM229 487v-5h0zM229 466v-19zM229 466v-19h0zM229 487v-5zM229 487v-5h0zM229 466v-19zM229 466v-19h0zM229 487v-5zM230 487l-1-5h1zM229 466v-19zM230 466l-1-19 1 1zM230 487v-5zM230 487v-5h0zM230 466v-18zM230 466v-18h0zM230 487v-5zM230 487v-5h0zM230 466v-18zM230 466v-18h0zM230 487v-5zM230 487v-5h0zM230 466v-18zM230 466v-18h0zM230 487v-5zM230 487v-5h0zM230 466v-18zM230 466v-18h0zM230 487v-5zM230 487v-5h0zM230 466v-18zM230 466v-18h0zM230 487v-5zM231 487l-1-5h1zM230 466v-18zM231 466l-1-18h1zM231 487v-5zM231 487v-5h0zM231 466v-18zM231 466v-18h0zM231 487v-5zM231 487v-5h0zM231 466v-18zM231 466v-18h0zM231 487v-5zM231 487v-5h0zM231 466v-18zM231 466v-18 1zM231 487v-5zM231 487v-5h0zM231 466v-17zM231 466v-17h0zM231 487v-5zM231 487v-5h0zM231 466v-17zM231 466v-17h0zM231 487v-5zM231 487v-5h0zM231 466v-17zM231 466v-17h0zM231 487v-5zM231 487v-5h0zM231 466v-17zM231 466v-17h0zM231 487v-5zM232 487l-1-5h1zM231 466v-17zM232 466l-1-17h1zM232 487v-5zM232 487v-5h0zM232 466v-17zM232 466v-17h0zM232 487v-5zM232 487v-5h0zM232 466v-17zM232 466v-17h0zM232 487v-5zM232 488v-6h0zM232 466v-17zM232 466v-17 1zM232 488v-6zM232 488v-6h0zM232 466v-16zM232 466v-16h0zM232 488v-6zM232 488v-6h0zM232 466v-16zM232 466v-16h0zM232 488v-6zM233 488l-1-6h1zM232 466v-16zM233 466l-1-16h1zM233 488v-6zM233 488v-6h0zM233 466v-16zM233 466v-16 1zM233 488v-6zM233 488v-6h0zM233 466v-15zM233 466v-15h0zM233 488v-6zM233 488v-6h0zM233 466v-15zM233 466v-15h0zM233 488v-6zM233 488v-6h0zM233 466v-15zM233 466v-15h0zM233 488v-6zM233 488v-6h0zM233 466v-15zM233 466v-15h0zM233 488v-6zM234 488l-1-6h1zM233 466v-15zM234 466l-1-15 1 1zM234 488v-6zM234 488v-6h0zM234 466v-14zM234 466v-14h0zM234 488v-6zM234 487v-5h0zM234 466v-14zM234 466v-14h0zM234 487v-4zM234 487v-4h0zM234 466v-14zM234 466v-14h0zM234 487v-4zM234 487v-4 1zM234 466v-14zM234 466v-14h0zM234 487v-3zM234 487v-3h0zM234 466v-14zM234 466v-14h0zM234 487v-3zM234 487v-3h0zM234 466v-14zM234 466v-14h0zM234 487v-3zM234 487v-3 1zM234 466v-14zM234 466v-14h0zM234 487v-2zM234 486v-1h0zM234 466v-14zM234 466v-14h0zM234 486v-1zM234 486v-1zM234 466v-14zM234 466v-14h0zM234 486zM234 466v-14zM234 466v-14h0zM234 466v-14zM234 466v-14 1zM234 466v-13zM234 466v-13 1zM234 466v-12zM235 466l-1-12 1 1zM235 466v-11zM235 466v-11h0zM235 466v-11zM235 466v-11 1zM235 466v-10zM235 466v-10h0zM235 466v-10zM235 466v-10 1zM235 466v-9zM236 466l-1-9 1 1zM236 466v-8zM236 466v-8 1zM236 466v-7zM236 466v-7 1zM236 466v-6zM236 466v-6 1zM236 466v-5zM236 466v-5 1zM236 466v-4zM236 466v-4 1zM236 466v-3zM237 466l-1-3 1 1zM237 466v-2zM237 466v-2 1zM237 466v-1h0z"/></g><g fill="none" stroke="currentColor" clip-path="url(#clipId0)"><path d="m308 462-2-7-4-6-3-2h-3l-4 2-2 2-2 5-1 8v12l2 5 4 6 4 1h3l4-5 3-5 1-5z"/><path d="m304 476-2 4-3 3h-3l-2-2-2-3-2-9v-8l2-4 1-2 2-2 3-1 2 1 3 4 2 6v5z"/></g><g fill="currentColor" stroke="currentColor" clip-path="url(#clipId0)"><path d="m287 470-1-2 1-2zM287 470v-4zM287 470v-4h0zM287 470v-4zM287 470v-4h0zM287 470v-4 5zM287 471v-6zM287 471v-6zM287 471v-6h0zM287 471v-6 7zM287 472v-9zM287 472v-9zM287 472v-9h0zM287 472v-9 10zM287 473v-11zM287 473v-11zM287 474v-12h0zM287 474v-12zM287 475v-14zM287 475v-14zM287 475v-15zM287 475v-15zM287 476v-16h0zM287 476v-16zM288 477l-1-17 1-2zM288 477v-19zM288 477v-19h0zM288 477v-19zM288 478v-21zM288 478v-21zM288 478v-21h0zM288 478v-21 22zM288 479v-23zM288 479v-23zM288 479v-23h0zM288 479v-23zM289 480l-1-24 1-1zM289 480v-25zM289 480v-25h0zM289 480v-25zM289 480v-25h0zM289 480v-25zM289 481v-27zM289 481v-27zM289 481v-27h0zM289 481v-27zM289 481v-27h0zM289 481v-27zM289 482v-28h0zM289 482v-28zM289 482v-29zM289 482v-29zM290 482l-1-29h1zM290 482v-29zM290 483v-30h0zM290 483v-30zM290 483v-31zM290 483v-31zM290 483v-31h0zM290 483v-31zM290 484v-32h0zM290 484v-32zM291 484l-1-32 1-1zM291 484v-33zM291 484v-33h0zM291 484v-33zM291 484v-33h0zM291 484v-33zM291 485v-35zM291 485v-35zM292 485l-1-35h1zM292 485v-35zM292 485v-35h0zM292 485v-35zM292 485v-35h0zM292 485v-35zM292 486v-37zM292 486v-37zM292 486v-37h0zM292 486v-37zM293 486l-1-37h1zM293 486v-37zM293 486v-37h0zM293 486v-37zM293 486v-37h0zM293 486v-37zM293 487v-38h0zM293 487v-38zM293 487v-38h0zM293 487v-38zM294 487l-1-38 1-1zM294 487v-39zM294 487v-39h0zM294 487v-39zM294 487v-39h0zM294 487v-39zM294 487v-39h0zM294 487v-39zM295 488l-1-40h1zM295 488v-40zM295 488v-40h0zM295 488v-40zM295 488v-41zM295 488v-41zM295 488v-41h0zM295 488v-41zM295 488v-41h0zM295 488v-41zM296 488l-1-41h1zM296 488v-41zM296 488v-41h0zM296 488v-41zM296 488v-41h0zM296 488v-41zM296 488v-41h0zM296 488v-41zM297 488l-1-41h1zM297 488v-41zM297 488v-41h0zM297 488v-41zM297 488v-41h0zM297 488v-41zM297 488v-41h0zM297 488v-41zM297 488v-41h0zM297 488v-41zM298 488l-1-41h1zM298 488v-41zM298 488v-41h0zM298 488v-41zM298 488v-41h0zM298 488v-41zM298 488v-41h0zM298 488v-41zM299 488l-1-41h1zM299 488v-41zM299 488v-41h0zM299 488v-41zM299 488v-41h0zM299 488v-41zM299 488v-41h0zM299 488v-41zM300 488l-1-41h1zM300 488v-41zM300 488v-41h0zM300 488v-41zM300 488v-41 1zM300 488v-40zM300 487v-39h0zM300 487v-39zM301 487l-1-39h1zM301 487v-39zM301 487v-39h0zM301 487v-39zM301 487v-39h0zM301 487v-39zM301 487v-39h0zM301 487v-39zM302 487l-1-39h1zM302 487v-39zM302 487v-39 1zM302 487v-38zM302 486v-37h0zM302 486v-37zM302 486v-37h0zM302 486v-37zM302 486v-37h0zM302 486v-37zM303 486l-1-37h1zM303 486v-37zM303 486v-37h0zM303 486v-37zM303 485v-36 1zM303 485v-35zM303 485v-35h0zM303 485v-35zM303 485v-35h0zM303 485v-35zM303 485v-35h0zM303 485v-35zM304 484l-1-34 1 1zM304 484v-33zM304 484v-33h0zM304 484v-33zM304 484v-33h0zM304 484v-33zM304 484v-33 1zM304 484v-32zM304 483v-31h0zM304 483v-31zM305 483l-1-31h1zM305 483v-31zM305 483v-31h0zM305 483v-31zM305 483v-31h0zM305 483v-31zM305 483v-31 1zM305 483v-30zM305 482v-29h0zM305 482v-29zM305 482v-29h0zM305 482v-29zM305 481v-28 1zM305 481v-27zM306 481l-1-27h1zM306 481v-27zM306 481v-27 1zM306 481v-26zM306 480v-25h0zM306 480v-25zM306 480v-25h0zM306 480v-25zM306 479v-24 1zM306 479v-23zM306 479v-23h0zM306 479v-23zM307 478l-1-22 1 1zM307 478v-21zM307 478v-21h0zM307 478v-21zM307 478v-21 1zM307 478v-20 19zM307 477v-19h0zM307 477v-19zM307 477v-19h0zM307 477v-19 18zM307 476v-18 1zM307 476v-17zM307 476v-17h0zM307 476v-17zM308 475l-1-16 1 1zM308 475v-15zM308 475v-15 1zM308 475v-14zM308 474v-13h0zM308 474v-13zM308 474v-13 1zM308 474v-12zM308 473v-11h0zM308 473v-11zM308 473v-11h0zM308 473v-11zM308 472v-10 1zM308 472v-9zM308 472v-9h0zM308 472v-9zM308 471v-8 1zM308 471v-7zM308 470v-6h0zM308 470v-6zM308 470v-6 1zM308 470v-5 4zM308 469v-4 1zM308 469v-3zM308 468v-2 1zM308 468v-1z"/></g><g fill="none" stroke="currentColor" clip-path="url(#clipId0)"><path d="M190 497V370h127v127z"/></g></svg>